<svg xmlns="http://www.w3.org/2000/svg" xmlns:xlink="http://www.w3.org/1999/xlink" width="150" zoomAndPan="magnify" viewBox="0 0 112.5 74.999997" height="100" preserveAspectRatio="xMidYMid meet" version="1.0"><defs><g/><clipPath id="0fd2f9f01c"><path d="M 0 0.164062 L 112.003906 0.164062 L 112.003906 47 L 0 47 Z M 0 0.164062 " clip-rule="nonzero"/></clipPath><clipPath id="11fafa693c"><rect x="0" width="113" y="0" height="47"/></clipPath></defs><g clip-path="url(#0fd2f9f01c)"><g transform="matrix(1, 0, 0, 1, 0, 0.000000000000006467)"><g clip-path="url(#11fafa693c)"><g fill="#ffffff" fill-opacity="1"><g transform="translate(0, 36.269661)"><g><path d="M 3.78125 -8.75 L 3.78125 -8.25 C 4.207031 -8.695312 4.71875 -9.0625 5.3125 -9.34375 C 5.914062 -9.632812 6.507812 -9.78125 7.09375 -9.78125 C 7.613281 -9.78125 8.085938 -9.644531 8.515625 -9.375 C 8.953125 -9.113281 9.300781 -8.710938 9.5625 -8.171875 C 10.09375 -8.640625 10.6875 -9.019531 11.34375 -9.3125 C 12.007812 -9.613281 12.640625 -9.765625 13.234375 -9.765625 C 14.046875 -9.765625 14.703125 -9.46875 15.203125 -8.875 C 15.710938 -8.289062 15.96875 -7.367188 15.96875 -6.109375 L 15.96875 -2.28125 C 15.96875 -1.894531 16.117188 -1.691406 16.421875 -1.671875 C 16.484375 -1.660156 16.566406 -1.648438 16.671875 -1.640625 C 16.773438 -1.640625 16.851562 -1.632812 16.90625 -1.625 C 16.96875 -1.625 17.039062 -1.617188 17.125 -1.609375 C 17.21875 -1.597656 17.289062 -1.585938 17.34375 -1.578125 C 17.40625 -1.578125 17.46875 -1.566406 17.53125 -1.546875 C 17.59375 -1.535156 17.644531 -1.519531 17.6875 -1.5 C 17.726562 -1.476562 17.765625 -1.457031 17.796875 -1.4375 C 17.835938 -1.414062 17.863281 -1.382812 17.875 -1.34375 C 17.882812 -1.3125 17.890625 -1.273438 17.890625 -1.234375 C 17.890625 -0.546875 17.796875 -0.109375 17.609375 0.078125 C 16.910156 0.0234375 16.304688 0 15.796875 0 C 15.503906 0 15.203125 0.0078125 14.890625 0.03125 C 14.585938 0.0625 14.375 0.078125 14.25 0.078125 C 14.039062 0.078125 13.9375 -0.148438 13.9375 -0.609375 L 13.9375 -5.953125 C 13.9375 -6.722656 13.8125 -7.285156 13.5625 -7.640625 C 13.3125 -8.003906 12.984375 -8.1875 12.578125 -8.1875 C 12.179688 -8.1875 11.738281 -8.066406 11.25 -7.828125 C 10.757812 -7.585938 10.300781 -7.28125 9.875 -6.90625 C 9.90625 -6.632812 9.921875 -6.367188 9.921875 -6.109375 L 9.921875 -2.28125 C 9.921875 -1.894531 10.066406 -1.691406 10.359375 -1.671875 C 10.421875 -1.660156 10.5 -1.648438 10.59375 -1.640625 C 10.695312 -1.640625 10.773438 -1.632812 10.828125 -1.625 C 10.890625 -1.625 10.960938 -1.617188 11.046875 -1.609375 C 11.128906 -1.597656 11.191406 -1.585938 11.234375 -1.578125 C 11.285156 -1.578125 11.34375 -1.566406 11.40625 -1.546875 C 11.46875 -1.535156 11.515625 -1.519531 11.546875 -1.5 C 11.585938 -1.476562 11.625 -1.457031 11.65625 -1.4375 C 11.6875 -1.414062 11.707031 -1.382812 11.71875 -1.34375 C 11.738281 -1.3125 11.75 -1.273438 11.75 -1.234375 C 11.75 -0.546875 11.648438 -0.109375 11.453125 0.078125 C 10.878906 0.0234375 10.351562 0 9.875 0 C 9.582031 0 9.253906 0.0078125 8.890625 0.03125 C 8.535156 0.0625 8.300781 0.078125 8.1875 0.078125 C 7.988281 0.078125 7.890625 -0.148438 7.890625 -0.609375 L 7.890625 -5.953125 C 7.890625 -6.722656 7.765625 -7.285156 7.515625 -7.640625 C 7.265625 -8.003906 6.9375 -8.1875 6.53125 -8.1875 C 6.125 -8.1875 5.679688 -8.0625 5.203125 -7.8125 C 4.722656 -7.5625 4.273438 -7.242188 3.859375 -6.859375 L 3.859375 -2.234375 C 3.859375 -2.148438 3.863281 -2.082031 3.875 -2.03125 C 3.882812 -1.976562 3.90625 -1.921875 3.9375 -1.859375 C 3.976562 -1.796875 4.039062 -1.742188 4.125 -1.703125 C 4.21875 -1.671875 4.328125 -1.65625 4.453125 -1.65625 C 4.679688 -1.65625 4.875 -1.617188 5.03125 -1.546875 C 5.195312 -1.484375 5.28125 -1.378906 5.28125 -1.234375 C 5.28125 -0.535156 5.179688 -0.0976562 4.984375 0.078125 C 4.398438 0.0234375 3.679688 0 2.828125 0 C 1.898438 0 1.210938 0.0234375 0.765625 0.078125 C 0.566406 -0.109375 0.46875 -0.546875 0.46875 -1.234375 C 0.46875 -1.378906 0.546875 -1.484375 0.703125 -1.546875 C 0.867188 -1.617188 1.066406 -1.65625 1.296875 -1.65625 C 1.503906 -1.65625 1.644531 -1.695312 1.71875 -1.78125 C 1.789062 -1.863281 1.828125 -2.007812 1.828125 -2.21875 L 1.828125 -7.015625 C 1.828125 -7.328125 1.734375 -7.546875 1.546875 -7.671875 C 1.367188 -7.804688 1.023438 -7.890625 0.515625 -7.921875 C 0.429688 -7.929688 0.378906 -7.96875 0.359375 -8.03125 C 0.335938 -8.09375 0.328125 -8.222656 0.328125 -8.421875 C 0.328125 -8.722656 0.359375 -8.988281 0.421875 -9.21875 C 0.492188 -9.445312 0.5625 -9.582031 0.625 -9.625 C 1.082031 -9.5625 1.523438 -9.53125 1.953125 -9.53125 C 2.222656 -9.53125 2.503906 -9.546875 2.796875 -9.578125 C 3.097656 -9.609375 3.257812 -9.625 3.28125 -9.625 C 3.488281 -9.625 3.625 -9.570312 3.6875 -9.46875 C 3.75 -9.363281 3.78125 -9.125 3.78125 -8.75 Z M 3.78125 -8.75 "/></g></g><g transform="translate(18.106152, 36.269661)"><g><path d="M 9.96875 -8.984375 L 9.96875 -2.4375 C 9.96875 -2.28125 9.96875 -2.171875 9.96875 -2.109375 C 9.976562 -2.046875 9.992188 -1.972656 10.015625 -1.890625 C 10.046875 -1.804688 10.09375 -1.75 10.15625 -1.71875 C 10.21875 -1.695312 10.300781 -1.675781 10.40625 -1.65625 C 10.507812 -1.632812 10.65625 -1.625 10.84375 -1.625 C 11.101562 -1.625 11.269531 -1.585938 11.34375 -1.515625 C 11.425781 -1.453125 11.46875 -1.320312 11.46875 -1.125 C 11.46875 -0.820312 11.429688 -0.554688 11.359375 -0.328125 C 11.285156 -0.0976562 11.222656 0.0351562 11.171875 0.078125 C 10.734375 0.0234375 10.332031 0 9.96875 0 C 9.71875 0 9.457031 0.0078125 9.1875 0.03125 C 8.925781 0.0625 8.769531 0.078125 8.71875 0.078125 C 8.476562 0.078125 8.332031 0.00390625 8.28125 -0.140625 C 8.226562 -0.285156 8.203125 -0.664062 8.203125 -1.28125 C 7.785156 -0.800781 7.28125 -0.425781 6.6875 -0.15625 C 6.101562 0.101562 5.507812 0.234375 4.90625 0.234375 C 4.46875 0.234375 4.054688 0.160156 3.671875 0.015625 C 3.285156 -0.128906 2.9375 -0.34375 2.625 -0.625 C 2.320312 -0.90625 2.082031 -1.285156 1.90625 -1.765625 C 1.726562 -2.253906 1.640625 -2.804688 1.640625 -3.421875 L 1.640625 -7 C 1.640625 -7.570312 1.488281 -7.867188 1.1875 -7.890625 C 1.132812 -7.898438 1.066406 -7.90625 0.984375 -7.90625 C 0.898438 -7.914062 0.832031 -7.921875 0.78125 -7.921875 C 0.726562 -7.929688 0.664062 -7.941406 0.59375 -7.953125 C 0.519531 -7.960938 0.460938 -7.96875 0.421875 -7.96875 C 0.378906 -7.976562 0.332031 -7.988281 0.28125 -8 C 0.226562 -8.019531 0.1875 -8.039062 0.15625 -8.0625 C 0.125 -8.082031 0.09375 -8.101562 0.0625 -8.125 C 0.03125 -8.144531 0.0078125 -8.171875 0 -8.203125 C -0.0078125 -8.234375 -0.015625 -8.269531 -0.015625 -8.3125 C -0.015625 -9.007812 0.0820312 -9.445312 0.28125 -9.625 C 0.832031 -9.5625 1.347656 -9.53125 1.828125 -9.53125 C 2.148438 -9.53125 2.484375 -9.546875 2.828125 -9.578125 C 3.171875 -9.609375 3.347656 -9.625 3.359375 -9.625 C 3.554688 -9.625 3.65625 -9.410156 3.65625 -8.984375 L 3.65625 -3.328125 C 3.65625 -2.671875 3.820312 -2.175781 4.15625 -1.84375 C 4.5 -1.519531 4.9375 -1.359375 5.46875 -1.359375 C 5.925781 -1.359375 6.378906 -1.476562 6.828125 -1.71875 C 7.273438 -1.957031 7.644531 -2.28125 7.9375 -2.6875 L 7.9375 -7 C 7.9375 -7.570312 7.785156 -7.867188 7.484375 -7.890625 C 7.441406 -7.898438 7.375 -7.90625 7.28125 -7.90625 C 7.195312 -7.914062 7.128906 -7.921875 7.078125 -7.921875 C 7.023438 -7.929688 6.960938 -7.941406 6.890625 -7.953125 C 6.828125 -7.960938 6.773438 -7.96875 6.734375 -7.96875 C 6.691406 -7.976562 6.640625 -7.988281 6.578125 -8 C 6.523438 -8.019531 6.484375 -8.039062 6.453125 -8.0625 C 6.421875 -8.082031 6.390625 -8.101562 6.359375 -8.125 C 6.328125 -8.144531 6.304688 -8.171875 6.296875 -8.203125 C 6.285156 -8.234375 6.28125 -8.269531 6.28125 -8.3125 C 6.28125 -9.007812 6.378906 -9.445312 6.578125 -9.625 C 7.140625 -9.5625 7.65625 -9.53125 8.125 -9.53125 C 8.519531 -9.53125 8.921875 -9.546875 9.328125 -9.578125 C 9.734375 -9.609375 9.941406 -9.625 9.953125 -9.625 C 9.960938 -9.625 9.96875 -9.410156 9.96875 -8.984375 Z M 9.96875 -8.984375 "/></g></g><g transform="translate(29.840794, 36.269661)"><g><path d="M 2.390625 -11.109375 C 2.242188 -11.109375 2.097656 -11.117188 1.953125 -11.140625 C 1.804688 -11.171875 1.644531 -11.222656 1.46875 -11.296875 C 1.289062 -11.367188 1.144531 -11.484375 1.03125 -11.640625 C 0.925781 -11.796875 0.875 -11.976562 0.875 -12.1875 C 0.875 -12.925781 1.367188 -13.296875 2.359375 -13.296875 C 2.640625 -13.296875 2.875 -13.257812 3.0625 -13.1875 C 3.257812 -13.113281 3.40625 -13.015625 3.5 -12.890625 C 3.59375 -12.773438 3.65625 -12.660156 3.6875 -12.546875 C 3.71875 -12.429688 3.734375 -12.3125 3.734375 -12.1875 C 3.734375 -11.914062 3.648438 -11.691406 3.484375 -11.515625 C 3.316406 -11.347656 3.140625 -11.238281 2.953125 -11.1875 C 2.765625 -11.132812 2.578125 -11.109375 2.390625 -11.109375 Z M 3.859375 -8.75 L 3.859375 -2.234375 C 3.859375 -2.148438 3.863281 -2.082031 3.875 -2.03125 C 3.882812 -1.976562 3.90625 -1.921875 3.9375 -1.859375 C 3.96875 -1.796875 4.023438 -1.742188 4.109375 -1.703125 C 4.191406 -1.671875 4.300781 -1.65625 4.4375 -1.65625 C 4.664062 -1.65625 4.859375 -1.617188 5.015625 -1.546875 C 5.171875 -1.484375 5.25 -1.378906 5.25 -1.234375 C 5.25 -0.535156 5.15625 -0.0976562 4.96875 0.078125 C 4.425781 0.0234375 3.769531 0 3 0 C 2.195312 0 1.445312 0.0234375 0.75 0.078125 C 0.550781 -0.109375 0.453125 -0.546875 0.453125 -1.234375 C 0.453125 -1.378906 0.53125 -1.484375 0.6875 -1.546875 C 0.851562 -1.617188 1.050781 -1.65625 1.28125 -1.65625 C 1.507812 -1.65625 1.660156 -1.703125 1.734375 -1.796875 C 1.804688 -1.898438 1.84375 -2.039062 1.84375 -2.21875 L 1.84375 -7.015625 C 1.84375 -7.328125 1.75 -7.546875 1.5625 -7.671875 C 1.382812 -7.804688 1.035156 -7.890625 0.515625 -7.921875 C 0.441406 -7.929688 0.394531 -7.96875 0.375 -8.03125 C 0.351562 -8.09375 0.34375 -8.222656 0.34375 -8.421875 C 0.34375 -8.722656 0.375 -8.988281 0.4375 -9.21875 C 0.5 -9.445312 0.566406 -9.582031 0.640625 -9.625 C 1.097656 -9.5625 1.539062 -9.53125 1.96875 -9.53125 C 2.25 -9.53125 2.546875 -9.546875 2.859375 -9.578125 C 3.179688 -9.609375 3.347656 -9.625 3.359375 -9.625 C 3.566406 -9.625 3.703125 -9.570312 3.765625 -9.46875 C 3.828125 -9.363281 3.859375 -9.125 3.859375 -8.75 Z M 3.859375 -8.75 "/></g></g><g transform="translate(35.382401, 36.269661)"><g><path d="M 8.4375 -2.359375 C 8.4375 -1.765625 8.253906 -1.269531 7.890625 -0.875 C 7.523438 -0.476562 7.039062 -0.191406 6.4375 -0.015625 C 5.84375 0.148438 5.132812 0.234375 4.3125 0.234375 C 3.050781 0.234375 2.0625 0.0546875 1.34375 -0.296875 C 0.632812 -0.660156 0.28125 -1.21875 0.28125 -1.96875 C 0.28125 -2.820312 0.800781 -3.25 1.84375 -3.25 C 2.007812 -3.25 2.117188 -3.210938 2.171875 -3.140625 C 2.234375 -3.078125 2.265625 -2.957031 2.265625 -2.78125 L 2.265625 -1.5625 C 2.484375 -1.445312 2.804688 -1.351562 3.234375 -1.28125 C 3.671875 -1.21875 4.109375 -1.1875 4.546875 -1.1875 C 5.066406 -1.1875 5.5 -1.296875 5.84375 -1.515625 C 6.1875 -1.734375 6.359375 -2.03125 6.359375 -2.40625 C 6.359375 -2.675781 6.269531 -2.914062 6.09375 -3.125 C 5.925781 -3.34375 5.703125 -3.515625 5.421875 -3.640625 C 5.140625 -3.773438 4.816406 -3.90625 4.453125 -4.03125 C 4.097656 -4.164062 3.734375 -4.289062 3.359375 -4.40625 C 2.984375 -4.519531 2.613281 -4.660156 2.25 -4.828125 C 1.894531 -5.003906 1.578125 -5.191406 1.296875 -5.390625 C 1.023438 -5.597656 0.800781 -5.863281 0.625 -6.1875 C 0.445312 -6.519531 0.359375 -6.890625 0.359375 -7.296875 C 0.359375 -7.828125 0.554688 -8.285156 0.953125 -8.671875 C 1.347656 -9.054688 1.828125 -9.335938 2.390625 -9.515625 C 2.960938 -9.691406 3.570312 -9.78125 4.21875 -9.78125 C 6.882812 -9.78125 8.21875 -9.003906 8.21875 -7.453125 C 8.21875 -7.359375 8.203125 -7.253906 8.171875 -7.140625 C 8.140625 -7.035156 8.078125 -6.910156 7.984375 -6.765625 C 7.890625 -6.628906 7.734375 -6.515625 7.515625 -6.421875 C 7.296875 -6.328125 7.03125 -6.28125 6.71875 -6.28125 C 6.65625 -6.28125 6.601562 -6.285156 6.5625 -6.296875 C 6.53125 -6.304688 6.503906 -6.316406 6.484375 -6.328125 C 6.460938 -6.347656 6.441406 -6.378906 6.421875 -6.421875 C 6.410156 -6.460938 6.40625 -6.488281 6.40625 -6.5 C 6.40625 -6.519531 6.398438 -6.5625 6.390625 -6.625 C 6.378906 -6.6875 6.375 -6.726562 6.375 -6.75 L 6.25 -8 C 6.164062 -8.082031 5.90625 -8.175781 5.46875 -8.28125 C 5.039062 -8.382812 4.671875 -8.4375 4.359375 -8.4375 C 3.753906 -8.4375 3.304688 -8.320312 3.015625 -8.09375 C 2.722656 -7.863281 2.578125 -7.578125 2.578125 -7.234375 C 2.578125 -6.984375 2.679688 -6.765625 2.890625 -6.578125 C 3.109375 -6.390625 3.390625 -6.226562 3.734375 -6.09375 C 4.085938 -5.957031 4.46875 -5.820312 4.875 -5.6875 C 5.289062 -5.5625 5.707031 -5.40625 6.125 -5.21875 C 6.539062 -5.039062 6.921875 -4.835938 7.265625 -4.609375 C 7.617188 -4.378906 7.898438 -4.070312 8.109375 -3.6875 C 8.328125 -3.300781 8.4375 -2.859375 8.4375 -2.359375 Z M 8.4375 -2.359375 "/></g></g></g><g fill="#3c3c3b" fill-opacity="1"><g transform="translate(42.115258, 36.143792)"><g><path d="M 5.515625 -2.65625 L 5.515625 -13.078125 C 5.515625 -13.148438 5.507812 -13.203125 5.5 -13.234375 C 5.5 -13.273438 5.476562 -13.316406 5.4375 -13.359375 C 5.40625 -13.398438 5.351562 -13.421875 5.28125 -13.421875 C 4.957031 -13.421875 4.492188 -13.421875 3.890625 -13.421875 C 3.296875 -13.429688 2.867188 -13.4375 2.609375 -13.4375 C 2.546875 -13.300781 2.441406 -12.960938 2.296875 -12.421875 C 2.160156 -11.890625 2.019531 -11.421875 1.875 -11.015625 C 1.738281 -10.617188 1.613281 -10.421875 1.5 -10.421875 C 1.25 -10.421875 1.023438 -10.453125 0.828125 -10.515625 C 0.628906 -10.585938 0.476562 -10.671875 0.375 -10.765625 C 0.269531 -10.859375 0.191406 -10.945312 0.140625 -11.03125 C 0.0859375 -11.125 0.0625 -11.191406 0.0625 -11.234375 C 0.0625 -11.460938 0.1875 -12.15625 0.4375 -13.3125 C 0.6875 -14.46875 0.859375 -15.09375 0.953125 -15.1875 C 0.972656 -15.1875 0.988281 -15.179688 1 -15.171875 C 1.019531 -15.171875 1.039062 -15.171875 1.0625 -15.171875 C 3.0625 -15.003906 4.9375 -14.921875 6.6875 -14.921875 C 8.425781 -14.921875 10.296875 -15.003906 12.296875 -15.171875 C 12.316406 -15.171875 12.335938 -15.171875 12.359375 -15.171875 C 12.378906 -15.179688 12.398438 -15.1875 12.421875 -15.1875 C 12.515625 -15.09375 12.679688 -14.46875 12.921875 -13.3125 C 13.171875 -12.15625 13.296875 -11.460938 13.296875 -11.234375 C 13.296875 -11.191406 13.269531 -11.125 13.21875 -11.03125 C 13.175781 -10.945312 13.101562 -10.859375 13 -10.765625 C 12.894531 -10.671875 12.742188 -10.585938 12.546875 -10.515625 C 12.347656 -10.453125 12.117188 -10.421875 11.859375 -10.421875 C 11.742188 -10.421875 11.613281 -10.617188 11.46875 -11.015625 C 11.332031 -11.421875 11.195312 -11.890625 11.0625 -12.421875 C 10.925781 -12.960938 10.828125 -13.300781 10.765625 -13.4375 C 10.503906 -13.4375 10.070312 -13.429688 9.46875 -13.421875 C 8.863281 -13.421875 8.40625 -13.421875 8.09375 -13.421875 C 7.976562 -13.421875 7.90625 -13.390625 7.875 -13.328125 C 7.851562 -13.273438 7.84375 -13.191406 7.84375 -13.078125 L 7.84375 -2.671875 C 7.84375 -2.566406 7.847656 -2.484375 7.859375 -2.421875 C 7.867188 -2.367188 7.890625 -2.304688 7.921875 -2.234375 C 7.960938 -2.160156 8.03125 -2.101562 8.125 -2.0625 C 8.21875 -2.03125 8.34375 -2.015625 8.5 -2.015625 C 8.800781 -2.015625 9.0625 -1.972656 9.28125 -1.890625 C 9.507812 -1.816406 9.625 -1.695312 9.625 -1.53125 C 9.625 -0.632812 9.515625 -0.0859375 9.296875 0.109375 C 8.285156 0.0351562 7.421875 0 6.703125 0 C 5.992188 0 5.117188 0.0351562 4.078125 0.109375 C 3.859375 -0.0859375 3.75 -0.632812 3.75 -1.53125 C 3.75 -1.695312 3.859375 -1.816406 4.078125 -1.890625 C 4.304688 -1.972656 4.570312 -2.015625 4.875 -2.015625 C 5.144531 -2.015625 5.316406 -2.066406 5.390625 -2.171875 C 5.472656 -2.285156 5.515625 -2.445312 5.515625 -2.65625 Z M 5.515625 -2.65625 "/></g></g></g><g fill="#3c3c3b" fill-opacity="1"><g transform="translate(55.58764, 36.143792)"><g><path d="M 1.140625 -15.15625 C 2.253906 -15.070312 3.054688 -15.03125 3.546875 -15.03125 C 4.078125 -15.03125 4.910156 -15.070312 6.046875 -15.15625 C 6.191406 -15.050781 6.296875 -14.832031 6.359375 -14.5 C 6.429688 -14.175781 6.46875 -13.84375 6.46875 -13.5 C 6.46875 -13.332031 6.359375 -13.207031 6.140625 -13.125 C 5.921875 -13.050781 5.65625 -13.015625 5.34375 -13.015625 C 5.195312 -13.015625 5.078125 -12.992188 4.984375 -12.953125 C 4.890625 -12.921875 4.820312 -12.863281 4.78125 -12.78125 C 4.75 -12.707031 4.726562 -12.640625 4.71875 -12.578125 C 4.707031 -12.523438 4.703125 -12.453125 4.703125 -12.359375 L 4.703125 -2.671875 C 4.703125 -2.566406 4.707031 -2.484375 4.71875 -2.421875 C 4.726562 -2.367188 4.75 -2.304688 4.78125 -2.234375 C 4.820312 -2.160156 4.890625 -2.101562 4.984375 -2.0625 C 5.078125 -2.03125 5.195312 -2.015625 5.34375 -2.015625 C 5.65625 -2.015625 5.921875 -1.972656 6.140625 -1.890625 C 6.359375 -1.816406 6.46875 -1.695312 6.46875 -1.53125 C 6.46875 -1.1875 6.429688 -0.851562 6.359375 -0.53125 C 6.296875 -0.207031 6.191406 0.00390625 6.046875 0.109375 C 5.078125 0.0351562 4.242188 0 3.546875 0 C 2.890625 0 2.085938 0.0351562 1.140625 0.109375 C 0.960938 0.00390625 0.828125 -0.207031 0.734375 -0.53125 C 0.648438 -0.851562 0.609375 -1.1875 0.609375 -1.53125 C 0.609375 -1.695312 0.71875 -1.816406 0.9375 -1.890625 C 1.15625 -1.972656 1.421875 -2.015625 1.734375 -2.015625 C 1.992188 -2.015625 2.164062 -2.066406 2.25 -2.171875 C 2.332031 -2.285156 2.375 -2.445312 2.375 -2.65625 L 2.375 -12.390625 C 2.375 -12.597656 2.332031 -12.753906 2.25 -12.859375 C 2.164062 -12.972656 1.992188 -13.03125 1.734375 -13.03125 C 0.984375 -13.03125 0.609375 -13.207031 0.609375 -13.5625 C 0.609375 -13.882812 0.648438 -14.207031 0.734375 -14.53125 C 0.828125 -14.851562 0.960938 -15.0625 1.140625 -15.15625 Z M 1.140625 -15.15625 "/></g></g></g><g fill="#3c3c3b" fill-opacity="1"><g transform="translate(62.768662, 36.143792)"><g><path d="M 1.140625 -15.15625 C 2.253906 -15.070312 3.054688 -15.03125 3.546875 -15.03125 C 4.078125 -15.03125 4.910156 -15.070312 6.046875 -15.15625 C 6.191406 -15.050781 6.296875 -14.832031 6.359375 -14.5 C 6.429688 -14.175781 6.46875 -13.84375 6.46875 -13.5 C 6.46875 -13.332031 6.359375 -13.207031 6.140625 -13.125 C 5.921875 -13.050781 5.65625 -13.015625 5.34375 -13.015625 C 5.195312 -13.015625 5.078125 -12.992188 4.984375 -12.953125 C 4.890625 -12.921875 4.820312 -12.863281 4.78125 -12.78125 C 4.75 -12.707031 4.726562 -12.640625 4.71875 -12.578125 C 4.707031 -12.523438 4.703125 -12.453125 4.703125 -12.359375 L 4.703125 -7.984375 L 10.34375 -12.375 C 10.488281 -12.488281 10.5625 -12.59375 10.5625 -12.6875 C 10.5625 -12.820312 10.507812 -12.914062 10.40625 -12.96875 C 10.300781 -13.019531 10.191406 -13.046875 10.078125 -13.046875 C 9.960938 -13.046875 9.851562 -13.0625 9.75 -13.09375 C 9.65625 -13.132812 9.609375 -13.210938 9.609375 -13.328125 C 9.609375 -13.398438 9.660156 -13.65625 9.765625 -14.09375 C 9.804688 -14.1875 9.863281 -14.367188 9.9375 -14.640625 C 10.019531 -14.921875 10.085938 -15.09375 10.140625 -15.15625 C 11.304688 -15.070312 12.160156 -15.03125 12.703125 -15.03125 C 13.148438 -15.03125 13.992188 -15.070312 15.234375 -15.15625 C 15.347656 -15.007812 15.425781 -14.757812 15.46875 -14.40625 C 15.519531 -14.050781 15.546875 -13.75 15.546875 -13.5 C 15.546875 -13.332031 15.460938 -13.207031 15.296875 -13.125 C 15.128906 -13.050781 14.957031 -13.015625 14.78125 -13.015625 C 14.519531 -13.015625 14.289062 -12.984375 14.09375 -12.921875 C 13.90625 -12.867188 13.757812 -12.8125 13.65625 -12.75 C 13.5625 -12.6875 13.445312 -12.597656 13.3125 -12.484375 L 7.921875 -8 C 8.347656 -7.476562 8.785156 -6.898438 9.234375 -6.265625 C 9.691406 -5.628906 10.050781 -5.113281 10.3125 -4.71875 C 10.570312 -4.332031 10.867188 -3.9375 11.203125 -3.53125 C 11.535156 -3.125 11.847656 -2.8125 12.140625 -2.59375 C 12.441406 -2.375 12.796875 -2.191406 13.203125 -2.046875 C 13.609375 -1.898438 14.0625 -1.828125 14.5625 -1.828125 C 15.382812 -1.828125 15.796875 -1.742188 15.796875 -1.578125 L 15.796875 -1.203125 C 15.796875 -0.972656 15.78125 -0.785156 15.75 -0.640625 C 15.71875 -0.503906 15.644531 -0.351562 15.53125 -0.1875 C 15.425781 -0.03125 15.25 0.0820312 15 0.15625 C 14.757812 0.226562 14.441406 0.265625 14.046875 0.265625 C 13.398438 0.265625 12.832031 0.210938 12.34375 0.109375 C 11.851562 0.00390625 11.421875 -0.164062 11.046875 -0.40625 C 10.671875 -0.644531 10.34375 -0.90625 10.0625 -1.1875 C 9.789062 -1.46875 9.507812 -1.832031 9.21875 -2.28125 C 8.925781 -2.738281 8.65625 -3.179688 8.40625 -3.609375 C 8.15625 -4.035156 7.832031 -4.566406 7.4375 -5.203125 C 7.050781 -5.835938 6.660156 -6.429688 6.265625 -6.984375 L 4.703125 -5.8125 L 4.703125 -2.671875 C 4.703125 -2.566406 4.707031 -2.484375 4.71875 -2.421875 C 4.726562 -2.367188 4.75 -2.304688 4.78125 -2.234375 C 4.820312 -2.160156 4.890625 -2.101562 4.984375 -2.0625 C 5.078125 -2.03125 5.195312 -2.015625 5.34375 -2.015625 C 5.65625 -2.015625 5.921875 -1.972656 6.140625 -1.890625 C 6.359375 -1.816406 6.46875 -1.695312 6.46875 -1.53125 C 6.46875 -1.1875 6.429688 -0.851562 6.359375 -0.53125 C 6.296875 -0.207031 6.191406 0.00390625 6.046875 0.109375 C 5.078125 0.0351562 4.242188 0 3.546875 0 C 2.890625 0 2.085938 0.0351562 1.140625 0.109375 C 0.960938 0.00390625 0.828125 -0.207031 0.734375 -0.53125 C 0.648438 -0.851562 0.609375 -1.1875 0.609375 -1.53125 C 0.609375 -1.695312 0.71875 -1.816406 0.9375 -1.890625 C 1.15625 -1.972656 1.421875 -2.015625 1.734375 -2.015625 C 1.992188 -2.015625 2.164062 -2.066406 2.25 -2.171875 C 2.332031 -2.285156 2.375 -2.445312 2.375 -2.65625 L 2.375 -12.390625 C 2.375 -12.597656 2.332031 -12.753906 2.25 -12.859375 C 2.164062 -12.972656 1.992188 -13.03125 1.734375 -13.03125 C 0.984375 -13.03125 0.609375 -13.207031 0.609375 -13.5625 C 0.609375 -13.882812 0.648438 -14.207031 0.734375 -14.53125 C 0.828125 -14.851562 0.960938 -15.0625 1.140625 -15.15625 Z M 1.140625 -15.15625 "/></g></g></g><g fill="#3c3c3b" fill-opacity="1"><g transform="translate(78.983432, 36.143792)"><g><path d="M 10.984375 -0.171875 C 10.140625 0.117188 9.222656 0.265625 8.234375 0.265625 C 7.242188 0.265625 6.328125 0.117188 5.484375 -0.171875 C 4.648438 -0.460938 3.9375 -0.859375 3.34375 -1.359375 C 2.75 -1.859375 2.238281 -2.441406 1.8125 -3.109375 C 1.394531 -3.773438 1.082031 -4.484375 0.875 -5.234375 C 0.675781 -5.984375 0.578125 -6.75 0.578125 -7.53125 C 0.578125 -8.320312 0.675781 -9.085938 0.875 -9.828125 C 1.082031 -10.566406 1.394531 -11.265625 1.8125 -11.921875 C 2.226562 -12.578125 2.734375 -13.148438 3.328125 -13.640625 C 3.921875 -14.140625 4.640625 -14.53125 5.484375 -14.8125 C 6.328125 -15.101562 7.242188 -15.25 8.234375 -15.25 C 9.222656 -15.25 10.140625 -15.101562 10.984375 -14.8125 C 11.828125 -14.53125 12.546875 -14.140625 13.140625 -13.640625 C 13.742188 -13.148438 14.253906 -12.578125 14.671875 -11.921875 C 15.085938 -11.265625 15.394531 -10.566406 15.59375 -9.828125 C 15.800781 -9.085938 15.90625 -8.320312 15.90625 -7.53125 C 15.90625 -6.75 15.800781 -5.984375 15.59375 -5.234375 C 15.394531 -4.484375 15.082031 -3.773438 14.65625 -3.109375 C 14.238281 -2.441406 13.734375 -1.859375 13.140625 -1.359375 C 12.546875 -0.859375 11.828125 -0.460938 10.984375 -0.171875 Z M 6.40625 -1.875 C 6.96875 -1.65625 7.578125 -1.546875 8.234375 -1.546875 C 8.898438 -1.546875 9.507812 -1.65625 10.0625 -1.875 C 10.625 -2.101562 11.101562 -2.40625 11.5 -2.78125 C 11.894531 -3.164062 12.234375 -3.609375 12.515625 -4.109375 C 12.796875 -4.617188 13 -5.160156 13.125 -5.734375 C 13.257812 -6.304688 13.328125 -6.894531 13.328125 -7.5 C 13.328125 -8.257812 13.21875 -8.988281 13 -9.6875 C 12.78125 -10.382812 12.46875 -11.015625 12.0625 -11.578125 C 11.65625 -12.140625 11.117188 -12.585938 10.453125 -12.921875 C 9.785156 -13.265625 9.046875 -13.4375 8.234375 -13.4375 C 7.421875 -13.4375 6.679688 -13.265625 6.015625 -12.921875 C 5.359375 -12.585938 4.820312 -12.140625 4.40625 -11.578125 C 4 -11.015625 3.6875 -10.382812 3.46875 -9.6875 C 3.25 -8.988281 3.140625 -8.257812 3.140625 -7.5 C 3.140625 -6.894531 3.207031 -6.304688 3.34375 -5.734375 C 3.476562 -5.160156 3.6875 -4.617188 3.96875 -4.109375 C 4.25 -3.609375 4.585938 -3.164062 4.984375 -2.78125 C 5.378906 -2.40625 5.851562 -2.101562 6.40625 -1.875 Z M 6.40625 -1.875 "/></g></g></g><g fill="#3c3c3b" fill-opacity="1"><g transform="translate(112.002048, 10.037844)"><g><path d="M -3.78125 2.34375 C -3.78125 3.132812 -4.039062 3.796875 -4.5625 4.328125 C -5.09375 4.867188 -5.867188 5.140625 -6.890625 5.140625 C -7.890625 5.140625 -8.640625 4.867188 -9.140625 4.328125 C -9.640625 3.785156 -9.890625 3.125 -9.890625 2.34375 C -9.890625 1.582031 -9.640625 0.925781 -9.140625 0.375 C -8.640625 -0.175781 -7.890625 -0.453125 -6.890625 -0.453125 C -5.867188 -0.453125 -5.09375 -0.179688 -4.5625 0.359375 C -4.039062 0.910156 -3.78125 1.570312 -3.78125 2.34375 Z M -7.71875 23.125 C -7.050781 23.125 -6.4375 23.0625 -5.875 22.9375 C -5.320312 22.820312 -4.929688 22.707031 -4.703125 22.59375 L -4.34375 22.421875 L -4.34375 19.796875 C -4.34375 19.265625 -4.285156 18.929688 -4.171875 18.796875 C -4.054688 18.660156 -3.765625 18.59375 -3.296875 18.59375 C -2.367188 18.59375 -1.675781 18.878906 -1.21875 19.453125 C -0.769531 20.023438 -0.546875 20.660156 -0.546875 21.359375 C -0.546875 22.679688 -1.128906 23.769531 -2.296875 24.625 C -3.472656 25.488281 -5.304688 25.921875 -7.796875 25.921875 C -9.941406 25.921875 -11.671875 25.429688 -12.984375 24.453125 C -14.296875 23.472656 -14.953125 22.109375 -14.953125 20.359375 C -14.953125 19.503906 -14.820312 18.71875 -14.5625 18 C -14.300781 17.289062 -13.960938 16.695312 -13.546875 16.21875 C -13.140625 15.738281 -12.6875 15.296875 -12.1875 14.890625 C -11.695312 14.492188 -11.203125 14.128906 -10.703125 13.796875 C -10.203125 13.472656 -9.742188 13.15625 -9.328125 12.84375 C -8.921875 12.53125 -8.585938 12.179688 -8.328125 11.796875 C -8.078125 11.421875 -7.953125 11.015625 -7.953125 10.578125 C -7.953125 10.347656 -7.957031 10.0625 -7.96875 9.71875 C -7.976562 9.382812 -7.984375 9.148438 -7.984375 9.015625 C -7.984375 8.316406 -7.65625 7.96875 -7 7.96875 C -6.769531 7.96875 -6.472656 7.972656 -6.109375 7.984375 C -5.753906 7.992188 -5.566406 8 -5.546875 8 C -5.191406 8 -4.894531 8.28125 -4.65625 8.84375 C -4.414062 9.414062 -4.296875 10.101562 -4.296875 10.90625 C -4.296875 11.15625 -4.3125 11.382812 -4.34375 11.59375 C -4.375 11.8125 -4.398438 11.992188 -4.421875 12.140625 C -4.441406 12.296875 -4.507812 12.460938 -4.625 12.640625 C -4.738281 12.816406 -4.820312 12.953125 -4.875 13.046875 C -4.925781 13.140625 -5.050781 13.28125 -5.25 13.46875 C -5.445312 13.65625 -5.585938 13.785156 -5.671875 13.859375 C -5.765625 13.941406 -5.960938 14.113281 -6.265625 14.375 C -6.566406 14.632812 -6.785156 14.820312 -6.921875 14.9375 C -7.109375 15.082031 -7.441406 15.335938 -7.921875 15.703125 C -8.410156 16.078125 -8.800781 16.398438 -9.09375 16.671875 C -9.394531 16.953125 -9.726562 17.300781 -10.09375 17.71875 C -10.457031 18.132812 -10.726562 18.582031 -10.90625 19.0625 C -11.09375 19.550781 -11.1875 20.078125 -11.1875 20.640625 C -11.1875 21.359375 -10.882812 21.953125 -10.28125 22.421875 C -9.6875 22.890625 -8.832031 23.125 -7.71875 23.125 Z M -7.71875 23.125 "/></g></g></g></g></g></g></svg>