<svg xmlns="http://www.w3.org/2000/svg" xmlns:xlink="http://www.w3.org/1999/xlink" width="300" zoomAndPan="magnify" viewBox="0 0 224.87999 112.499997" height="150" preserveAspectRatio="xMidYMid meet" version="1.0"><defs><g/><clipPath id="2541efad5b"><path d="M 0.4375 0 L 224.324219 0 L 224.324219 95 L 0.4375 95 Z M 0.4375 0 " clip-rule="nonzero"/></clipPath><clipPath id="77d2c50dd5"><rect x="0" width="225" y="0" height="95"/></clipPath></defs><g clip-path="url(#2541efad5b)"><g><g clip-path="url(#77d2c50dd5)"><g fill="#ffffff" fill-opacity="1"><g transform="translate(0.437786, 75.59184)"><g><path d="M 7.546875 -17.484375 L 7.546875 -16.5 C 8.398438 -17.394531 9.425781 -18.125 10.625 -18.6875 C 11.820312 -19.257812 13.003906 -19.546875 14.171875 -19.546875 C 15.222656 -19.546875 16.179688 -19.28125 17.046875 -18.75 C 17.910156 -18.226562 18.601562 -17.421875 19.125 -16.328125 C 20.1875 -17.273438 21.375 -18.039062 22.6875 -18.625 C 24 -19.21875 25.257812 -19.515625 26.46875 -19.515625 C 28.082031 -19.515625 29.394531 -18.925781 30.40625 -17.75 C 31.414062 -16.570312 31.921875 -14.726562 31.921875 -12.21875 L 31.921875 -4.5625 C 31.921875 -3.789062 32.222656 -3.382812 32.828125 -3.34375 C 32.953125 -3.320312 33.117188 -3.304688 33.328125 -3.296875 C 33.535156 -3.285156 33.695312 -3.273438 33.8125 -3.265625 C 33.9375 -3.253906 34.085938 -3.238281 34.265625 -3.21875 C 34.441406 -3.195312 34.582031 -3.175781 34.6875 -3.15625 C 34.800781 -3.144531 34.921875 -3.125 35.046875 -3.09375 C 35.179688 -3.0625 35.285156 -3.023438 35.359375 -2.984375 C 35.429688 -2.953125 35.503906 -2.910156 35.578125 -2.859375 C 35.648438 -2.816406 35.703125 -2.765625 35.734375 -2.703125 C 35.765625 -2.640625 35.78125 -2.566406 35.78125 -2.484375 C 35.78125 -1.085938 35.582031 -0.210938 35.1875 0.140625 C 33.800781 0.046875 32.597656 0 31.578125 0 C 31.003906 0 30.40625 0.0195312 29.78125 0.0625 C 29.164062 0.113281 28.738281 0.140625 28.5 0.140625 C 28.082031 0.140625 27.875 -0.316406 27.875 -1.234375 L 27.875 -11.90625 C 27.875 -13.445312 27.625 -14.578125 27.125 -15.296875 C 26.625 -16.015625 25.96875 -16.375 25.15625 -16.375 C 24.351562 -16.375 23.460938 -16.132812 22.484375 -15.65625 C 21.503906 -15.175781 20.585938 -14.554688 19.734375 -13.796875 C 19.796875 -13.253906 19.828125 -12.726562 19.828125 -12.21875 L 19.828125 -4.5625 C 19.828125 -3.789062 20.125 -3.382812 20.71875 -3.34375 C 20.832031 -3.320312 20.988281 -3.304688 21.1875 -3.296875 C 21.382812 -3.285156 21.539062 -3.273438 21.65625 -3.265625 C 21.769531 -3.253906 21.910156 -3.238281 22.078125 -3.21875 C 22.242188 -3.195312 22.375 -3.175781 22.46875 -3.15625 C 22.5625 -3.144531 22.671875 -3.125 22.796875 -3.09375 C 22.921875 -3.0625 23.019531 -3.023438 23.09375 -2.984375 C 23.164062 -2.953125 23.234375 -2.910156 23.296875 -2.859375 C 23.359375 -2.816406 23.40625 -2.765625 23.4375 -2.703125 C 23.46875 -2.640625 23.484375 -2.566406 23.484375 -2.484375 C 23.484375 -1.085938 23.285156 -0.210938 22.890625 0.140625 C 21.753906 0.046875 20.707031 0 19.75 0 C 19.15625 0 18.5 0.0195312 17.78125 0.0625 C 17.070312 0.113281 16.601562 0.140625 16.375 0.140625 C 15.976562 0.140625 15.78125 -0.316406 15.78125 -1.234375 L 15.78125 -11.90625 C 15.78125 -13.445312 15.53125 -14.578125 15.03125 -15.296875 C 14.53125 -16.015625 13.875 -16.375 13.0625 -16.375 C 12.25 -16.375 11.359375 -16.125 10.390625 -15.625 C 9.429688 -15.132812 8.535156 -14.492188 7.703125 -13.703125 L 7.703125 -4.484375 C 7.703125 -4.316406 7.710938 -4.175781 7.734375 -4.0625 C 7.765625 -3.945312 7.816406 -3.828125 7.890625 -3.703125 C 7.960938 -3.578125 8.082031 -3.476562 8.25 -3.40625 C 8.425781 -3.34375 8.644531 -3.3125 8.90625 -3.3125 C 9.351562 -3.3125 9.738281 -3.238281 10.0625 -3.09375 C 10.382812 -2.957031 10.546875 -2.75 10.546875 -2.46875 C 10.546875 -1.070312 10.347656 -0.203125 9.953125 0.140625 C 8.785156 0.046875 7.347656 0 5.640625 0 C 3.796875 0 2.425781 0.046875 1.53125 0.140625 C 1.144531 -0.210938 0.953125 -1.082031 0.953125 -2.46875 C 0.953125 -2.75 1.109375 -2.957031 1.421875 -3.09375 C 1.742188 -3.238281 2.132812 -3.3125 2.59375 -3.3125 C 3.007812 -3.3125 3.289062 -3.394531 3.4375 -3.5625 C 3.582031 -3.726562 3.65625 -4.019531 3.65625 -4.4375 L 3.65625 -14.03125 C 3.65625 -14.65625 3.472656 -15.097656 3.109375 -15.359375 C 2.742188 -15.617188 2.046875 -15.773438 1.015625 -15.828125 C 0.859375 -15.859375 0.757812 -15.929688 0.71875 -16.046875 C 0.675781 -16.171875 0.65625 -16.429688 0.65625 -16.828125 C 0.65625 -17.429688 0.71875 -17.960938 0.84375 -18.421875 C 0.976562 -18.890625 1.113281 -19.160156 1.25 -19.234375 C 2.164062 -19.109375 3.050781 -19.046875 3.90625 -19.046875 C 4.445312 -19.046875 5.015625 -19.078125 5.609375 -19.140625 C 6.203125 -19.203125 6.515625 -19.234375 6.546875 -19.234375 C 6.960938 -19.234375 7.234375 -19.128906 7.359375 -18.921875 C 7.484375 -18.710938 7.546875 -18.234375 7.546875 -17.484375 Z M 7.546875 -17.484375 "/></g></g><g transform="translate(36.650088, 75.59184)"><g><path d="M 19.921875 -17.953125 L 19.921875 -4.875 C 19.921875 -4.5625 19.925781 -4.335938 19.9375 -4.203125 C 19.945312 -4.078125 19.976562 -3.929688 20.03125 -3.765625 C 20.082031 -3.609375 20.171875 -3.503906 20.296875 -3.453125 C 20.421875 -3.398438 20.585938 -3.351562 20.796875 -3.3125 C 21.015625 -3.269531 21.300781 -3.25 21.65625 -3.25 C 22.195312 -3.25 22.539062 -3.179688 22.6875 -3.046875 C 22.832031 -2.921875 22.90625 -2.65625 22.90625 -2.25 C 22.90625 -1.65625 22.835938 -1.128906 22.703125 -0.671875 C 22.566406 -0.210938 22.441406 0.0546875 22.328125 0.140625 C 21.453125 0.046875 20.648438 0 19.921875 0 C 19.429688 0 18.921875 0.0195312 18.390625 0.0625 C 17.859375 0.113281 17.535156 0.140625 17.421875 0.140625 C 16.941406 0.140625 16.648438 0 16.546875 -0.28125 C 16.453125 -0.570312 16.40625 -1.332031 16.40625 -2.5625 C 15.570312 -1.601562 14.566406 -0.851562 13.390625 -0.3125 C 12.222656 0.21875 11.03125 0.484375 9.8125 0.484375 C 8.9375 0.484375 8.113281 0.335938 7.34375 0.046875 C 6.570312 -0.242188 5.878906 -0.675781 5.265625 -1.25 C 4.648438 -1.820312 4.160156 -2.585938 3.796875 -3.546875 C 3.441406 -4.515625 3.265625 -5.617188 3.265625 -6.859375 L 3.265625 -14.015625 C 3.265625 -15.140625 2.96875 -15.726562 2.375 -15.78125 C 2.28125 -15.789062 2.144531 -15.800781 1.96875 -15.8125 C 1.800781 -15.820312 1.664062 -15.832031 1.5625 -15.84375 C 1.457031 -15.851562 1.332031 -15.867188 1.1875 -15.890625 C 1.050781 -15.910156 0.941406 -15.925781 0.859375 -15.9375 C 0.773438 -15.957031 0.675781 -15.984375 0.5625 -16.015625 C 0.445312 -16.046875 0.359375 -16.078125 0.296875 -16.109375 C 0.242188 -16.148438 0.1875 -16.191406 0.125 -16.234375 C 0.0625 -16.285156 0.0195312 -16.34375 0 -16.40625 C -0.0195312 -16.46875 -0.03125 -16.539062 -0.03125 -16.625 C -0.03125 -18.007812 0.160156 -18.878906 0.546875 -19.234375 C 1.671875 -19.109375 2.703125 -19.046875 3.640625 -19.046875 C 4.296875 -19.046875 4.960938 -19.078125 5.640625 -19.140625 C 6.328125 -19.203125 6.679688 -19.234375 6.703125 -19.234375 C 7.109375 -19.234375 7.3125 -18.804688 7.3125 -17.953125 L 7.3125 -6.640625 C 7.3125 -5.328125 7.648438 -4.34375 8.328125 -3.6875 C 9.003906 -3.039062 9.875 -2.71875 10.9375 -2.71875 C 11.84375 -2.71875 12.742188 -2.953125 13.640625 -3.421875 C 14.535156 -3.898438 15.273438 -4.550781 15.859375 -5.375 L 15.859375 -14.015625 C 15.859375 -15.140625 15.5625 -15.726562 14.96875 -15.78125 C 14.875 -15.789062 14.738281 -15.800781 14.5625 -15.8125 C 14.394531 -15.820312 14.257812 -15.832031 14.15625 -15.84375 C 14.0625 -15.851562 13.941406 -15.867188 13.796875 -15.890625 C 13.648438 -15.910156 13.535156 -15.925781 13.453125 -15.9375 C 13.367188 -15.957031 13.269531 -15.984375 13.15625 -16.015625 C 13.039062 -16.046875 12.953125 -16.078125 12.890625 -16.109375 C 12.835938 -16.148438 12.78125 -16.191406 12.71875 -16.234375 C 12.664062 -16.285156 12.625 -16.34375 12.59375 -16.40625 C 12.570312 -16.46875 12.5625 -16.539062 12.5625 -16.625 C 12.5625 -18.019531 12.757812 -18.890625 13.15625 -19.234375 C 14.269531 -19.109375 15.296875 -19.046875 16.234375 -19.046875 C 17.023438 -19.046875 17.828125 -19.078125 18.640625 -19.140625 C 19.453125 -19.203125 19.867188 -19.234375 19.890625 -19.234375 C 19.910156 -19.234375 19.921875 -18.804688 19.921875 -17.953125 Z M 19.921875 -17.953125 "/></g></g><g transform="translate(60.119372, 75.59184)"><g><path d="M 4.78125 -22.21875 C 4.5 -22.21875 4.207031 -22.242188 3.90625 -22.296875 C 3.613281 -22.347656 3.289062 -22.445312 2.9375 -22.59375 C 2.582031 -22.738281 2.296875 -22.960938 2.078125 -23.265625 C 1.859375 -23.578125 1.75 -23.945312 1.75 -24.375 C 1.75 -25.84375 2.738281 -26.578125 4.71875 -26.578125 C 5.269531 -26.578125 5.738281 -26.503906 6.125 -26.359375 C 6.507812 -26.210938 6.796875 -26.019531 6.984375 -25.78125 C 7.171875 -25.539062 7.300781 -25.304688 7.375 -25.078125 C 7.445312 -24.859375 7.484375 -24.617188 7.484375 -24.359375 C 7.484375 -23.828125 7.316406 -23.382812 6.984375 -23.03125 C 6.648438 -22.6875 6.296875 -22.460938 5.921875 -22.359375 C 5.546875 -22.265625 5.164062 -22.21875 4.78125 -22.21875 Z M 7.734375 -17.484375 L 7.734375 -4.484375 C 7.734375 -4.304688 7.738281 -4.164062 7.75 -4.0625 C 7.769531 -3.957031 7.8125 -3.835938 7.875 -3.703125 C 7.945312 -3.578125 8.0625 -3.476562 8.21875 -3.40625 C 8.382812 -3.34375 8.601562 -3.3125 8.875 -3.3125 C 9.320312 -3.3125 9.707031 -3.238281 10.03125 -3.09375 C 10.351562 -2.957031 10.515625 -2.75 10.515625 -2.46875 C 10.515625 -1.070312 10.316406 -0.203125 9.921875 0.140625 C 8.847656 0.046875 7.539062 0 6 0 C 4.394531 0 2.894531 0.046875 1.5 0.140625 C 1.101562 -0.210938 0.90625 -1.082031 0.90625 -2.46875 C 0.90625 -2.75 1.066406 -2.957031 1.390625 -3.09375 C 1.710938 -3.238281 2.097656 -3.3125 2.546875 -3.3125 C 3.015625 -3.3125 3.316406 -3.410156 3.453125 -3.609375 C 3.597656 -3.804688 3.671875 -4.082031 3.671875 -4.4375 L 3.671875 -14.03125 C 3.671875 -14.65625 3.488281 -15.097656 3.125 -15.359375 C 2.769531 -15.617188 2.070312 -15.773438 1.03125 -15.828125 C 0.875 -15.859375 0.773438 -15.929688 0.734375 -16.046875 C 0.691406 -16.171875 0.671875 -16.429688 0.671875 -16.828125 C 0.671875 -17.429688 0.738281 -17.960938 0.875 -18.421875 C 1.007812 -18.890625 1.140625 -19.160156 1.265625 -19.234375 C 2.179688 -19.109375 3.066406 -19.046875 3.921875 -19.046875 C 4.492188 -19.046875 5.09375 -19.078125 5.71875 -19.140625 C 6.351562 -19.203125 6.691406 -19.234375 6.734375 -19.234375 C 7.148438 -19.234375 7.421875 -19.128906 7.546875 -18.921875 C 7.671875 -18.710938 7.734375 -18.234375 7.734375 -17.484375 Z M 7.734375 -17.484375 "/></g></g><g transform="translate(71.202585, 75.59184)"><g><path d="M 16.875 -4.734375 C 16.875 -3.523438 16.507812 -2.523438 15.78125 -1.734375 C 15.050781 -0.941406 14.082031 -0.375 12.875 -0.03125 C 11.675781 0.3125 10.257812 0.484375 8.625 0.484375 C 6.101562 0.484375 4.128906 0.125 2.703125 -0.59375 C 1.285156 -1.320312 0.578125 -2.4375 0.578125 -3.9375 C 0.578125 -5.644531 1.613281 -6.5 3.6875 -6.5 C 4.019531 -6.5 4.238281 -6.429688 4.34375 -6.296875 C 4.457031 -6.171875 4.515625 -5.921875 4.515625 -5.546875 L 4.515625 -3.125 C 4.953125 -2.882812 5.601562 -2.695312 6.46875 -2.5625 C 7.332031 -2.4375 8.203125 -2.375 9.078125 -2.375 C 10.128906 -2.375 10.992188 -2.585938 11.671875 -3.015625 C 12.359375 -3.453125 12.703125 -4.050781 12.703125 -4.8125 C 12.703125 -5.351562 12.53125 -5.832031 12.1875 -6.25 C 11.84375 -6.675781 11.390625 -7.019531 10.828125 -7.28125 C 10.273438 -7.539062 9.632812 -7.800781 8.90625 -8.0625 C 8.1875 -8.332031 7.457031 -8.582031 6.71875 -8.8125 C 5.976562 -9.039062 5.242188 -9.328125 4.515625 -9.671875 C 3.796875 -10.015625 3.15625 -10.390625 2.59375 -10.796875 C 2.039062 -11.203125 1.59375 -11.726562 1.25 -12.375 C 0.90625 -13.03125 0.734375 -13.769531 0.734375 -14.59375 C 0.734375 -15.65625 1.125 -16.570312 1.90625 -17.34375 C 2.695312 -18.113281 3.660156 -18.671875 4.796875 -19.015625 C 5.929688 -19.367188 7.144531 -19.546875 8.4375 -19.546875 C 13.769531 -19.546875 16.4375 -18 16.4375 -14.90625 C 16.4375 -14.707031 16.398438 -14.5 16.328125 -14.28125 C 16.265625 -14.070312 16.140625 -13.820312 15.953125 -13.53125 C 15.773438 -13.25 15.46875 -13.015625 15.03125 -12.828125 C 14.601562 -12.648438 14.070312 -12.5625 13.4375 -12.5625 C 13.320312 -12.5625 13.222656 -12.570312 13.140625 -12.59375 C 13.066406 -12.625 13.007812 -12.648438 12.96875 -12.671875 C 12.925781 -12.703125 12.890625 -12.753906 12.859375 -12.828125 C 12.828125 -12.910156 12.804688 -12.96875 12.796875 -13 C 12.796875 -13.039062 12.785156 -13.125 12.765625 -13.25 C 12.742188 -13.375 12.734375 -13.460938 12.734375 -13.515625 L 12.484375 -16 C 12.316406 -16.164062 11.800781 -16.347656 10.9375 -16.546875 C 10.082031 -16.753906 9.34375 -16.859375 8.71875 -16.859375 C 7.507812 -16.859375 6.609375 -16.628906 6.015625 -16.171875 C 5.429688 -15.722656 5.140625 -15.15625 5.140625 -14.46875 C 5.140625 -13.96875 5.351562 -13.523438 5.78125 -13.140625 C 6.21875 -12.765625 6.78125 -12.441406 7.46875 -12.171875 C 8.164062 -11.910156 8.929688 -11.648438 9.765625 -11.390625 C 10.597656 -11.128906 11.429688 -10.816406 12.265625 -10.453125 C 13.097656 -10.085938 13.859375 -9.671875 14.546875 -9.203125 C 15.234375 -8.742188 15.789062 -8.128906 16.21875 -7.359375 C 16.65625 -6.585938 16.875 -5.710938 16.875 -4.734375 Z M 16.875 -4.734375 "/></g></g></g><g fill="#3c3c3b" fill-opacity="1"><g transform="translate(84.668299, 75.340101)"><g><path d="M 11.03125 -5.296875 L 11.03125 -26.140625 C 11.03125 -26.285156 11.019531 -26.394531 11 -26.46875 C 10.988281 -26.550781 10.945312 -26.632812 10.875 -26.71875 C 10.800781 -26.800781 10.691406 -26.84375 10.546875 -26.84375 C 9.910156 -26.84375 8.988281 -26.84375 7.78125 -26.84375 C 6.582031 -26.851562 5.722656 -26.859375 5.203125 -26.859375 C 5.078125 -26.585938 4.875 -25.914062 4.59375 -24.84375 C 4.320312 -23.78125 4.046875 -22.84375 3.765625 -22.03125 C 3.484375 -21.226562 3.226562 -20.828125 3 -20.828125 C 2.488281 -20.828125 2.035156 -20.894531 1.640625 -21.03125 C 1.242188 -21.164062 0.941406 -21.328125 0.734375 -21.515625 C 0.523438 -21.710938 0.367188 -21.894531 0.265625 -22.0625 C 0.171875 -22.238281 0.125 -22.375 0.125 -22.46875 C 0.125 -22.925781 0.367188 -24.304688 0.859375 -26.609375 C 1.359375 -28.921875 1.703125 -30.175781 1.890625 -30.375 C 1.929688 -30.375 1.972656 -30.367188 2.015625 -30.359375 C 2.054688 -30.347656 2.097656 -30.34375 2.140625 -30.34375 C 6.128906 -30.007812 9.875 -29.84375 13.375 -29.84375 C 16.851562 -29.84375 20.585938 -30.007812 24.578125 -30.34375 C 24.617188 -30.34375 24.660156 -30.347656 24.703125 -30.359375 C 24.742188 -30.367188 24.785156 -30.375 24.828125 -30.375 C 25.015625 -30.175781 25.351562 -28.921875 25.84375 -26.609375 C 26.34375 -24.304688 26.59375 -22.925781 26.59375 -22.46875 C 26.59375 -22.375 26.539062 -22.238281 26.4375 -22.0625 C 26.34375 -21.894531 26.191406 -21.710938 25.984375 -21.515625 C 25.773438 -21.328125 25.472656 -21.164062 25.078125 -21.03125 C 24.679688 -20.894531 24.226562 -20.828125 23.71875 -20.828125 C 23.488281 -20.828125 23.234375 -21.226562 22.953125 -22.03125 C 22.671875 -22.84375 22.390625 -23.78125 22.109375 -24.84375 C 21.835938 -25.914062 21.640625 -26.585938 21.515625 -26.859375 C 20.992188 -26.859375 20.128906 -26.851562 18.921875 -26.84375 C 17.722656 -26.84375 16.804688 -26.84375 16.171875 -26.84375 C 15.953125 -26.84375 15.816406 -26.78125 15.765625 -26.65625 C 15.710938 -26.53125 15.6875 -26.359375 15.6875 -26.140625 L 15.6875 -5.34375 C 15.6875 -5.144531 15.695312 -4.988281 15.71875 -4.875 C 15.738281 -4.757812 15.785156 -4.625 15.859375 -4.46875 C 15.929688 -4.320312 16.0625 -4.210938 16.25 -4.140625 C 16.4375 -4.066406 16.679688 -4.03125 16.984375 -4.03125 C 17.597656 -4.03125 18.125 -3.945312 18.5625 -3.78125 C 19.007812 -3.625 19.234375 -3.382812 19.234375 -3.0625 C 19.234375 -1.28125 19.015625 -0.1875 18.578125 0.21875 C 16.554688 0.0703125 14.828125 0 13.390625 0 C 11.972656 0 10.234375 0.0703125 8.171875 0.21875 C 7.722656 -0.1875 7.5 -1.28125 7.5 -3.0625 C 7.5 -3.382812 7.71875 -3.625 8.15625 -3.78125 C 8.601562 -3.945312 9.140625 -4.03125 9.765625 -4.03125 C 10.285156 -4.03125 10.625 -4.140625 10.78125 -4.359375 C 10.945312 -4.585938 11.03125 -4.898438 11.03125 -5.296875 Z M 11.03125 -5.296875 "/></g></g></g><g fill="#3c3c3b" fill-opacity="1"><g transform="translate(111.613063, 75.340101)"><g><path d="M 2.28125 -30.3125 C 4.507812 -30.132812 6.113281 -30.046875 7.09375 -30.046875 C 8.144531 -30.046875 9.804688 -30.132812 12.078125 -30.3125 C 12.367188 -30.09375 12.585938 -29.65625 12.734375 -29 C 12.878906 -28.351562 12.953125 -27.679688 12.953125 -26.984375 C 12.953125 -26.660156 12.726562 -26.414062 12.28125 -26.25 C 11.832031 -26.09375 11.300781 -26.015625 10.6875 -26.015625 C 10.394531 -26.015625 10.148438 -25.976562 9.953125 -25.90625 C 9.765625 -25.832031 9.632812 -25.71875 9.5625 -25.5625 C 9.488281 -25.414062 9.441406 -25.285156 9.421875 -25.171875 C 9.398438 -25.054688 9.390625 -24.898438 9.390625 -24.703125 L 9.390625 -5.34375 C 9.390625 -5.144531 9.398438 -4.988281 9.421875 -4.875 C 9.441406 -4.757812 9.488281 -4.625 9.5625 -4.46875 C 9.632812 -4.320312 9.765625 -4.210938 9.953125 -4.140625 C 10.148438 -4.066406 10.394531 -4.03125 10.6875 -4.03125 C 11.300781 -4.03125 11.832031 -3.945312 12.28125 -3.78125 C 12.726562 -3.625 12.953125 -3.382812 12.953125 -3.0625 C 12.953125 -2.363281 12.878906 -1.691406 12.734375 -1.046875 C 12.585938 -0.410156 12.367188 0.0078125 12.078125 0.21875 C 10.148438 0.0703125 8.488281 0 7.09375 0 C 5.78125 0 4.175781 0.0703125 2.28125 0.21875 C 1.914062 0.0078125 1.644531 -0.414062 1.46875 -1.0625 C 1.289062 -1.707031 1.203125 -2.375 1.203125 -3.0625 C 1.203125 -3.382812 1.425781 -3.625 1.875 -3.78125 C 2.320312 -3.945312 2.851562 -4.03125 3.46875 -4.03125 C 3.988281 -4.03125 4.328125 -4.140625 4.484375 -4.359375 C 4.648438 -4.585938 4.734375 -4.898438 4.734375 -5.296875 L 4.734375 -24.78125 C 4.734375 -25.1875 4.648438 -25.5 4.484375 -25.71875 C 4.328125 -25.9375 3.988281 -26.046875 3.46875 -26.046875 C 1.957031 -26.046875 1.203125 -26.394531 1.203125 -27.09375 C 1.203125 -27.757812 1.289062 -28.410156 1.46875 -29.046875 C 1.644531 -29.679688 1.914062 -30.101562 2.28125 -30.3125 Z M 2.28125 -30.3125 "/></g></g></g><g fill="#3c3c3b" fill-opacity="1"><g transform="translate(125.975106, 75.340101)"><g><path d="M 2.28125 -30.3125 C 4.507812 -30.132812 6.113281 -30.046875 7.09375 -30.046875 C 8.144531 -30.046875 9.804688 -30.132812 12.078125 -30.3125 C 12.367188 -30.09375 12.585938 -29.65625 12.734375 -29 C 12.878906 -28.351562 12.953125 -27.679688 12.953125 -26.984375 C 12.953125 -26.660156 12.726562 -26.414062 12.28125 -26.25 C 11.832031 -26.09375 11.300781 -26.015625 10.6875 -26.015625 C 10.394531 -26.015625 10.148438 -25.976562 9.953125 -25.90625 C 9.765625 -25.832031 9.632812 -25.71875 9.5625 -25.5625 C 9.488281 -25.414062 9.441406 -25.285156 9.421875 -25.171875 C 9.398438 -25.054688 9.390625 -24.898438 9.390625 -24.703125 L 9.390625 -15.96875 L 20.671875 -24.734375 C 20.960938 -24.960938 21.109375 -25.171875 21.109375 -25.359375 C 21.109375 -25.628906 21.003906 -25.816406 20.796875 -25.921875 C 20.597656 -26.035156 20.378906 -26.085938 20.140625 -26.078125 C 19.910156 -26.078125 19.695312 -26.113281 19.5 -26.1875 C 19.300781 -26.269531 19.203125 -26.421875 19.203125 -26.640625 C 19.203125 -26.796875 19.316406 -27.3125 19.546875 -28.1875 C 19.609375 -28.363281 19.71875 -28.726562 19.875 -29.28125 C 20.039062 -29.84375 20.171875 -30.1875 20.265625 -30.3125 C 22.609375 -30.132812 24.316406 -30.046875 25.390625 -30.046875 C 26.285156 -30.046875 27.976562 -30.132812 30.46875 -30.3125 C 30.695312 -30.007812 30.851562 -29.5 30.9375 -28.78125 C 31.03125 -28.070312 31.078125 -27.472656 31.078125 -26.984375 C 31.078125 -26.640625 30.910156 -26.390625 30.578125 -26.234375 C 30.242188 -26.085938 29.898438 -26.015625 29.546875 -26.015625 C 29.035156 -26.015625 28.582031 -25.957031 28.1875 -25.84375 C 27.800781 -25.726562 27.507812 -25.609375 27.3125 -25.484375 C 27.113281 -25.367188 26.878906 -25.195312 26.609375 -24.96875 L 15.84375 -15.984375 C 16.695312 -14.941406 17.570312 -13.785156 18.46875 -12.515625 C 19.375 -11.253906 20.085938 -10.234375 20.609375 -9.453125 C 21.128906 -8.671875 21.722656 -7.875 22.390625 -7.0625 C 23.066406 -6.25 23.695312 -5.617188 24.28125 -5.171875 C 24.875 -4.734375 25.578125 -4.375 26.390625 -4.09375 C 27.203125 -3.8125 28.113281 -3.671875 29.125 -3.671875 C 30.757812 -3.671875 31.578125 -3.492188 31.578125 -3.140625 L 31.578125 -2.40625 C 31.578125 -1.945312 31.546875 -1.570312 31.484375 -1.28125 C 31.421875 -1 31.28125 -0.703125 31.0625 -0.390625 C 30.851562 -0.078125 30.5 0.15625 30 0.3125 C 29.507812 0.46875 28.875 0.546875 28.09375 0.546875 C 26.800781 0.546875 25.660156 0.4375 24.671875 0.21875 C 23.691406 0.0078125 22.828125 -0.332031 22.078125 -0.8125 C 21.328125 -1.289062 20.675781 -1.8125 20.125 -2.375 C 19.570312 -2.9375 19.003906 -3.664062 18.421875 -4.5625 C 17.835938 -5.46875 17.300781 -6.351562 16.8125 -7.21875 C 16.320312 -8.082031 15.679688 -9.148438 14.890625 -10.421875 C 14.109375 -11.691406 13.316406 -12.875 12.515625 -13.96875 L 9.390625 -11.609375 L 9.390625 -5.34375 C 9.390625 -5.144531 9.398438 -4.988281 9.421875 -4.875 C 9.441406 -4.757812 9.488281 -4.625 9.5625 -4.46875 C 9.632812 -4.320312 9.765625 -4.210938 9.953125 -4.140625 C 10.148438 -4.066406 10.394531 -4.03125 10.6875 -4.03125 C 11.300781 -4.03125 11.832031 -3.945312 12.28125 -3.78125 C 12.726562 -3.625 12.953125 -3.382812 12.953125 -3.0625 C 12.953125 -2.363281 12.878906 -1.691406 12.734375 -1.046875 C 12.585938 -0.410156 12.367188 0.0078125 12.078125 0.21875 C 10.148438 0.0703125 8.488281 0 7.09375 0 C 5.78125 0 4.175781 0.0703125 2.28125 0.21875 C 1.914062 0.0078125 1.644531 -0.414062 1.46875 -1.0625 C 1.289062 -1.707031 1.203125 -2.375 1.203125 -3.0625 C 1.203125 -3.382812 1.425781 -3.625 1.875 -3.78125 C 2.320312 -3.945312 2.851562 -4.03125 3.46875 -4.03125 C 3.988281 -4.03125 4.328125 -4.140625 4.484375 -4.359375 C 4.648438 -4.585938 4.734375 -4.898438 4.734375 -5.296875 L 4.734375 -24.78125 C 4.734375 -25.1875 4.648438 -25.5 4.484375 -25.71875 C 4.328125 -25.9375 3.988281 -26.046875 3.46875 -26.046875 C 1.957031 -26.046875 1.203125 -26.394531 1.203125 -27.09375 C 1.203125 -27.757812 1.289062 -28.410156 1.46875 -29.046875 C 1.644531 -29.679688 1.914062 -30.101562 2.28125 -30.3125 Z M 2.28125 -30.3125 "/></g></g></g><g fill="#3c3c3b" fill-opacity="1"><g transform="translate(158.404645, 75.340101)"><g><path d="M 21.953125 -0.328125 C 20.273438 0.253906 18.445312 0.546875 16.46875 0.546875 C 14.5 0.546875 12.671875 0.253906 10.984375 -0.328125 C 9.304688 -0.910156 7.875 -1.703125 6.6875 -2.703125 C 5.5 -3.710938 4.476562 -4.878906 3.625 -6.203125 C 2.78125 -7.535156 2.15625 -8.953125 1.75 -10.453125 C 1.351562 -11.953125 1.15625 -13.488281 1.15625 -15.0625 C 1.15625 -16.632812 1.351562 -18.160156 1.75 -19.640625 C 2.15625 -21.128906 2.773438 -22.53125 3.609375 -23.84375 C 4.453125 -25.15625 5.46875 -26.304688 6.65625 -27.296875 C 7.851562 -28.285156 9.296875 -29.0625 10.984375 -29.625 C 12.671875 -30.195312 14.5 -30.484375 16.46875 -30.484375 C 18.445312 -30.484375 20.28125 -30.195312 21.96875 -29.625 C 23.65625 -29.0625 25.09375 -28.285156 26.28125 -27.296875 C 27.46875 -26.304688 28.484375 -25.15625 29.328125 -23.84375 C 30.171875 -22.53125 30.789062 -21.128906 31.1875 -19.640625 C 31.59375 -18.160156 31.796875 -16.632812 31.796875 -15.0625 C 31.796875 -13.488281 31.59375 -11.953125 31.1875 -10.453125 C 30.789062 -8.953125 30.164062 -7.535156 29.3125 -6.203125 C 28.46875 -4.878906 27.453125 -3.710938 26.265625 -2.703125 C 25.078125 -1.703125 23.640625 -0.910156 21.953125 -0.328125 Z M 12.828125 -3.75 C 13.941406 -3.300781 15.15625 -3.078125 16.46875 -3.078125 C 17.789062 -3.078125 19.007812 -3.300781 20.125 -3.75 C 21.238281 -4.207031 22.191406 -4.816406 22.984375 -5.578125 C 23.773438 -6.335938 24.445312 -7.222656 25 -8.234375 C 25.5625 -9.253906 25.976562 -10.332031 26.25 -11.46875 C 26.519531 -12.601562 26.65625 -13.773438 26.65625 -14.984375 C 26.65625 -16.503906 26.4375 -17.960938 26 -19.359375 C 25.5625 -20.753906 24.929688 -22.015625 24.109375 -23.140625 C 23.296875 -24.273438 22.226562 -25.179688 20.90625 -25.859375 C 19.582031 -26.535156 18.101562 -26.875 16.46875 -26.875 C 14.84375 -26.875 13.367188 -26.535156 12.046875 -25.859375 C 10.722656 -25.179688 9.648438 -24.273438 8.828125 -23.140625 C 8.015625 -22.015625 7.390625 -20.753906 6.953125 -19.359375 C 6.515625 -17.960938 6.296875 -16.503906 6.296875 -14.984375 C 6.296875 -13.773438 6.425781 -12.601562 6.6875 -11.46875 C 6.957031 -10.332031 7.367188 -9.253906 7.921875 -8.234375 C 8.484375 -7.222656 9.160156 -6.335938 9.953125 -5.578125 C 10.753906 -4.816406 11.710938 -4.207031 12.828125 -3.75 Z M 12.828125 -3.75 "/></g></g></g><g fill="#3c3c3b" fill-opacity="1"><g transform="translate(224.441875, 23.128205)"><g><path d="M -7.578125 4.703125 C -7.578125 6.273438 -8.101562 7.597656 -9.15625 8.671875 C -10.207031 9.742188 -11.75 10.28125 -13.78125 10.28125 C -15.769531 10.28125 -17.265625 9.738281 -18.265625 8.65625 C -19.273438 7.570312 -19.78125 6.253906 -19.78125 4.703125 C -19.78125 3.171875 -19.273438 1.851562 -18.265625 0.75 C -17.265625 -0.34375 -15.769531 -0.890625 -13.78125 -0.890625 C -11.75 -0.890625 -10.207031 -0.347656 -9.15625 0.734375 C -8.101562 1.816406 -7.578125 3.140625 -7.578125 4.703125 Z M -15.421875 46.25 C -14.097656 46.25 -12.875 46.128906 -11.75 45.890625 C -10.632812 45.648438 -9.847656 45.414062 -9.390625 45.1875 L -8.671875 44.84375 L -8.671875 39.59375 C -8.671875 38.519531 -8.554688 37.851562 -8.328125 37.59375 C -8.097656 37.332031 -7.515625 37.203125 -6.578125 37.203125 C -4.734375 37.203125 -3.359375 37.769531 -2.453125 38.90625 C -1.546875 40.050781 -1.09375 41.320312 -1.09375 42.71875 C -1.09375 45.375 -2.265625 47.554688 -4.609375 49.265625 C -6.953125 50.984375 -10.613281 51.84375 -15.59375 51.84375 C -19.894531 51.84375 -23.351562 50.863281 -25.96875 48.90625 C -28.582031 46.957031 -29.890625 44.234375 -29.890625 40.734375 C -29.890625 39.015625 -29.632812 37.441406 -29.125 36.015625 C -28.613281 34.585938 -27.945312 33.394531 -27.125 32.4375 C -26.300781 31.476562 -25.390625 30.597656 -24.390625 29.796875 C -23.398438 28.992188 -22.40625 28.265625 -21.40625 27.609375 C -20.414062 26.960938 -19.507812 26.320312 -18.6875 25.6875 C -17.863281 25.0625 -17.191406 24.363281 -16.671875 23.59375 C -16.160156 22.832031 -15.90625 22.019531 -15.90625 21.15625 C -15.90625 20.695312 -15.914062 20.128906 -15.9375 19.453125 C -15.96875 18.785156 -15.984375 18.3125 -15.984375 18.03125 C -15.984375 16.632812 -15.316406 15.9375 -13.984375 15.9375 C -13.523438 15.9375 -12.9375 15.945312 -12.21875 15.96875 C -11.5 16 -11.128906 16.015625 -11.109375 16.015625 C -10.398438 16.015625 -9.804688 16.578125 -9.328125 17.703125 C -8.847656 18.835938 -8.609375 20.207031 -8.609375 21.8125 C -8.609375 22.3125 -8.632812 22.769531 -8.6875 23.1875 C -8.75 23.613281 -8.800781 23.976562 -8.84375 24.28125 C -8.894531 24.59375 -9.03125 24.925781 -9.25 25.28125 C -9.476562 25.632812 -9.644531 25.898438 -9.75 26.078125 C -9.851562 26.265625 -10.101562 26.546875 -10.5 26.921875 C -10.90625 27.304688 -11.191406 27.578125 -11.359375 27.734375 C -11.535156 27.898438 -11.925781 28.238281 -12.53125 28.75 C -13.132812 29.257812 -13.578125 29.628906 -13.859375 29.859375 C -14.222656 30.160156 -14.890625 30.679688 -15.859375 31.421875 C -16.828125 32.160156 -17.609375 32.804688 -18.203125 33.359375 C -18.796875 33.910156 -19.457031 34.601562 -20.1875 35.4375 C -20.925781 36.269531 -21.476562 37.171875 -21.84375 38.140625 C -22.207031 39.109375 -22.390625 40.15625 -22.390625 41.28125 C -22.390625 42.71875 -21.785156 43.90625 -20.578125 44.84375 C -19.378906 45.78125 -17.660156 46.25 -15.421875 46.25 Z M -15.421875 46.25 "/></g></g></g></g></g></g></svg>