<svg xmlns="http://www.w3.org/2000/svg" xmlns:xlink="http://www.w3.org/1999/xlink" width="300" zoomAndPan="magnify" viewBox="0 0 224.87999 112.499997" height="150" preserveAspectRatio="xMidYMid meet" version="1.0"><defs><g/><clipPath id="30db442f91"><path d="M 0.4375 0 L 224.324219 0 L 224.324219 110 L 0.4375 110 Z M 0.4375 0 " clip-rule="nonzero"/></clipPath><clipPath id="fa472a86c2"><rect x="0" width="225" y="0" height="110"/></clipPath></defs><g clip-path="url(#30db442f91)"><g><g clip-path="url(#fa472a86c2)"><g fill="#c3b5aa" fill-opacity="1"><g transform="translate(0.437786, 75.59184)"><g><path d="M 7.546875 -17.484375 L 7.546875 -16.5 C 8.398438 -17.394531 9.425781 -18.125 10.625 -18.6875 C 11.820312 -19.257812 13.003906 -19.546875 14.171875 -19.546875 C 15.222656 -19.546875 16.179688 -19.28125 17.046875 -18.75 C 17.910156 -18.226562 18.601562 -17.421875 19.125 -16.328125 C 20.1875 -17.273438 21.375 -18.039062 22.6875 -18.625 C 24 -19.21875 25.257812 -19.515625 26.46875 -19.515625 C 28.082031 -19.515625 29.394531 -18.925781 30.40625 -17.75 C 31.414062 -16.570312 31.921875 -14.726562 31.921875 -12.21875 L 31.921875 -4.5625 C 31.921875 -3.789062 32.222656 -3.382812 32.828125 -3.34375 C 32.953125 -3.320312 33.117188 -3.304688 33.328125 -3.296875 C 33.535156 -3.285156 33.695312 -3.273438 33.8125 -3.265625 C 33.9375 -3.253906 34.085938 -3.238281 34.265625 -3.21875 C 34.441406 -3.195312 34.582031 -3.175781 34.6875 -3.15625 C 34.800781 -3.144531 34.921875 -3.125 35.046875 -3.09375 C 35.179688 -3.0625 35.285156 -3.023438 35.359375 -2.984375 C 35.429688 -2.953125 35.503906 -2.910156 35.578125 -2.859375 C 35.648438 -2.816406 35.703125 -2.765625 35.734375 -2.703125 C 35.765625 -2.640625 35.78125 -2.566406 35.78125 -2.484375 C 35.78125 -1.085938 35.582031 -0.210938 35.1875 0.140625 C 33.800781 0.046875 32.597656 0 31.578125 0 C 31.003906 0 30.40625 0.0195312 29.78125 0.0625 C 29.164062 0.113281 28.738281 0.140625 28.5 0.140625 C 28.082031 0.140625 27.875 -0.316406 27.875 -1.234375 L 27.875 -11.90625 C 27.875 -13.445312 27.625 -14.578125 27.125 -15.296875 C 26.625 -16.015625 25.96875 -16.375 25.15625 -16.375 C 24.351562 -16.375 23.460938 -16.132812 22.484375 -15.65625 C 21.503906 -15.175781 20.585938 -14.554688 19.734375 -13.796875 C 19.796875 -13.253906 19.828125 -12.726562 19.828125 -12.21875 L 19.828125 -4.5625 C 19.828125 -3.789062 20.125 -3.382812 20.71875 -3.34375 C 20.832031 -3.320312 20.988281 -3.304688 21.1875 -3.296875 C 21.382812 -3.285156 21.539062 -3.273438 21.65625 -3.265625 C 21.769531 -3.253906 21.910156 -3.238281 22.078125 -3.21875 C 22.242188 -3.195312 22.375 -3.175781 22.46875 -3.15625 C 22.5625 -3.144531 22.671875 -3.125 22.796875 -3.09375 C 22.921875 -3.0625 23.019531 -3.023438 23.09375 -2.984375 C 23.164062 -2.953125 23.234375 -2.910156 23.296875 -2.859375 C 23.359375 -2.816406 23.40625 -2.765625 23.4375 -2.703125 C 23.46875 -2.640625 23.484375 -2.566406 23.484375 -2.484375 C 23.484375 -1.085938 23.285156 -0.210938 22.890625 0.140625 C 21.753906 0.046875 20.707031 0 19.75 0 C 19.15625 0 18.5 0.0195312 17.78125 0.0625 C 17.070312 0.113281 16.601562 0.140625 16.375 0.140625 C 15.976562 0.140625 15.78125 -0.316406 15.78125 -1.234375 L 15.78125 -11.90625 C 15.78125 -13.445312 15.53125 -14.578125 15.03125 -15.296875 C 14.53125 -16.015625 13.875 -16.375 13.0625 -16.375 C 12.25 -16.375 11.359375 -16.125 10.390625 -15.625 C 9.429688 -15.132812 8.535156 -14.492188 7.703125 -13.703125 L 7.703125 -4.484375 C 7.703125 -4.316406 7.710938 -4.175781 7.734375 -4.0625 C 7.765625 -3.945312 7.816406 -3.828125 7.890625 -3.703125 C 7.960938 -3.578125 8.082031 -3.476562 8.25 -3.40625 C 8.425781 -3.34375 8.644531 -3.3125 8.90625 -3.3125 C 9.351562 -3.3125 9.738281 -3.238281 10.0625 -3.09375 C 10.382812 -2.957031 10.546875 -2.75 10.546875 -2.46875 C 10.546875 -1.070312 10.347656 -0.203125 9.953125 0.140625 C 8.785156 0.046875 7.347656 0 5.640625 0 C 3.796875 0 2.425781 0.046875 1.53125 0.140625 C 1.144531 -0.210938 0.953125 -1.082031 0.953125 -2.46875 C 0.953125 -2.75 1.109375 -2.957031 1.421875 -3.09375 C 1.742188 -3.238281 2.132812 -3.3125 2.59375 -3.3125 C 3.007812 -3.3125 3.289062 -3.394531 3.4375 -3.5625 C 3.582031 -3.726562 3.65625 -4.019531 3.65625 -4.4375 L 3.65625 -14.03125 C 3.65625 -14.65625 3.472656 -15.097656 3.109375 -15.359375 C 2.742188 -15.617188 2.046875 -15.773438 1.015625 -15.828125 C 0.859375 -15.859375 0.757812 -15.929688 0.71875 -16.046875 C 0.675781 -16.171875 0.65625 -16.429688 0.65625 -16.828125 C 0.65625 -17.429688 0.71875 -17.960938 0.84375 -18.421875 C 0.976562 -18.890625 1.113281 -19.160156 1.25 -19.234375 C 2.164062 -19.109375 3.050781 -19.046875 3.90625 -19.046875 C 4.445312 -19.046875 5.015625 -19.078125 5.609375 -19.140625 C 6.203125 -19.203125 6.515625 -19.234375 6.546875 -19.234375 C 6.960938 -19.234375 7.234375 -19.128906 7.359375 -18.921875 C 7.484375 -18.710938 7.546875 -18.234375 7.546875 -17.484375 Z M 7.546875 -17.484375 "/></g></g><g transform="translate(36.650088, 75.59184)"><g><path d="M 19.921875 -17.953125 L 19.921875 -4.875 C 19.921875 -4.5625 19.925781 -4.335938 19.9375 -4.203125 C 19.945312 -4.078125 19.976562 -3.929688 20.03125 -3.765625 C 20.082031 -3.609375 20.171875 -3.503906 20.296875 -3.453125 C 20.421875 -3.398438 20.585938 -3.351562 20.796875 -3.3125 C 21.015625 -3.269531 21.300781 -3.25 21.65625 -3.25 C 22.195312 -3.25 22.539062 -3.179688 22.6875 -3.046875 C 22.832031 -2.921875 22.90625 -2.65625 22.90625 -2.25 C 22.90625 -1.65625 22.835938 -1.128906 22.703125 -0.671875 C 22.566406 -0.210938 22.441406 0.0546875 22.328125 0.140625 C 21.453125 0.046875 20.648438 0 19.921875 0 C 19.429688 0 18.921875 0.0195312 18.390625 0.0625 C 17.859375 0.113281 17.535156 0.140625 17.421875 0.140625 C 16.941406 0.140625 16.648438 0 16.546875 -0.28125 C 16.453125 -0.570312 16.40625 -1.332031 16.40625 -2.5625 C 15.570312 -1.601562 14.566406 -0.851562 13.390625 -0.3125 C 12.222656 0.21875 11.03125 0.484375 9.8125 0.484375 C 8.9375 0.484375 8.113281 0.335938 7.34375 0.046875 C 6.570312 -0.242188 5.878906 -0.675781 5.265625 -1.25 C 4.648438 -1.820312 4.160156 -2.585938 3.796875 -3.546875 C 3.441406 -4.515625 3.265625 -5.617188 3.265625 -6.859375 L 3.265625 -14.015625 C 3.265625 -15.140625 2.96875 -15.726562 2.375 -15.78125 C 2.28125 -15.789062 2.144531 -15.800781 1.96875 -15.8125 C 1.800781 -15.820312 1.664062 -15.832031 1.5625 -15.84375 C 1.457031 -15.851562 1.332031 -15.867188 1.1875 -15.890625 C 1.050781 -15.910156 0.941406 -15.925781 0.859375 -15.9375 C 0.773438 -15.957031 0.675781 -15.984375 0.5625 -16.015625 C 0.445312 -16.046875 0.359375 -16.078125 0.296875 -16.109375 C 0.242188 -16.148438 0.1875 -16.191406 0.125 -16.234375 C 0.0625 -16.285156 0.0195312 -16.34375 0 -16.40625 C -0.0195312 -16.46875 -0.03125 -16.539062 -0.03125 -16.625 C -0.03125 -18.007812 0.160156 -18.878906 0.546875 -19.234375 C 1.671875 -19.109375 2.703125 -19.046875 3.640625 -19.046875 C 4.296875 -19.046875 4.960938 -19.078125 5.640625 -19.140625 C 6.328125 -19.203125 6.679688 -19.234375 6.703125 -19.234375 C 7.109375 -19.234375 7.3125 -18.804688 7.3125 -17.953125 L 7.3125 -6.640625 C 7.3125 -5.328125 7.648438 -4.34375 8.328125 -3.6875 C 9.003906 -3.039062 9.875 -2.71875 10.9375 -2.71875 C 11.84375 -2.71875 12.742188 -2.953125 13.640625 -3.421875 C 14.535156 -3.898438 15.273438 -4.550781 15.859375 -5.375 L 15.859375 -14.015625 C 15.859375 -15.140625 15.5625 -15.726562 14.96875 -15.78125 C 14.875 -15.789062 14.738281 -15.800781 14.5625 -15.8125 C 14.394531 -15.820312 14.257812 -15.832031 14.15625 -15.84375 C 14.0625 -15.851562 13.941406 -15.867188 13.796875 -15.890625 C 13.648438 -15.910156 13.535156 -15.925781 13.453125 -15.9375 C 13.367188 -15.957031 13.269531 -15.984375 13.15625 -16.015625 C 13.039062 -16.046875 12.953125 -16.078125 12.890625 -16.109375 C 12.835938 -16.148438 12.78125 -16.191406 12.71875 -16.234375 C 12.664062 -16.285156 12.625 -16.34375 12.59375 -16.40625 C 12.570312 -16.46875 12.5625 -16.539062 12.5625 -16.625 C 12.5625 -18.019531 12.757812 -18.890625 13.15625 -19.234375 C 14.269531 -19.109375 15.296875 -19.046875 16.234375 -19.046875 C 17.023438 -19.046875 17.828125 -19.078125 18.640625 -19.140625 C 19.453125 -19.203125 19.867188 -19.234375 19.890625 -19.234375 C 19.910156 -19.234375 19.921875 -18.804688 19.921875 -17.953125 Z M 19.921875 -17.953125 "/></g></g><g transform="translate(60.119372, 75.59184)"><g><path d="M 4.78125 -22.21875 C 4.5 -22.21875 4.207031 -22.242188 3.90625 -22.296875 C 3.613281 -22.347656 3.289062 -22.445312 2.9375 -22.59375 C 2.582031 -22.738281 2.296875 -22.960938 2.078125 -23.265625 C 1.859375 -23.578125 1.75 -23.945312 1.75 -24.375 C 1.75 -25.84375 2.738281 -26.578125 4.71875 -26.578125 C 5.269531 -26.578125 5.738281 -26.503906 6.125 -26.359375 C 6.507812 -26.210938 6.796875 -26.019531 6.984375 -25.78125 C 7.171875 -25.539062 7.300781 -25.304688 7.375 -25.078125 C 7.445312 -24.859375 7.484375 -24.617188 7.484375 -24.359375 C 7.484375 -23.828125 7.316406 -23.382812 6.984375 -23.03125 C 6.648438 -22.6875 6.296875 -22.460938 5.921875 -22.359375 C 5.546875 -22.265625 5.164062 -22.21875 4.78125 -22.21875 Z M 7.734375 -17.484375 L 7.734375 -4.484375 C 7.734375 -4.304688 7.738281 -4.164062 7.75 -4.0625 C 7.769531 -3.957031 7.8125 -3.835938 7.875 -3.703125 C 7.945312 -3.578125 8.0625 -3.476562 8.21875 -3.40625 C 8.382812 -3.34375 8.601562 -3.3125 8.875 -3.3125 C 9.320312 -3.3125 9.707031 -3.238281 10.03125 -3.09375 C 10.351562 -2.957031 10.515625 -2.75 10.515625 -2.46875 C 10.515625 -1.070312 10.316406 -0.203125 9.921875 0.140625 C 8.847656 0.046875 7.539062 0 6 0 C 4.394531 0 2.894531 0.046875 1.5 0.140625 C 1.101562 -0.210938 0.90625 -1.082031 0.90625 -2.46875 C 0.90625 -2.75 1.066406 -2.957031 1.390625 -3.09375 C 1.710938 -3.238281 2.097656 -3.3125 2.546875 -3.3125 C 3.015625 -3.3125 3.316406 -3.410156 3.453125 -3.609375 C 3.597656 -3.804688 3.671875 -4.082031 3.671875 -4.4375 L 3.671875 -14.03125 C 3.671875 -14.65625 3.488281 -15.097656 3.125 -15.359375 C 2.769531 -15.617188 2.070312 -15.773438 1.03125 -15.828125 C 0.875 -15.859375 0.773438 -15.929688 0.734375 -16.046875 C 0.691406 -16.171875 0.671875 -16.429688 0.671875 -16.828125 C 0.671875 -17.429688 0.738281 -17.960938 0.875 -18.421875 C 1.007812 -18.890625 1.140625 -19.160156 1.265625 -19.234375 C 2.179688 -19.109375 3.066406 -19.046875 3.921875 -19.046875 C 4.492188 -19.046875 5.09375 -19.078125 5.71875 -19.140625 C 6.351562 -19.203125 6.691406 -19.234375 6.734375 -19.234375 C 7.148438 -19.234375 7.421875 -19.128906 7.546875 -18.921875 C 7.671875 -18.710938 7.734375 -18.234375 7.734375 -17.484375 Z M 7.734375 -17.484375 "/></g></g><g transform="translate(71.202585, 75.59184)"><g><path d="M 16.875 -4.734375 C 16.875 -3.523438 16.507812 -2.523438 15.78125 -1.734375 C 15.050781 -0.941406 14.082031 -0.375 12.875 -0.03125 C 11.675781 0.3125 10.257812 0.484375 8.625 0.484375 C 6.101562 0.484375 4.128906 0.125 2.703125 -0.59375 C 1.285156 -1.320312 0.578125 -2.4375 0.578125 -3.9375 C 0.578125 -5.644531 1.613281 -6.5 3.6875 -6.5 C 4.019531 -6.5 4.238281 -6.429688 4.34375 -6.296875 C 4.457031 -6.171875 4.515625 -5.921875 4.515625 -5.546875 L 4.515625 -3.125 C 4.953125 -2.882812 5.601562 -2.695312 6.46875 -2.5625 C 7.332031 -2.4375 8.203125 -2.375 9.078125 -2.375 C 10.128906 -2.375 10.992188 -2.585938 11.671875 -3.015625 C 12.359375 -3.453125 12.703125 -4.050781 12.703125 -4.8125 C 12.703125 -5.351562 12.53125 -5.832031 12.1875 -6.25 C 11.84375 -6.675781 11.390625 -7.019531 10.828125 -7.28125 C 10.273438 -7.539062 9.632812 -7.800781 8.90625 -8.0625 C 8.1875 -8.332031 7.457031 -8.582031 6.71875 -8.8125 C 5.976562 -9.039062 5.242188 -9.328125 4.515625 -9.671875 C 3.796875 -10.015625 3.15625 -10.390625 2.59375 -10.796875 C 2.039062 -11.203125 1.59375 -11.726562 1.25 -12.375 C 0.90625 -13.03125 0.734375 -13.769531 0.734375 -14.59375 C 0.734375 -15.65625 1.125 -16.570312 1.90625 -17.34375 C 2.695312 -18.113281 3.660156 -18.671875 4.796875 -19.015625 C 5.929688 -19.367188 7.144531 -19.546875 8.4375 -19.546875 C 13.769531 -19.546875 16.4375 -18 16.4375 -14.90625 C 16.4375 -14.707031 16.398438 -14.5 16.328125 -14.28125 C 16.265625 -14.070312 16.140625 -13.820312 15.953125 -13.53125 C 15.773438 -13.25 15.46875 -13.015625 15.03125 -12.828125 C 14.601562 -12.648438 14.070312 -12.5625 13.4375 -12.5625 C 13.320312 -12.5625 13.222656 -12.570312 13.140625 -12.59375 C 13.066406 -12.625 13.007812 -12.648438 12.96875 -12.671875 C 12.925781 -12.703125 12.890625 -12.753906 12.859375 -12.828125 C 12.828125 -12.910156 12.804688 -12.96875 12.796875 -13 C 12.796875 -13.039062 12.785156 -13.125 12.765625 -13.25 C 12.742188 -13.375 12.734375 -13.460938 12.734375 -13.515625 L 12.484375 -16 C 12.316406 -16.164062 11.800781 -16.347656 10.9375 -16.546875 C 10.082031 -16.753906 9.34375 -16.859375 8.71875 -16.859375 C 7.507812 -16.859375 6.609375 -16.628906 6.015625 -16.171875 C 5.429688 -15.722656 5.140625 -15.15625 5.140625 -14.46875 C 5.140625 -13.96875 5.351562 -13.523438 5.78125 -13.140625 C 6.21875 -12.765625 6.78125 -12.441406 7.46875 -12.171875 C 8.164062 -11.910156 8.929688 -11.648438 9.765625 -11.390625 C 10.597656 -11.128906 11.429688 -10.816406 12.265625 -10.453125 C 13.097656 -10.085938 13.859375 -9.671875 14.546875 -9.203125 C 15.234375 -8.742188 15.789062 -8.128906 16.21875 -7.359375 C 16.65625 -6.585938 16.875 -5.710938 16.875 -4.734375 Z M 16.875 -4.734375 "/></g></g></g><g fill="#3c3c3b" fill-opacity="1"><g transform="translate(84.668299, 75.340101)"><g><path d="M 11.03125 -5.296875 L 11.03125 -26.140625 C 11.03125 -26.285156 11.019531 -26.394531 11 -26.46875 C 10.988281 -26.550781 10.945312 -26.632812 10.875 -26.71875 C 10.800781 -26.800781 10.691406 -26.84375 10.546875 -26.84375 C 9.910156 -26.84375 8.988281 -26.84375 7.78125 -26.84375 C 6.582031 -26.851562 5.722656 -26.859375 5.203125 -26.859375 C 5.078125 -26.585938 4.875 -25.914062 4.59375 -24.84375 C 4.320312 -23.78125 4.046875 -22.84375 3.765625 -22.03125 C 3.484375 -21.226562 3.226562 -20.828125 3 -20.828125 C 2.488281 -20.828125 2.035156 -20.894531 1.640625 -21.03125 C 1.242188 -21.164062 0.941406 -21.328125 0.734375 -21.515625 C 0.523438 -21.710938 0.367188 -21.894531 0.265625 -22.0625 C 0.171875 -22.238281 0.125 -22.375 0.125 -22.46875 C 0.125 -22.925781 0.367188 -24.304688 0.859375 -26.609375 C 1.359375 -28.921875 1.703125 -30.175781 1.890625 -30.375 C 1.929688 -30.375 1.972656 -30.367188 2.015625 -30.359375 C 2.054688 -30.347656 2.097656 -30.34375 2.140625 -30.34375 C 6.128906 -30.007812 9.875 -29.84375 13.375 -29.84375 C 16.851562 -29.84375 20.585938 -30.007812 24.578125 -30.34375 C 24.617188 -30.34375 24.660156 -30.347656 24.703125 -30.359375 C 24.742188 -30.367188 24.785156 -30.375 24.828125 -30.375 C 25.015625 -30.175781 25.351562 -28.921875 25.84375 -26.609375 C 26.34375 -24.304688 26.59375 -22.925781 26.59375 -22.46875 C 26.59375 -22.375 26.539062 -22.238281 26.4375 -22.0625 C 26.34375 -21.894531 26.191406 -21.710938 25.984375 -21.515625 C 25.773438 -21.328125 25.472656 -21.164062 25.078125 -21.03125 C 24.679688 -20.894531 24.226562 -20.828125 23.71875 -20.828125 C 23.488281 -20.828125 23.234375 -21.226562 22.953125 -22.03125 C 22.671875 -22.84375 22.390625 -23.78125 22.109375 -24.84375 C 21.835938 -25.914062 21.640625 -26.585938 21.515625 -26.859375 C 20.992188 -26.859375 20.128906 -26.851562 18.921875 -26.84375 C 17.722656 -26.84375 16.804688 -26.84375 16.171875 -26.84375 C 15.953125 -26.84375 15.816406 -26.78125 15.765625 -26.65625 C 15.710938 -26.53125 15.6875 -26.359375 15.6875 -26.140625 L 15.6875 -5.34375 C 15.6875 -5.144531 15.695312 -4.988281 15.71875 -4.875 C 15.738281 -4.757812 15.785156 -4.625 15.859375 -4.46875 C 15.929688 -4.320312 16.0625 -4.210938 16.25 -4.140625 C 16.4375 -4.066406 16.679688 -4.03125 16.984375 -4.03125 C 17.597656 -4.03125 18.125 -3.945312 18.5625 -3.78125 C 19.007812 -3.625 19.234375 -3.382812 19.234375 -3.0625 C 19.234375 -1.28125 19.015625 -0.1875 18.578125 0.21875 C 16.554688 0.0703125 14.828125 0 13.390625 0 C 11.972656 0 10.234375 0.0703125 8.171875 0.21875 C 7.722656 -0.1875 7.5 -1.28125 7.5 -3.0625 C 7.5 -3.382812 7.71875 -3.625 8.15625 -3.78125 C 8.601562 -3.945312 9.140625 -4.03125 9.765625 -4.03125 C 10.285156 -4.03125 10.625 -4.140625 10.78125 -4.359375 C 10.945312 -4.585938 11.03125 -4.898438 11.03125 -5.296875 Z M 11.03125 -5.296875 "/></g></g></g><g fill="#3c3c3b" fill-opacity="1"><g transform="translate(111.613063, 75.340101)"><g><path d="M 2.28125 -30.3125 C 4.507812 -30.132812 6.113281 -30.046875 7.09375 -30.046875 C 8.144531 -30.046875 9.804688 -30.132812 12.078125 -30.3125 C 12.367188 -30.09375 12.585938 -29.65625 12.734375 -29 C 12.878906 -28.351562 12.953125 -27.679688 12.953125 -26.984375 C 12.953125 -26.660156 12.726562 -26.414062 12.28125 -26.25 C 11.832031 -26.09375 11.300781 -26.015625 10.6875 -26.015625 C 10.394531 -26.015625 10.148438 -25.976562 9.953125 -25.90625 C 9.765625 -25.832031 9.632812 -25.71875 9.5625 -25.5625 C 9.488281 -25.414062 9.441406 -25.285156 9.421875 -25.171875 C 9.398438 -25.054688 9.390625 -24.898438 9.390625 -24.703125 L 9.390625 -5.34375 C 9.390625 -5.144531 9.398438 -4.988281 9.421875 -4.875 C 9.441406 -4.757812 9.488281 -4.625 9.5625 -4.46875 C 9.632812 -4.320312 9.765625 -4.210938 9.953125 -4.140625 C 10.148438 -4.066406 10.394531 -4.03125 10.6875 -4.03125 C 11.300781 -4.03125 11.832031 -3.945312 12.28125 -3.78125 C 12.726562 -3.625 12.953125 -3.382812 12.953125 -3.0625 C 12.953125 -2.363281 12.878906 -1.691406 12.734375 -1.046875 C 12.585938 -0.410156 12.367188 0.0078125 12.078125 0.21875 C 10.148438 0.0703125 8.488281 0 7.09375 0 C 5.78125 0 4.175781 0.0703125 2.28125 0.21875 C 1.914062 0.0078125 1.644531 -0.414062 1.46875 -1.0625 C 1.289062 -1.707031 1.203125 -2.375 1.203125 -3.0625 C 1.203125 -3.382812 1.425781 -3.625 1.875 -3.78125 C 2.320312 -3.945312 2.851562 -4.03125 3.46875 -4.03125 C 3.988281 -4.03125 4.328125 -4.140625 4.484375 -4.359375 C 4.648438 -4.585938 4.734375 -4.898438 4.734375 -5.296875 L 4.734375 -24.78125 C 4.734375 -25.1875 4.648438 -25.5 4.484375 -25.71875 C 4.328125 -25.9375 3.988281 -26.046875 3.46875 -26.046875 C 1.957031 -26.046875 1.203125 -26.394531 1.203125 -27.09375 C 1.203125 -27.757812 1.289062 -28.410156 1.46875 -29.046875 C 1.644531 -29.679688 1.914062 -30.101562 2.28125 -30.3125 Z M 2.28125 -30.3125 "/></g></g></g><g fill="#3c3c3b" fill-opacity="1"><g transform="translate(125.975106, 75.340101)"><g><path d="M 2.28125 -30.3125 C 4.507812 -30.132812 6.113281 -30.046875 7.09375 -30.046875 C 8.144531 -30.046875 9.804688 -30.132812 12.078125 -30.3125 C 12.367188 -30.09375 12.585938 -29.65625 12.734375 -29 C 12.878906 -28.351562 12.953125 -27.679688 12.953125 -26.984375 C 12.953125 -26.660156 12.726562 -26.414062 12.28125 -26.25 C 11.832031 -26.09375 11.300781 -26.015625 10.6875 -26.015625 C 10.394531 -26.015625 10.148438 -25.976562 9.953125 -25.90625 C 9.765625 -25.832031 9.632812 -25.71875 9.5625 -25.5625 C 9.488281 -25.414062 9.441406 -25.285156 9.421875 -25.171875 C 9.398438 -25.054688 9.390625 -24.898438 9.390625 -24.703125 L 9.390625 -15.96875 L 20.671875 -24.734375 C 20.960938 -24.960938 21.109375 -25.171875 21.109375 -25.359375 C 21.109375 -25.628906 21.003906 -25.816406 20.796875 -25.921875 C 20.597656 -26.035156 20.378906 -26.085938 20.140625 -26.078125 C 19.910156 -26.078125 19.695312 -26.113281 19.5 -26.1875 C 19.300781 -26.269531 19.203125 -26.421875 19.203125 -26.640625 C 19.203125 -26.796875 19.316406 -27.3125 19.546875 -28.1875 C 19.609375 -28.363281 19.71875 -28.726562 19.875 -29.28125 C 20.039062 -29.84375 20.171875 -30.1875 20.265625 -30.3125 C 22.609375 -30.132812 24.316406 -30.046875 25.390625 -30.046875 C 26.285156 -30.046875 27.976562 -30.132812 30.46875 -30.3125 C 30.695312 -30.007812 30.851562 -29.5 30.9375 -28.78125 C 31.03125 -28.070312 31.078125 -27.472656 31.078125 -26.984375 C 31.078125 -26.640625 30.910156 -26.390625 30.578125 -26.234375 C 30.242188 -26.085938 29.898438 -26.015625 29.546875 -26.015625 C 29.035156 -26.015625 28.582031 -25.957031 28.1875 -25.84375 C 27.800781 -25.726562 27.507812 -25.609375 27.3125 -25.484375 C 27.113281 -25.367188 26.878906 -25.195312 26.609375 -24.96875 L 15.84375 -15.984375 C 16.695312 -14.941406 17.570312 -13.785156 18.46875 -12.515625 C 19.375 -11.253906 20.085938 -10.234375 20.609375 -9.453125 C 21.128906 -8.671875 21.722656 -7.875 22.390625 -7.0625 C 23.066406 -6.25 23.695312 -5.617188 24.28125 -5.171875 C 24.875 -4.734375 25.578125 -4.375 26.390625 -4.09375 C 27.203125 -3.8125 28.113281 -3.671875 29.125 -3.671875 C 30.757812 -3.671875 31.578125 -3.492188 31.578125 -3.140625 L 31.578125 -2.40625 C 31.578125 -1.945312 31.546875 -1.570312 31.484375 -1.28125 C 31.421875 -1 31.28125 -0.703125 31.0625 -0.390625 C 30.851562 -0.078125 30.5 0.15625 30 0.3125 C 29.507812 0.46875 28.875 0.546875 28.09375 0.546875 C 26.800781 0.546875 25.660156 0.4375 24.671875 0.21875 C 23.691406 0.0078125 22.828125 -0.332031 22.078125 -0.8125 C 21.328125 -1.289062 20.675781 -1.8125 20.125 -2.375 C 19.570312 -2.9375 19.003906 -3.664062 18.421875 -4.5625 C 17.835938 -5.46875 17.300781 -6.351562 16.8125 -7.21875 C 16.320312 -8.082031 15.679688 -9.148438 14.890625 -10.421875 C 14.109375 -11.691406 13.316406 -12.875 12.515625 -13.96875 L 9.390625 -11.609375 L 9.390625 -5.34375 C 9.390625 -5.144531 9.398438 -4.988281 9.421875 -4.875 C 9.441406 -4.757812 9.488281 -4.625 9.5625 -4.46875 C 9.632812 -4.320312 9.765625 -4.210938 9.953125 -4.140625 C 10.148438 -4.066406 10.394531 -4.03125 10.6875 -4.03125 C 11.300781 -4.03125 11.832031 -3.945312 12.28125 -3.78125 C 12.726562 -3.625 12.953125 -3.382812 12.953125 -3.0625 C 12.953125 -2.363281 12.878906 -1.691406 12.734375 -1.046875 C 12.585938 -0.410156 12.367188 0.0078125 12.078125 0.21875 C 10.148438 0.0703125 8.488281 0 7.09375 0 C 5.78125 0 4.175781 0.0703125 2.28125 0.21875 C 1.914062 0.0078125 1.644531 -0.414062 1.46875 -1.0625 C 1.289062 -1.707031 1.203125 -2.375 1.203125 -3.0625 C 1.203125 -3.382812 1.425781 -3.625 1.875 -3.78125 C 2.320312 -3.945312 2.851562 -4.03125 3.46875 -4.03125 C 3.988281 -4.03125 4.328125 -4.140625 4.484375 -4.359375 C 4.648438 -4.585938 4.734375 -4.898438 4.734375 -5.296875 L 4.734375 -24.78125 C 4.734375 -25.1875 4.648438 -25.5 4.484375 -25.71875 C 4.328125 -25.9375 3.988281 -26.046875 3.46875 -26.046875 C 1.957031 -26.046875 1.203125 -26.394531 1.203125 -27.09375 C 1.203125 -27.757812 1.289062 -28.410156 1.46875 -29.046875 C 1.644531 -29.679688 1.914062 -30.101562 2.28125 -30.3125 Z M 2.28125 -30.3125 "/></g></g></g><g fill="#3c3c3b" fill-opacity="1"><g transform="translate(158.404645, 75.340101)"><g><path d="M 21.953125 -0.328125 C 20.273438 0.253906 18.445312 0.546875 16.46875 0.546875 C 14.5 0.546875 12.671875 0.253906 10.984375 -0.328125 C 9.304688 -0.910156 7.875 -1.703125 6.6875 -2.703125 C 5.5 -3.710938 4.476562 -4.878906 3.625 -6.203125 C 2.78125 -7.535156 2.15625 -8.953125 1.75 -10.453125 C 1.351562 -11.953125 1.15625 -13.488281 1.15625 -15.0625 C 1.15625 -16.632812 1.351562 -18.160156 1.75 -19.640625 C 2.15625 -21.128906 2.773438 -22.53125 3.609375 -23.84375 C 4.453125 -25.15625 5.46875 -26.304688 6.65625 -27.296875 C 7.851562 -28.285156 9.296875 -29.0625 10.984375 -29.625 C 12.671875 -30.195312 14.5 -30.484375 16.46875 -30.484375 C 18.445312 -30.484375 20.28125 -30.195312 21.96875 -29.625 C 23.65625 -29.0625 25.09375 -28.285156 26.28125 -27.296875 C 27.46875 -26.304688 28.484375 -25.15625 29.328125 -23.84375 C 30.171875 -22.53125 30.789062 -21.128906 31.1875 -19.640625 C 31.59375 -18.160156 31.796875 -16.632812 31.796875 -15.0625 C 31.796875 -13.488281 31.59375 -11.953125 31.1875 -10.453125 C 30.789062 -8.953125 30.164062 -7.535156 29.3125 -6.203125 C 28.46875 -4.878906 27.453125 -3.710938 26.265625 -2.703125 C 25.078125 -1.703125 23.640625 -0.910156 21.953125 -0.328125 Z M 12.828125 -3.75 C 13.941406 -3.300781 15.15625 -3.078125 16.46875 -3.078125 C 17.789062 -3.078125 19.007812 -3.300781 20.125 -3.75 C 21.238281 -4.207031 22.191406 -4.816406 22.984375 -5.578125 C 23.773438 -6.335938 24.445312 -7.222656 25 -8.234375 C 25.5625 -9.253906 25.976562 -10.332031 26.25 -11.46875 C 26.519531 -12.601562 26.65625 -13.773438 26.65625 -14.984375 C 26.65625 -16.503906 26.4375 -17.960938 26 -19.359375 C 25.5625 -20.753906 24.929688 -22.015625 24.109375 -23.140625 C 23.296875 -24.273438 22.226562 -25.179688 20.90625 -25.859375 C 19.582031 -26.535156 18.101562 -26.875 16.46875 -26.875 C 14.84375 -26.875 13.367188 -26.535156 12.046875 -25.859375 C 10.722656 -25.179688 9.648438 -24.273438 8.828125 -23.140625 C 8.015625 -22.015625 7.390625 -20.753906 6.953125 -19.359375 C 6.515625 -17.960938 6.296875 -16.503906 6.296875 -14.984375 C 6.296875 -13.773438 6.425781 -12.601562 6.6875 -11.46875 C 6.957031 -10.332031 7.367188 -9.253906 7.921875 -8.234375 C 8.484375 -7.222656 9.160156 -6.335938 9.953125 -5.578125 C 10.753906 -4.816406 11.710938 -4.207031 12.828125 -3.75 Z M 12.828125 -3.75 "/></g></g></g><g fill="#3c3c3b" fill-opacity="1"><g transform="translate(224.441875, 23.128838)"><g><path d="M -7.578125 4.703125 C -7.578125 6.273438 -8.101562 7.597656 -9.15625 8.671875 C -10.207031 9.742188 -11.75 10.28125 -13.78125 10.28125 C -15.769531 10.28125 -17.265625 9.738281 -18.265625 8.65625 C -19.273438 7.570312 -19.78125 6.253906 -19.78125 4.703125 C -19.78125 3.171875 -19.273438 1.851562 -18.265625 0.75 C -17.265625 -0.34375 -15.769531 -0.890625 -13.78125 -0.890625 C -11.75 -0.890625 -10.207031 -0.347656 -9.15625 0.734375 C -8.101562 1.816406 -7.578125 3.140625 -7.578125 4.703125 Z M -15.421875 46.25 C -14.097656 46.25 -12.875 46.128906 -11.75 45.890625 C -10.632812 45.648438 -9.847656 45.414062 -9.390625 45.1875 L -8.671875 44.84375 L -8.671875 39.59375 C -8.671875 38.519531 -8.554688 37.851562 -8.328125 37.59375 C -8.097656 37.332031 -7.515625 37.203125 -6.578125 37.203125 C -4.734375 37.203125 -3.359375 37.769531 -2.453125 38.90625 C -1.546875 40.050781 -1.09375 41.320312 -1.09375 42.71875 C -1.09375 45.375 -2.265625 47.554688 -4.609375 49.265625 C -6.953125 50.984375 -10.613281 51.84375 -15.59375 51.84375 C -19.894531 51.84375 -23.351562 50.863281 -25.96875 48.90625 C -28.582031 46.957031 -29.890625 44.234375 -29.890625 40.734375 C -29.890625 39.015625 -29.632812 37.441406 -29.125 36.015625 C -28.613281 34.585938 -27.945312 33.394531 -27.125 32.4375 C -26.300781 31.476562 -25.390625 30.597656 -24.390625 29.796875 C -23.398438 28.992188 -22.40625 28.265625 -21.40625 27.609375 C -20.414062 26.960938 -19.507812 26.320312 -18.6875 25.6875 C -17.863281 25.0625 -17.191406 24.363281 -16.671875 23.59375 C -16.160156 22.832031 -15.90625 22.019531 -15.90625 21.15625 C -15.90625 20.695312 -15.914062 20.128906 -15.9375 19.453125 C -15.96875 18.785156 -15.984375 18.3125 -15.984375 18.03125 C -15.984375 16.632812 -15.316406 15.9375 -13.984375 15.9375 C -13.523438 15.9375 -12.9375 15.945312 -12.21875 15.96875 C -11.5 16 -11.128906 16.015625 -11.109375 16.015625 C -10.398438 16.015625 -9.804688 16.578125 -9.328125 17.703125 C -8.847656 18.835938 -8.609375 20.207031 -8.609375 21.8125 C -8.609375 22.3125 -8.632812 22.769531 -8.6875 23.1875 C -8.75 23.613281 -8.800781 23.976562 -8.84375 24.28125 C -8.894531 24.59375 -9.03125 24.925781 -9.25 25.28125 C -9.476562 25.632812 -9.644531 25.898438 -9.75 26.078125 C -9.851562 26.265625 -10.101562 26.546875 -10.5 26.921875 C -10.90625 27.304688 -11.191406 27.578125 -11.359375 27.734375 C -11.535156 27.898438 -11.925781 28.238281 -12.53125 28.75 C -13.132812 29.257812 -13.578125 29.628906 -13.859375 29.859375 C -14.222656 30.160156 -14.890625 30.679688 -15.859375 31.421875 C -16.828125 32.160156 -17.609375 32.804688 -18.203125 33.359375 C -18.796875 33.910156 -19.457031 34.601562 -20.1875 35.4375 C -20.925781 36.269531 -21.476562 37.171875 -21.84375 38.140625 C -22.207031 39.109375 -22.390625 40.15625 -22.390625 41.28125 C -22.390625 42.71875 -21.785156 43.90625 -20.578125 44.84375 C -19.378906 45.78125 -17.660156 46.25 -15.421875 46.25 Z M -15.421875 46.25 "/></g></g></g><g fill="#3c3c3b" fill-opacity="1"><g transform="translate(66.253603, 31.831973)"><g><path d="M 4.875 -2.84375 L 5.203125 -1.328125 C 5.140625 -1.222656 5.054688 -1.15625 4.953125 -1.125 C 4.921875 -1.125 4.890625 -1.125 4.859375 -1.125 C 4.835938 -1.125 4.804688 -1.125 4.765625 -1.125 C 4.734375 -1.132812 4.707031 -1.144531 4.6875 -1.15625 C 4.664062 -1.164062 4.628906 -1.175781 4.578125 -1.1875 C 4.535156 -1.195312 4.507812 -1.203125 4.5 -1.203125 C 4.3125 -1.054688 4.078125 -0.921875 3.796875 -0.796875 C 3.515625 -0.679688 3.25 -0.597656 3 -0.546875 C 2.625 -0.460938 2.273438 -0.441406 1.953125 -0.484375 C 1.628906 -0.523438 1.34375 -0.609375 1.09375 -0.734375 C 0.84375 -0.867188 0.613281 -1.039062 0.40625 -1.25 C 0.195312 -1.457031 0.0351562 -1.6875 -0.078125 -1.9375 C -0.203125 -2.1875 -0.296875 -2.445312 -0.359375 -2.71875 C -0.441406 -3.101562 -0.457031 -3.484375 -0.40625 -3.859375 C -0.363281 -4.234375 -0.257812 -4.570312 -0.09375 -4.875 C 0.0625 -5.175781 0.285156 -5.4375 0.578125 -5.65625 C 0.867188 -5.875 1.203125 -6.023438 1.578125 -6.109375 C 1.867188 -6.171875 2.179688 -6.179688 2.515625 -6.140625 C 2.847656 -6.097656 3.132812 -6 3.375 -5.84375 C 3.289062 -6.207031 3.289062 -6.398438 3.375 -6.421875 L 3.796875 -6.5 C 3.898438 -6.53125 3.976562 -6.421875 4.03125 -6.171875 L 4.234375 -5.265625 C 4.265625 -5.117188 4.28125 -5.007812 4.28125 -4.9375 C 4.289062 -4.875 4.285156 -4.832031 4.265625 -4.8125 C 4.253906 -4.800781 4.222656 -4.785156 4.171875 -4.765625 L 3.859375 -4.703125 C 3.835938 -4.703125 3.796875 -4.722656 3.734375 -4.765625 C 3.671875 -4.804688 3.597656 -4.863281 3.515625 -4.9375 C 3.441406 -5.007812 3.335938 -5.082031 3.203125 -5.15625 C 3.078125 -5.238281 2.945312 -5.304688 2.8125 -5.359375 C 2.675781 -5.410156 2.515625 -5.445312 2.328125 -5.46875 C 2.148438 -5.488281 1.972656 -5.476562 1.796875 -5.4375 C 1.566406 -5.382812 1.363281 -5.296875 1.1875 -5.171875 C 1.007812 -5.046875 0.867188 -4.898438 0.765625 -4.734375 C 0.671875 -4.578125 0.59375 -4.394531 0.53125 -4.1875 C 0.46875 -3.988281 0.4375 -3.78125 0.4375 -3.5625 C 0.4375 -3.351562 0.457031 -3.140625 0.5 -2.921875 C 0.539062 -2.722656 0.609375 -2.53125 0.703125 -2.34375 C 0.804688 -2.15625 0.929688 -1.988281 1.078125 -1.84375 C 1.222656 -1.695312 1.382812 -1.578125 1.5625 -1.484375 C 1.75 -1.390625 1.957031 -1.328125 2.1875 -1.296875 C 2.425781 -1.265625 2.675781 -1.273438 2.9375 -1.328125 C 3.394531 -1.429688 3.832031 -1.585938 4.25 -1.796875 L 4.09375 -2.546875 C 4.070312 -2.617188 4.050781 -2.679688 4.03125 -2.734375 C 4.019531 -2.796875 3.988281 -2.851562 3.9375 -2.90625 C 3.894531 -2.957031 3.828125 -2.988281 3.734375 -3 C 3.648438 -3.007812 3.550781 -3.003906 3.4375 -2.984375 C 3.382812 -2.972656 3.34375 -2.988281 3.3125 -3.03125 C 3.289062 -3.070312 3.269531 -3.140625 3.25 -3.234375 C 3.207031 -3.398438 3.210938 -3.5625 3.265625 -3.71875 C 3.597656 -3.75 3.914062 -3.796875 4.21875 -3.859375 C 4.34375 -3.890625 4.460938 -3.921875 4.578125 -3.953125 C 4.703125 -3.984375 4.800781 -4.007812 4.875 -4.03125 C 4.945312 -4.0625 4.992188 -4.082031 5.015625 -4.09375 C 5.046875 -4.070312 5.078125 -4.023438 5.109375 -3.953125 C 5.140625 -3.890625 5.160156 -3.828125 5.171875 -3.765625 C 5.191406 -3.671875 5.191406 -3.59375 5.171875 -3.53125 C 5.148438 -3.46875 5.117188 -3.414062 5.078125 -3.375 C 5.035156 -3.34375 4.992188 -3.3125 4.953125 -3.28125 C 4.910156 -3.25 4.878906 -3.191406 4.859375 -3.109375 C 4.847656 -3.035156 4.851562 -2.945312 4.875 -2.84375 Z M 4.875 -2.84375 "/></g></g></g><g fill="#3c3c3b" fill-opacity="1"><g transform="translate(75.510941, 29.956574)"><g><path d="M -0.515625 -5.609375 C -0.0976562 -5.640625 0.195312 -5.671875 0.375 -5.703125 C 0.570312 -5.734375 0.867188 -5.800781 1.265625 -5.90625 C 1.328125 -5.875 1.378906 -5.800781 1.421875 -5.6875 C 1.472656 -5.570312 1.507812 -5.453125 1.53125 -5.328125 C 1.539062 -5.273438 1.507812 -5.222656 1.4375 -5.171875 C 1.363281 -5.128906 1.269531 -5.097656 1.15625 -5.078125 C 1.09375 -5.066406 1.046875 -5.050781 1.015625 -5.03125 C 0.984375 -5.007812 0.960938 -4.984375 0.953125 -4.953125 C 0.941406 -4.929688 0.9375 -4.910156 0.9375 -4.890625 C 0.9375 -4.867188 0.9375 -4.835938 0.9375 -4.796875 L 1.53125 -1.265625 C 1.539062 -1.234375 1.550781 -1.207031 1.5625 -1.1875 C 1.570312 -1.164062 1.585938 -1.140625 1.609375 -1.109375 C 1.628906 -1.078125 1.65625 -1.054688 1.6875 -1.046875 C 1.71875 -1.046875 1.765625 -1.050781 1.828125 -1.0625 C 1.941406 -1.082031 2.039062 -1.082031 2.125 -1.0625 C 2.207031 -1.050781 2.253906 -1.015625 2.265625 -0.953125 C 2.285156 -0.835938 2.289062 -0.71875 2.28125 -0.59375 C 2.28125 -0.46875 2.257812 -0.378906 2.21875 -0.328125 C 1.851562 -0.296875 1.546875 -0.257812 1.296875 -0.21875 C 1.054688 -0.175781 0.769531 -0.113281 0.4375 -0.03125 C 0.363281 -0.0625 0.296875 -0.128906 0.234375 -0.234375 C 0.179688 -0.347656 0.144531 -0.460938 0.125 -0.578125 C 0.113281 -0.640625 0.144531 -0.691406 0.21875 -0.734375 C 0.300781 -0.785156 0.394531 -0.820312 0.5 -0.84375 C 0.59375 -0.851562 0.648438 -0.878906 0.671875 -0.921875 C 0.703125 -0.972656 0.707031 -1.035156 0.6875 -1.109375 L 0.09375 -4.65625 C 0.0820312 -4.738281 0.0546875 -4.796875 0.015625 -4.828125 C -0.015625 -4.859375 -0.078125 -4.867188 -0.171875 -4.859375 C -0.441406 -4.804688 -0.59375 -4.847656 -0.625 -4.984375 C -0.644531 -5.097656 -0.644531 -5.21875 -0.625 -5.34375 C -0.601562 -5.46875 -0.566406 -5.554688 -0.515625 -5.609375 Z M -0.515625 -5.609375 "/></g></g></g><g fill="#3c3c3b" fill-opacity="1"><g transform="translate(81.478369, 28.994662)"><g><path d="M 1.90625 -1.21875 L 1.421875 -5.046875 C 1.421875 -5.078125 1.414062 -5.097656 1.40625 -5.109375 C 1.394531 -5.117188 1.382812 -5.128906 1.375 -5.140625 C 1.363281 -5.160156 1.34375 -5.171875 1.3125 -5.171875 C 1.195312 -5.148438 1.023438 -5.125 0.796875 -5.09375 C 0.578125 -5.070312 0.425781 -5.054688 0.34375 -5.046875 C 0.320312 -4.992188 0.296875 -4.863281 0.265625 -4.65625 C 0.242188 -4.457031 0.21875 -4.28125 0.1875 -4.125 C 0.15625 -3.976562 0.117188 -3.90625 0.078125 -3.90625 C -0.015625 -3.882812 -0.101562 -3.878906 -0.1875 -3.890625 C -0.269531 -3.910156 -0.328125 -3.9375 -0.359375 -3.96875 C -0.398438 -4 -0.429688 -4.023438 -0.453125 -4.046875 C -0.484375 -4.078125 -0.5 -4.101562 -0.5 -4.125 C -0.507812 -4.207031 -0.492188 -4.460938 -0.453125 -4.890625 C -0.421875 -5.328125 -0.390625 -5.570312 -0.359375 -5.625 C -0.347656 -5.625 -0.335938 -5.617188 -0.328125 -5.609375 C -0.316406 -5.609375 -0.3125 -5.609375 -0.3125 -5.609375 C 0.425781 -5.640625 1.117188 -5.695312 1.765625 -5.78125 C 2.398438 -5.863281 3.082031 -5.984375 3.8125 -6.140625 C 3.820312 -6.140625 3.828125 -6.140625 3.828125 -6.140625 C 3.835938 -6.148438 3.847656 -6.15625 3.859375 -6.15625 C 3.890625 -6.113281 3.976562 -5.890625 4.125 -5.484375 C 4.269531 -5.078125 4.347656 -4.832031 4.359375 -4.75 C 4.359375 -4.726562 4.351562 -4.695312 4.34375 -4.65625 C 4.332031 -4.625 4.304688 -4.585938 4.265625 -4.546875 C 4.234375 -4.503906 4.179688 -4.46875 4.109375 -4.4375 C 4.046875 -4.414062 3.96875 -4.394531 3.875 -4.375 C 3.832031 -4.375 3.773438 -4.441406 3.703125 -4.578125 C 3.628906 -4.722656 3.554688 -4.890625 3.484375 -5.078125 C 3.410156 -5.265625 3.359375 -5.378906 3.328125 -5.421875 C 3.222656 -5.410156 3.0625 -5.390625 2.84375 -5.359375 C 2.625 -5.335938 2.453125 -5.316406 2.328125 -5.296875 C 2.304688 -5.296875 2.289062 -5.28125 2.28125 -5.25 C 2.269531 -5.226562 2.269531 -5.195312 2.28125 -5.15625 L 2.765625 -1.328125 C 2.765625 -1.304688 2.765625 -1.285156 2.765625 -1.265625 C 2.773438 -1.242188 2.785156 -1.21875 2.796875 -1.1875 C 2.816406 -1.164062 2.84375 -1.148438 2.875 -1.140625 C 2.914062 -1.140625 2.960938 -1.140625 3.015625 -1.140625 C 3.128906 -1.160156 3.226562 -1.160156 3.3125 -1.140625 C 3.40625 -1.117188 3.453125 -1.078125 3.453125 -1.015625 C 3.492188 -0.691406 3.476562 -0.484375 3.40625 -0.390625 C 3.039062 -0.367188 2.726562 -0.34375 2.46875 -0.3125 C 2.195312 -0.28125 1.875 -0.222656 1.5 -0.140625 C 1.40625 -0.210938 1.335938 -0.410156 1.296875 -0.734375 C 1.296875 -0.796875 1.332031 -0.847656 1.40625 -0.890625 C 1.488281 -0.929688 1.585938 -0.960938 1.703125 -0.984375 C 1.796875 -0.992188 1.851562 -1.019531 1.875 -1.0625 C 1.90625 -1.101562 1.914062 -1.15625 1.90625 -1.21875 Z M 1.90625 -1.21875 "/></g></g></g><g fill="#3c3c3b" fill-opacity="1"><g transform="translate(89.801713, 28.036289)"><g/></g></g><g fill="#3c3c3b" fill-opacity="1"><g transform="translate(95.079535, 27.612414)"><g><path d="M 4.46875 -3.921875 L 4.15625 -3.90625 C 4.132812 -3.90625 4.101562 -3.925781 4.0625 -3.96875 C 4.019531 -4.019531 3.972656 -4.078125 3.921875 -4.140625 C 3.878906 -4.210938 3.828125 -4.289062 3.765625 -4.375 C 3.703125 -4.46875 3.625 -4.554688 3.53125 -4.640625 C 3.445312 -4.722656 3.359375 -4.796875 3.265625 -4.859375 C 3.171875 -4.929688 3.0625 -4.984375 2.9375 -5.015625 C 2.8125 -5.054688 2.6875 -5.078125 2.5625 -5.078125 C 2.320312 -5.054688 2.109375 -5 1.921875 -4.90625 C 1.734375 -4.820312 1.570312 -4.703125 1.4375 -4.546875 C 1.300781 -4.398438 1.191406 -4.234375 1.109375 -4.046875 C 1.023438 -3.859375 0.960938 -3.65625 0.921875 -3.4375 C 0.890625 -3.226562 0.878906 -3.015625 0.890625 -2.796875 C 0.898438 -2.585938 0.929688 -2.382812 0.984375 -2.1875 C 1.046875 -2 1.140625 -1.816406 1.265625 -1.640625 C 1.398438 -1.472656 1.550781 -1.328125 1.71875 -1.203125 C 1.882812 -1.078125 2.082031 -0.976562 2.3125 -0.90625 C 2.550781 -0.84375 2.804688 -0.820312 3.078125 -0.84375 C 3.660156 -0.863281 4.1875 -1.066406 4.65625 -1.453125 C 4.757812 -1.328125 4.8125 -1.203125 4.8125 -1.078125 C 4.820312 -0.898438 4.734375 -0.726562 4.546875 -0.5625 C 4.367188 -0.40625 4.140625 -0.285156 3.859375 -0.203125 C 3.578125 -0.117188 3.296875 -0.0664062 3.015625 -0.046875 C 2.628906 -0.0234375 2.269531 -0.0546875 1.9375 -0.140625 C 1.613281 -0.234375 1.335938 -0.363281 1.109375 -0.53125 C 0.878906 -0.707031 0.675781 -0.914062 0.5 -1.15625 C 0.332031 -1.394531 0.207031 -1.644531 0.125 -1.90625 C 0.0390625 -2.175781 -0.00390625 -2.453125 -0.015625 -2.734375 C -0.0351562 -3.128906 0.00390625 -3.503906 0.109375 -3.859375 C 0.222656 -4.222656 0.382812 -4.539062 0.59375 -4.8125 C 0.800781 -5.09375 1.066406 -5.316406 1.390625 -5.484375 C 1.722656 -5.660156 2.082031 -5.753906 2.46875 -5.765625 C 2.707031 -5.773438 2.953125 -5.734375 3.203125 -5.640625 C 3.460938 -5.546875 3.675781 -5.394531 3.84375 -5.1875 C 3.820312 -5.5625 3.859375 -5.753906 3.953125 -5.765625 L 4.375 -5.78125 C 4.488281 -5.789062 4.550781 -5.664062 4.5625 -5.40625 L 4.609375 -4.40625 C 4.617188 -4.269531 4.617188 -4.164062 4.609375 -4.09375 C 4.597656 -4.03125 4.582031 -3.988281 4.5625 -3.96875 C 4.550781 -3.945312 4.519531 -3.929688 4.46875 -3.921875 Z M 4.46875 -3.921875 "/></g></g></g><g fill="#3c3c3b" fill-opacity="1"><g transform="translate(103.462034, 27.284253)"><g><path d="M 4.0625 -0.046875 C 3.75 0.0546875 3.410156 0.109375 3.046875 0.109375 C 2.679688 0.109375 2.34375 0.0546875 2.03125 -0.046875 C 1.71875 -0.160156 1.453125 -0.3125 1.234375 -0.5 C 1.015625 -0.6875 0.828125 -0.898438 0.671875 -1.140625 C 0.515625 -1.390625 0.398438 -1.648438 0.328125 -1.921875 C 0.265625 -2.203125 0.234375 -2.488281 0.234375 -2.78125 C 0.234375 -3.070312 0.269531 -3.351562 0.34375 -3.625 C 0.414062 -3.90625 0.53125 -4.164062 0.6875 -4.40625 C 0.84375 -4.65625 1.03125 -4.867188 1.25 -5.046875 C 1.46875 -5.234375 1.734375 -5.375 2.046875 -5.46875 C 2.359375 -5.570312 2.695312 -5.625 3.0625 -5.625 C 3.425781 -5.625 3.765625 -5.570312 4.078125 -5.46875 C 4.390625 -5.363281 4.65625 -5.21875 4.875 -5.03125 C 5.09375 -4.851562 5.28125 -4.640625 5.4375 -4.390625 C 5.59375 -4.148438 5.707031 -3.890625 5.78125 -3.609375 C 5.863281 -3.335938 5.90625 -3.054688 5.90625 -2.765625 C 5.90625 -2.472656 5.863281 -2.1875 5.78125 -1.90625 C 5.695312 -1.632812 5.578125 -1.375 5.421875 -1.125 C 5.265625 -0.882812 5.078125 -0.671875 4.859375 -0.484375 C 4.640625 -0.296875 4.375 -0.148438 4.0625 -0.046875 Z M 2.375 -0.6875 C 2.582031 -0.601562 2.804688 -0.5625 3.046875 -0.5625 C 3.285156 -0.5625 3.507812 -0.601562 3.71875 -0.6875 C 3.925781 -0.769531 4.101562 -0.878906 4.25 -1.015625 C 4.394531 -1.160156 4.519531 -1.328125 4.625 -1.515625 C 4.726562 -1.703125 4.804688 -1.898438 4.859375 -2.109375 C 4.921875 -2.316406 4.953125 -2.53125 4.953125 -2.75 C 4.953125 -3.03125 4.910156 -3.300781 4.828125 -3.5625 C 4.742188 -3.820312 4.625 -4.054688 4.46875 -4.265625 C 4.320312 -4.472656 4.125 -4.640625 3.875 -4.765625 C 3.632812 -4.890625 3.363281 -4.953125 3.0625 -4.953125 C 2.757812 -4.953125 2.484375 -4.890625 2.234375 -4.765625 C 1.992188 -4.648438 1.796875 -4.488281 1.640625 -4.28125 C 1.492188 -4.070312 1.378906 -3.835938 1.296875 -3.578125 C 1.210938 -3.316406 1.171875 -3.046875 1.171875 -2.765625 C 1.171875 -2.546875 1.191406 -2.332031 1.234375 -2.125 C 1.285156 -1.914062 1.363281 -1.71875 1.46875 -1.53125 C 1.570312 -1.34375 1.695312 -1.175781 1.84375 -1.03125 C 1.988281 -0.894531 2.164062 -0.78125 2.375 -0.6875 Z M 2.375 -0.6875 "/></g></g></g><g fill="#3c3c3b" fill-opacity="1"><g transform="translate(112.946516, 27.394097)"><g><path d="M 0.796875 -5.5625 C 0.835938 -5.5625 0.90625 -5.550781 1 -5.53125 C 1.101562 -5.519531 1.191406 -5.507812 1.265625 -5.5 C 1.347656 -5.488281 1.4375 -5.476562 1.53125 -5.46875 C 1.632812 -5.46875 1.753906 -5.460938 1.890625 -5.453125 C 2.035156 -5.453125 2.125 -5.453125 2.15625 -5.453125 C 2.164062 -5.453125 2.175781 -5.453125 2.1875 -5.453125 C 2.195312 -5.453125 2.203125 -5.453125 2.203125 -5.453125 C 2.210938 -5.453125 2.242188 -5.390625 2.296875 -5.265625 C 2.347656 -5.148438 2.414062 -4.976562 2.5 -4.75 C 2.582031 -4.53125 2.664062 -4.304688 2.75 -4.078125 C 2.84375 -3.847656 2.953125 -3.566406 3.078125 -3.234375 C 3.203125 -2.910156 3.300781 -2.640625 3.375 -2.421875 C 3.457031 -2.210938 3.554688 -1.945312 3.671875 -1.625 C 3.785156 -1.3125 3.859375 -1.113281 3.890625 -1.03125 C 4.210938 -1.726562 4.644531 -2.59375 5.1875 -3.625 C 5.726562 -4.664062 6.019531 -5.191406 6.0625 -5.203125 C 6.070312 -5.203125 6.085938 -5.203125 6.109375 -5.203125 C 6.128906 -5.203125 6.203125 -5.191406 6.328125 -5.171875 C 6.460938 -5.160156 6.578125 -5.15625 6.671875 -5.15625 C 7.015625 -5.132812 7.269531 -5.132812 7.4375 -5.15625 C 7.550781 -5.0625 7.597656 -4.847656 7.578125 -4.515625 C 7.566406 -4.453125 7.519531 -4.40625 7.4375 -4.375 C 7.351562 -4.351562 7.253906 -4.347656 7.140625 -4.359375 C 7.046875 -4.359375 6.984375 -4.335938 6.953125 -4.296875 C 6.921875 -4.265625 6.898438 -4.210938 6.890625 -4.140625 L 6.671875 -0.5625 C 6.660156 -0.488281 6.671875 -0.425781 6.703125 -0.375 C 6.734375 -0.332031 6.796875 -0.3125 6.890625 -0.3125 C 7.003906 -0.300781 7.101562 -0.28125 7.1875 -0.25 C 7.269531 -0.21875 7.304688 -0.171875 7.296875 -0.109375 C 7.285156 0.015625 7.257812 0.132812 7.21875 0.25 C 7.175781 0.363281 7.125 0.441406 7.0625 0.484375 C 6.726562 0.429688 6.441406 0.398438 6.203125 0.390625 C 5.929688 0.367188 5.617188 0.363281 5.265625 0.375 C 5.210938 0.332031 5.175781 0.25 5.15625 0.125 C 5.132812 0 5.128906 -0.125 5.140625 -0.25 C 5.148438 -0.3125 5.195312 -0.351562 5.28125 -0.375 C 5.363281 -0.40625 5.460938 -0.414062 5.578125 -0.40625 C 5.628906 -0.40625 5.671875 -0.40625 5.703125 -0.40625 C 5.742188 -0.414062 5.769531 -0.4375 5.78125 -0.46875 C 5.789062 -0.5 5.800781 -0.523438 5.8125 -0.546875 C 5.820312 -0.566406 5.828125 -0.59375 5.828125 -0.625 L 6.03125 -3.90625 C 6.03125 -3.90625 5.960938 -3.773438 5.828125 -3.515625 C 5.691406 -3.253906 5.523438 -2.929688 5.328125 -2.546875 C 5.140625 -2.171875 4.953125 -1.796875 4.765625 -1.421875 C 4.578125 -1.046875 4.414062 -0.726562 4.28125 -0.46875 L 4.078125 -0.078125 C 4.078125 -0.0664062 4.054688 -0.046875 4.015625 -0.015625 C 3.984375 0.015625 3.929688 0.0390625 3.859375 0.0625 C 3.785156 0.09375 3.722656 0.109375 3.671875 0.109375 C 3.546875 0.0976562 3.445312 -0.0078125 3.375 -0.21875 C 3.34375 -0.28125 3.269531 -0.460938 3.15625 -0.765625 C 3.050781 -1.066406 2.929688 -1.40625 2.796875 -1.78125 C 2.660156 -2.15625 2.523438 -2.523438 2.390625 -2.890625 C 2.253906 -3.253906 2.140625 -3.554688 2.046875 -3.796875 C 1.953125 -4.035156 1.90625 -4.15625 1.90625 -4.15625 L 1.703125 -0.875 C 1.703125 -0.84375 1.703125 -0.816406 1.703125 -0.796875 C 1.703125 -0.773438 1.707031 -0.75 1.71875 -0.71875 C 1.738281 -0.6875 1.765625 -0.664062 1.796875 -0.65625 C 1.828125 -0.644531 1.875 -0.632812 1.9375 -0.625 C 2.050781 -0.625 2.144531 -0.601562 2.21875 -0.5625 C 2.300781 -0.53125 2.335938 -0.484375 2.328125 -0.421875 C 2.316406 -0.296875 2.296875 -0.171875 2.265625 -0.046875 C 2.234375 0.0664062 2.191406 0.140625 2.140625 0.171875 C 1.835938 0.128906 1.5625 0.0976562 1.3125 0.078125 C 1.070312 0.0664062 0.785156 0.0664062 0.453125 0.078125 C 0.390625 0.0234375 0.34375 -0.0546875 0.3125 -0.171875 C 0.28125 -0.296875 0.269531 -0.421875 0.28125 -0.546875 C 0.289062 -0.609375 0.335938 -0.648438 0.421875 -0.671875 C 0.503906 -0.703125 0.601562 -0.710938 0.71875 -0.703125 C 0.820312 -0.703125 0.882812 -0.71875 0.90625 -0.75 C 0.9375 -0.789062 0.957031 -0.847656 0.96875 -0.921875 L 1.1875 -4.5 C 1.195312 -4.582031 1.1875 -4.644531 1.15625 -4.6875 C 1.132812 -4.726562 1.070312 -4.75 0.96875 -4.75 C 0.6875 -4.769531 0.550781 -4.847656 0.5625 -4.984375 C 0.570312 -5.109375 0.597656 -5.226562 0.640625 -5.34375 C 0.679688 -5.457031 0.734375 -5.53125 0.796875 -5.5625 Z M 0.796875 -5.5625 "/></g></g></g><g fill="#3c3c3b" fill-opacity="1"><g transform="translate(123.887049, 28.17993)"><g><path d="M 1.15625 -5.5 C 1.195312 -5.5 1.265625 -5.488281 1.359375 -5.46875 C 1.453125 -5.445312 1.535156 -5.425781 1.609375 -5.40625 C 1.679688 -5.394531 1.765625 -5.382812 1.859375 -5.375 C 1.960938 -5.351562 2.082031 -5.335938 2.21875 -5.328125 C 2.363281 -5.316406 2.453125 -5.3125 2.484375 -5.3125 C 2.492188 -5.300781 2.503906 -5.296875 2.515625 -5.296875 C 2.523438 -5.296875 2.53125 -5.296875 2.53125 -5.296875 C 2.539062 -5.296875 2.566406 -5.234375 2.609375 -5.109375 C 2.660156 -4.992188 2.71875 -4.820312 2.78125 -4.59375 C 2.851562 -4.363281 2.925781 -4.128906 3 -3.890625 C 3.082031 -3.660156 3.171875 -3.375 3.265625 -3.03125 C 3.359375 -2.695312 3.4375 -2.421875 3.5 -2.203125 C 3.570312 -1.984375 3.65625 -1.710938 3.75 -1.390625 C 3.84375 -1.066406 3.90625 -0.863281 3.9375 -0.78125 C 4.320312 -1.457031 4.8125 -2.296875 5.40625 -3.296875 C 6.007812 -4.304688 6.332031 -4.8125 6.375 -4.8125 C 6.382812 -4.8125 6.398438 -4.8125 6.421875 -4.8125 C 6.441406 -4.8125 6.515625 -4.800781 6.640625 -4.78125 C 6.773438 -4.757812 6.890625 -4.738281 6.984375 -4.71875 C 7.328125 -4.675781 7.582031 -4.660156 7.75 -4.671875 C 7.851562 -4.578125 7.882812 -4.367188 7.84375 -4.046875 C 7.832031 -3.984375 7.78125 -3.941406 7.6875 -3.921875 C 7.601562 -3.898438 7.507812 -3.894531 7.40625 -3.90625 C 7.3125 -3.914062 7.242188 -3.898438 7.203125 -3.859375 C 7.171875 -3.828125 7.148438 -3.773438 7.140625 -3.703125 L 6.703125 -0.140625 C 6.691406 -0.0664062 6.695312 -0.0078125 6.71875 0.03125 C 6.75 0.0820312 6.8125 0.113281 6.90625 0.125 C 7.007812 0.132812 7.097656 0.15625 7.171875 0.1875 C 7.253906 0.226562 7.289062 0.28125 7.28125 0.34375 C 7.269531 0.46875 7.238281 0.585938 7.1875 0.703125 C 7.132812 0.816406 7.078125 0.890625 7.015625 0.921875 C 6.691406 0.847656 6.410156 0.800781 6.171875 0.78125 C 5.898438 0.738281 5.585938 0.710938 5.234375 0.703125 C 5.179688 0.648438 5.148438 0.5625 5.140625 0.4375 C 5.128906 0.320312 5.128906 0.203125 5.140625 0.078125 C 5.148438 0.015625 5.195312 -0.0234375 5.28125 -0.046875 C 5.375 -0.0664062 5.476562 -0.0703125 5.59375 -0.0625 C 5.644531 -0.0507812 5.6875 -0.046875 5.71875 -0.046875 C 5.757812 -0.0546875 5.785156 -0.078125 5.796875 -0.109375 C 5.816406 -0.140625 5.828125 -0.164062 5.828125 -0.1875 C 5.835938 -0.207031 5.847656 -0.234375 5.859375 -0.265625 L 6.265625 -3.53125 C 6.265625 -3.53125 6.1875 -3.398438 6.03125 -3.140625 C 5.882812 -2.890625 5.703125 -2.582031 5.484375 -2.21875 C 5.273438 -1.851562 5.0625 -1.488281 4.84375 -1.125 C 4.632812 -0.757812 4.457031 -0.453125 4.3125 -0.203125 L 4.09375 0.1875 C 4.082031 0.195312 4.054688 0.210938 4.015625 0.234375 C 3.972656 0.265625 3.914062 0.289062 3.84375 0.3125 C 3.769531 0.332031 3.707031 0.335938 3.65625 0.328125 C 3.53125 0.316406 3.429688 0.207031 3.359375 0 C 3.335938 -0.0703125 3.28125 -0.257812 3.1875 -0.5625 C 3.101562 -0.875 3.003906 -1.222656 2.890625 -1.609375 C 2.785156 -1.992188 2.675781 -2.367188 2.5625 -2.734375 C 2.445312 -3.097656 2.347656 -3.40625 2.265625 -3.65625 C 2.191406 -3.914062 2.15625 -4.046875 2.15625 -4.046875 L 1.75 -0.78125 C 1.738281 -0.75 1.734375 -0.722656 1.734375 -0.703125 C 1.742188 -0.679688 1.753906 -0.648438 1.765625 -0.609375 C 1.773438 -0.578125 1.796875 -0.554688 1.828125 -0.546875 C 1.859375 -0.535156 1.90625 -0.523438 1.96875 -0.515625 C 2.082031 -0.503906 2.175781 -0.476562 2.25 -0.4375 C 2.320312 -0.394531 2.351562 -0.34375 2.34375 -0.28125 C 2.332031 -0.15625 2.304688 -0.0351562 2.265625 0.078125 C 2.222656 0.203125 2.175781 0.28125 2.125 0.3125 C 1.820312 0.238281 1.546875 0.1875 1.296875 0.15625 C 1.066406 0.132812 0.785156 0.117188 0.453125 0.109375 C 0.390625 0.0546875 0.347656 -0.03125 0.328125 -0.15625 C 0.304688 -0.28125 0.300781 -0.40625 0.3125 -0.53125 C 0.320312 -0.59375 0.367188 -0.632812 0.453125 -0.65625 C 0.546875 -0.675781 0.648438 -0.679688 0.765625 -0.671875 C 0.867188 -0.648438 0.9375 -0.660156 0.96875 -0.703125 C 1 -0.742188 1.019531 -0.800781 1.03125 -0.875 L 1.46875 -4.4375 C 1.476562 -4.519531 1.472656 -4.578125 1.453125 -4.609375 C 1.429688 -4.648438 1.367188 -4.679688 1.265625 -4.703125 C 0.984375 -4.734375 0.851562 -4.8125 0.875 -4.9375 C 0.882812 -5.0625 0.914062 -5.175781 0.96875 -5.28125 C 1.019531 -5.394531 1.082031 -5.46875 1.15625 -5.5 Z M 1.15625 -5.5 "/></g></g></g><g fill="#3c3c3b" fill-opacity="1"><g transform="translate(134.781777, 29.692229)"><g><path d="M 1.390625 -5.453125 C 1.796875 -5.347656 2.085938 -5.28125 2.265625 -5.25 C 2.453125 -5.21875 2.753906 -5.179688 3.171875 -5.140625 C 3.210938 -5.085938 3.234375 -5 3.234375 -4.875 C 3.242188 -4.757812 3.238281 -4.632812 3.21875 -4.5 C 3.207031 -4.445312 3.160156 -4.410156 3.078125 -4.390625 C 2.992188 -4.367188 2.894531 -4.367188 2.78125 -4.390625 C 2.71875 -4.398438 2.671875 -4.398438 2.640625 -4.390625 C 2.609375 -4.378906 2.582031 -4.363281 2.5625 -4.34375 C 2.539062 -4.320312 2.523438 -4.300781 2.515625 -4.28125 C 2.503906 -4.269531 2.492188 -4.242188 2.484375 -4.203125 L 1.875 -0.671875 C 1.863281 -0.640625 1.859375 -0.613281 1.859375 -0.59375 C 1.867188 -0.570312 1.878906 -0.539062 1.890625 -0.5 C 1.898438 -0.46875 1.914062 -0.441406 1.9375 -0.421875 C 1.96875 -0.410156 2.015625 -0.398438 2.078125 -0.390625 C 2.191406 -0.367188 2.285156 -0.335938 2.359375 -0.296875 C 2.429688 -0.253906 2.460938 -0.203125 2.453125 -0.140625 C 2.429688 -0.0234375 2.394531 0.0859375 2.34375 0.203125 C 2.300781 0.328125 2.25 0.40625 2.1875 0.4375 C 1.84375 0.34375 1.546875 0.273438 1.296875 0.234375 C 1.054688 0.191406 0.757812 0.15625 0.40625 0.125 C 0.351562 0.0703125 0.316406 -0.015625 0.296875 -0.140625 C 0.285156 -0.273438 0.289062 -0.398438 0.3125 -0.515625 C 0.320312 -0.578125 0.367188 -0.613281 0.453125 -0.625 C 0.546875 -0.644531 0.644531 -0.644531 0.75 -0.625 C 0.84375 -0.601562 0.910156 -0.609375 0.953125 -0.640625 C 0.992188 -0.679688 1.019531 -0.738281 1.03125 -0.8125 L 1.65625 -4.359375 C 1.664062 -4.429688 1.65625 -4.488281 1.625 -4.53125 C 1.601562 -4.570312 1.546875 -4.601562 1.453125 -4.625 C 1.179688 -4.675781 1.054688 -4.769531 1.078125 -4.90625 C 1.109375 -5.03125 1.148438 -5.144531 1.203125 -5.25 C 1.253906 -5.351562 1.316406 -5.421875 1.390625 -5.453125 Z M 1.390625 -5.453125 "/></g></g></g><g fill="#3c3c3b" fill-opacity="1"><g transform="translate(140.727136, 30.782392)"><g><path d="M 2.203125 -0.53125 L 3.03125 -4.28125 C 3.039062 -4.3125 3.039062 -4.332031 3.03125 -4.34375 C 3.03125 -4.363281 3.023438 -4.382812 3.015625 -4.40625 C 3.015625 -4.425781 3 -4.4375 2.96875 -4.4375 C 2.851562 -4.46875 2.6875 -4.503906 2.46875 -4.546875 C 2.25 -4.597656 2.097656 -4.632812 2.015625 -4.65625 C 1.972656 -4.601562 1.90625 -4.484375 1.8125 -4.296875 C 1.726562 -4.117188 1.644531 -3.960938 1.5625 -3.828125 C 1.476562 -3.691406 1.414062 -3.628906 1.375 -3.640625 C 1.28125 -3.660156 1.195312 -3.6875 1.125 -3.71875 C 1.0625 -3.757812 1.015625 -3.800781 0.984375 -3.84375 C 0.953125 -3.894531 0.925781 -3.9375 0.90625 -3.96875 C 0.894531 -4.007812 0.894531 -4.039062 0.90625 -4.0625 C 0.914062 -4.144531 1.015625 -4.382812 1.203125 -4.78125 C 1.390625 -5.175781 1.5 -5.390625 1.53125 -5.421875 C 1.539062 -5.421875 1.550781 -5.414062 1.5625 -5.40625 C 1.570312 -5.40625 1.578125 -5.40625 1.578125 -5.40625 C 2.285156 -5.1875 2.953125 -5.003906 3.578125 -4.859375 C 4.210938 -4.722656 4.898438 -4.609375 5.640625 -4.515625 C 5.648438 -4.515625 5.65625 -4.515625 5.65625 -4.515625 C 5.664062 -4.523438 5.675781 -4.523438 5.6875 -4.515625 C 5.707031 -4.472656 5.71875 -4.234375 5.71875 -3.796875 C 5.71875 -3.359375 5.710938 -3.097656 5.703125 -3.015625 C 5.691406 -2.992188 5.671875 -2.96875 5.640625 -2.9375 C 5.617188 -2.914062 5.585938 -2.890625 5.546875 -2.859375 C 5.503906 -2.828125 5.441406 -2.804688 5.359375 -2.796875 C 5.285156 -2.796875 5.207031 -2.804688 5.125 -2.828125 C 5.082031 -2.835938 5.050781 -2.921875 5.03125 -3.078125 C 5.007812 -3.234375 4.992188 -3.410156 4.984375 -3.609375 C 4.972656 -3.816406 4.960938 -3.953125 4.953125 -4.015625 C 4.847656 -4.035156 4.6875 -4.066406 4.46875 -4.109375 C 4.257812 -4.160156 4.097656 -4.195312 3.984375 -4.21875 C 3.953125 -4.226562 3.925781 -4.222656 3.90625 -4.203125 C 3.894531 -4.179688 3.882812 -4.144531 3.875 -4.09375 L 3.046875 -0.34375 C 3.046875 -0.3125 3.039062 -0.285156 3.03125 -0.265625 C 3.03125 -0.242188 3.035156 -0.21875 3.046875 -0.1875 C 3.054688 -0.15625 3.070312 -0.128906 3.09375 -0.109375 C 3.125 -0.0859375 3.164062 -0.0703125 3.21875 -0.0625 C 3.332031 -0.0390625 3.425781 -0.00390625 3.5 0.046875 C 3.582031 0.0976562 3.617188 0.15625 3.609375 0.21875 C 3.535156 0.53125 3.445312 0.71875 3.34375 0.78125 C 2.988281 0.664062 2.679688 0.582031 2.421875 0.53125 C 2.160156 0.46875 1.84375 0.414062 1.46875 0.375 C 1.40625 0.269531 1.410156 0.0625 1.484375 -0.25 C 1.492188 -0.3125 1.539062 -0.347656 1.625 -0.359375 C 1.71875 -0.378906 1.816406 -0.375 1.921875 -0.34375 C 2.015625 -0.320312 2.082031 -0.328125 2.125 -0.359375 C 2.164062 -0.398438 2.191406 -0.457031 2.203125 -0.53125 Z M 2.203125 -0.53125 "/></g></g></g><g fill="#3c3c3b" fill-opacity="1"><g transform="translate(45.626352, 95.779945)"><g><path d="M 2.21875 -5.1875 C 2.25 -5.175781 2.304688 -5.148438 2.390625 -5.109375 C 2.484375 -5.066406 2.566406 -5.03125 2.640625 -5 C 2.722656 -4.96875 2.804688 -4.9375 2.890625 -4.90625 C 2.992188 -4.875 3.109375 -4.835938 3.234375 -4.796875 C 3.367188 -4.753906 3.453125 -4.726562 3.484375 -4.71875 C 3.492188 -4.71875 3.503906 -4.710938 3.515625 -4.703125 C 3.523438 -4.703125 3.53125 -4.703125 3.53125 -4.703125 C 3.539062 -4.703125 3.550781 -4.640625 3.5625 -4.515625 C 3.582031 -4.390625 3.601562 -4.207031 3.625 -3.96875 C 3.65625 -3.726562 3.679688 -3.484375 3.703125 -3.234375 C 3.734375 -2.984375 3.765625 -2.679688 3.796875 -2.328125 C 3.835938 -1.984375 3.867188 -1.695312 3.890625 -1.46875 C 3.910156 -1.238281 3.929688 -0.957031 3.953125 -0.625 C 3.984375 -0.289062 4.003906 -0.0820312 4.015625 0 C 4.515625 -0.582031 5.160156 -1.304688 5.953125 -2.171875 C 6.742188 -3.046875 7.160156 -3.484375 7.203125 -3.484375 C 7.210938 -3.484375 7.226562 -3.476562 7.25 -3.46875 C 7.269531 -3.457031 7.34375 -3.425781 7.46875 -3.375 C 7.59375 -3.332031 7.695312 -3.296875 7.78125 -3.265625 C 8.101562 -3.160156 8.351562 -3.097656 8.53125 -3.078125 C 8.601562 -2.953125 8.585938 -2.734375 8.484375 -2.421875 C 8.460938 -2.359375 8.40625 -2.328125 8.3125 -2.328125 C 8.226562 -2.328125 8.128906 -2.34375 8.015625 -2.375 C 7.929688 -2.40625 7.867188 -2.40625 7.828125 -2.375 C 7.785156 -2.351562 7.75 -2.304688 7.71875 -2.234375 L 6.59375 1.171875 C 6.5625 1.242188 6.554688 1.300781 6.578125 1.34375 C 6.597656 1.394531 6.648438 1.4375 6.734375 1.46875 C 6.847656 1.5 6.9375 1.539062 7 1.59375 C 7.070312 1.65625 7.097656 1.71875 7.078125 1.78125 C 7.046875 1.894531 6.988281 2 6.90625 2.09375 C 6.832031 2.195312 6.765625 2.257812 6.703125 2.28125 C 6.390625 2.144531 6.125 2.039062 5.90625 1.96875 C 5.644531 1.882812 5.34375 1.800781 5 1.71875 C 4.957031 1.65625 4.941406 1.5625 4.953125 1.4375 C 4.972656 1.320312 5 1.207031 5.03125 1.09375 C 5.050781 1.03125 5.101562 0.992188 5.1875 0.984375 C 5.28125 0.984375 5.382812 1 5.5 1.03125 C 5.539062 1.050781 5.582031 1.0625 5.625 1.0625 C 5.664062 1.070312 5.695312 1.0625 5.71875 1.03125 C 5.738281 1.007812 5.753906 0.988281 5.765625 0.96875 C 5.773438 0.945312 5.785156 0.921875 5.796875 0.890625 L 6.84375 -2.234375 C 6.84375 -2.234375 6.738281 -2.125 6.53125 -1.90625 C 6.332031 -1.6875 6.09375 -1.414062 5.8125 -1.09375 C 5.539062 -0.769531 5.257812 -0.453125 4.96875 -0.140625 C 4.6875 0.171875 4.453125 0.429688 4.265625 0.640625 L 3.984375 0.984375 C 3.972656 0.992188 3.941406 1.003906 3.890625 1.015625 C 3.835938 1.035156 3.773438 1.046875 3.703125 1.046875 C 3.640625 1.054688 3.582031 1.050781 3.53125 1.03125 C 3.414062 1 3.34375 0.875 3.3125 0.65625 C 3.289062 0.59375 3.265625 0.398438 3.234375 0.078125 C 3.203125 -0.242188 3.171875 -0.601562 3.140625 -1 C 3.117188 -1.40625 3.085938 -1.796875 3.046875 -2.171875 C 3.015625 -2.554688 2.984375 -2.878906 2.953125 -3.140625 C 2.929688 -3.410156 2.921875 -3.546875 2.921875 -3.546875 L 1.875 -0.421875 C 1.863281 -0.390625 1.859375 -0.359375 1.859375 -0.328125 C 1.859375 -0.304688 1.859375 -0.273438 1.859375 -0.234375 C 1.859375 -0.203125 1.867188 -0.179688 1.890625 -0.171875 C 1.921875 -0.160156 1.96875 -0.144531 2.03125 -0.125 C 2.132812 -0.0820312 2.21875 -0.0351562 2.28125 0.015625 C 2.34375 0.078125 2.363281 0.140625 2.34375 0.203125 C 2.3125 0.316406 2.265625 0.425781 2.203125 0.53125 C 2.140625 0.632812 2.078125 0.695312 2.015625 0.71875 C 1.734375 0.59375 1.476562 0.492188 1.25 0.421875 C 1.019531 0.335938 0.742188 0.257812 0.421875 0.1875 C 0.367188 0.125 0.34375 0.03125 0.34375 -0.09375 C 0.351562 -0.21875 0.375 -0.335938 0.40625 -0.453125 C 0.425781 -0.515625 0.476562 -0.546875 0.5625 -0.546875 C 0.65625 -0.554688 0.757812 -0.539062 0.875 -0.5 C 0.96875 -0.46875 1.035156 -0.46875 1.078125 -0.5 C 1.117188 -0.53125 1.148438 -0.582031 1.171875 -0.65625 L 2.3125 -4.0625 C 2.332031 -4.144531 2.332031 -4.203125 2.3125 -4.234375 C 2.300781 -4.273438 2.25 -4.3125 2.15625 -4.34375 C 1.882812 -4.4375 1.773438 -4.546875 1.828125 -4.671875 C 1.859375 -4.796875 1.910156 -4.90625 1.984375 -5 C 2.054688 -5.101562 2.132812 -5.164062 2.21875 -5.1875 Z M 2.21875 -5.1875 "/></g></g></g><g fill="#3c3c3b" fill-opacity="1"><g transform="translate(56.337749, 99.225553)"><g><path d="M 2.765625 0.03125 C 2.960938 0.15625 3.191406 0.25 3.453125 0.3125 C 3.722656 0.382812 3.96875 0.414062 4.1875 0.40625 C 4.414062 0.394531 4.613281 0.34375 4.78125 0.25 C 4.945312 0.164062 5.082031 0.0546875 5.1875 -0.078125 C 5.300781 -0.210938 5.382812 -0.363281 5.4375 -0.53125 L 6.125 -3.109375 C 6.132812 -3.179688 6.128906 -3.238281 6.109375 -3.28125 C 6.097656 -3.332031 6.046875 -3.367188 5.953125 -3.390625 C 5.847656 -3.421875 5.753906 -3.457031 5.671875 -3.5 C 5.597656 -3.550781 5.566406 -3.601562 5.578125 -3.65625 C 5.617188 -3.789062 5.664062 -3.910156 5.71875 -4.015625 C 5.78125 -4.117188 5.851562 -4.179688 5.9375 -4.203125 C 6.175781 -4.117188 6.460938 -4.03125 6.796875 -3.9375 C 7.140625 -3.851562 7.4375 -3.785156 7.6875 -3.734375 C 7.78125 -3.628906 7.78125 -3.414062 7.6875 -3.09375 C 7.675781 -3.039062 7.625 -3.015625 7.53125 -3.015625 C 7.445312 -3.015625 7.351562 -3.023438 7.25 -3.046875 C 7.195312 -3.066406 7.148438 -3.070312 7.109375 -3.0625 C 7.066406 -3.0625 7.035156 -3.046875 7.015625 -3.015625 C 6.992188 -2.992188 6.976562 -2.972656 6.96875 -2.953125 C 6.957031 -2.929688 6.945312 -2.898438 6.9375 -2.859375 L 6.265625 -0.3125 C 6.203125 -0.0703125 6.085938 0.144531 5.921875 0.34375 C 5.753906 0.550781 5.539062 0.722656 5.28125 0.859375 C 5.03125 0.992188 4.726562 1.070312 4.375 1.09375 C 4.03125 1.125 3.664062 1.085938 3.28125 0.984375 C 2.894531 0.878906 2.554688 0.726562 2.265625 0.53125 C 1.972656 0.332031 1.753906 0.113281 1.609375 -0.125 C 1.460938 -0.363281 1.363281 -0.613281 1.3125 -0.875 C 1.269531 -1.144531 1.28125 -1.398438 1.34375 -1.640625 L 2.015625 -4.1875 C 2.023438 -4.226562 2.03125 -4.257812 2.03125 -4.28125 C 2.039062 -4.300781 2.039062 -4.320312 2.03125 -4.34375 C 2.03125 -4.375 2.015625 -4.398438 1.984375 -4.421875 C 1.953125 -4.453125 1.914062 -4.472656 1.875 -4.484375 C 1.757812 -4.515625 1.664062 -4.550781 1.59375 -4.59375 C 1.519531 -4.644531 1.488281 -4.695312 1.5 -4.75 C 1.59375 -5.070312 1.695312 -5.257812 1.8125 -5.3125 C 2.050781 -5.21875 2.347656 -5.125 2.703125 -5.03125 C 3.023438 -4.945312 3.3125 -4.882812 3.5625 -4.84375 C 3.613281 -4.78125 3.640625 -4.6875 3.640625 -4.5625 C 3.648438 -4.445312 3.632812 -4.320312 3.59375 -4.1875 C 3.582031 -4.132812 3.535156 -4.101562 3.453125 -4.09375 C 3.367188 -4.09375 3.273438 -4.109375 3.171875 -4.140625 C 3.066406 -4.171875 2.992188 -4.164062 2.953125 -4.125 C 2.910156 -4.09375 2.882812 -4.039062 2.875 -3.96875 L 2.1875 -1.390625 C 2.132812 -1.222656 2.125 -1.054688 2.15625 -0.890625 C 2.1875 -0.722656 2.25 -0.554688 2.34375 -0.390625 C 2.4375 -0.234375 2.578125 -0.09375 2.765625 0.03125 Z M 2.765625 0.03125 "/></g></g></g><g fill="#3c3c3b" fill-opacity="1"><g transform="translate(66.531573, 101.811517)"><g><path d="M 1.59375 -5.390625 C 2 -5.273438 2.289062 -5.195312 2.46875 -5.15625 C 2.664062 -5.113281 2.96875 -5.066406 3.375 -5.015625 C 3.425781 -4.960938 3.445312 -4.867188 3.4375 -4.734375 C 3.4375 -4.609375 3.421875 -4.484375 3.390625 -4.359375 C 3.378906 -4.304688 3.332031 -4.273438 3.25 -4.265625 C 3.175781 -4.253906 3.082031 -4.257812 2.96875 -4.28125 C 2.90625 -4.289062 2.851562 -4.289062 2.8125 -4.28125 C 2.78125 -4.28125 2.753906 -4.265625 2.734375 -4.234375 C 2.710938 -4.210938 2.695312 -4.191406 2.6875 -4.171875 C 2.675781 -4.148438 2.664062 -4.117188 2.65625 -4.078125 L 1.890625 -0.59375 C 1.890625 -0.5625 1.890625 -0.535156 1.890625 -0.515625 C 1.890625 -0.492188 1.894531 -0.46875 1.90625 -0.4375 C 1.914062 -0.40625 1.929688 -0.378906 1.953125 -0.359375 C 1.984375 -0.335938 2.03125 -0.320312 2.09375 -0.3125 C 2.207031 -0.289062 2.296875 -0.253906 2.359375 -0.203125 C 2.429688 -0.148438 2.460938 -0.09375 2.453125 -0.03125 C 2.421875 0.09375 2.378906 0.207031 2.328125 0.3125 C 2.285156 0.414062 2.234375 0.484375 2.171875 0.515625 C 1.835938 0.410156 1.539062 0.332031 1.28125 0.28125 C 1.050781 0.226562 0.753906 0.179688 0.390625 0.140625 C 0.347656 0.078125 0.320312 -0.0078125 0.3125 -0.125 C 0.300781 -0.25 0.3125 -0.375 0.34375 -0.5 C 0.351562 -0.5625 0.398438 -0.597656 0.484375 -0.609375 C 0.566406 -0.628906 0.664062 -0.625 0.78125 -0.59375 C 0.875 -0.570312 0.941406 -0.578125 0.984375 -0.609375 C 1.023438 -0.648438 1.050781 -0.707031 1.0625 -0.78125 L 1.828125 -4.28125 C 1.847656 -4.363281 1.847656 -4.425781 1.828125 -4.46875 C 1.804688 -4.507812 1.75 -4.539062 1.65625 -4.5625 C 1.382812 -4.625 1.257812 -4.722656 1.28125 -4.859375 C 1.3125 -4.972656 1.359375 -5.082031 1.421875 -5.1875 C 1.484375 -5.300781 1.539062 -5.367188 1.59375 -5.390625 Z M 1.59375 -5.390625 "/></g></g></g><g fill="#3c3c3b" fill-opacity="1"><g transform="translate(72.632585, 103.087804)"><g><path d="M 0.890625 0.203125 L 0.53125 0.140625 C 0.507812 -0.578125 0.53125 -1.113281 0.59375 -1.46875 C 0.601562 -1.519531 0.660156 -1.554688 0.765625 -1.578125 C 0.878906 -1.597656 1 -1.597656 1.125 -1.578125 C 1.175781 -1.566406 1.21875 -1.550781 1.25 -1.53125 C 1.289062 -1.332031 1.367188 -1.140625 1.484375 -0.953125 C 1.597656 -0.773438 1.726562 -0.628906 1.875 -0.515625 C 2.03125 -0.398438 2.1875 -0.300781 2.34375 -0.21875 C 2.5 -0.144531 2.648438 -0.0976562 2.796875 -0.078125 C 3.078125 -0.0234375 3.316406 -0.046875 3.515625 -0.140625 C 3.710938 -0.234375 3.832031 -0.40625 3.875 -0.65625 C 3.90625 -0.8125 3.894531 -0.957031 3.84375 -1.09375 C 3.789062 -1.238281 3.703125 -1.359375 3.578125 -1.453125 C 3.460938 -1.554688 3.320312 -1.65625 3.15625 -1.75 C 3 -1.84375 2.828125 -1.929688 2.640625 -2.015625 C 2.453125 -2.097656 2.269531 -2.179688 2.09375 -2.265625 C 1.914062 -2.359375 1.742188 -2.460938 1.578125 -2.578125 C 1.421875 -2.703125 1.285156 -2.832031 1.171875 -2.96875 C 1.054688 -3.101562 0.972656 -3.265625 0.921875 -3.453125 C 0.878906 -3.648438 0.878906 -3.867188 0.921875 -4.109375 C 0.972656 -4.410156 1.109375 -4.65625 1.328125 -4.84375 C 1.554688 -5.03125 1.816406 -5.148438 2.109375 -5.203125 C 2.410156 -5.253906 2.734375 -5.25 3.078125 -5.1875 C 3.585938 -5.101562 4.007812 -4.898438 4.34375 -4.578125 C 4.375 -4.609375 4.398438 -4.648438 4.421875 -4.703125 C 4.441406 -4.753906 4.453125 -4.785156 4.453125 -4.796875 C 4.460938 -4.816406 4.476562 -4.832031 4.5 -4.84375 C 4.519531 -4.851562 4.539062 -4.851562 4.5625 -4.84375 C 4.59375 -4.84375 4.648438 -4.835938 4.734375 -4.828125 C 4.804688 -4.804688 4.925781 -4.78125 5.09375 -4.75 C 5.132812 -4.03125 5.128906 -3.523438 5.078125 -3.234375 C 5.066406 -3.191406 4.992188 -3.164062 4.859375 -3.15625 C 4.722656 -3.15625 4.59375 -3.164062 4.46875 -3.1875 L 4.375 -3.203125 C 4.351562 -3.554688 4.222656 -3.859375 3.984375 -4.109375 C 3.742188 -4.359375 3.421875 -4.519531 3.015625 -4.59375 C 2.671875 -4.65625 2.398438 -4.632812 2.203125 -4.53125 C 2.003906 -4.425781 1.882812 -4.253906 1.84375 -4.015625 C 1.820312 -3.878906 1.835938 -3.75 1.890625 -3.625 C 1.953125 -3.5 2.046875 -3.390625 2.171875 -3.296875 C 2.296875 -3.203125 2.441406 -3.109375 2.609375 -3.015625 C 2.773438 -2.929688 2.945312 -2.84375 3.125 -2.75 C 3.300781 -2.664062 3.484375 -2.578125 3.671875 -2.484375 C 3.859375 -2.390625 4.03125 -2.28125 4.1875 -2.15625 C 4.34375 -2.039062 4.476562 -1.910156 4.59375 -1.765625 C 4.707031 -1.628906 4.789062 -1.457031 4.84375 -1.25 C 4.894531 -1.050781 4.898438 -0.84375 4.859375 -0.625 C 4.816406 -0.351562 4.722656 -0.128906 4.578125 0.046875 C 4.441406 0.222656 4.269531 0.351562 4.0625 0.4375 C 3.863281 0.53125 3.648438 0.585938 3.421875 0.609375 C 3.191406 0.628906 2.953125 0.617188 2.703125 0.578125 C 2.429688 0.523438 2.171875 0.429688 1.921875 0.296875 C 1.679688 0.160156 1.46875 -0.0078125 1.28125 -0.21875 L 1.15625 0.15625 C 1.132812 0.175781 1.117188 0.1875 1.109375 0.1875 C 1.097656 0.195312 1.070312 0.203125 1.03125 0.203125 C 1 0.210938 0.953125 0.210938 0.890625 0.203125 Z M 0.890625 0.203125 "/></g></g></g><g fill="#3c3c3b" fill-opacity="1"><g transform="translate(80.981828, 104.46487)"><g><path d="M 2.15625 -0.734375 L 2.640625 -4.546875 C 2.640625 -4.578125 2.640625 -4.597656 2.640625 -4.609375 C 2.640625 -4.628906 2.632812 -4.644531 2.625 -4.65625 C 2.613281 -4.664062 2.59375 -4.671875 2.5625 -4.671875 C 2.445312 -4.691406 2.273438 -4.710938 2.046875 -4.734375 C 1.828125 -4.765625 1.675781 -4.785156 1.59375 -4.796875 C 1.550781 -4.765625 1.492188 -4.648438 1.421875 -4.453125 C 1.359375 -4.265625 1.289062 -4.097656 1.21875 -3.953125 C 1.144531 -3.816406 1.085938 -3.75 1.046875 -3.75 C 0.953125 -3.769531 0.867188 -3.789062 0.796875 -3.8125 C 0.722656 -3.84375 0.664062 -3.878906 0.625 -3.921875 C 0.59375 -3.960938 0.566406 -4 0.546875 -4.03125 C 0.535156 -4.070312 0.53125 -4.101562 0.53125 -4.125 C 0.539062 -4.207031 0.617188 -4.453125 0.765625 -4.859375 C 0.921875 -5.273438 1.015625 -5.5 1.046875 -5.53125 C 1.054688 -5.53125 1.066406 -5.523438 1.078125 -5.515625 C 1.085938 -5.515625 1.09375 -5.515625 1.09375 -5.515625 C 1.8125 -5.359375 2.492188 -5.238281 3.140625 -5.15625 C 3.773438 -5.070312 4.46875 -5.015625 5.21875 -4.984375 C 5.226562 -4.984375 5.234375 -4.984375 5.234375 -4.984375 C 5.242188 -4.992188 5.253906 -5 5.265625 -5 C 5.296875 -4.957031 5.328125 -4.71875 5.359375 -4.28125 C 5.398438 -3.84375 5.414062 -3.582031 5.40625 -3.5 C 5.40625 -3.476562 5.390625 -3.453125 5.359375 -3.421875 C 5.335938 -3.398438 5.304688 -3.375 5.265625 -3.34375 C 5.234375 -3.3125 5.175781 -3.289062 5.09375 -3.28125 C 5.019531 -3.269531 4.9375 -3.269531 4.84375 -3.28125 C 4.800781 -3.28125 4.765625 -3.351562 4.734375 -3.5 C 4.703125 -3.65625 4.671875 -3.835938 4.640625 -4.046875 C 4.609375 -4.253906 4.585938 -4.378906 4.578125 -4.421875 C 4.472656 -4.429688 4.3125 -4.453125 4.09375 -4.484375 C 3.875 -4.515625 3.703125 -4.535156 3.578125 -4.546875 C 3.554688 -4.546875 3.535156 -4.539062 3.515625 -4.53125 C 3.503906 -4.519531 3.5 -4.488281 3.5 -4.4375 L 3.015625 -0.625 C 3.015625 -0.59375 3.007812 -0.566406 3 -0.546875 C 3 -0.523438 3.003906 -0.492188 3.015625 -0.453125 C 3.023438 -0.421875 3.046875 -0.394531 3.078125 -0.375 C 3.109375 -0.363281 3.148438 -0.359375 3.203125 -0.359375 C 3.316406 -0.335938 3.410156 -0.304688 3.484375 -0.265625 C 3.566406 -0.222656 3.609375 -0.171875 3.609375 -0.109375 C 3.566406 0.210938 3.5 0.410156 3.40625 0.484375 C 3.039062 0.398438 2.726562 0.34375 2.46875 0.3125 C 2.195312 0.28125 1.875 0.253906 1.5 0.234375 C 1.425781 0.140625 1.410156 -0.0664062 1.453125 -0.390625 C 1.453125 -0.453125 1.492188 -0.492188 1.578125 -0.515625 C 1.671875 -0.535156 1.773438 -0.535156 1.890625 -0.515625 C 1.984375 -0.503906 2.046875 -0.519531 2.078125 -0.5625 C 2.117188 -0.601562 2.144531 -0.660156 2.15625 -0.734375 Z M 2.15625 -0.734375 "/></g></g></g><g fill="#3c3c3b" fill-opacity="1"><g transform="translate(89.488842, 105.442423)"><g><path d="M 0.890625 -5.5625 C 1.304688 -5.488281 1.601562 -5.445312 1.78125 -5.4375 C 1.976562 -5.414062 2.28125 -5.40625 2.6875 -5.40625 C 2.738281 -5.351562 2.769531 -5.265625 2.78125 -5.140625 C 2.800781 -5.023438 2.804688 -4.898438 2.796875 -4.765625 C 2.796875 -4.710938 2.753906 -4.671875 2.671875 -4.640625 C 2.597656 -4.617188 2.503906 -4.613281 2.390625 -4.625 C 2.328125 -4.632812 2.28125 -4.628906 2.25 -4.609375 C 2.21875 -4.597656 2.191406 -4.582031 2.171875 -4.5625 C 2.148438 -4.539062 2.132812 -4.519531 2.125 -4.5 C 2.125 -4.476562 2.125 -4.445312 2.125 -4.40625 L 1.8125 -0.84375 C 1.8125 -0.8125 1.8125 -0.785156 1.8125 -0.765625 C 1.820312 -0.742188 1.832031 -0.710938 1.84375 -0.671875 C 1.851562 -0.640625 1.875 -0.617188 1.90625 -0.609375 C 1.9375 -0.597656 1.984375 -0.585938 2.046875 -0.578125 C 2.160156 -0.566406 2.253906 -0.539062 2.328125 -0.5 C 2.398438 -0.46875 2.429688 -0.421875 2.421875 -0.359375 C 2.410156 -0.234375 2.382812 -0.113281 2.34375 0 C 2.3125 0.125 2.269531 0.203125 2.21875 0.234375 C 1.875 0.171875 1.570312 0.128906 1.3125 0.109375 C 1.070312 0.0859375 0.773438 0.078125 0.421875 0.078125 C 0.359375 0.0351562 0.3125 -0.046875 0.28125 -0.171875 C 0.257812 -0.296875 0.253906 -0.421875 0.265625 -0.546875 C 0.273438 -0.609375 0.320312 -0.648438 0.40625 -0.671875 C 0.488281 -0.691406 0.585938 -0.703125 0.703125 -0.703125 C 0.796875 -0.691406 0.859375 -0.703125 0.890625 -0.734375 C 0.929688 -0.773438 0.953125 -0.832031 0.953125 -0.90625 L 1.265625 -4.484375 C 1.265625 -4.566406 1.25 -4.628906 1.21875 -4.671875 C 1.195312 -4.710938 1.140625 -4.738281 1.046875 -4.75 C 0.765625 -4.769531 0.628906 -4.847656 0.640625 -4.984375 C 0.648438 -5.109375 0.675781 -5.222656 0.71875 -5.328125 C 0.769531 -5.441406 0.828125 -5.519531 0.890625 -5.5625 Z M 0.890625 -5.5625 "/></g></g></g><g fill="#3c3c3b" fill-opacity="1"><g transform="translate(95.685165, 105.903244)"><g/></g></g><g fill="#3c3c3b" fill-opacity="1"><g transform="translate(101.154582, 106.147694)"><g><path d="M 2.0625 -0.953125 L 2.109375 -4.796875 C 2.109375 -4.828125 2.101562 -4.847656 2.09375 -4.859375 C 2.09375 -4.878906 2.085938 -4.894531 2.078125 -4.90625 C 2.066406 -4.925781 2.046875 -4.9375 2.015625 -4.9375 C 1.898438 -4.945312 1.726562 -4.953125 1.5 -4.953125 C 1.28125 -4.953125 1.125 -4.953125 1.03125 -4.953125 C 1 -4.898438 0.957031 -4.773438 0.90625 -4.578125 C 0.863281 -4.378906 0.8125 -4.207031 0.75 -4.0625 C 0.695312 -3.914062 0.648438 -3.847656 0.609375 -3.859375 C 0.515625 -3.859375 0.425781 -3.867188 0.34375 -3.890625 C 0.269531 -3.910156 0.210938 -3.9375 0.171875 -3.96875 C 0.140625 -4.007812 0.113281 -4.046875 0.09375 -4.078125 C 0.0703125 -4.109375 0.0625 -4.132812 0.0625 -4.15625 C 0.0703125 -4.238281 0.125 -4.492188 0.21875 -4.921875 C 0.320312 -5.347656 0.390625 -5.582031 0.421875 -5.625 C 0.429688 -5.625 0.441406 -5.617188 0.453125 -5.609375 C 0.460938 -5.609375 0.46875 -5.609375 0.46875 -5.609375 C 1.207031 -5.535156 1.898438 -5.492188 2.546875 -5.484375 C 3.191406 -5.472656 3.882812 -5.492188 4.625 -5.546875 C 4.632812 -5.546875 4.640625 -5.546875 4.640625 -5.546875 C 4.648438 -5.554688 4.660156 -5.5625 4.671875 -5.5625 C 4.703125 -5.519531 4.757812 -5.285156 4.84375 -4.859375 C 4.9375 -4.429688 4.976562 -4.175781 4.96875 -4.09375 C 4.96875 -4.070312 4.957031 -4.046875 4.9375 -4.015625 C 4.914062 -3.984375 4.882812 -3.945312 4.84375 -3.90625 C 4.8125 -3.875 4.757812 -3.847656 4.6875 -3.828125 C 4.613281 -3.804688 4.53125 -3.796875 4.4375 -3.796875 C 4.394531 -3.796875 4.347656 -3.867188 4.296875 -4.015625 C 4.253906 -4.171875 4.207031 -4.347656 4.15625 -4.546875 C 4.101562 -4.742188 4.066406 -4.867188 4.046875 -4.921875 C 3.941406 -4.921875 3.78125 -4.921875 3.5625 -4.921875 C 3.34375 -4.921875 3.171875 -4.925781 3.046875 -4.9375 C 3.015625 -4.9375 2.992188 -4.925781 2.984375 -4.90625 C 2.972656 -4.882812 2.96875 -4.847656 2.96875 -4.796875 L 2.921875 -0.953125 C 2.921875 -0.921875 2.921875 -0.894531 2.921875 -0.875 C 2.921875 -0.851562 2.925781 -0.828125 2.9375 -0.796875 C 2.957031 -0.765625 2.984375 -0.738281 3.015625 -0.71875 C 3.054688 -0.707031 3.101562 -0.703125 3.15625 -0.703125 C 3.269531 -0.703125 3.367188 -0.6875 3.453125 -0.65625 C 3.535156 -0.625 3.570312 -0.578125 3.5625 -0.515625 C 3.5625 -0.191406 3.519531 0.0078125 3.4375 0.09375 C 3.0625 0.0507812 2.742188 0.03125 2.484375 0.03125 C 2.210938 0.03125 1.890625 0.0390625 1.515625 0.0625 C 1.429688 -0.0195312 1.390625 -0.222656 1.390625 -0.546875 C 1.398438 -0.609375 1.445312 -0.65625 1.53125 -0.6875 C 1.613281 -0.71875 1.710938 -0.734375 1.828125 -0.734375 C 1.921875 -0.722656 1.984375 -0.738281 2.015625 -0.78125 C 2.046875 -0.820312 2.0625 -0.878906 2.0625 -0.953125 Z M 2.0625 -0.953125 "/></g></g></g><g fill="#3c3c3b" fill-opacity="1"><g transform="translate(109.738312, 106.177152)"><g><path d="M 2.578125 -5.625 C 2.878906 -5.632812 3.085938 -5.648438 3.203125 -5.671875 L 3.203125 -5.65625 C 3.222656 -5.550781 3.273438 -5.375 3.359375 -5.125 C 3.441406 -4.882812 3.5 -4.734375 3.53125 -4.671875 L 5.046875 -1.125 C 5.078125 -1.050781 5.113281 -0.992188 5.15625 -0.953125 C 5.195312 -0.910156 5.269531 -0.894531 5.375 -0.90625 C 5.457031 -0.90625 5.535156 -0.890625 5.609375 -0.859375 C 5.691406 -0.835938 5.742188 -0.800781 5.765625 -0.75 C 5.753906 -0.582031 5.753906 -0.453125 5.765625 -0.359375 C 5.765625 -0.265625 5.742188 -0.203125 5.703125 -0.171875 C 5.328125 -0.179688 5.007812 -0.179688 4.75 -0.171875 C 4.25 -0.160156 3.90625 -0.132812 3.71875 -0.09375 C 3.675781 -0.238281 3.648438 -0.441406 3.640625 -0.703125 C 3.628906 -0.753906 3.664062 -0.789062 3.75 -0.8125 C 3.84375 -0.832031 3.929688 -0.847656 4.015625 -0.859375 C 4.109375 -0.878906 4.15625 -0.914062 4.15625 -0.96875 C 4.15625 -1 4.144531 -1.046875 4.125 -1.109375 L 3.71875 -2.09375 L 1.75 -2.015625 L 1.46875 -1.015625 C 1.445312 -0.929688 1.4375 -0.878906 1.4375 -0.859375 C 1.4375 -0.804688 1.476562 -0.773438 1.5625 -0.765625 C 1.65625 -0.765625 1.742188 -0.753906 1.828125 -0.734375 C 1.921875 -0.722656 1.972656 -0.691406 1.984375 -0.640625 C 1.960938 -0.316406 1.9375 -0.113281 1.90625 -0.03125 C 1.507812 -0.0390625 1.179688 -0.0390625 0.921875 -0.03125 C 0.765625 -0.03125 0.460938 -0.00390625 0.015625 0.046875 C -0.0234375 0.015625 -0.046875 -0.046875 -0.046875 -0.140625 C -0.0546875 -0.234375 -0.0507812 -0.363281 -0.03125 -0.53125 C -0.0195312 -0.582031 0.015625 -0.625 0.078125 -0.65625 C 0.148438 -0.695312 0.226562 -0.71875 0.3125 -0.71875 C 0.414062 -0.71875 0.488281 -0.738281 0.53125 -0.78125 C 0.570312 -0.820312 0.609375 -0.882812 0.640625 -0.96875 L 1.875 -4.6875 C 1.894531 -4.738281 1.90625 -4.78125 1.90625 -4.8125 C 1.90625 -4.863281 1.875 -4.894531 1.8125 -4.90625 C 1.757812 -4.925781 1.703125 -4.929688 1.640625 -4.921875 C 1.585938 -4.910156 1.53125 -4.914062 1.46875 -4.9375 C 1.414062 -4.957031 1.390625 -4.992188 1.390625 -5.046875 C 1.390625 -5.054688 1.394531 -5.070312 1.40625 -5.09375 C 1.425781 -5.363281 1.460938 -5.535156 1.515625 -5.609375 C 1.828125 -5.597656 2.179688 -5.601562 2.578125 -5.625 Z M 2.65625 -4.796875 C 2.414062 -4.148438 2.175781 -3.414062 1.9375 -2.59375 L 3.5 -2.65625 C 3.375 -3.007812 3.238281 -3.363281 3.09375 -3.71875 C 2.945312 -4.070312 2.835938 -4.335938 2.765625 -4.515625 Z M 2.65625 -4.796875 "/></g></g></g><g fill="#3c3c3b" fill-opacity="1"><g transform="translate(119.09501, 105.72781)"><g><path d="M -0.03125 -5.640625 C 0.09375 -5.617188 0.390625 -5.625 0.859375 -5.65625 C 1.273438 -5.695312 1.539062 -5.738281 1.65625 -5.78125 C 1.71875 -5.75 1.769531 -5.679688 1.8125 -5.578125 C 1.863281 -5.472656 1.894531 -5.363281 1.90625 -5.25 C 1.90625 -5.195312 1.875 -5.148438 1.8125 -5.109375 C 1.75 -5.078125 1.675781 -5.054688 1.59375 -5.046875 C 1.53125 -5.046875 1.484375 -5.035156 1.453125 -5.015625 C 1.421875 -4.992188 1.394531 -4.96875 1.375 -4.9375 C 1.363281 -4.914062 1.359375 -4.894531 1.359375 -4.875 C 1.359375 -4.851562 1.359375 -4.828125 1.359375 -4.796875 L 1.703125 -0.953125 C 1.703125 -0.867188 1.722656 -0.828125 1.765625 -0.828125 C 1.972656 -0.847656 2.269531 -0.875 2.65625 -0.90625 C 3.039062 -0.9375 3.316406 -0.960938 3.484375 -0.984375 C 3.515625 -1.035156 3.5625 -1.1875 3.625 -1.4375 C 3.695312 -1.6875 3.765625 -1.898438 3.828125 -2.078125 C 3.898438 -2.265625 3.972656 -2.363281 4.046875 -2.375 C 4.140625 -2.375 4.222656 -2.363281 4.296875 -2.34375 C 4.367188 -2.332031 4.425781 -2.3125 4.46875 -2.28125 C 4.507812 -2.25 4.539062 -2.21875 4.5625 -2.1875 C 4.582031 -2.164062 4.597656 -2.144531 4.609375 -2.125 C 4.609375 -2.019531 4.523438 -1.703125 4.359375 -1.171875 C 4.191406 -0.640625 4.070312 -0.347656 4 -0.296875 C 3.320312 -0.273438 2.703125 -0.238281 2.140625 -0.1875 C 1.617188 -0.144531 1.054688 -0.0820312 0.453125 0 C 0.390625 -0.03125 0.332031 -0.101562 0.28125 -0.21875 C 0.238281 -0.332031 0.210938 -0.453125 0.203125 -0.578125 C 0.191406 -0.640625 0.226562 -0.691406 0.3125 -0.734375 C 0.394531 -0.773438 0.492188 -0.800781 0.609375 -0.8125 C 0.710938 -0.820312 0.773438 -0.847656 0.796875 -0.890625 C 0.816406 -0.929688 0.828125 -0.988281 0.828125 -1.0625 L 0.5 -4.640625 C 0.5 -4.722656 0.484375 -4.78125 0.453125 -4.8125 C 0.421875 -4.851562 0.351562 -4.867188 0.25 -4.859375 C -0.03125 -4.828125 -0.175781 -4.878906 -0.1875 -5.015625 C -0.195312 -5.140625 -0.1875 -5.257812 -0.15625 -5.375 C -0.132812 -5.5 -0.09375 -5.585938 -0.03125 -5.640625 Z M -0.03125 -5.640625 "/></g></g></g><g fill="#3c3c3b" fill-opacity="1"><g transform="translate(127.610216, 104.895966)"><g><path d="M -0.296875 -5.625 C -0.171875 -5.613281 0.117188 -5.640625 0.578125 -5.703125 C 0.992188 -5.753906 1.265625 -5.804688 1.390625 -5.859375 C 1.453125 -5.816406 1.507812 -5.742188 1.5625 -5.640625 C 1.613281 -5.546875 1.644531 -5.441406 1.65625 -5.328125 C 1.664062 -5.273438 1.640625 -5.226562 1.578125 -5.1875 C 1.515625 -5.15625 1.4375 -5.128906 1.34375 -5.109375 C 1.28125 -5.109375 1.234375 -5.097656 1.203125 -5.078125 C 1.171875 -5.054688 1.148438 -5.03125 1.140625 -5 C 1.128906 -4.96875 1.117188 -4.941406 1.109375 -4.921875 C 1.109375 -4.898438 1.113281 -4.875 1.125 -4.84375 L 1.640625 -1.03125 C 1.648438 -0.945312 1.675781 -0.910156 1.71875 -0.921875 C 1.9375 -0.953125 2.234375 -0.992188 2.609375 -1.046875 C 2.992188 -1.097656 3.269531 -1.132812 3.4375 -1.15625 C 3.46875 -1.207031 3.507812 -1.351562 3.5625 -1.59375 C 3.613281 -1.84375 3.671875 -2.0625 3.734375 -2.25 C 3.796875 -2.445312 3.863281 -2.546875 3.9375 -2.546875 C 4.019531 -2.566406 4.097656 -2.566406 4.171875 -2.546875 C 4.242188 -2.535156 4.300781 -2.515625 4.34375 -2.484375 C 4.382812 -2.460938 4.414062 -2.4375 4.4375 -2.40625 C 4.46875 -2.375 4.484375 -2.347656 4.484375 -2.328125 C 4.503906 -2.222656 4.441406 -1.90625 4.296875 -1.375 C 4.160156 -0.84375 4.054688 -0.550781 3.984375 -0.5 C 3.304688 -0.4375 2.691406 -0.367188 2.140625 -0.296875 C 1.609375 -0.222656 1.046875 -0.128906 0.453125 -0.015625 C 0.390625 -0.046875 0.332031 -0.117188 0.28125 -0.234375 C 0.226562 -0.347656 0.191406 -0.46875 0.171875 -0.59375 C 0.160156 -0.65625 0.195312 -0.707031 0.28125 -0.75 C 0.363281 -0.789062 0.460938 -0.820312 0.578125 -0.84375 C 0.679688 -0.851562 0.738281 -0.878906 0.75 -0.921875 C 0.757812 -0.960938 0.765625 -1.019531 0.765625 -1.09375 L 0.28125 -4.65625 C 0.257812 -4.738281 0.238281 -4.796875 0.21875 -4.828125 C 0.195312 -4.859375 0.132812 -4.867188 0.03125 -4.859375 C -0.25 -4.816406 -0.398438 -4.863281 -0.421875 -5 C -0.441406 -5.125 -0.441406 -5.242188 -0.421875 -5.359375 C -0.398438 -5.484375 -0.359375 -5.570312 -0.296875 -5.625 Z M -0.296875 -5.625 "/></g></g></g><g fill="#3c3c3b" fill-opacity="1"><g transform="translate(136.076304, 103.658666)"><g><path d="M -0.59375 -5.59375 C 0.375 -5.738281 1.023438 -5.84375 1.359375 -5.90625 C 1.597656 -5.945312 1.84375 -5.992188 2.09375 -6.046875 C 2.34375 -6.097656 2.578125 -6.148438 2.796875 -6.203125 C 3.023438 -6.253906 3.15625 -6.285156 3.1875 -6.296875 C 3.226562 -6.265625 3.347656 -6.03125 3.546875 -5.59375 C 3.753906 -5.15625 3.863281 -4.890625 3.875 -4.796875 C 3.882812 -4.785156 3.882812 -4.757812 3.875 -4.71875 C 3.863281 -4.6875 3.835938 -4.648438 3.796875 -4.609375 C 3.765625 -4.566406 3.710938 -4.523438 3.640625 -4.484375 C 3.578125 -4.441406 3.503906 -4.410156 3.421875 -4.390625 C 3.378906 -4.390625 3.316406 -4.460938 3.234375 -4.609375 C 3.160156 -4.753906 3.082031 -4.925781 3 -5.125 C 2.914062 -5.320312 2.859375 -5.445312 2.828125 -5.5 C 2.648438 -5.46875 2.351562 -5.410156 1.9375 -5.328125 C 1.53125 -5.253906 1.195312 -5.195312 0.9375 -5.15625 C 0.90625 -5.144531 0.878906 -5.125 0.859375 -5.09375 C 0.847656 -5.0625 0.84375 -5.03125 0.84375 -5 C 0.84375 -4.96875 0.847656 -4.929688 0.859375 -4.890625 L 1.109375 -3.5 C 1.242188 -3.570312 1.410156 -3.644531 1.609375 -3.71875 C 1.816406 -3.800781 2.007812 -3.859375 2.1875 -3.890625 C 2.332031 -3.921875 2.453125 -3.90625 2.546875 -3.84375 C 2.648438 -3.789062 2.71875 -3.679688 2.75 -3.515625 C 2.769531 -3.378906 2.742188 -3.253906 2.671875 -3.140625 C 2.597656 -3.035156 2.5 -2.96875 2.375 -2.9375 C 2.144531 -3.132812 1.867188 -3.203125 1.546875 -3.140625 C 1.453125 -3.128906 1.335938 -3.097656 1.203125 -3.046875 L 1.53125 -1.203125 C 1.539062 -1.148438 1.550781 -1.109375 1.5625 -1.078125 C 1.570312 -1.054688 1.585938 -1.035156 1.609375 -1.015625 C 1.640625 -0.992188 1.671875 -0.988281 1.703125 -1 C 1.972656 -1.039062 2.332031 -1.101562 2.78125 -1.1875 C 3.226562 -1.269531 3.550781 -1.332031 3.75 -1.375 C 3.757812 -1.425781 3.773438 -1.570312 3.796875 -1.8125 C 3.816406 -2.0625 3.835938 -2.28125 3.859375 -2.46875 C 3.890625 -2.664062 3.929688 -2.765625 3.984375 -2.765625 C 4.078125 -2.785156 4.160156 -2.789062 4.234375 -2.78125 C 4.316406 -2.769531 4.378906 -2.75 4.421875 -2.71875 C 4.460938 -2.695312 4.492188 -2.671875 4.515625 -2.640625 C 4.546875 -2.617188 4.5625 -2.597656 4.5625 -2.578125 C 4.582031 -2.472656 4.570312 -2.15625 4.53125 -1.625 C 4.488281 -1.101562 4.445312 -0.816406 4.40625 -0.765625 C 3.945312 -0.710938 3.269531 -0.601562 2.375 -0.4375 C 1.613281 -0.300781 0.96875 -0.164062 0.4375 -0.03125 C 0.363281 -0.0625 0.296875 -0.132812 0.234375 -0.25 C 0.179688 -0.363281 0.140625 -0.476562 0.109375 -0.59375 C 0.0976562 -0.65625 0.128906 -0.707031 0.203125 -0.75 C 0.285156 -0.789062 0.378906 -0.820312 0.484375 -0.84375 C 0.578125 -0.863281 0.632812 -0.894531 0.65625 -0.9375 C 0.6875 -0.988281 0.695312 -1.050781 0.6875 -1.125 L 0.03125 -4.65625 C 0.0078125 -4.738281 -0.015625 -4.796875 -0.046875 -4.828125 C -0.0859375 -4.859375 -0.15625 -4.863281 -0.25 -4.84375 C -0.519531 -4.800781 -0.664062 -4.847656 -0.6875 -4.984375 C -0.71875 -5.097656 -0.722656 -5.210938 -0.703125 -5.328125 C -0.691406 -5.453125 -0.65625 -5.539062 -0.59375 -5.59375 Z M -0.59375 -5.59375 "/></g></g></g><g fill="#3c3c3b" fill-opacity="1"><g transform="translate(144.487424, 102.014869)"><g><path d="M 0.90625 -0.15625 L 0.5625 -0.078125 C 0.238281 -0.734375 0.0351562 -1.234375 -0.046875 -1.578125 C -0.0546875 -1.640625 -0.015625 -1.703125 0.078125 -1.765625 C 0.179688 -1.828125 0.296875 -1.867188 0.421875 -1.890625 C 0.460938 -1.898438 0.503906 -1.90625 0.546875 -1.90625 C 0.660156 -1.738281 0.800781 -1.59375 0.96875 -1.46875 C 1.144531 -1.34375 1.328125 -1.253906 1.515625 -1.203125 C 1.710938 -1.160156 1.894531 -1.132812 2.0625 -1.125 C 2.238281 -1.125 2.398438 -1.140625 2.546875 -1.171875 C 2.828125 -1.234375 3.039062 -1.34375 3.1875 -1.5 C 3.332031 -1.664062 3.378906 -1.875 3.328125 -2.125 C 3.285156 -2.28125 3.210938 -2.410156 3.109375 -2.515625 C 3.003906 -2.628906 2.875 -2.707031 2.71875 -2.75 C 2.570312 -2.789062 2.40625 -2.820312 2.21875 -2.84375 C 2.039062 -2.863281 1.847656 -2.878906 1.640625 -2.890625 C 1.429688 -2.898438 1.226562 -2.90625 1.03125 -2.90625 C 0.832031 -2.914062 0.632812 -2.941406 0.4375 -2.984375 C 0.25 -3.035156 0.078125 -3.097656 -0.078125 -3.171875 C -0.242188 -3.253906 -0.382812 -3.375 -0.5 -3.53125 C -0.613281 -3.695312 -0.695312 -3.898438 -0.75 -4.140625 C -0.820312 -4.429688 -0.789062 -4.707031 -0.65625 -4.96875 C -0.53125 -5.226562 -0.335938 -5.441406 -0.078125 -5.609375 C 0.171875 -5.773438 0.460938 -5.894531 0.796875 -5.96875 C 1.304688 -6.09375 1.769531 -6.070312 2.1875 -5.90625 C 2.195312 -5.945312 2.203125 -5.992188 2.203125 -6.046875 C 2.210938 -6.109375 2.210938 -6.144531 2.203125 -6.15625 C 2.203125 -6.175781 2.210938 -6.195312 2.234375 -6.21875 C 2.253906 -6.238281 2.28125 -6.25 2.3125 -6.25 C 2.34375 -6.257812 2.394531 -6.273438 2.46875 -6.296875 C 2.539062 -6.316406 2.660156 -6.335938 2.828125 -6.359375 C 3.128906 -5.710938 3.316406 -5.25 3.390625 -4.96875 C 3.398438 -4.925781 3.34375 -4.875 3.21875 -4.8125 C 3.101562 -4.757812 2.984375 -4.71875 2.859375 -4.6875 L 2.78125 -4.671875 C 2.601562 -4.984375 2.351562 -5.207031 2.03125 -5.34375 C 1.71875 -5.476562 1.359375 -5.5 0.953125 -5.40625 C 0.617188 -5.320312 0.378906 -5.191406 0.234375 -5.015625 C 0.0976562 -4.835938 0.0625 -4.632812 0.125 -4.40625 C 0.15625 -4.269531 0.21875 -4.160156 0.3125 -4.078125 C 0.414062 -3.992188 0.546875 -3.929688 0.703125 -3.890625 C 0.859375 -3.847656 1.023438 -3.816406 1.203125 -3.796875 C 1.390625 -3.785156 1.582031 -3.773438 1.78125 -3.765625 C 1.988281 -3.753906 2.191406 -3.738281 2.390625 -3.71875 C 2.597656 -3.707031 2.796875 -3.675781 2.984375 -3.625 C 3.179688 -3.582031 3.363281 -3.519531 3.53125 -3.4375 C 3.695312 -3.351562 3.835938 -3.226562 3.953125 -3.0625 C 4.078125 -2.894531 4.164062 -2.703125 4.21875 -2.484375 C 4.28125 -2.210938 4.285156 -1.96875 4.234375 -1.75 C 4.179688 -1.53125 4.078125 -1.34375 3.921875 -1.1875 C 3.773438 -1.03125 3.597656 -0.894531 3.390625 -0.78125 C 3.179688 -0.675781 2.953125 -0.59375 2.703125 -0.53125 C 2.429688 -0.46875 2.15625 -0.453125 1.875 -0.484375 C 1.59375 -0.515625 1.332031 -0.582031 1.09375 -0.6875 L 1.109375 -0.3125 C 1.109375 -0.289062 1.101562 -0.269531 1.09375 -0.25 C 1.082031 -0.238281 1.0625 -0.222656 1.03125 -0.203125 C 1.007812 -0.191406 0.96875 -0.175781 0.90625 -0.15625 Z M 0.90625 -0.15625 "/></g></g></g><g fill="#3c3c3b" fill-opacity="1"><g transform="translate(152.705233, 99.999817)"><g><path d="M 0.90625 -0.203125 L 0.5625 -0.109375 C 0.207031 -0.753906 -0.015625 -1.242188 -0.109375 -1.578125 C -0.128906 -1.640625 -0.09375 -1.703125 0 -1.765625 C 0.09375 -1.835938 0.203125 -1.890625 0.328125 -1.921875 C 0.378906 -1.929688 0.425781 -1.9375 0.46875 -1.9375 C 0.582031 -1.757812 0.726562 -1.613281 0.90625 -1.5 C 1.082031 -1.394531 1.265625 -1.320312 1.453125 -1.28125 C 1.648438 -1.238281 1.832031 -1.21875 2 -1.21875 C 2.175781 -1.226562 2.335938 -1.253906 2.484375 -1.296875 C 2.753906 -1.378906 2.960938 -1.503906 3.109375 -1.671875 C 3.253906 -1.835938 3.289062 -2.039062 3.21875 -2.28125 C 3.175781 -2.4375 3.097656 -2.5625 2.984375 -2.65625 C 2.867188 -2.757812 2.734375 -2.832031 2.578125 -2.875 C 2.429688 -2.914062 2.265625 -2.941406 2.078125 -2.953125 C 1.898438 -2.960938 1.707031 -2.960938 1.5 -2.953125 C 1.289062 -2.953125 1.085938 -2.953125 0.890625 -2.953125 C 0.691406 -2.953125 0.492188 -2.972656 0.296875 -3.015625 C 0.0976562 -3.054688 -0.078125 -3.113281 -0.234375 -3.1875 C -0.398438 -3.257812 -0.539062 -3.375 -0.65625 -3.53125 C -0.78125 -3.6875 -0.878906 -3.878906 -0.953125 -4.109375 C -1.035156 -4.398438 -1.015625 -4.675781 -0.890625 -4.9375 C -0.773438 -5.195312 -0.59375 -5.414062 -0.34375 -5.59375 C -0.101562 -5.769531 0.179688 -5.910156 0.515625 -6.015625 C 1.015625 -6.148438 1.476562 -6.144531 1.90625 -6 C 1.914062 -6.050781 1.921875 -6.101562 1.921875 -6.15625 C 1.921875 -6.207031 1.914062 -6.238281 1.90625 -6.25 C 1.90625 -6.257812 1.910156 -6.273438 1.921875 -6.296875 C 1.941406 -6.328125 1.96875 -6.34375 2 -6.34375 C 2.03125 -6.351562 2.085938 -6.367188 2.171875 -6.390625 C 2.234375 -6.410156 2.351562 -6.441406 2.53125 -6.484375 C 2.863281 -5.859375 3.070312 -5.40625 3.15625 -5.125 C 3.164062 -5.082031 3.109375 -5.03125 2.984375 -4.96875 C 2.867188 -4.90625 2.753906 -4.859375 2.640625 -4.828125 L 2.546875 -4.796875 C 2.359375 -5.097656 2.101562 -5.3125 1.78125 -5.4375 C 1.457031 -5.5625 1.097656 -5.566406 0.703125 -5.453125 C 0.367188 -5.359375 0.132812 -5.21875 0 -5.03125 C -0.125 -4.851562 -0.15625 -4.648438 -0.09375 -4.421875 C -0.0507812 -4.285156 0.0195312 -4.175781 0.125 -4.09375 C 0.238281 -4.007812 0.367188 -3.945312 0.515625 -3.90625 C 0.671875 -3.875 0.835938 -3.859375 1.015625 -3.859375 C 1.203125 -3.859375 1.394531 -3.851562 1.59375 -3.84375 C 1.800781 -3.84375 2.007812 -3.835938 2.21875 -3.828125 C 2.425781 -3.828125 2.625 -3.804688 2.8125 -3.765625 C 3.007812 -3.722656 3.191406 -3.664062 3.359375 -3.59375 C 3.523438 -3.519531 3.671875 -3.40625 3.796875 -3.25 C 3.929688 -3.09375 4.035156 -2.898438 4.109375 -2.671875 C 4.179688 -2.410156 4.191406 -2.164062 4.140625 -1.9375 C 4.085938 -1.71875 3.992188 -1.523438 3.859375 -1.359375 C 3.722656 -1.203125 3.550781 -1.0625 3.34375 -0.9375 C 3.144531 -0.820312 2.925781 -0.734375 2.6875 -0.671875 C 2.414062 -0.585938 2.140625 -0.550781 1.859375 -0.5625 C 1.578125 -0.582031 1.3125 -0.640625 1.0625 -0.734375 L 1.09375 -0.359375 C 1.09375 -0.335938 1.085938 -0.316406 1.078125 -0.296875 C 1.066406 -0.285156 1.050781 -0.269531 1.03125 -0.25 C 1.007812 -0.238281 0.96875 -0.222656 0.90625 -0.203125 Z M 0.90625 -0.203125 "/></g></g></g><g fill="#3c3c3b" fill-opacity="1"><g transform="translate(160.826384, 97.603518)"><g><path d="M 0.875 -6.109375 C 1.15625 -6.210938 1.34375 -6.289062 1.4375 -6.34375 L 1.4375 -6.328125 C 1.488281 -6.242188 1.59375 -6.09375 1.75 -5.875 C 1.90625 -5.65625 2.003906 -5.523438 2.046875 -5.484375 L 4.515625 -2.515625 C 4.566406 -2.453125 4.617188 -2.410156 4.671875 -2.390625 C 4.722656 -2.367188 4.800781 -2.375 4.90625 -2.40625 C 4.976562 -2.4375 5.050781 -2.445312 5.125 -2.4375 C 5.195312 -2.425781 5.253906 -2.398438 5.296875 -2.359375 C 5.335938 -2.203125 5.375 -2.082031 5.40625 -2 C 5.4375 -1.90625 5.441406 -1.832031 5.421875 -1.78125 C 5.054688 -1.695312 4.75 -1.613281 4.5 -1.53125 C 4.019531 -1.363281 3.695312 -1.238281 3.53125 -1.15625 C 3.445312 -1.269531 3.363281 -1.453125 3.28125 -1.703125 C 3.269531 -1.753906 3.300781 -1.804688 3.375 -1.859375 C 3.457031 -1.910156 3.535156 -1.953125 3.609375 -1.984375 C 3.691406 -2.023438 3.722656 -2.066406 3.703125 -2.109375 C 3.691406 -2.140625 3.664062 -2.1875 3.625 -2.25 L 2.96875 -3.0625 L 1.109375 -2.4375 L 1.109375 -1.390625 C 1.117188 -1.304688 1.125 -1.253906 1.125 -1.234375 C 1.144531 -1.191406 1.195312 -1.179688 1.28125 -1.203125 C 1.375 -1.222656 1.460938 -1.234375 1.546875 -1.234375 C 1.640625 -1.242188 1.691406 -1.222656 1.703125 -1.171875 C 1.773438 -0.859375 1.816406 -0.65625 1.828125 -0.5625 C 1.441406 -0.46875 1.125 -0.378906 0.875 -0.296875 C 0.726562 -0.242188 0.445312 -0.128906 0.03125 0.046875 C -0.0195312 0.0234375 -0.0625 -0.03125 -0.09375 -0.125 C -0.125 -0.207031 -0.15625 -0.332031 -0.1875 -0.5 C -0.195312 -0.550781 -0.171875 -0.601562 -0.109375 -0.65625 C -0.046875 -0.71875 0.0234375 -0.757812 0.109375 -0.78125 C 0.203125 -0.8125 0.257812 -0.851562 0.28125 -0.90625 C 0.3125 -0.957031 0.332031 -1.023438 0.34375 -1.109375 L 0.453125 -5.015625 C 0.460938 -5.078125 0.460938 -5.125 0.453125 -5.15625 C 0.429688 -5.207031 0.390625 -5.226562 0.328125 -5.21875 C 0.273438 -5.21875 0.222656 -5.207031 0.171875 -5.1875 C 0.117188 -5.164062 0.0625 -5.148438 0 -5.140625 C -0.0507812 -5.140625 -0.0859375 -5.164062 -0.109375 -5.21875 C -0.109375 -5.226562 -0.109375 -5.25 -0.109375 -5.28125 C -0.171875 -5.550781 -0.1875 -5.722656 -0.15625 -5.796875 C 0.15625 -5.878906 0.5 -5.984375 0.875 -6.109375 Z M 1.171875 -5.34375 C 1.128906 -4.65625 1.109375 -3.882812 1.109375 -3.03125 L 2.59375 -3.53125 C 2.363281 -3.84375 2.128906 -4.144531 1.890625 -4.4375 C 1.660156 -4.738281 1.476562 -4.960938 1.34375 -5.109375 Z M 1.171875 -5.34375 "/></g></g></g></g></g></g></svg>