<svg width="70" height="70" viewBox="0 0 70 70" fill="none" xmlns="http://www.w3.org/2000/svg">
<g clip-path="url(#clip0_134_78530)">
<path d="M77 -7H-7V77H77V-7Z" fill="white"/>
<path d="M77 -7H-7V77H77V-7Z" fill="#C3B5AA"/>
<mask id="mask0_134_78530" style="mask-type:luminance" maskUnits="userSpaceOnUse" x="7" y="9" width="9" height="9">
<path d="M7.77777 9.33334H15.5555V17.1111H7.77777V9.33334Z" fill="white"/>
</mask>
<g mask="url(#mask0_134_78530)">
<mask id="mask1_134_78530" style="mask-type:luminance" maskUnits="userSpaceOnUse" x="5" y="-4" width="29" height="28">
<path d="M5.22569 4.56944L25.934 -3.33594L33.0069 15.197L12.2986 23.0964L5.22569 4.56944Z" fill="white"/>
</mask>
<g mask="url(#mask1_134_78530)">
<mask id="mask2_134_78530" style="mask-type:luminance" maskUnits="userSpaceOnUse" x="5" y="-4" width="29" height="28">
<path d="M5.22569 4.56944L25.934 -3.33594L33.0069 15.197L12.2986 23.0964L5.22569 4.56944Z" fill="white"/>
</mask>
<g mask="url(#mask2_134_78530)">
<path fill-rule="evenodd" clip-rule="evenodd" d="M13.2526 15.4644C14.6441 14.4132 14.4679 12.4991 13.3437 11.5026C10.9071 9.33332 7.31597 10.822 8.92013 14.1641C9.6493 15.6771 11.1562 17.0564 13.2526 15.4644Z" fill="#D9D2C8"/>
</g>
</g>
</g>
<mask id="mask3_134_78530" style="mask-type:luminance" maskUnits="userSpaceOnUse" x="23" y="3" width="7" height="8">
<path d="M23.3333 3.11111H29.5556V10.8889H23.3333V3.11111Z" fill="white"/>
</mask>
<g mask="url(#mask3_134_78530)">
<mask id="mask4_134_78530" style="mask-type:luminance" maskUnits="userSpaceOnUse" x="5" y="-4" width="29" height="28">
<path d="M5.22569 4.56944L25.934 -3.33594L33.0069 15.197L12.2986 23.0964L5.22569 4.56944Z" fill="white"/>
</mask>
<g mask="url(#mask4_134_78530)">
<mask id="mask5_134_78530" style="mask-type:luminance" maskUnits="userSpaceOnUse" x="5" y="-4" width="29" height="28">
<path d="M5.22569 4.56944L25.934 -3.33594L33.0069 15.197L12.2986 23.0964L5.22569 4.56944Z" fill="white"/>
</mask>
<g mask="url(#mask5_134_78530)">
<path fill-rule="evenodd" clip-rule="evenodd" d="M24.3845 9.09028C25.6667 10.2813 27.52 9.78907 28.3099 8.51302C30.0295 5.74219 28.7595 1.79862 25.7396 3.94966C24.3724 4.92188 22.4644 7.29775 24.3845 9.09028Z" fill="#D9D2C8"/>
</g>
</g>
</g>
<mask id="mask6_134_78530" style="mask-type:luminance" maskUnits="userSpaceOnUse" x="9" y="1" width="9" height="9">
<path d="M9.33333 1.55554H17.1111V9.33332H9.33333V1.55554Z" fill="white"/>
</mask>
<g mask="url(#mask6_134_78530)">
<mask id="mask7_134_78530" style="mask-type:luminance" maskUnits="userSpaceOnUse" x="5" y="-4" width="29" height="28">
<path d="M5.22569 4.56944L25.934 -3.33594L33.0069 15.197L12.2986 23.0964L5.22569 4.56944Z" fill="white"/>
</mask>
<g mask="url(#mask7_134_78530)">
<mask id="mask8_134_78530" style="mask-type:luminance" maskUnits="userSpaceOnUse" x="5" y="-4" width="29" height="28">
<path d="M5.22569 4.56944L25.934 -3.33594L33.0069 15.197L12.2986 23.0964L5.22569 4.56944Z" fill="white"/>
</mask>
<g mask="url(#mask8_134_78530)">
<path fill-rule="evenodd" clip-rule="evenodd" d="M15.8958 8.07551C16.546 6.93315 16.1328 4.63628 15.4097 3.5486C14.6866 2.47308 13.52 1.61024 11.9644 2.32117C9.10851 3.62152 11.3264 7.29774 12.809 8.4644C13.7569 9.21787 15.1667 9.35763 15.8958 8.07551Z" fill="#D9D2C8"/>
</g>
</g>
</g>
<mask id="mask9_134_78530" style="mask-type:luminance" maskUnits="userSpaceOnUse" x="14" y="7" width="16" height="15">
<path d="M14 7.77777H29.5556V21.7778H14V7.77777Z" fill="white"/>
</mask>
<g mask="url(#mask9_134_78530)">
<mask id="mask10_134_78530" style="mask-type:luminance" maskUnits="userSpaceOnUse" x="5" y="-4" width="29" height="28">
<path d="M5.22569 4.56944L25.934 -3.33594L33.0069 15.197L12.2986 23.0964L5.22569 4.56944Z" fill="white"/>
</mask>
<g mask="url(#mask10_134_78530)">
<mask id="mask11_134_78530" style="mask-type:luminance" maskUnits="userSpaceOnUse" x="5" y="-4" width="29" height="28">
<path d="M5.22569 4.56944L25.934 -3.33594L33.0069 15.197L12.2986 23.0964L5.22569 4.56944Z" fill="white"/>
</mask>
<g mask="url(#mask11_134_78530)">
<path fill-rule="evenodd" clip-rule="evenodd" d="M14.7717 19.2986C15.1059 20.1493 15.908 20.9392 17.7917 20.52C20.8177 19.8455 20.8967 16.6797 23.8498 17.6397C23.8498 17.6397 25.1076 18.0408 26.5234 17.5729C27.4957 17.1719 28.2674 16.6007 28.2613 15.0937C28.2491 12.2561 27.046 12.645 24.6641 11.5391C22.2821 10.421 20.5564 8.91406 18.7882 9.24218C17.02 9.56423 16.0113 12.1892 15.8229 13.8177C15.5616 16.0295 14.0122 17.3967 14.7717 19.2986Z" fill="#D9D2C8"/>
</g>
</g>
</g>
<mask id="mask12_134_78530" style="mask-type:luminance" maskUnits="userSpaceOnUse" x="15" y="0" width="9" height="8">
<path d="M15.5556 0H23.3333V7.77778H15.5556V0Z" fill="white"/>
</mask>
<g mask="url(#mask12_134_78530)">
<mask id="mask13_134_78530" style="mask-type:luminance" maskUnits="userSpaceOnUse" x="5" y="-4" width="29" height="28">
<path d="M5.22569 4.56944L25.934 -3.33594L33.0069 15.197L12.2986 23.0964L5.22569 4.56944Z" fill="white"/>
</mask>
<g mask="url(#mask13_134_78530)">
<mask id="mask14_134_78530" style="mask-type:luminance" maskUnits="userSpaceOnUse" x="5" y="-4" width="29" height="28">
<path d="M5.22569 4.56944L25.934 -3.33594L33.0069 15.197L12.2986 23.0964L5.22569 4.56944Z" fill="white"/>
</mask>
<g mask="url(#mask14_134_78530)">
<path fill-rule="evenodd" clip-rule="evenodd" d="M19.4323 6.40452C18.1866 5.98525 16.9653 3.99827 16.783 2.704C16.6007 1.41581 16.8924 0.00608553 18.5269 -0.504331C21.5226 -1.43402 22.3186 2.78299 21.9965 4.64237C21.7838 5.83942 20.8299 6.87848 19.4323 6.40452Z" fill="#D9D2C8"/>
</g>
</g>
</g>
<mask id="mask15_134_78530" style="mask-type:luminance" maskUnits="userSpaceOnUse" x="42" y="7" width="8" height="9">
<path d="M42 7.77777H49.7778V15.5555H42V7.77777Z" fill="white"/>
</mask>
<g mask="url(#mask15_134_78530)">
<mask id="mask16_134_78530" style="mask-type:luminance" maskUnits="userSpaceOnUse" x="39" y="-5" width="29" height="27">
<path d="M39.5755 3.36631L60.2899 -4.53299L67.3568 13.9939L46.6484 21.8993L39.5755 3.36631Z" fill="white"/>
</mask>
<g mask="url(#mask16_134_78530)">
<mask id="mask17_134_78530" style="mask-type:luminance" maskUnits="userSpaceOnUse" x="39" y="-5" width="29" height="27">
<path d="M39.5755 3.36631L60.2899 -4.53299L67.3568 13.9939L46.6484 21.8993L39.5755 3.36631Z" fill="white"/>
</mask>
<g mask="url(#mask17_134_78530)">
<path fill-rule="evenodd" clip-rule="evenodd" d="M47.6024 14.2674C48.9939 13.2101 48.8177 11.296 47.6936 10.2995C45.2569 8.13629 41.6719 9.62501 43.27 12.9609C43.9991 14.48 45.5061 15.8533 47.6024 14.2674Z" fill="#D9D2C8"/>
</g>
</g>
</g>
<mask id="mask18_134_78530" style="mask-type:luminance" maskUnits="userSpaceOnUse" x="57" y="1" width="7" height="9">
<path d="M57.5556 1.55554H63.7778V9.33332H57.5556V1.55554Z" fill="white"/>
</mask>
<g mask="url(#mask18_134_78530)">
<mask id="mask19_134_78530" style="mask-type:luminance" maskUnits="userSpaceOnUse" x="39" y="-5" width="29" height="27">
<path d="M39.5755 3.36631L60.2899 -4.53299L67.3568 13.9939L46.6484 21.8993L39.5755 3.36631Z" fill="white"/>
</mask>
<g mask="url(#mask19_134_78530)">
<mask id="mask20_134_78530" style="mask-type:luminance" maskUnits="userSpaceOnUse" x="39" y="-5" width="29" height="27">
<path d="M39.5755 3.36631L60.2899 -4.53299L67.3568 13.9939L46.6484 21.8993L39.5755 3.36631Z" fill="white"/>
</mask>
<g mask="url(#mask20_134_78530)">
<path fill-rule="evenodd" clip-rule="evenodd" d="M58.7344 7.89323C60.0165 9.0842 61.8698 8.59201 62.6597 7.31597C64.3794 4.53906 63.1155 0.601564 60.0894 2.74653C58.7222 3.72483 56.8142 6.1007 58.7344 7.89323Z" fill="#D9D2C8"/>
</g>
</g>
</g>
<mask id="mask21_134_78530" style="mask-type:luminance" maskUnits="userSpaceOnUse" x="43" y="0" width="9" height="10">
<path d="M43.5556 0H51.3333V9.33333H43.5556V0Z" fill="white"/>
</mask>
<g mask="url(#mask21_134_78530)">
<mask id="mask22_134_78530" style="mask-type:luminance" maskUnits="userSpaceOnUse" x="39" y="-5" width="29" height="27">
<path d="M39.5755 3.36631L60.2899 -4.53299L67.3568 13.9939L46.6484 21.8993L39.5755 3.36631Z" fill="white"/>
</mask>
<g mask="url(#mask22_134_78530)">
<mask id="mask23_134_78530" style="mask-type:luminance" maskUnits="userSpaceOnUse" x="39" y="-5" width="29" height="27">
<path d="M39.5755 3.36631L60.2899 -4.53299L67.3568 13.9939L46.6484 21.8993L39.5755 3.36631Z" fill="white"/>
</mask>
<g mask="url(#mask23_134_78530)">
<path fill-rule="evenodd" clip-rule="evenodd" d="M50.2457 6.87846C50.8958 5.73609 50.4827 3.43314 49.7596 2.35155C49.0365 1.26995 47.8698 0.413177 46.3143 1.12411C43.4583 2.42446 45.6762 6.10068 47.1589 7.26734C48.1129 8.01474 49.5165 8.1545 50.2457 6.87846Z" fill="#D9D2C8"/>
</g>
</g>
</g>
<mask id="mask24_134_78530" style="mask-type:luminance" maskUnits="userSpaceOnUse" x="48" y="7" width="16" height="14">
<path d="M48.2222 7.77777H63.7778V20.2222H48.2222V7.77777Z" fill="white"/>
</mask>
<g mask="url(#mask24_134_78530)">
<mask id="mask25_134_78530" style="mask-type:luminance" maskUnits="userSpaceOnUse" x="39" y="-5" width="29" height="27">
<path d="M39.5755 3.36631L60.2899 -4.53299L67.3568 13.9939L46.6484 21.8993L39.5755 3.36631Z" fill="white"/>
</mask>
<g mask="url(#mask25_134_78530)">
<mask id="mask26_134_78530" style="mask-type:luminance" maskUnits="userSpaceOnUse" x="39" y="-5" width="29" height="27">
<path d="M39.5755 3.36631L60.2899 -4.53299L67.3568 13.9939L46.6484 21.8993L39.5755 3.36631Z" fill="white"/>
</mask>
<g mask="url(#mask26_134_78530)">
<path fill-rule="evenodd" clip-rule="evenodd" d="M49.1215 18.1016C49.4557 18.9462 50.2639 19.7361 52.1415 19.3229C55.1675 18.6424 55.2465 15.4766 58.1997 16.4366C58.1997 16.4366 59.4575 16.8377 60.8733 16.3698C61.8455 15.9687 62.6172 15.4036 62.6111 13.8906C62.599 11.0529 61.3958 11.4479 59.02 10.3359C56.632 9.22395 54.9063 7.71093 53.138 8.03906C51.3759 8.36111 50.3611 10.9922 50.1728 12.6207C49.9115 14.8325 48.362 16.1996 49.1215 18.1016Z" fill="#D9D2C8"/>
</g>
</g>
</g>
<mask id="mask27_134_78530" style="mask-type:luminance" maskUnits="userSpaceOnUse" x="49" y="0" width="9" height="7">
<path d="M49.7778 0H57.5555V6.22222H49.7778V0Z" fill="white"/>
</mask>
<g mask="url(#mask27_134_78530)">
<mask id="mask28_134_78530" style="mask-type:luminance" maskUnits="userSpaceOnUse" x="39" y="-5" width="29" height="27">
<path d="M39.5755 3.36631L60.2899 -4.53299L67.3568 13.9939L46.6484 21.8993L39.5755 3.36631Z" fill="white"/>
</mask>
<g mask="url(#mask28_134_78530)">
<mask id="mask29_134_78530" style="mask-type:luminance" maskUnits="userSpaceOnUse" x="39" y="-5" width="29" height="27">
<path d="M39.5755 3.36631L60.2899 -4.53299L67.3568 13.9939L46.6484 21.8993L39.5755 3.36631Z" fill="white"/>
</mask>
<g mask="url(#mask29_134_78530)">
<path fill-rule="evenodd" clip-rule="evenodd" d="M53.7821 5.20746C52.5365 4.78211 51.3151 2.79513 51.1328 1.50694C50.9505 0.218743 51.2483 -1.19706 52.8767 -1.7014C55.8724 -2.63716 56.6684 1.58593 56.3464 3.43923C56.1337 4.64235 55.1797 5.68142 53.7821 5.20746Z" fill="#D9D2C8"/>
</g>
</g>
</g>
<mask id="mask30_134_78530" style="mask-type:luminance" maskUnits="userSpaceOnUse" x="23" y="34" width="9" height="8">
<path d="M23.3333 34.2222H31.1111V42H23.3333V34.2222Z" fill="white"/>
</mask>
<g mask="url(#mask30_134_78530)">
<mask id="mask31_134_78530" style="mask-type:luminance" maskUnits="userSpaceOnUse" x="21" y="21" width="29" height="28">
<path d="M21.237 29.7135L41.9453 21.8082L49.0182 40.3412L28.3038 48.2405L21.237 29.7135Z" fill="white"/>
</mask>
<g mask="url(#mask31_134_78530)">
<mask id="mask32_134_78530" style="mask-type:luminance" maskUnits="userSpaceOnUse" x="21" y="21" width="29" height="28">
<path d="M21.237 29.7135L41.9453 21.8082L49.0182 40.3412L28.3038 48.2405L21.237 29.7135Z" fill="white"/>
</mask>
<g mask="url(#mask32_134_78530)">
<path fill-rule="evenodd" clip-rule="evenodd" d="M29.2578 40.6146C30.6493 39.5573 30.4792 37.6432 29.355 36.6467C26.9123 34.4774 23.3272 35.9661 24.9253 39.3082C25.6606 40.8273 27.1675 42.2005 29.2578 40.6146Z" fill="#D9D2C8"/>
</g>
</g>
</g>
<mask id="mask33_134_78530" style="mask-type:luminance" maskUnits="userSpaceOnUse" x="38" y="28" width="8" height="8">
<path d="M38.8889 28H45.1111V35.7778H38.8889V28Z" fill="white"/>
</mask>
<g mask="url(#mask33_134_78530)">
<mask id="mask34_134_78530" style="mask-type:luminance" maskUnits="userSpaceOnUse" x="21" y="21" width="29" height="28">
<path d="M21.237 29.7135L41.9453 21.8082L49.0182 40.3412L28.3038 48.2405L21.237 29.7135Z" fill="white"/>
</mask>
<g mask="url(#mask34_134_78530)">
<mask id="mask35_134_78530" style="mask-type:luminance" maskUnits="userSpaceOnUse" x="21" y="21" width="29" height="28">
<path d="M21.237 29.7135L41.9453 21.8082L49.0182 40.3412L28.3038 48.2405L21.237 29.7135Z" fill="white"/>
</mask>
<g mask="url(#mask35_134_78530)">
<path fill-rule="evenodd" clip-rule="evenodd" d="M40.3958 34.2344C41.6719 35.4314 43.5313 34.9392 44.3151 33.6571C46.0347 30.8863 44.7708 26.9488 41.7509 29.0937C40.3776 30.066 38.4696 32.4418 40.3958 34.2344Z" fill="#D9D2C8"/>
</g>
</g>
</g>
<mask id="mask36_134_78530" style="mask-type:luminance" maskUnits="userSpaceOnUse" x="26" y="26" width="7" height="9">
<path d="M26.4444 26.4445H32.6667V34.2222H26.4444V26.4445Z" fill="white"/>
</mask>
<g mask="url(#mask36_134_78530)">
<mask id="mask37_134_78530" style="mask-type:luminance" maskUnits="userSpaceOnUse" x="21" y="21" width="29" height="28">
<path d="M21.237 29.7135L41.9453 21.8082L49.0182 40.3412L28.3038 48.2405L21.237 29.7135Z" fill="white"/>
</mask>
<g mask="url(#mask37_134_78530)">
<mask id="mask38_134_78530" style="mask-type:luminance" maskUnits="userSpaceOnUse" x="21" y="21" width="29" height="28">
<path d="M21.237 29.7135L41.9453 21.8082L49.0182 40.3412L28.3038 48.2405L21.237 29.7135Z" fill="white"/>
</mask>
<g mask="url(#mask38_134_78530)">
<path fill-rule="evenodd" clip-rule="evenodd" d="M31.9071 33.2196C32.5512 32.0773 32.138 29.7804 31.421 28.6927C30.6918 27.6172 29.5313 26.7604 27.9757 27.4653C25.1198 28.7656 27.3377 32.4419 28.8142 33.6146C29.7682 34.362 31.178 34.5018 31.9071 33.2196Z" fill="#D9D2C8"/>
</g>
</g>
</g>
<mask id="mask39_134_78530" style="mask-type:luminance" maskUnits="userSpaceOnUse" x="29" y="34" width="17" height="13">
<path d="M29.5556 34.2222H45.1111V46.6667H29.5556V34.2222Z" fill="white"/>
</mask>
<g mask="url(#mask39_134_78530)">
<mask id="mask40_134_78530" style="mask-type:luminance" maskUnits="userSpaceOnUse" x="21" y="21" width="29" height="28">
<path d="M21.237 29.7135L41.9453 21.8082L49.0182 40.3412L28.3038 48.2405L21.237 29.7135Z" fill="white"/>
</mask>
<g mask="url(#mask40_134_78530)">
<mask id="mask41_134_78530" style="mask-type:luminance" maskUnits="userSpaceOnUse" x="21" y="21" width="29" height="28">
<path d="M21.237 29.7135L41.9453 21.8082L49.0182 40.3412L28.3038 48.2405L21.237 29.7135Z" fill="white"/>
</mask>
<g mask="url(#mask41_134_78530)">
<path fill-rule="evenodd" clip-rule="evenodd" d="M30.7769 44.4427C31.1111 45.2934 31.9193 46.0833 33.7969 45.6641C36.829 44.9896 36.908 41.8238 39.855 42.7839C39.855 42.7839 41.1189 43.1849 42.5287 42.717C43.5009 42.316 44.2726 41.7509 44.2665 40.2379C44.2604 37.4002 43.0512 37.7891 40.6754 36.6832C38.2934 35.5712 36.5677 34.0582 34.7995 34.3863C33.0313 34.7083 32.0226 37.3333 31.8342 38.9618C31.5668 41.1736 30.0234 42.5408 30.7769 44.4427Z" fill="#D9D2C8"/>
</g>
</g>
</g>
<mask id="mask42_134_78530" style="mask-type:luminance" maskUnits="userSpaceOnUse" x="32" y="23" width="7" height="10">
<path d="M32.6667 23.3333H38.8889V32.6667H32.6667V23.3333Z" fill="white"/>
</mask>
<g mask="url(#mask42_134_78530)">
<mask id="mask43_134_78530" style="mask-type:luminance" maskUnits="userSpaceOnUse" x="21" y="21" width="29" height="28">
<path d="M21.237 29.7135L41.9453 21.8082L49.0182 40.3412L28.3038 48.2405L21.237 29.7135Z" fill="white"/>
</mask>
<g mask="url(#mask43_134_78530)">
<mask id="mask44_134_78530" style="mask-type:luminance" maskUnits="userSpaceOnUse" x="21" y="21" width="29" height="28">
<path d="M21.237 29.7135L41.9453 21.8082L49.0182 40.3412L28.3038 48.2405L21.237 29.7135Z" fill="white"/>
</mask>
<g mask="url(#mask44_134_78530)">
<path fill-rule="evenodd" clip-rule="evenodd" d="M35.4375 31.5486C34.1979 31.1294 32.9766 29.1424 32.7882 27.8542C32.6059 26.5599 32.9037 25.1502 34.5382 24.6398C37.5339 23.7101 38.3299 27.9271 38.0017 29.7865C37.7952 30.9835 36.8412 32.0287 35.4375 31.5486Z" fill="#D9D2C8"/>
</g>
</g>
</g>
<mask id="mask45_134_78530" style="mask-type:luminance" maskUnits="userSpaceOnUse" x="56" y="34" width="8" height="8">
<path d="M56 34.2222H63.7778V42H56V34.2222Z" fill="white"/>
</mask>
<g mask="url(#mask45_134_78530)">
<mask id="mask46_134_78530" style="mask-type:luminance" maskUnits="userSpaceOnUse" x="53" y="21" width="29" height="28">
<path d="M53.4358 29.7135L74.1441 21.8082L81.217 40.3412L60.5026 48.2405L53.4358 29.7135Z" fill="white"/>
</mask>
<g mask="url(#mask46_134_78530)">
<mask id="mask47_134_78530" style="mask-type:luminance" maskUnits="userSpaceOnUse" x="53" y="21" width="29" height="28">
<path d="M53.4358 29.7135L74.1441 21.8082L81.217 40.3412L60.5026 48.2405L53.4358 29.7135Z" fill="white"/>
</mask>
<g mask="url(#mask47_134_78530)">
<path fill-rule="evenodd" clip-rule="evenodd" d="M61.4566 40.6146C62.8542 39.5573 62.6779 37.6432 61.5538 36.6467C59.1111 34.4774 55.526 35.9661 57.1241 39.3082C57.8594 40.8273 59.3663 42.2005 61.4566 40.6146Z" fill="#D9D2C8"/>
</g>
</g>
</g>
<mask id="mask48_134_78530" style="mask-type:luminance" maskUnits="userSpaceOnUse" x="57" y="26" width="9" height="9">
<path d="M57.5556 26.4445H65.3333V34.2222H57.5556V26.4445Z" fill="white"/>
</mask>
<g mask="url(#mask48_134_78530)">
<mask id="mask49_134_78530" style="mask-type:luminance" maskUnits="userSpaceOnUse" x="53" y="21" width="29" height="28">
<path d="M53.4358 29.7135L74.1441 21.8082L81.217 40.3412L60.5026 48.2405L53.4358 29.7135Z" fill="white"/>
</mask>
<g mask="url(#mask49_134_78530)">
<mask id="mask50_134_78530" style="mask-type:luminance" maskUnits="userSpaceOnUse" x="53" y="21" width="29" height="28">
<path d="M53.4358 29.7135L74.1441 21.8082L81.217 40.3412L60.5026 48.2405L53.4358 29.7135Z" fill="white"/>
</mask>
<g mask="url(#mask50_134_78530)">
<path fill-rule="evenodd" clip-rule="evenodd" d="M64.1059 33.2196C64.7561 32.0773 64.3368 29.7804 63.6198 28.6927C62.8906 27.6172 61.73 26.7604 60.1745 27.4653C57.3186 28.7656 59.5365 32.4419 61.013 33.6146C61.967 34.362 63.3767 34.5018 64.1059 33.2196Z" fill="#D9D2C8"/>
</g>
</g>
</g>
<mask id="mask51_134_78530" style="mask-type:luminance" maskUnits="userSpaceOnUse" x="62" y="34" width="8" height="13">
<path d="M62.2222 34.2222H70V46.6667H62.2222V34.2222Z" fill="white"/>
</mask>
<g mask="url(#mask51_134_78530)">
<mask id="mask52_134_78530" style="mask-type:luminance" maskUnits="userSpaceOnUse" x="53" y="21" width="29" height="28">
<path d="M53.4358 29.7135L74.1441 21.8082L81.217 40.3412L60.5026 48.2405L53.4358 29.7135Z" fill="white"/>
</mask>
<g mask="url(#mask52_134_78530)">
<mask id="mask53_134_78530" style="mask-type:luminance" maskUnits="userSpaceOnUse" x="53" y="21" width="29" height="28">
<path d="M53.4358 29.7135L74.1441 21.8082L81.217 40.3412L60.5026 48.2405L53.4358 29.7135Z" fill="white"/>
</mask>
<g mask="url(#mask53_134_78530)">
<path fill-rule="evenodd" clip-rule="evenodd" d="M62.9818 44.4427C63.316 45.2934 64.1181 46.0833 65.9957 45.6641C69.0278 44.9896 69.1068 41.8238 72.0538 42.7839C72.0538 42.7839 73.3177 43.1849 74.7335 42.717C75.6996 42.316 76.4714 41.7509 76.4714 40.2379C76.4592 37.4002 75.25 37.7891 72.8741 36.6832C70.4922 35.5712 68.7665 34.0582 66.9983 34.3863C65.23 34.7083 64.2214 37.3333 64.033 38.9618C63.7717 41.1736 62.2222 42.5408 62.9818 44.4427Z" fill="#D9D2C8"/>
</g>
</g>
</g>
<mask id="mask54_134_78530" style="mask-type:luminance" maskUnits="userSpaceOnUse" x="63" y="23" width="7" height="10">
<path d="M63.7778 23.3333H70V32.6667H63.7778V23.3333Z" fill="white"/>
</mask>
<g mask="url(#mask54_134_78530)">
<mask id="mask55_134_78530" style="mask-type:luminance" maskUnits="userSpaceOnUse" x="53" y="21" width="29" height="28">
<path d="M53.4358 29.7135L74.1441 21.8082L81.217 40.3412L60.5026 48.2405L53.4358 29.7135Z" fill="white"/>
</mask>
<g mask="url(#mask55_134_78530)">
<mask id="mask56_134_78530" style="mask-type:luminance" maskUnits="userSpaceOnUse" x="53" y="21" width="29" height="28">
<path d="M53.4358 29.7135L74.1441 21.8082L81.217 40.3412L60.5026 48.2405L53.4358 29.7135Z" fill="white"/>
</mask>
<g mask="url(#mask56_134_78530)">
<path fill-rule="evenodd" clip-rule="evenodd" d="M67.6424 31.5486C66.3967 31.1294 65.1754 29.1424 64.987 27.8542C64.8047 26.5599 65.1024 25.1502 66.737 24.6398C69.7326 23.7101 70.5287 27.9271 70.2005 29.7865C69.9939 30.9835 69.0399 32.0287 67.6424 31.5486Z" fill="#D9D2C8"/>
</g>
</g>
</g>
<mask id="mask57_134_78530" style="mask-type:luminance" maskUnits="userSpaceOnUse" x="6" y="29" width="8" height="9">
<path d="M6.22223 29.5555H14V37.3333H6.22223V29.5555Z" fill="white"/>
</mask>
<g mask="url(#mask57_134_78530)">
<mask id="mask58_134_78530" style="mask-type:luminance" maskUnits="userSpaceOnUse" x="-12" y="23" width="29" height="27">
<path d="M-11.1502 30.9106L9.56423 23.0113L16.6311 41.5382L-4.07726 49.4436L-11.1502 30.9106Z" fill="white"/>
</mask>
<g mask="url(#mask58_134_78530)">
<mask id="mask59_134_78530" style="mask-type:luminance" maskUnits="userSpaceOnUse" x="-12" y="23" width="29" height="27">
<path d="M-11.1502 30.9106L9.56423 23.0113L16.6311 41.5382L-4.07726 49.4436L-11.1502 30.9106Z" fill="white"/>
</mask>
<g mask="url(#mask59_134_78530)">
<path fill-rule="evenodd" clip-rule="evenodd" d="M8.00868 35.4375C9.2908 36.6285 11.1441 36.1363 11.934 34.8602C13.6536 32.0833 12.3898 28.1458 9.36979 30.2908C7.99652 31.2691 6.08854 33.6449 8.00868 35.4375Z" fill="#D9D2C8"/>
</g>
</g>
</g>
<mask id="mask60_134_78530" style="mask-type:luminance" maskUnits="userSpaceOnUse" x="0" y="34" width="13" height="15">
<path d="M0 34.2222H12.4444V48.2222H0V34.2222Z" fill="white"/>
</mask>
<g mask="url(#mask60_134_78530)">
<mask id="mask61_134_78530" style="mask-type:luminance" maskUnits="userSpaceOnUse" x="-12" y="23" width="29" height="27">
<path d="M-11.1502 30.9106L9.56423 23.0113L16.6311 41.5382L-4.07726 49.4436L-11.1502 30.9106Z" fill="white"/>
</mask>
<g mask="url(#mask61_134_78530)">
<mask id="mask62_134_78530" style="mask-type:luminance" maskUnits="userSpaceOnUse" x="-12" y="23" width="29" height="27">
<path d="M-11.1502 30.9106L9.56423 23.0113L16.6311 41.5382L-4.07726 49.4436L-11.1502 30.9106Z" fill="white"/>
</mask>
<g mask="url(#mask62_134_78530)">
<path fill-rule="evenodd" clip-rule="evenodd" d="M-1.60417 45.6458C-1.26996 46.4905 -0.461806 47.2804 1.4158 46.8672C4.44184 46.1866 4.52083 43.0208 7.47396 43.9809C7.47396 43.9809 8.73785 44.382 10.1476 43.9201C11.1198 43.513 11.8915 42.9479 11.8854 41.4349C11.8733 38.5972 10.6701 38.9922 8.29427 37.8802C5.90625 36.7682 4.18056 35.2552 2.4184 35.5833C0.650174 35.9054 -0.358507 38.5365 -0.546874 40.1649C-0.814237 42.3767 -2.36371 43.7439 -1.60417 45.6458Z" fill="#D9D2C8"/>
</g>
</g>
</g>
<mask id="mask63_134_78530" style="mask-type:luminance" maskUnits="userSpaceOnUse" x="0" y="24" width="7" height="11">
<path d="M0 24.8889H6.22222V34.2222H0V24.8889Z" fill="white"/>
</mask>
<g mask="url(#mask63_134_78530)">
<mask id="mask64_134_78530" style="mask-type:luminance" maskUnits="userSpaceOnUse" x="-12" y="23" width="29" height="27">
<path d="M-11.1502 30.9106L9.56423 23.0113L16.6311 41.5382L-4.07726 49.4436L-11.1502 30.9106Z" fill="white"/>
</mask>
<g mask="url(#mask64_134_78530)">
<mask id="mask65_134_78530" style="mask-type:luminance" maskUnits="userSpaceOnUse" x="-12" y="23" width="29" height="27">
<path d="M-11.1502 30.9106L9.56423 23.0113L16.6311 41.5382L-4.07726 49.4436L-11.1502 30.9106Z" fill="white"/>
</mask>
<g mask="url(#mask65_134_78530)">
<path fill-rule="evenodd" clip-rule="evenodd" d="M3.05642 32.7517C1.81076 32.3264 0.595486 30.3394 0.407119 29.0512C0.224827 27.763 0.522571 26.3472 2.15712 25.8429C5.1467 24.9071 5.94271 29.1302 5.62066 30.9835C5.40799 32.1866 4.45399 33.2257 3.05642 32.7517Z" fill="#D9D2C8"/>
</g>
</g>
</g>
<mask id="mask66_134_78530" style="mask-type:luminance" maskUnits="userSpaceOnUse" x="40" y="59" width="7" height="7">
<path d="M40.4444 59.1111H46.6667V65.3333H40.4444V59.1111Z" fill="white"/>
</mask>
<g mask="url(#mask66_134_78530)">
<mask id="mask67_134_78530" style="mask-type:luminance" maskUnits="userSpaceOnUse" x="37" y="45" width="29" height="27">
<path d="M37.4245 53.1927L58.1389 45.2934L65.2057 63.8264L44.4974 71.7257L37.4245 53.1927Z" fill="white"/>
</mask>
<g mask="url(#mask67_134_78530)">
<mask id="mask68_134_78530" style="mask-type:luminance" maskUnits="userSpaceOnUse" x="37" y="45" width="29" height="27">
<path d="M37.4245 53.1927L58.1389 45.2934L65.2057 63.8264L44.4974 71.7257L37.4245 53.1927Z" fill="white"/>
</mask>
<g mask="url(#mask68_134_78530)">
<path fill-rule="evenodd" clip-rule="evenodd" d="M45.4514 64.0937C46.8429 63.0364 46.6727 61.1224 45.5425 60.1319C43.1059 57.9627 39.5208 59.4514 41.1189 62.7934C41.8481 64.3064 43.355 65.6797 45.4514 64.0937Z" fill="#D9D2C8"/>
</g>
</g>
</g>
<mask id="mask69_134_78530" style="mask-type:luminance" maskUnits="userSpaceOnUse" x="54" y="51" width="9" height="9">
<path d="M54.4444 51.3333H62.2222V59.1111H54.4444V51.3333Z" fill="white"/>
</mask>
<g mask="url(#mask69_134_78530)">
<mask id="mask70_134_78530" style="mask-type:luminance" maskUnits="userSpaceOnUse" x="37" y="45" width="29" height="27">
<path d="M37.4245 53.1927L58.1389 45.2934L65.2057 63.8264L44.4974 71.7257L37.4245 53.1927Z" fill="white"/>
</mask>
<g mask="url(#mask70_134_78530)">
<mask id="mask71_134_78530" style="mask-type:luminance" maskUnits="userSpaceOnUse" x="37" y="45" width="29" height="27">
<path d="M37.4245 53.1927L58.1389 45.2934L65.2057 63.8264L44.4974 71.7257L37.4245 53.1927Z" fill="white"/>
</mask>
<g mask="url(#mask71_134_78530)">
<path fill-rule="evenodd" clip-rule="evenodd" d="M56.5833 57.7196C57.8654 58.9106 59.7187 58.4184 60.5087 57.1424C62.2283 54.3655 60.9644 50.428 57.9444 52.5729C56.5712 53.5512 54.6632 55.9271 56.5833 57.7196Z" fill="#D9D2C8"/>
</g>
</g>
</g>
<mask id="mask72_134_78530" style="mask-type:luminance" maskUnits="userSpaceOnUse" x="42" y="49" width="8" height="11">
<path d="M42 49.7778H49.7778V59.1111H42V49.7778Z" fill="white"/>
</mask>
<g mask="url(#mask72_134_78530)">
<mask id="mask73_134_78530" style="mask-type:luminance" maskUnits="userSpaceOnUse" x="37" y="45" width="29" height="27">
<path d="M37.4245 53.1927L58.1389 45.2934L65.2057 63.8264L44.4974 71.7257L37.4245 53.1927Z" fill="white"/>
</mask>
<g mask="url(#mask73_134_78530)">
<mask id="mask74_134_78530" style="mask-type:luminance" maskUnits="userSpaceOnUse" x="37" y="45" width="29" height="27">
<path d="M37.4245 53.1927L58.1389 45.2934L65.2057 63.8264L44.4974 71.7257L37.4245 53.1927Z" fill="white"/>
</mask>
<g mask="url(#mask74_134_78530)">
<path fill-rule="evenodd" clip-rule="evenodd" d="M48.1007 56.7048C48.7448 55.5625 48.3316 53.2656 47.6085 52.1779C46.8854 51.1024 45.7188 50.2396 44.1632 50.9505C41.3073 52.2509 43.5252 55.9271 45.0078 57.0937C45.9618 57.8472 47.3655 57.987 48.1007 56.7048Z" fill="#D9D2C8"/>
</g>
</g>
</g>
<mask id="mask75_134_78530" style="mask-type:luminance" maskUnits="userSpaceOnUse" x="46" y="57" width="15" height="13">
<path d="M46.6667 57.5555H60.6667V70H46.6667V57.5555Z" fill="white"/>
</mask>
<g mask="url(#mask75_134_78530)">
<mask id="mask76_134_78530" style="mask-type:luminance" maskUnits="userSpaceOnUse" x="37" y="45" width="29" height="27">
<path d="M37.4245 53.1927L58.1389 45.2934L65.2057 63.8264L44.4974 71.7257L37.4245 53.1927Z" fill="white"/>
</mask>
<g mask="url(#mask76_134_78530)">
<mask id="mask77_134_78530" style="mask-type:luminance" maskUnits="userSpaceOnUse" x="37" y="45" width="29" height="27">
<path d="M37.4245 53.1927L58.1389 45.2934L65.2057 63.8264L44.4974 71.7257L37.4245 53.1927Z" fill="white"/>
</mask>
<g mask="url(#mask77_134_78530)">
<path fill-rule="evenodd" clip-rule="evenodd" d="M46.9705 67.9279C47.3047 68.7786 48.1129 69.5686 49.9905 69.1493C53.0165 68.4687 53.0955 65.3029 56.0486 66.263C56.0486 66.263 57.3064 66.6641 58.7222 66.2022C59.6945 65.8012 60.4662 65.23 60.4601 63.7231C60.4479 60.8854 59.2448 61.2743 56.8689 60.1623C54.4809 59.0503 52.7552 57.5434 50.9931 57.8715C49.2248 58.1936 48.2162 60.8186 48.0278 62.447C47.7604 64.6588 46.2109 66.026 46.9705 67.9279Z" fill="#D9D2C8"/>
</g>
</g>
</g>
<mask id="mask78_134_78530" style="mask-type:luminance" maskUnits="userSpaceOnUse" x="48" y="46" width="7" height="10">
<path d="M48.2222 46.6667H54.4445V56H48.2222V46.6667Z" fill="white"/>
</mask>
<g mask="url(#mask78_134_78530)">
<mask id="mask79_134_78530" style="mask-type:luminance" maskUnits="userSpaceOnUse" x="37" y="45" width="29" height="27">
<path d="M37.4245 53.1927L58.1389 45.2934L65.2057 63.8264L44.4974 71.7257L37.4245 53.1927Z" fill="white"/>
</mask>
<g mask="url(#mask79_134_78530)">
<mask id="mask80_134_78530" style="mask-type:luminance" maskUnits="userSpaceOnUse" x="37" y="45" width="29" height="27">
<path d="M37.4245 53.1927L58.1389 45.2934L65.2057 63.8264L44.4974 71.7257L37.4245 53.1927Z" fill="white"/>
</mask>
<g mask="url(#mask80_134_78530)">
<path fill-rule="evenodd" clip-rule="evenodd" d="M51.6311 55.0339C50.3854 54.6085 49.1701 52.6215 48.9818 51.3333C48.7995 50.0451 49.0972 48.6354 50.7318 48.125C53.7214 47.1953 54.5174 51.4123 54.1953 53.2717C53.9826 54.4688 53.0287 55.5078 51.6311 55.0339Z" fill="#D9D2C8"/>
</g>
</g>
</g>
<mask id="mask81_134_78530" style="mask-type:luminance" maskUnits="userSpaceOnUse" x="7" y="60" width="9" height="9">
<path d="M7.77777 60.6667H15.5555V68.4444H7.77777V60.6667Z" fill="white"/>
</mask>
<g mask="url(#mask81_134_78530)">
<mask id="mask82_134_78530" style="mask-type:luminance" maskUnits="userSpaceOnUse" x="5" y="48" width="29" height="27">
<path d="M5.22569 56.0547L25.934 48.1554L33.0069 66.6883L12.2986 74.5877L5.22569 56.0547Z" fill="white"/>
</mask>
<g mask="url(#mask82_134_78530)">
<mask id="mask83_134_78530" style="mask-type:luminance" maskUnits="userSpaceOnUse" x="5" y="48" width="29" height="27">
<path d="M5.22569 56.0547L25.934 48.1554L33.0069 66.6883L12.2986 74.5877L5.22569 56.0547Z" fill="white"/>
</mask>
<g mask="url(#mask83_134_78530)">
<path fill-rule="evenodd" clip-rule="evenodd" d="M13.2526 66.9557C14.6441 65.8984 14.4679 63.9844 13.3437 62.9939C10.9071 60.8246 7.31597 62.3134 8.92013 65.6493C9.6493 67.1684 11.1562 68.5417 13.2526 66.9557Z" fill="#D9D2C8"/>
</g>
</g>
</g>
<mask id="mask84_134_78530" style="mask-type:luminance" maskUnits="userSpaceOnUse" x="23" y="54" width="7" height="9">
<path d="M23.3333 54.4445H29.5556V62.2222H23.3333V54.4445Z" fill="white"/>
</mask>
<g mask="url(#mask84_134_78530)">
<mask id="mask85_134_78530" style="mask-type:luminance" maskUnits="userSpaceOnUse" x="5" y="48" width="29" height="27">
<path d="M5.22569 56.0547L25.934 48.1554L33.0069 66.6884L12.2986 74.5877L5.22569 56.0547Z" fill="white"/>
</mask>
<g mask="url(#mask85_134_78530)">
<mask id="mask86_134_78530" style="mask-type:luminance" maskUnits="userSpaceOnUse" x="5" y="48" width="29" height="27">
<path d="M5.22569 56.0547L25.934 48.1554L33.0069 66.6884L12.2986 74.5877L5.22569 56.0547Z" fill="white"/>
</mask>
<g mask="url(#mask86_134_78530)">
<path fill-rule="evenodd" clip-rule="evenodd" d="M24.3845 60.5816C25.6667 61.7726 27.52 61.2804 28.3099 60.0044C30.0295 57.2274 28.7595 53.2899 25.7396 55.4349C24.3724 56.4132 22.4644 58.7891 24.3845 60.5816Z" fill="#D9D2C8"/>
</g>
</g>
</g>
<mask id="mask87_134_78530" style="mask-type:luminance" maskUnits="userSpaceOnUse" x="9" y="52" width="9" height="9">
<path d="M9.33333 52.8889H17.1111V60.6667H9.33333V52.8889Z" fill="white"/>
</mask>
<g mask="url(#mask87_134_78530)">
<mask id="mask88_134_78530" style="mask-type:luminance" maskUnits="userSpaceOnUse" x="5" y="48" width="29" height="27">
<path d="M5.22569 56.0547L25.934 48.1554L33.0069 66.6883L12.2986 74.5877L5.22569 56.0547Z" fill="white"/>
</mask>
<g mask="url(#mask88_134_78530)">
<mask id="mask89_134_78530" style="mask-type:luminance" maskUnits="userSpaceOnUse" x="5" y="48" width="29" height="27">
<path d="M5.22569 56.0547L25.934 48.1554L33.0069 66.6883L12.2986 74.5877L5.22569 56.0547Z" fill="white"/>
</mask>
<g mask="url(#mask89_134_78530)">
<path fill-rule="evenodd" clip-rule="evenodd" d="M15.8958 59.5668C16.546 58.4245 16.1328 56.1276 15.4097 55.0399C14.6866 53.9583 13.52 53.1016 11.9644 53.8125C9.10851 55.1128 11.3264 58.7891 12.809 59.9557C13.7569 60.7031 15.1667 60.849 15.8958 59.5668Z" fill="#D9D2C8"/>
</g>
</g>
</g>
<mask id="mask90_134_78530" style="mask-type:luminance" maskUnits="userSpaceOnUse" x="14" y="60" width="16" height="10">
<path d="M14 60.6667H29.5556V70H14V60.6667Z" fill="white"/>
</mask>
<g mask="url(#mask90_134_78530)">
<mask id="mask91_134_78530" style="mask-type:luminance" maskUnits="userSpaceOnUse" x="5" y="48" width="29" height="27">
<path d="M5.22569 56.0547L25.934 48.1554L33.0069 66.6883L12.2986 74.5877L5.22569 56.0547Z" fill="white"/>
</mask>
<g mask="url(#mask91_134_78530)">
<mask id="mask92_134_78530" style="mask-type:luminance" maskUnits="userSpaceOnUse" x="5" y="48" width="29" height="27">
<path d="M5.22569 56.0547L25.934 48.1554L33.0069 66.6883L12.2986 74.5877L5.22569 56.0547Z" fill="white"/>
</mask>
<g mask="url(#mask92_134_78530)">
<path fill-rule="evenodd" clip-rule="evenodd" d="M14.7717 70.7899C15.1059 71.6406 15.908 72.4305 17.7917 72.0113C20.8177 71.3307 20.8967 68.1649 23.8498 69.125C23.8498 69.125 25.1076 69.526 26.5234 69.0642C27.4957 68.6571 28.2674 68.092 28.2613 66.579C28.2491 63.7474 27.046 64.1363 24.6641 63.0243C22.2821 61.9123 20.5564 60.4054 18.7882 60.7274C17.02 61.0555 16.0113 63.6805 15.8229 65.309C15.5616 67.5208 14.0122 68.888 14.7717 70.7899Z" fill="#D9D2C8"/>
</g>
</g>
</g>
<mask id="mask93_134_78530" style="mask-type:luminance" maskUnits="userSpaceOnUse" x="15" y="49" width="9" height="11">
<path d="M15.5556 49.7778H23.3333V59.1111H15.5556V49.7778Z" fill="white"/>
</mask>
<g mask="url(#mask93_134_78530)">
<mask id="mask94_134_78530" style="mask-type:luminance" maskUnits="userSpaceOnUse" x="5" y="48" width="29" height="27">
<path d="M5.22569 56.0547L25.934 48.1554L33.0069 66.6883L12.2986 74.5877L5.22569 56.0547Z" fill="white"/>
</mask>
<g mask="url(#mask94_134_78530)">
<mask id="mask95_134_78530" style="mask-type:luminance" maskUnits="userSpaceOnUse" x="5" y="48" width="29" height="27">
<path d="M5.22569 56.0547L25.934 48.1554L33.0069 66.6883L12.2986 74.5877L5.22569 56.0547Z" fill="white"/>
</mask>
<g mask="url(#mask95_134_78530)">
<path fill-rule="evenodd" clip-rule="evenodd" d="M19.4323 57.8958C18.1866 57.4705 16.9653 55.4835 16.783 54.1953C16.6007 52.9071 16.8924 51.4974 18.5269 50.987C21.5226 50.0573 22.3186 54.2743 21.9965 56.1337C21.7838 57.3307 20.8299 58.3698 19.4323 57.8958Z" fill="#D9D2C8"/>
</g>
</g>
</g>
</g>
<rect x="1" y="1" width="68" height="68" rx="9" stroke="#F3EBE1" stroke-width="2"/>
<defs>
<clipPath id="clip0_134_78530">
<rect width="70" height="70" rx="10" fill="white"/>
</clipPath>
</defs>
</svg>
