<svg width="65" height="65" viewBox="0 0 65 65" fill="none" xmlns="http://www.w3.org/2000/svg">
<g filter="url(#filter0_d_131_77827)">
<g clip-path="url(#clip0_131_77827)">
<rect width="60" height="60" rx="10" fill="white"/>
<g clip-path="url(#clip1_131_77827)">
<path d="M66 -6H-6V66H66V-6Z" fill="white"/>
<path d="M66 -6H-6V66H66V-6Z" fill="#C3B5AA"/>
<mask id="mask0_131_77827" style="mask-type:luminance" maskUnits="userSpaceOnUse" x="6" y="8" width="8" height="7">
<path d="M6.66666 8H13.3333V14.6667H6.66666V8Z" fill="white"/>
</mask>
<g mask="url(#mask0_131_77827)">
<mask id="mask1_131_77827" style="mask-type:luminance" maskUnits="userSpaceOnUse" x="4" y="-3" width="25" height="23">
<path d="M4.47916 3.91667L22.2292 -2.85938L28.2917 13.026L10.5417 19.7969L4.47916 3.91667Z" fill="white"/>
</mask>
<g mask="url(#mask1_131_77827)">
<mask id="mask2_131_77827" style="mask-type:luminance" maskUnits="userSpaceOnUse" x="4" y="-3" width="25" height="23">
<path d="M4.47916 3.91667L22.2292 -2.85938L28.2917 13.026L10.5417 19.7969L4.47916 3.91667Z" fill="white"/>
</mask>
<g mask="url(#mask2_131_77827)">
<path fill-rule="evenodd" clip-rule="evenodd" d="M11.3594 13.2552C12.5521 12.3542 12.401 10.7135 11.4375 9.85937C9.34896 8 6.27083 9.27604 7.64583 12.1406C8.27083 13.4375 9.5625 14.6198 11.3594 13.2552Z" fill="#D9D2C8"/>
</g>
</g>
</g>
<mask id="mask3_131_77827" style="mask-type:luminance" maskUnits="userSpaceOnUse" x="20" y="2" width="6" height="8">
<path d="M20 2.66666H25.3333V9.33332H20V2.66666Z" fill="white"/>
</mask>
<g mask="url(#mask3_131_77827)">
<mask id="mask4_131_77827" style="mask-type:luminance" maskUnits="userSpaceOnUse" x="4" y="-3" width="25" height="23">
<path d="M4.47916 3.91667L22.2292 -2.85938L28.2917 13.026L10.5417 19.7969L4.47916 3.91667Z" fill="white"/>
</mask>
<g mask="url(#mask4_131_77827)">
<mask id="mask5_131_77827" style="mask-type:luminance" maskUnits="userSpaceOnUse" x="4" y="-3" width="25" height="23">
<path d="M4.47916 3.91667L22.2292 -2.85938L28.2917 13.026L10.5417 19.7969L4.47916 3.91667Z" fill="white"/>
</mask>
<g mask="url(#mask5_131_77827)">
<path fill-rule="evenodd" clip-rule="evenodd" d="M20.901 7.79166C22 8.8125 23.5885 8.39062 24.2656 7.29687C25.7396 4.92187 24.651 1.54166 22.0625 3.38541C20.8906 4.21874 19.2552 6.2552 20.901 7.79166Z" fill="#D9D2C8"/>
</g>
</g>
</g>
<mask id="mask6_131_77827" style="mask-type:luminance" maskUnits="userSpaceOnUse" x="8" y="1" width="7" height="7">
<path d="M8 1.33334H14.6667V8.00001H8V1.33334Z" fill="white"/>
</mask>
<g mask="url(#mask6_131_77827)">
<mask id="mask7_131_77827" style="mask-type:luminance" maskUnits="userSpaceOnUse" x="4" y="-3" width="25" height="23">
<path d="M4.47916 3.91667L22.2292 -2.85938L28.2917 13.026L10.5417 19.7969L4.47916 3.91667Z" fill="white"/>
</mask>
<g mask="url(#mask7_131_77827)">
<mask id="mask8_131_77827" style="mask-type:luminance" maskUnits="userSpaceOnUse" x="4" y="-3" width="25" height="23">
<path d="M4.47916 3.91667L22.2292 -2.85938L28.2917 13.026L10.5417 19.7969L4.47916 3.91667Z" fill="white"/>
</mask>
<g mask="url(#mask8_131_77827)">
<path fill-rule="evenodd" clip-rule="evenodd" d="M13.625 6.92188C14.1823 5.94271 13.8281 3.97396 13.2083 3.04167C12.5885 2.11979 11.5885 1.38021 10.2552 1.98959C7.80729 3.10417 9.70833 6.25521 10.9792 7.25521C11.7917 7.90104 13 8.02084 13.625 6.92188Z" fill="#D9D2C8"/>
</g>
</g>
</g>
<mask id="mask9_131_77827" style="mask-type:luminance" maskUnits="userSpaceOnUse" x="12" y="6" width="14" height="13">
<path d="M12 6.66666H25.3333V18.6667H12V6.66666Z" fill="white"/>
</mask>
<g mask="url(#mask9_131_77827)">
<mask id="mask10_131_77827" style="mask-type:luminance" maskUnits="userSpaceOnUse" x="4" y="-3" width="25" height="23">
<path d="M4.47916 3.91667L22.2292 -2.85938L28.2917 13.026L10.5417 19.7969L4.47916 3.91667Z" fill="white"/>
</mask>
<g mask="url(#mask10_131_77827)">
<mask id="mask11_131_77827" style="mask-type:luminance" maskUnits="userSpaceOnUse" x="4" y="-3" width="25" height="23">
<path d="M4.47916 3.91667L22.2292 -2.85938L28.2917 13.026L10.5417 19.7969L4.47916 3.91667Z" fill="white"/>
</mask>
<g mask="url(#mask11_131_77827)">
<path fill-rule="evenodd" clip-rule="evenodd" d="M12.6615 16.5417C12.9479 17.2708 13.6354 17.9479 15.25 17.5885C17.8437 17.0104 17.9115 14.2969 20.4427 15.1198C20.4427 15.1198 21.5208 15.4635 22.7344 15.0625C23.5677 14.7187 24.2292 14.2292 24.224 12.9375C24.2135 10.5052 23.1823 10.8385 21.1406 9.89061C19.099 8.93228 17.6198 7.64061 16.1042 7.92186C14.5885 8.19791 13.724 10.4479 13.5625 11.8437C13.3385 13.7396 12.0104 14.9114 12.6615 16.5417Z" fill="#D9D2C8"/>
</g>
</g>
</g>
<mask id="mask12_131_77827" style="mask-type:luminance" maskUnits="userSpaceOnUse" x="13" y="0" width="7" height="7">
<path d="M13.3333 0H20V6.66667H13.3333V0Z" fill="white"/>
</mask>
<g mask="url(#mask12_131_77827)">
<mask id="mask13_131_77827" style="mask-type:luminance" maskUnits="userSpaceOnUse" x="4" y="-3" width="25" height="23">
<path d="M4.47917 3.91667L22.2292 -2.85938L28.2917 13.026L10.5417 19.7969L4.47917 3.91667Z" fill="white"/>
</mask>
<g mask="url(#mask13_131_77827)">
<mask id="mask14_131_77827" style="mask-type:luminance" maskUnits="userSpaceOnUse" x="4" y="-3" width="25" height="23">
<path d="M4.47917 3.91667L22.2292 -2.85938L28.2917 13.026L10.5417 19.7969L4.47917 3.91667Z" fill="white"/>
</mask>
<g mask="url(#mask14_131_77827)">
<path fill-rule="evenodd" clip-rule="evenodd" d="M16.6563 5.48958C15.5885 5.13021 14.5417 3.42708 14.3854 2.31771C14.2292 1.21354 14.4792 0.00520748 15.8802 -0.432293C18.4479 -1.22917 19.1302 2.38542 18.8542 3.97917C18.6719 5.00521 17.8542 5.89583 16.6563 5.48958Z" fill="#D9D2C8"/>
</g>
</g>
</g>
<mask id="mask15_131_77827" style="mask-type:luminance" maskUnits="userSpaceOnUse" x="36" y="6" width="7" height="8">
<path d="M36 6.66666H42.6667V13.3333H36V6.66666Z" fill="white"/>
</mask>
<g mask="url(#mask15_131_77827)">
<mask id="mask16_131_77827" style="mask-type:luminance" maskUnits="userSpaceOnUse" x="33" y="-4" width="25" height="23">
<path d="M33.9219 2.8854L51.6771 -3.88544L57.7344 11.9948L39.9844 18.7708L33.9219 2.8854Z" fill="white"/>
</mask>
<g mask="url(#mask16_131_77827)">
<mask id="mask17_131_77827" style="mask-type:luminance" maskUnits="userSpaceOnUse" x="33" y="-4" width="25" height="23">
<path d="M33.9219 2.8854L51.6771 -3.88544L57.7344 11.9948L39.9844 18.7708L33.9219 2.8854Z" fill="white"/>
</mask>
<g mask="url(#mask17_131_77827)">
<path fill-rule="evenodd" clip-rule="evenodd" d="M40.8021 12.2291C41.9948 11.3229 41.8438 9.68226 40.8802 8.8281C38.7917 6.97393 35.7188 8.24997 37.0885 11.1093C37.7135 12.4114 39.0052 13.5885 40.8021 12.2291Z" fill="#D9D2C8"/>
</g>
</g>
</g>
<mask id="mask18_131_77827" style="mask-type:luminance" maskUnits="userSpaceOnUse" x="49" y="1" width="6" height="7">
<path d="M49.3333 1.33334H54.6667V8.00001H49.3333V1.33334Z" fill="white"/>
</mask>
<g mask="url(#mask18_131_77827)">
<mask id="mask19_131_77827" style="mask-type:luminance" maskUnits="userSpaceOnUse" x="33" y="-4" width="25" height="23">
<path d="M33.9219 2.88543L51.6771 -3.88541L57.7344 11.9948L39.9844 18.7708L33.9219 2.88543Z" fill="white"/>
</mask>
<g mask="url(#mask19_131_77827)">
<mask id="mask20_131_77827" style="mask-type:luminance" maskUnits="userSpaceOnUse" x="33" y="-4" width="25" height="23">
<path d="M33.9219 2.88543L51.6771 -3.88541L57.7344 11.9948L39.9844 18.7708L33.9219 2.88543Z" fill="white"/>
</mask>
<g mask="url(#mask20_131_77827)">
<path fill-rule="evenodd" clip-rule="evenodd" d="M50.3438 6.76562C51.4427 7.78646 53.0313 7.36458 53.7083 6.27083C55.1823 3.89062 54.099 0.515621 51.5052 2.35416C50.3333 3.1927 48.6979 5.22916 50.3438 6.76562Z" fill="#D9D2C8"/>
</g>
</g>
</g>
<mask id="mask21_131_77827" style="mask-type:luminance" maskUnits="userSpaceOnUse" x="37" y="0" width="7" height="8">
<path d="M37.3333 0H44V8H37.3333V0Z" fill="white"/>
</mask>
<g mask="url(#mask21_131_77827)">
<mask id="mask22_131_77827" style="mask-type:luminance" maskUnits="userSpaceOnUse" x="33" y="-4" width="25" height="23">
<path d="M33.9219 2.88543L51.6771 -3.88541L57.7344 11.9948L39.9844 18.7708L33.9219 2.88543Z" fill="white"/>
</mask>
<g mask="url(#mask22_131_77827)">
<mask id="mask23_131_77827" style="mask-type:luminance" maskUnits="userSpaceOnUse" x="33" y="-4" width="25" height="23">
<path d="M33.9219 2.88543L51.6771 -3.88541L57.7344 11.9948L39.9844 18.7708L33.9219 2.88543Z" fill="white"/>
</mask>
<g mask="url(#mask23_131_77827)">
<path fill-rule="evenodd" clip-rule="evenodd" d="M43.0677 5.89584C43.625 4.91667 43.2708 2.94271 42.651 2.01563C42.0313 1.08854 41.0313 0.354169 39.6979 0.963544C37.25 2.07813 39.151 5.22917 40.4219 6.22917C41.2396 6.86979 42.4427 6.98959 43.0677 5.89584Z" fill="#D9D2C8"/>
</g>
</g>
</g>
<mask id="mask24_131_77827" style="mask-type:luminance" maskUnits="userSpaceOnUse" x="41" y="6" width="14" height="12">
<path d="M41.3333 6.66666H54.6667V17.3333H41.3333V6.66666Z" fill="white"/>
</mask>
<g mask="url(#mask24_131_77827)">
<mask id="mask25_131_77827" style="mask-type:luminance" maskUnits="userSpaceOnUse" x="33" y="-4" width="25" height="23">
<path d="M33.9219 2.8854L51.6771 -3.88544L57.7344 11.9948L39.9844 18.7708L33.9219 2.8854Z" fill="white"/>
</mask>
<g mask="url(#mask25_131_77827)">
<mask id="mask26_131_77827" style="mask-type:luminance" maskUnits="userSpaceOnUse" x="33" y="-4" width="25" height="23">
<path d="M33.9219 2.8854L51.6771 -3.88544L57.7344 11.9948L39.9844 18.7708L33.9219 2.8854Z" fill="white"/>
</mask>
<g mask="url(#mask26_131_77827)">
<path fill-rule="evenodd" clip-rule="evenodd" d="M42.1042 15.5156C42.3906 16.2396 43.0833 16.9167 44.6927 16.5625C47.2865 15.9792 47.3542 13.2656 49.8854 14.0885C49.8854 14.0885 50.9635 14.4323 52.1771 14.0312C53.0104 13.6875 53.6719 13.2031 53.6667 11.9062C53.6562 9.47394 52.625 9.81248 50.5885 8.85936C48.5417 7.90623 47.0625 6.60936 45.5469 6.89061C44.0365 7.16665 43.1667 9.42186 43.0052 10.8177C42.7812 12.7135 41.4531 13.8854 42.1042 15.5156Z" fill="#D9D2C8"/>
</g>
</g>
</g>
<mask id="mask27_131_77827" style="mask-type:luminance" maskUnits="userSpaceOnUse" x="42" y="0" width="8" height="6">
<path d="M42.6667 0H49.3333V5.33333H42.6667V0Z" fill="white"/>
</mask>
<g mask="url(#mask27_131_77827)">
<mask id="mask28_131_77827" style="mask-type:luminance" maskUnits="userSpaceOnUse" x="33" y="-4" width="25" height="23">
<path d="M33.9219 2.88543L51.6771 -3.88541L57.7344 11.9948L39.9844 18.7708L33.9219 2.88543Z" fill="white"/>
</mask>
<g mask="url(#mask28_131_77827)">
<mask id="mask29_131_77827" style="mask-type:luminance" maskUnits="userSpaceOnUse" x="33" y="-4" width="25" height="23">
<path d="M33.9219 2.88543L51.6771 -3.88541L57.7344 11.9948L39.9844 18.7708L33.9219 2.88543Z" fill="white"/>
</mask>
<g mask="url(#mask29_131_77827)">
<path fill-rule="evenodd" clip-rule="evenodd" d="M46.099 4.46354C45.0312 4.09896 43.9844 2.39584 43.8281 1.29167C43.6719 0.187503 43.9271 -1.02604 45.3229 -1.45833C47.8906 -2.26041 48.5729 1.35938 48.2969 2.94792C48.1146 3.97917 47.2969 4.86979 46.099 4.46354Z" fill="#D9D2C8"/>
</g>
</g>
</g>
<mask id="mask30_131_77827" style="mask-type:luminance" maskUnits="userSpaceOnUse" x="20" y="29" width="7" height="7">
<path d="M20 29.3333H26.6667V36H20V29.3333Z" fill="white"/>
</mask>
<g mask="url(#mask30_131_77827)">
<mask id="mask31_131_77827" style="mask-type:luminance" maskUnits="userSpaceOnUse" x="18" y="18" width="25" height="24">
<path d="M18.2031 25.4688L35.9531 18.6927L42.0156 34.5781L24.2604 41.349L18.2031 25.4688Z" fill="white"/>
</mask>
<g mask="url(#mask31_131_77827)">
<mask id="mask32_131_77827" style="mask-type:luminance" maskUnits="userSpaceOnUse" x="18" y="18" width="25" height="24">
<path d="M18.2031 25.4688L35.9531 18.6927L42.0156 34.5781L24.2604 41.349L18.2031 25.4688Z" fill="white"/>
</mask>
<g mask="url(#mask32_131_77827)">
<path fill-rule="evenodd" clip-rule="evenodd" d="M25.0781 34.8125C26.2708 33.9063 26.125 32.2656 25.1615 31.4115C23.0677 29.5521 19.9948 30.8281 21.3646 33.6927C21.9948 34.9948 23.2865 36.1719 25.0781 34.8125Z" fill="#D9D2C8"/>
</g>
</g>
</g>
<mask id="mask33_131_77827" style="mask-type:luminance" maskUnits="userSpaceOnUse" x="33" y="24" width="6" height="7">
<path d="M33.3333 24H38.6667V30.6667H33.3333V24Z" fill="white"/>
</mask>
<g mask="url(#mask33_131_77827)">
<mask id="mask34_131_77827" style="mask-type:luminance" maskUnits="userSpaceOnUse" x="18" y="18" width="25" height="24">
<path d="M18.2031 25.4688L35.9531 18.6927L42.0156 34.5781L24.2604 41.349L18.2031 25.4688Z" fill="white"/>
</mask>
<g mask="url(#mask34_131_77827)">
<mask id="mask35_131_77827" style="mask-type:luminance" maskUnits="userSpaceOnUse" x="18" y="18" width="25" height="24">
<path d="M18.2031 25.4688L35.9531 18.6927L42.0156 34.5781L24.2604 41.349L18.2031 25.4688Z" fill="white"/>
</mask>
<g mask="url(#mask35_131_77827)">
<path fill-rule="evenodd" clip-rule="evenodd" d="M34.625 29.3438C35.7187 30.3698 37.3125 29.9479 37.9844 28.849C39.4583 26.474 38.375 23.099 35.7865 24.9375C34.6094 25.7709 32.974 27.8073 34.625 29.3438Z" fill="#D9D2C8"/>
</g>
</g>
</g>
<mask id="mask36_131_77827" style="mask-type:luminance" maskUnits="userSpaceOnUse" x="22" y="22" width="6" height="8">
<path d="M22.6667 22.6667H28V29.3333H22.6667V22.6667Z" fill="white"/>
</mask>
<g mask="url(#mask36_131_77827)">
<mask id="mask37_131_77827" style="mask-type:luminance" maskUnits="userSpaceOnUse" x="18" y="18" width="25" height="24">
<path d="M18.2031 25.4687L35.9531 18.6927L42.0156 34.5781L24.2604 41.3489L18.2031 25.4687Z" fill="white"/>
</mask>
<g mask="url(#mask37_131_77827)">
<mask id="mask38_131_77827" style="mask-type:luminance" maskUnits="userSpaceOnUse" x="18" y="18" width="25" height="24">
<path d="M18.2031 25.4687L35.9531 18.6927L42.0156 34.5781L24.2604 41.3489L18.2031 25.4687Z" fill="white"/>
</mask>
<g mask="url(#mask38_131_77827)">
<path fill-rule="evenodd" clip-rule="evenodd" d="M27.349 28.4739C27.901 27.4948 27.5469 25.526 26.9323 24.5937C26.3073 23.6718 25.3125 22.9375 23.9792 23.5416C21.5313 24.6562 23.4323 27.8073 24.6979 28.8125C25.5156 29.4531 26.724 29.5729 27.349 28.4739Z" fill="#D9D2C8"/>
</g>
</g>
</g>
<mask id="mask39_131_77827" style="mask-type:luminance" maskUnits="userSpaceOnUse" x="25" y="29" width="14" height="11">
<path d="M25.3333 29.3333H38.6667V40H25.3333V29.3333Z" fill="white"/>
</mask>
<g mask="url(#mask39_131_77827)">
<mask id="mask40_131_77827" style="mask-type:luminance" maskUnits="userSpaceOnUse" x="18" y="18" width="25" height="24">
<path d="M18.2031 25.4688L35.9531 18.6927L42.0156 34.5781L24.2604 41.349L18.2031 25.4688Z" fill="white"/>
</mask>
<g mask="url(#mask40_131_77827)">
<mask id="mask41_131_77827" style="mask-type:luminance" maskUnits="userSpaceOnUse" x="18" y="18" width="25" height="24">
<path d="M18.2031 25.4688L35.9531 18.6927L42.0156 34.5781L24.2604 41.349L18.2031 25.4688Z" fill="white"/>
</mask>
<g mask="url(#mask41_131_77827)">
<path fill-rule="evenodd" clip-rule="evenodd" d="M26.3802 38.0937C26.6667 38.8229 27.3594 39.5 28.9687 39.1406C31.5677 38.5625 31.6354 35.849 34.1615 36.6719C34.1615 36.6719 35.2448 37.0156 36.4531 36.6146C37.2865 36.2708 37.9479 35.7865 37.9427 34.4896C37.9375 32.0573 36.901 32.3906 34.8646 31.4427C32.8229 30.4896 31.3437 29.1927 29.8281 29.474C28.3125 29.75 27.4479 32 27.2865 33.3958C27.0573 35.2917 25.7344 36.4635 26.3802 38.0937Z" fill="#D9D2C8"/>
</g>
</g>
</g>
<mask id="mask42_131_77827" style="mask-type:luminance" maskUnits="userSpaceOnUse" x="28" y="20" width="6" height="8">
<path d="M28 20H33.3333V28H28V20Z" fill="white"/>
</mask>
<g mask="url(#mask42_131_77827)">
<mask id="mask43_131_77827" style="mask-type:luminance" maskUnits="userSpaceOnUse" x="18" y="18" width="25" height="24">
<path d="M18.2031 25.4688L35.9531 18.6927L42.0156 34.5781L24.2604 41.349L18.2031 25.4688Z" fill="white"/>
</mask>
<g mask="url(#mask43_131_77827)">
<mask id="mask44_131_77827" style="mask-type:luminance" maskUnits="userSpaceOnUse" x="18" y="18" width="25" height="24">
<path d="M18.2031 25.4688L35.9531 18.6927L42.0156 34.5781L24.2604 41.349L18.2031 25.4688Z" fill="white"/>
</mask>
<g mask="url(#mask44_131_77827)">
<path fill-rule="evenodd" clip-rule="evenodd" d="M30.375 27.0417C29.3125 26.6823 28.2656 24.9792 28.1042 23.875C27.9479 22.7656 28.2031 21.5573 29.6042 21.1198C32.1719 20.3229 32.8542 23.9375 32.5729 25.5313C32.3958 26.5573 31.5781 27.4531 30.375 27.0417Z" fill="#D9D2C8"/>
</g>
</g>
</g>
<mask id="mask45_131_77827" style="mask-type:luminance" maskUnits="userSpaceOnUse" x="48" y="29" width="7" height="7">
<path d="M48 29.3333H54.6667V36H48V29.3333Z" fill="white"/>
</mask>
<g mask="url(#mask45_131_77827)">
<mask id="mask46_131_77827" style="mask-type:luminance" maskUnits="userSpaceOnUse" x="45" y="18" width="25" height="24">
<path d="M45.8021 25.4688L63.5521 18.6927L69.6146 34.5781L51.8594 41.349L45.8021 25.4688Z" fill="white"/>
</mask>
<g mask="url(#mask46_131_77827)">
<mask id="mask47_131_77827" style="mask-type:luminance" maskUnits="userSpaceOnUse" x="45" y="18" width="25" height="24">
<path d="M45.8021 25.4688L63.5521 18.6927L69.6146 34.5781L51.8594 41.349L45.8021 25.4688Z" fill="white"/>
</mask>
<g mask="url(#mask47_131_77827)">
<path fill-rule="evenodd" clip-rule="evenodd" d="M52.6771 34.8125C53.875 33.9063 53.724 32.2656 52.7604 31.4115C50.6667 29.5521 47.5937 30.8281 48.9635 33.6927C49.5937 34.9948 50.8854 36.1719 52.6771 34.8125Z" fill="#D9D2C8"/>
</g>
</g>
</g>
<mask id="mask48_131_77827" style="mask-type:luminance" maskUnits="userSpaceOnUse" x="49" y="22" width="7" height="8">
<path d="M49.3333 22.6667H56V29.3333H49.3333V22.6667Z" fill="white"/>
</mask>
<g mask="url(#mask48_131_77827)">
<mask id="mask49_131_77827" style="mask-type:luminance" maskUnits="userSpaceOnUse" x="45" y="18" width="25" height="24">
<path d="M45.8021 25.4687L63.5521 18.6927L69.6146 34.5781L51.8594 41.3489L45.8021 25.4687Z" fill="white"/>
</mask>
<g mask="url(#mask49_131_77827)">
<mask id="mask50_131_77827" style="mask-type:luminance" maskUnits="userSpaceOnUse" x="45" y="18" width="25" height="24">
<path d="M45.8021 25.4687L63.5521 18.6927L69.6146 34.5781L51.8594 41.3489L45.8021 25.4687Z" fill="white"/>
</mask>
<g mask="url(#mask50_131_77827)">
<path fill-rule="evenodd" clip-rule="evenodd" d="M54.9479 28.4739C55.5052 27.4948 55.1458 25.526 54.5312 24.5937C53.9062 23.6718 52.9115 22.9375 51.5781 23.5416C49.1302 24.6562 51.0312 27.8073 52.2969 28.8125C53.1146 29.4531 54.3229 29.5729 54.9479 28.4739Z" fill="#D9D2C8"/>
</g>
</g>
</g>
<mask id="mask51_131_77827" style="mask-type:luminance" maskUnits="userSpaceOnUse" x="53" y="29" width="7" height="11">
<path d="M53.3333 29.3333H60V40H53.3333V29.3333Z" fill="white"/>
</mask>
<g mask="url(#mask51_131_77827)">
<mask id="mask52_131_77827" style="mask-type:luminance" maskUnits="userSpaceOnUse" x="45" y="18" width="25" height="24">
<path d="M45.8021 25.4688L63.5521 18.6927L69.6146 34.5781L51.8594 41.349L45.8021 25.4688Z" fill="white"/>
</mask>
<g mask="url(#mask52_131_77827)">
<mask id="mask53_131_77827" style="mask-type:luminance" maskUnits="userSpaceOnUse" x="45" y="18" width="25" height="24">
<path d="M45.8021 25.4688L63.5521 18.6927L69.6146 34.5781L51.8594 41.349L45.8021 25.4688Z" fill="white"/>
</mask>
<g mask="url(#mask53_131_77827)">
<path fill-rule="evenodd" clip-rule="evenodd" d="M53.9844 38.0937C54.2708 38.8229 54.9583 39.5 56.5677 39.1406C59.1667 38.5625 59.2344 35.849 61.7604 36.6719C61.7604 36.6719 62.8437 37.0156 64.0573 36.6146C64.8854 36.2708 65.5469 35.7865 65.5469 34.4896C65.5365 32.0573 64.5 32.3906 62.4635 31.4427C60.4219 30.4896 58.9427 29.1927 57.4271 29.474C55.9115 29.75 55.0469 32 54.8854 33.3958C54.6615 35.2917 53.3333 36.4635 53.9844 38.0937Z" fill="#D9D2C8"/>
</g>
</g>
</g>
<mask id="mask54_131_77827" style="mask-type:luminance" maskUnits="userSpaceOnUse" x="54" y="20" width="6" height="8">
<path d="M54.6667 20H60V28H54.6667V20Z" fill="white"/>
</mask>
<g mask="url(#mask54_131_77827)">
<mask id="mask55_131_77827" style="mask-type:luminance" maskUnits="userSpaceOnUse" x="45" y="18" width="25" height="24">
<path d="M45.8021 25.4688L63.5521 18.6927L69.6146 34.5781L51.8594 41.349L45.8021 25.4688Z" fill="white"/>
</mask>
<g mask="url(#mask55_131_77827)">
<mask id="mask56_131_77827" style="mask-type:luminance" maskUnits="userSpaceOnUse" x="45" y="18" width="25" height="24">
<path d="M45.8021 25.4688L63.5521 18.6927L69.6146 34.5781L51.8594 41.349L45.8021 25.4688Z" fill="white"/>
</mask>
<g mask="url(#mask56_131_77827)">
<path fill-rule="evenodd" clip-rule="evenodd" d="M57.9792 27.0417C56.9115 26.6823 55.8646 24.9792 55.7031 23.875C55.5469 22.7656 55.8021 21.5573 57.2031 21.1198C59.7708 20.3229 60.4531 23.9375 60.1719 25.5313C59.9948 26.5573 59.1771 27.4531 57.9792 27.0417Z" fill="#D9D2C8"/>
</g>
</g>
</g>
<mask id="mask57_131_77827" style="mask-type:luminance" maskUnits="userSpaceOnUse" x="5" y="25" width="7" height="7">
<path d="M5.33334 25.3333H12V32H5.33334V25.3333Z" fill="white"/>
</mask>
<g mask="url(#mask57_131_77827)">
<mask id="mask58_131_77827" style="mask-type:luminance" maskUnits="userSpaceOnUse" x="-10" y="19" width="25" height="24">
<path d="M-9.55729 26.4948L8.19792 19.724L14.2552 35.6042L-3.49479 42.3802L-9.55729 26.4948Z" fill="white"/>
</mask>
<g mask="url(#mask58_131_77827)">
<mask id="mask59_131_77827" style="mask-type:luminance" maskUnits="userSpaceOnUse" x="-10" y="19" width="25" height="24">
<path d="M-9.55729 26.4948L8.19792 19.724L14.2552 35.6042L-3.49479 42.3802L-9.55729 26.4948Z" fill="white"/>
</mask>
<g mask="url(#mask59_131_77827)">
<path fill-rule="evenodd" clip-rule="evenodd" d="M6.86459 30.375C7.96355 31.3959 9.55209 30.974 10.2292 29.8802C11.7031 27.5 10.6198 24.125 8.03126 25.9636C6.85417 26.8021 5.21876 28.8386 6.86459 30.375Z" fill="#D9D2C8"/>
</g>
</g>
</g>
<mask id="mask60_131_77827" style="mask-type:luminance" maskUnits="userSpaceOnUse" x="0" y="29" width="11" height="13">
<path d="M0 29.3333H10.6667V41.3333H0V29.3333Z" fill="white"/>
</mask>
<g mask="url(#mask60_131_77827)">
<mask id="mask61_131_77827" style="mask-type:luminance" maskUnits="userSpaceOnUse" x="-10" y="19" width="25" height="24">
<path d="M-9.55729 26.4948L8.19792 19.724L14.2552 35.6042L-3.49479 42.3802L-9.55729 26.4948Z" fill="white"/>
</mask>
<g mask="url(#mask61_131_77827)">
<mask id="mask62_131_77827" style="mask-type:luminance" maskUnits="userSpaceOnUse" x="-10" y="19" width="25" height="24">
<path d="M-9.55729 26.4948L8.19792 19.724L14.2552 35.6042L-3.49479 42.3802L-9.55729 26.4948Z" fill="white"/>
</mask>
<g mask="url(#mask62_131_77827)">
<path fill-rule="evenodd" clip-rule="evenodd" d="M-1.375 39.125C-1.08854 39.849 -0.395833 40.5261 1.21354 40.1719C3.80729 39.5886 3.875 36.875 6.40625 37.6979C6.40625 37.6979 7.48958 38.0417 8.69792 37.6458C9.53125 37.2969 10.1927 36.8125 10.1875 35.5156C10.1771 33.0833 9.14583 33.4219 7.10938 32.4688C5.0625 31.5156 3.58333 30.2188 2.07292 30.5C0.557292 30.7761 -0.307292 33.0313 -0.468749 34.4271C-0.697917 36.3229 -2.02604 37.4948 -1.375 39.125Z" fill="#D9D2C8"/>
</g>
</g>
</g>
<mask id="mask63_131_77827" style="mask-type:luminance" maskUnits="userSpaceOnUse" x="0" y="21" width="6" height="9">
<path d="M0 21.3333H5.33333V29.3333H0V21.3333Z" fill="white"/>
</mask>
<g mask="url(#mask63_131_77827)">
<mask id="mask64_131_77827" style="mask-type:luminance" maskUnits="userSpaceOnUse" x="-10" y="19" width="25" height="24">
<path d="M-9.55729 26.4948L8.19792 19.724L14.2552 35.6042L-3.49479 42.3802L-9.55729 26.4948Z" fill="white"/>
</mask>
<g mask="url(#mask64_131_77827)">
<mask id="mask65_131_77827" style="mask-type:luminance" maskUnits="userSpaceOnUse" x="-10" y="19" width="25" height="24">
<path d="M-9.55729 26.4948L8.19792 19.724L14.2552 35.6042L-3.49479 42.3802L-9.55729 26.4948Z" fill="white"/>
</mask>
<g mask="url(#mask65_131_77827)">
<path fill-rule="evenodd" clip-rule="evenodd" d="M2.61979 28.0729C1.55208 27.7083 0.510414 26.0052 0.348957 24.901C0.192706 23.7969 0.447916 22.5833 1.84896 22.151C4.41146 21.349 5.09375 24.9688 4.81771 26.5573C4.63541 27.5885 3.81771 28.4792 2.61979 28.0729Z" fill="#D9D2C8"/>
</g>
</g>
</g>
<mask id="mask66_131_77827" style="mask-type:luminance" maskUnits="userSpaceOnUse" x="34" y="50" width="6" height="6">
<path d="M34.6667 50.6667H40V56H34.6667V50.6667Z" fill="white"/>
</mask>
<g mask="url(#mask66_131_77827)">
<mask id="mask67_131_77827" style="mask-type:luminance" maskUnits="userSpaceOnUse" x="32" y="38" width="24" height="24">
<path d="M32.0781 45.5937L49.8333 38.8229L55.8906 54.7083L38.1406 61.4792L32.0781 45.5937Z" fill="white"/>
</mask>
<g mask="url(#mask67_131_77827)">
<mask id="mask68_131_77827" style="mask-type:luminance" maskUnits="userSpaceOnUse" x="32" y="38" width="24" height="24">
<path d="M32.0781 45.5937L49.8333 38.8229L55.8906 54.7083L38.1406 61.4792L32.0781 45.5937Z" fill="white"/>
</mask>
<g mask="url(#mask68_131_77827)">
<path fill-rule="evenodd" clip-rule="evenodd" d="M38.9583 54.9375C40.151 54.0312 40.0052 52.3906 39.0365 51.5417C36.9479 49.6823 33.875 50.9583 35.2448 53.8229C35.8698 55.1198 37.1615 56.2969 38.9583 54.9375Z" fill="#D9D2C8"/>
</g>
</g>
</g>
<mask id="mask69_131_77827" style="mask-type:luminance" maskUnits="userSpaceOnUse" x="46" y="44" width="8" height="7">
<path d="M46.6667 44H53.3333V50.6667H46.6667V44Z" fill="white"/>
</mask>
<g mask="url(#mask69_131_77827)">
<mask id="mask70_131_77827" style="mask-type:luminance" maskUnits="userSpaceOnUse" x="32" y="38" width="24" height="24">
<path d="M32.0781 45.5937L49.8333 38.8229L55.8906 54.7083L38.1406 61.4792L32.0781 45.5937Z" fill="white"/>
</mask>
<g mask="url(#mask70_131_77827)">
<mask id="mask71_131_77827" style="mask-type:luminance" maskUnits="userSpaceOnUse" x="32" y="38" width="24" height="24">
<path d="M32.0781 45.5937L49.8333 38.8229L55.8906 54.7083L38.1406 61.4792L32.0781 45.5937Z" fill="white"/>
</mask>
<g mask="url(#mask71_131_77827)">
<path fill-rule="evenodd" clip-rule="evenodd" d="M48.5 49.474C49.599 50.4948 51.1875 50.0729 51.8646 48.9792C53.3385 46.599 52.2552 43.224 49.6667 45.0625C48.4896 45.901 46.8542 47.9375 48.5 49.474Z" fill="#D9D2C8"/>
</g>
</g>
</g>
<mask id="mask72_131_77827" style="mask-type:luminance" maskUnits="userSpaceOnUse" x="36" y="42" width="7" height="9">
<path d="M36 42.6667H42.6667V50.6667H36V42.6667Z" fill="white"/>
</mask>
<g mask="url(#mask72_131_77827)">
<mask id="mask73_131_77827" style="mask-type:luminance" maskUnits="userSpaceOnUse" x="32" y="38" width="24" height="24">
<path d="M32.0781 45.5937L49.8333 38.8229L55.8906 54.7083L38.1406 61.4792L32.0781 45.5937Z" fill="white"/>
</mask>
<g mask="url(#mask73_131_77827)">
<mask id="mask74_131_77827" style="mask-type:luminance" maskUnits="userSpaceOnUse" x="32" y="38" width="24" height="24">
<path d="M32.0781 45.5937L49.8333 38.8229L55.8906 54.7083L38.1406 61.4792L32.0781 45.5937Z" fill="white"/>
</mask>
<g mask="url(#mask74_131_77827)">
<path fill-rule="evenodd" clip-rule="evenodd" d="M41.2292 48.6042C41.7813 47.625 41.4271 45.6562 40.8073 44.724C40.1875 43.8021 39.1875 43.0625 37.8542 43.6719C35.4063 44.7865 37.3073 47.9375 38.5781 48.9375C39.3958 49.5833 40.599 49.7031 41.2292 48.6042Z" fill="#D9D2C8"/>
</g>
</g>
</g>
<mask id="mask75_131_77827" style="mask-type:luminance" maskUnits="userSpaceOnUse" x="40" y="49" width="12" height="11">
<path d="M40 49.3333H52V60H40V49.3333Z" fill="white"/>
</mask>
<g mask="url(#mask75_131_77827)">
<mask id="mask76_131_77827" style="mask-type:luminance" maskUnits="userSpaceOnUse" x="32" y="38" width="24" height="24">
<path d="M32.0781 45.5938L49.8333 38.8229L55.8906 54.7084L38.1406 61.4792L32.0781 45.5938Z" fill="white"/>
</mask>
<g mask="url(#mask76_131_77827)">
<mask id="mask77_131_77827" style="mask-type:luminance" maskUnits="userSpaceOnUse" x="32" y="38" width="24" height="24">
<path d="M32.0781 45.5938L49.8333 38.8229L55.8906 54.7084L38.1406 61.4792L32.0781 45.5938Z" fill="white"/>
</mask>
<g mask="url(#mask77_131_77827)">
<path fill-rule="evenodd" clip-rule="evenodd" d="M40.2604 58.224C40.5469 58.9531 41.2396 59.6302 42.849 59.2708C45.4427 58.6875 45.5104 55.974 48.0417 56.7969C48.0417 56.7969 49.1198 57.1406 50.3333 56.7448C51.1667 56.4011 51.8281 55.9115 51.8229 54.6198C51.8125 52.1875 50.7813 52.5208 48.7448 51.5677C46.6979 50.6146 45.2188 49.3229 43.7083 49.6042C42.1927 49.8802 41.3281 52.1302 41.1667 53.5261C40.9375 55.4219 39.6094 56.5938 40.2604 58.224Z" fill="#D9D2C8"/>
</g>
</g>
</g>
<mask id="mask78_131_77827" style="mask-type:luminance" maskUnits="userSpaceOnUse" x="41" y="40" width="6" height="8">
<path d="M41.3333 40H46.6667V48H41.3333V40Z" fill="white"/>
</mask>
<g mask="url(#mask78_131_77827)">
<mask id="mask79_131_77827" style="mask-type:luminance" maskUnits="userSpaceOnUse" x="32" y="38" width="24" height="24">
<path d="M32.0781 45.5937L49.8333 38.8229L55.8906 54.7083L38.1406 61.4792L32.0781 45.5937Z" fill="white"/>
</mask>
<g mask="url(#mask79_131_77827)">
<mask id="mask80_131_77827" style="mask-type:luminance" maskUnits="userSpaceOnUse" x="32" y="38" width="24" height="24">
<path d="M32.0781 45.5937L49.8333 38.8229L55.8906 54.7083L38.1406 61.4792L32.0781 45.5937Z" fill="white"/>
</mask>
<g mask="url(#mask80_131_77827)">
<path fill-rule="evenodd" clip-rule="evenodd" d="M44.2552 47.1719C43.1875 46.8073 42.1458 45.1042 41.9844 44C41.8281 42.8958 42.0833 41.6875 43.4844 41.25C46.0469 40.4531 46.7292 44.0677 46.4531 45.6614C46.2708 46.6875 45.4531 47.5781 44.2552 47.1719Z" fill="#D9D2C8"/>
</g>
</g>
</g>
<mask id="mask81_131_77827" style="mask-type:luminance" maskUnits="userSpaceOnUse" x="6" y="52" width="8" height="7">
<path d="M6.66666 52H13.3333V58.6667H6.66666V52Z" fill="white"/>
</mask>
<g mask="url(#mask81_131_77827)">
<mask id="mask82_131_77827" style="mask-type:luminance" maskUnits="userSpaceOnUse" x="4" y="41" width="25" height="23">
<path d="M4.47916 48.0469L22.2292 41.276L28.2917 57.1614L10.5417 63.9323L4.47916 48.0469Z" fill="white"/>
</mask>
<g mask="url(#mask82_131_77827)">
<mask id="mask83_131_77827" style="mask-type:luminance" maskUnits="userSpaceOnUse" x="4" y="41" width="25" height="23">
<path d="M4.47916 48.0469L22.2292 41.276L28.2917 57.1614L10.5417 63.9323L4.47916 48.0469Z" fill="white"/>
</mask>
<g mask="url(#mask83_131_77827)">
<path fill-rule="evenodd" clip-rule="evenodd" d="M11.3594 57.3906C12.5521 56.4844 12.401 54.8437 11.4375 53.9948C9.34896 52.1354 6.27083 53.4114 7.64583 56.2708C8.27083 57.5729 9.5625 58.75 11.3594 57.3906Z" fill="#D9D2C8"/>
</g>
</g>
</g>
<mask id="mask84_131_77827" style="mask-type:luminance" maskUnits="userSpaceOnUse" x="20" y="46" width="6" height="8">
<path d="M20 46.6667H25.3333V53.3333H20V46.6667Z" fill="white"/>
</mask>
<g mask="url(#mask84_131_77827)">
<mask id="mask85_131_77827" style="mask-type:luminance" maskUnits="userSpaceOnUse" x="4" y="41" width="25" height="23">
<path d="M4.47916 48.0469L22.2292 41.276L28.2917 57.1614L10.5417 63.9323L4.47916 48.0469Z" fill="white"/>
</mask>
<g mask="url(#mask85_131_77827)">
<mask id="mask86_131_77827" style="mask-type:luminance" maskUnits="userSpaceOnUse" x="4" y="41" width="25" height="23">
<path d="M4.47916 48.0469L22.2292 41.276L28.2917 57.1614L10.5417 63.9323L4.47916 48.0469Z" fill="white"/>
</mask>
<g mask="url(#mask86_131_77827)">
<path fill-rule="evenodd" clip-rule="evenodd" d="M20.901 51.9271C22 52.9479 23.5885 52.526 24.2656 51.4323C25.7396 49.0521 24.651 45.6771 22.0625 47.5156C20.8906 48.3542 19.2552 50.3906 20.901 51.9271Z" fill="#D9D2C8"/>
</g>
</g>
</g>
<mask id="mask87_131_77827" style="mask-type:luminance" maskUnits="userSpaceOnUse" x="8" y="45" width="7" height="7">
<path d="M8 45.3333H14.6667V52H8V45.3333Z" fill="white"/>
</mask>
<g mask="url(#mask87_131_77827)">
<mask id="mask88_131_77827" style="mask-type:luminance" maskUnits="userSpaceOnUse" x="4" y="41" width="25" height="23">
<path d="M4.47916 48.0469L22.2292 41.2761L28.2917 57.1615L10.5417 63.9323L4.47916 48.0469Z" fill="white"/>
</mask>
<g mask="url(#mask88_131_77827)">
<mask id="mask89_131_77827" style="mask-type:luminance" maskUnits="userSpaceOnUse" x="4" y="41" width="25" height="23">
<path d="M4.47916 48.0469L22.2292 41.2761L28.2917 57.1615L10.5417 63.9323L4.47916 48.0469Z" fill="white"/>
</mask>
<g mask="url(#mask89_131_77827)">
<path fill-rule="evenodd" clip-rule="evenodd" d="M13.625 51.0573C14.1823 50.0781 13.8281 48.1094 13.2083 47.1771C12.5885 46.25 11.5885 45.5156 10.2552 46.125C7.80729 47.2396 9.70833 50.3906 10.9792 51.3906C11.7917 52.0313 13 52.1563 13.625 51.0573Z" fill="#D9D2C8"/>
</g>
</g>
</g>
<mask id="mask90_131_77827" style="mask-type:luminance" maskUnits="userSpaceOnUse" x="12" y="52" width="14" height="8">
<path d="M12 52H25.3333V60H12V52Z" fill="white"/>
</mask>
<g mask="url(#mask90_131_77827)">
<mask id="mask91_131_77827" style="mask-type:luminance" maskUnits="userSpaceOnUse" x="4" y="41" width="25" height="23">
<path d="M4.47916 48.0469L22.2292 41.276L28.2917 57.1614L10.5417 63.9323L4.47916 48.0469Z" fill="white"/>
</mask>
<g mask="url(#mask91_131_77827)">
<mask id="mask92_131_77827" style="mask-type:luminance" maskUnits="userSpaceOnUse" x="4" y="41" width="25" height="23">
<path d="M4.47916 48.0469L22.2292 41.276L28.2917 57.1614L10.5417 63.9323L4.47916 48.0469Z" fill="white"/>
</mask>
<g mask="url(#mask92_131_77827)">
<path fill-rule="evenodd" clip-rule="evenodd" d="M12.6615 60.6771C12.9479 61.4062 13.6354 62.0833 15.25 61.7239C17.8437 61.1406 17.9115 58.4271 20.4427 59.25C20.4427 59.25 21.5208 59.5937 22.7344 59.1979C23.5677 58.8489 24.2292 58.3646 24.224 57.0677C24.2135 54.6406 23.1823 54.9739 21.1406 54.0208C19.099 53.0677 17.6198 51.776 16.1042 52.0521C14.5885 52.3333 13.724 54.5833 13.5625 55.9791C13.3385 57.875 12.0104 59.0469 12.6615 60.6771Z" fill="#D9D2C8"/>
</g>
</g>
</g>
<mask id="mask93_131_77827" style="mask-type:luminance" maskUnits="userSpaceOnUse" x="13" y="42" width="7" height="9">
<path d="M13.3333 42.6667H20V50.6667H13.3333V42.6667Z" fill="white"/>
</mask>
<g mask="url(#mask93_131_77827)">
<mask id="mask94_131_77827" style="mask-type:luminance" maskUnits="userSpaceOnUse" x="4" y="41" width="25" height="23">
<path d="M4.47917 48.0469L22.2292 41.276L28.2917 57.1614L10.5417 63.9323L4.47917 48.0469Z" fill="white"/>
</mask>
<g mask="url(#mask94_131_77827)">
<mask id="mask95_131_77827" style="mask-type:luminance" maskUnits="userSpaceOnUse" x="4" y="41" width="25" height="23">
<path d="M4.47917 48.0469L22.2292 41.276L28.2917 57.1614L10.5417 63.9323L4.47917 48.0469Z" fill="white"/>
</mask>
<g mask="url(#mask95_131_77827)">
<path fill-rule="evenodd" clip-rule="evenodd" d="M16.6563 49.625C15.5885 49.2604 14.5417 47.5573 14.3854 46.4531C14.2292 45.3489 14.4792 44.1406 15.8802 43.7031C18.4479 42.9062 19.1302 46.5208 18.8542 48.1146C18.6719 49.1406 17.8542 50.0312 16.6563 49.625Z" fill="#D9D2C8"/>
</g>
</g>
</g>
</g>
<rect x="1" y="1" width="58" height="58" rx="9" stroke="#F3EBE1" stroke-width="2"/>
</g>
</g>
<defs>
<filter id="filter0_d_131_77827" x="0" y="0" width="65" height="65" filterUnits="userSpaceOnUse" color-interpolation-filters="sRGB">
<feFlood flood-opacity="0" result="BackgroundImageFix"/>
<feColorMatrix in="SourceAlpha" type="matrix" values="0 0 0 0 0 0 0 0 0 0 0 0 0 0 0 0 0 0 127 0" result="hardAlpha"/>
<feOffset dx="4" dy="4"/>
<feGaussianBlur stdDeviation="0.5"/>
<feComposite in2="hardAlpha" operator="out"/>
<feColorMatrix type="matrix" values="0 0 0 0 0 0 0 0 0 0 0 0 0 0 0 0 0 0 0.25 0"/>
<feBlend mode="normal" in2="BackgroundImageFix" result="effect1_dropShadow_131_77827"/>
<feBlend mode="normal" in="SourceGraphic" in2="effect1_dropShadow_131_77827" result="shape"/>
</filter>
<clipPath id="clip0_131_77827">
<rect width="60" height="60" rx="10" fill="white"/>
</clipPath>
<clipPath id="clip1_131_77827">
<rect width="60" height="60" rx="10" fill="white"/>
</clipPath>
</defs>
</svg>
