<svg width="80" height="80" viewBox="0 0 80 80" fill="none" xmlns="http://www.w3.org/2000/svg">
<g clip-path="url(#clip0_134_79371)">
<path d="M88 -8H-8V88H88V-8Z" fill="white"/>
<path d="M88 -8H-8V88H88V-8Z" fill="#C3B5AA"/>
<mask id="mask0_134_79371" style="mask-type:luminance" maskUnits="userSpaceOnUse" x="8" y="10" width="10" height="10">
<path d="M8.88889 10.6667H17.7778V19.5555H8.88889V10.6667Z" fill="white"/>
</mask>
<g mask="url(#mask0_134_79371)">
<mask id="mask1_134_79371" style="mask-type:luminance" maskUnits="userSpaceOnUse" x="5" y="-4" width="33" height="31">
<path d="M5.97223 5.22222L29.6389 -3.8125L37.7222 17.3681L14.0556 26.3958L5.97223 5.22222Z" fill="white"/>
</mask>
<g mask="url(#mask1_134_79371)">
<mask id="mask2_134_79371" style="mask-type:luminance" maskUnits="userSpaceOnUse" x="5" y="-4" width="33" height="31">
<path d="M5.97223 5.22222L29.6389 -3.8125L37.7222 17.3681L14.0556 26.3958L5.97223 5.22222Z" fill="white"/>
</mask>
<g mask="url(#mask2_134_79371)">
<path fill-rule="evenodd" clip-rule="evenodd" d="M15.1459 17.6736C16.7361 16.4722 16.5347 14.2847 15.25 13.1458C12.4653 10.6667 8.36113 12.3681 10.1945 16.1875C11.0278 17.9167 12.75 19.4931 15.1459 17.6736Z" fill="#D9D2C8"/>
</g>
</g>
</g>
<mask id="mask3_134_79371" style="mask-type:luminance" maskUnits="userSpaceOnUse" x="26" y="3" width="8" height="10">
<path d="M26.6667 3.55554H33.7778V12.4444H26.6667V3.55554Z" fill="white"/>
</mask>
<g mask="url(#mask3_134_79371)">
<mask id="mask4_134_79371" style="mask-type:luminance" maskUnits="userSpaceOnUse" x="5" y="-4" width="33" height="31">
<path d="M5.9722 5.22222L29.6389 -3.8125L37.7222 17.3681L14.0555 26.3958L5.9722 5.22222Z" fill="white"/>
</mask>
<g mask="url(#mask4_134_79371)">
<mask id="mask5_134_79371" style="mask-type:luminance" maskUnits="userSpaceOnUse" x="5" y="-4" width="33" height="31">
<path d="M5.9722 5.22222L29.6389 -3.8125L37.7222 17.3681L14.0555 26.3958L5.9722 5.22222Z" fill="white"/>
</mask>
<g mask="url(#mask5_134_79371)">
<path fill-rule="evenodd" clip-rule="evenodd" d="M27.868 10.3889C29.3333 11.75 31.4514 11.1875 32.3542 9.72918C34.3194 6.56251 32.868 2.05557 29.4167 4.5139C27.8542 5.62501 25.6736 8.34029 27.868 10.3889Z" fill="#D9D2C8"/>
</g>
</g>
</g>
<mask id="mask6_134_79371" style="mask-type:luminance" maskUnits="userSpaceOnUse" x="10" y="1" width="10" height="10">
<path d="M10.6667 1.77777H19.5555V10.6667H10.6667V1.77777Z" fill="white"/>
</mask>
<g mask="url(#mask6_134_79371)">
<mask id="mask7_134_79371" style="mask-type:luminance" maskUnits="userSpaceOnUse" x="5" y="-4" width="33" height="31">
<path d="M5.9722 5.22222L29.6389 -3.8125L37.7222 17.3681L14.0555 26.3958L5.9722 5.22222Z" fill="white"/>
</mask>
<g mask="url(#mask7_134_79371)">
<mask id="mask8_134_79371" style="mask-type:luminance" maskUnits="userSpaceOnUse" x="5" y="-4" width="33" height="31">
<path d="M5.9722 5.22222L29.6389 -3.8125L37.7222 17.3681L14.0555 26.3958L5.9722 5.22222Z" fill="white"/>
</mask>
<g mask="url(#mask8_134_79371)">
<path fill-rule="evenodd" clip-rule="evenodd" d="M18.1666 9.22918C18.9097 7.92362 18.4375 5.29863 17.6111 4.05557C16.7847 2.8264 15.4514 1.84029 13.6736 2.65279C10.4097 4.1389 12.9444 8.34029 14.6389 9.67362C15.7222 10.5347 17.3333 10.6945 18.1666 9.22918Z" fill="#D9D2C8"/>
</g>
</g>
</g>
<mask id="mask9_134_79371" style="mask-type:luminance" maskUnits="userSpaceOnUse" x="16" y="8" width="18" height="17">
<path d="M16 8.88889H33.7778V24.8889H16V8.88889Z" fill="white"/>
</mask>
<g mask="url(#mask9_134_79371)">
<mask id="mask10_134_79371" style="mask-type:luminance" maskUnits="userSpaceOnUse" x="5" y="-4" width="33" height="31">
<path d="M5.97223 5.22222L29.6389 -3.8125L37.7222 17.3681L14.0556 26.3958L5.97223 5.22222Z" fill="white"/>
</mask>
<g mask="url(#mask10_134_79371)">
<mask id="mask11_134_79371" style="mask-type:luminance" maskUnits="userSpaceOnUse" x="5" y="-4" width="33" height="31">
<path d="M5.97223 5.22222L29.6389 -3.8125L37.7222 17.3681L14.0556 26.3958L5.97223 5.22222Z" fill="white"/>
</mask>
<g mask="url(#mask11_134_79371)">
<path fill-rule="evenodd" clip-rule="evenodd" d="M16.882 22.0556C17.2639 23.0278 18.1806 23.9306 20.3333 23.4514C23.7917 22.6806 23.882 19.0625 27.257 20.1597C27.257 20.1597 28.6945 20.6181 30.3125 20.0833C31.4236 19.625 32.3056 18.9722 32.2986 17.25C32.2847 14.0069 30.9097 14.4514 28.1875 13.1875C25.4653 11.9097 23.4931 10.1875 21.4722 10.5625C19.4514 10.9306 18.2986 13.9306 18.0833 15.7917C17.7847 18.3194 16.0139 19.8819 16.882 22.0556Z" fill="#D9D2C8"/>
</g>
</g>
</g>
<mask id="mask12_134_79371" style="mask-type:luminance" maskUnits="userSpaceOnUse" x="17" y="0" width="10" height="9">
<path d="M17.7778 0H26.6667V8.88889H17.7778V0Z" fill="white"/>
</mask>
<g mask="url(#mask12_134_79371)">
<mask id="mask13_134_79371" style="mask-type:luminance" maskUnits="userSpaceOnUse" x="5" y="-4" width="33" height="31">
<path d="M5.97223 5.22222L29.6389 -3.8125L37.7222 17.3681L14.0556 26.3958L5.97223 5.22222Z" fill="white"/>
</mask>
<g mask="url(#mask13_134_79371)">
<mask id="mask14_134_79371" style="mask-type:luminance" maskUnits="userSpaceOnUse" x="5" y="-4" width="33" height="31">
<path d="M5.97223 5.22222L29.6389 -3.8125L37.7222 17.3681L14.0556 26.3958L5.97223 5.22222Z" fill="white"/>
</mask>
<g mask="url(#mask14_134_79371)">
<path fill-rule="evenodd" clip-rule="evenodd" d="M22.2083 7.31943C20.7847 6.84027 19.3889 4.56943 19.1806 3.09027C18.9722 1.61804 19.3056 0.00693309 21.1736 -0.576401C24.5972 -1.6389 25.5069 3.18054 25.1389 5.30554C24.8958 6.6736 23.8056 7.8611 22.2083 7.31943Z" fill="#D9D2C8"/>
</g>
</g>
</g>
<mask id="mask15_134_79371" style="mask-type:luminance" maskUnits="userSpaceOnUse" x="48" y="8" width="9" height="10">
<path d="M48 8.88889H56.8889V17.7778H48V8.88889Z" fill="white"/>
</mask>
<g mask="url(#mask15_134_79371)">
<mask id="mask16_134_79371" style="mask-type:luminance" maskUnits="userSpaceOnUse" x="45" y="-6" width="32" height="32">
<path d="M45.2292 3.8472L68.9028 -5.18057L76.9792 15.993L53.3125 25.0278L45.2292 3.8472Z" fill="white"/>
</mask>
<g mask="url(#mask16_134_79371)">
<mask id="mask17_134_79371" style="mask-type:luminance" maskUnits="userSpaceOnUse" x="45" y="-6" width="32" height="32">
<path d="M45.2292 3.8472L68.9028 -5.18057L76.9792 15.993L53.3125 25.0278L45.2292 3.8472Z" fill="white"/>
</mask>
<g mask="url(#mask17_134_79371)">
<path fill-rule="evenodd" clip-rule="evenodd" d="M54.4028 16.3055C55.993 15.0972 55.7916 12.9097 54.5069 11.7708C51.7222 9.29859 47.625 11 49.4514 14.8125C50.2847 16.5486 52.0069 18.118 54.4028 16.3055Z" fill="#D9D2C8"/>
</g>
</g>
</g>
<mask id="mask18_134_79371" style="mask-type:luminance" maskUnits="userSpaceOnUse" x="65" y="1" width="8" height="10">
<path d="M65.7778 1.77777H72.8889V10.6667H65.7778V1.77777Z" fill="white"/>
</mask>
<g mask="url(#mask18_134_79371)">
<mask id="mask19_134_79371" style="mask-type:luminance" maskUnits="userSpaceOnUse" x="45" y="-6" width="32" height="32">
<path d="M45.2292 3.8472L68.9028 -5.18057L76.9792 15.993L53.3125 25.0278L45.2292 3.8472Z" fill="white"/>
</mask>
<g mask="url(#mask19_134_79371)">
<mask id="mask20_134_79371" style="mask-type:luminance" maskUnits="userSpaceOnUse" x="45" y="-6" width="32" height="32">
<path d="M45.2292 3.8472L68.9028 -5.18057L76.9792 15.993L53.3125 25.0278L45.2292 3.8472Z" fill="white"/>
</mask>
<g mask="url(#mask20_134_79371)">
<path fill-rule="evenodd" clip-rule="evenodd" d="M67.125 9.02081C68.5903 10.3819 70.7083 9.81942 71.6111 8.36109C73.5764 5.18747 72.132 0.687475 68.6736 3.13886C67.1111 4.25692 64.9306 6.9722 67.125 9.02081Z" fill="#D9D2C8"/>
</g>
</g>
</g>
<mask id="mask21_134_79371" style="mask-type:luminance" maskUnits="userSpaceOnUse" x="49" y="0" width="10" height="11">
<path d="M49.7778 0H58.6667V10.6667H49.7778V0Z" fill="white"/>
</mask>
<g mask="url(#mask21_134_79371)">
<mask id="mask22_134_79371" style="mask-type:luminance" maskUnits="userSpaceOnUse" x="45" y="-6" width="32" height="32">
<path d="M45.2292 3.84723L68.9028 -5.18054L76.9792 15.9931L53.3125 25.0278L45.2292 3.84723Z" fill="white"/>
</mask>
<g mask="url(#mask22_134_79371)">
<mask id="mask23_134_79371" style="mask-type:luminance" maskUnits="userSpaceOnUse" x="45" y="-6" width="32" height="32">
<path d="M45.2292 3.84723L68.9028 -5.18054L76.9792 15.9931L53.3125 25.0278L45.2292 3.84723Z" fill="white"/>
</mask>
<g mask="url(#mask23_134_79371)">
<path fill-rule="evenodd" clip-rule="evenodd" d="M57.4236 7.86114C58.1667 6.55558 57.6944 3.92363 56.868 2.68752C56.0417 1.45141 54.7083 0.472246 52.9305 1.28475C49.6666 2.77086 52.2014 6.97225 53.8958 8.30558C54.9861 9.15975 56.5903 9.31947 57.4236 7.86114Z" fill="#D9D2C8"/>
</g>
</g>
</g>
<mask id="mask24_134_79371" style="mask-type:luminance" maskUnits="userSpaceOnUse" x="55" y="8" width="18" height="16">
<path d="M55.1111 8.88889H72.8889V23.1111H55.1111V8.88889Z" fill="white"/>
</mask>
<g mask="url(#mask24_134_79371)">
<mask id="mask25_134_79371" style="mask-type:luminance" maskUnits="userSpaceOnUse" x="45" y="-6" width="32" height="32">
<path d="M45.2292 3.8472L68.9028 -5.18057L76.9792 15.993L53.3125 25.0278L45.2292 3.8472Z" fill="white"/>
</mask>
<g mask="url(#mask25_134_79371)">
<mask id="mask26_134_79371" style="mask-type:luminance" maskUnits="userSpaceOnUse" x="45" y="-6" width="32" height="32">
<path d="M45.2292 3.8472L68.9028 -5.18057L76.9792 15.993L53.3125 25.0278L45.2292 3.8472Z" fill="white"/>
</mask>
<g mask="url(#mask26_134_79371)">
<path fill-rule="evenodd" clip-rule="evenodd" d="M56.1389 20.6875C56.5208 21.6528 57.4444 22.5555 59.5903 22.0833C63.0486 21.3055 63.1389 17.6875 66.5139 18.7847C66.5139 18.7847 67.9514 19.243 69.5694 18.7083C70.6806 18.25 71.5625 17.6041 71.5556 15.875C71.5417 12.6319 70.1667 13.0833 67.4514 11.8125C64.7222 10.5416 62.75 8.81248 60.7292 9.18748C58.7153 9.55553 57.5556 12.5625 57.3403 14.4236C57.0417 16.9514 55.2708 18.5139 56.1389 20.6875Z" fill="#D9D2C8"/>
</g>
</g>
</g>
<mask id="mask27_134_79371" style="mask-type:luminance" maskUnits="userSpaceOnUse" x="56" y="0" width="10" height="8">
<path d="M56.8889 0H65.7778V7.11111H56.8889V0Z" fill="white"/>
</mask>
<g mask="url(#mask27_134_79371)">
<mask id="mask28_134_79371" style="mask-type:luminance" maskUnits="userSpaceOnUse" x="45" y="-6" width="32" height="32">
<path d="M45.2292 3.84723L68.9028 -5.18054L76.9792 15.9931L53.3125 25.0278L45.2292 3.84723Z" fill="white"/>
</mask>
<g mask="url(#mask28_134_79371)">
<mask id="mask29_134_79371" style="mask-type:luminance" maskUnits="userSpaceOnUse" x="45" y="-6" width="32" height="32">
<path d="M45.2292 3.84723L68.9028 -5.18054L76.9792 15.9931L53.3125 25.0278L45.2292 3.84723Z" fill="white"/>
</mask>
<g mask="url(#mask29_134_79371)">
<path fill-rule="evenodd" clip-rule="evenodd" d="M61.4653 5.9514C60.0417 5.46529 58.6458 3.19446 58.4375 1.72224C58.2292 0.250013 58.5694 -1.36804 60.4306 -1.94443C63.8542 -3.01387 64.7639 1.81251 64.3958 3.93057C64.1528 5.30557 63.0625 6.49307 61.4653 5.9514Z" fill="#D9D2C8"/>
</g>
</g>
</g>
<mask id="mask30_134_79371" style="mask-type:luminance" maskUnits="userSpaceOnUse" x="26" y="39" width="10" height="9">
<path d="M26.6667 39.1111H35.5555V48H26.6667V39.1111Z" fill="white"/>
</mask>
<g mask="url(#mask30_134_79371)">
<mask id="mask31_134_79371" style="mask-type:luminance" maskUnits="userSpaceOnUse" x="24" y="24" width="33" height="32">
<path d="M24.2708 33.9583L47.9375 24.9236L56.0208 46.1042L32.3472 55.1319L24.2708 33.9583Z" fill="white"/>
</mask>
<g mask="url(#mask31_134_79371)">
<mask id="mask32_134_79371" style="mask-type:luminance" maskUnits="userSpaceOnUse" x="24" y="24" width="33" height="32">
<path d="M24.2708 33.9583L47.9375 24.9236L56.0208 46.1042L32.3472 55.1319L24.2708 33.9583Z" fill="white"/>
</mask>
<g mask="url(#mask32_134_79371)">
<path fill-rule="evenodd" clip-rule="evenodd" d="M33.4375 46.4167C35.0278 45.2084 34.8333 43.0209 33.5486 41.882C30.7569 39.4028 26.6597 41.1042 28.4861 44.9236C29.3264 46.6597 31.0486 48.2292 33.4375 46.4167Z" fill="#D9D2C8"/>
</g>
</g>
</g>
<mask id="mask33_134_79371" style="mask-type:luminance" maskUnits="userSpaceOnUse" x="44" y="32" width="8" height="9">
<path d="M44.4444 32H51.5555V40.8889H44.4444V32Z" fill="white"/>
</mask>
<g mask="url(#mask33_134_79371)">
<mask id="mask34_134_79371" style="mask-type:luminance" maskUnits="userSpaceOnUse" x="24" y="24" width="33" height="32">
<path d="M24.2708 33.9583L47.9375 24.9236L56.0208 46.1042L32.3472 55.1319L24.2708 33.9583Z" fill="white"/>
</mask>
<g mask="url(#mask34_134_79371)">
<mask id="mask35_134_79371" style="mask-type:luminance" maskUnits="userSpaceOnUse" x="24" y="24" width="33" height="32">
<path d="M24.2708 33.9583L47.9375 24.9236L56.0208 46.1042L32.3472 55.1319L24.2708 33.9583Z" fill="white"/>
</mask>
<g mask="url(#mask35_134_79371)">
<path fill-rule="evenodd" clip-rule="evenodd" d="M46.1666 39.125C47.625 40.4931 49.75 39.9306 50.6458 38.4653C52.6111 35.2986 51.1666 30.7986 47.7153 33.25C46.1458 34.3611 43.9653 37.0764 46.1666 39.125Z" fill="#D9D2C8"/>
</g>
</g>
</g>
<mask id="mask36_134_79371" style="mask-type:luminance" maskUnits="userSpaceOnUse" x="30" y="30" width="8" height="10">
<path d="M30.2222 30.2222H37.3333V39.1111H30.2222V30.2222Z" fill="white"/>
</mask>
<g mask="url(#mask36_134_79371)">
<mask id="mask37_134_79371" style="mask-type:luminance" maskUnits="userSpaceOnUse" x="24" y="24" width="33" height="32">
<path d="M24.2708 33.9583L47.9375 24.9236L56.0208 46.1042L32.3472 55.1319L24.2708 33.9583Z" fill="white"/>
</mask>
<g mask="url(#mask37_134_79371)">
<mask id="mask38_134_79371" style="mask-type:luminance" maskUnits="userSpaceOnUse" x="24" y="24" width="33" height="32">
<path d="M24.2708 33.9583L47.9375 24.9236L56.0208 46.1042L32.3472 55.1319L24.2708 33.9583Z" fill="white"/>
</mask>
<g mask="url(#mask38_134_79371)">
<path fill-rule="evenodd" clip-rule="evenodd" d="M36.4653 37.9653C37.2014 36.6597 36.7292 34.0347 35.9097 32.7917C35.0764 31.5625 33.75 30.5833 31.9722 31.3889C28.7083 32.875 31.2431 37.0764 32.9306 38.4167C34.0208 39.2708 35.6319 39.4306 36.4653 37.9653Z" fill="#D9D2C8"/>
</g>
</g>
</g>
<mask id="mask39_134_79371" style="mask-type:luminance" maskUnits="userSpaceOnUse" x="33" y="39" width="19" height="15">
<path d="M33.7778 39.1111H51.5556V53.3333H33.7778V39.1111Z" fill="white"/>
</mask>
<g mask="url(#mask39_134_79371)">
<mask id="mask40_134_79371" style="mask-type:luminance" maskUnits="userSpaceOnUse" x="24" y="24" width="33" height="32">
<path d="M24.2708 33.9583L47.9375 24.9236L56.0208 46.1042L32.3472 55.1319L24.2708 33.9583Z" fill="white"/>
</mask>
<g mask="url(#mask40_134_79371)">
<mask id="mask41_134_79371" style="mask-type:luminance" maskUnits="userSpaceOnUse" x="24" y="24" width="33" height="32">
<path d="M24.2708 33.9583L47.9375 24.9236L56.0208 46.1042L32.3472 55.1319L24.2708 33.9583Z" fill="white"/>
</mask>
<g mask="url(#mask41_134_79371)">
<path fill-rule="evenodd" clip-rule="evenodd" d="M35.1736 50.7917C35.5555 51.7639 36.4792 52.6667 38.625 52.1875C42.0903 51.4167 42.1805 47.7986 45.5486 48.8958C45.5486 48.8958 46.993 49.3542 48.6042 48.8195C49.7153 48.3611 50.5972 47.7153 50.5903 45.9861C50.5833 42.7431 49.2014 43.1875 46.4861 41.9236C43.7639 40.6528 41.7917 38.9236 39.7708 39.2986C37.75 39.6667 36.5972 42.6667 36.3819 44.5278C36.0764 47.0556 34.3125 48.6181 35.1736 50.7917Z" fill="#D9D2C8"/>
</g>
</g>
</g>
<mask id="mask42_134_79371" style="mask-type:luminance" maskUnits="userSpaceOnUse" x="37" y="26" width="8" height="12">
<path d="M37.3333 26.6667H44.4445V37.3333H37.3333V26.6667Z" fill="white"/>
</mask>
<g mask="url(#mask42_134_79371)">
<mask id="mask43_134_79371" style="mask-type:luminance" maskUnits="userSpaceOnUse" x="24" y="24" width="33" height="32">
<path d="M24.2708 33.9583L47.9375 24.9236L56.0208 46.1042L32.3472 55.1319L24.2708 33.9583Z" fill="white"/>
</mask>
<g mask="url(#mask43_134_79371)">
<mask id="mask44_134_79371" style="mask-type:luminance" maskUnits="userSpaceOnUse" x="24" y="24" width="33" height="32">
<path d="M24.2708 33.9583L47.9375 24.9236L56.0208 46.1042L32.3472 55.1319L24.2708 33.9583Z" fill="white"/>
</mask>
<g mask="url(#mask44_134_79371)">
<path fill-rule="evenodd" clip-rule="evenodd" d="M40.5 36.0555C39.0833 35.5764 37.6875 33.3055 37.4722 31.8333C37.2639 30.3542 37.6042 28.743 39.4722 28.1597C42.8958 27.0972 43.8056 31.9167 43.4306 34.0417C43.1944 35.4097 42.1042 36.6042 40.5 36.0555Z" fill="#D9D2C8"/>
</g>
</g>
</g>
<mask id="mask45_134_79371" style="mask-type:luminance" maskUnits="userSpaceOnUse" x="64" y="39" width="9" height="9">
<path d="M64 39.1111H72.8889V48H64V39.1111Z" fill="white"/>
</mask>
<g mask="url(#mask45_134_79371)">
<mask id="mask46_134_79371" style="mask-type:luminance" maskUnits="userSpaceOnUse" x="61" y="24" width="32" height="32">
<path d="M61.0695 33.9583L84.7361 24.9236L92.8195 46.1042L69.1458 55.1319L61.0695 33.9583Z" fill="white"/>
</mask>
<g mask="url(#mask46_134_79371)">
<mask id="mask47_134_79371" style="mask-type:luminance" maskUnits="userSpaceOnUse" x="61" y="24" width="32" height="32">
<path d="M61.0695 33.9583L84.7361 24.9236L92.8195 46.1042L69.1458 55.1319L61.0695 33.9583Z" fill="white"/>
</mask>
<g mask="url(#mask47_134_79371)">
<path fill-rule="evenodd" clip-rule="evenodd" d="M70.2361 46.4167C71.8334 45.2084 71.632 43.0209 70.3472 41.882C67.5556 39.4028 63.4583 41.1042 65.2847 44.9236C66.125 46.6597 67.8472 48.2292 70.2361 46.4167Z" fill="#D9D2C8"/>
</g>
</g>
</g>
<mask id="mask48_134_79371" style="mask-type:luminance" maskUnits="userSpaceOnUse" x="65" y="30" width="10" height="10">
<path d="M65.7778 30.2222H74.6667V39.1111H65.7778V30.2222Z" fill="white"/>
</mask>
<g mask="url(#mask48_134_79371)">
<mask id="mask49_134_79371" style="mask-type:luminance" maskUnits="userSpaceOnUse" x="61" y="24" width="32" height="32">
<path d="M61.0694 33.9583L84.7361 24.9236L92.8194 46.1042L69.1458 55.1319L61.0694 33.9583Z" fill="white"/>
</mask>
<g mask="url(#mask49_134_79371)">
<mask id="mask50_134_79371" style="mask-type:luminance" maskUnits="userSpaceOnUse" x="61" y="24" width="32" height="32">
<path d="M61.0694 33.9583L84.7361 24.9236L92.8194 46.1042L69.1458 55.1319L61.0694 33.9583Z" fill="white"/>
</mask>
<g mask="url(#mask50_134_79371)">
<path fill-rule="evenodd" clip-rule="evenodd" d="M73.2639 37.9653C74.0069 36.6597 73.5278 34.0347 72.7083 32.7917C71.875 31.5625 70.5486 30.5833 68.7708 31.3889C65.5069 32.875 68.0416 37.0764 69.7291 38.4167C70.8194 39.2708 72.4305 39.4306 73.2639 37.9653Z" fill="#D9D2C8"/>
</g>
</g>
</g>
<mask id="mask51_134_79371" style="mask-type:luminance" maskUnits="userSpaceOnUse" x="71" y="39" width="9" height="15">
<path d="M71.1111 39.1111H80V53.3333H71.1111V39.1111Z" fill="white"/>
</mask>
<g mask="url(#mask51_134_79371)">
<mask id="mask52_134_79371" style="mask-type:luminance" maskUnits="userSpaceOnUse" x="61" y="24" width="32" height="32">
<path d="M61.0695 33.9583L84.7361 24.9236L92.8195 46.1042L69.1458 55.1319L61.0695 33.9583Z" fill="white"/>
</mask>
<g mask="url(#mask52_134_79371)">
<mask id="mask53_134_79371" style="mask-type:luminance" maskUnits="userSpaceOnUse" x="61" y="24" width="32" height="32">
<path d="M61.0695 33.9583L84.7361 24.9236L92.8195 46.1042L69.1458 55.1319L61.0695 33.9583Z" fill="white"/>
</mask>
<g mask="url(#mask53_134_79371)">
<path fill-rule="evenodd" clip-rule="evenodd" d="M71.9792 50.7917C72.3611 51.7639 73.2778 52.6667 75.4236 52.1875C78.8889 51.4167 78.9792 47.7986 82.3472 48.8958C82.3472 48.8958 83.7917 49.3542 85.4097 48.8195C86.5139 48.3611 87.3959 47.7153 87.3959 45.9861C87.382 42.7431 86 43.1875 83.2847 41.9236C80.5625 40.6528 78.5903 38.9236 76.5695 39.2986C74.5486 39.6667 73.3959 42.6667 73.1806 44.5278C72.882 47.0556 71.1111 48.6181 71.9792 50.7917Z" fill="#D9D2C8"/>
</g>
</g>
</g>
<mask id="mask54_134_79371" style="mask-type:luminance" maskUnits="userSpaceOnUse" x="72" y="26" width="8" height="12">
<path d="M72.8889 26.6667H80V37.3333H72.8889V26.6667Z" fill="white"/>
</mask>
<g mask="url(#mask54_134_79371)">
<mask id="mask55_134_79371" style="mask-type:luminance" maskUnits="userSpaceOnUse" x="61" y="24" width="32" height="32">
<path d="M61.0694 33.9583L84.7361 24.9236L92.8194 46.1042L69.1458 55.1319L61.0694 33.9583Z" fill="white"/>
</mask>
<g mask="url(#mask55_134_79371)">
<mask id="mask56_134_79371" style="mask-type:luminance" maskUnits="userSpaceOnUse" x="61" y="24" width="32" height="32">
<path d="M61.0694 33.9583L84.7361 24.9236L92.8194 46.1042L69.1458 55.1319L61.0694 33.9583Z" fill="white"/>
</mask>
<g mask="url(#mask56_134_79371)">
<path fill-rule="evenodd" clip-rule="evenodd" d="M77.3055 36.0555C75.8819 35.5764 74.4861 33.3055 74.2708 31.8333C74.0625 30.3542 74.4028 28.743 76.2708 28.1597C79.6944 27.0972 80.6041 31.9167 80.2291 34.0417C79.993 35.4097 78.9028 36.6042 77.3055 36.0555Z" fill="#D9D2C8"/>
</g>
</g>
</g>
<mask id="mask57_134_79371" style="mask-type:luminance" maskUnits="userSpaceOnUse" x="7" y="33" width="9" height="10">
<path d="M7.11111 33.7778H16V42.6667H7.11111V33.7778Z" fill="white"/>
</mask>
<g mask="url(#mask57_134_79371)">
<mask id="mask58_134_79371" style="mask-type:luminance" maskUnits="userSpaceOnUse" x="-13" y="26" width="33" height="31">
<path d="M-12.743 35.3264L10.9306 26.2986L19.007 47.4722L-4.65971 56.5069L-12.743 35.3264Z" fill="white"/>
</mask>
<g mask="url(#mask58_134_79371)">
<mask id="mask59_134_79371" style="mask-type:luminance" maskUnits="userSpaceOnUse" x="-13" y="26" width="33" height="31">
<path d="M-12.743 35.3264L10.9306 26.2986L19.007 47.4722L-4.65971 56.5069L-12.743 35.3264Z" fill="white"/>
</mask>
<g mask="url(#mask59_134_79371)">
<path fill-rule="evenodd" clip-rule="evenodd" d="M9.1528 40.5C10.6181 41.8611 12.7361 41.2986 13.6389 39.8403C15.6042 36.6667 14.1597 32.1667 10.7084 34.6181C9.13891 35.7361 6.95835 38.4514 9.1528 40.5Z" fill="#D9D2C8"/>
</g>
</g>
</g>
<mask id="mask60_134_79371" style="mask-type:luminance" maskUnits="userSpaceOnUse" x="0" y="39" width="15" height="17">
<path d="M0 39.1111H14.2222V55.1111H0V39.1111Z" fill="white"/>
</mask>
<g mask="url(#mask60_134_79371)">
<mask id="mask61_134_79371" style="mask-type:luminance" maskUnits="userSpaceOnUse" x="-13" y="26" width="33" height="31">
<path d="M-12.743 35.3264L10.9306 26.2986L19.007 47.4722L-4.65971 56.5069L-12.743 35.3264Z" fill="white"/>
</mask>
<g mask="url(#mask61_134_79371)">
<mask id="mask62_134_79371" style="mask-type:luminance" maskUnits="userSpaceOnUse" x="-13" y="26" width="33" height="31">
<path d="M-12.743 35.3264L10.9306 26.2986L19.007 47.4722L-4.65971 56.5069L-12.743 35.3264Z" fill="white"/>
</mask>
<g mask="url(#mask62_134_79371)">
<path fill-rule="evenodd" clip-rule="evenodd" d="M-1.83333 52.1667C-1.45139 53.1319 -0.527778 54.0347 1.61806 53.5625C5.07639 52.7847 5.16667 49.1667 8.54167 50.2639C8.54167 50.2639 9.98611 50.7222 11.5972 50.1944C12.7083 49.7292 13.5903 49.0833 13.5833 47.3542C13.5694 44.1111 12.1944 44.5625 9.47917 43.2917C6.75 42.0208 4.77778 40.2917 2.76389 40.6667C0.743056 41.0347 -0.409722 44.0417 -0.624999 45.9028C-0.930556 48.4306 -2.70139 49.9931 -1.83333 52.1667Z" fill="#D9D2C8"/>
</g>
</g>
</g>
<mask id="mask63_134_79371" style="mask-type:luminance" maskUnits="userSpaceOnUse" x="0" y="28" width="8" height="12">
<path d="M0 28.4445H7.11111V39.1111H0V28.4445Z" fill="white"/>
</mask>
<g mask="url(#mask63_134_79371)">
<mask id="mask64_134_79371" style="mask-type:luminance" maskUnits="userSpaceOnUse" x="-13" y="26" width="33" height="31">
<path d="M-12.743 35.3264L10.9306 26.2986L19.007 47.4722L-4.65971 56.5069L-12.743 35.3264Z" fill="white"/>
</mask>
<g mask="url(#mask64_134_79371)">
<mask id="mask65_134_79371" style="mask-type:luminance" maskUnits="userSpaceOnUse" x="-13" y="26" width="33" height="31">
<path d="M-12.743 35.3264L10.9306 26.2986L19.007 47.4722L-4.65971 56.5069L-12.743 35.3264Z" fill="white"/>
</mask>
<g mask="url(#mask65_134_79371)">
<path fill-rule="evenodd" clip-rule="evenodd" d="M3.49307 37.4306C2.06946 36.9444 0.680573 34.6736 0.465296 33.2014C0.256962 31.7292 0.597241 30.1111 2.4653 29.5347C5.88196 28.4653 6.79168 33.2917 6.42363 35.4097C6.18057 36.7847 5.0903 37.9722 3.49307 37.4306Z" fill="#D9D2C8"/>
</g>
</g>
</g>
<mask id="mask66_134_79371" style="mask-type:luminance" maskUnits="userSpaceOnUse" x="46" y="67" width="8" height="8">
<path d="M46.2222 67.5555H53.3333V74.6667H46.2222V67.5555Z" fill="white"/>
</mask>
<g mask="url(#mask66_134_79371)">
<mask id="mask67_134_79371" style="mask-type:luminance" maskUnits="userSpaceOnUse" x="42" y="51" width="33" height="31">
<path d="M42.7708 60.7917L66.4445 51.7639L74.5208 72.9444L50.8542 81.9722L42.7708 60.7917Z" fill="white"/>
</mask>
<g mask="url(#mask67_134_79371)">
<mask id="mask68_134_79371" style="mask-type:luminance" maskUnits="userSpaceOnUse" x="42" y="51" width="33" height="31">
<path d="M42.7708 60.7917L66.4445 51.7639L74.5208 72.9444L50.8542 81.9722L42.7708 60.7917Z" fill="white"/>
</mask>
<g mask="url(#mask68_134_79371)">
<path fill-rule="evenodd" clip-rule="evenodd" d="M51.9444 73.25C53.5347 72.0416 53.3403 69.8541 52.0486 68.7222C49.2639 66.243 45.1667 67.9444 46.9931 71.7639C47.8264 73.493 49.5486 75.0625 51.9444 73.25Z" fill="#D9D2C8"/>
</g>
</g>
</g>
<mask id="mask69_134_79371" style="mask-type:luminance" maskUnits="userSpaceOnUse" x="62" y="58" width="10" height="10">
<path d="M62.2222 58.6667H71.1111V67.5555H62.2222V58.6667Z" fill="white"/>
</mask>
<g mask="url(#mask69_134_79371)">
<mask id="mask70_134_79371" style="mask-type:luminance" maskUnits="userSpaceOnUse" x="42" y="51" width="33" height="31">
<path d="M42.7708 60.7917L66.4445 51.7639L74.5208 72.9444L50.8542 81.9722L42.7708 60.7917Z" fill="white"/>
</mask>
<g mask="url(#mask70_134_79371)">
<mask id="mask71_134_79371" style="mask-type:luminance" maskUnits="userSpaceOnUse" x="42" y="51" width="33" height="31">
<path d="M42.7708 60.7917L66.4445 51.7639L74.5208 72.9444L50.8542 81.9722L42.7708 60.7917Z" fill="white"/>
</mask>
<g mask="url(#mask71_134_79371)">
<path fill-rule="evenodd" clip-rule="evenodd" d="M64.6667 65.9653C66.132 67.3264 68.25 66.7639 69.1528 65.3055C71.1181 62.1319 69.6736 57.6319 66.2222 60.0833C64.6528 61.2014 62.4722 63.9167 64.6667 65.9653Z" fill="#D9D2C8"/>
</g>
</g>
</g>
<mask id="mask72_134_79371" style="mask-type:luminance" maskUnits="userSpaceOnUse" x="48" y="56" width="9" height="12">
<path d="M48 56.8889H56.8889V67.5556H48V56.8889Z" fill="white"/>
</mask>
<g mask="url(#mask72_134_79371)">
<mask id="mask73_134_79371" style="mask-type:luminance" maskUnits="userSpaceOnUse" x="42" y="51" width="33" height="31">
<path d="M42.7708 60.7917L66.4445 51.7639L74.5208 72.9444L50.8542 81.9722L42.7708 60.7917Z" fill="white"/>
</mask>
<g mask="url(#mask73_134_79371)">
<mask id="mask74_134_79371" style="mask-type:luminance" maskUnits="userSpaceOnUse" x="42" y="51" width="33" height="31">
<path d="M42.7708 60.7917L66.4445 51.7639L74.5208 72.9444L50.8542 81.9722L42.7708 60.7917Z" fill="white"/>
</mask>
<g mask="url(#mask74_134_79371)">
<path fill-rule="evenodd" clip-rule="evenodd" d="M54.9722 64.8056C55.7083 63.5 55.2361 60.875 54.4097 59.632C53.5833 58.4028 52.25 57.4167 50.4722 58.2292C47.2083 59.7153 49.7431 63.9167 51.4375 65.25C52.5278 66.1111 54.1319 66.2708 54.9722 64.8056Z" fill="#D9D2C8"/>
</g>
</g>
</g>
<mask id="mask75_134_79371" style="mask-type:luminance" maskUnits="userSpaceOnUse" x="53" y="65" width="17" height="15">
<path d="M53.3333 65.7778H69.3333V80H53.3333V65.7778Z" fill="white"/>
</mask>
<g mask="url(#mask75_134_79371)">
<mask id="mask76_134_79371" style="mask-type:luminance" maskUnits="userSpaceOnUse" x="42" y="51" width="33" height="31">
<path d="M42.7708 60.7917L66.4445 51.7639L74.5208 72.9444L50.8542 81.9722L42.7708 60.7917Z" fill="white"/>
</mask>
<g mask="url(#mask76_134_79371)">
<mask id="mask77_134_79371" style="mask-type:luminance" maskUnits="userSpaceOnUse" x="42" y="51" width="33" height="31">
<path d="M42.7708 60.7917L66.4445 51.7639L74.5208 72.9444L50.8542 81.9722L42.7708 60.7917Z" fill="white"/>
</mask>
<g mask="url(#mask77_134_79371)">
<path fill-rule="evenodd" clip-rule="evenodd" d="M53.6806 77.6319C54.0625 78.6042 54.9861 79.5069 57.132 79.0278C60.5903 78.25 60.6806 74.6319 64.0556 75.7292C64.0556 75.7292 65.4931 76.1875 67.1111 75.6597C68.2222 75.2014 69.1042 74.5486 69.0972 72.8264C69.0834 69.5833 67.7084 70.0278 64.9931 68.7569C62.2639 67.4861 60.2917 65.7639 58.2778 66.1389C56.257 66.5069 55.1042 69.5069 54.8889 71.3681C54.5834 73.8958 52.8125 75.4583 53.6806 77.6319Z" fill="#D9D2C8"/>
</g>
</g>
</g>
<mask id="mask78_134_79371" style="mask-type:luminance" maskUnits="userSpaceOnUse" x="55" y="53" width="8" height="11">
<path d="M55.1111 53.3333H62.2222V64H55.1111V53.3333Z" fill="white"/>
</mask>
<g mask="url(#mask78_134_79371)">
<mask id="mask79_134_79371" style="mask-type:luminance" maskUnits="userSpaceOnUse" x="42" y="51" width="33" height="31">
<path d="M42.7708 60.7917L66.4445 51.7639L74.5208 72.9444L50.8542 81.9722L42.7708 60.7917Z" fill="white"/>
</mask>
<g mask="url(#mask79_134_79371)">
<mask id="mask80_134_79371" style="mask-type:luminance" maskUnits="userSpaceOnUse" x="42" y="51" width="33" height="31">
<path d="M42.7708 60.7917L66.4445 51.7639L74.5208 72.9444L50.8542 81.9722L42.7708 60.7917Z" fill="white"/>
</mask>
<g mask="url(#mask80_134_79371)">
<path fill-rule="evenodd" clip-rule="evenodd" d="M59.007 62.8958C57.5833 62.4097 56.1945 60.1389 55.9792 58.6667C55.7708 57.1944 56.1111 55.5833 57.9792 55C61.3958 53.9375 62.3056 58.7569 61.9375 60.8819C61.6945 62.25 60.6042 63.4375 59.007 62.8958Z" fill="#D9D2C8"/>
</g>
</g>
</g>
<mask id="mask81_134_79371" style="mask-type:luminance" maskUnits="userSpaceOnUse" x="8" y="69" width="10" height="10">
<path d="M8.88889 69.3333H17.7778V78.2222H8.88889V69.3333Z" fill="white"/>
</mask>
<g mask="url(#mask81_134_79371)">
<mask id="mask82_134_79371" style="mask-type:luminance" maskUnits="userSpaceOnUse" x="5" y="55" width="33" height="31">
<path d="M5.97223 64.0625L29.6389 55.0347L37.7222 76.2153L14.0556 85.2431L5.97223 64.0625Z" fill="white"/>
</mask>
<g mask="url(#mask82_134_79371)">
<mask id="mask83_134_79371" style="mask-type:luminance" maskUnits="userSpaceOnUse" x="5" y="55" width="33" height="31">
<path d="M5.97223 64.0625L29.6389 55.0347L37.7222 76.2153L14.0556 85.2431L5.97223 64.0625Z" fill="white"/>
</mask>
<g mask="url(#mask83_134_79371)">
<path fill-rule="evenodd" clip-rule="evenodd" d="M15.1459 76.5208C16.7361 75.3125 16.5347 73.125 15.25 71.9931C12.4653 69.5139 8.36113 71.2153 10.1945 75.0278C11.0278 76.7639 12.75 78.3333 15.1459 76.5208Z" fill="#D9D2C8"/>
</g>
</g>
</g>
<mask id="mask84_134_79371" style="mask-type:luminance" maskUnits="userSpaceOnUse" x="26" y="62" width="8" height="10">
<path d="M26.6667 62.2222H33.7778V71.1111H26.6667V62.2222Z" fill="white"/>
</mask>
<g mask="url(#mask84_134_79371)">
<mask id="mask85_134_79371" style="mask-type:luminance" maskUnits="userSpaceOnUse" x="5" y="55" width="33" height="31">
<path d="M5.9722 64.0625L29.6389 55.0347L37.7222 76.2153L14.0555 85.2431L5.9722 64.0625Z" fill="white"/>
</mask>
<g mask="url(#mask85_134_79371)">
<mask id="mask86_134_79371" style="mask-type:luminance" maskUnits="userSpaceOnUse" x="5" y="55" width="33" height="31">
<path d="M5.9722 64.0625L29.6389 55.0347L37.7222 76.2153L14.0555 85.2431L5.9722 64.0625Z" fill="white"/>
</mask>
<g mask="url(#mask86_134_79371)">
<path fill-rule="evenodd" clip-rule="evenodd" d="M27.868 69.2361C29.3333 70.5972 31.4514 70.0347 32.3542 68.5764C34.3194 65.4028 32.868 60.9028 29.4167 63.3542C27.8542 64.4722 25.6736 67.1875 27.868 69.2361Z" fill="#D9D2C8"/>
</g>
</g>
</g>
<mask id="mask87_134_79371" style="mask-type:luminance" maskUnits="userSpaceOnUse" x="10" y="60" width="10" height="10">
<path d="M10.6667 60.4445H19.5555V69.3333H10.6667V60.4445Z" fill="white"/>
</mask>
<g mask="url(#mask87_134_79371)">
<mask id="mask88_134_79371" style="mask-type:luminance" maskUnits="userSpaceOnUse" x="5" y="55" width="33" height="31">
<path d="M5.9722 64.0625L29.6389 55.0347L37.7222 76.2153L14.0555 85.2431L5.9722 64.0625Z" fill="white"/>
</mask>
<g mask="url(#mask88_134_79371)">
<mask id="mask89_134_79371" style="mask-type:luminance" maskUnits="userSpaceOnUse" x="5" y="55" width="33" height="31">
<path d="M5.9722 64.0625L29.6389 55.0347L37.7222 76.2153L14.0555 85.2431L5.9722 64.0625Z" fill="white"/>
</mask>
<g mask="url(#mask89_134_79371)">
<path fill-rule="evenodd" clip-rule="evenodd" d="M18.1666 68.0764C18.9097 66.7709 18.4375 64.1459 17.6111 62.9028C16.7847 61.6667 15.4514 60.6875 13.6736 61.5C10.4097 62.9861 12.9444 67.1875 14.6389 68.5208C15.7222 69.375 17.3333 69.5417 18.1666 68.0764Z" fill="#D9D2C8"/>
</g>
</g>
</g>
<mask id="mask90_134_79371" style="mask-type:luminance" maskUnits="userSpaceOnUse" x="16" y="69" width="18" height="11">
<path d="M16 69.3333H33.7778V80H16V69.3333Z" fill="white"/>
</mask>
<g mask="url(#mask90_134_79371)">
<mask id="mask91_134_79371" style="mask-type:luminance" maskUnits="userSpaceOnUse" x="5" y="55" width="33" height="31">
<path d="M5.97223 64.0625L29.6389 55.0347L37.7222 76.2153L14.0556 85.2431L5.97223 64.0625Z" fill="white"/>
</mask>
<g mask="url(#mask91_134_79371)">
<mask id="mask92_134_79371" style="mask-type:luminance" maskUnits="userSpaceOnUse" x="5" y="55" width="33" height="31">
<path d="M5.97223 64.0625L29.6389 55.0347L37.7222 76.2153L14.0556 85.2431L5.97223 64.0625Z" fill="white"/>
</mask>
<g mask="url(#mask92_134_79371)">
<path fill-rule="evenodd" clip-rule="evenodd" d="M16.882 80.9028C17.2639 81.875 18.1806 82.7778 20.3333 82.2986C23.7917 81.5208 23.882 77.9028 27.257 79C27.257 79 28.6945 79.4583 30.3125 78.9306C31.4236 78.4653 32.3056 77.8195 32.2986 76.0903C32.2847 72.8542 30.9097 73.2986 28.1875 72.0278C25.4653 70.757 23.4931 69.0347 21.4722 69.4028C19.4514 69.7778 18.2986 72.7778 18.0833 74.6389C17.7847 77.1667 16.0139 78.7292 16.882 80.9028Z" fill="#D9D2C8"/>
</g>
</g>
</g>
<mask id="mask93_134_79371" style="mask-type:luminance" maskUnits="userSpaceOnUse" x="17" y="56" width="10" height="12">
<path d="M17.7778 56.8889H26.6667V67.5556H17.7778V56.8889Z" fill="white"/>
</mask>
<g mask="url(#mask93_134_79371)">
<mask id="mask94_134_79371" style="mask-type:luminance" maskUnits="userSpaceOnUse" x="5" y="55" width="33" height="31">
<path d="M5.97223 64.0625L29.6389 55.0347L37.7222 76.2153L14.0556 85.2431L5.97223 64.0625Z" fill="white"/>
</mask>
<g mask="url(#mask94_134_79371)">
<mask id="mask95_134_79371" style="mask-type:luminance" maskUnits="userSpaceOnUse" x="5" y="55" width="33" height="31">
<path d="M5.97223 64.0625L29.6389 55.0347L37.7222 76.2153L14.0556 85.2431L5.97223 64.0625Z" fill="white"/>
</mask>
<g mask="url(#mask95_134_79371)">
<path fill-rule="evenodd" clip-rule="evenodd" d="M22.2083 66.1667C20.7847 65.6806 19.3889 63.4097 19.1806 61.9375C18.9722 60.4653 19.3056 58.8542 21.1736 58.2708C24.5972 57.2083 25.5069 62.0278 25.1389 64.1528C24.8958 65.5208 23.8056 66.7083 22.2083 66.1667Z" fill="#D9D2C8"/>
</g>
</g>
</g>
</g>
<rect x="1" y="1" width="78" height="78" rx="9" stroke="#F3EBE1" stroke-width="2"/>
<defs>
<clipPath id="clip0_134_79371">
<rect width="80" height="80" rx="10" fill="white"/>
</clipPath>
</defs>
</svg>
