<svg width="65" height="65" viewBox="0 0 65 65" fill="none" xmlns="http://www.w3.org/2000/svg">
<g filter="url(#filter0_d_131_77826)">
<g clip-path="url(#clip0_131_77826)">
<rect width="60" height="60" rx="10" fill="white"/>
<g opacity="0.9">
<g clip-path="url(#clip1_131_77826)">
<path d="M66 -6H-6V66H66V-6Z" fill="white"/>
<path d="M66 -6H-6V66H66V-6Z" fill="#C3B5AA"/>
<mask id="mask0_131_77826" style="mask-type:luminance" maskUnits="userSpaceOnUse" x="6" y="8" width="8" height="7">
<path d="M6.66666 8H13.3333V14.6667H6.66666V8Z" fill="white"/>
</mask>
<g mask="url(#mask0_131_77826)">
<mask id="mask1_131_77826" style="mask-type:luminance" maskUnits="userSpaceOnUse" x="4" y="-3" width="25" height="23">
<path d="M4.47916 3.91667L22.2292 -2.85938L28.2917 13.026L10.5417 19.7969L4.47916 3.91667Z" fill="white"/>
</mask>
<g mask="url(#mask1_131_77826)">
<mask id="mask2_131_77826" style="mask-type:luminance" maskUnits="userSpaceOnUse" x="4" y="-3" width="25" height="23">
<path d="M4.47916 3.91667L22.2292 -2.85938L28.2917 13.026L10.5417 19.7969L4.47916 3.91667Z" fill="white"/>
</mask>
<g mask="url(#mask2_131_77826)">
<path fill-rule="evenodd" clip-rule="evenodd" d="M11.3594 13.2552C12.5521 12.3541 12.401 10.7135 11.4375 9.85934C9.34896 7.99996 6.27083 9.27601 7.64583 12.1406C8.27083 13.4375 9.5625 14.6198 11.3594 13.2552Z" fill="#D9D2C8"/>
</g>
</g>
</g>
<mask id="mask3_131_77826" style="mask-type:luminance" maskUnits="userSpaceOnUse" x="20" y="2" width="6" height="8">
<path d="M20 2.66663H25.3333V9.33329H20V2.66663Z" fill="white"/>
</mask>
<g mask="url(#mask3_131_77826)">
<mask id="mask4_131_77826" style="mask-type:luminance" maskUnits="userSpaceOnUse" x="4" y="-3" width="25" height="23">
<path d="M4.47916 3.91667L22.2292 -2.85938L28.2917 13.026L10.5417 19.7969L4.47916 3.91667Z" fill="white"/>
</mask>
<g mask="url(#mask4_131_77826)">
<mask id="mask5_131_77826" style="mask-type:luminance" maskUnits="userSpaceOnUse" x="4" y="-3" width="25" height="23">
<path d="M4.47916 3.91667L22.2292 -2.85938L28.2917 13.026L10.5417 19.7969L4.47916 3.91667Z" fill="white"/>
</mask>
<g mask="url(#mask5_131_77826)">
<path fill-rule="evenodd" clip-rule="evenodd" d="M20.901 7.79166C22 8.8125 23.5885 8.39062 24.2656 7.29687C25.7396 4.92187 24.651 1.54166 22.0625 3.38541C20.8906 4.21874 19.2552 6.2552 20.901 7.79166Z" fill="#D9D2C8"/>
</g>
</g>
</g>
<mask id="mask6_131_77826" style="mask-type:luminance" maskUnits="userSpaceOnUse" x="8" y="1" width="7" height="7">
<path d="M8 1.33337H14.6667V8.00004H8V1.33337Z" fill="white"/>
</mask>
<g mask="url(#mask6_131_77826)">
<mask id="mask7_131_77826" style="mask-type:luminance" maskUnits="userSpaceOnUse" x="4" y="-3" width="25" height="23">
<path d="M4.47916 3.91667L22.2292 -2.85938L28.2917 13.026L10.5417 19.7969L4.47916 3.91667Z" fill="white"/>
</mask>
<g mask="url(#mask7_131_77826)">
<mask id="mask8_131_77826" style="mask-type:luminance" maskUnits="userSpaceOnUse" x="4" y="-3" width="25" height="23">
<path d="M4.47916 3.91667L22.2292 -2.85938L28.2917 13.026L10.5417 19.7969L4.47916 3.91667Z" fill="white"/>
</mask>
<g mask="url(#mask8_131_77826)">
<path fill-rule="evenodd" clip-rule="evenodd" d="M13.625 6.92188C14.1823 5.94271 13.8281 3.97396 13.2083 3.04167C12.5885 2.11979 11.5885 1.38021 10.2552 1.98959C7.80729 3.10417 9.70833 6.25521 10.9792 7.25521C11.7917 7.90104 13 8.02084 13.625 6.92188Z" fill="#D9D2C8"/>
</g>
</g>
</g>
<mask id="mask9_131_77826" style="mask-type:luminance" maskUnits="userSpaceOnUse" x="12" y="6" width="14" height="13">
<path d="M12 6.66663H25.3333V18.6666H12V6.66663Z" fill="white"/>
</mask>
<g mask="url(#mask9_131_77826)">
<mask id="mask10_131_77826" style="mask-type:luminance" maskUnits="userSpaceOnUse" x="4" y="-3" width="25" height="23">
<path d="M4.47916 3.91667L22.2292 -2.85938L28.2917 13.026L10.5417 19.7969L4.47916 3.91667Z" fill="white"/>
</mask>
<g mask="url(#mask10_131_77826)">
<mask id="mask11_131_77826" style="mask-type:luminance" maskUnits="userSpaceOnUse" x="4" y="-3" width="25" height="23">
<path d="M4.47916 3.91667L22.2292 -2.85938L28.2917 13.026L10.5417 19.7969L4.47916 3.91667Z" fill="white"/>
</mask>
<g mask="url(#mask11_131_77826)">
<path fill-rule="evenodd" clip-rule="evenodd" d="M12.6615 16.5417C12.9479 17.2709 13.6354 17.9479 15.25 17.5886C17.8437 17.0104 17.9115 14.2969 20.4427 15.1198C20.4427 15.1198 21.5208 15.4636 22.7344 15.0625C23.5677 14.7188 24.2292 14.2292 24.224 12.9375C24.2135 10.5052 23.1823 10.8386 21.1406 9.89065C19.099 8.93231 17.6198 7.64064 16.1042 7.92189C14.5885 8.19794 13.724 10.4479 13.5625 11.8438C13.3385 13.7396 12.0104 14.9115 12.6615 16.5417Z" fill="#D9D2C8"/>
</g>
</g>
</g>
<mask id="mask12_131_77826" style="mask-type:luminance" maskUnits="userSpaceOnUse" x="13" y="0" width="7" height="7">
<path d="M13.3333 0H20V6.66667H13.3333V0Z" fill="white"/>
</mask>
<g mask="url(#mask12_131_77826)">
<mask id="mask13_131_77826" style="mask-type:luminance" maskUnits="userSpaceOnUse" x="4" y="-3" width="25" height="23">
<path d="M4.47917 3.91667L22.2292 -2.85938L28.2917 13.026L10.5417 19.7969L4.47917 3.91667Z" fill="white"/>
</mask>
<g mask="url(#mask13_131_77826)">
<mask id="mask14_131_77826" style="mask-type:luminance" maskUnits="userSpaceOnUse" x="4" y="-3" width="25" height="23">
<path d="M4.47917 3.91667L22.2292 -2.85938L28.2917 13.026L10.5417 19.7969L4.47917 3.91667Z" fill="white"/>
</mask>
<g mask="url(#mask14_131_77826)">
<path fill-rule="evenodd" clip-rule="evenodd" d="M16.6563 5.48958C15.5885 5.13021 14.5417 3.42708 14.3854 2.31771C14.2292 1.21354 14.4792 0.00520748 15.8802 -0.432293C18.4479 -1.22917 19.1302 2.38542 18.8542 3.97917C18.6719 5.00521 17.8542 5.89583 16.6563 5.48958Z" fill="#D9D2C8"/>
</g>
</g>
</g>
<mask id="mask15_131_77826" style="mask-type:luminance" maskUnits="userSpaceOnUse" x="36" y="6" width="7" height="8">
<path d="M36 6.66663H42.6667V13.3333H36V6.66663Z" fill="white"/>
</mask>
<g mask="url(#mask15_131_77826)">
<mask id="mask16_131_77826" style="mask-type:luminance" maskUnits="userSpaceOnUse" x="33" y="-4" width="25" height="23">
<path d="M33.9219 2.88533L51.6771 -3.8855L57.7344 11.9947L39.9844 18.7708L33.9219 2.88533Z" fill="white"/>
</mask>
<g mask="url(#mask16_131_77826)">
<mask id="mask17_131_77826" style="mask-type:luminance" maskUnits="userSpaceOnUse" x="33" y="-4" width="25" height="23">
<path d="M33.9219 2.88533L51.6771 -3.8855L57.7344 11.9947L39.9844 18.7708L33.9219 2.88533Z" fill="white"/>
</mask>
<g mask="url(#mask17_131_77826)">
<path fill-rule="evenodd" clip-rule="evenodd" d="M40.8021 12.2291C41.9948 11.3229 41.8438 9.68226 40.8802 8.8281C38.7917 6.97393 35.7188 8.24997 37.0885 11.1093C37.7135 12.4114 39.0052 13.5885 40.8021 12.2291Z" fill="#D9D2C8"/>
</g>
</g>
</g>
<mask id="mask18_131_77826" style="mask-type:luminance" maskUnits="userSpaceOnUse" x="49" y="1" width="6" height="7">
<path d="M49.3333 1.33337H54.6667V8.00004H49.3333V1.33337Z" fill="white"/>
</mask>
<g mask="url(#mask18_131_77826)">
<mask id="mask19_131_77826" style="mask-type:luminance" maskUnits="userSpaceOnUse" x="33" y="-4" width="25" height="23">
<path d="M33.9219 2.88546L51.6771 -3.88538L57.7344 11.9948L39.9844 18.7709L33.9219 2.88546Z" fill="white"/>
</mask>
<g mask="url(#mask19_131_77826)">
<mask id="mask20_131_77826" style="mask-type:luminance" maskUnits="userSpaceOnUse" x="33" y="-4" width="25" height="23">
<path d="M33.9219 2.88546L51.6771 -3.88538L57.7344 11.9948L39.9844 18.7709L33.9219 2.88546Z" fill="white"/>
</mask>
<g mask="url(#mask20_131_77826)">
<path fill-rule="evenodd" clip-rule="evenodd" d="M50.3438 6.76565C51.4427 7.78649 53.0313 7.36461 53.7083 6.27086C55.1823 3.89065 54.099 0.515652 51.5052 2.35419C50.3333 3.19273 48.6979 5.22919 50.3438 6.76565Z" fill="#D9D2C8"/>
</g>
</g>
</g>
<mask id="mask21_131_77826" style="mask-type:luminance" maskUnits="userSpaceOnUse" x="37" y="0" width="7" height="8">
<path d="M37.3333 0H44V8H37.3333V0Z" fill="white"/>
</mask>
<g mask="url(#mask21_131_77826)">
<mask id="mask22_131_77826" style="mask-type:luminance" maskUnits="userSpaceOnUse" x="33" y="-4" width="25" height="23">
<path d="M33.9219 2.88546L51.6771 -3.88538L57.7344 11.9948L39.9844 18.7709L33.9219 2.88546Z" fill="white"/>
</mask>
<g mask="url(#mask22_131_77826)">
<mask id="mask23_131_77826" style="mask-type:luminance" maskUnits="userSpaceOnUse" x="33" y="-4" width="25" height="23">
<path d="M33.9219 2.88546L51.6771 -3.88538L57.7344 11.9948L39.9844 18.7709L33.9219 2.88546Z" fill="white"/>
</mask>
<g mask="url(#mask23_131_77826)">
<path fill-rule="evenodd" clip-rule="evenodd" d="M43.0677 5.8959C43.625 4.91673 43.2708 2.94277 42.651 2.01569C42.0313 1.0886 41.0313 0.35423 39.6979 0.963605C37.25 2.07819 39.151 5.22923 40.4219 6.22923C41.2396 6.86986 42.4427 6.98965 43.0677 5.8959Z" fill="#D9D2C8"/>
</g>
</g>
</g>
<mask id="mask24_131_77826" style="mask-type:luminance" maskUnits="userSpaceOnUse" x="41" y="6" width="14" height="12">
<path d="M41.3333 6.66663H54.6667V17.3333H41.3333V6.66663Z" fill="white"/>
</mask>
<g mask="url(#mask24_131_77826)">
<mask id="mask25_131_77826" style="mask-type:luminance" maskUnits="userSpaceOnUse" x="33" y="-4" width="25" height="23">
<path d="M33.9219 2.88533L51.6771 -3.8855L57.7344 11.9947L39.9844 18.7708L33.9219 2.88533Z" fill="white"/>
</mask>
<g mask="url(#mask25_131_77826)">
<mask id="mask26_131_77826" style="mask-type:luminance" maskUnits="userSpaceOnUse" x="33" y="-4" width="25" height="23">
<path d="M33.9219 2.88533L51.6771 -3.8855L57.7344 11.9947L39.9844 18.7708L33.9219 2.88533Z" fill="white"/>
</mask>
<g mask="url(#mask26_131_77826)">
<path fill-rule="evenodd" clip-rule="evenodd" d="M42.1042 15.5155C42.3906 16.2395 43.0833 16.9166 44.6927 16.5624C47.2865 15.9791 47.3542 13.2655 49.8854 14.0884C49.8854 14.0884 50.9635 14.4322 52.1771 14.0311C53.0104 13.6874 53.6719 13.203 53.6667 11.9061C53.6562 9.47385 52.625 9.81239 50.5885 8.85927C48.5417 7.90614 47.0625 6.60927 45.5469 6.89052C44.0365 7.16656 43.1667 9.42177 43.0052 10.8176C42.7812 12.7134 41.4531 13.8853 42.1042 15.5155Z" fill="#D9D2C8"/>
</g>
</g>
</g>
<mask id="mask27_131_77826" style="mask-type:luminance" maskUnits="userSpaceOnUse" x="42" y="0" width="8" height="6">
<path d="M42.6667 0H49.3333V5.33333H42.6667V0Z" fill="white"/>
</mask>
<g mask="url(#mask27_131_77826)">
<mask id="mask28_131_77826" style="mask-type:luminance" maskUnits="userSpaceOnUse" x="33" y="-4" width="25" height="23">
<path d="M33.9219 2.88546L51.6771 -3.88538L57.7344 11.9948L39.9844 18.7709L33.9219 2.88546Z" fill="white"/>
</mask>
<g mask="url(#mask28_131_77826)">
<mask id="mask29_131_77826" style="mask-type:luminance" maskUnits="userSpaceOnUse" x="33" y="-4" width="25" height="23">
<path d="M33.9219 2.88546L51.6771 -3.88538L57.7344 11.9948L39.9844 18.7709L33.9219 2.88546Z" fill="white"/>
</mask>
<g mask="url(#mask29_131_77826)">
<path fill-rule="evenodd" clip-rule="evenodd" d="M46.099 4.46361C45.0312 4.09902 43.9844 2.3959 43.8281 1.29173C43.6719 0.187564 43.9271 -1.02598 45.3229 -1.45827C47.8906 -2.26035 48.5729 1.35944 48.2969 2.94798C48.1146 3.97923 47.2969 4.86986 46.099 4.46361Z" fill="#D9D2C8"/>
</g>
</g>
</g>
<mask id="mask30_131_77826" style="mask-type:luminance" maskUnits="userSpaceOnUse" x="20" y="29" width="7" height="7">
<path d="M20 29.3334H26.6667V36H20V29.3334Z" fill="white"/>
</mask>
<g mask="url(#mask30_131_77826)">
<mask id="mask31_131_77826" style="mask-type:luminance" maskUnits="userSpaceOnUse" x="18" y="18" width="25" height="24">
<path d="M18.2031 25.4688L35.9531 18.6927L42.0156 34.5782L24.2604 41.349L18.2031 25.4688Z" fill="white"/>
</mask>
<g mask="url(#mask31_131_77826)">
<mask id="mask32_131_77826" style="mask-type:luminance" maskUnits="userSpaceOnUse" x="18" y="18" width="25" height="24">
<path d="M18.2031 25.4688L35.9531 18.6927L42.0156 34.5782L24.2604 41.349L18.2031 25.4688Z" fill="white"/>
</mask>
<g mask="url(#mask32_131_77826)">
<path fill-rule="evenodd" clip-rule="evenodd" d="M25.0781 34.8125C26.2708 33.9063 26.125 32.2656 25.1615 31.4115C23.0677 29.5521 19.9948 30.8281 21.3646 33.6927C21.9948 34.9948 23.2865 36.1719 25.0781 34.8125Z" fill="#D9D2C8"/>
</g>
</g>
</g>
<mask id="mask33_131_77826" style="mask-type:luminance" maskUnits="userSpaceOnUse" x="33" y="24" width="6" height="7">
<path d="M33.3333 24H38.6667V30.6667H33.3333V24Z" fill="white"/>
</mask>
<g mask="url(#mask33_131_77826)">
<mask id="mask34_131_77826" style="mask-type:luminance" maskUnits="userSpaceOnUse" x="18" y="18" width="25" height="24">
<path d="M18.2031 25.4688L35.9531 18.6927L42.0156 34.5782L24.2604 41.349L18.2031 25.4688Z" fill="white"/>
</mask>
<g mask="url(#mask34_131_77826)">
<mask id="mask35_131_77826" style="mask-type:luminance" maskUnits="userSpaceOnUse" x="18" y="18" width="25" height="24">
<path d="M18.2031 25.4688L35.9531 18.6927L42.0156 34.5782L24.2604 41.349L18.2031 25.4688Z" fill="white"/>
</mask>
<g mask="url(#mask35_131_77826)">
<path fill-rule="evenodd" clip-rule="evenodd" d="M34.625 29.3437C35.7187 30.3698 37.3125 29.9479 37.9844 28.8489C39.4583 26.4739 38.375 23.0989 35.7865 24.9375C34.6094 25.7708 32.974 27.8073 34.625 29.3437Z" fill="#D9D2C8"/>
</g>
</g>
</g>
<mask id="mask36_131_77826" style="mask-type:luminance" maskUnits="userSpaceOnUse" x="22" y="22" width="6" height="8">
<path d="M22.6667 22.6666H28V29.3333H22.6667V22.6666Z" fill="white"/>
</mask>
<g mask="url(#mask36_131_77826)">
<mask id="mask37_131_77826" style="mask-type:luminance" maskUnits="userSpaceOnUse" x="18" y="18" width="25" height="24">
<path d="M18.2031 25.4687L35.9531 18.6926L42.0156 34.578L24.2604 41.3489L18.2031 25.4687Z" fill="white"/>
</mask>
<g mask="url(#mask37_131_77826)">
<mask id="mask38_131_77826" style="mask-type:luminance" maskUnits="userSpaceOnUse" x="18" y="18" width="25" height="24">
<path d="M18.2031 25.4687L35.9531 18.6926L42.0156 34.578L24.2604 41.3489L18.2031 25.4687Z" fill="white"/>
</mask>
<g mask="url(#mask38_131_77826)">
<path fill-rule="evenodd" clip-rule="evenodd" d="M27.349 28.4739C27.901 27.4947 27.5469 25.526 26.9323 24.5937C26.3073 23.6718 25.3125 22.9374 23.9792 23.5416C21.5313 24.6562 23.4323 27.8072 24.6979 28.8124C25.5156 29.453 26.724 29.5728 27.349 28.4739Z" fill="#D9D2C8"/>
</g>
</g>
</g>
<mask id="mask39_131_77826" style="mask-type:luminance" maskUnits="userSpaceOnUse" x="25" y="29" width="14" height="11">
<path d="M25.3333 29.3334H38.6667V40H25.3333V29.3334Z" fill="white"/>
</mask>
<g mask="url(#mask39_131_77826)">
<mask id="mask40_131_77826" style="mask-type:luminance" maskUnits="userSpaceOnUse" x="18" y="18" width="25" height="24">
<path d="M18.2031 25.4688L35.9531 18.6927L42.0156 34.5782L24.2604 41.349L18.2031 25.4688Z" fill="white"/>
</mask>
<g mask="url(#mask40_131_77826)">
<mask id="mask41_131_77826" style="mask-type:luminance" maskUnits="userSpaceOnUse" x="18" y="18" width="25" height="24">
<path d="M18.2031 25.4688L35.9531 18.6927L42.0156 34.5782L24.2604 41.349L18.2031 25.4688Z" fill="white"/>
</mask>
<g mask="url(#mask41_131_77826)">
<path fill-rule="evenodd" clip-rule="evenodd" d="M26.3802 38.0938C26.6667 38.823 27.3594 39.5001 28.9687 39.1407C31.5677 38.5626 31.6354 35.849 34.1615 36.6719C34.1615 36.6719 35.2448 37.0157 36.4531 36.6146C37.2865 36.2709 37.9479 35.7865 37.9427 34.4896C37.9375 32.0573 36.901 32.3907 34.8646 31.4428C32.8229 30.4896 31.3437 29.1928 29.8281 29.474C28.3125 29.7501 27.4479 32.0001 27.2865 33.3959C27.0573 35.2917 25.7344 36.4636 26.3802 38.0938Z" fill="#D9D2C8"/>
</g>
</g>
</g>
<mask id="mask42_131_77826" style="mask-type:luminance" maskUnits="userSpaceOnUse" x="28" y="20" width="6" height="8">
<path d="M28 20H33.3333V28H28V20Z" fill="white"/>
</mask>
<g mask="url(#mask42_131_77826)">
<mask id="mask43_131_77826" style="mask-type:luminance" maskUnits="userSpaceOnUse" x="18" y="18" width="25" height="24">
<path d="M18.2031 25.4688L35.9531 18.6927L42.0156 34.5782L24.2604 41.349L18.2031 25.4688Z" fill="white"/>
</mask>
<g mask="url(#mask43_131_77826)">
<mask id="mask44_131_77826" style="mask-type:luminance" maskUnits="userSpaceOnUse" x="18" y="18" width="25" height="24">
<path d="M18.2031 25.4688L35.9531 18.6927L42.0156 34.5782L24.2604 41.349L18.2031 25.4688Z" fill="white"/>
</mask>
<g mask="url(#mask44_131_77826)">
<path fill-rule="evenodd" clip-rule="evenodd" d="M30.375 27.0417C29.3125 26.6823 28.2656 24.9792 28.1042 23.875C27.9479 22.7657 28.2031 21.5573 29.6042 21.1198C32.1719 20.323 32.8542 23.9375 32.5729 25.5313C32.3958 26.5573 31.5781 27.4532 30.375 27.0417Z" fill="#D9D2C8"/>
</g>
</g>
</g>
<mask id="mask45_131_77826" style="mask-type:luminance" maskUnits="userSpaceOnUse" x="48" y="29" width="7" height="7">
<path d="M48 29.3334H54.6667V36H48V29.3334Z" fill="white"/>
</mask>
<g mask="url(#mask45_131_77826)">
<mask id="mask46_131_77826" style="mask-type:luminance" maskUnits="userSpaceOnUse" x="45" y="18" width="25" height="24">
<path d="M45.8021 25.4688L63.5521 18.6927L69.6146 34.5782L51.8594 41.349L45.8021 25.4688Z" fill="white"/>
</mask>
<g mask="url(#mask46_131_77826)">
<mask id="mask47_131_77826" style="mask-type:luminance" maskUnits="userSpaceOnUse" x="45" y="18" width="25" height="24">
<path d="M45.8021 25.4688L63.5521 18.6927L69.6146 34.5782L51.8594 41.349L45.8021 25.4688Z" fill="white"/>
</mask>
<g mask="url(#mask47_131_77826)">
<path fill-rule="evenodd" clip-rule="evenodd" d="M52.6771 34.8125C53.875 33.9063 53.724 32.2656 52.7604 31.4115C50.6667 29.5521 47.5937 30.8281 48.9635 33.6927C49.5937 34.9948 50.8854 36.1719 52.6771 34.8125Z" fill="#D9D2C8"/>
</g>
</g>
</g>
<mask id="mask48_131_77826" style="mask-type:luminance" maskUnits="userSpaceOnUse" x="49" y="22" width="7" height="8">
<path d="M49.3333 22.6666H56V29.3333H49.3333V22.6666Z" fill="white"/>
</mask>
<g mask="url(#mask48_131_77826)">
<mask id="mask49_131_77826" style="mask-type:luminance" maskUnits="userSpaceOnUse" x="45" y="18" width="25" height="24">
<path d="M45.8021 25.4687L63.5521 18.6926L69.6146 34.578L51.8594 41.3489L45.8021 25.4687Z" fill="white"/>
</mask>
<g mask="url(#mask49_131_77826)">
<mask id="mask50_131_77826" style="mask-type:luminance" maskUnits="userSpaceOnUse" x="45" y="18" width="25" height="24">
<path d="M45.8021 25.4687L63.5521 18.6926L69.6146 34.578L51.8594 41.3489L45.8021 25.4687Z" fill="white"/>
</mask>
<g mask="url(#mask50_131_77826)">
<path fill-rule="evenodd" clip-rule="evenodd" d="M54.9479 28.4739C55.5052 27.4947 55.1458 25.526 54.5312 24.5937C53.9062 23.6718 52.9115 22.9374 51.5781 23.5416C49.1302 24.6562 51.0312 27.8072 52.2969 28.8124C53.1146 29.453 54.3229 29.5728 54.9479 28.4739Z" fill="#D9D2C8"/>
</g>
</g>
</g>
<mask id="mask51_131_77826" style="mask-type:luminance" maskUnits="userSpaceOnUse" x="53" y="29" width="7" height="11">
<path d="M53.3333 29.3334H60V40H53.3333V29.3334Z" fill="white"/>
</mask>
<g mask="url(#mask51_131_77826)">
<mask id="mask52_131_77826" style="mask-type:luminance" maskUnits="userSpaceOnUse" x="45" y="18" width="25" height="24">
<path d="M45.8021 25.4688L63.5521 18.6927L69.6146 34.5782L51.8594 41.349L45.8021 25.4688Z" fill="white"/>
</mask>
<g mask="url(#mask52_131_77826)">
<mask id="mask53_131_77826" style="mask-type:luminance" maskUnits="userSpaceOnUse" x="45" y="18" width="25" height="24">
<path d="M45.8021 25.4688L63.5521 18.6927L69.6146 34.5782L51.8594 41.349L45.8021 25.4688Z" fill="white"/>
</mask>
<g mask="url(#mask53_131_77826)">
<path fill-rule="evenodd" clip-rule="evenodd" d="M53.9844 38.0938C54.2708 38.823 54.9583 39.5001 56.5677 39.1407C59.1667 38.5626 59.2344 35.849 61.7604 36.6719C61.7604 36.6719 62.8437 37.0157 64.0573 36.6146C64.8854 36.2709 65.5469 35.7865 65.5469 34.4896C65.5365 32.0573 64.5 32.3907 62.4635 31.4428C60.4219 30.4896 58.9427 29.1928 57.4271 29.474C55.9115 29.7501 55.0469 32.0001 54.8854 33.3959C54.6615 35.2917 53.3333 36.4636 53.9844 38.0938Z" fill="#D9D2C8"/>
</g>
</g>
</g>
<mask id="mask54_131_77826" style="mask-type:luminance" maskUnits="userSpaceOnUse" x="54" y="20" width="6" height="8">
<path d="M54.6667 20H60V28H54.6667V20Z" fill="white"/>
</mask>
<g mask="url(#mask54_131_77826)">
<mask id="mask55_131_77826" style="mask-type:luminance" maskUnits="userSpaceOnUse" x="45" y="18" width="25" height="24">
<path d="M45.8021 25.4688L63.5521 18.6927L69.6146 34.5782L51.8594 41.349L45.8021 25.4688Z" fill="white"/>
</mask>
<g mask="url(#mask55_131_77826)">
<mask id="mask56_131_77826" style="mask-type:luminance" maskUnits="userSpaceOnUse" x="45" y="18" width="25" height="24">
<path d="M45.8021 25.4688L63.5521 18.6927L69.6146 34.5782L51.8594 41.349L45.8021 25.4688Z" fill="white"/>
</mask>
<g mask="url(#mask56_131_77826)">
<path fill-rule="evenodd" clip-rule="evenodd" d="M57.9792 27.0417C56.9115 26.6823 55.8646 24.9792 55.7031 23.875C55.5469 22.7657 55.8021 21.5573 57.2031 21.1198C59.7708 20.323 60.4531 23.9375 60.1719 25.5313C59.9948 26.5573 59.1771 27.4532 57.9792 27.0417Z" fill="#D9D2C8"/>
</g>
</g>
</g>
<mask id="mask57_131_77826" style="mask-type:luminance" maskUnits="userSpaceOnUse" x="5" y="25" width="7" height="7">
<path d="M5.33334 25.3334H12V32H5.33334V25.3334Z" fill="white"/>
</mask>
<g mask="url(#mask57_131_77826)">
<mask id="mask58_131_77826" style="mask-type:luminance" maskUnits="userSpaceOnUse" x="-10" y="19" width="25" height="24">
<path d="M-9.55729 26.4948L8.19792 19.724L14.2552 35.6042L-3.49479 42.3802L-9.55729 26.4948Z" fill="white"/>
</mask>
<g mask="url(#mask58_131_77826)">
<mask id="mask59_131_77826" style="mask-type:luminance" maskUnits="userSpaceOnUse" x="-10" y="19" width="25" height="24">
<path d="M-9.55729 26.4948L8.19792 19.724L14.2552 35.6042L-3.49479 42.3802L-9.55729 26.4948Z" fill="white"/>
</mask>
<g mask="url(#mask59_131_77826)">
<path fill-rule="evenodd" clip-rule="evenodd" d="M6.86459 30.375C7.96355 31.3959 9.55209 30.974 10.2292 29.8802C11.7031 27.5 10.6198 24.125 8.03126 25.9636C6.85417 26.8021 5.21876 28.8386 6.86459 30.375Z" fill="#D9D2C8"/>
</g>
</g>
</g>
<mask id="mask60_131_77826" style="mask-type:luminance" maskUnits="userSpaceOnUse" x="0" y="29" width="11" height="13">
<path d="M0 29.3334H10.6667V41.3334H0V29.3334Z" fill="white"/>
</mask>
<g mask="url(#mask60_131_77826)">
<mask id="mask61_131_77826" style="mask-type:luminance" maskUnits="userSpaceOnUse" x="-10" y="19" width="25" height="24">
<path d="M-9.55729 26.4948L8.19792 19.724L14.2552 35.6042L-3.49479 42.3802L-9.55729 26.4948Z" fill="white"/>
</mask>
<g mask="url(#mask61_131_77826)">
<mask id="mask62_131_77826" style="mask-type:luminance" maskUnits="userSpaceOnUse" x="-10" y="19" width="25" height="24">
<path d="M-9.55729 26.4948L8.19792 19.724L14.2552 35.6042L-3.49479 42.3802L-9.55729 26.4948Z" fill="white"/>
</mask>
<g mask="url(#mask62_131_77826)">
<path fill-rule="evenodd" clip-rule="evenodd" d="M-1.375 39.125C-1.08854 39.849 -0.395833 40.5261 1.21354 40.1719C3.80729 39.5886 3.875 36.875 6.40625 37.6979C6.40625 37.6979 7.48958 38.0417 8.69792 37.6458C9.53125 37.2969 10.1927 36.8125 10.1875 35.5156C10.1771 33.0833 9.14583 33.4219 7.10938 32.4688C5.0625 31.5156 3.58333 30.2188 2.07292 30.5C0.557292 30.7761 -0.307292 33.0313 -0.468749 34.4271C-0.697917 36.3229 -2.02604 37.4948 -1.375 39.125Z" fill="#D9D2C8"/>
</g>
</g>
</g>
<mask id="mask63_131_77826" style="mask-type:luminance" maskUnits="userSpaceOnUse" x="0" y="21" width="6" height="9">
<path d="M0 21.3334H5.33333V29.3334H0V21.3334Z" fill="white"/>
</mask>
<g mask="url(#mask63_131_77826)">
<mask id="mask64_131_77826" style="mask-type:luminance" maskUnits="userSpaceOnUse" x="-10" y="19" width="25" height="24">
<path d="M-9.55729 26.4948L8.19792 19.724L14.2552 35.6042L-3.49479 42.3802L-9.55729 26.4948Z" fill="white"/>
</mask>
<g mask="url(#mask64_131_77826)">
<mask id="mask65_131_77826" style="mask-type:luminance" maskUnits="userSpaceOnUse" x="-10" y="19" width="25" height="24">
<path d="M-9.55729 26.4948L8.19792 19.724L14.2552 35.6042L-3.49479 42.3802L-9.55729 26.4948Z" fill="white"/>
</mask>
<g mask="url(#mask65_131_77826)">
<path fill-rule="evenodd" clip-rule="evenodd" d="M2.61979 28.073C1.55208 27.7084 0.510414 26.0053 0.348957 24.9011C0.192706 23.7969 0.447916 22.5834 1.84896 22.1511C4.41146 21.349 5.09375 24.9688 4.81771 26.5574C4.63541 27.5886 3.81771 28.4792 2.61979 28.073Z" fill="#D9D2C8"/>
</g>
</g>
</g>
<mask id="mask66_131_77826" style="mask-type:luminance" maskUnits="userSpaceOnUse" x="34" y="50" width="6" height="6">
<path d="M34.6667 50.6666H40V56H34.6667V50.6666Z" fill="white"/>
</mask>
<g mask="url(#mask66_131_77826)">
<mask id="mask67_131_77826" style="mask-type:luminance" maskUnits="userSpaceOnUse" x="32" y="38" width="24" height="24">
<path d="M32.0781 45.5937L49.8333 38.8229L55.8906 54.7083L38.1406 61.4791L32.0781 45.5937Z" fill="white"/>
</mask>
<g mask="url(#mask67_131_77826)">
<mask id="mask68_131_77826" style="mask-type:luminance" maskUnits="userSpaceOnUse" x="32" y="38" width="24" height="24">
<path d="M32.0781 45.5937L49.8333 38.8229L55.8906 54.7083L38.1406 61.4791L32.0781 45.5937Z" fill="white"/>
</mask>
<g mask="url(#mask68_131_77826)">
<path fill-rule="evenodd" clip-rule="evenodd" d="M38.9583 54.9374C40.151 54.0312 40.0052 52.3905 39.0365 51.5416C36.9479 49.6822 33.875 50.9583 35.2448 53.8228C35.8698 55.1197 37.1615 56.2968 38.9583 54.9374Z" fill="#D9D2C8"/>
</g>
</g>
</g>
<mask id="mask69_131_77826" style="mask-type:luminance" maskUnits="userSpaceOnUse" x="46" y="44" width="8" height="7">
<path d="M46.6667 44H53.3333V50.6667H46.6667V44Z" fill="white"/>
</mask>
<g mask="url(#mask69_131_77826)">
<mask id="mask70_131_77826" style="mask-type:luminance" maskUnits="userSpaceOnUse" x="32" y="38" width="24" height="24">
<path d="M32.0781 45.5937L49.8333 38.8229L55.8906 54.7083L38.1406 61.4791L32.0781 45.5937Z" fill="white"/>
</mask>
<g mask="url(#mask70_131_77826)">
<mask id="mask71_131_77826" style="mask-type:luminance" maskUnits="userSpaceOnUse" x="32" y="38" width="24" height="24">
<path d="M32.0781 45.5937L49.8333 38.8229L55.8906 54.7083L38.1406 61.4791L32.0781 45.5937Z" fill="white"/>
</mask>
<g mask="url(#mask71_131_77826)">
<path fill-rule="evenodd" clip-rule="evenodd" d="M48.5 49.4739C49.599 50.4947 51.1875 50.0729 51.8646 48.9791C53.3385 46.5989 52.2552 43.2239 49.6667 45.0624C48.4896 45.901 46.8542 47.9374 48.5 49.4739Z" fill="#D9D2C8"/>
</g>
</g>
</g>
<mask id="mask72_131_77826" style="mask-type:luminance" maskUnits="userSpaceOnUse" x="36" y="42" width="7" height="9">
<path d="M36 42.6666H42.6667V50.6666H36V42.6666Z" fill="white"/>
</mask>
<g mask="url(#mask72_131_77826)">
<mask id="mask73_131_77826" style="mask-type:luminance" maskUnits="userSpaceOnUse" x="32" y="38" width="24" height="24">
<path d="M32.0781 45.5937L49.8333 38.8229L55.8906 54.7083L38.1406 61.4791L32.0781 45.5937Z" fill="white"/>
</mask>
<g mask="url(#mask73_131_77826)">
<mask id="mask74_131_77826" style="mask-type:luminance" maskUnits="userSpaceOnUse" x="32" y="38" width="24" height="24">
<path d="M32.0781 45.5937L49.8333 38.8229L55.8906 54.7083L38.1406 61.4791L32.0781 45.5937Z" fill="white"/>
</mask>
<g mask="url(#mask74_131_77826)">
<path fill-rule="evenodd" clip-rule="evenodd" d="M41.2292 48.6041C41.7813 47.625 41.4271 45.6562 40.8073 44.7239C40.1875 43.802 39.1875 43.0625 37.8542 43.6718C35.4063 44.7864 37.3073 47.9375 38.5781 48.9375C39.3958 49.5833 40.599 49.7031 41.2292 48.6041Z" fill="#D9D2C8"/>
</g>
</g>
</g>
<mask id="mask75_131_77826" style="mask-type:luminance" maskUnits="userSpaceOnUse" x="40" y="49" width="12" height="11">
<path d="M40 49.3334H52V60H40V49.3334Z" fill="white"/>
</mask>
<g mask="url(#mask75_131_77826)">
<mask id="mask76_131_77826" style="mask-type:luminance" maskUnits="userSpaceOnUse" x="32" y="38" width="24" height="24">
<path d="M32.0781 45.5938L49.8333 38.823L55.8906 54.7084L38.1406 61.4792L32.0781 45.5938Z" fill="white"/>
</mask>
<g mask="url(#mask76_131_77826)">
<mask id="mask77_131_77826" style="mask-type:luminance" maskUnits="userSpaceOnUse" x="32" y="38" width="24" height="24">
<path d="M32.0781 45.5938L49.8333 38.823L55.8906 54.7084L38.1406 61.4792L32.0781 45.5938Z" fill="white"/>
</mask>
<g mask="url(#mask77_131_77826)">
<path fill-rule="evenodd" clip-rule="evenodd" d="M40.2604 58.2241C40.5469 58.9532 41.2396 59.6303 42.849 59.2709C45.4427 58.6876 45.5104 55.9741 48.0417 56.797C48.0417 56.797 49.1198 57.1407 50.3333 56.7449C51.1667 56.4011 51.8281 55.9116 51.8229 54.6199C51.8125 52.1876 50.7813 52.5209 48.7448 51.5678C46.6979 50.6147 45.2188 49.323 43.7083 49.6043C42.1927 49.8803 41.3281 52.1303 41.1667 53.5261C40.9375 55.422 39.6094 56.5939 40.2604 58.2241Z" fill="#D9D2C8"/>
</g>
</g>
</g>
<mask id="mask78_131_77826" style="mask-type:luminance" maskUnits="userSpaceOnUse" x="41" y="40" width="6" height="8">
<path d="M41.3333 40H46.6667V48H41.3333V40Z" fill="white"/>
</mask>
<g mask="url(#mask78_131_77826)">
<mask id="mask79_131_77826" style="mask-type:luminance" maskUnits="userSpaceOnUse" x="32" y="38" width="24" height="24">
<path d="M32.0781 45.5937L49.8333 38.8229L55.8906 54.7083L38.1406 61.4791L32.0781 45.5937Z" fill="white"/>
</mask>
<g mask="url(#mask79_131_77826)">
<mask id="mask80_131_77826" style="mask-type:luminance" maskUnits="userSpaceOnUse" x="32" y="38" width="24" height="24">
<path d="M32.0781 45.5937L49.8333 38.8229L55.8906 54.7083L38.1406 61.4791L32.0781 45.5937Z" fill="white"/>
</mask>
<g mask="url(#mask80_131_77826)">
<path fill-rule="evenodd" clip-rule="evenodd" d="M44.2552 47.1718C43.1875 46.8073 42.1458 45.1041 41.9844 44C41.8281 42.8958 42.0833 41.6875 43.4844 41.25C46.0469 40.4531 46.7292 44.0677 46.4531 45.6614C46.2708 46.6875 45.4531 47.5781 44.2552 47.1718Z" fill="#D9D2C8"/>
</g>
</g>
</g>
<mask id="mask81_131_77826" style="mask-type:luminance" maskUnits="userSpaceOnUse" x="6" y="52" width="8" height="7">
<path d="M6.66666 52H13.3333V58.6667H6.66666V52Z" fill="white"/>
</mask>
<g mask="url(#mask81_131_77826)">
<mask id="mask82_131_77826" style="mask-type:luminance" maskUnits="userSpaceOnUse" x="4" y="41" width="25" height="23">
<path d="M4.47916 48.0468L22.2292 41.276L28.2917 57.1614L10.5417 63.9323L4.47916 48.0468Z" fill="white"/>
</mask>
<g mask="url(#mask82_131_77826)">
<mask id="mask83_131_77826" style="mask-type:luminance" maskUnits="userSpaceOnUse" x="4" y="41" width="25" height="23">
<path d="M4.47916 48.0468L22.2292 41.276L28.2917 57.1614L10.5417 63.9323L4.47916 48.0468Z" fill="white"/>
</mask>
<g mask="url(#mask83_131_77826)">
<path fill-rule="evenodd" clip-rule="evenodd" d="M11.3594 57.3906C12.5521 56.4844 12.401 54.8437 11.4375 53.9948C9.34896 52.1354 6.27083 53.4114 7.64583 56.2708C8.27083 57.5729 9.5625 58.75 11.3594 57.3906Z" fill="#D9D2C8"/>
</g>
</g>
</g>
<mask id="mask84_131_77826" style="mask-type:luminance" maskUnits="userSpaceOnUse" x="20" y="46" width="6" height="8">
<path d="M20 46.6666H25.3333V53.3333H20V46.6666Z" fill="white"/>
</mask>
<g mask="url(#mask84_131_77826)">
<mask id="mask85_131_77826" style="mask-type:luminance" maskUnits="userSpaceOnUse" x="4" y="41" width="25" height="23">
<path d="M4.47916 48.0468L22.2292 41.276L28.2917 57.1614L10.5417 63.9323L4.47916 48.0468Z" fill="white"/>
</mask>
<g mask="url(#mask85_131_77826)">
<mask id="mask86_131_77826" style="mask-type:luminance" maskUnits="userSpaceOnUse" x="4" y="41" width="25" height="23">
<path d="M4.47916 48.0468L22.2292 41.276L28.2917 57.1614L10.5417 63.9323L4.47916 48.0468Z" fill="white"/>
</mask>
<g mask="url(#mask86_131_77826)">
<path fill-rule="evenodd" clip-rule="evenodd" d="M20.901 51.927C22 52.9479 23.5885 52.526 24.2656 51.4322C25.7396 49.052 24.651 45.677 22.0625 47.5156C20.8906 48.3541 19.2552 50.3906 20.901 51.927Z" fill="#D9D2C8"/>
</g>
</g>
</g>
<mask id="mask87_131_77826" style="mask-type:luminance" maskUnits="userSpaceOnUse" x="8" y="45" width="7" height="7">
<path d="M8 45.3334H14.6667V52H8V45.3334Z" fill="white"/>
</mask>
<g mask="url(#mask87_131_77826)">
<mask id="mask88_131_77826" style="mask-type:luminance" maskUnits="userSpaceOnUse" x="4" y="41" width="25" height="23">
<path d="M4.47916 48.047L22.2292 41.2761L28.2917 57.1615L10.5417 63.9324L4.47916 48.047Z" fill="white"/>
</mask>
<g mask="url(#mask88_131_77826)">
<mask id="mask89_131_77826" style="mask-type:luminance" maskUnits="userSpaceOnUse" x="4" y="41" width="25" height="23">
<path d="M4.47916 48.047L22.2292 41.2761L28.2917 57.1615L10.5417 63.9324L4.47916 48.047Z" fill="white"/>
</mask>
<g mask="url(#mask89_131_77826)">
<path fill-rule="evenodd" clip-rule="evenodd" d="M13.625 51.0574C14.1823 50.0782 13.8281 48.1095 13.2083 47.1772C12.5885 46.2501 11.5885 45.5157 10.2552 46.1251C7.80729 47.2397 9.70833 50.3907 10.9792 51.3907C11.7917 52.0314 13 52.1564 13.625 51.0574Z" fill="#D9D2C8"/>
</g>
</g>
</g>
<mask id="mask90_131_77826" style="mask-type:luminance" maskUnits="userSpaceOnUse" x="12" y="52" width="14" height="8">
<path d="M12 52H25.3333V60H12V52Z" fill="white"/>
</mask>
<g mask="url(#mask90_131_77826)">
<mask id="mask91_131_77826" style="mask-type:luminance" maskUnits="userSpaceOnUse" x="4" y="41" width="25" height="23">
<path d="M4.47916 48.0468L22.2292 41.276L28.2917 57.1614L10.5417 63.9323L4.47916 48.0468Z" fill="white"/>
</mask>
<g mask="url(#mask91_131_77826)">
<mask id="mask92_131_77826" style="mask-type:luminance" maskUnits="userSpaceOnUse" x="4" y="41" width="25" height="23">
<path d="M4.47916 48.0468L22.2292 41.276L28.2917 57.1614L10.5417 63.9323L4.47916 48.0468Z" fill="white"/>
</mask>
<g mask="url(#mask92_131_77826)">
<path fill-rule="evenodd" clip-rule="evenodd" d="M12.6615 60.677C12.9479 61.4062 13.6354 62.0833 15.25 61.7239C17.8437 61.1406 17.9115 58.427 20.4427 59.2499C20.4427 59.2499 21.5208 59.5937 22.7344 59.1979C23.5677 58.8489 24.2292 58.3645 24.224 57.0677C24.2135 54.6406 23.1823 54.9739 21.1406 54.0208C19.099 53.0677 17.6198 51.776 16.1042 52.052C14.5885 52.3333 13.724 54.5833 13.5625 55.9791C13.3385 57.8749 12.0104 59.0468 12.6615 60.677Z" fill="#D9D2C8"/>
</g>
</g>
</g>
<mask id="mask93_131_77826" style="mask-type:luminance" maskUnits="userSpaceOnUse" x="13" y="42" width="7" height="9">
<path d="M13.3333 42.6666H20V50.6666H13.3333V42.6666Z" fill="white"/>
</mask>
<g mask="url(#mask93_131_77826)">
<mask id="mask94_131_77826" style="mask-type:luminance" maskUnits="userSpaceOnUse" x="4" y="41" width="25" height="23">
<path d="M4.47917 48.0468L22.2292 41.276L28.2917 57.1614L10.5417 63.9323L4.47917 48.0468Z" fill="white"/>
</mask>
<g mask="url(#mask94_131_77826)">
<mask id="mask95_131_77826" style="mask-type:luminance" maskUnits="userSpaceOnUse" x="4" y="41" width="25" height="23">
<path d="M4.47917 48.0468L22.2292 41.276L28.2917 57.1614L10.5417 63.9323L4.47917 48.0468Z" fill="white"/>
</mask>
<g mask="url(#mask95_131_77826)">
<path fill-rule="evenodd" clip-rule="evenodd" d="M16.6563 49.625C15.5885 49.2604 14.5417 47.5572 14.3854 46.4531C14.2292 45.3489 14.4792 44.1406 15.8802 43.7031C18.4479 42.9062 19.1302 46.5208 18.8542 48.1145C18.6719 49.1406 17.8542 50.0312 16.6563 49.625Z" fill="#D9D2C8"/>
</g>
</g>
</g>
<g clip-path="url(#clip2_131_77826)">
<path d="M66 -6H-6V66H66V-6Z" fill="white"/>
<path d="M66 -6H-6V66H66V-6Z" fill="#A67F6F"/>
<mask id="mask96_131_77826" style="mask-type:luminance" maskUnits="userSpaceOnUse" x="0" y="6" width="18" height="17">
<path d="M0 6.66663H17.3333V22.6666H0V6.66663Z" fill="white"/>
</mask>
<g mask="url(#mask96_131_77826)">
<mask id="mask97_131_77826" style="mask-type:luminance" maskUnits="userSpaceOnUse" x="-6" y="5" width="24" height="19">
<path d="M-5.10417 14.0155L13.1771 5.89575L17.2344 15.0312L-1.04167 23.1562L-5.10417 14.0155Z" fill="white"/>
</mask>
<g mask="url(#mask97_131_77826)">
<mask id="mask98_131_77826" style="mask-type:luminance" maskUnits="userSpaceOnUse" x="-6" y="5" width="24" height="19">
<path d="M-5.10417 14.0155L13.1771 5.89575L17.2344 15.0312L-1.04167 23.1562L-5.10417 14.0155Z" fill="white"/>
</mask>
<g mask="url(#mask98_131_77826)">
<path d="M15.7969 12.578C16.3802 13.6197 16.3802 14.5884 15.7969 15.4843C14.9427 16.7968 12.9948 17.0416 11.849 15.9999C11.6458 15.8176 11.4427 15.6093 11.2396 15.3749C11.2083 15.3384 11.1667 15.3124 11.125 15.302C10.9687 15.2655 10.8125 15.2759 10.6667 15.3384C9.75521 15.7291 7.35937 16.802 3.47916 18.5572C3.05208 18.7499 2.97396 18.9478 2.98958 19.3905C3.00521 19.8593 3.03125 20.2968 2.93229 20.6249C2.49479 22.078 0.838539 22.8436 -0.546877 22.2655C-0.708335 22.203 -0.859377 22.1145 -1.01042 22.0155C-2.375 21.0832 -2.43229 19.7551 -1.97917 18.302C-1.96354 18.2603 -1.98959 18.2134 -2.02604 18.1978C-2.45834 18.052 -2.80729 17.8697 -3.07813 17.6666C-4.1875 16.8072 -4.54688 15.3905 -3.92188 14.1561C-3.43229 13.1822 -2.17188 12.4686 -1.05208 12.6613C-0.19271 12.8072 0.249998 13.2551 0.86979 13.8436C0.953123 13.927 1.07812 13.9478 1.1875 13.9061C3.20312 13.078 5.47917 12.0884 8.01562 10.9322C8.55729 10.6822 8.97917 10.5259 8.97396 9.98426C8.97396 9.46864 8.94792 9.1301 9.0625 8.74468C9.4375 7.47385 10.7135 6.7551 11.9896 6.92176C12.0104 6.92697 12.026 6.92697 12.0417 6.93218C13.5729 7.16656 14.4844 8.67697 14.2917 10.2082C14.2604 10.4895 14.1302 10.7863 14.026 11.1249C14 11.2186 14.0417 11.3124 14.1354 11.3541C14.8437 11.6457 15.401 11.8749 15.7969 12.5832V12.578Z" fill="#543026"/>
<path d="M15.7969 12.578C16.3802 13.6196 16.3802 14.5884 15.7969 15.4842C14.9427 16.7967 12.9948 17.0415 11.849 15.9998C11.6458 15.8175 11.4427 15.6092 11.2396 15.3748C11.2083 15.3384 11.1667 15.3123 11.125 15.3019C10.9688 15.2655 10.8125 15.2759 10.6667 15.3384C9.75521 15.729 7.35937 16.8019 3.47917 18.5571C3.05208 18.7498 2.97396 18.9478 2.98958 19.3905C3.00521 19.8592 3.03125 20.2967 2.93229 20.6248C2.49479 22.078 0.838541 22.8436 -0.546875 22.2655C-0.244792 22.1353 0.104166 21.9946 0.385416 21.9269C0.5 21.8853 0.614584 21.8332 0.718749 21.7707C3.00521 20.3488 0.677082 18.3853 4.07292 17.2655C5.80208 16.5623 7.58854 15.7446 9.48437 14.8123C9.92187 14.604 10.3854 14.4113 10.8646 14.4009C11.8021 14.3644 12.5938 15.1769 13.5469 14.9113C14.9167 14.63 15.224 12.8748 13.8906 12.2863C13.5625 12.13 13.1146 12.1144 12.8073 11.9425C12.4063 11.7082 12.7917 11.2759 12.9635 10.9842C13.1927 10.6613 13.3542 10.2915 13.4167 9.89567C13.5625 9.06234 13.25 8.15088 12.625 7.5415C12.625 7.5415 12.6146 7.53109 12.5937 7.51546C12.4271 7.36963 12.2552 7.20817 12.1771 7.0988C12.1302 7.04671 12.0833 6.98942 12.0417 6.93213C13.5729 7.1665 14.4844 8.68213 14.2917 10.2082C14.2604 10.4894 14.1302 10.7863 14.026 11.1248C14 11.2186 14.0469 11.3123 14.1354 11.354C14.8437 11.6457 15.401 11.8748 15.7969 12.5832V12.578Z" fill="#F3EBE1"/>
</g>
</g>
</g>
<mask id="mask99_131_77826" style="mask-type:luminance" maskUnits="userSpaceOnUse" x="0" y="26" width="18" height="17">
<path d="M0 26.6666H17.3333V42.6666H0V26.6666Z" fill="white"/>
</mask>
<g mask="url(#mask99_131_77826)">
<mask id="mask100_131_77826" style="mask-type:luminance" maskUnits="userSpaceOnUse" x="-6" y="26" width="24" height="18">
<path d="M-5.10417 34.1562L13.1771 26.0364L17.2344 35.1718L-1.04167 43.2968L-5.10417 34.1562Z" fill="white"/>
</mask>
<g mask="url(#mask100_131_77826)">
<mask id="mask101_131_77826" style="mask-type:luminance" maskUnits="userSpaceOnUse" x="-6" y="26" width="24" height="18">
<path d="M-5.10417 34.1562L13.1771 26.0364L17.2344 35.1718L-1.04167 43.2968L-5.10417 34.1562Z" fill="white"/>
</mask>
<g mask="url(#mask101_131_77826)">
<path d="M15.7969 32.7186C16.3802 33.7603 16.3802 34.7291 15.7969 35.6249C14.9427 36.9374 12.9948 37.1822 11.849 36.1405C11.6458 35.9582 11.4427 35.7499 11.2396 35.5155C11.2083 35.4791 11.1667 35.453 11.125 35.4426C10.9687 35.4061 10.8125 35.4166 10.6667 35.4791C9.75521 35.8697 7.35937 36.9426 3.47916 38.6978C3.05208 38.8905 2.97396 39.0884 2.98958 39.5311C3.00521 39.9999 3.03125 40.4374 2.93229 40.7655C2.49479 42.2186 0.838539 42.9843 -0.546877 42.4061C-0.708335 42.3436 -0.859377 42.2603 -1.01042 42.1561C-2.375 41.2238 -2.43229 39.8957 -1.97917 38.4426C-1.96354 38.4009 -1.98959 38.3541 -2.02604 38.3384C-2.45834 38.1926 -2.80729 38.0103 -3.07813 37.8072C-4.1875 36.9478 -4.54688 35.5311 -3.92188 34.2968C-3.43229 33.3228 -2.17188 32.6093 -1.05208 32.802C-0.19271 32.9478 0.249998 33.3957 0.86979 33.9843C0.953123 34.0676 1.07812 34.0884 1.1875 34.0468C3.20312 33.2186 5.47917 32.2291 8.01562 31.0728C8.55729 30.8228 8.97917 30.6666 8.97396 30.1249C8.97396 29.6093 8.94792 29.2707 9.0625 28.8853C9.4375 27.6145 10.7135 26.8957 11.9896 27.0624C12.0104 27.0676 12.026 27.0676 12.0417 27.0728C13.5729 27.3072 14.4844 28.8228 14.2917 30.3488C14.2604 30.6301 14.1302 30.927 14.026 31.2655C14 31.3593 14.0417 31.453 14.1354 31.4947C14.8437 31.7863 15.401 32.0155 15.7969 32.7238V32.7186Z" fill="#543026"/>
<path d="M15.7969 32.7186C16.3802 33.7603 16.3802 34.729 15.7969 35.6248C14.9427 36.9373 12.9948 37.1821 11.849 36.1405C11.6458 35.9582 11.4427 35.7498 11.2396 35.5155C11.2083 35.479 11.1667 35.453 11.125 35.4425C10.9688 35.4061 10.8125 35.4165 10.6667 35.479C9.75521 35.8696 7.35937 36.9425 3.47917 38.6978C3.05208 38.8905 2.97396 39.0884 2.98958 39.5311C3.00521 39.9998 3.03125 40.4373 2.93229 40.7655C2.49479 42.2186 0.838541 42.9842 -0.546875 42.4061C-0.244792 42.2759 0.104166 42.1353 0.385416 42.0675C0.5 42.0259 0.614584 41.9738 0.718749 41.9113C3.00521 40.4894 0.677082 38.5259 4.07292 37.4061C5.80208 36.703 7.58854 35.8853 9.48437 34.953C9.92187 34.7446 10.3854 34.5519 10.8646 34.5415C11.8021 34.505 12.5938 35.3175 13.5469 35.0519C14.9167 34.7707 15.224 33.0155 13.8906 32.4269C13.5625 32.2707 13.1146 32.255 12.8073 32.0832C12.4063 31.8488 12.7917 31.4165 12.9635 31.1248C13.1927 30.8019 13.3542 30.4321 13.4167 30.0363C13.5625 29.203 13.25 28.2915 12.625 27.6821C12.625 27.6821 12.6146 27.6717 12.5937 27.6561C12.4271 27.5103 12.2552 27.3488 12.1771 27.2394C12.1302 27.1873 12.0833 27.13 12.0417 27.0728C13.5729 27.3071 14.4844 28.8228 14.2917 30.3488C14.2604 30.63 14.1302 30.9321 14.026 31.2655C14 31.3592 14.0469 31.453 14.1354 31.4946C14.8437 31.7863 15.401 32.0155 15.7969 32.7238V32.7186Z" fill="#F3EBE1"/>
</g>
</g>
</g>
<mask id="mask102_131_77826" style="mask-type:luminance" maskUnits="userSpaceOnUse" x="18" y="13" width="24" height="17">
<path d="M18.6667 13.3334H41.3333V29.3334H18.6667V13.3334Z" fill="white"/>
</mask>
<g mask="url(#mask102_131_77826)">
<mask id="mask103_131_77826" style="mask-type:luminance" maskUnits="userSpaceOnUse" x="18" y="12" width="24" height="18">
<path d="M18.8958 20.6354L37.1771 12.5156L41.2344 21.651L22.9583 29.7708L18.8958 20.6354Z" fill="white"/>
</mask>
<g mask="url(#mask103_131_77826)">
<mask id="mask104_131_77826" style="mask-type:luminance" maskUnits="userSpaceOnUse" x="18" y="12" width="24" height="18">
<path d="M18.8958 20.6354L37.1771 12.5156L41.2344 21.651L22.9583 29.7708L18.8958 20.6354Z" fill="white"/>
</mask>
<g mask="url(#mask104_131_77826)">
<path d="M39.7969 19.1979C40.3802 20.2344 40.3802 21.2031 39.7969 22.0989C38.9427 23.4166 36.9948 23.6614 35.849 22.6146C35.6458 22.4323 35.4427 22.2291 35.2396 21.9948C35.2083 21.9531 35.1667 21.9323 35.125 21.9219C34.9687 21.8802 34.8125 21.8906 34.6667 21.9583C33.7552 22.3489 31.3594 23.4219 27.4792 25.1719C27.0521 25.3646 26.974 25.5625 26.9896 26.0104C27.0052 26.4791 27.0312 26.9166 26.9323 27.2448C26.4948 28.6979 24.8385 29.4583 23.4531 28.8854C23.2917 28.8177 23.1406 28.7344 22.9896 28.6354C21.625 27.6979 21.5677 26.375 22.0208 24.9166C22.0365 24.8802 22.0104 24.8333 21.974 24.8177C21.5417 24.6666 21.1927 24.4896 20.9219 24.2864C19.8125 23.4271 19.4531 22.0052 20.0781 20.7708C20.5677 19.7969 21.8281 19.0885 22.9479 19.2812C23.8073 19.4271 24.25 19.875 24.8698 20.4635C24.9531 20.5469 25.0781 20.5677 25.1875 20.5208C27.2031 19.6979 29.4792 18.7083 32.0156 17.5521C32.5573 17.3021 32.9792 17.1406 32.974 16.6041C32.974 16.0885 32.9479 15.75 33.0625 15.3646C33.4375 14.0885 34.7135 13.375 35.9896 13.5416C36.0104 13.5416 36.026 13.5469 36.0417 13.5469C37.5729 13.7812 38.4844 15.2969 38.2917 16.8281C38.2604 17.1041 38.1302 17.4062 38.026 17.7448C38 17.8333 38.0417 17.9323 38.1354 17.9687C38.8437 18.2656 39.401 18.4948 39.7969 19.1979Z" fill="#543026"/>
</g>
</g>
</g>
<mask id="mask105_131_77826" style="mask-type:luminance" maskUnits="userSpaceOnUse" x="22" y="13" width="20" height="17">
<path d="M22.6667 13.3334H41.3333V29.3334H22.6667V13.3334Z" fill="white"/>
</mask>
<g mask="url(#mask105_131_77826)">
<mask id="mask106_131_77826" style="mask-type:luminance" maskUnits="userSpaceOnUse" x="18" y="12" width="24" height="18">
<path d="M18.8958 20.6354L37.1771 12.5156L41.2344 21.651L22.9583 29.7708L18.8958 20.6354Z" fill="white"/>
</mask>
<g mask="url(#mask106_131_77826)">
<mask id="mask107_131_77826" style="mask-type:luminance" maskUnits="userSpaceOnUse" x="18" y="12" width="24" height="18">
<path d="M18.8958 20.6354L37.1771 12.5156L41.2344 21.651L22.9583 29.7708L18.8958 20.6354Z" fill="white"/>
</mask>
<g mask="url(#mask107_131_77826)">
<path d="M39.7969 19.1979C40.3802 20.2344 40.3802 21.2031 39.7969 22.099C38.9427 23.4167 36.9948 23.6615 35.849 22.6146C35.6458 22.4323 35.4427 22.2292 35.2396 21.9948C35.2083 21.9531 35.1667 21.9323 35.125 21.9219C34.9688 21.8802 34.8125 21.8906 34.6667 21.9583C33.7552 22.349 31.3594 23.4219 27.4792 25.1719C27.0521 25.3646 26.974 25.5625 26.9896 26.0104C27.0052 26.4792 27.0313 26.9167 26.9323 27.2448C26.4948 28.6979 24.8385 29.4583 23.4531 28.8854C23.7552 28.75 24.1042 28.6146 24.3854 28.5469C24.5 28.5 24.6146 28.4531 24.7188 28.3854C27.0052 26.9688 24.6771 25.0052 28.0729 23.8854C29.8021 23.1771 31.5885 22.3594 33.4844 21.4271C33.9219 21.224 34.3854 21.0313 34.8646 21.0208C35.8021 20.9844 36.5938 21.7969 37.5469 21.5312C38.9167 21.2448 39.224 19.4948 37.8906 18.9063C37.5625 18.75 37.1146 18.7292 36.8073 18.5625C36.4063 18.3229 36.7917 17.8958 36.9635 17.6042C37.1927 17.2813 37.3542 16.9115 37.4167 16.5156C37.5625 15.6771 37.25 14.7708 36.625 14.1615C36.625 14.1615 36.6146 14.151 36.5938 14.1354C36.4271 13.9896 36.2552 13.8281 36.1771 13.7187C36.1302 13.6615 36.0833 13.6094 36.0417 13.5469C37.5729 13.7865 38.4844 15.2969 38.2917 16.8281C38.2604 17.1042 38.1302 17.4063 38.026 17.7448C38 17.8333 38.0469 17.9323 38.1354 17.9687C38.8438 18.2656 39.401 18.4948 39.7969 19.1979Z" fill="#F3EBE1"/>
</g>
</g>
</g>
<mask id="mask108_131_77826" style="mask-type:luminance" maskUnits="userSpaceOnUse" x="42" y="0" width="18" height="18">
<path d="M42.6667 0H60V17.3333H42.6667V0Z" fill="white"/>
</mask>
<g mask="url(#mask108_131_77826)">
<mask id="mask109_131_77826" style="mask-type:luminance" maskUnits="userSpaceOnUse" x="42" y="-1" width="24" height="19">
<path d="M42.8958 8.01567L61.1771 -0.104126L65.2344 9.03129L46.9583 17.1563L42.8958 8.01567Z" fill="white"/>
</mask>
<g mask="url(#mask109_131_77826)">
<mask id="mask110_131_77826" style="mask-type:luminance" maskUnits="userSpaceOnUse" x="42" y="-1" width="24" height="19">
<path d="M42.8958 8.01567L61.1771 -0.104126L65.2344 9.03129L46.9583 17.1563L42.8958 8.01567Z" fill="white"/>
</mask>
<g mask="url(#mask110_131_77826)">
<path d="M63.7969 6.57814C64.3802 7.6198 64.3802 8.58855 63.7969 9.48439C62.9427 10.7969 60.9948 11.0417 59.849 10C59.6458 9.81772 59.4427 9.60939 59.2396 9.37501C59.2083 9.33855 59.1667 9.31251 59.125 9.30209C58.9688 9.26564 58.8125 9.27605 58.6667 9.33855C57.7552 9.72918 55.3594 10.8021 51.4792 12.5573C51.0521 12.75 50.974 12.9479 50.9896 13.3906C51.0052 13.8594 51.0313 14.2969 50.9323 14.625C50.4948 16.0781 48.8385 16.8438 47.4531 16.2656C47.2917 16.2031 47.1406 16.1146 46.9896 16.0156C45.625 15.0833 45.5677 13.7552 46.0208 12.3021C46.0365 12.2604 46.0104 12.2136 45.974 12.1979C45.5417 12.0521 45.1927 11.8698 44.9219 11.6667C43.8125 10.8073 43.4531 9.39064 44.0781 8.15626C44.5677 7.1823 45.8281 6.46876 46.9479 6.66147C47.8073 6.8073 48.25 7.25522 48.8698 7.84376C48.9531 7.92709 49.0781 7.94793 49.1875 7.90626C51.2031 7.07814 53.4792 6.08855 56.0156 4.9323C56.5573 4.6823 56.9792 4.52605 56.974 3.98439C56.974 3.46876 56.9479 3.13022 57.0625 2.7448C57.4375 1.47397 58.7135 0.75522 59.9896 0.921886C60.0104 0.927094 60.026 0.927094 60.0417 0.932304C61.5729 1.16668 62.4844 2.67709 62.2917 4.20834C62.2604 4.4896 62.1302 4.78647 62.026 5.12501C62 5.21876 62.0417 5.31251 62.1354 5.35418C62.8438 5.64584 63.401 5.87501 63.7969 6.58334V6.57814Z" fill="#543026"/>
</g>
</g>
</g>
<mask id="mask111_131_77826" style="mask-type:luminance" maskUnits="userSpaceOnUse" x="46" y="0" width="14" height="18">
<path d="M46.6667 0H60V17.3333H46.6667V0Z" fill="white"/>
</mask>
<g mask="url(#mask111_131_77826)">
<mask id="mask112_131_77826" style="mask-type:luminance" maskUnits="userSpaceOnUse" x="42" y="-1" width="24" height="19">
<path d="M42.8958 8.01567L61.1771 -0.104126L65.2344 9.03129L46.9583 17.1563L42.8958 8.01567Z" fill="white"/>
</mask>
<g mask="url(#mask112_131_77826)">
<mask id="mask113_131_77826" style="mask-type:luminance" maskUnits="userSpaceOnUse" x="42" y="-1" width="24" height="19">
<path d="M42.8958 8.01567L61.1771 -0.104126L65.2344 9.03129L46.9583 17.1563L42.8958 8.01567Z" fill="white"/>
</mask>
<g mask="url(#mask113_131_77826)">
<path d="M63.7969 6.57821C64.3802 7.61987 64.3802 8.58862 63.7969 9.48446C62.9427 10.797 60.9948 11.0417 59.849 10.0001C59.6458 9.81779 59.4427 9.60946 59.2396 9.37508C59.2083 9.33862 59.1667 9.31258 59.125 9.30216C58.9688 9.26571 58.8125 9.27612 58.6667 9.33862C57.7552 9.72925 55.3594 10.8022 51.4792 12.5574C51.0521 12.7501 50.974 12.948 50.9896 13.3907C51.0052 13.8595 51.0313 14.297 50.9323 14.6251C50.4948 16.0782 48.8385 16.8438 47.4531 16.2657C47.7552 16.1355 48.1042 15.9949 48.3854 15.9272C48.5 15.8855 48.6146 15.8334 48.7188 15.7709C51.0052 14.349 48.6771 12.3855 52.0729 11.2657C53.8021 10.5626 55.5885 9.74487 57.4844 8.81258C57.9219 8.60425 58.3854 8.41154 58.8646 8.40112C59.8021 8.36466 60.5938 9.17716 61.5469 8.91154C62.9167 8.63029 63.224 6.87508 61.8906 6.28654C61.5625 6.13029 61.1146 6.11467 60.8073 5.94279C60.4063 5.70841 60.7917 5.27612 60.9635 4.98446C61.1927 4.66154 61.3542 4.29175 61.4167 3.89591C61.5625 3.06258 61.25 2.15112 60.625 1.54175C60.625 1.54175 60.6146 1.53133 60.5938 1.51571C60.4271 1.36987 60.2552 1.20841 60.1771 1.09904C60.1302 1.04696 60.0833 0.989665 60.0417 0.932373C61.5729 1.16675 62.4844 2.68237 62.2917 4.20841C62.2604 4.48967 62.1302 4.78654 62.026 5.12508C62 5.21883 62.0469 5.31258 62.1354 5.35425C62.8438 5.64591 63.401 5.87508 63.7969 6.58342V6.57821Z" fill="#F3EBE1"/>
</g>
</g>
</g>
<mask id="mask114_131_77826" style="mask-type:luminance" maskUnits="userSpaceOnUse" x="18" y="0" width="24" height="11">
<path d="M18.6667 0H41.3333V10.6667H18.6667V0Z" fill="white"/>
</mask>
<g mask="url(#mask114_131_77826)">
<mask id="mask115_131_77826" style="mask-type:luminance" maskUnits="userSpaceOnUse" x="18" y="-7" width="24" height="18">
<path d="M18.8958 1.57817L37.1771 -6.54163L41.2344 2.599L22.9583 10.7188L18.8958 1.57817Z" fill="white"/>
</mask>
<g mask="url(#mask115_131_77826)">
<mask id="mask116_131_77826" style="mask-type:luminance" maskUnits="userSpaceOnUse" x="18" y="-7" width="24" height="18">
<path d="M18.8958 1.57817L37.1771 -6.54163L41.2344 2.599L22.9583 10.7188L18.8958 1.57817Z" fill="white"/>
</mask>
<g mask="url(#mask116_131_77826)">
<path d="M39.7969 0.145917C40.3802 1.18238 40.3802 2.15112 39.7969 3.04696C38.9427 4.35946 36.9948 4.60425 35.849 3.56258C35.6458 3.38029 35.4427 3.17196 35.2396 2.93758C35.2083 2.90112 35.1667 2.87508 35.125 2.86467C34.9687 2.82821 34.8125 2.83862 34.6667 2.90633C33.7552 3.29696 31.3594 4.36988 27.4792 6.11988C27.0521 6.31258 26.974 6.5105 26.9896 6.95842C27.0052 7.42196 27.0312 7.85946 26.9323 8.19279C26.4948 9.64071 24.8385 10.4063 23.4531 9.83342C23.2917 9.76571 23.1406 9.68238 22.9896 9.57821C21.625 8.64592 21.5677 7.31779 22.0208 5.86467C22.0365 5.823 22.0104 5.77612 21.974 5.7605C21.5417 5.61467 21.1927 5.43758 20.9219 5.22925C19.8125 4.36988 19.4531 2.95321 20.0781 1.71883C20.5677 0.744875 21.8281 0.0313339 22.9479 0.224042C23.8073 0.369876 24.25 0.817792 24.8698 1.41154C24.9531 1.48967 25.0781 1.5105 25.1875 1.46883C27.2031 0.640709 29.4792 -0.343666 32.0156 -1.50512C32.5573 -1.75512 32.9792 -1.91138 32.974 -2.45304C32.974 -2.96867 32.9479 -3.30721 33.0625 -3.69262C33.4375 -4.96346 34.7135 -5.68221 35.9896 -5.51033C36.0104 -5.51033 36.026 -5.50512 36.0417 -5.50512C37.5729 -5.27075 38.4844 -3.75512 38.2917 -2.22908C38.2604 -1.94783 38.1302 -1.64575 38.026 -1.31242C38 -1.21867 38.0417 -1.12492 38.1354 -1.08325C38.8437 -0.791583 39.401 -0.562417 39.7969 0.145917Z" fill="#543026"/>
</g>
</g>
</g>
<mask id="mask117_131_77826" style="mask-type:luminance" maskUnits="userSpaceOnUse" x="22" y="0" width="20" height="11">
<path d="M22.6667 0H41.3333V10.6667H22.6667V0Z" fill="white"/>
</mask>
<g mask="url(#mask117_131_77826)">
<mask id="mask118_131_77826" style="mask-type:luminance" maskUnits="userSpaceOnUse" x="18" y="-7" width="24" height="18">
<path d="M18.8958 1.57817L37.1771 -6.54163L41.2344 2.599L22.9583 10.7188L18.8958 1.57817Z" fill="white"/>
</mask>
<g mask="url(#mask118_131_77826)">
<mask id="mask119_131_77826" style="mask-type:luminance" maskUnits="userSpaceOnUse" x="18" y="-7" width="24" height="18">
<path d="M18.8958 1.57817L37.1771 -6.54163L41.2344 2.599L22.9583 10.7188L18.8958 1.57817Z" fill="white"/>
</mask>
<g mask="url(#mask119_131_77826)">
<path d="M39.7969 0.145914C40.3802 1.18237 40.3802 2.15112 39.7969 3.04696C38.9427 4.35946 36.9948 4.60425 35.849 3.56258C35.6458 3.38029 35.4427 3.17196 35.2396 2.93758C35.2083 2.90112 35.1667 2.87508 35.125 2.86467C34.9688 2.82821 34.8125 2.83862 34.6667 2.90633C33.7552 3.29696 31.3594 4.36987 27.4792 6.11987C27.0521 6.31258 26.974 6.5105 26.9896 6.95842C27.0052 7.42196 27.0313 7.85946 26.9323 8.19279C26.4948 9.64071 24.8385 10.4063 23.4531 9.83342C23.7552 9.698 24.1042 9.55737 24.3854 9.48967C24.5 9.448 24.6146 9.39592 24.7188 9.33342C27.0052 7.91154 24.6771 5.948 28.0729 4.82821C29.8021 4.12508 31.5885 3.30737 33.4844 2.37508C33.9219 2.16675 34.3854 1.97404 34.8646 1.96362C35.8021 1.92716 36.5938 2.73967 37.5469 2.47925C38.9167 2.19279 39.224 0.437581 37.8906 -0.145752C37.5625 -0.307211 37.1146 -0.322836 36.8073 -0.489503C36.4063 -0.729086 36.7917 -1.16138 36.9635 -1.45304C37.1927 -1.77596 37.3542 -2.14575 37.4167 -2.53638C37.5625 -3.37492 37.25 -4.28638 36.625 -4.89054C36.625 -4.89054 36.6146 -4.90617 36.5938 -4.92179C36.4271 -5.06763 36.2552 -5.22388 36.1771 -5.33846C36.1302 -5.39054 36.0833 -5.44784 36.0417 -5.50513C37.5729 -5.27075 38.4844 -3.75513 38.2917 -2.22909C38.2604 -1.94784 38.1302 -1.64575 38.026 -1.30721C38 -1.21867 38.0469 -1.11971 38.1354 -1.08325C38.8438 -0.786378 39.401 -0.562419 39.7969 0.145914Z" fill="#F3EBE1"/>
</g>
</g>
</g>
<mask id="mask120_131_77826" style="mask-type:luminance" maskUnits="userSpaceOnUse" x="0" y="46" width="14" height="14">
<path d="M0 46.6666H13.3333V60H0V46.6666Z" fill="white"/>
</mask>
<g mask="url(#mask120_131_77826)">
<mask id="mask121_131_77826" style="mask-type:luminance" maskUnits="userSpaceOnUse" x="-9" y="46" width="23" height="18">
<path d="M-8.91667 54.5364L9.36458 46.4166L13.4219 55.5573L-4.85417 63.677L-8.91667 54.5364Z" fill="white"/>
</mask>
<g mask="url(#mask121_131_77826)">
<mask id="mask122_131_77826" style="mask-type:luminance" maskUnits="userSpaceOnUse" x="-9" y="46" width="23" height="18">
<path d="M-8.91667 54.5364L9.36458 46.4166L13.4219 55.5573L-4.85417 63.677L-8.91667 54.5364Z" fill="white"/>
</mask>
<g mask="url(#mask122_131_77826)">
<path d="M11.9844 53.1042C12.5677 54.1406 12.5677 55.1094 11.9844 56.0052C11.1302 57.3177 9.18229 57.5625 8.03646 56.5208C7.83854 56.3385 7.63541 56.1302 7.42708 55.8958C7.39583 55.8594 7.35937 55.8333 7.3125 55.8229C7.15625 55.7865 7.00521 55.7969 6.85416 55.8646C5.94271 56.2552 3.54687 57.3281 -0.333336 59.0781C-0.760418 59.2708 -0.838543 59.4688 -0.82292 59.9167C-0.802085 60.3802 -0.776043 60.8177 -0.88021 61.151C-1.31771 62.599 -2.97396 63.3646 -4.35417 62.7917C-4.52084 62.724 -4.67188 62.6406 -4.82292 62.5365C-6.1875 61.6042 -6.24479 60.276 -5.78646 58.8229C-5.77604 58.7813 -5.80208 58.7344 -5.83854 58.7188C-6.27084 58.5729 -6.61979 58.3958 -6.89063 58.1875C-8 57.3281 -8.35938 55.9115 -7.73438 54.6771C-7.24479 53.7031 -5.98438 52.9896 -4.86459 53.1823C-4.00521 53.3281 -3.5625 53.776 -2.94271 54.3698C-2.85417 54.4479 -2.73438 54.4688 -2.625 54.4271C-0.609377 53.599 1.66666 52.6146 4.20312 51.4531C4.74479 51.2031 5.16666 51.0469 5.16146 50.5052C5.16146 49.9896 5.13541 49.651 5.25 49.2656C5.625 47.9948 6.90104 47.276 8.18229 47.4479C8.19792 47.4479 8.21354 47.4531 8.22916 47.4531C9.76041 47.6875 10.6719 49.2031 10.4792 50.7292C10.4479 51.0104 10.3177 51.3125 10.2135 51.6458C10.1875 51.7396 10.2344 51.8385 10.3229 51.875C11.0312 52.1667 11.5885 52.3958 11.9844 53.1042Z" fill="#543026"/>
<path d="M11.9844 53.1042C12.5677 54.1406 12.5677 55.1094 11.9844 56.0052C11.1302 57.3177 9.18229 57.5625 8.03646 56.5208C7.83854 56.3385 7.63542 56.1302 7.42708 55.8958C7.39583 55.8594 7.35938 55.8333 7.3125 55.8229C7.15625 55.7865 7.00521 55.7969 6.85417 55.8646C5.94271 56.2552 3.54687 57.3281 -0.333334 59.0781C-0.760417 59.2708 -0.838542 59.4688 -0.822918 59.9167C-0.802083 60.3802 -0.776042 60.8177 -0.880209 61.151C-1.31771 62.599 -2.97396 63.3646 -4.35417 62.7917C-4.05729 62.6563 -3.70313 62.5156 -3.42708 62.4479C-3.30729 62.4062 -3.19792 62.3542 -3.09375 62.2917C-0.807293 60.8698 -3.13542 58.9063 0.260415 57.7865C1.98958 57.0833 3.77604 56.2656 5.67187 55.3333C6.10937 55.125 6.57292 54.9323 7.05208 54.9219C7.98958 54.8854 8.78125 55.6979 9.73438 55.4375C11.1094 55.151 11.4115 53.3958 10.0781 52.8125C9.75 52.651 9.30208 52.6354 8.99479 52.4688C8.59375 52.2292 8.97917 51.7969 9.15104 51.5052C9.38021 51.1823 9.54167 50.8125 9.60417 50.4219C9.75 49.5833 9.4375 48.6771 8.8125 48.0677C8.8125 48.0677 8.80208 48.0573 8.78125 48.0365C8.61458 47.8906 8.44271 47.7344 8.36458 47.6198C8.31771 47.5677 8.27604 47.5104 8.23438 47.4531C9.76042 47.6875 10.6719 49.2031 10.4844 50.7292C10.4479 51.0104 10.3177 51.3125 10.2188 51.651C10.1875 51.7396 10.2344 51.8385 10.3229 51.875C11.0365 52.1719 11.5885 52.3958 11.9844 53.1042Z" fill="#F3EBE1"/>
</g>
</g>
</g>
<mask id="mask123_131_77826" style="mask-type:luminance" maskUnits="userSpaceOnUse" x="14" y="34" width="24" height="18">
<path d="M14.6667 34.6666H37.3333V52H14.6667V34.6666Z" fill="white"/>
</mask>
<g mask="url(#mask123_131_77826)">
<mask id="mask124_131_77826" style="mask-type:luminance" maskUnits="userSpaceOnUse" x="14" y="34" width="24" height="18">
<path d="M14.974 42.8489L33.25 34.7239L37.3073 43.8645L19.0312 51.9843L14.974 42.8489Z" fill="white"/>
</mask>
<g mask="url(#mask124_131_77826)">
<mask id="mask125_131_77826" style="mask-type:luminance" maskUnits="userSpaceOnUse" x="14" y="34" width="24" height="18">
<path d="M14.974 42.8489L33.25 34.7239L37.3073 43.8645L19.0312 51.9843L14.974 42.8489Z" fill="white"/>
</mask>
<g mask="url(#mask125_131_77826)">
<path d="M35.8698 41.4114C36.4531 42.4479 36.4531 43.4166 35.8698 44.3124C35.0156 45.6301 33.0729 45.8749 31.9219 44.8281C31.724 44.6458 31.5208 44.4374 31.3177 44.2031C31.2812 44.1666 31.2448 44.1458 31.1979 44.1354C31.0417 44.0937 30.8906 44.1041 30.7396 44.1718C29.8281 44.5624 27.4323 45.6354 23.5521 47.3854C23.125 47.5781 23.0469 47.776 23.0625 48.2239C23.0833 48.6926 23.1094 49.1301 23.0052 49.4583C22.5677 50.9114 20.9115 51.6718 19.5312 51.0989C19.3698 51.0312 19.2135 50.9479 19.0625 50.8489C17.6979 49.9114 17.6458 48.5885 18.099 47.1301C18.1094 47.0937 18.0885 47.0468 18.0469 47.0312C17.6146 46.8801 17.2656 46.7031 17 46.4999C15.8854 45.6406 15.5312 44.2187 16.151 42.9843C16.6406 42.0104 17.9062 41.302 19.026 41.4895C19.8802 41.6406 20.3229 42.0833 20.9479 42.677C21.0312 42.7551 21.1562 42.7812 21.2604 42.7343C23.276 41.9114 25.5521 40.9218 28.0885 39.7656C28.6354 39.5156 29.0521 39.3541 29.0469 38.8176C29.0469 38.2968 29.0208 37.9635 29.1354 37.5781C29.5104 36.302 30.7865 35.5885 32.0677 35.7551C32.0833 35.7551 32.1042 35.7604 32.1198 35.7604C33.6458 35.9947 34.5573 37.5104 34.3698 39.0416C34.3333 39.3176 34.2031 39.6197 34.099 39.9583C34.0729 40.0468 34.1198 40.1458 34.2083 40.1822C34.9219 40.4791 35.474 40.7083 35.8698 41.4114Z" fill="#543026"/>
</g>
</g>
</g>
<mask id="mask126_131_77826" style="mask-type:luminance" maskUnits="userSpaceOnUse" x="18" y="34" width="20" height="18">
<path d="M18.6667 34.6666H37.3333V52H18.6667V34.6666Z" fill="white"/>
</mask>
<g mask="url(#mask126_131_77826)">
<mask id="mask127_131_77826" style="mask-type:luminance" maskUnits="userSpaceOnUse" x="14" y="34" width="24" height="18">
<path d="M14.974 42.8489L33.25 34.7239L37.3073 43.8645L19.0312 51.9843L14.974 42.8489Z" fill="white"/>
</mask>
<g mask="url(#mask127_131_77826)">
<mask id="mask128_131_77826" style="mask-type:luminance" maskUnits="userSpaceOnUse" x="14" y="34" width="24" height="18">
<path d="M14.974 42.8489L33.25 34.7239L37.3073 43.8645L19.0312 51.9843L14.974 42.8489Z" fill="white"/>
</mask>
<g mask="url(#mask128_131_77826)">
<path d="M35.8698 41.4114C36.4531 42.4479 36.4531 43.4166 35.8698 44.3125C35.0156 45.6302 33.0729 45.875 31.9219 44.8281C31.724 44.6458 31.5208 44.4375 31.3177 44.2031C31.2812 44.1666 31.2448 44.1458 31.1979 44.1354C31.0417 44.0937 30.8906 44.1041 30.7396 44.1718C29.8281 44.5625 27.4323 45.6354 23.5521 47.3854C23.125 47.5781 23.0469 47.776 23.0625 48.2239C23.0833 48.6927 23.1094 49.1302 23.0052 49.4583C22.5677 50.9114 20.9115 51.6718 19.5312 51.0989C19.8333 50.9635 20.1823 50.8281 20.4583 50.7604C20.5781 50.7135 20.6875 50.6666 20.7917 50.5989C23.0781 49.177 20.75 47.2135 24.1458 46.0989C25.875 45.3906 27.6615 44.5729 29.5573 43.6406C29.9948 43.4375 30.4635 43.2448 30.9427 43.2343C31.875 43.1979 32.6667 44.0104 33.6198 43.7448C34.9948 43.4583 35.2969 41.7083 33.9635 41.1198C33.6354 40.9635 33.1875 40.9427 32.8854 40.776C32.4792 40.5364 32.8646 40.1093 33.0365 39.8177C33.2656 39.4948 33.4323 39.125 33.4896 38.7291C33.6354 37.8906 33.3229 36.9843 32.6979 36.375C32.6979 36.375 32.6875 36.3645 32.6667 36.3437C32.5052 36.2031 32.3281 36.0416 32.2552 35.9323C32.2031 35.875 32.1615 35.8229 32.1198 35.7604C33.6458 35.9948 34.5573 37.5104 34.3698 39.0416C34.3333 39.3177 34.2031 39.6198 34.1042 39.9583C34.0729 40.0468 34.1198 40.1458 34.2083 40.1823C34.9219 40.4791 35.474 40.7083 35.8698 41.4114Z" fill="#F3EBE1"/>
</g>
</g>
</g>
<mask id="mask129_131_77826" style="mask-type:luminance" maskUnits="userSpaceOnUse" x="40" y="24" width="20" height="16">
<path d="M40 24H60V40H40V24Z" fill="white"/>
</mask>
<g mask="url(#mask129_131_77826)">
<mask id="mask130_131_77826" style="mask-type:luminance" maskUnits="userSpaceOnUse" x="39" y="23" width="23" height="18">
<path d="M39.5156 31.3958L57.7917 23.276L61.8542 32.4166L43.5729 40.5364L39.5156 31.3958Z" fill="white"/>
</mask>
<g mask="url(#mask130_131_77826)">
<mask id="mask131_131_77826" style="mask-type:luminance" maskUnits="userSpaceOnUse" x="39" y="23" width="23" height="18">
<path d="M39.5156 31.3958L57.7917 23.276L61.8542 32.4166L43.5729 40.5364L39.5156 31.3958Z" fill="white"/>
</mask>
<g mask="url(#mask131_131_77826)">
<path d="M60.4115 29.9635C60.9948 31 60.9948 31.9688 60.4167 32.8646C59.5573 34.1771 57.6146 34.4219 56.4635 33.3802C56.2656 33.1979 56.0625 32.9896 55.8594 32.7552C55.8281 32.7188 55.7865 32.6927 55.7448 32.6823C55.5885 32.6458 55.4323 32.6563 55.2865 32.724C54.3698 33.1146 51.974 34.1875 48.0938 35.9375C47.6719 36.1302 47.5885 36.3281 47.6094 36.776C47.625 37.2396 47.651 37.6771 47.5521 38.0104C47.1146 39.4583 45.4583 40.224 44.0729 39.651C43.9115 39.5833 43.7552 39.5 43.6042 39.3958C42.2448 38.4635 42.1875 37.1354 42.6406 35.6823C42.651 35.6406 42.6302 35.5938 42.5885 35.5781C42.1615 35.4323 41.8073 35.2552 41.5417 35.0469C40.4271 34.1875 40.0729 32.7708 40.6927 31.5365C41.1823 30.5625 42.4479 29.849 43.5677 30.0417C44.4219 30.1875 44.8646 30.6354 45.4896 31.2292C45.5729 31.3073 45.6979 31.3281 45.8021 31.2865C47.8177 30.4583 50.0938 29.474 52.6354 28.3125C53.1771 28.0625 53.5938 27.9063 53.5885 27.3646C53.5885 26.849 53.5677 26.5104 53.6771 26.125C54.0521 24.8542 55.3333 24.1354 56.6094 24.3073C56.625 24.3073 56.6458 24.3125 56.6615 24.3125C58.1927 24.5469 59.099 26.0625 58.9115 27.5885C58.875 27.8698 58.75 28.1719 58.6458 28.5052C58.6146 28.599 58.6615 28.6927 58.75 28.7344C59.4635 29.026 60.0156 29.2552 60.4115 29.9635Z" fill="#543026"/>
</g>
</g>
</g>
<mask id="mask132_131_77826" style="mask-type:luminance" maskUnits="userSpaceOnUse" x="44" y="24" width="16" height="16">
<path d="M44 24H60V40H44V24Z" fill="white"/>
</mask>
<g mask="url(#mask132_131_77826)">
<mask id="mask133_131_77826" style="mask-type:luminance" maskUnits="userSpaceOnUse" x="39" y="23" width="23" height="18">
<path d="M39.5156 31.3958L57.7917 23.276L61.8542 32.4166L43.5729 40.5364L39.5156 31.3958Z" fill="white"/>
</mask>
<g mask="url(#mask133_131_77826)">
<mask id="mask134_131_77826" style="mask-type:luminance" maskUnits="userSpaceOnUse" x="39" y="23" width="23" height="18">
<path d="M39.5156 31.3958L57.7917 23.276L61.8542 32.4166L43.5729 40.5364L39.5156 31.3958Z" fill="white"/>
</mask>
<g mask="url(#mask134_131_77826)">
<path d="M60.4115 29.9635C60.9948 31 60.9948 31.9687 60.4167 32.8646C59.5573 34.1771 57.6146 34.4219 56.4635 33.3802C56.2656 33.1979 56.0625 32.9896 55.8594 32.7552C55.8281 32.7188 55.7865 32.6927 55.7448 32.6823C55.5885 32.6458 55.4323 32.6563 55.2865 32.724C54.3698 33.1146 51.974 34.1875 48.0938 35.9375C47.6719 36.1302 47.5885 36.3281 47.6094 36.776C47.625 37.2396 47.651 37.6771 47.5521 38.0104C47.1146 39.4583 45.4583 40.224 44.0729 39.651C44.375 39.5156 44.724 39.375 45.0052 39.3073C45.1198 39.2656 45.2344 39.2135 45.3385 39.151C47.625 37.7292 45.2917 35.7656 48.6927 34.6458C50.4167 33.9427 52.2083 33.125 54.1042 32.1927C54.5417 31.9844 55.0052 31.7917 55.4844 31.7812C56.4219 31.7448 57.2135 32.5573 58.1615 32.2969C59.5365 32.0104 59.8385 30.2552 58.5052 29.6719C58.1823 29.5104 57.7344 29.4948 57.4271 29.3281C57.0208 29.0885 57.4115 28.6562 57.5833 28.3646C57.8073 28.0417 57.974 27.6719 58.0313 27.2812C58.1771 26.4427 57.8646 25.5313 57.2396 24.9271C57.2396 24.9271 57.2292 24.9115 57.2083 24.8958C57.0469 24.75 56.875 24.5937 56.7969 24.4792C56.75 24.4271 56.7031 24.3698 56.6615 24.3125C58.1927 24.5469 59.1042 26.0625 58.9115 27.5885C58.875 27.8698 58.75 28.1719 58.6458 28.5104C58.6198 28.599 58.6615 28.6979 58.75 28.7344C59.4635 29.0313 60.0208 29.2552 60.4167 29.9635H60.4115Z" fill="#F3EBE1"/>
</g>
</g>
</g>
<mask id="mask135_131_77826" style="mask-type:luminance" maskUnits="userSpaceOnUse" x="8" y="57" width="22" height="3">
<path d="M8 57.3334H29.3333V60H8V57.3334Z" fill="white"/>
</mask>
<g mask="url(#mask135_131_77826)">
<mask id="mask136_131_77826" style="mask-type:luminance" maskUnits="userSpaceOnUse" x="7" y="57" width="24" height="18">
<path d="M7.79166 65.2292L26.0729 57.1094L30.1302 66.2448L11.8542 74.3646L7.79166 65.2292Z" fill="white"/>
</mask>
<g mask="url(#mask136_131_77826)">
<mask id="mask137_131_77826" style="mask-type:luminance" maskUnits="userSpaceOnUse" x="7" y="57" width="24" height="18">
<path d="M7.79166 65.2292L26.0729 57.1094L30.1302 66.2448L11.8542 74.3646L7.79166 65.2292Z" fill="white"/>
</mask>
<g mask="url(#mask137_131_77826)">
<path d="M28.6927 63.7916C29.276 64.8333 29.276 65.8021 28.6927 66.6927C27.8385 68.0104 25.8906 68.2552 24.7448 67.2135C24.5417 67.0312 24.3385 66.8229 24.1354 66.5885C24.1042 66.5521 24.0625 66.526 24.0208 66.5156C23.8646 66.4739 23.7083 66.4896 23.5625 66.5521C22.651 66.9427 20.2552 68.0156 16.375 69.7708C15.9479 69.9635 15.8698 70.1614 15.8854 70.6041C15.901 71.0729 15.9271 71.5104 15.8281 71.8385C15.3906 73.2916 13.7344 74.0573 12.349 73.4791C12.1875 73.4166 12.0365 73.3281 11.8854 73.2291C10.5208 72.2916 10.4635 70.9687 10.9167 69.5104C10.9323 69.4739 10.9063 69.4271 10.8698 69.4114C10.4375 69.2656 10.0885 69.0833 9.81771 68.8802C8.70833 68.0208 8.34896 66.6041 8.97396 65.3646C9.46354 64.3958 10.724 63.6823 11.8437 63.875C12.7031 64.0208 13.1458 64.4687 13.7656 65.0573C13.849 65.1406 13.974 65.1614 14.0833 65.1198C16.099 64.2916 18.375 63.3021 20.9115 62.1458C21.4531 61.8958 21.875 61.7396 21.8698 61.1979C21.8698 60.6823 21.8438 60.3437 21.9583 59.9583C22.3333 58.6875 23.6094 57.9687 24.8854 58.1354C24.9063 58.1406 24.9219 58.1406 24.9375 58.1458C26.4688 58.3802 27.3802 59.8906 27.1875 61.4218C27.1563 61.7031 27.026 62 26.9219 62.3385C26.8958 62.4323 26.9375 62.526 27.0312 62.5677C27.7396 62.8593 28.2969 63.0885 28.6927 63.7968V63.7916Z" fill="#543026"/>
</g>
</g>
</g>
<mask id="mask138_131_77826" style="mask-type:luminance" maskUnits="userSpaceOnUse" x="12" y="57" width="18" height="3">
<path d="M12 57.3334H29.3333V60H12V57.3334Z" fill="white"/>
</mask>
<g mask="url(#mask138_131_77826)">
<mask id="mask139_131_77826" style="mask-type:luminance" maskUnits="userSpaceOnUse" x="7" y="57" width="24" height="18">
<path d="M7.79166 65.2292L26.0729 57.1094L30.1302 66.2448L11.8542 74.3646L7.79166 65.2292Z" fill="white"/>
</mask>
<g mask="url(#mask139_131_77826)">
<mask id="mask140_131_77826" style="mask-type:luminance" maskUnits="userSpaceOnUse" x="7" y="57" width="24" height="18">
<path d="M7.79166 65.2292L26.0729 57.1094L30.1302 66.2448L11.8542 74.3646L7.79166 65.2292Z" fill="white"/>
</mask>
<g mask="url(#mask140_131_77826)">
<path d="M28.6927 63.7917C29.276 64.8334 29.276 65.8021 28.6927 66.6927C27.8385 68.0105 25.8906 68.2552 24.7448 67.2136C24.5417 67.0313 24.3385 66.823 24.1354 66.5886C24.1042 66.5521 24.0625 66.5261 24.0208 66.5157C23.8646 66.474 23.7083 66.4896 23.5625 66.5521C22.651 66.9427 20.2552 68.0157 16.375 69.7709C15.9479 69.9636 15.8698 70.1615 15.8854 70.6042C15.901 71.073 15.9271 71.5105 15.8281 71.8386C15.3906 73.2917 13.7344 74.0573 12.349 73.4792C12.651 73.349 13 73.2084 13.2812 73.1407C13.3958 73.099 13.5104 73.0469 13.6146 72.9844C15.901 71.5625 13.5729 69.599 16.9687 68.4792C18.6979 67.7761 20.4844 66.9584 22.3802 66.0261C22.8177 65.8177 23.2812 65.625 23.7604 65.6146C24.6979 65.5782 25.4896 66.3907 26.4427 66.125C27.8125 65.8386 28.1198 64.0886 26.7865 63.5C26.4583 63.3438 26.0104 63.323 25.7031 63.1563C25.3021 62.9167 25.6875 62.4896 25.8594 62.198C26.0885 61.875 26.25 61.5052 26.3125 61.1094C26.4583 60.2709 26.1458 59.3646 25.5208 58.7552C25.5208 58.7552 25.5104 58.7448 25.4896 58.7292C25.3229 58.5834 25.151 58.4219 25.0729 58.3125C25.026 58.2605 24.9792 58.2032 24.9375 58.1459C26.4687 58.3802 27.3802 59.8907 27.1875 61.4219C27.1562 61.7032 27.026 62 26.9219 62.3386C26.8958 62.4323 26.9427 62.5261 27.0312 62.5677C27.7396 62.8594 28.2969 63.0886 28.6927 63.7969V63.7917Z" fill="#F3EBE1"/>
</g>
</g>
</g>
<mask id="mask141_131_77826" style="mask-type:luminance" maskUnits="userSpaceOnUse" x="36" y="45" width="22" height="15">
<path d="M36 45.3334H57.3333V60H36V45.3334Z" fill="white"/>
</mask>
<g mask="url(#mask141_131_77826)">
<mask id="mask142_131_77826" style="mask-type:luminance" maskUnits="userSpaceOnUse" x="35" y="45" width="23" height="18">
<path d="M35.4271 53.3229L53.7031 45.2031L57.7656 54.3438L39.4896 62.4635L35.4271 53.3229Z" fill="white"/>
</mask>
<g mask="url(#mask142_131_77826)">
<mask id="mask143_131_77826" style="mask-type:luminance" maskUnits="userSpaceOnUse" x="35" y="45" width="23" height="18">
<path d="M35.4271 53.3229L53.7031 45.2031L57.7656 54.3438L39.4896 62.4635L35.4271 53.3229Z" fill="white"/>
</mask>
<g mask="url(#mask143_131_77826)">
<path d="M56.3281 51.8906C56.9062 52.9271 56.9062 53.8959 56.3281 54.7917C55.474 56.1094 53.526 56.3542 52.375 55.3073C52.1771 55.125 51.974 54.9167 51.7708 54.6823C51.7396 54.6459 51.6979 54.6198 51.6562 54.6094C51.5 54.5729 51.3437 54.5834 51.1979 54.6511C50.2865 55.0417 47.8906 56.1146 44.0104 57.8646C43.5833 58.0573 43.5 58.2552 43.5208 58.7031C43.5365 59.1667 43.5625 59.6042 43.4635 59.9375C43.026 61.3854 41.3698 62.1511 39.9844 61.5781C39.8229 61.5104 39.6667 61.4271 39.5156 61.3229C38.1562 60.3906 38.099 59.0625 38.5521 57.6094C38.5677 57.5677 38.5417 57.5261 38.5 57.5104C38.0729 57.3594 37.724 57.1823 37.4531 56.974C36.3437 56.1146 35.9844 54.6979 36.6042 53.4636C37.099 52.4896 38.3594 51.7761 39.4792 51.9688C40.3333 52.1146 40.776 52.5625 41.401 53.1563C41.4844 53.2344 41.6094 53.2604 41.7187 53.2136C43.7292 52.3854 46.0104 51.4011 48.5469 50.2396C49.0885 49.9948 49.5104 49.8334 49.5052 49.2917C49.5 48.7761 49.4792 48.4375 49.5885 48.0573C49.9635 46.7813 51.2448 46.0677 52.5208 46.2344C52.5365 46.2344 52.5573 46.2396 52.5729 46.2396C54.1042 46.474 55.0156 47.9896 54.8229 49.5156C54.7865 49.7969 54.6615 50.099 54.5573 50.4375C54.5312 50.5261 54.5729 50.625 54.6615 50.6615C55.375 50.9584 55.9323 51.1823 56.3281 51.8906Z" fill="#543026"/>
</g>
</g>
</g>
<mask id="mask144_131_77826" style="mask-type:luminance" maskUnits="userSpaceOnUse" x="38" y="45" width="20" height="15">
<path d="M38.6667 45.3334H57.3333V60H38.6667V45.3334Z" fill="white"/>
</mask>
<g mask="url(#mask144_131_77826)">
<mask id="mask145_131_77826" style="mask-type:luminance" maskUnits="userSpaceOnUse" x="35" y="45" width="23" height="18">
<path d="M35.4271 53.3229L53.7031 45.2031L57.7656 54.3438L39.4896 62.4635L35.4271 53.3229Z" fill="white"/>
</mask>
<g mask="url(#mask145_131_77826)">
<mask id="mask146_131_77826" style="mask-type:luminance" maskUnits="userSpaceOnUse" x="35" y="45" width="23" height="18">
<path d="M35.4271 53.3229L53.7031 45.2031L57.7656 54.3438L39.4896 62.4635L35.4271 53.3229Z" fill="white"/>
</mask>
<g mask="url(#mask146_131_77826)">
<path d="M56.3281 51.8907C56.9062 52.9271 56.9062 53.8959 56.3281 54.7917C55.474 56.1094 53.526 56.3542 52.375 55.3073C52.1771 55.125 51.974 54.9167 51.7708 54.6823C51.7396 54.6459 51.6979 54.6198 51.6562 54.6094C51.5 54.573 51.3437 54.5834 51.1979 54.6511C50.2865 55.0417 47.8906 56.1146 44.0104 57.8646C43.5833 58.0573 43.5 58.2552 43.5208 58.7032C43.5365 59.1667 43.5625 59.6042 43.4635 59.9375C43.026 61.3855 41.3698 62.1511 39.9844 61.5782C40.2865 61.4427 40.6354 61.3021 40.9167 61.2344C41.0313 61.1927 41.1458 61.1407 41.25 61.0782C43.5365 59.6563 41.2031 57.6927 44.6042 56.573C46.3333 55.8698 48.1198 55.0521 50.0156 54.1198C50.4531 53.9115 50.9167 53.724 51.3958 53.7084C52.3333 53.6719 53.125 54.4844 54.0729 54.224C55.4479 53.9375 55.7552 52.1823 54.4167 51.599C54.0938 51.4375 53.6458 51.4219 53.3385 51.2552C52.9375 51.0157 53.3229 50.5834 53.4948 50.2969C53.7187 49.9688 53.8854 49.599 53.9479 49.2084C54.0937 48.3698 53.776 47.4636 53.151 46.8542C53.151 46.8542 53.1406 46.8438 53.1198 46.823C52.9583 46.6823 52.7865 46.5209 52.7083 46.4063C52.6615 46.3542 52.6146 46.3021 52.5729 46.2396C54.1042 46.474 55.0156 47.9896 54.8229 49.5157C54.7917 49.7969 54.6615 50.099 54.5573 50.4375C54.5313 50.5261 54.5729 50.625 54.6667 50.6615C55.375 50.9584 55.9323 51.1875 56.3281 51.8907Z" fill="#F3EBE1"/>
</g>
</g>
</g>
</g>
</g>
<rect x="1.5" y="1.5" width="57" height="57" rx="8.5" stroke="#F3EBE1" stroke-width="3"/>
</g>
</g>
</g>
<defs>
<filter id="filter0_d_131_77826" x="0" y="0" width="65" height="65" filterUnits="userSpaceOnUse" color-interpolation-filters="sRGB">
<feFlood flood-opacity="0" result="BackgroundImageFix"/>
<feColorMatrix in="SourceAlpha" type="matrix" values="0 0 0 0 0 0 0 0 0 0 0 0 0 0 0 0 0 0 127 0" result="hardAlpha"/>
<feOffset dx="4" dy="4"/>
<feGaussianBlur stdDeviation="0.5"/>
<feComposite in2="hardAlpha" operator="out"/>
<feColorMatrix type="matrix" values="0 0 0 0 0 0 0 0 0 0 0 0 0 0 0 0 0 0 0.25 0"/>
<feBlend mode="normal" in2="BackgroundImageFix" result="effect1_dropShadow_131_77826"/>
<feBlend mode="normal" in="SourceGraphic" in2="effect1_dropShadow_131_77826" result="shape"/>
</filter>
<clipPath id="clip0_131_77826">
<rect width="60" height="60" rx="10" fill="white"/>
</clipPath>
<clipPath id="clip1_131_77826">
<rect width="60" height="60" rx="10" fill="white"/>
</clipPath>
<clipPath id="clip2_131_77826">
<rect width="60" height="60" fill="white"/>
</clipPath>
</defs>
</svg>
