<svg width="70" height="70" viewBox="0 0 70 70" fill="none" xmlns="http://www.w3.org/2000/svg">
<g clip-path="url(#clip0_134_79790)">
<rect width="70" height="70" rx="10" fill="white"/>
<g opacity="0.9">
<g clip-path="url(#clip1_134_79790)">
<path d="M77 -7H-7V77H77V-7Z" fill="white"/>
<path d="M77 -7H-7V77H77V-7Z" fill="#C3B5AA"/>
<mask id="mask0_134_79790" style="mask-type:luminance" maskUnits="userSpaceOnUse" x="7" y="9" width="9" height="9">
<path d="M7.77777 9.33337H15.5555V17.1112H7.77777V9.33337Z" fill="white"/>
</mask>
<g mask="url(#mask0_134_79790)">
<mask id="mask1_134_79790" style="mask-type:luminance" maskUnits="userSpaceOnUse" x="5" y="-4" width="29" height="28">
<path d="M5.22569 4.56944L25.934 -3.33594L33.0069 15.197L12.2986 23.0964L5.22569 4.56944Z" fill="white"/>
</mask>
<g mask="url(#mask1_134_79790)">
<mask id="mask2_134_79790" style="mask-type:luminance" maskUnits="userSpaceOnUse" x="5" y="-4" width="29" height="28">
<path d="M5.22569 4.56944L25.934 -3.33594L33.0069 15.197L12.2986 23.0964L5.22569 4.56944Z" fill="white"/>
</mask>
<g mask="url(#mask2_134_79790)">
<path fill-rule="evenodd" clip-rule="evenodd" d="M13.2526 15.4644C14.6441 14.4132 14.4679 12.4991 13.3437 11.5026C10.9071 9.33329 7.31597 10.822 8.92013 14.164C9.6493 15.677 11.1562 17.0564 13.2526 15.4644Z" fill="#D9D2C8"/>
</g>
</g>
</g>
<mask id="mask3_134_79790" style="mask-type:luminance" maskUnits="userSpaceOnUse" x="23" y="3" width="7" height="8">
<path d="M23.3333 3.11108H29.5556V10.8889H23.3333V3.11108Z" fill="white"/>
</mask>
<g mask="url(#mask3_134_79790)">
<mask id="mask4_134_79790" style="mask-type:luminance" maskUnits="userSpaceOnUse" x="5" y="-4" width="29" height="28">
<path d="M5.22569 4.56944L25.934 -3.33594L33.0069 15.197L12.2986 23.0964L5.22569 4.56944Z" fill="white"/>
</mask>
<g mask="url(#mask4_134_79790)">
<mask id="mask5_134_79790" style="mask-type:luminance" maskUnits="userSpaceOnUse" x="5" y="-4" width="29" height="28">
<path d="M5.22569 4.56944L25.934 -3.33594L33.0069 15.197L12.2986 23.0964L5.22569 4.56944Z" fill="white"/>
</mask>
<g mask="url(#mask5_134_79790)">
<path fill-rule="evenodd" clip-rule="evenodd" d="M24.3845 9.09031C25.6667 10.2813 27.52 9.7891 28.3099 8.51306C30.0295 5.74222 28.7595 1.79865 25.7396 3.94969C24.3724 4.92191 22.4644 7.29778 24.3845 9.09031Z" fill="#D9D2C8"/>
</g>
</g>
</g>
<mask id="mask6_134_79790" style="mask-type:luminance" maskUnits="userSpaceOnUse" x="9" y="1" width="9" height="9">
<path d="M9.33333 1.55554H17.1111V9.33332H9.33333V1.55554Z" fill="white"/>
</mask>
<g mask="url(#mask6_134_79790)">
<mask id="mask7_134_79790" style="mask-type:luminance" maskUnits="userSpaceOnUse" x="5" y="-4" width="29" height="28">
<path d="M5.22569 4.56944L25.934 -3.33594L33.0069 15.197L12.2986 23.0964L5.22569 4.56944Z" fill="white"/>
</mask>
<g mask="url(#mask7_134_79790)">
<mask id="mask8_134_79790" style="mask-type:luminance" maskUnits="userSpaceOnUse" x="5" y="-4" width="29" height="28">
<path d="M5.22569 4.56944L25.934 -3.33594L33.0069 15.197L12.2986 23.0964L5.22569 4.56944Z" fill="white"/>
</mask>
<g mask="url(#mask8_134_79790)">
<path fill-rule="evenodd" clip-rule="evenodd" d="M15.8958 8.07554C16.546 6.93318 16.1328 4.63631 15.4097 3.54863C14.6866 2.47311 13.52 1.61027 11.9644 2.3212C9.10851 3.62155 11.3264 7.29777 12.809 8.46443C13.7569 9.2179 15.1667 9.35766 15.8958 8.07554Z" fill="#D9D2C8"/>
</g>
</g>
</g>
<mask id="mask9_134_79790" style="mask-type:luminance" maskUnits="userSpaceOnUse" x="14" y="7" width="16" height="15">
<path d="M14 7.77783H29.5556V21.7778H14V7.77783Z" fill="white"/>
</mask>
<g mask="url(#mask9_134_79790)">
<mask id="mask10_134_79790" style="mask-type:luminance" maskUnits="userSpaceOnUse" x="5" y="-4" width="29" height="28">
<path d="M5.22569 4.56944L25.934 -3.33594L33.0069 15.197L12.2986 23.0964L5.22569 4.56944Z" fill="white"/>
</mask>
<g mask="url(#mask10_134_79790)">
<mask id="mask11_134_79790" style="mask-type:luminance" maskUnits="userSpaceOnUse" x="5" y="-4" width="29" height="28">
<path d="M5.22569 4.56944L25.934 -3.33594L33.0069 15.197L12.2986 23.0964L5.22569 4.56944Z" fill="white"/>
</mask>
<g mask="url(#mask11_134_79790)">
<path fill-rule="evenodd" clip-rule="evenodd" d="M14.7717 19.2986C15.1059 20.1493 15.908 20.9392 17.7917 20.5199C20.8177 19.8454 20.8967 16.6796 23.8498 17.6397C23.8498 17.6397 25.1076 18.0408 26.5234 17.5729C27.4957 17.1718 28.2674 16.6007 28.2613 15.0937C28.2491 12.256 27.046 12.6449 24.6641 11.539C22.2821 10.421 20.5564 8.91402 18.7882 9.24215C17.02 9.5642 16.0113 12.1892 15.8229 13.8177C15.5616 16.0295 14.0122 17.3967 14.7717 19.2986Z" fill="#D9D2C8"/>
</g>
</g>
</g>
<mask id="mask12_134_79790" style="mask-type:luminance" maskUnits="userSpaceOnUse" x="15" y="0" width="9" height="8">
<path d="M15.5556 0H23.3333V7.77778H15.5556V0Z" fill="white"/>
</mask>
<g mask="url(#mask12_134_79790)">
<mask id="mask13_134_79790" style="mask-type:luminance" maskUnits="userSpaceOnUse" x="5" y="-4" width="29" height="28">
<path d="M5.22569 4.56944L25.934 -3.33594L33.0069 15.197L12.2986 23.0964L5.22569 4.56944Z" fill="white"/>
</mask>
<g mask="url(#mask13_134_79790)">
<mask id="mask14_134_79790" style="mask-type:luminance" maskUnits="userSpaceOnUse" x="5" y="-4" width="29" height="28">
<path d="M5.22569 4.56944L25.934 -3.33594L33.0069 15.197L12.2986 23.0964L5.22569 4.56944Z" fill="white"/>
</mask>
<g mask="url(#mask14_134_79790)">
<path fill-rule="evenodd" clip-rule="evenodd" d="M19.4323 6.40449C18.1866 5.98522 16.9653 3.99824 16.783 2.70397C16.6007 1.41578 16.8924 0.00605501 18.5269 -0.504362C21.5226 -1.43405 22.3186 2.78296 21.9965 4.64234C21.7838 5.83939 20.8299 6.87845 19.4323 6.40449Z" fill="#D9D2C8"/>
</g>
</g>
</g>
<mask id="mask15_134_79790" style="mask-type:luminance" maskUnits="userSpaceOnUse" x="42" y="7" width="8" height="9">
<path d="M42 7.77783H49.7778V15.5556H42V7.77783Z" fill="white"/>
</mask>
<g mask="url(#mask15_134_79790)">
<mask id="mask16_134_79790" style="mask-type:luminance" maskUnits="userSpaceOnUse" x="39" y="-5" width="29" height="27">
<path d="M39.5755 3.36634L60.2899 -4.53296L67.3568 13.9939L46.6484 21.8993L39.5755 3.36634Z" fill="white"/>
</mask>
<g mask="url(#mask16_134_79790)">
<mask id="mask17_134_79790" style="mask-type:luminance" maskUnits="userSpaceOnUse" x="39" y="-5" width="29" height="27">
<path d="M39.5755 3.36634L60.2899 -4.53296L67.3568 13.9939L46.6484 21.8993L39.5755 3.36634Z" fill="white"/>
</mask>
<g mask="url(#mask17_134_79790)">
<path fill-rule="evenodd" clip-rule="evenodd" d="M47.6024 14.2674C48.9939 13.2101 48.8177 11.296 47.6936 10.2995C45.2569 8.13629 41.6719 9.62501 43.27 12.9609C43.9991 14.48 45.5061 15.8533 47.6024 14.2674Z" fill="#D9D2C8"/>
</g>
</g>
</g>
<mask id="mask18_134_79790" style="mask-type:luminance" maskUnits="userSpaceOnUse" x="57" y="1" width="7" height="9">
<path d="M57.5556 1.55554H63.7778V9.33332H57.5556V1.55554Z" fill="white"/>
</mask>
<g mask="url(#mask18_134_79790)">
<mask id="mask19_134_79790" style="mask-type:luminance" maskUnits="userSpaceOnUse" x="39" y="-5" width="29" height="27">
<path d="M39.5755 3.36634L60.2899 -4.53296L67.3568 13.9939L46.6484 21.8993L39.5755 3.36634Z" fill="white"/>
</mask>
<g mask="url(#mask19_134_79790)">
<mask id="mask20_134_79790" style="mask-type:luminance" maskUnits="userSpaceOnUse" x="39" y="-5" width="29" height="27">
<path d="M39.5755 3.36634L60.2899 -4.53296L67.3568 13.9939L46.6484 21.8993L39.5755 3.36634Z" fill="white"/>
</mask>
<g mask="url(#mask20_134_79790)">
<path fill-rule="evenodd" clip-rule="evenodd" d="M58.7344 7.8932C60.0165 9.08417 61.8698 8.59198 62.6597 7.31594C64.3794 4.53903 63.1155 0.601533 60.0894 2.7465C58.7222 3.7248 56.8142 6.10066 58.7344 7.8932Z" fill="#D9D2C8"/>
</g>
</g>
</g>
<mask id="mask21_134_79790" style="mask-type:luminance" maskUnits="userSpaceOnUse" x="43" y="0" width="9" height="10">
<path d="M43.5556 0H51.3333V9.33333H43.5556V0Z" fill="white"/>
</mask>
<g mask="url(#mask21_134_79790)">
<mask id="mask22_134_79790" style="mask-type:luminance" maskUnits="userSpaceOnUse" x="39" y="-5" width="29" height="27">
<path d="M39.5755 3.36634L60.2899 -4.53296L67.3568 13.9939L46.6484 21.8993L39.5755 3.36634Z" fill="white"/>
</mask>
<g mask="url(#mask22_134_79790)">
<mask id="mask23_134_79790" style="mask-type:luminance" maskUnits="userSpaceOnUse" x="39" y="-5" width="29" height="27">
<path d="M39.5755 3.36634L60.2899 -4.53296L67.3568 13.9939L46.6484 21.8993L39.5755 3.36634Z" fill="white"/>
</mask>
<g mask="url(#mask23_134_79790)">
<path fill-rule="evenodd" clip-rule="evenodd" d="M50.2457 6.87855C50.8958 5.73619 50.4827 3.43323 49.7596 2.35164C49.0365 1.27004 47.8698 0.413269 46.3143 1.12421C43.4583 2.42455 45.6762 6.10077 47.1589 7.26744C48.1129 8.01483 49.5165 8.15459 50.2457 6.87855Z" fill="#D9D2C8"/>
</g>
</g>
</g>
<mask id="mask24_134_79790" style="mask-type:luminance" maskUnits="userSpaceOnUse" x="48" y="7" width="16" height="14">
<path d="M48.2222 7.77783H63.7778V20.2223H48.2222V7.77783Z" fill="white"/>
</mask>
<g mask="url(#mask24_134_79790)">
<mask id="mask25_134_79790" style="mask-type:luminance" maskUnits="userSpaceOnUse" x="39" y="-5" width="29" height="27">
<path d="M39.5755 3.36634L60.2899 -4.53296L67.3568 13.9939L46.6484 21.8993L39.5755 3.36634Z" fill="white"/>
</mask>
<g mask="url(#mask25_134_79790)">
<mask id="mask26_134_79790" style="mask-type:luminance" maskUnits="userSpaceOnUse" x="39" y="-5" width="29" height="27">
<path d="M39.5755 3.36634L60.2899 -4.53296L67.3568 13.9939L46.6484 21.8993L39.5755 3.36634Z" fill="white"/>
</mask>
<g mask="url(#mask26_134_79790)">
<path fill-rule="evenodd" clip-rule="evenodd" d="M49.1215 18.1016C49.4557 18.9462 50.2639 19.7362 52.1415 19.323C55.1675 18.6424 55.2465 15.4766 58.1997 16.4367C58.1997 16.4367 59.4575 16.8377 60.8733 16.3699C61.8455 15.9688 62.6172 15.4037 62.6111 13.8907C62.599 11.053 61.3958 11.448 59.02 10.336C56.632 9.22402 54.9063 7.71099 53.138 8.03912C51.3759 8.36117 50.3611 10.9922 50.1728 12.6207C49.9115 14.8325 48.362 16.1997 49.1215 18.1016Z" fill="#D9D2C8"/>
</g>
</g>
</g>
<mask id="mask27_134_79790" style="mask-type:luminance" maskUnits="userSpaceOnUse" x="49" y="0" width="9" height="7">
<path d="M49.7778 0H57.5555V6.22222H49.7778V0Z" fill="white"/>
</mask>
<g mask="url(#mask27_134_79790)">
<mask id="mask28_134_79790" style="mask-type:luminance" maskUnits="userSpaceOnUse" x="39" y="-5" width="29" height="27">
<path d="M39.5755 3.36634L60.2899 -4.53296L67.3568 13.9939L46.6484 21.8993L39.5755 3.36634Z" fill="white"/>
</mask>
<g mask="url(#mask28_134_79790)">
<mask id="mask29_134_79790" style="mask-type:luminance" maskUnits="userSpaceOnUse" x="39" y="-5" width="29" height="27">
<path d="M39.5755 3.36634L60.2899 -4.53296L67.3568 13.9939L46.6484 21.8993L39.5755 3.36634Z" fill="white"/>
</mask>
<g mask="url(#mask29_134_79790)">
<path fill-rule="evenodd" clip-rule="evenodd" d="M53.7821 5.20746C52.5365 4.78211 51.3151 2.79513 51.1328 1.50694C50.9505 0.218743 51.2483 -1.19706 52.8767 -1.7014C55.8724 -2.63716 56.6684 1.58593 56.3464 3.43923C56.1337 4.64235 55.1797 5.68142 53.7821 5.20746Z" fill="#D9D2C8"/>
</g>
</g>
</g>
<mask id="mask30_134_79790" style="mask-type:luminance" maskUnits="userSpaceOnUse" x="23" y="34" width="9" height="8">
<path d="M23.3333 34.2222H31.1111V41.9999H23.3333V34.2222Z" fill="white"/>
</mask>
<g mask="url(#mask30_134_79790)">
<mask id="mask31_134_79790" style="mask-type:luminance" maskUnits="userSpaceOnUse" x="21" y="21" width="29" height="28">
<path d="M21.237 29.7135L41.9453 21.8081L49.0182 40.3411L28.3038 48.2404L21.237 29.7135Z" fill="white"/>
</mask>
<g mask="url(#mask31_134_79790)">
<mask id="mask32_134_79790" style="mask-type:luminance" maskUnits="userSpaceOnUse" x="21" y="21" width="29" height="28">
<path d="M21.237 29.7135L41.9453 21.8081L49.0182 40.3411L28.3038 48.2404L21.237 29.7135Z" fill="white"/>
</mask>
<g mask="url(#mask32_134_79790)">
<path fill-rule="evenodd" clip-rule="evenodd" d="M29.2578 40.6145C30.6493 39.5572 30.4792 37.6431 29.355 36.6466C26.9123 34.4773 23.3272 35.9661 24.9253 39.3081C25.6606 40.8272 27.1675 42.2004 29.2578 40.6145Z" fill="#D9D2C8"/>
</g>
</g>
</g>
<mask id="mask33_134_79790" style="mask-type:luminance" maskUnits="userSpaceOnUse" x="38" y="28" width="8" height="8">
<path d="M38.8889 28H45.1111V35.7778H38.8889V28Z" fill="white"/>
</mask>
<g mask="url(#mask33_134_79790)">
<mask id="mask34_134_79790" style="mask-type:luminance" maskUnits="userSpaceOnUse" x="21" y="21" width="29" height="28">
<path d="M21.237 29.7135L41.9453 21.8081L49.0182 40.3411L28.3038 48.2404L21.237 29.7135Z" fill="white"/>
</mask>
<g mask="url(#mask34_134_79790)">
<mask id="mask35_134_79790" style="mask-type:luminance" maskUnits="userSpaceOnUse" x="21" y="21" width="29" height="28">
<path d="M21.237 29.7135L41.9453 21.8081L49.0182 40.3411L28.3038 48.2404L21.237 29.7135Z" fill="white"/>
</mask>
<g mask="url(#mask35_134_79790)">
<path fill-rule="evenodd" clip-rule="evenodd" d="M40.3958 34.2343C41.6719 35.4314 43.5313 34.9392 44.3151 33.6571C46.0347 30.8862 44.7708 26.9487 41.7509 29.0937C40.3776 30.0659 38.4696 32.4418 40.3958 34.2343Z" fill="#D9D2C8"/>
</g>
</g>
</g>
<mask id="mask36_134_79790" style="mask-type:luminance" maskUnits="userSpaceOnUse" x="26" y="26" width="7" height="9">
<path d="M26.4444 26.4445H32.6667V34.2222H26.4444V26.4445Z" fill="white"/>
</mask>
<g mask="url(#mask36_134_79790)">
<mask id="mask37_134_79790" style="mask-type:luminance" maskUnits="userSpaceOnUse" x="21" y="21" width="29" height="28">
<path d="M21.237 29.7136L41.9453 21.8082L49.0182 40.3412L28.3038 48.2405L21.237 29.7136Z" fill="white"/>
</mask>
<g mask="url(#mask37_134_79790)">
<mask id="mask38_134_79790" style="mask-type:luminance" maskUnits="userSpaceOnUse" x="21" y="21" width="29" height="28">
<path d="M21.237 29.7136L41.9453 21.8082L49.0182 40.3412L28.3038 48.2405L21.237 29.7136Z" fill="white"/>
</mask>
<g mask="url(#mask38_134_79790)">
<path fill-rule="evenodd" clip-rule="evenodd" d="M31.9071 33.2197C32.5512 32.0773 32.138 29.7805 31.421 28.6928C30.6918 27.6173 29.5313 26.7605 27.9757 27.4654C25.1198 28.7657 27.3377 32.4419 28.8142 33.6147C29.7682 34.3621 31.178 34.5018 31.9071 33.2197Z" fill="#D9D2C8"/>
</g>
</g>
</g>
<mask id="mask39_134_79790" style="mask-type:luminance" maskUnits="userSpaceOnUse" x="29" y="34" width="17" height="13">
<path d="M29.5556 34.2222H45.1111V46.6666H29.5556V34.2222Z" fill="white"/>
</mask>
<g mask="url(#mask39_134_79790)">
<mask id="mask40_134_79790" style="mask-type:luminance" maskUnits="userSpaceOnUse" x="21" y="21" width="29" height="28">
<path d="M21.237 29.7135L41.9453 21.8081L49.0182 40.3411L28.3038 48.2404L21.237 29.7135Z" fill="white"/>
</mask>
<g mask="url(#mask40_134_79790)">
<mask id="mask41_134_79790" style="mask-type:luminance" maskUnits="userSpaceOnUse" x="21" y="21" width="29" height="28">
<path d="M21.237 29.7135L41.9453 21.8081L49.0182 40.3411L28.3038 48.2404L21.237 29.7135Z" fill="white"/>
</mask>
<g mask="url(#mask41_134_79790)">
<path fill-rule="evenodd" clip-rule="evenodd" d="M30.7769 44.4427C31.1111 45.2934 31.9193 46.0833 33.7969 45.6641C36.829 44.9896 36.908 41.8238 39.855 42.7839C39.855 42.7839 41.1189 43.1849 42.5287 42.717C43.5009 42.316 44.2726 41.7509 44.2665 40.2379C44.2604 37.4002 43.0512 37.7891 40.6754 36.6832C38.2934 35.5712 36.5677 34.0582 34.7995 34.3863C33.0313 34.7083 32.0226 37.3333 31.8342 38.9618C31.5668 41.1736 30.0234 42.5408 30.7769 44.4427Z" fill="#D9D2C8"/>
</g>
</g>
</g>
<mask id="mask42_134_79790" style="mask-type:luminance" maskUnits="userSpaceOnUse" x="32" y="23" width="7" height="10">
<path d="M32.6667 23.3334H38.8889V32.6667H32.6667V23.3334Z" fill="white"/>
</mask>
<g mask="url(#mask42_134_79790)">
<mask id="mask43_134_79790" style="mask-type:luminance" maskUnits="userSpaceOnUse" x="21" y="21" width="29" height="28">
<path d="M21.237 29.7136L41.9453 21.8082L49.0182 40.3412L28.3038 48.2405L21.237 29.7136Z" fill="white"/>
</mask>
<g mask="url(#mask43_134_79790)">
<mask id="mask44_134_79790" style="mask-type:luminance" maskUnits="userSpaceOnUse" x="21" y="21" width="29" height="28">
<path d="M21.237 29.7136L41.9453 21.8082L49.0182 40.3412L28.3038 48.2405L21.237 29.7136Z" fill="white"/>
</mask>
<g mask="url(#mask44_134_79790)">
<path fill-rule="evenodd" clip-rule="evenodd" d="M35.4375 31.5487C34.1979 31.1294 32.9766 29.1424 32.7882 27.8542C32.6059 26.5599 32.9037 25.1502 34.5382 24.6398C37.5339 23.7101 38.3299 27.9271 38.0017 29.7865C37.7952 30.9836 36.8412 32.0287 35.4375 31.5487Z" fill="#D9D2C8"/>
</g>
</g>
</g>
<mask id="mask45_134_79790" style="mask-type:luminance" maskUnits="userSpaceOnUse" x="56" y="34" width="8" height="8">
<path d="M56 34.2222H63.7778V41.9999H56V34.2222Z" fill="white"/>
</mask>
<g mask="url(#mask45_134_79790)">
<mask id="mask46_134_79790" style="mask-type:luminance" maskUnits="userSpaceOnUse" x="53" y="21" width="29" height="28">
<path d="M53.4358 29.7135L74.1441 21.8081L81.217 40.3411L60.5026 48.2404L53.4358 29.7135Z" fill="white"/>
</mask>
<g mask="url(#mask46_134_79790)">
<mask id="mask47_134_79790" style="mask-type:luminance" maskUnits="userSpaceOnUse" x="53" y="21" width="29" height="28">
<path d="M53.4358 29.7135L74.1441 21.8081L81.217 40.3411L60.5026 48.2404L53.4358 29.7135Z" fill="white"/>
</mask>
<g mask="url(#mask47_134_79790)">
<path fill-rule="evenodd" clip-rule="evenodd" d="M61.4566 40.6145C62.8542 39.5572 62.6779 37.6431 61.5538 36.6466C59.1111 34.4773 55.526 35.9661 57.1241 39.3081C57.8594 40.8272 59.3663 42.2004 61.4566 40.6145Z" fill="#D9D2C8"/>
</g>
</g>
</g>
<mask id="mask48_134_79790" style="mask-type:luminance" maskUnits="userSpaceOnUse" x="57" y="26" width="9" height="9">
<path d="M57.5556 26.4445H65.3333V34.2222H57.5556V26.4445Z" fill="white"/>
</mask>
<g mask="url(#mask48_134_79790)">
<mask id="mask49_134_79790" style="mask-type:luminance" maskUnits="userSpaceOnUse" x="53" y="21" width="29" height="28">
<path d="M53.4358 29.7136L74.1441 21.8082L81.217 40.3412L60.5026 48.2405L53.4358 29.7136Z" fill="white"/>
</mask>
<g mask="url(#mask49_134_79790)">
<mask id="mask50_134_79790" style="mask-type:luminance" maskUnits="userSpaceOnUse" x="53" y="21" width="29" height="28">
<path d="M53.4358 29.7136L74.1441 21.8082L81.217 40.3412L60.5026 48.2405L53.4358 29.7136Z" fill="white"/>
</mask>
<g mask="url(#mask50_134_79790)">
<path fill-rule="evenodd" clip-rule="evenodd" d="M64.1059 33.2197C64.7561 32.0773 64.3368 29.7805 63.6198 28.6928C62.8906 27.6173 61.73 26.7605 60.1745 27.4654C57.3186 28.7657 59.5365 32.4419 61.013 33.6147C61.967 34.3621 63.3767 34.5018 64.1059 33.2197Z" fill="#D9D2C8"/>
</g>
</g>
</g>
<mask id="mask51_134_79790" style="mask-type:luminance" maskUnits="userSpaceOnUse" x="62" y="34" width="8" height="13">
<path d="M62.2222 34.2222H70V46.6666H62.2222V34.2222Z" fill="white"/>
</mask>
<g mask="url(#mask51_134_79790)">
<mask id="mask52_134_79790" style="mask-type:luminance" maskUnits="userSpaceOnUse" x="53" y="21" width="29" height="28">
<path d="M53.4358 29.7135L74.1441 21.8081L81.217 40.3411L60.5026 48.2404L53.4358 29.7135Z" fill="white"/>
</mask>
<g mask="url(#mask52_134_79790)">
<mask id="mask53_134_79790" style="mask-type:luminance" maskUnits="userSpaceOnUse" x="53" y="21" width="29" height="28">
<path d="M53.4358 29.7135L74.1441 21.8081L81.217 40.3411L60.5026 48.2404L53.4358 29.7135Z" fill="white"/>
</mask>
<g mask="url(#mask53_134_79790)">
<path fill-rule="evenodd" clip-rule="evenodd" d="M62.9818 44.4427C63.316 45.2934 64.1181 46.0833 65.9957 45.6641C69.0278 44.9896 69.1068 41.8238 72.0538 42.7839C72.0538 42.7839 73.3177 43.1849 74.7335 42.717C75.6996 42.316 76.4714 41.7509 76.4714 40.2379C76.4592 37.4002 75.25 37.7891 72.8741 36.6832C70.4922 35.5712 68.7665 34.0582 66.9983 34.3863C65.23 34.7083 64.2214 37.3333 64.033 38.9618C63.7717 41.1736 62.2222 42.5408 62.9818 44.4427Z" fill="#D9D2C8"/>
</g>
</g>
</g>
<mask id="mask54_134_79790" style="mask-type:luminance" maskUnits="userSpaceOnUse" x="63" y="23" width="7" height="10">
<path d="M63.7778 23.3334H70V32.6667H63.7778V23.3334Z" fill="white"/>
</mask>
<g mask="url(#mask54_134_79790)">
<mask id="mask55_134_79790" style="mask-type:luminance" maskUnits="userSpaceOnUse" x="53" y="21" width="29" height="28">
<path d="M53.4358 29.7136L74.1441 21.8082L81.217 40.3412L60.5026 48.2405L53.4358 29.7136Z" fill="white"/>
</mask>
<g mask="url(#mask55_134_79790)">
<mask id="mask56_134_79790" style="mask-type:luminance" maskUnits="userSpaceOnUse" x="53" y="21" width="29" height="28">
<path d="M53.4358 29.7136L74.1441 21.8082L81.217 40.3412L60.5026 48.2405L53.4358 29.7136Z" fill="white"/>
</mask>
<g mask="url(#mask56_134_79790)">
<path fill-rule="evenodd" clip-rule="evenodd" d="M67.6424 31.5487C66.3967 31.1294 65.1754 29.1424 64.987 27.8542C64.8047 26.5599 65.1024 25.1502 66.737 24.6398C69.7326 23.7101 70.5287 27.9271 70.2005 29.7865C69.9939 30.9836 69.0399 32.0287 67.6424 31.5487Z" fill="#D9D2C8"/>
</g>
</g>
</g>
<mask id="mask57_134_79790" style="mask-type:luminance" maskUnits="userSpaceOnUse" x="6" y="29" width="8" height="9">
<path d="M6.22223 29.5555H14V37.3333H6.22223V29.5555Z" fill="white"/>
</mask>
<g mask="url(#mask57_134_79790)">
<mask id="mask58_134_79790" style="mask-type:luminance" maskUnits="userSpaceOnUse" x="-12" y="23" width="29" height="27">
<path d="M-11.1502 30.9105L9.56423 23.0112L16.6311 41.5381L-4.07726 49.4435L-11.1502 30.9105Z" fill="white"/>
</mask>
<g mask="url(#mask58_134_79790)">
<mask id="mask59_134_79790" style="mask-type:luminance" maskUnits="userSpaceOnUse" x="-12" y="23" width="29" height="27">
<path d="M-11.1502 30.9105L9.56423 23.0112L16.6311 41.5381L-4.07726 49.4435L-11.1502 30.9105Z" fill="white"/>
</mask>
<g mask="url(#mask59_134_79790)">
<path fill-rule="evenodd" clip-rule="evenodd" d="M8.00868 35.4374C9.2908 36.6284 11.1441 36.1362 11.934 34.8601C13.6536 32.0832 12.3898 28.1457 9.36979 30.2907C7.99652 31.269 6.08854 33.6449 8.00868 35.4374Z" fill="#D9D2C8"/>
</g>
</g>
</g>
<mask id="mask60_134_79790" style="mask-type:luminance" maskUnits="userSpaceOnUse" x="0" y="34" width="13" height="15">
<path d="M0 34.2222H12.4444V48.2222H0V34.2222Z" fill="white"/>
</mask>
<g mask="url(#mask60_134_79790)">
<mask id="mask61_134_79790" style="mask-type:luminance" maskUnits="userSpaceOnUse" x="-12" y="23" width="29" height="27">
<path d="M-11.1502 30.9105L9.56423 23.0112L16.6311 41.5381L-4.07726 49.4435L-11.1502 30.9105Z" fill="white"/>
</mask>
<g mask="url(#mask61_134_79790)">
<mask id="mask62_134_79790" style="mask-type:luminance" maskUnits="userSpaceOnUse" x="-12" y="23" width="29" height="27">
<path d="M-11.1502 30.9105L9.56423 23.0112L16.6311 41.5381L-4.07726 49.4435L-11.1502 30.9105Z" fill="white"/>
</mask>
<g mask="url(#mask62_134_79790)">
<path fill-rule="evenodd" clip-rule="evenodd" d="M-1.60417 45.6458C-1.26996 46.4904 -0.461806 47.2804 1.4158 46.8672C4.44184 46.1866 4.52083 43.0208 7.47396 43.9809C7.47396 43.9809 8.73785 44.3819 10.1476 43.9201C11.1198 43.513 11.8915 42.9479 11.8854 41.4349C11.8733 38.5972 10.6701 38.9922 8.29427 37.8802C5.90625 36.7682 4.18056 35.2552 2.4184 35.5833C0.650174 35.9054 -0.358507 38.5364 -0.546874 40.1649C-0.814237 42.3767 -2.36371 43.7439 -1.60417 45.6458Z" fill="#D9D2C8"/>
</g>
</g>
</g>
<mask id="mask63_134_79790" style="mask-type:luminance" maskUnits="userSpaceOnUse" x="0" y="24" width="7" height="11">
<path d="M0 24.8889H6.22222V34.2222H0V24.8889Z" fill="white"/>
</mask>
<g mask="url(#mask63_134_79790)">
<mask id="mask64_134_79790" style="mask-type:luminance" maskUnits="userSpaceOnUse" x="-12" y="23" width="29" height="27">
<path d="M-11.1502 30.9107L9.56423 23.0114L16.6311 41.5383L-4.07726 49.4436L-11.1502 30.9107Z" fill="white"/>
</mask>
<g mask="url(#mask64_134_79790)">
<mask id="mask65_134_79790" style="mask-type:luminance" maskUnits="userSpaceOnUse" x="-12" y="23" width="29" height="27">
<path d="M-11.1502 30.9107L9.56423 23.0114L16.6311 41.5383L-4.07726 49.4436L-11.1502 30.9107Z" fill="white"/>
</mask>
<g mask="url(#mask65_134_79790)">
<path fill-rule="evenodd" clip-rule="evenodd" d="M3.05642 32.7518C1.81076 32.3264 0.595486 30.3394 0.407119 29.0512C0.224827 27.7631 0.522571 26.3473 2.15712 25.8429C5.1467 24.9072 5.94271 29.1302 5.62066 30.9835C5.40799 32.1867 4.45399 33.2257 3.05642 32.7518Z" fill="#D9D2C8"/>
</g>
</g>
</g>
<mask id="mask66_134_79790" style="mask-type:luminance" maskUnits="userSpaceOnUse" x="40" y="59" width="7" height="7">
<path d="M40.4444 59.1111H46.6667V65.3333H40.4444V59.1111Z" fill="white"/>
</mask>
<g mask="url(#mask66_134_79790)">
<mask id="mask67_134_79790" style="mask-type:luminance" maskUnits="userSpaceOnUse" x="37" y="45" width="29" height="27">
<path d="M37.4245 53.1926L58.1389 45.2933L65.2057 63.8263L44.4974 71.7256L37.4245 53.1926Z" fill="white"/>
</mask>
<g mask="url(#mask67_134_79790)">
<mask id="mask68_134_79790" style="mask-type:luminance" maskUnits="userSpaceOnUse" x="37" y="45" width="29" height="27">
<path d="M37.4245 53.1926L58.1389 45.2933L65.2057 63.8263L44.4974 71.7256L37.4245 53.1926Z" fill="white"/>
</mask>
<g mask="url(#mask68_134_79790)">
<path fill-rule="evenodd" clip-rule="evenodd" d="M45.4514 64.0936C46.8429 63.0363 46.6727 61.1223 45.5425 60.1318C43.1059 57.9626 39.5208 59.4513 41.1189 62.7933C41.8481 64.3063 43.355 65.6796 45.4514 64.0936Z" fill="#D9D2C8"/>
</g>
</g>
</g>
<mask id="mask69_134_79790" style="mask-type:luminance" maskUnits="userSpaceOnUse" x="54" y="51" width="9" height="9">
<path d="M54.4444 51.3334H62.2222V59.1112H54.4444V51.3334Z" fill="white"/>
</mask>
<g mask="url(#mask69_134_79790)">
<mask id="mask70_134_79790" style="mask-type:luminance" maskUnits="userSpaceOnUse" x="37" y="45" width="29" height="27">
<path d="M37.4245 53.1928L58.1389 45.2935L65.2057 63.8264L44.4974 71.7257L37.4245 53.1928Z" fill="white"/>
</mask>
<g mask="url(#mask70_134_79790)">
<mask id="mask71_134_79790" style="mask-type:luminance" maskUnits="userSpaceOnUse" x="37" y="45" width="29" height="27">
<path d="M37.4245 53.1928L58.1389 45.2935L65.2057 63.8264L44.4974 71.7257L37.4245 53.1928Z" fill="white"/>
</mask>
<g mask="url(#mask71_134_79790)">
<path fill-rule="evenodd" clip-rule="evenodd" d="M56.5833 57.7196C57.8654 58.9106 59.7187 58.4184 60.5087 57.1424C62.2283 54.3654 60.9644 50.4279 57.9444 52.5729C56.5712 53.5512 54.6632 55.9271 56.5833 57.7196Z" fill="#D9D2C8"/>
</g>
</g>
</g>
<mask id="mask72_134_79790" style="mask-type:luminance" maskUnits="userSpaceOnUse" x="42" y="49" width="8" height="11">
<path d="M42 49.7778H49.7778V59.1112H42V49.7778Z" fill="white"/>
</mask>
<g mask="url(#mask72_134_79790)">
<mask id="mask73_134_79790" style="mask-type:luminance" maskUnits="userSpaceOnUse" x="37" y="45" width="29" height="27">
<path d="M37.4245 53.1928L58.1389 45.2935L65.2057 63.8264L44.4974 71.7257L37.4245 53.1928Z" fill="white"/>
</mask>
<g mask="url(#mask73_134_79790)">
<mask id="mask74_134_79790" style="mask-type:luminance" maskUnits="userSpaceOnUse" x="37" y="45" width="29" height="27">
<path d="M37.4245 53.1928L58.1389 45.2935L65.2057 63.8264L44.4974 71.7257L37.4245 53.1928Z" fill="white"/>
</mask>
<g mask="url(#mask74_134_79790)">
<path fill-rule="evenodd" clip-rule="evenodd" d="M48.1007 56.7049C48.7448 55.5626 48.3316 53.2657 47.6085 52.178C46.8854 51.1025 45.7188 50.2397 44.1632 50.9506C41.3073 52.2509 43.5252 55.9272 45.0078 57.0938C45.9618 57.8473 47.3655 57.9871 48.1007 56.7049Z" fill="#D9D2C8"/>
</g>
</g>
</g>
<mask id="mask75_134_79790" style="mask-type:luminance" maskUnits="userSpaceOnUse" x="46" y="57" width="15" height="13">
<path d="M46.6667 57.5555H60.6667V70H46.6667V57.5555Z" fill="white"/>
</mask>
<g mask="url(#mask75_134_79790)">
<mask id="mask76_134_79790" style="mask-type:luminance" maskUnits="userSpaceOnUse" x="37" y="45" width="29" height="27">
<path d="M37.4245 53.1926L58.1389 45.2933L65.2057 63.8263L44.4974 71.7256L37.4245 53.1926Z" fill="white"/>
</mask>
<g mask="url(#mask76_134_79790)">
<mask id="mask77_134_79790" style="mask-type:luminance" maskUnits="userSpaceOnUse" x="37" y="45" width="29" height="27">
<path d="M37.4245 53.1926L58.1389 45.2933L65.2057 63.8263L44.4974 71.7256L37.4245 53.1926Z" fill="white"/>
</mask>
<g mask="url(#mask77_134_79790)">
<path fill-rule="evenodd" clip-rule="evenodd" d="M46.9705 67.9279C47.3047 68.7785 48.1129 69.5685 49.9905 69.1492C53.0165 68.4686 53.0955 65.3029 56.0486 66.2629C56.0486 66.2629 57.3064 66.664 58.7222 66.2022C59.6945 65.8011 60.4662 65.2299 60.4601 63.723C60.4479 60.8853 59.2448 61.2742 56.8689 60.1622C54.4809 59.0502 52.7552 57.5433 50.9931 57.8714C49.2248 58.1935 48.2162 60.8185 48.0278 62.4469C47.7604 64.6588 46.2109 66.0259 46.9705 67.9279Z" fill="#D9D2C8"/>
</g>
</g>
</g>
<mask id="mask78_134_79790" style="mask-type:luminance" maskUnits="userSpaceOnUse" x="48" y="46" width="7" height="10">
<path d="M48.2222 46.6666H54.4445V56H48.2222V46.6666Z" fill="white"/>
</mask>
<g mask="url(#mask78_134_79790)">
<mask id="mask79_134_79790" style="mask-type:luminance" maskUnits="userSpaceOnUse" x="37" y="45" width="29" height="27">
<path d="M37.4245 53.1926L58.1389 45.2933L65.2057 63.8263L44.4974 71.7256L37.4245 53.1926Z" fill="white"/>
</mask>
<g mask="url(#mask79_134_79790)">
<mask id="mask80_134_79790" style="mask-type:luminance" maskUnits="userSpaceOnUse" x="37" y="45" width="29" height="27">
<path d="M37.4245 53.1926L58.1389 45.2933L65.2057 63.8263L44.4974 71.7256L37.4245 53.1926Z" fill="white"/>
</mask>
<g mask="url(#mask80_134_79790)">
<path fill-rule="evenodd" clip-rule="evenodd" d="M51.6311 55.0338C50.3854 54.6084 49.1701 52.6214 48.9818 51.3332C48.7995 50.045 49.0972 48.6353 50.7318 48.1249C53.7214 47.1952 54.5174 51.4122 54.1953 53.2716C53.9826 54.4687 53.0287 55.5077 51.6311 55.0338Z" fill="#D9D2C8"/>
</g>
</g>
</g>
<mask id="mask81_134_79790" style="mask-type:luminance" maskUnits="userSpaceOnUse" x="7" y="60" width="9" height="9">
<path d="M7.77777 60.6666H15.5555V68.4444H7.77777V60.6666Z" fill="white"/>
</mask>
<g mask="url(#mask81_134_79790)">
<mask id="mask82_134_79790" style="mask-type:luminance" maskUnits="userSpaceOnUse" x="5" y="48" width="29" height="27">
<path d="M5.22569 56.0547L25.934 48.1554L33.0069 66.6884L12.2986 74.5877L5.22569 56.0547Z" fill="white"/>
</mask>
<g mask="url(#mask82_134_79790)">
<mask id="mask83_134_79790" style="mask-type:luminance" maskUnits="userSpaceOnUse" x="5" y="48" width="29" height="27">
<path d="M5.22569 56.0547L25.934 48.1554L33.0069 66.6884L12.2986 74.5877L5.22569 56.0547Z" fill="white"/>
</mask>
<g mask="url(#mask83_134_79790)">
<path fill-rule="evenodd" clip-rule="evenodd" d="M13.2526 66.9558C14.6441 65.8985 14.4679 63.9844 13.3437 62.994C10.9071 60.8247 7.31597 62.3134 8.92013 65.6494C9.6493 67.1685 11.1562 68.5417 13.2526 66.9558Z" fill="#D9D2C8"/>
</g>
</g>
</g>
<mask id="mask84_134_79790" style="mask-type:luminance" maskUnits="userSpaceOnUse" x="23" y="54" width="7" height="9">
<path d="M23.3333 54.4445H29.5556V62.2222H23.3333V54.4445Z" fill="white"/>
</mask>
<g mask="url(#mask84_134_79790)">
<mask id="mask85_134_79790" style="mask-type:luminance" maskUnits="userSpaceOnUse" x="5" y="48" width="29" height="27">
<path d="M5.22569 56.0547L25.934 48.1554L33.0069 66.6884L12.2986 74.5877L5.22569 56.0547Z" fill="white"/>
</mask>
<g mask="url(#mask85_134_79790)">
<mask id="mask86_134_79790" style="mask-type:luminance" maskUnits="userSpaceOnUse" x="5" y="48" width="29" height="27">
<path d="M5.22569 56.0547L25.934 48.1554L33.0069 66.6884L12.2986 74.5877L5.22569 56.0547Z" fill="white"/>
</mask>
<g mask="url(#mask86_134_79790)">
<path fill-rule="evenodd" clip-rule="evenodd" d="M24.3845 60.5816C25.6667 61.7725 27.52 61.2803 28.3099 60.0043C30.0295 57.2274 28.7595 53.2899 25.7396 55.4349C24.3724 56.4132 22.4644 58.789 24.3845 60.5816Z" fill="#D9D2C8"/>
</g>
</g>
</g>
<mask id="mask87_134_79790" style="mask-type:luminance" maskUnits="userSpaceOnUse" x="9" y="52" width="9" height="9">
<path d="M9.33333 52.8889H17.1111V60.6667H9.33333V52.8889Z" fill="white"/>
</mask>
<g mask="url(#mask87_134_79790)">
<mask id="mask88_134_79790" style="mask-type:luminance" maskUnits="userSpaceOnUse" x="5" y="48" width="29" height="27">
<path d="M5.22569 56.0547L25.934 48.1554L33.0069 66.6884L12.2986 74.5877L5.22569 56.0547Z" fill="white"/>
</mask>
<g mask="url(#mask88_134_79790)">
<mask id="mask89_134_79790" style="mask-type:luminance" maskUnits="userSpaceOnUse" x="5" y="48" width="29" height="27">
<path d="M5.22569 56.0547L25.934 48.1554L33.0069 66.6884L12.2986 74.5877L5.22569 56.0547Z" fill="white"/>
</mask>
<g mask="url(#mask89_134_79790)">
<path fill-rule="evenodd" clip-rule="evenodd" d="M15.8958 59.5669C16.546 58.4245 16.1328 56.1277 15.4097 55.04C14.6866 53.9584 13.52 53.1016 11.9644 53.8126C9.10851 55.1129 11.3264 58.7891 12.809 59.9558C13.7569 60.7032 15.1667 60.849 15.8958 59.5669Z" fill="#D9D2C8"/>
</g>
</g>
</g>
<mask id="mask90_134_79790" style="mask-type:luminance" maskUnits="userSpaceOnUse" x="14" y="60" width="16" height="10">
<path d="M14 60.6666H29.5556V70H14V60.6666Z" fill="white"/>
</mask>
<g mask="url(#mask90_134_79790)">
<mask id="mask91_134_79790" style="mask-type:luminance" maskUnits="userSpaceOnUse" x="5" y="48" width="29" height="27">
<path d="M5.22569 56.0547L25.934 48.1554L33.0069 66.6884L12.2986 74.5877L5.22569 56.0547Z" fill="white"/>
</mask>
<g mask="url(#mask91_134_79790)">
<mask id="mask92_134_79790" style="mask-type:luminance" maskUnits="userSpaceOnUse" x="5" y="48" width="29" height="27">
<path d="M5.22569 56.0547L25.934 48.1554L33.0069 66.6884L12.2986 74.5877L5.22569 56.0547Z" fill="white"/>
</mask>
<g mask="url(#mask92_134_79790)">
<path fill-rule="evenodd" clip-rule="evenodd" d="M14.7717 70.7899C15.1059 71.6406 15.908 72.4305 17.7917 72.0113C20.8177 71.3307 20.8967 68.1649 23.8498 69.125C23.8498 69.125 25.1076 69.526 26.5234 69.0642C27.4957 68.6571 28.2674 68.092 28.2613 66.579C28.2491 63.7474 27.046 64.1363 24.6641 63.0243C22.2821 61.9123 20.5564 60.4054 18.7882 60.7274C17.02 61.0555 16.0113 63.6805 15.8229 65.309C15.5616 67.5208 14.0122 68.888 14.7717 70.7899Z" fill="#D9D2C8"/>
</g>
</g>
</g>
<mask id="mask93_134_79790" style="mask-type:luminance" maskUnits="userSpaceOnUse" x="15" y="49" width="9" height="11">
<path d="M15.5556 49.7778H23.3333V59.1112H15.5556V49.7778Z" fill="white"/>
</mask>
<g mask="url(#mask93_134_79790)">
<mask id="mask94_134_79790" style="mask-type:luminance" maskUnits="userSpaceOnUse" x="5" y="48" width="29" height="27">
<path d="M5.22569 56.0547L25.934 48.1554L33.0069 66.6884L12.2986 74.5877L5.22569 56.0547Z" fill="white"/>
</mask>
<g mask="url(#mask94_134_79790)">
<mask id="mask95_134_79790" style="mask-type:luminance" maskUnits="userSpaceOnUse" x="5" y="48" width="29" height="27">
<path d="M5.22569 56.0547L25.934 48.1554L33.0069 66.6884L12.2986 74.5877L5.22569 56.0547Z" fill="white"/>
</mask>
<g mask="url(#mask95_134_79790)">
<path fill-rule="evenodd" clip-rule="evenodd" d="M19.4323 57.8958C18.1866 57.4705 16.9653 55.4835 16.783 54.1953C16.6007 52.9071 16.8924 51.4974 18.5269 50.987C21.5226 50.0573 22.3186 54.2743 21.9965 56.1337C21.7838 57.3307 20.8299 58.3698 19.4323 57.8958Z" fill="#D9D2C8"/>
</g>
</g>
</g>
<g clip-path="url(#clip2_134_79790)">
<path d="M77 -7H-7V77H77V-7Z" fill="white"/>
<path d="M77 -7H-7V77H77V-7Z" fill="#A67F6F"/>
<mask id="mask96_134_79790" style="mask-type:luminance" maskUnits="userSpaceOnUse" x="0" y="7" width="21" height="20">
<path d="M0 7.77783H20.2222V26.4445H0V7.77783Z" fill="white"/>
</mask>
<g mask="url(#mask96_134_79790)">
<mask id="mask97_134_79790" style="mask-type:luminance" maskUnits="userSpaceOnUse" x="-6" y="6" width="27" height="22">
<path d="M-5.95486 16.3516L15.3733 6.87854L20.1068 17.5365L-1.21528 27.0157L-5.95486 16.3516Z" fill="white"/>
</mask>
<g mask="url(#mask97_134_79790)">
<mask id="mask98_134_79790" style="mask-type:luminance" maskUnits="userSpaceOnUse" x="-6" y="6" width="27" height="22">
<path d="M-5.95486 16.3516L15.3733 6.87854L20.1068 17.5365L-1.21528 27.0157L-5.95486 16.3516Z" fill="white"/>
</mask>
<g mask="url(#mask98_134_79790)">
<path d="M18.4297 14.6746C19.1102 15.8899 19.1102 17.0201 18.4297 18.0652C17.4332 19.5965 15.1606 19.8821 13.8238 18.6668C13.5868 18.4541 13.3498 18.2111 13.1128 17.9376C13.0764 17.8951 13.0278 17.8647 12.9792 17.8525C12.7969 17.81 12.6146 17.8222 12.4444 17.8951C11.3811 18.3508 8.58593 19.6025 4.05902 21.6503C3.56075 21.8751 3.46961 22.106 3.48784 22.6225C3.50607 23.1694 3.53645 23.6798 3.421 24.0626C2.91058 25.7579 0.978289 26.6512 -0.638029 25.9767C-0.826398 25.9038 -1.00261 25.8005 -1.17883 25.685C-2.77084 24.5973 -2.83768 23.0479 -2.30904 21.3525C-2.29081 21.3039 -2.32119 21.2492 -2.36372 21.231C-2.86806 21.0609 -3.27518 20.8482 -3.59116 20.6112C-4.88543 19.6086 -5.3047 17.9558 -4.57553 16.5157C-4.00435 15.3795 -2.53386 14.547 -1.22744 14.7718C-0.224835 14.942 0.291658 15.4645 1.01475 16.1512C1.11197 16.2484 1.2578 16.2727 1.38541 16.2241C3.73697 15.2579 6.39235 14.1034 9.35155 12.7545C9.9835 12.4628 10.4757 12.2805 10.4696 11.6486C10.4696 11.047 10.4392 10.652 10.5729 10.2024C11.0104 8.71973 12.4991 7.88119 13.9878 8.07564C14.0121 8.08171 14.0304 8.08171 14.0486 8.08779C15.8351 8.36123 16.8984 10.1234 16.6736 11.9098C16.6371 12.238 16.4852 12.5843 16.3637 12.9793C16.3333 13.0887 16.3819 13.198 16.4913 13.2466C17.3177 13.5869 17.9679 13.8543 18.4297 14.6807V14.6746Z" fill="#543026"/>
<path d="M18.4297 14.6746C19.1102 15.8899 19.1102 17.0201 18.4297 18.0652C17.4331 19.5964 15.1606 19.882 13.8238 18.6668C13.5868 18.4541 13.3498 18.211 13.1128 17.9376C13.0764 17.8951 13.0278 17.8647 12.9792 17.8525C12.7969 17.81 12.6146 17.8221 12.4444 17.8951C11.3811 18.3508 8.58593 19.6025 4.05902 21.6503C3.56075 21.8751 3.46961 22.106 3.48784 22.6225C3.50607 23.1694 3.53645 23.6798 3.421 24.0626C2.91058 25.7579 0.978288 26.6511 -0.638031 25.9767C-0.285601 25.8247 0.121517 25.6607 0.449642 25.5817C0.583323 25.5331 0.717004 25.4723 0.83853 25.3994C3.50607 23.7405 0.789919 21.4497 4.75173 20.1433C6.76909 19.323 8.85329 18.369 11.0651 17.2813C11.5755 17.0383 12.1163 16.8135 12.6753 16.8013C13.7691 16.7588 14.6927 17.7067 15.8047 17.3968C17.4028 17.0687 17.7613 15.0209 16.2057 14.3343C15.8229 14.152 15.3003 14.1338 14.9418 13.9333C14.4739 13.6598 14.9236 13.1555 15.1241 12.8152C15.3915 12.4385 15.5799 12.007 15.6528 11.5452C15.8229 10.573 15.4583 9.50964 14.7292 8.79871C14.7292 8.79871 14.717 8.78655 14.6927 8.76832C14.4983 8.59819 14.2977 8.40982 14.2066 8.28221C14.1519 8.22145 14.0972 8.15461 14.0486 8.08777C15.8351 8.36121 16.8984 10.1294 16.6736 11.9098C16.6371 12.2379 16.4852 12.5843 16.3637 12.9793C16.3333 13.0886 16.388 13.198 16.4913 13.2466C17.3177 13.5869 17.9679 13.8543 18.4297 14.6806V14.6746Z" fill="#F3EBE1"/>
</g>
</g>
</g>
<mask id="mask99_134_79790" style="mask-type:luminance" maskUnits="userSpaceOnUse" x="0" y="31" width="21" height="19">
<path d="M0 31.1111H20.2222V49.7777H0V31.1111Z" fill="white"/>
</mask>
<g mask="url(#mask99_134_79790)">
<mask id="mask100_134_79790" style="mask-type:luminance" maskUnits="userSpaceOnUse" x="-6" y="30" width="27" height="21">
<path d="M-5.95486 39.8489L15.3733 30.3759L20.1068 41.0338L-1.21528 50.513L-5.95486 39.8489Z" fill="white"/>
</mask>
<g mask="url(#mask100_134_79790)">
<mask id="mask101_134_79790" style="mask-type:luminance" maskUnits="userSpaceOnUse" x="-6" y="30" width="27" height="21">
<path d="M-5.95486 39.8489L15.3733 30.3759L20.1068 41.0338L-1.21528 50.513L-5.95486 39.8489Z" fill="white"/>
</mask>
<g mask="url(#mask101_134_79790)">
<path d="M18.4297 38.1719C19.1102 39.3872 19.1102 40.5174 18.4297 41.5625C17.4332 43.0938 15.1606 43.3794 13.8238 42.1641C13.5868 41.9514 13.3498 41.7084 13.1128 41.4349C13.0764 41.3924 13.0278 41.362 12.9792 41.3499C12.7969 41.3073 12.6146 41.3195 12.4444 41.3924C11.3811 41.8481 8.58593 43.0999 4.05902 45.1476C3.56075 45.3724 3.46961 45.6033 3.48784 46.1198C3.50607 46.6667 3.53645 47.1771 3.421 47.5599C2.91058 49.2552 0.978289 50.1485 -0.638029 49.474C-0.826398 49.4011 -1.00261 49.3039 -1.17883 49.1823C-2.77084 48.0947 -2.83768 46.5452 -2.30904 44.8499C-2.29081 44.8012 -2.32119 44.7466 -2.36372 44.7283C-2.86806 44.5582 -3.27518 44.3455 -3.59116 44.1085C-4.88543 43.1059 -5.3047 41.4532 -4.57553 40.0131C-4.00435 38.8768 -2.53386 38.0443 -1.22744 38.2691C-0.224835 38.4393 0.291658 38.9618 1.01475 39.6485C1.11197 39.7457 1.2578 39.77 1.38541 39.7214C3.73697 38.7552 6.39235 37.6007 9.35155 36.2518C9.9835 35.9601 10.4757 35.7778 10.4696 35.1459C10.4696 34.5443 10.4392 34.1493 10.5729 33.6997C11.0104 32.217 12.4991 31.3785 13.9878 31.573C14.0121 31.579 14.0304 31.579 14.0486 31.5851C15.8351 31.8585 16.8984 33.6268 16.6736 35.4072C16.6371 35.7353 16.4852 36.0816 16.3637 36.4766C16.3333 36.586 16.3819 36.6953 16.4913 36.744C17.3177 37.0842 17.9679 37.3516 18.4297 38.178V38.1719Z" fill="#543026"/>
<path d="M18.4297 38.1719C19.1102 39.3872 19.1102 40.5174 18.4297 41.5625C17.4331 43.0938 15.1606 43.3794 13.8238 42.1641C13.5868 41.9514 13.3498 41.7083 13.1128 41.4349C13.0764 41.3924 13.0278 41.362 12.9792 41.3498C12.7969 41.3073 12.6146 41.3195 12.4444 41.3924C11.3811 41.8481 8.58593 43.0998 4.05902 45.1476C3.56075 45.3724 3.46961 45.6033 3.48784 46.1198C3.50607 46.6667 3.53645 47.1771 3.421 47.5599C2.91058 49.2552 0.978288 50.1484 -0.638031 49.474C-0.285601 49.3221 0.121517 49.158 0.449642 49.079C0.583323 49.0304 0.717004 48.9696 0.83853 48.8967C3.50607 47.2379 0.789919 44.9471 4.75173 43.6406C6.76909 42.8203 8.85329 41.8663 11.0651 40.7787C11.5755 40.5356 12.1163 40.3108 12.6753 40.2986C13.7691 40.2561 14.6927 41.204 15.8047 40.8941C17.4028 40.566 17.7613 38.5182 16.2057 37.8316C15.8229 37.6493 15.3003 37.6311 14.9418 37.4306C14.4739 37.1571 14.9236 36.6528 15.1241 36.3125C15.3915 35.9358 15.5799 35.5044 15.6528 35.0425C15.8229 34.0703 15.4583 33.007 14.7292 32.296C14.7292 32.296 14.717 32.2839 14.6927 32.2656C14.4983 32.0955 14.2977 31.9071 14.2066 31.7795C14.1519 31.7188 14.0972 31.6519 14.0486 31.5851C15.8351 31.8585 16.8984 33.6267 16.6736 35.4071C16.6371 35.7353 16.4852 36.0877 16.3637 36.4766C16.3333 36.5859 16.388 36.6953 16.4913 36.7439C17.3177 37.0842 17.9679 37.3516 18.4297 38.178V38.1719Z" fill="#F3EBE1"/>
</g>
</g>
</g>
<mask id="mask102_134_79790" style="mask-type:luminance" maskUnits="userSpaceOnUse" x="21" y="15" width="28" height="20">
<path d="M21.7778 15.5555H48.2222V34.2222H21.7778V15.5555Z" fill="white"/>
</mask>
<g mask="url(#mask102_134_79790)">
<mask id="mask103_134_79790" style="mask-type:luminance" maskUnits="userSpaceOnUse" x="22" y="14" width="27" height="21">
<path d="M22.0451 24.0747L43.3733 14.6016L48.1068 25.2595L26.7847 34.7326L22.0451 24.0747Z" fill="white"/>
</mask>
<g mask="url(#mask103_134_79790)">
<mask id="mask104_134_79790" style="mask-type:luminance" maskUnits="userSpaceOnUse" x="22" y="14" width="27" height="21">
<path d="M22.0451 24.0747L43.3733 14.6016L48.1068 25.2595L26.7847 34.7326L22.0451 24.0747Z" fill="white"/>
</mask>
<g mask="url(#mask104_134_79790)">
<path d="M46.4297 22.3975C47.1102 23.6067 47.1102 24.7369 46.4297 25.7821C45.4332 27.3194 43.1606 27.605 41.8238 26.3836C41.5868 26.171 41.3498 25.934 41.1128 25.6605C41.0764 25.6119 41.0278 25.5876 40.9792 25.5755C40.7969 25.5269 40.6146 25.539 40.4444 25.618C39.3811 26.0737 36.5859 27.3255 32.059 29.3671C31.5608 29.592 31.4696 29.8229 31.4878 30.3454C31.5061 30.8923 31.5365 31.4027 31.421 31.7855C30.9106 33.4809 28.9783 34.368 27.362 33.6996C27.1736 33.6206 26.9974 33.5234 26.8212 33.4079C25.2292 32.3142 25.1623 30.7708 25.691 29.0694C25.7092 29.0269 25.6788 28.9722 25.6363 28.9539C25.1319 28.7777 24.7248 28.5711 24.4088 28.3342C23.1146 27.3316 22.6953 25.6727 23.4245 24.2326C23.9957 23.0963 25.4661 22.2699 26.7726 22.4947C27.7752 22.6649 28.2917 23.1875 29.0147 23.8741C29.112 23.9713 29.2578 23.9956 29.3854 23.9409C31.737 22.9809 34.3924 21.8263 37.3516 20.4774C37.9835 20.1857 38.4757 19.9974 38.4696 19.3715C38.4696 18.7699 38.4392 18.375 38.5729 17.9253C39.0104 16.4366 40.4991 15.6041 41.9878 15.7986C42.0121 15.7986 42.0304 15.8046 42.0486 15.8046C43.8351 16.0781 44.8984 17.8463 44.6736 19.6328C44.6371 19.9548 44.4852 20.3072 44.3637 20.7022C44.3333 20.8055 44.3819 20.921 44.4913 20.9635C45.3177 21.3099 45.9679 21.5772 46.4297 22.3975Z" fill="#543026"/>
</g>
</g>
</g>
<mask id="mask105_134_79790" style="mask-type:luminance" maskUnits="userSpaceOnUse" x="26" y="15" width="23" height="20">
<path d="M26.4444 15.5555H48.2222V34.2222H26.4444V15.5555Z" fill="white"/>
</mask>
<g mask="url(#mask105_134_79790)">
<mask id="mask106_134_79790" style="mask-type:luminance" maskUnits="userSpaceOnUse" x="22" y="14" width="27" height="21">
<path d="M22.0451 24.0747L43.3733 14.6016L48.1068 25.2595L26.7847 34.7326L22.0451 24.0747Z" fill="white"/>
</mask>
<g mask="url(#mask106_134_79790)">
<mask id="mask107_134_79790" style="mask-type:luminance" maskUnits="userSpaceOnUse" x="22" y="14" width="27" height="21">
<path d="M22.0451 24.0747L43.3733 14.6016L48.1068 25.2595L26.7847 34.7326L22.0451 24.0747Z" fill="white"/>
</mask>
<g mask="url(#mask107_134_79790)">
<path d="M46.4297 22.3976C47.1102 23.6068 47.1102 24.737 46.4297 25.7821C45.4332 27.3194 43.1606 27.605 41.8238 26.3837C41.5868 26.171 41.3498 25.934 41.1129 25.6606C41.0764 25.612 41.0278 25.5877 40.9792 25.5755C40.7969 25.5269 40.6146 25.5391 40.4444 25.6181C39.3811 26.0738 36.5859 27.3255 32.059 29.3672C31.5608 29.592 31.4696 29.8229 31.4879 30.3455C31.5061 30.8924 31.5365 31.4028 31.421 31.7856C30.9106 33.4809 28.9783 34.3681 27.362 33.6997C27.7144 33.5417 28.1215 33.3837 28.4497 33.3047C28.5833 33.25 28.717 33.1953 28.8385 33.1163C31.5061 31.4635 28.7899 29.1727 32.7517 27.8663C34.7691 27.0399 36.8533 26.0859 39.0651 24.9983C39.5755 24.7613 40.1163 24.5365 40.6754 24.5243C41.7691 24.4818 42.6927 25.4297 43.8047 25.1198C45.4028 24.7856 45.7613 22.7439 44.2057 22.0573C43.8229 21.875 43.3004 21.8507 42.9418 21.6563C42.474 21.3767 42.9236 20.8785 43.1241 20.5382C43.3915 20.1615 43.5799 19.73 43.6528 19.2682C43.8229 18.2899 43.4583 17.2326 42.7292 16.5217C42.7292 16.5217 42.717 16.5095 42.6927 16.4913C42.4983 16.3212 42.2977 16.1328 42.2066 16.0052C42.1519 15.9384 42.0972 15.8776 42.0486 15.8047C43.8351 16.0842 44.8984 17.8464 44.6736 19.6328C44.6372 19.9549 44.4852 20.3073 44.3637 20.7023C44.3333 20.8056 44.388 20.921 44.4913 20.9635C45.3177 21.3099 45.9679 21.5773 46.4297 22.3976Z" fill="#F3EBE1"/>
</g>
</g>
</g>
<mask id="mask108_134_79790" style="mask-type:luminance" maskUnits="userSpaceOnUse" x="49" y="0" width="21" height="21">
<path d="M49.7778 0H70V20.2222H49.7778V0Z" fill="white"/>
</mask>
<g mask="url(#mask108_134_79790)">
<mask id="mask109_134_79790" style="mask-type:luminance" maskUnits="userSpaceOnUse" x="50" y="-1" width="27" height="22">
<path d="M50.0451 9.35151L71.3733 -0.121582L76.1068 10.5364L54.7847 20.0156L50.0451 9.35151Z" fill="white"/>
</mask>
<g mask="url(#mask109_134_79790)">
<mask id="mask110_134_79790" style="mask-type:luminance" maskUnits="userSpaceOnUse" x="50" y="-1" width="27" height="22">
<path d="M50.0451 9.35151L71.3733 -0.121582L76.1068 10.5364L54.7847 20.0156L50.0451 9.35151Z" fill="white"/>
</mask>
<g mask="url(#mask110_134_79790)">
<path d="M74.4297 7.67447C75.1102 8.88975 75.1102 10.02 74.4297 11.0651C73.4332 12.5963 71.1606 12.8819 69.8238 11.6667C69.5868 11.454 69.3498 11.2109 69.1129 10.9375C69.0764 10.895 69.0278 10.8646 68.9792 10.8524C68.7969 10.8099 68.6146 10.822 68.4445 10.895C67.3811 11.3507 64.5859 12.6024 60.059 14.6502C59.5608 14.875 59.4696 15.1059 59.4879 15.6224C59.5061 16.1693 59.5365 16.6797 59.421 17.0625C58.9106 18.7578 56.9783 19.651 55.362 18.9766C55.1736 18.9036 54.9974 18.8003 54.8212 18.6849C53.2292 17.5972 53.1623 16.0477 53.691 14.3524C53.7092 14.3038 53.6788 14.2491 53.6363 14.2309C53.132 14.0608 52.7248 13.8481 52.4089 13.6111C51.1146 12.6085 50.6953 10.9557 51.4245 9.51562C51.9957 8.37933 53.4662 7.54687 54.7726 7.7717C55.7752 7.94183 56.2917 8.4644 57.0148 9.15103C57.112 9.24826 57.2578 9.27256 57.3854 9.22395C59.737 8.25781 62.3924 7.10329 65.3516 5.75433C65.9835 5.46267 66.4757 5.28037 66.4696 4.64843C66.4696 4.04687 66.4392 3.6519 66.5729 3.20225C67.0104 1.71961 68.4991 0.881069 69.9879 1.07551C70.0122 1.08159 70.0304 1.08159 70.0486 1.08767C71.8351 1.3611 72.8984 3.12326 72.6736 4.90972C72.6372 5.23784 72.4852 5.58419 72.3637 5.97916C72.3333 6.08853 72.382 6.19791 72.4913 6.24652C73.3177 6.5868 73.9679 6.85416 74.4297 7.68055V7.67447Z" fill="#543026"/>
</g>
</g>
</g>
<mask id="mask111_134_79790" style="mask-type:luminance" maskUnits="userSpaceOnUse" x="54" y="0" width="16" height="21">
<path d="M54.4444 0H70V20.2222H54.4444V0Z" fill="white"/>
</mask>
<g mask="url(#mask111_134_79790)">
<mask id="mask112_134_79790" style="mask-type:luminance" maskUnits="userSpaceOnUse" x="50" y="-1" width="27" height="22">
<path d="M50.0451 9.35151L71.3733 -0.121582L76.1068 10.5364L54.7847 20.0156L50.0451 9.35151Z" fill="white"/>
</mask>
<g mask="url(#mask112_134_79790)">
<mask id="mask113_134_79790" style="mask-type:luminance" maskUnits="userSpaceOnUse" x="50" y="-1" width="27" height="22">
<path d="M50.0451 9.35151L71.3733 -0.121582L76.1068 10.5364L54.7847 20.0156L50.0451 9.35151Z" fill="white"/>
</mask>
<g mask="url(#mask113_134_79790)">
<path d="M74.4297 7.67445C75.1102 8.88973 75.1102 10.0199 74.4297 11.0651C73.4332 12.5963 71.1606 12.8819 69.8238 11.6666C69.5868 11.454 69.3498 11.2109 69.1129 10.9375C69.0764 10.8949 69.0278 10.8646 68.9792 10.8524C68.7969 10.8099 68.6146 10.822 68.4444 10.8949C67.3811 11.3507 64.5859 12.6024 60.059 14.6501C59.5608 14.875 59.4696 15.1059 59.4879 15.6224C59.5061 16.1692 59.5365 16.6797 59.421 17.0625C58.9106 18.7578 56.9783 19.651 55.362 18.9765C55.7144 18.8246 56.1215 18.6606 56.4497 18.5816C56.5833 18.533 56.717 18.4722 56.8385 18.3993C59.5061 16.7404 56.7899 14.4496 60.7517 13.1432C62.7691 12.3229 64.8533 11.3689 67.0651 10.2812C67.5755 10.0382 68.1163 9.81334 68.6754 9.80119C69.7691 9.75865 70.6927 10.7066 71.8047 10.3967C73.4028 10.0685 73.7613 8.02081 72.2057 7.33417C71.8229 7.15188 71.3004 7.13365 70.9418 6.93313C70.474 6.65969 70.9236 6.15535 71.1241 5.81508C71.3915 5.43834 71.5799 5.00692 71.6528 4.54511C71.8229 3.57289 71.4583 2.50952 70.7292 1.79858C70.7292 1.79858 70.717 1.78643 70.6927 1.7682C70.4983 1.59806 70.2977 1.40969 70.2066 1.28209C70.1519 1.22133 70.0972 1.15449 70.0486 1.08765C71.8351 1.36108 72.8984 3.12931 72.6736 4.90969C72.6372 5.23782 72.4852 5.58417 72.3637 5.97914C72.3333 6.08851 72.388 6.19789 72.4913 6.2465C73.3177 6.58678 73.9679 6.85414 74.4297 7.68053V7.67445Z" fill="#F3EBE1"/>
</g>
</g>
</g>
<mask id="mask114_134_79790" style="mask-type:luminance" maskUnits="userSpaceOnUse" x="21" y="0" width="28" height="13">
<path d="M21.7778 0H48.2222V12.4444H21.7778V0Z" fill="white"/>
</mask>
<g mask="url(#mask114_134_79790)">
<mask id="mask115_134_79790" style="mask-type:luminance" maskUnits="userSpaceOnUse" x="22" y="-8" width="27" height="21">
<path d="M22.0451 1.84113L43.3733 -7.63196L48.1068 3.0321L26.7847 12.5052L22.0451 1.84113Z" fill="white"/>
</mask>
<g mask="url(#mask115_134_79790)">
<mask id="mask116_134_79790" style="mask-type:luminance" maskUnits="userSpaceOnUse" x="22" y="-8" width="27" height="21">
<path d="M22.0451 1.84113L43.3733 -7.63196L48.1068 3.0321L26.7847 12.5052L22.0451 1.84113Z" fill="white"/>
</mask>
<g mask="url(#mask116_134_79790)">
<path d="M46.4297 0.170094C47.1102 1.3793 47.1102 2.5095 46.4297 3.55464C45.4332 5.08589 43.1606 5.37148 41.8238 4.1562C41.5868 3.94353 41.3498 3.70048 41.1128 3.42704C41.0764 3.3845 41.0278 3.35412 40.9792 3.34197C40.7969 3.29943 40.6146 3.31159 40.4444 3.39058C39.3811 3.84631 36.5859 5.09805 32.059 7.13971C31.5608 7.36454 31.4696 7.59544 31.4878 8.11801C31.5061 8.65881 31.5365 9.16923 31.421 9.55811C30.9106 11.2474 28.9783 12.1406 27.362 11.4722C27.1736 11.3932 26.9974 11.296 26.8212 11.1744C25.2292 10.0868 25.1623 8.53728 25.691 6.84197C25.7092 6.79336 25.6788 6.73867 25.6363 6.72044C25.1319 6.5503 24.7248 6.34371 24.4088 6.10065C23.1146 5.09805 22.6953 3.44527 23.4245 2.00516C23.9957 0.868879 25.4661 0.0364135 26.7726 0.26124C27.7752 0.431379 28.2917 0.953948 29.0147 1.64666C29.112 1.7378 29.2578 1.76211 29.3854 1.7135C31.737 0.747351 34.3924 -0.401086 37.3516 -1.75612C37.9835 -2.04779 38.4757 -2.23008 38.4696 -2.86202C38.4696 -3.46359 38.4392 -3.85855 38.5729 -4.3082C39.0104 -5.79084 40.4991 -6.62939 41.9878 -6.42886C42.0121 -6.42886 42.0304 -6.42279 42.0486 -6.42279C43.8351 -6.14935 44.8984 -4.38112 44.6736 -2.60074C44.6371 -2.27262 44.4852 -1.92018 44.3637 -1.5313C44.3333 -1.42192 44.3819 -1.31255 44.4913 -1.26393C45.3177 -0.923656 45.9679 -0.656295 46.4297 0.170094Z" fill="#543026"/>
</g>
</g>
</g>
<mask id="mask117_134_79790" style="mask-type:luminance" maskUnits="userSpaceOnUse" x="26" y="0" width="23" height="13">
<path d="M26.4444 0H48.2222V12.4444H26.4444V0Z" fill="white"/>
</mask>
<g mask="url(#mask117_134_79790)">
<mask id="mask118_134_79790" style="mask-type:luminance" maskUnits="userSpaceOnUse" x="22" y="-8" width="27" height="21">
<path d="M22.0451 1.84113L43.3733 -7.63196L48.1068 3.0321L26.7847 12.5052L22.0451 1.84113Z" fill="white"/>
</mask>
<g mask="url(#mask118_134_79790)">
<mask id="mask119_134_79790" style="mask-type:luminance" maskUnits="userSpaceOnUse" x="22" y="-8" width="27" height="21">
<path d="M22.0451 1.84113L43.3733 -7.63196L48.1068 3.0321L26.7847 12.5052L22.0451 1.84113Z" fill="white"/>
</mask>
<g mask="url(#mask119_134_79790)">
<path d="M46.4297 0.170151C47.1102 1.37935 47.1102 2.50956 46.4297 3.5547C45.4332 5.08595 43.1606 5.37154 41.8238 4.15626C41.5868 3.94359 41.3498 3.70053 41.1129 3.4271C41.0764 3.38456 41.0278 3.35418 40.9792 3.34203C40.7969 3.29949 40.6146 3.31164 40.4444 3.39064C39.3811 3.84637 36.5859 5.0981 32.059 7.13977C31.5608 7.3646 31.4696 7.5955 31.4879 8.11807C31.5061 8.65887 31.5365 9.16928 31.421 9.55817C30.9106 11.2474 28.9783 12.1406 27.362 11.4722C27.7144 11.3142 28.1215 11.1502 28.4497 11.0712C28.5833 11.0226 28.717 10.9618 28.8385 10.8889C31.5061 9.23005 28.7899 6.93925 32.7517 5.63283C34.7691 4.81251 36.8533 3.85852 39.0651 2.77085C39.5755 2.52779 40.1163 2.30296 40.6754 2.29081C41.7691 2.24828 42.6927 3.19619 43.8047 2.89237C45.4028 2.55817 45.7613 0.510429 44.2057 -0.170126C43.8229 -0.358495 43.3004 -0.376724 42.9418 -0.571169C42.474 -0.850682 42.9236 -1.35502 43.1241 -1.6953C43.3915 -2.07204 43.5799 -2.50346 43.6528 -2.95919C43.8229 -3.93749 43.4583 -5.00086 42.7292 -5.70572C42.7292 -5.70572 42.717 -5.72395 42.6927 -5.74217C42.4983 -5.91231 42.2977 -6.09461 42.2066 -6.22829C42.1519 -6.28905 42.0972 -6.35589 42.0486 -6.42273C43.8351 -6.14929 44.8984 -4.38106 44.6736 -2.60068C44.6372 -2.27256 44.4852 -1.92013 44.3637 -1.52516C44.3333 -1.42186 44.388 -1.30641 44.4913 -1.26388C45.3177 -0.917523 45.9679 -0.656238 46.4297 0.170151Z" fill="#F3EBE1"/>
</g>
</g>
</g>
<mask id="mask120_134_79790" style="mask-type:luminance" maskUnits="userSpaceOnUse" x="0" y="54" width="16" height="16">
<path d="M0 54.4445H15.5556V70H0V54.4445Z" fill="white"/>
</mask>
<g mask="url(#mask120_134_79790)">
<mask id="mask121_134_79790" style="mask-type:luminance" maskUnits="userSpaceOnUse" x="-11" y="54" width="27" height="21">
<path d="M-10.4028 63.6259L10.9254 54.1528L15.6589 64.8169L-5.66319 74.29L-10.4028 63.6259Z" fill="white"/>
</mask>
<g mask="url(#mask121_134_79790)">
<mask id="mask122_134_79790" style="mask-type:luminance" maskUnits="userSpaceOnUse" x="-11" y="54" width="27" height="21">
<path d="M-10.4028 63.6259L10.9254 54.1528L15.6589 64.8169L-5.66319 74.29L-10.4028 63.6259Z" fill="white"/>
</mask>
<g mask="url(#mask122_134_79790)">
<path d="M13.9818 61.9549C14.6623 63.1641 14.6623 64.2943 13.9818 65.3394C12.9852 66.8707 10.7127 67.1563 9.37587 65.941C9.14497 65.7283 8.90799 65.4853 8.66493 65.2118C8.62847 65.1693 8.58594 65.1389 8.53125 65.1268C8.34896 65.0842 8.17274 65.0964 7.99653 65.1754C6.93316 65.6311 4.13802 66.8828 -0.388888 68.9245C-0.887151 69.1493 -0.978297 69.3802 -0.960069 69.9028C-0.935762 70.4436 -0.90538 70.954 -1.02691 71.3429C-1.53732 73.0321 -3.46962 73.9254 -5.07986 73.257C-5.2743 73.178 -5.45052 73.0808 -5.62674 72.9592C-7.21875 71.8716 -7.28559 70.3221 -6.75087 68.6268C-6.73871 68.5781 -6.7691 68.5235 -6.81163 68.5052C-7.31597 68.3351 -7.72309 68.1285 -8.03906 67.8854C-9.33333 66.8828 -9.7526 65.2301 -9.02344 63.79C-8.45226 62.6537 -6.98177 61.8212 -5.67535 62.046C-4.67274 62.2162 -4.15625 62.7387 -3.43316 63.4314C-3.32986 63.5226 -3.1901 63.5469 -3.0625 63.4983C-0.710936 62.5321 1.94445 61.3837 4.90365 60.0287C5.53559 59.737 6.02778 59.5547 6.0217 58.9228C6.0217 58.3212 5.99132 57.9262 6.125 57.4766C6.5625 55.9939 8.05122 55.1554 9.54601 55.3559C9.56424 55.3559 9.58247 55.362 9.6007 55.362C11.3872 55.6354 12.4505 57.4037 12.2257 59.1841C12.1892 59.5122 12.0373 59.8646 11.9158 60.2535C11.8854 60.3629 11.9401 60.4783 12.0434 60.5209C12.8698 60.8611 13.52 61.1285 13.9818 61.9549Z" fill="#543026"/>
<path d="M13.9818 61.9549C14.6623 63.1641 14.6623 64.2944 13.9818 65.3395C12.9852 66.8707 10.7127 67.1563 9.37587 65.9411C9.14496 65.7284 8.90798 65.4853 8.66493 65.2119C8.62847 65.1694 8.58594 65.139 8.53125 65.1268C8.34896 65.0843 8.17274 65.0964 7.99653 65.1754C6.93316 65.6312 4.13802 66.8829 -0.388892 68.9246C-0.887155 69.1494 -0.978301 69.3803 -0.960073 69.9029C-0.935766 70.4437 -0.905385 70.9541 -1.02691 71.343C-1.53733 73.0322 -3.46962 73.9254 -5.07986 73.257C-4.73351 73.099 -4.32032 72.935 -3.99827 72.856C-3.85851 72.8074 -3.73091 72.7466 -3.60938 72.6737C-0.941844 71.0148 -3.65799 68.724 0.303816 67.4176C2.32118 66.5973 4.40538 65.6433 6.61718 64.5556C7.1276 64.3126 7.6684 64.0878 8.22743 64.0756C9.32118 64.0331 10.2448 64.981 11.3568 64.6772C12.9609 64.343 13.3134 62.2952 11.7578 61.6147C11.375 61.4263 10.8524 61.4081 10.4939 61.2136C10.026 60.9341 10.4757 60.4298 10.6762 60.0895C10.9436 59.7128 11.1319 59.2813 11.2049 58.8256C11.375 57.8473 11.0104 56.79 10.2812 56.0791C10.2812 56.0791 10.2691 56.0669 10.2448 56.0426C10.0503 55.8725 9.84982 55.6902 9.75868 55.5565C9.70399 55.4957 9.65538 55.4289 9.60677 55.3621C11.3872 55.6355 12.4505 57.4037 12.2318 59.1841C12.1892 59.5122 12.0373 59.8647 11.9219 60.2596C11.8854 60.3629 11.9401 60.4784 12.0434 60.5209C12.8759 60.8673 13.52 61.1286 13.9818 61.9549Z" fill="#F3EBE1"/>
</g>
</g>
</g>
<mask id="mask123_134_79790" style="mask-type:luminance" maskUnits="userSpaceOnUse" x="17" y="40" width="27" height="21">
<path d="M17.1111 40.4445H43.5556V60.6667H17.1111V40.4445Z" fill="white"/>
</mask>
<g mask="url(#mask123_134_79790)">
<mask id="mask124_134_79790" style="mask-type:luminance" maskUnits="userSpaceOnUse" x="17" y="40" width="27" height="21">
<path d="M17.4696 49.9905L38.7917 40.5114L43.5252 51.1754L22.2031 60.6485L17.4696 49.9905Z" fill="white"/>
</mask>
<g mask="url(#mask124_134_79790)">
<mask id="mask125_134_79790" style="mask-type:luminance" maskUnits="userSpaceOnUse" x="17" y="40" width="27" height="21">
<path d="M17.4696 49.9905L38.7917 40.5114L43.5252 51.1754L22.2031 60.6485L17.4696 49.9905Z" fill="white"/>
</mask>
<g mask="url(#mask125_134_79790)">
<path d="M41.8481 48.3134C42.5286 49.5226 42.5286 50.6528 41.8481 51.698C40.8516 53.2353 38.5851 53.5209 37.2422 52.2995C37.0113 52.0869 36.7743 51.8438 36.5373 51.5704C36.4948 51.5278 36.4523 51.5035 36.3976 51.4914C36.2153 51.4428 36.0391 51.4549 35.8628 51.5339C34.7995 51.9896 32.0043 53.2414 27.4774 55.283C26.9792 55.5079 26.888 55.7388 26.9062 56.2613C26.9305 56.8082 26.9609 57.3186 26.8394 57.7014C26.329 59.3968 24.3967 60.2839 22.7865 59.6155C22.5981 59.5365 22.4158 59.4393 22.2396 59.3238C20.6476 58.2301 20.5868 56.6867 21.1154 54.9853C21.1276 54.9428 21.1033 54.8881 21.0547 54.8698C20.5503 54.6936 20.1432 54.487 19.8333 54.25C18.533 53.2474 18.1198 51.5886 18.8429 50.1485C19.4141 49.0122 20.8906 48.1858 22.197 48.4046C23.1936 48.5808 23.7101 49.0973 24.4392 49.79C24.5365 49.8811 24.6823 49.9115 24.8038 49.8568C27.1554 48.8968 29.8108 47.7422 32.77 46.3933C33.408 46.1016 33.8941 45.9132 33.888 45.2874C33.888 44.6797 33.8576 44.2908 33.9913 43.8412C34.4288 42.3525 35.9175 41.52 37.4123 41.7145C37.4306 41.7145 37.4549 41.7205 37.4731 41.7205C39.2535 41.994 40.3168 43.7622 40.0981 45.5487C40.0555 45.8707 39.9036 46.2231 39.7821 46.6181C39.7517 46.7214 39.8064 46.8369 39.9097 46.8794C40.7422 47.2257 41.3863 47.4931 41.8481 48.3134Z" fill="#543026"/>
</g>
</g>
</g>
<mask id="mask126_134_79790" style="mask-type:luminance" maskUnits="userSpaceOnUse" x="21" y="40" width="23" height="21">
<path d="M21.7778 40.4445H43.5555V60.6667H21.7778V40.4445Z" fill="white"/>
</mask>
<g mask="url(#mask126_134_79790)">
<mask id="mask127_134_79790" style="mask-type:luminance" maskUnits="userSpaceOnUse" x="17" y="40" width="27" height="21">
<path d="M17.4696 49.9905L38.7917 40.5114L43.5252 51.1754L22.2031 60.6485L17.4696 49.9905Z" fill="white"/>
</mask>
<g mask="url(#mask127_134_79790)">
<mask id="mask128_134_79790" style="mask-type:luminance" maskUnits="userSpaceOnUse" x="17" y="40" width="27" height="21">
<path d="M17.4696 49.9905L38.7917 40.5114L43.5252 51.1754L22.2031 60.6485L17.4696 49.9905Z" fill="white"/>
</mask>
<g mask="url(#mask128_134_79790)">
<path d="M41.8481 48.3135C42.5286 49.5227 42.5286 50.6529 41.8481 51.698C40.8516 53.2353 38.5851 53.5209 37.2422 52.2996C37.0113 52.0869 36.7743 51.8438 36.5373 51.5704C36.4948 51.5279 36.4523 51.5036 36.3976 51.4914C36.2153 51.4428 36.0391 51.455 35.8628 51.5339C34.7995 51.9897 32.0043 53.2414 27.4774 55.2831C26.9792 55.5079 26.888 55.7388 26.9062 56.2614C26.9305 56.8083 26.9609 57.3187 26.8394 57.7015C26.329 59.3968 24.3967 60.2839 22.7865 59.6155C23.1389 59.4576 23.546 59.2996 23.868 59.2206C24.0078 59.1659 24.1354 59.1112 24.2569 59.0322C26.9245 57.3734 24.2083 55.0826 28.1701 53.7822C30.1875 52.9558 32.2717 52.0018 34.4835 50.9142C34.9939 50.6772 35.5408 50.4524 36.0998 50.4402C37.1875 50.3977 38.1111 51.3456 39.2231 51.0357C40.8273 50.7015 41.1797 48.6598 39.6241 47.9732C39.2413 47.7909 38.7187 47.7666 38.3663 47.5721C37.8924 47.2926 38.342 46.7944 38.5425 46.4541C38.8099 46.0774 39.0043 45.6459 39.0712 45.1841C39.2413 44.2058 38.8767 43.1485 38.1476 42.4376C38.1476 42.4376 38.1354 42.4254 38.1111 42.4011C37.9227 42.2371 37.7161 42.0487 37.6311 41.9211C37.5703 41.8543 37.5217 41.7935 37.4731 41.7206C39.2535 41.994 40.3168 43.7622 40.0981 45.5487C40.0555 45.8708 39.9036 46.2232 39.7882 46.6182C39.7517 46.7214 39.8064 46.8369 39.9097 46.8794C40.7422 47.2258 41.3863 47.4932 41.8481 48.3135Z" fill="#F3EBE1"/>
</g>
</g>
</g>
<mask id="mask129_134_79790" style="mask-type:luminance" maskUnits="userSpaceOnUse" x="46" y="28" width="24" height="19">
<path d="M46.6667 28H70V46.6667H46.6667V28Z" fill="white"/>
</mask>
<g mask="url(#mask129_134_79790)">
<mask id="mask130_134_79790" style="mask-type:luminance" maskUnits="userSpaceOnUse" x="46" y="27" width="27" height="21">
<path d="M46.1016 36.6285L67.4236 27.1554L72.1632 37.8195L50.8351 47.2925L46.1016 36.6285Z" fill="white"/>
</mask>
<g mask="url(#mask130_134_79790)">
<mask id="mask131_134_79790" style="mask-type:luminance" maskUnits="userSpaceOnUse" x="46" y="27" width="27" height="21">
<path d="M46.1016 36.6285L67.4236 27.1554L72.1632 37.8195L50.8351 47.2925L46.1016 36.6285Z" fill="white"/>
</mask>
<g mask="url(#mask131_134_79790)">
<path d="M70.48 34.9574C71.1606 36.1666 71.1606 37.2969 70.4861 38.342C69.4835 39.8732 67.217 40.1588 65.8741 38.9436C65.6432 38.7309 65.4063 38.4878 65.1693 38.2144C65.1328 38.1719 65.0842 38.1415 65.0356 38.1293C64.8533 38.0868 64.671 38.0989 64.5009 38.1779C63.4314 38.6337 60.6363 39.8854 56.1094 41.9271C55.6172 42.1519 55.52 42.3828 55.5443 42.9054C55.5625 43.4462 55.5929 43.9566 55.4774 44.3455C54.967 46.0347 53.0347 46.9279 51.4184 46.2595C51.23 46.1805 51.0478 46.0833 50.8715 45.9618C49.2856 44.8741 49.2188 43.3246 49.7474 41.6293C49.7596 41.5807 49.7353 41.526 49.6866 41.5078C49.1884 41.3377 48.7752 41.1311 48.4653 40.888C47.1649 39.8854 46.7517 38.2326 47.4748 36.7925C48.046 35.6562 49.5226 34.8238 50.829 35.0486C51.8255 35.2187 52.342 35.7413 53.0712 36.434C53.1684 36.5252 53.3142 36.5495 53.4358 36.5009C55.7873 35.5347 58.4427 34.3863 61.408 33.0312C62.0399 32.7396 62.526 32.5573 62.52 31.9253C62.52 31.3238 62.4957 30.9288 62.6233 30.4791C63.0608 28.9965 64.5556 28.158 66.0443 28.3585C66.0625 28.3585 66.0868 28.3646 66.105 28.3646C67.8915 28.638 68.9488 30.4062 68.73 32.1866C68.6875 32.5147 68.5417 32.8672 68.4201 33.2561C68.3837 33.3654 68.4384 33.4748 68.5417 33.5234C69.3741 33.8637 70.0182 34.1311 70.48 34.9574Z" fill="#543026"/>
</g>
</g>
</g>
<mask id="mask132_134_79790" style="mask-type:luminance" maskUnits="userSpaceOnUse" x="51" y="28" width="19" height="19">
<path d="M51.3333 28H70V46.6667H51.3333V28Z" fill="white"/>
</mask>
<g mask="url(#mask132_134_79790)">
<mask id="mask133_134_79790" style="mask-type:luminance" maskUnits="userSpaceOnUse" x="46" y="27" width="27" height="21">
<path d="M46.1016 36.6285L67.4236 27.1554L72.1632 37.8195L50.8351 47.2925L46.1016 36.6285Z" fill="white"/>
</mask>
<g mask="url(#mask133_134_79790)">
<mask id="mask134_134_79790" style="mask-type:luminance" maskUnits="userSpaceOnUse" x="46" y="27" width="27" height="21">
<path d="M46.1016 36.6285L67.4236 27.1554L72.1632 37.8195L50.8351 47.2925L46.1016 36.6285Z" fill="white"/>
</mask>
<g mask="url(#mask134_134_79790)">
<path d="M70.48 34.9575C71.1606 36.1667 71.1606 37.2969 70.4861 38.3421C69.4835 39.8733 67.217 40.1589 65.8741 38.9436C65.6432 38.7309 65.4063 38.4879 65.1693 38.2145C65.1328 38.1719 65.0842 38.1415 65.0356 38.1294C64.8533 38.0868 64.671 38.099 64.5009 38.178C63.4314 38.6337 60.6363 39.8855 56.1094 41.9271C55.6172 42.152 55.52 42.3829 55.5443 42.9054C55.5625 43.4462 55.5929 43.9566 55.4774 44.3455C54.967 46.0348 53.0347 46.928 51.4184 46.2596C51.7708 46.1016 52.178 45.9375 52.5061 45.8585C52.6398 45.8099 52.7734 45.7492 52.895 45.6763C55.5625 44.0174 52.8403 41.7266 56.8082 40.4202C58.8195 39.5999 60.9097 38.6459 63.1215 37.5582C63.632 37.3151 64.1728 37.0903 64.7318 37.0782C65.8255 37.0356 66.7491 37.9835 67.855 37.6797C69.4592 37.3455 69.8116 35.2978 68.2561 34.6172C67.8793 34.4289 67.3568 34.4106 66.9983 34.2162C66.5243 33.9367 66.98 33.4323 67.1806 33.0921C67.4418 32.7153 67.6363 32.2839 67.7031 31.8282C67.8733 30.8499 67.5087 29.7865 66.7795 29.0816C66.7795 29.0816 66.7674 29.0634 66.7431 29.0452C66.5547 28.875 66.3542 28.6927 66.263 28.5591C66.2083 28.4983 66.1537 28.4315 66.105 28.3646C67.8915 28.6381 68.9549 30.4063 68.73 32.1867C68.6875 32.5148 68.5417 32.8672 68.4201 33.2622C68.3898 33.3655 68.4384 33.4809 68.5417 33.5235C69.3741 33.8698 70.0243 34.1311 70.4861 34.9575H70.48Z" fill="#F3EBE1"/>
</g>
</g>
</g>
<mask id="mask135_134_79790" style="mask-type:luminance" maskUnits="userSpaceOnUse" x="9" y="66" width="26" height="4">
<path d="M9.33333 66.8889H34.2222V70H9.33333V66.8889Z" fill="white"/>
</mask>
<g mask="url(#mask135_134_79790)">
<mask id="mask136_134_79790" style="mask-type:luminance" maskUnits="userSpaceOnUse" x="9" y="66" width="27" height="21">
<path d="M9.09027 76.1008L30.4184 66.6277L35.1519 77.2857L13.8299 86.7588L9.09027 76.1008Z" fill="white"/>
</mask>
<g mask="url(#mask136_134_79790)">
<mask id="mask137_134_79790" style="mask-type:luminance" maskUnits="userSpaceOnUse" x="9" y="66" width="27" height="21">
<path d="M9.09027 76.1008L30.4184 66.6277L35.1519 77.2857L13.8299 86.7588L9.09027 76.1008Z" fill="white"/>
</mask>
<g mask="url(#mask137_134_79790)">
<path d="M33.4748 74.4237C34.1554 75.639 34.1554 76.7692 33.4748 77.8083C32.4783 79.3456 30.2057 79.6312 28.8689 78.4159C28.6319 78.2033 28.395 77.9602 28.158 77.6868C28.1215 77.6442 28.0729 77.6138 28.0243 77.6017C27.842 77.5531 27.6597 77.5713 27.4896 77.6442C26.4262 78.1 23.6311 79.3517 19.1042 81.3994C18.6059 81.6243 18.5147 81.8552 18.533 82.3717C18.5512 82.9185 18.5816 83.4289 18.4661 83.8118C17.9557 85.5071 16.0234 86.4003 14.4071 85.7258C14.2187 85.6529 14.0425 85.5496 13.8663 85.4342C12.2743 84.3404 12.2075 82.797 12.7361 81.0956C12.7543 81.0531 12.7239 80.9984 12.6814 80.9802C12.1771 80.81 11.77 80.5974 11.454 80.3604C10.1597 79.3578 9.74044 77.705 10.4696 76.2588C11.0408 75.1286 12.5113 74.2961 13.8177 74.521C14.8203 74.6911 15.3368 75.2137 16.0599 75.9003C16.1571 75.9975 16.3029 76.0218 16.4305 75.9732C18.7821 75.0071 21.4375 73.8526 24.3967 72.5036C25.0286 72.2119 25.5208 72.0296 25.5147 71.3977C25.5147 70.7961 25.4844 70.4012 25.618 69.9515C26.0555 68.4689 27.5443 67.6303 29.033 67.8248C29.0573 67.8309 29.0755 67.8309 29.0937 67.8369C30.8802 68.1104 31.9436 69.8725 31.7187 71.659C31.6823 71.9871 31.5304 72.3335 31.4088 72.7284C31.3785 72.8378 31.4271 72.9472 31.5364 72.9958C32.3628 73.3361 33.013 73.6034 33.4748 74.4298V74.4237Z" fill="#543026"/>
</g>
</g>
</g>
<mask id="mask138_134_79790" style="mask-type:luminance" maskUnits="userSpaceOnUse" x="14" y="66" width="21" height="4">
<path d="M14 66.8889H34.2222V70H14V66.8889Z" fill="white"/>
</mask>
<g mask="url(#mask138_134_79790)">
<mask id="mask139_134_79790" style="mask-type:luminance" maskUnits="userSpaceOnUse" x="9" y="66" width="27" height="21">
<path d="M9.09027 76.1008L30.4184 66.6277L35.1519 77.2857L13.8299 86.7588L9.09027 76.1008Z" fill="white"/>
</mask>
<g mask="url(#mask139_134_79790)">
<mask id="mask140_134_79790" style="mask-type:luminance" maskUnits="userSpaceOnUse" x="9" y="66" width="27" height="21">
<path d="M9.09027 76.1008L30.4184 66.6277L35.1519 77.2857L13.8299 86.7588L9.09027 76.1008Z" fill="white"/>
</mask>
<g mask="url(#mask140_134_79790)">
<path d="M33.4748 74.4237C34.1554 75.639 34.1554 76.7692 33.4748 77.8083C32.4783 79.3456 30.2057 79.6312 28.8689 78.4159C28.6319 78.2032 28.395 77.9602 28.158 77.6867C28.1215 77.6442 28.0729 77.6138 28.0243 77.6017C27.842 77.5531 27.6597 77.5713 27.4896 77.6442C26.4262 78.0999 23.6311 79.3517 19.1042 81.3994C18.6059 81.6242 18.5147 81.8551 18.533 82.3716C18.5512 82.9185 18.5816 83.4289 18.4661 83.8117C17.9557 85.5071 16.0234 86.4003 14.4071 85.7258C14.7595 85.5739 15.1667 85.4098 15.4948 85.3308C15.6285 85.2822 15.7621 85.2215 15.8837 85.1485C18.5512 83.4897 15.8351 81.1989 19.7969 79.8925C21.8142 79.0722 23.8984 78.1182 26.1102 77.0305C26.6206 76.7874 27.1614 76.5626 27.7205 76.5505C28.8142 76.5079 29.7378 77.4558 30.8498 77.1459C32.4479 76.8117 32.8064 74.7701 31.2509 74.0834C30.868 73.9011 30.3455 73.8768 29.987 73.6824C29.5191 73.4029 29.9687 72.9046 30.1693 72.5643C30.4366 72.1876 30.625 71.7562 30.6979 71.2944C30.868 70.3161 30.5035 69.2588 29.7743 68.5479C29.7743 68.5479 29.7621 68.5357 29.7378 68.5175C29.5434 68.3473 29.3429 68.159 29.2517 68.0314C29.197 67.9706 29.1423 67.9038 29.0937 67.8369C30.8802 68.1104 31.9436 69.8725 31.7187 71.659C31.6823 71.9871 31.5304 72.3334 31.4088 72.7284C31.3785 72.8378 31.4331 72.9472 31.5364 72.9958C32.3628 73.336 33.013 73.6034 33.4748 74.4298V74.4237Z" fill="#F3EBE1"/>
</g>
</g>
</g>
<mask id="mask141_134_79790" style="mask-type:luminance" maskUnits="userSpaceOnUse" x="42" y="52" width="25" height="18">
<path d="M42 52.8889H66.8889V70H42V52.8889Z" fill="white"/>
</mask>
<g mask="url(#mask141_134_79790)">
<mask id="mask142_134_79790" style="mask-type:luminance" maskUnits="userSpaceOnUse" x="41" y="52" width="27" height="21">
<path d="M41.3316 62.2102L62.6536 52.7371L67.3932 63.4011L46.0712 72.8742L41.3316 62.2102Z" fill="white"/>
</mask>
<g mask="url(#mask142_134_79790)">
<mask id="mask143_134_79790" style="mask-type:luminance" maskUnits="userSpaceOnUse" x="41" y="52" width="27" height="21">
<path d="M41.3316 62.2102L62.6536 52.7371L67.3932 63.4011L46.0712 72.8742L41.3316 62.2102Z" fill="white"/>
</mask>
<g mask="url(#mask143_134_79790)">
<path d="M65.7161 60.5391C66.3906 61.7483 66.3906 62.8785 65.7161 63.9237C64.7196 65.461 62.447 65.7466 61.1042 64.5252C60.8733 64.3126 60.6363 64.0695 60.3993 63.7961C60.3628 63.7535 60.3142 63.7232 60.2656 63.711C60.0833 63.6685 59.901 63.6806 59.7309 63.7596C58.6675 64.2153 55.8724 65.4671 51.3455 67.5087C50.8472 67.7336 50.75 67.9645 50.7743 68.487C50.7925 69.0278 50.8229 69.5383 50.7075 69.9271C50.197 71.6164 48.2647 72.5096 46.6484 71.8412C46.4601 71.7622 46.2778 71.665 46.1015 71.5435C44.5156 70.4558 44.4488 68.9063 44.9774 67.211C44.9956 67.1624 44.9653 67.1138 44.9167 67.0956C44.4184 66.9193 44.0113 66.7127 43.6953 66.4697C42.401 65.4671 41.9818 63.8143 42.7048 62.3742C43.2821 61.2379 44.7526 60.4054 46.059 60.6303C47.0555 60.8004 47.572 61.323 48.3012 62.0157C48.3984 62.1068 48.5443 62.1372 48.6719 62.0825C51.0173 61.1164 53.6788 59.9679 56.638 58.6129C57.27 58.3273 57.7621 58.139 57.7561 57.507C57.75 56.9054 57.7257 56.5105 57.8533 56.0669C58.2908 54.5782 59.7856 53.7457 61.2743 53.9402C61.2925 53.9402 61.3168 53.9462 61.3351 53.9462C63.1215 54.2197 64.1849 55.9879 63.9601 57.7683C63.9175 58.0964 63.7717 58.4488 63.6502 58.8438C63.6198 58.9471 63.6684 59.0626 63.7717 59.1051C64.6042 59.4515 65.2543 59.7127 65.7161 60.5391Z" fill="#543026"/>
</g>
</g>
</g>
<mask id="mask144_134_79790" style="mask-type:luminance" maskUnits="userSpaceOnUse" x="45" y="52" width="22" height="18">
<path d="M45.1111 52.8889H66.8889V70H45.1111V52.8889Z" fill="white"/>
</mask>
<g mask="url(#mask144_134_79790)">
<mask id="mask145_134_79790" style="mask-type:luminance" maskUnits="userSpaceOnUse" x="41" y="52" width="27" height="21">
<path d="M41.3316 62.2102L62.6536 52.7371L67.3932 63.4011L46.0712 72.8742L41.3316 62.2102Z" fill="white"/>
</mask>
<g mask="url(#mask145_134_79790)">
<mask id="mask146_134_79790" style="mask-type:luminance" maskUnits="userSpaceOnUse" x="41" y="52" width="27" height="21">
<path d="M41.3316 62.2102L62.6536 52.7371L67.3932 63.4011L46.0712 72.8742L41.3316 62.2102Z" fill="white"/>
</mask>
<g mask="url(#mask146_134_79790)">
<path d="M65.7161 60.5392C66.3906 61.7484 66.3906 62.8786 65.7161 63.9237C64.7196 65.461 62.447 65.7466 61.1042 64.5253C60.8733 64.3126 60.6363 64.0696 60.3993 63.7961C60.3628 63.7536 60.3142 63.7232 60.2656 63.711C60.0833 63.6685 59.901 63.6807 59.7309 63.7597C58.6675 64.2154 55.8724 65.4671 51.3455 67.5088C50.8472 67.7336 50.75 67.9645 50.7743 68.4871C50.7925 69.0279 50.8229 69.5383 50.7075 69.9272C50.197 71.6164 48.2648 72.5097 46.6484 71.8413C47.0009 71.6833 47.408 71.5192 47.7361 71.4402C47.8698 71.3916 48.0035 71.3308 48.125 71.2579C50.7925 69.5991 48.0703 67.3083 52.0382 66.0018C54.0556 65.1815 56.1398 64.2275 58.3516 63.1399C58.862 62.8968 59.4028 62.6781 59.9618 62.6598C61.0556 62.6173 61.9792 63.5652 63.0851 63.2614C64.6892 62.9272 65.0477 60.8794 63.4861 60.1989C63.1094 60.0105 62.5868 59.9923 62.2283 59.7979C61.7604 59.5183 62.2101 59.014 62.4106 58.6798C62.6719 58.297 62.8663 57.8656 62.9392 57.4098C63.1094 56.4315 62.7387 55.3742 62.0095 54.6633C62.0095 54.6633 61.9974 54.6511 61.9731 54.6268C61.7847 54.4628 61.5842 54.2744 61.4931 54.1407C61.4384 54.08 61.3837 54.0192 61.3351 53.9463C63.1215 54.2197 64.1849 55.988 63.9601 57.7683C63.9236 58.0965 63.7717 58.4489 63.6502 58.8439C63.6198 58.9472 63.6684 59.0626 63.7778 59.1051C64.6042 59.4515 65.2543 59.7189 65.7161 60.5392Z" fill="#F3EBE1"/>
</g>
</g>
</g>
</g>
</g>
<rect x="1.5" y="1.5" width="67" height="67" rx="8.5" stroke="#F3EBE1" stroke-width="3"/>
</g>
</g>
<defs>
<clipPath id="clip0_134_79790">
<rect width="70" height="70" rx="10" fill="white"/>
</clipPath>
<clipPath id="clip1_134_79790">
<rect width="70" height="70" rx="10" fill="white"/>
</clipPath>
<clipPath id="clip2_134_79790">
<rect width="70" height="70" fill="white"/>
</clipPath>
</defs>
</svg>
