<svg width="71" height="71" viewBox="0 0 71 71" fill="none" xmlns="http://www.w3.org/2000/svg">
<g filter="url(#filter0_d_131_76909)">
<g clip-path="url(#clip0_131_76909)">
<rect x="3" y="3" width="60" height="60" rx="10" fill="white"/>
<g clip-path="url(#clip1_131_76909)">
<path d="M69 -3H-3V69H69V-3Z" fill="#0D004C"/>
<path d="M14.7656 27.2734C14.6406 27.2734 14.513 27.263 14.3828 27.2422C14.2526 27.2161 14.1094 27.1719 13.9531 27.1094C13.8021 27.0469 13.6771 26.9479 13.5781 26.8125C13.4844 26.6771 13.4375 26.5156 13.4375 26.3281C13.4375 25.6875 13.8698 25.3672 14.7344 25.3672C14.9792 25.3672 15.1849 25.3984 15.3516 25.4609C15.5234 25.5234 15.6484 25.6068 15.7266 25.7109C15.8099 25.8151 15.8672 25.9167 15.8984 26.0156C15.9297 26.1146 15.9453 26.2214 15.9453 26.3359C15.9453 26.5703 15.8724 26.763 15.7266 26.9141C15.5807 27.0651 15.4245 27.1641 15.2578 27.2109C15.0964 27.2526 14.9323 27.2734 14.7656 27.2734ZM16.0547 29.3438V35.7969C16.0547 36.1458 16.0417 36.4661 16.0156 36.7578C15.9948 37.0443 15.9531 37.3385 15.8906 37.6406C15.8281 37.9479 15.737 38.2161 15.6172 38.4453C15.5026 38.6745 15.3594 38.8802 15.1875 39.0625C15.0156 39.25 14.7995 39.3932 14.5391 39.4922C14.2786 39.5911 13.9818 39.6406 13.6484 39.6406C13.3828 39.6406 13.1172 39.612 12.8516 39.5547C12.5911 39.5026 12.3307 39.4167 12.0703 39.2969C11.8151 39.1823 11.6068 39.013 11.4453 38.7891C11.2891 38.5703 11.2109 38.3151 11.2109 38.0234C11.2109 37.8099 11.2995 37.638 11.4766 37.5078C11.6536 37.3828 11.8594 37.3203 12.0938 37.3203C12.2812 37.3203 12.4297 37.3516 12.5391 37.4141C12.6484 37.4766 12.7266 37.5521 12.7734 37.6406C12.8203 37.7292 12.8646 37.8177 12.9062 37.9062C12.9479 37.9948 13.0156 38.0703 13.1094 38.1328C13.2083 38.1953 13.3438 38.2266 13.5156 38.2266C13.6823 38.2266 13.8177 38.1823 13.9219 38.0938C14.0312 38.0104 14.1094 37.8776 14.1562 37.6953C14.2083 37.5182 14.2422 37.3333 14.2578 37.1406C14.2734 36.9531 14.2812 36.7109 14.2812 36.4141V30.8594C14.2812 30.5833 14.1953 30.388 14.0234 30.2734C13.8568 30.1589 13.5312 30.0911 13.0469 30.0703C12.9792 30.0547 12.9349 30.0208 12.9141 29.9688C12.8984 29.9167 12.8906 29.8047 12.8906 29.6328C12.8906 29.3724 12.9193 29.1406 12.9766 28.9375C13.0391 28.7292 13.0964 28.6094 13.1484 28.5781C13.6328 28.6354 14.099 28.6641 14.5469 28.6641C14.7656 28.6641 14.9948 28.651 15.2344 28.625C15.474 28.5938 15.6016 28.5781 15.6172 28.5781C15.7995 28.5781 15.9167 28.625 15.9688 28.7188C16.026 28.8073 16.0547 29.0156 16.0547 29.3438ZM23.6669 35.9375C23.2867 36.3385 22.8049 36.651 22.2216 36.875C21.6434 37.099 21.0549 37.2109 20.4559 37.2109C19.7111 37.2109 19.0966 37.013 18.6122 36.6172C18.1278 36.2214 17.8856 35.6484 17.8856 34.8984C17.8856 34.0964 18.2736 33.4922 19.0497 33.0859C19.633 32.7734 20.633 32.5026 22.0497 32.2734C22.3153 32.2266 22.7476 32.1589 23.3466 32.0703C23.3466 31.1849 23.2346 30.5755 23.0106 30.2422C22.7867 29.9089 22.357 29.7422 21.7216 29.7422C21.258 29.7422 20.7424 29.8464 20.1747 30.0547C19.607 30.263 19.1539 30.5521 18.8153 30.9219C18.3934 30.5677 18.1825 30.2214 18.1825 29.8828C18.1825 29.5911 18.383 29.3333 18.7841 29.1094C19.1851 28.8802 19.6565 28.7135 20.1981 28.6094C20.745 28.5 21.2919 28.4453 21.8387 28.4453C22.3544 28.4453 22.8049 28.5104 23.1903 28.6406C23.5809 28.7656 23.9247 28.974 24.2216 29.2656C24.5184 29.5573 24.7424 29.9583 24.8934 30.4688C25.0497 30.9792 25.1278 31.599 25.1278 32.3281V34.8281C25.1278 35.0417 25.1434 35.2031 25.1747 35.3125C25.2111 35.4167 25.2502 35.4818 25.2919 35.5078C25.3335 35.5286 25.4012 35.5443 25.495 35.5547C25.6565 35.5703 25.7762 35.5859 25.8544 35.6016C25.9325 35.612 26.0236 35.6302 26.1278 35.6562C26.232 35.6823 26.3049 35.7161 26.3466 35.7578C26.3934 35.7995 26.4169 35.8516 26.4169 35.9141C26.4169 36.5286 26.3309 36.9115 26.1591 37.0625C25.9091 37.0208 25.5835 37 25.1825 37C24.8179 37 24.4794 37.0182 24.1669 37.0547C24.1304 37.0286 24.0835 36.9922 24.0262 36.9453C23.9742 36.8984 23.9012 36.7786 23.8075 36.5859C23.7137 36.3932 23.6669 36.1771 23.6669 35.9375ZM20.8153 35.8203C21.2893 35.8203 21.8023 35.6901 22.3544 35.4297C22.9065 35.1641 23.2398 34.9245 23.3544 34.7109V33.3281C21.9325 33.5833 20.9716 33.8125 20.4716 34.0156C19.9768 34.2188 19.7294 34.5052 19.7294 34.875C19.7294 35.5052 20.0914 35.8203 20.8153 35.8203ZM31.1072 29.3438V29.7734C31.4822 29.3828 31.9301 29.0651 32.4509 28.8203C32.977 28.5703 33.4952 28.4453 34.0056 28.4453C34.4692 28.4453 34.8884 28.5599 35.2634 28.7891C35.6436 29.0182 35.9483 29.3724 36.1775 29.8516C36.641 29.4349 37.1593 29.099 37.7322 28.8438C38.3103 28.5833 38.8624 28.4531 39.3884 28.4531C40.0968 28.4531 40.6723 28.7109 41.115 29.2266C41.5577 29.7422 41.7791 30.5495 41.7791 31.6484V35C41.7791 35.3385 41.9119 35.5182 42.1775 35.5391C42.2296 35.5443 42.2999 35.5495 42.3884 35.5547C42.4822 35.5599 42.5551 35.5651 42.6072 35.5703C42.6593 35.5755 42.7244 35.5833 42.8025 35.5938C42.8806 35.599 42.9431 35.6068 42.99 35.6172C43.0369 35.6224 43.089 35.6328 43.1462 35.6484C43.2035 35.6589 43.2478 35.6719 43.2791 35.6875C43.3155 35.7031 43.3494 35.7214 43.3806 35.7422C43.4119 35.763 43.4327 35.7891 43.4431 35.8203C43.4587 35.8464 43.4666 35.8776 43.4666 35.9141C43.4666 36.5234 43.3806 36.9062 43.2087 37.0625C42.5994 37.0208 42.0733 37 41.6306 37C41.3754 37 41.1124 37.0104 40.8416 37.0312C40.5707 37.0521 40.3832 37.0625 40.2791 37.0625C40.0968 37.0625 40.0056 36.862 40.0056 36.4609V31.7891C40.0056 31.112 39.8962 30.6172 39.6775 30.3047C39.4587 29.987 39.1723 29.8281 38.8181 29.8281C38.464 29.8281 38.0733 29.9349 37.6462 30.1484C37.2192 30.3568 36.8181 30.6276 36.4431 30.9609C36.4692 31.1953 36.4822 31.4245 36.4822 31.6484V35C36.4822 35.3385 36.6124 35.5182 36.8728 35.5391C36.9249 35.5443 36.9926 35.5495 37.0759 35.5547C37.1645 35.5599 37.2322 35.5651 37.2791 35.5703C37.3311 35.5755 37.3936 35.5833 37.4666 35.5938C37.5395 35.599 37.5968 35.6068 37.6384 35.6172C37.6801 35.6224 37.727 35.6328 37.7791 35.6484C37.8364 35.6589 37.8806 35.6719 37.9119 35.6875C37.9431 35.7031 37.9718 35.7214 37.9978 35.7422C38.0291 35.763 38.0499 35.7891 38.0603 35.8203C38.0759 35.8464 38.0837 35.8776 38.0837 35.9141C38.0837 36.5234 37.9978 36.9062 37.8259 37.0625C37.3259 37.0208 36.8676 37 36.4509 37C36.1905 37 35.9041 37.0104 35.5916 37.0312C35.2791 37.0521 35.0733 37.0625 34.9744 37.0625C34.7973 37.0625 34.7087 36.862 34.7087 36.4609V31.7891C34.7087 31.112 34.5994 30.6172 34.3806 30.3047C34.1619 29.987 33.8754 29.8281 33.5212 29.8281C33.1671 29.8281 32.7791 29.9375 32.3572 30.1562C31.9353 30.375 31.5421 30.6562 31.1775 31V35.0391C31.1775 35.112 31.1827 35.1745 31.1931 35.2266C31.2035 35.2734 31.2244 35.3255 31.2556 35.3828C31.2869 35.4349 31.339 35.4766 31.4119 35.5078C31.49 35.5339 31.5864 35.5469 31.7009 35.5469C31.8989 35.5469 32.0681 35.5781 32.2087 35.6406C32.3494 35.7031 32.4197 35.7969 32.4197 35.9219C32.4197 36.5312 32.3337 36.9115 32.1619 37.0625C31.6515 37.0208 31.0212 37 30.2712 37C29.464 37 28.865 37.0208 28.4744 37.0625C28.3025 36.9062 28.2166 36.526 28.2166 35.9219C28.2166 35.7969 28.2869 35.7031 28.4275 35.6406C28.5681 35.5781 28.7374 35.5469 28.9353 35.5469C29.1176 35.5469 29.24 35.5104 29.3025 35.4375C29.3702 35.3646 29.4041 35.237 29.4041 35.0547V30.8594C29.4041 30.5833 29.3233 30.388 29.1619 30.2734C29.0056 30.1589 28.7009 30.0911 28.2478 30.0703C28.1801 30.0547 28.1358 30.0208 28.115 29.9688C28.0994 29.9167 28.0916 29.8047 28.0916 29.6328C28.0916 29.3672 28.1202 29.1328 28.1775 28.9297C28.2348 28.7266 28.2921 28.6094 28.3494 28.5781C28.7504 28.6354 29.1384 28.6641 29.5134 28.6641C29.7478 28.6641 29.9952 28.651 30.2556 28.625C30.516 28.5938 30.6541 28.5781 30.6697 28.5781C30.852 28.5781 30.9692 28.625 31.0212 28.7188C31.0785 28.8073 31.1072 29.0156 31.1072 29.3438ZM48.1022 26.4688V31.7734L50.5709 30.3047C50.8366 30.112 50.9746 30.0052 50.985 29.9844C50.9902 29.9792 50.9928 29.9688 50.9928 29.9531C50.9928 29.9271 50.9616 29.9115 50.8991 29.9062C50.8418 29.8958 50.7741 29.888 50.6959 29.8828C50.623 29.8776 50.5553 29.8385 50.4928 29.7656C50.4355 29.6875 50.4069 29.5729 50.4069 29.4219C50.4069 29 50.4772 28.7135 50.6178 28.5625C50.9668 28.6302 51.5735 28.6641 52.4381 28.6641C53.0683 28.6641 53.5944 28.6302 54.0163 28.5625C54.1829 28.6354 54.2663 28.9479 54.2663 29.5C54.2663 29.6927 54.248 29.8281 54.2116 29.9062C54.1751 29.9844 54.1048 30.0391 54.0006 30.0703C53.8965 30.1016 53.7767 30.1276 53.6413 30.1484C53.511 30.1641 53.3209 30.2214 53.0709 30.3203C52.8261 30.4193 52.5709 30.5599 52.3053 30.7422L50.4147 31.9766C51.7428 33.6328 52.498 34.5885 52.6803 34.8438C52.7324 34.9167 52.7975 35.013 52.8756 35.1328C52.959 35.2474 53.011 35.3177 53.0319 35.3438C53.0579 35.3698 53.1048 35.4062 53.1725 35.4531C53.2402 35.5 53.3105 35.5286 53.3834 35.5391C53.4564 35.5443 53.5605 35.5469 53.6959 35.5469C54.347 35.5469 54.6725 35.6719 54.6725 35.9219C54.6725 36.526 54.5866 36.9062 54.4147 37.0625C53.9303 37.0208 53.3704 37 52.735 37C52.2246 37 51.6256 37.0208 50.9381 37.0625C50.9173 36.9583 50.886 36.8203 50.8444 36.6484C50.8079 36.4714 50.7793 36.3281 50.7584 36.2188C50.7428 36.1042 50.735 36.0078 50.735 35.9297C50.735 35.737 50.959 35.6198 51.4069 35.5781C51.3288 35.4531 51.1985 35.2682 51.0163 35.0234C50.834 34.7786 50.5449 34.3984 50.1491 33.8828C49.7532 33.362 49.4407 32.9505 49.2116 32.6484L48.1022 33.3359V35.0391C48.1022 35.1172 48.1048 35.1797 48.11 35.2266C48.1204 35.2682 48.1386 35.3177 48.1647 35.375C48.1959 35.4323 48.248 35.4766 48.3209 35.5078C48.3939 35.5339 48.4876 35.5469 48.6022 35.5469C48.8001 35.5469 48.9694 35.5781 49.11 35.6406C49.2506 35.7031 49.3209 35.7969 49.3209 35.9219C49.3209 36.5312 49.235 36.9115 49.0631 37.0625C48.5735 37.0208 47.9642 37 47.235 37C46.4538 37 45.834 37.0208 45.3756 37.0625C45.2038 36.9062 45.1178 36.526 45.1178 35.9219C45.1178 35.7969 45.1881 35.7031 45.3288 35.6406C45.4694 35.5781 45.6386 35.5469 45.8366 35.5469C46.0397 35.5469 46.1725 35.5052 46.235 35.4219C46.2975 35.3333 46.3288 35.2109 46.3288 35.0547V27.5547C46.3288 27.2786 46.248 27.0833 46.0866 26.9688C45.9303 26.8542 45.6256 26.7865 45.1725 26.7656C45.1048 26.75 45.0605 26.7161 45.0397 26.6641C45.0241 26.612 45.0163 26.5 45.0163 26.3281C45.0163 26.0625 45.0449 25.8281 45.1022 25.625C45.1595 25.4219 45.2168 25.3047 45.2741 25.2734C45.7064 25.3307 46.1204 25.3594 46.5163 25.3594C46.7506 25.3594 46.998 25.3464 47.2584 25.3203C47.5189 25.2891 47.6569 25.2734 47.6725 25.2734C47.8548 25.2734 47.972 25.3203 48.0241 25.4141C48.0814 25.5026 48.11 25.7109 48.11 26.0391C48.11 26.0755 48.1074 26.1432 48.1022 26.2422C48.1022 26.3359 48.1022 26.4115 48.1022 26.4688Z" fill="white"/>
</g>
</g>
<rect x="1.5" y="1.5" width="63" height="63" rx="11.5" stroke="#EEEEEE" stroke-width="3"/>
</g>
<defs>
<filter id="filter0_d_131_76909" x="0" y="0" width="71" height="71" filterUnits="userSpaceOnUse" color-interpolation-filters="sRGB">
<feFlood flood-opacity="0" result="BackgroundImageFix"/>
<feColorMatrix in="SourceAlpha" type="matrix" values="0 0 0 0 0 0 0 0 0 0 0 0 0 0 0 0 0 0 127 0" result="hardAlpha"/>
<feOffset dx="4" dy="4"/>
<feGaussianBlur stdDeviation="0.5"/>
<feComposite in2="hardAlpha" operator="out"/>
<feColorMatrix type="matrix" values="0 0 0 0 0 0 0 0 0 0 0 0 0 0 0 0 0 0 0.25 0"/>
<feBlend mode="normal" in2="BackgroundImageFix" result="effect1_dropShadow_131_76909"/>
<feBlend mode="normal" in="SourceGraphic" in2="effect1_dropShadow_131_76909" result="shape"/>
</filter>
<clipPath id="clip0_131_76909">
<rect x="3" y="3" width="60" height="60" rx="10" fill="white"/>
</clipPath>
<clipPath id="clip1_131_76909">
<rect width="60" height="60" fill="white" transform="translate(3 3)"/>
</clipPath>
</defs>
</svg>
