<svg width="60" height="60" viewBox="0 0 60 60" fill="none" xmlns="http://www.w3.org/2000/svg">
<g clip-path="url(#clip0_197_14)">
<path d="M66 -6H-6V66H66V-6Z" fill="#0D004C"/>
<path d="M11.7656 24.2734C11.6406 24.2734 11.513 24.263 11.3828 24.2422C11.2526 24.2161 11.1094 24.1719 10.9531 24.1094C10.8021 24.0469 10.6771 23.9479 10.5781 23.8125C10.4844 23.6771 10.4375 23.5156 10.4375 23.3281C10.4375 22.6875 10.8698 22.3672 11.7344 22.3672C11.9792 22.3672 12.1849 22.3984 12.3516 22.4609C12.5234 22.5234 12.6484 22.6068 12.7266 22.7109C12.8099 22.8151 12.8672 22.9167 12.8984 23.0156C12.9297 23.1146 12.9453 23.2214 12.9453 23.3359C12.9453 23.5703 12.8724 23.763 12.7266 23.9141C12.5807 24.0651 12.4245 24.1641 12.2578 24.2109C12.0964 24.2526 11.9323 24.2734 11.7656 24.2734ZM13.0547 26.3438V32.7969C13.0547 33.1458 13.0417 33.4661 13.0156 33.7578C12.9948 34.0443 12.9531 34.3385 12.8906 34.6406C12.8281 34.9479 12.737 35.2161 12.6172 35.4453C12.5026 35.6745 12.3594 35.8802 12.1875 36.0625C12.0156 36.25 11.7995 36.3932 11.5391 36.4922C11.2786 36.5911 10.9818 36.6406 10.6484 36.6406C10.3828 36.6406 10.1172 36.612 9.85156 36.5547C9.59115 36.5026 9.33073 36.4167 9.07031 36.2969C8.8151 36.1823 8.60677 36.013 8.44531 35.7891C8.28906 35.5703 8.21094 35.3151 8.21094 35.0234C8.21094 34.8099 8.29948 34.638 8.47656 34.5078C8.65365 34.3828 8.85938 34.3203 9.09375 34.3203C9.28125 34.3203 9.42969 34.3516 9.53906 34.4141C9.64844 34.4766 9.72656 34.5521 9.77344 34.6406C9.82031 34.7292 9.86458 34.8177 9.90625 34.9062C9.94792 34.9948 10.0156 35.0703 10.1094 35.1328C10.2083 35.1953 10.3438 35.2266 10.5156 35.2266C10.6823 35.2266 10.8177 35.1823 10.9219 35.0938C11.0312 35.0104 11.1094 34.8776 11.1562 34.6953C11.2083 34.5182 11.2422 34.3333 11.2578 34.1406C11.2734 33.9531 11.2812 33.7109 11.2812 33.4141V27.8594C11.2812 27.5833 11.1953 27.388 11.0234 27.2734C10.8568 27.1589 10.5312 27.0911 10.0469 27.0703C9.97917 27.0547 9.9349 27.0208 9.91406 26.9688C9.89844 26.9167 9.89062 26.8047 9.89062 26.6328C9.89062 26.3724 9.91927 26.1406 9.97656 25.9375C10.0391 25.7292 10.0964 25.6094 10.1484 25.5781C10.6328 25.6354 11.099 25.6641 11.5469 25.6641C11.7656 25.6641 11.9948 25.651 12.2344 25.625C12.474 25.5938 12.6016 25.5781 12.6172 25.5781C12.7995 25.5781 12.9167 25.625 12.9688 25.7188C13.026 25.8073 13.0547 26.0156 13.0547 26.3438ZM20.6669 32.9375C20.2867 33.3385 19.8049 33.651 19.2216 33.875C18.6434 34.099 18.0549 34.2109 17.4559 34.2109C16.7111 34.2109 16.0966 34.013 15.6122 33.6172C15.1278 33.2214 14.8856 32.6484 14.8856 31.8984C14.8856 31.0964 15.2736 30.4922 16.0497 30.0859C16.633 29.7734 17.633 29.5026 19.0497 29.2734C19.3153 29.2266 19.7476 29.1589 20.3466 29.0703C20.3466 28.1849 20.2346 27.5755 20.0106 27.2422C19.7867 26.9089 19.357 26.7422 18.7216 26.7422C18.258 26.7422 17.7424 26.8464 17.1747 27.0547C16.607 27.263 16.1539 27.5521 15.8153 27.9219C15.3934 27.5677 15.1825 27.2214 15.1825 26.8828C15.1825 26.5911 15.383 26.3333 15.7841 26.1094C16.1851 25.8802 16.6565 25.7135 17.1981 25.6094C17.745 25.5 18.2919 25.4453 18.8387 25.4453C19.3544 25.4453 19.8049 25.5104 20.1903 25.6406C20.5809 25.7656 20.9247 25.974 21.2216 26.2656C21.5184 26.5573 21.7424 26.9583 21.8934 27.4688C22.0497 27.9792 22.1278 28.599 22.1278 29.3281V31.8281C22.1278 32.0417 22.1434 32.2031 22.1747 32.3125C22.2111 32.4167 22.2502 32.4818 22.2919 32.5078C22.3335 32.5286 22.4012 32.5443 22.495 32.5547C22.6565 32.5703 22.7762 32.5859 22.8544 32.6016C22.9325 32.612 23.0236 32.6302 23.1278 32.6562C23.232 32.6823 23.3049 32.7161 23.3466 32.7578C23.3934 32.7995 23.4169 32.8516 23.4169 32.9141C23.4169 33.5286 23.3309 33.9115 23.1591 34.0625C22.9091 34.0208 22.5835 34 22.1825 34C21.8179 34 21.4794 34.0182 21.1669 34.0547C21.1304 34.0286 21.0835 33.9922 21.0262 33.9453C20.9742 33.8984 20.9012 33.7786 20.8075 33.5859C20.7137 33.3932 20.6669 33.1771 20.6669 32.9375ZM17.8153 32.8203C18.2893 32.8203 18.8023 32.6901 19.3544 32.4297C19.9065 32.1641 20.2398 31.9245 20.3544 31.7109V30.3281C18.9325 30.5833 17.9716 30.8125 17.4716 31.0156C16.9768 31.2188 16.7294 31.5052 16.7294 31.875C16.7294 32.5052 17.0914 32.8203 17.8153 32.8203ZM28.1072 26.3438V26.7734C28.4822 26.3828 28.9301 26.0651 29.4509 25.8203C29.977 25.5703 30.4952 25.4453 31.0056 25.4453C31.4692 25.4453 31.8884 25.5599 32.2634 25.7891C32.6436 26.0182 32.9483 26.3724 33.1775 26.8516C33.641 26.4349 34.1593 26.099 34.7322 25.8438C35.3103 25.5833 35.8624 25.4531 36.3884 25.4531C37.0968 25.4531 37.6723 25.7109 38.115 26.2266C38.5577 26.7422 38.7791 27.5495 38.7791 28.6484V32C38.7791 32.3385 38.9119 32.5182 39.1775 32.5391C39.2296 32.5443 39.2999 32.5495 39.3884 32.5547C39.4822 32.5599 39.5551 32.5651 39.6072 32.5703C39.6593 32.5755 39.7244 32.5833 39.8025 32.5938C39.8806 32.599 39.9431 32.6068 39.99 32.6172C40.0369 32.6224 40.089 32.6328 40.1462 32.6484C40.2035 32.6589 40.2478 32.6719 40.2791 32.6875C40.3155 32.7031 40.3494 32.7214 40.3806 32.7422C40.4119 32.763 40.4327 32.7891 40.4431 32.8203C40.4587 32.8464 40.4666 32.8776 40.4666 32.9141C40.4666 33.5234 40.3806 33.9062 40.2087 34.0625C39.5994 34.0208 39.0733 34 38.6306 34C38.3754 34 38.1124 34.0104 37.8416 34.0312C37.5707 34.0521 37.3832 34.0625 37.2791 34.0625C37.0968 34.0625 37.0056 33.862 37.0056 33.4609V28.7891C37.0056 28.112 36.8962 27.6172 36.6775 27.3047C36.4587 26.987 36.1723 26.8281 35.8181 26.8281C35.464 26.8281 35.0733 26.9349 34.6462 27.1484C34.2192 27.3568 33.8181 27.6276 33.4431 27.9609C33.4692 28.1953 33.4822 28.4245 33.4822 28.6484V32C33.4822 32.3385 33.6124 32.5182 33.8728 32.5391C33.9249 32.5443 33.9926 32.5495 34.0759 32.5547C34.1645 32.5599 34.2322 32.5651 34.2791 32.5703C34.3311 32.5755 34.3936 32.5833 34.4666 32.5938C34.5395 32.599 34.5968 32.6068 34.6384 32.6172C34.6801 32.6224 34.727 32.6328 34.7791 32.6484C34.8364 32.6589 34.8806 32.6719 34.9119 32.6875C34.9431 32.7031 34.9718 32.7214 34.9978 32.7422C35.0291 32.763 35.0499 32.7891 35.0603 32.8203C35.0759 32.8464 35.0837 32.8776 35.0837 32.9141C35.0837 33.5234 34.9978 33.9062 34.8259 34.0625C34.3259 34.0208 33.8676 34 33.4509 34C33.1905 34 32.9041 34.0104 32.5916 34.0312C32.2791 34.0521 32.0733 34.0625 31.9744 34.0625C31.7973 34.0625 31.7087 33.862 31.7087 33.4609V28.7891C31.7087 28.112 31.5994 27.6172 31.3806 27.3047C31.1619 26.987 30.8754 26.8281 30.5212 26.8281C30.1671 26.8281 29.7791 26.9375 29.3572 27.1562C28.9353 27.375 28.5421 27.6562 28.1775 28V32.0391C28.1775 32.112 28.1827 32.1745 28.1931 32.2266C28.2035 32.2734 28.2244 32.3255 28.2556 32.3828C28.2869 32.4349 28.339 32.4766 28.4119 32.5078C28.49 32.5339 28.5864 32.5469 28.7009 32.5469C28.8989 32.5469 29.0681 32.5781 29.2087 32.6406C29.3494 32.7031 29.4197 32.7969 29.4197 32.9219C29.4197 33.5312 29.3337 33.9115 29.1619 34.0625C28.6515 34.0208 28.0212 34 27.2712 34C26.464 34 25.865 34.0208 25.4744 34.0625C25.3025 33.9062 25.2166 33.526 25.2166 32.9219C25.2166 32.7969 25.2869 32.7031 25.4275 32.6406C25.5681 32.5781 25.7374 32.5469 25.9353 32.5469C26.1176 32.5469 26.24 32.5104 26.3025 32.4375C26.3702 32.3646 26.4041 32.237 26.4041 32.0547V27.8594C26.4041 27.5833 26.3233 27.388 26.1619 27.2734C26.0056 27.1589 25.7009 27.0911 25.2478 27.0703C25.1801 27.0547 25.1358 27.0208 25.115 26.9688C25.0994 26.9167 25.0916 26.8047 25.0916 26.6328C25.0916 26.3672 25.1202 26.1328 25.1775 25.9297C25.2348 25.7266 25.2921 25.6094 25.3494 25.5781C25.7504 25.6354 26.1384 25.6641 26.5134 25.6641C26.7478 25.6641 26.9952 25.651 27.2556 25.625C27.516 25.5938 27.6541 25.5781 27.6697 25.5781C27.852 25.5781 27.9692 25.625 28.0212 25.7188C28.0785 25.8073 28.1072 26.0156 28.1072 26.3438ZM45.1022 23.4688V28.7734L47.5709 27.3047C47.8366 27.112 47.9746 27.0052 47.985 26.9844C47.9902 26.9792 47.9928 26.9688 47.9928 26.9531C47.9928 26.9271 47.9616 26.9115 47.8991 26.9062C47.8418 26.8958 47.7741 26.888 47.6959 26.8828C47.623 26.8776 47.5553 26.8385 47.4928 26.7656C47.4355 26.6875 47.4069 26.5729 47.4069 26.4219C47.4069 26 47.4772 25.7135 47.6178 25.5625C47.9668 25.6302 48.5735 25.6641 49.4381 25.6641C50.0683 25.6641 50.5944 25.6302 51.0163 25.5625C51.1829 25.6354 51.2663 25.9479 51.2663 26.5C51.2663 26.6927 51.248 26.8281 51.2116 26.9062C51.1751 26.9844 51.1048 27.0391 51.0006 27.0703C50.8965 27.1016 50.7767 27.1276 50.6413 27.1484C50.511 27.1641 50.3209 27.2214 50.0709 27.3203C49.8261 27.4193 49.5709 27.5599 49.3053 27.7422L47.4147 28.9766C48.7428 30.6328 49.498 31.5885 49.6803 31.8438C49.7324 31.9167 49.7975 32.013 49.8756 32.1328C49.959 32.2474 50.011 32.3177 50.0319 32.3438C50.0579 32.3698 50.1048 32.4062 50.1725 32.4531C50.2402 32.5 50.3105 32.5286 50.3834 32.5391C50.4564 32.5443 50.5605 32.5469 50.6959 32.5469C51.347 32.5469 51.6725 32.6719 51.6725 32.9219C51.6725 33.526 51.5866 33.9062 51.4147 34.0625C50.9303 34.0208 50.3704 34 49.735 34C49.2246 34 48.6256 34.0208 47.9381 34.0625C47.9173 33.9583 47.886 33.8203 47.8444 33.6484C47.8079 33.4714 47.7793 33.3281 47.7584 33.2188C47.7428 33.1042 47.735 33.0078 47.735 32.9297C47.735 32.737 47.959 32.6198 48.4069 32.5781C48.3288 32.4531 48.1985 32.2682 48.0163 32.0234C47.834 31.7786 47.5449 31.3984 47.1491 30.8828C46.7532 30.362 46.4407 29.9505 46.2116 29.6484L45.1022 30.3359V32.0391C45.1022 32.1172 45.1048 32.1797 45.11 32.2266C45.1204 32.2682 45.1386 32.3177 45.1647 32.375C45.1959 32.4323 45.248 32.4766 45.3209 32.5078C45.3939 32.5339 45.4876 32.5469 45.6022 32.5469C45.8001 32.5469 45.9694 32.5781 46.11 32.6406C46.2506 32.7031 46.3209 32.7969 46.3209 32.9219C46.3209 33.5312 46.235 33.9115 46.0631 34.0625C45.5735 34.0208 44.9642 34 44.235 34C43.4538 34 42.834 34.0208 42.3756 34.0625C42.2038 33.9062 42.1178 33.526 42.1178 32.9219C42.1178 32.7969 42.1881 32.7031 42.3288 32.6406C42.4694 32.5781 42.6386 32.5469 42.8366 32.5469C43.0397 32.5469 43.1725 32.5052 43.235 32.4219C43.2975 32.3333 43.3288 32.2109 43.3288 32.0547V24.5547C43.3288 24.2786 43.248 24.0833 43.0866 23.9688C42.9303 23.8542 42.6256 23.7865 42.1725 23.7656C42.1048 23.75 42.0605 23.7161 42.0397 23.6641C42.0241 23.612 42.0163 23.5 42.0163 23.3281C42.0163 23.0625 42.0449 22.8281 42.1022 22.625C42.1595 22.4219 42.2168 22.3047 42.2741 22.2734C42.7064 22.3307 43.1204 22.3594 43.5163 22.3594C43.7506 22.3594 43.998 22.3464 44.2584 22.3203C44.5189 22.2891 44.6569 22.2734 44.6725 22.2734C44.8548 22.2734 44.972 22.3203 45.0241 22.4141C45.0814 22.5026 45.11 22.7109 45.11 23.0391C45.11 23.0755 45.1074 23.1432 45.1022 23.2422C45.1022 23.3359 45.1022 23.4115 45.1022 23.4688Z" fill="white"/>
</g>
<defs>
<clipPath id="clip0_197_14">
<rect width="60" height="60" fill="white"/>
</clipPath>
</defs>
</svg>
