<svg width="91" height="91" viewBox="0 0 91 91" fill="none" xmlns="http://www.w3.org/2000/svg">
<g filter="url(#filter0_d_134_81490)">
<g clip-path="url(#clip0_134_81490)">
<rect x="3" y="3" width="80" height="80" rx="10" fill="white"/>
<g clip-path="url(#clip1_134_81490)">
<path d="M91 -5H-5V91H91V-5Z" fill="white"/>
<path d="M91 -5H-5V91H91V-5Z" fill="#0559D3"/>
<mask id="mask0_134_81490" style="mask-type:luminance" maskUnits="userSpaceOnUse" x="62" y="3" width="21" height="20">
<path d="M62.9028 3H83V23H62.9028V3Z" fill="white"/>
</mask>
<g mask="url(#mask0_134_81490)">
<mask id="mask1_134_81490" style="mask-type:luminance" maskUnits="userSpaceOnUse" x="62" y="-2" width="26" height="26">
<path d="M76.1597 -0.944417L76.5417 0.916694C77.2847 1.02781 78.0069 1.22225 78.7083 1.50003L79.9653 0.0764169C80.6736 0.39586 81.3472 0.78475 81.9792 1.23614L81.375 3.04169C81.9583 3.50697 82.4931 4.0417 82.9583 4.62503L84.7639 4.02086C85.2153 4.65281 85.6042 5.32642 85.9236 6.03475L84.5 7.29169C84.7778 7.99308 84.9722 8.71531 85.0833 9.45836L86.9444 9.84031C87.0208 10.6111 87.0208 11.3889 86.9444 12.1598L85.0833 12.5417C84.9722 13.2848 84.7778 14.007 84.5 14.7084L85.9236 15.9653C85.6042 16.6736 85.2153 17.3473 84.7639 17.9792L82.9583 17.375C82.4931 17.9584 81.9583 18.4931 81.375 18.9584L81.9792 20.7639C81.3472 21.2153 80.6736 21.6042 79.9653 21.9236L78.7083 20.5C78.0069 20.7778 77.2847 20.9723 76.5417 21.0834L76.1597 22.9445C75.3889 23.0209 74.6111 23.0209 73.8403 22.9445L73.4583 21.0834C72.7153 20.9723 71.9931 20.7778 71.2917 20.5L70.0347 21.9236C69.3264 21.6042 68.6528 21.2153 68.0208 20.7639L68.625 18.9584C68.0417 18.4931 67.5069 17.9584 67.0417 17.375L65.2361 17.9792C64.7847 17.3473 64.3958 16.6736 64.0764 15.9653L65.4931 14.7084C65.2222 14.007 65.0278 13.2848 64.9167 12.5417L63.0556 12.1598C62.9792 11.3889 62.9792 10.6111 63.0556 9.84031L64.9167 9.45836C65.0278 8.71531 65.2222 7.99308 65.4931 7.29169L64.0764 6.03475C64.3958 5.32642 64.7847 4.65281 65.2361 4.02086L67.0417 4.62503C67.5069 4.0417 68.0417 3.50697 68.625 3.04169L68.0208 1.23614C68.6528 0.78475 69.3264 0.39586 70.0347 0.0764169L71.2917 1.50003C71.9931 1.22225 72.7153 1.02781 73.4583 0.916694L73.8403 -0.944417C74.6111 -1.02081 75.3889 -1.02081 76.1597 -0.944417ZM75 3.50003C70.8611 3.50003 67.5 6.86114 67.5 11C67.5 15.1389 70.8611 18.5 75 18.5C79.1389 18.5 82.5 15.1389 82.5 11C82.5 6.86114 79.1389 3.50003 75 3.50003Z" fill="white"/>
</mask>
<g mask="url(#mask1_134_81490)">
<mask id="mask2_134_81490" style="mask-type:luminance" maskUnits="userSpaceOnUse" x="61" y="3" width="22" height="22">
<path d="M83 3H61.6667V24.3333H83V3Z" fill="white"/>
</mask>
<g mask="url(#mask2_134_81490)">
<mask id="mask3_134_81490" style="mask-type:luminance" maskUnits="userSpaceOnUse" x="62" y="3" width="21" height="20">
<path d="M62.9028 3H83V23H62.9028V3Z" fill="white"/>
</mask>
<g mask="url(#mask3_134_81490)">
<mask id="mask4_134_81490" style="mask-type:luminance" maskUnits="userSpaceOnUse" x="62" y="-2" width="26" height="26">
<path d="M76.1597 -0.944417L76.5417 0.916694C77.2847 1.02781 78.0069 1.22225 78.7083 1.50003L79.9653 0.0764169C80.6736 0.39586 81.3472 0.78475 81.9792 1.23614L81.375 3.04169C81.9583 3.50697 82.4931 4.0417 82.9583 4.62503L84.7639 4.02086C85.2153 4.65281 85.6042 5.32642 85.9236 6.03475L84.5 7.29169C84.7778 7.99308 84.9722 8.71531 85.0833 9.45836L86.9444 9.84031C87.0208 10.6111 87.0208 11.3889 86.9444 12.1598L85.0833 12.5417C84.9722 13.2848 84.7778 14.007 84.5 14.7084L85.9236 15.9653C85.6042 16.6736 85.2153 17.3473 84.7639 17.9792L82.9583 17.375C82.4931 17.9584 81.9583 18.4931 81.375 18.9584L81.9792 20.7639C81.3472 21.2153 80.6736 21.6042 79.9653 21.9236L78.7083 20.5C78.0069 20.7778 77.2847 20.9723 76.5417 21.0834L76.1597 22.9445C75.3889 23.0209 74.6111 23.0209 73.8403 22.9445L73.4583 21.0834C72.7153 20.9723 71.9931 20.7778 71.2917 20.5L70.0347 21.9236C69.3264 21.6042 68.6528 21.2153 68.0208 20.7639L68.625 18.9584C68.0417 18.4931 67.5069 17.9584 67.0417 17.375L65.2361 17.9792C64.7847 17.3473 64.3958 16.6736 64.0764 15.9653L65.4931 14.7084C65.2222 14.007 65.0278 13.2848 64.9167 12.5417L63.0556 12.1598C62.9792 11.3889 62.9792 10.6111 63.0556 9.84031L64.9167 9.45836C65.0278 8.71531 65.2222 7.99308 65.4931 7.29169L64.0764 6.03475C64.3958 5.32642 64.7847 4.65281 65.2361 4.02086L67.0417 4.62503C67.5069 4.0417 68.0417 3.50697 68.625 3.04169L68.0208 1.23614C68.6528 0.78475 69.3264 0.39586 70.0347 0.0764169L71.2917 1.50003C71.9931 1.22225 72.7153 1.02781 73.4583 0.916694L73.8403 -0.944417C74.6111 -1.02081 75.3889 -1.02081 76.1597 -0.944417ZM75 3.50003C70.8611 3.50003 67.5 6.86114 67.5 11C67.5 15.1389 70.8611 18.5 75 18.5C79.1389 18.5 82.5 15.1389 82.5 11C82.5 6.86114 79.1389 3.50003 75 3.50003Z" fill="white"/>
</mask>
<g mask="url(#mask4_134_81490)">
<path d="M62.9996 -1.00049H86.9996V22.9995H62.9996V-1.00049Z" fill="#0091E2"/>
</g>
</g>
</g>
</g>
</g>
<mask id="mask5_134_81490" style="mask-type:luminance" maskUnits="userSpaceOnUse" x="37" y="15" width="25" height="26">
<path d="M37.0695 15.9722H61.1667V40.0694H37.0695V15.9722Z" fill="white"/>
</mask>
<g mask="url(#mask5_134_81490)">
<mask id="mask6_134_81490" style="mask-type:luminance" maskUnits="userSpaceOnUse" x="37" y="16" width="25" height="25">
<path d="M50.3264 16.1249L50.7084 17.986C51.4445 18.0971 52.1736 18.2916 52.8681 18.5624L54.132 17.1458C54.8403 17.4652 55.507 17.8541 56.1389 18.3055L55.5417 20.1041C56.125 20.5763 56.6597 21.1041 57.125 21.6874L58.9306 21.0902C59.382 21.7221 59.7639 22.3958 60.0903 23.0971L58.6667 24.361C58.9375 25.0555 59.132 25.7846 59.25 26.5208L61.1111 26.9027C61.1806 27.6805 61.1806 28.4583 61.1111 29.2291L59.25 29.611C59.132 30.3471 58.9375 31.0763 58.6667 31.7708L60.0903 33.0346C59.7639 33.736 59.382 34.4096 58.9306 35.0416L57.125 34.4444C56.6597 35.0277 56.125 35.5624 55.5417 36.0277L56.1389 37.8263C55.507 38.2777 54.8403 38.6666 54.132 38.993L52.8681 37.5694C52.1736 37.8402 51.4445 38.0346 50.7084 38.1458L50.3264 40.0138C49.5556 40.0833 48.7778 40.0833 48.007 40.0138L47.6181 38.1458C46.882 38.0346 46.1597 37.8402 45.4584 37.5694L44.1945 38.993C43.4931 38.6666 42.8195 38.2777 42.1875 37.8263L42.7847 36.0277C42.2014 35.5624 41.6736 35.0277 41.2014 34.4444L39.4028 35.0416C38.9514 34.4096 38.5625 33.736 38.2431 33.0346L39.6597 31.7708C39.3889 31.0763 39.1945 30.3471 39.0834 29.611L37.2222 29.2291C37.1459 28.4583 37.1459 27.6805 37.2222 26.9027L39.0834 26.5208C39.1945 25.7846 39.3889 25.0555 39.6597 24.361L38.2431 23.0971C38.5625 22.3958 38.9514 21.7221 39.4028 21.0902L41.2014 21.6874C41.6736 21.1041 42.2014 20.5763 42.7847 20.1041L42.1875 18.3055C42.8195 17.8541 43.4931 17.4652 44.1945 17.1458L45.4584 18.5624C46.1597 18.2916 46.882 18.0971 47.6181 17.986L48.007 16.1249C48.7778 16.0485 49.5556 16.0485 50.3264 16.1249ZM49.1667 20.5694C45.0278 20.5694 41.6667 23.9305 41.6667 28.0694C41.6667 32.2083 45.0278 35.5694 49.1667 35.5694C53.3056 35.5694 56.6667 32.2083 56.6667 28.0694C56.6667 23.9305 53.3056 20.5694 49.1667 20.5694Z" fill="white"/>
</mask>
<g mask="url(#mask6_134_81490)">
<mask id="mask7_134_81490" style="mask-type:luminance" maskUnits="userSpaceOnUse" x="36" y="15" width="26" height="26">
<path d="M61.6667 15.4443H36.7778V40.3332H61.6667V15.4443Z" fill="white"/>
</mask>
<g mask="url(#mask7_134_81490)">
<mask id="mask8_134_81490" style="mask-type:luminance" maskUnits="userSpaceOnUse" x="37" y="15" width="25" height="26">
<path d="M37.132 15.9722H61.1667V40.0694H37.132V15.9722Z" fill="white"/>
</mask>
<g mask="url(#mask8_134_81490)">
<mask id="mask9_134_81490" style="mask-type:luminance" maskUnits="userSpaceOnUse" x="37" y="16" width="25" height="25">
<path d="M50.3264 16.1249L50.7084 17.986C51.4445 18.0971 52.1736 18.2916 52.8681 18.5624L54.132 17.1458C54.8403 17.4652 55.507 17.8541 56.1389 18.3055L55.5417 20.1041C56.125 20.5763 56.6597 21.1041 57.125 21.6874L58.9306 21.0902C59.382 21.7221 59.7639 22.3958 60.0903 23.0971L58.6667 24.361C58.9375 25.0555 59.132 25.7846 59.25 26.5208L61.1111 26.9027C61.1806 27.6805 61.1806 28.4583 61.1111 29.2291L59.25 29.611C59.132 30.3471 58.9375 31.0763 58.6667 31.7708L60.0903 33.0346C59.7639 33.736 59.382 34.4096 58.9306 35.0416L57.125 34.4444C56.6597 35.0277 56.125 35.5624 55.5417 36.0277L56.1389 37.8263C55.507 38.2777 54.8403 38.6666 54.132 38.993L52.8681 37.5694C52.1736 37.8402 51.4445 38.0346 50.7084 38.1458L50.3264 40.0138C49.5556 40.0833 48.7778 40.0833 48.007 40.0138L47.6181 38.1458C46.882 38.0346 46.1597 37.8402 45.4583 37.5694L44.1945 38.993C43.4931 38.6666 42.8195 38.2777 42.1875 37.8263L42.7847 36.0277C42.2014 35.5624 41.6736 35.0277 41.2014 34.4444L39.4028 35.0416C38.9514 34.4096 38.5625 33.736 38.2431 33.0346L39.6597 31.7708C39.3889 31.0763 39.1945 30.3471 39.0834 29.611L37.2222 29.2291C37.1459 28.4583 37.1459 27.6805 37.2222 26.9027L39.0834 26.5208C39.1945 25.7846 39.3889 25.0555 39.6597 24.361L38.2431 23.0971C38.5625 22.3958 38.9514 21.7221 39.4028 21.0902L41.2014 21.6874C41.6736 21.1041 42.2014 20.5763 42.7847 20.1041L42.1875 18.3055C42.8195 17.8541 43.4931 17.4652 44.1945 17.1458L45.4583 18.5624C46.1597 18.2916 46.882 18.0971 47.6181 17.986L48.007 16.1249C48.7778 16.0485 49.5556 16.0485 50.3264 16.1249ZM49.1667 20.5694C45.0278 20.5694 41.6667 23.9305 41.6667 28.0694C41.6667 32.2083 45.0278 35.5694 49.1667 35.5694C53.3056 35.5694 56.6667 32.2083 56.6667 28.0694C56.6667 23.9305 53.3056 20.5694 49.1667 20.5694Z" fill="white"/>
</mask>
<g mask="url(#mask9_134_81490)">
<path d="M37.1663 16.0688H61.1663V40.0688H37.1663V16.0688Z" fill="#45ADF3"/>
</g>
</g>
</g>
</g>
</g>
<mask id="mask10_134_81490" style="mask-type:luminance" maskUnits="userSpaceOnUse" x="51" y="8" width="24" height="25">
<path d="M51 8.50684H75V32.5971H51V8.50684Z" fill="white"/>
</mask>
<g mask="url(#mask10_134_81490)">
<mask id="mask11_134_81490" style="mask-type:luminance" maskUnits="userSpaceOnUse" x="50" y="8" width="26" height="25">
<path d="M64.1598 8.65267L64.5417 10.5207C65.2848 10.6318 66.007 10.8263 66.7084 11.0971L67.9653 9.6735C68.6737 9.99989 69.3473 10.3888 69.9792 10.8332L69.3751 12.6388C69.9584 13.1041 70.4931 13.6388 70.9584 14.2221L72.7639 13.6249C73.2153 14.2568 73.6042 14.9304 73.9237 15.6318L72.5001 16.8957C72.7778 17.5902 72.9723 18.3193 73.0834 19.0554L74.9445 19.4374C75.0209 20.2082 75.0209 20.986 74.9445 21.7638L73.0834 22.1457C72.9723 22.8818 72.7778 23.611 72.5001 24.3054L73.9237 25.5693C73.6042 26.2707 73.2153 26.9443 72.7639 27.5763L70.9584 26.9791C70.4931 27.5624 69.9584 28.0902 69.3751 28.5624L69.9792 30.361C69.3473 30.8124 68.6737 31.2013 67.9653 31.5207L66.7084 30.1041C66.007 30.3749 65.2848 30.5693 64.5417 30.6804L64.1598 32.5416C63.3889 32.6179 62.6112 32.6179 61.8403 32.5416L61.4584 30.6804C60.7153 30.5693 59.9931 30.3749 59.2917 30.1041L58.0348 31.5207C57.3264 31.2013 56.6528 30.8124 56.0209 30.361L56.6251 28.5624C56.0417 28.0902 55.507 27.5624 55.0417 26.9791L53.2362 27.5763C52.7848 26.9443 52.3959 26.2707 52.0764 25.5693L53.4931 24.3054C53.2223 23.611 53.0278 22.8818 52.9167 22.1457L51.0556 21.7638C50.9792 20.986 50.9792 20.2082 51.0556 19.4374L52.9167 19.0554C53.0278 18.3193 53.2223 17.5902 53.4931 16.8957L52.0764 15.6318C52.3959 14.9304 52.7848 14.2568 53.2362 13.6249L55.0417 14.2221C55.507 13.6388 56.0417 13.1041 56.6251 12.6388L56.0209 10.8332C56.6528 10.3888 57.3264 9.99989 58.0348 9.6735L59.2917 11.0971C59.9931 10.8263 60.7153 10.6318 61.4584 10.5207L61.8403 8.65267C62.6112 8.58322 63.3889 8.58322 64.1598 8.65267ZM63.0001 13.0971C58.8612 13.0971 55.5001 16.4582 55.5001 20.5971C55.5001 24.736 58.8612 28.0971 63.0001 28.0971C67.1389 28.0971 70.5001 24.736 70.5001 20.5971C70.5001 16.4582 67.1389 13.0971 63.0001 13.0971Z" fill="white"/>
</mask>
<g mask="url(#mask11_134_81490)">
<mask id="mask12_134_81490" style="mask-type:luminance" maskUnits="userSpaceOnUse" x="51" y="8" width="25" height="26">
<path d="M75.8889 8.33325H51V33.2221H75.8889V8.33325Z" fill="white"/>
</mask>
<g mask="url(#mask12_134_81490)">
<mask id="mask13_134_81490" style="mask-type:luminance" maskUnits="userSpaceOnUse" x="51" y="8" width="24" height="25">
<path d="M51 8.54858H75V32.5972H51V8.54858Z" fill="white"/>
</mask>
<g mask="url(#mask13_134_81490)">
<mask id="mask14_134_81490" style="mask-type:luminance" maskUnits="userSpaceOnUse" x="50" y="8" width="26" height="25">
<path d="M64.1598 8.65267L64.5417 10.5207C65.2848 10.6318 66.007 10.8263 66.7084 11.0971L67.9653 9.6735C68.6737 9.99989 69.3473 10.3888 69.9792 10.8332L69.3751 12.6388C69.9584 13.1041 70.4931 13.6388 70.9584 14.2221L72.764 13.6249C73.2153 14.2568 73.6042 14.9304 73.9237 15.6318L72.5001 16.8957C72.7778 17.5902 72.9723 18.3193 73.0834 19.0554L74.9445 19.4374C75.0209 20.2082 75.0209 20.986 74.9445 21.7638L73.0834 22.1457C72.9723 22.8818 72.7778 23.611 72.5001 24.3054L73.9237 25.5693C73.6042 26.2707 73.2153 26.9443 72.764 27.5763L70.9584 26.9791C70.4931 27.5624 69.9584 28.0902 69.3751 28.5624L69.9792 30.361C69.3473 30.8124 68.6737 31.2013 67.9653 31.5207L66.7084 30.1041C66.007 30.3749 65.2848 30.5693 64.5417 30.6804L64.1598 32.5416C63.3889 32.6179 62.6112 32.6179 61.8403 32.5416L61.4584 30.6804C60.7153 30.5693 59.9931 30.3749 59.2917 30.1041L58.0348 31.5207C57.3264 31.2013 56.6528 30.8124 56.0209 30.361L56.6251 28.5624C56.0417 28.0902 55.507 27.5624 55.0417 26.9791L53.2362 27.5763C52.7848 26.9443 52.3959 26.2707 52.0764 25.5693L53.4931 24.3054C53.2223 23.611 53.0278 22.8818 52.9167 22.1457L51.0556 21.7638C50.9792 20.986 50.9792 20.2082 51.0556 19.4374L52.9167 19.0554C53.0278 18.3193 53.2223 17.5902 53.4931 16.8957L52.0764 15.6318C52.3959 14.9304 52.7848 14.2568 53.2362 13.6249L55.0417 14.2221C55.507 13.6388 56.0417 13.1041 56.6251 12.6388L56.0209 10.8332C56.6528 10.3888 57.3264 9.99989 58.0348 9.6735L59.2917 11.0971C59.9931 10.8263 60.7153 10.6318 61.4584 10.5207L61.8403 8.65267C62.6112 8.58322 63.3889 8.58322 64.1598 8.65267ZM63.0001 13.0971C58.8612 13.0971 55.5001 16.4582 55.5001 20.5971C55.5001 24.736 58.8612 28.0971 63.0001 28.0971C67.1389 28.0971 70.5001 24.736 70.5001 20.5971C70.5001 16.4582 67.1389 13.0971 63.0001 13.0971Z" fill="white"/>
</mask>
<g mask="url(#mask14_134_81490)">
<path d="M50.9998 8.59741H74.9998V32.5974H50.9998V8.59741Z" fill="white"/>
</g>
</g>
</g>
</g>
</g>
<mask id="mask15_134_81490" style="mask-type:luminance" maskUnits="userSpaceOnUse" x="44" y="35" width="25" height="25">
<path d="M44.7708 35.1736H68.8681V59.2639H44.7708V35.1736Z" fill="white"/>
</mask>
<g mask="url(#mask15_134_81490)">
<mask id="mask16_134_81490" style="mask-type:luminance" maskUnits="userSpaceOnUse" x="44" y="35" width="25" height="25">
<path d="M58.0278 35.3194L58.4097 37.1875C59.1458 37.2986 59.875 37.493 60.5695 37.7639L61.8333 36.3403C62.5417 36.6666 63.2153 37.0555 63.8403 37.5L63.2431 39.3055C63.8264 39.7708 64.3611 40.3055 64.8264 40.8889L66.632 40.2916C67.0833 40.9236 67.4722 41.5972 67.7917 42.2986L66.3681 43.5625C66.6389 44.2569 66.8333 44.9861 66.9514 45.7222L68.8125 46.1041C68.882 46.875 68.882 47.6528 68.8125 48.4305L66.9514 48.8125C66.8333 49.5486 66.6389 50.2778 66.3681 50.9722L67.7917 52.2361C67.4722 52.9375 67.0833 53.6111 66.632 54.243L64.8264 53.6458C64.3611 54.2291 63.8264 54.7569 63.2431 55.2291L63.8403 57.0278C63.2153 57.4791 62.5417 57.868 61.8333 58.1875L60.5695 56.7708C59.875 57.0416 59.1458 57.2361 58.4097 57.3472L58.0278 59.2083C57.257 59.2847 56.4792 59.2847 55.7083 59.2083L55.3264 57.3472C54.5833 57.2361 53.8611 57.0416 53.1597 56.7708L51.9028 58.1875C51.1945 57.868 50.5208 57.4791 49.8889 57.0278L50.4861 55.2291C49.9028 54.7569 49.375 54.2291 48.9028 53.6458L47.1042 54.243C46.6528 53.6111 46.2639 52.9375 45.9445 52.2361L47.3611 50.9722C47.0903 50.2778 46.8958 49.5486 46.7847 48.8125L44.9236 48.4305C44.8472 47.6528 44.8472 46.875 44.9236 46.1041L46.7847 45.7222C46.8958 44.9861 47.0903 44.2569 47.3611 43.5625L45.9445 42.2986C46.2639 41.5972 46.6528 40.9236 47.1042 40.2916L48.9028 40.8889C49.375 40.3055 49.9028 39.7708 50.4861 39.3055L49.8889 37.5C50.5208 37.0555 51.1945 36.6666 51.9028 36.3403L53.1597 37.7639C53.8611 37.493 54.5833 37.2986 55.3264 37.1875L55.7083 35.3194C56.4792 35.25 57.257 35.25 58.0278 35.3194ZM56.8681 39.7639C52.7292 39.7639 49.3681 43.125 49.3681 47.2639C49.3681 51.4027 52.7292 54.7639 56.8681 54.7639C61.007 54.7639 64.3681 51.4027 64.3681 47.2639C64.3681 43.125 61.007 39.7639 56.8681 39.7639Z" fill="white"/>
</mask>
<g mask="url(#mask16_134_81490)">
<mask id="mask17_134_81490" style="mask-type:luminance" maskUnits="userSpaceOnUse" x="43" y="35" width="28" height="25">
<path d="M70.5556 35H43.8889V59.8889H70.5556V35Z" fill="white"/>
</mask>
<g mask="url(#mask17_134_81490)">
<mask id="mask18_134_81490" style="mask-type:luminance" maskUnits="userSpaceOnUse" x="44" y="35" width="25" height="25">
<path d="M44.8125 35.1736H68.8681V59.2639H44.8125V35.1736Z" fill="white"/>
</mask>
<g mask="url(#mask18_134_81490)">
<mask id="mask19_134_81490" style="mask-type:luminance" maskUnits="userSpaceOnUse" x="44" y="35" width="25" height="25">
<path d="M58.0278 35.3194L58.4098 37.1875C59.1459 37.2986 59.875 37.493 60.5695 37.7639L61.8334 36.3403C62.5417 36.6666 63.2153 37.0555 63.8403 37.5L63.2431 39.3055C63.8264 39.7708 64.3612 40.3055 64.8264 40.8889L66.632 40.2916C67.0834 40.9236 67.4723 41.5972 67.7917 42.2986L66.3681 43.5625C66.6389 44.2569 66.8334 44.9861 66.9514 45.7222L68.8125 46.1041C68.882 46.875 68.882 47.6528 68.8125 48.4305L66.9514 48.8125C66.8334 49.5486 66.6389 50.2778 66.3681 50.9722L67.7917 52.2361C67.4723 52.9375 67.0834 53.6111 66.632 54.243L64.8264 53.6458C64.3612 54.2291 63.8264 54.7569 63.2431 55.2291L63.8403 57.0278C63.2153 57.4791 62.5417 57.868 61.8334 58.1875L60.5695 56.7708C59.875 57.0416 59.1459 57.2361 58.4098 57.3472L58.0278 59.2083C57.257 59.2847 56.4792 59.2847 55.7084 59.2083L55.3264 57.3472C54.5834 57.2361 53.8612 57.0416 53.1598 56.7708L51.9028 58.1875C51.1945 57.868 50.5209 57.4791 49.8889 57.0278L50.4862 55.2291C49.9028 54.7569 49.375 54.2291 48.9028 53.6458L47.1042 54.243C46.6528 53.6111 46.2639 52.9375 45.9445 52.2361L47.3612 50.9722C47.0903 50.2778 46.8959 49.5486 46.7848 48.8125L44.9237 48.4305C44.8473 47.6528 44.8473 46.875 44.9237 46.1041L46.7848 45.7222C46.8959 44.9861 47.0903 44.2569 47.3612 43.5625L45.9445 42.2986C46.2639 41.5972 46.6528 40.9236 47.1042 40.2916L48.9028 40.8889C49.375 40.3055 49.9028 39.7708 50.4862 39.3055L49.8889 37.5C50.5209 37.0555 51.1945 36.6666 51.9028 36.3403L53.1598 37.7639C53.8612 37.493 54.5834 37.2986 55.3264 37.1875L55.7084 35.3194C56.4792 35.25 57.257 35.25 58.0278 35.3194ZM56.8681 39.7639C52.7292 39.7639 49.3681 43.125 49.3681 47.2639C49.3681 51.4027 52.7292 54.7639 56.8681 54.7639C61.007 54.7639 64.3681 51.4027 64.3681 47.2639C64.3681 43.125 61.007 39.7639 56.8681 39.7639Z" fill="white"/>
</mask>
<g mask="url(#mask19_134_81490)">
<path d="M44.8679 35.2642H68.8679V59.2642H44.8679V35.2642Z" fill="white"/>
</g>
</g>
</g>
</g>
</g>
<mask id="mask20_134_81490" style="mask-type:luminance" maskUnits="userSpaceOnUse" x="30" y="47" width="25" height="25">
<path d="M30.9028 47.1736H55V71.2639H30.9028V47.1736Z" fill="white"/>
</mask>
<g mask="url(#mask20_134_81490)">
<mask id="mask21_134_81490" style="mask-type:luminance" maskUnits="userSpaceOnUse" x="30" y="47" width="26" height="25">
<path d="M44.1597 47.3194L44.5417 49.1875C45.2847 49.2986 46.0069 49.493 46.7083 49.7639L47.9653 48.3403C48.6736 48.6666 49.3472 49.0555 49.9792 49.5L49.375 51.3055C49.9583 51.7708 50.4931 52.3055 50.9583 52.8889L52.7639 52.2916C53.2153 52.9236 53.6042 53.5972 53.9236 54.2986L52.5 55.5625C52.7778 56.2569 52.9722 56.9861 53.0833 57.7222L54.9444 58.1041C55.0208 58.875 55.0208 59.6528 54.9444 60.4305L53.0833 60.8125C52.9722 61.5486 52.7778 62.2778 52.5 62.9722L53.9236 64.2361C53.6042 64.9375 53.2153 65.6111 52.7639 66.243L50.9583 65.6458C50.4931 66.2291 49.9583 66.7569 49.375 67.2291L49.9792 69.0278C49.3472 69.4791 48.6736 69.868 47.9653 70.1875L46.7083 68.7708C46.0069 69.0416 45.2847 69.2361 44.5417 69.3472L44.1597 71.2083C43.3889 71.2847 42.6111 71.2847 41.8403 71.2083L41.4583 69.3472C40.7153 69.2361 39.9931 69.0416 39.2917 68.7708L38.0347 70.1875C37.3264 69.868 36.6528 69.4791 36.0208 69.0278L36.625 67.2291C36.0417 66.7569 35.5069 66.2291 35.0417 65.6458L33.2361 66.243C32.7847 65.6111 32.3958 64.9375 32.0764 64.2361L33.4931 62.9722C33.2222 62.2778 33.0278 61.5486 32.9167 60.8125L31.0556 60.4305C30.9792 59.6528 30.9792 58.875 31.0556 58.1041L32.9167 57.7222C33.0278 56.9861 33.2222 56.2569 33.4931 55.5625L32.0764 54.2986C32.3958 53.5972 32.7847 52.9236 33.2361 52.2916L35.0417 52.8889C35.5069 52.3055 36.0417 51.7708 36.625 51.3055L36.0208 49.5C36.6528 49.0555 37.3264 48.6666 38.0347 48.3403L39.2917 49.7639C39.9931 49.493 40.7153 49.2986 41.4583 49.1875L41.8403 47.3194C42.6111 47.25 43.3889 47.25 44.1597 47.3194ZM43 51.7639C38.8611 51.7639 35.5 55.125 35.5 59.2639C35.5 63.4027 38.8611 66.7639 43 66.7639C47.1389 66.7639 50.5 63.4027 50.5 59.2639C50.5 55.125 47.1389 51.7639 43 51.7639Z" fill="white"/>
</mask>
<g mask="url(#mask21_134_81490)">
<mask id="mask22_134_81490" style="mask-type:luminance" maskUnits="userSpaceOnUse" x="29" y="45" width="28" height="28">
<path d="M56.3333 45.6667H29.6667V72.3334H56.3333V45.6667Z" fill="white"/>
</mask>
<g mask="url(#mask22_134_81490)">
<mask id="mask23_134_81490" style="mask-type:luminance" maskUnits="userSpaceOnUse" x="30" y="47" width="25" height="25">
<path d="M30.9028 47.1736H55V71.2639H30.9028V47.1736Z" fill="white"/>
</mask>
<g mask="url(#mask23_134_81490)">
<mask id="mask24_134_81490" style="mask-type:luminance" maskUnits="userSpaceOnUse" x="30" y="47" width="26" height="25">
<path d="M44.1597 47.3194L44.5417 49.1875C45.2847 49.2986 46.0069 49.493 46.7083 49.7639L47.9653 48.3403C48.6736 48.6666 49.3472 49.0555 49.9792 49.5L49.375 51.3055C49.9583 51.7708 50.4931 52.3055 50.9583 52.8889L52.7639 52.2916C53.2153 52.9236 53.6042 53.5972 53.9236 54.2986L52.5 55.5625C52.7778 56.2569 52.9722 56.9861 53.0833 57.7222L54.9444 58.1041C55.0208 58.875 55.0208 59.6528 54.9444 60.4305L53.0833 60.8125C52.9722 61.5486 52.7778 62.2778 52.5 62.9722L53.9236 64.2361C53.6042 64.9375 53.2153 65.6111 52.7639 66.243L50.9583 65.6458C50.4931 66.2291 49.9583 66.7569 49.375 67.2291L49.9792 69.0278C49.3472 69.4791 48.6736 69.868 47.9653 70.1875L46.7083 68.7708C46.0069 69.0416 45.2847 69.2361 44.5417 69.3472L44.1597 71.2083C43.3889 71.2847 42.6111 71.2847 41.8403 71.2083L41.4583 69.3472C40.7153 69.2361 39.9931 69.0416 39.2917 68.7708L38.0347 70.1875C37.3264 69.868 36.6528 69.4791 36.0208 69.0278L36.625 67.2291C36.0417 66.7569 35.5069 66.2291 35.0417 65.6458L33.2361 66.243C32.7847 65.6111 32.3958 64.9375 32.0764 64.2361L33.4931 62.9722C33.2222 62.2778 33.0278 61.5486 32.9167 60.8125L31.0556 60.4305C30.9792 59.6528 30.9792 58.875 31.0556 58.1041L32.9167 57.7222C33.0278 56.9861 33.2222 56.2569 33.4931 55.5625L32.0764 54.2986C32.3958 53.5972 32.7847 52.9236 33.2361 52.2916L35.0417 52.8889C35.5069 52.3055 36.0417 51.7708 36.625 51.3055L36.0208 49.5C36.6528 49.0555 37.3264 48.6666 38.0347 48.3403L39.2917 49.7639C39.9931 49.493 40.7153 49.2986 41.4583 49.1875L41.8403 47.3194C42.6111 47.25 43.3889 47.25 44.1597 47.3194ZM43 51.7639C38.8611 51.7639 35.5 55.125 35.5 59.2639C35.5 63.4027 38.8611 66.7639 43 66.7639C47.1389 66.7639 50.5 63.4027 50.5 59.2639C50.5 55.125 47.1389 51.7639 43 51.7639Z" fill="white"/>
</mask>
<g mask="url(#mask24_134_81490)">
<path d="M30.9998 47.2642H54.9998V71.2642H30.9998V47.2642Z" fill="#45ADF3"/>
</g>
</g>
</g>
</g>
</g>
<mask id="mask25_134_81490" style="mask-type:luminance" maskUnits="userSpaceOnUse" x="46" y="62" width="25" height="21">
<path d="M46.6389 62.9028H70.7361V83.0001H46.6389V62.9028Z" fill="white"/>
</mask>
<g mask="url(#mask25_134_81490)">
<mask id="mask26_134_81490" style="mask-type:luminance" maskUnits="userSpaceOnUse" x="46" y="62" width="25" height="26">
<path d="M59.8958 63.0556L60.2778 64.9167C61.0139 65.0278 61.7431 65.2223 62.4375 65.5L63.7014 64.0764C64.4028 64.3959 65.0764 64.7848 65.7083 65.2361L65.1111 67.0417C65.6944 67.507 66.2222 68.0417 66.6944 68.625L68.5 68.0209C68.9444 68.6528 69.3333 69.3264 69.6597 70.0348L68.2361 71.2917C68.5069 71.9931 68.7014 72.7153 68.8125 73.4584L70.6736 73.8403C70.75 74.6111 70.75 75.3889 70.6736 76.1598L68.8125 76.5417C68.7014 77.2848 68.5069 78.007 68.2361 78.7084L69.6597 79.9653C69.3333 80.6736 68.9444 81.3473 68.5 81.9792L66.6944 81.375C66.2222 81.9584 65.6944 82.4931 65.1111 82.9584L65.7083 84.7639C65.0764 85.2153 64.4028 85.6042 63.7014 85.9236L62.4375 84.5C61.7431 84.7778 61.0139 84.9723 60.2778 85.0834L59.8958 86.9445C59.125 87.0209 58.3472 87.0209 57.5694 86.9445L57.1875 85.0834C56.4514 84.9723 55.7222 84.7778 55.0278 84.5L53.7639 85.9236C53.0625 85.6042 52.3889 85.2153 51.7569 84.7639L52.3542 82.9584C51.7708 82.4931 51.2431 81.9584 50.7708 81.375L48.9722 81.9792C48.5208 81.3473 48.1319 80.6736 47.8125 79.9653L49.2292 78.7084C48.9583 78.007 48.7639 77.2848 48.6528 76.5417L46.7917 76.1598C46.7153 75.3889 46.7153 74.6111 46.7917 73.8403L48.6528 73.4584C48.7639 72.7153 48.9583 71.9931 49.2292 71.2917L47.8125 70.0348C48.1319 69.3264 48.5208 68.6528 48.9722 68.0209L50.7708 68.625C51.2431 68.0417 51.7708 67.507 52.3542 67.0417L51.7569 65.2361C52.3889 64.7848 53.0625 64.3959 53.7639 64.0764L55.0278 65.5C55.7222 65.2223 56.4514 65.0278 57.1875 64.9167L57.5694 63.0556C58.3472 62.9792 59.125 62.9792 59.8958 63.0556ZM58.7361 67.5C54.5972 67.5 51.2361 70.8611 51.2361 75C51.2361 79.1389 54.5972 82.5 58.7361 82.5C62.875 82.5 66.2361 79.1389 66.2361 75C66.2361 70.8611 62.875 67.5 58.7361 67.5Z" fill="white"/>
</mask>
<g mask="url(#mask26_134_81490)">
<mask id="mask27_134_81490" style="mask-type:luminance" maskUnits="userSpaceOnUse" x="45" y="61" width="28" height="22">
<path d="M72.3333 61.6667H45.6667V83.0001H72.3333V61.6667Z" fill="white"/>
</mask>
<g mask="url(#mask27_134_81490)">
<mask id="mask28_134_81490" style="mask-type:luminance" maskUnits="userSpaceOnUse" x="46" y="62" width="25" height="21">
<path d="M46.6389 62.9028H70.7361V83.0001H46.6389V62.9028Z" fill="white"/>
</mask>
<g mask="url(#mask28_134_81490)">
<mask id="mask29_134_81490" style="mask-type:luminance" maskUnits="userSpaceOnUse" x="46" y="62" width="25" height="26">
<path d="M59.8958 63.0556L60.2778 64.9167C61.0139 65.0278 61.7431 65.2223 62.4375 65.5L63.7014 64.0764C64.4028 64.3959 65.0764 64.7847 65.7083 65.2361L65.1111 67.0417C65.6944 67.507 66.2222 68.0417 66.6944 68.625L68.5 68.0209C68.9444 68.6528 69.3333 69.3264 69.6597 70.0347L68.2361 71.2917C68.5069 71.9931 68.7014 72.7153 68.8125 73.4584L70.6736 73.8403C70.75 74.6111 70.75 75.3889 70.6736 76.1598L68.8125 76.5417C68.7014 77.2848 68.5069 78.007 68.2361 78.7084L69.6597 79.9653C69.3333 80.6736 68.9444 81.3473 68.5 81.9792L66.6944 81.375C66.2222 81.9584 65.6944 82.4931 65.1111 82.9584L65.7083 84.7639C65.0764 85.2153 64.4028 85.6042 63.7014 85.9236L62.4375 84.5C61.7431 84.7778 61.0139 84.9723 60.2778 85.0834L59.8958 86.9445C59.125 87.0209 58.3472 87.0209 57.5694 86.9445L57.1875 85.0834C56.4514 84.9723 55.7222 84.7778 55.0278 84.5L53.7639 85.9236C53.0625 85.6042 52.3889 85.2153 51.7569 84.7639L52.3542 82.9584C51.7708 82.4931 51.2431 81.9584 50.7708 81.375L48.9722 81.9792C48.5208 81.3473 48.1319 80.6736 47.8125 79.9653L49.2292 78.7084C48.9583 78.007 48.7639 77.2848 48.6528 76.5417L46.7917 76.1598C46.7153 75.3889 46.7153 74.6111 46.7917 73.8403L48.6528 73.4584C48.7639 72.7153 48.9583 71.9931 49.2292 71.2917L47.8125 70.0347C48.1319 69.3264 48.5208 68.6528 48.9722 68.0209L50.7708 68.625C51.2431 68.0417 51.7708 67.507 52.3542 67.0417L51.7569 65.2361C52.3889 64.7847 53.0625 64.3959 53.7639 64.0764L55.0278 65.5C55.7222 65.2223 56.4514 65.0278 57.1875 64.9167L57.5694 63.0556C58.3472 62.9792 59.125 62.9792 59.8958 63.0556ZM58.7361 67.5C54.5972 67.5 51.2361 70.8611 51.2361 75C51.2361 79.1389 54.5972 82.5 58.7361 82.5C62.875 82.5 66.2361 79.1389 66.2361 75C66.2361 70.8611 62.875 67.5 58.7361 67.5Z" fill="white"/>
</mask>
<g mask="url(#mask29_134_81490)">
<path d="M46.7357 62.9995H70.7357V86.9995H46.7357V62.9995Z" fill="white"/>
</g>
</g>
</g>
</g>
</g>
</g>
</g>
<rect x="1.5" y="1.5" width="83" height="83" rx="11.5" stroke="#FBFBFB" stroke-width="3"/>
</g>
<defs>
<filter id="filter0_d_134_81490" x="0" y="0" width="91" height="91" filterUnits="userSpaceOnUse" color-interpolation-filters="sRGB">
<feFlood flood-opacity="0" result="BackgroundImageFix"/>
<feColorMatrix in="SourceAlpha" type="matrix" values="0 0 0 0 0 0 0 0 0 0 0 0 0 0 0 0 0 0 127 0" result="hardAlpha"/>
<feOffset dx="4" dy="4"/>
<feGaussianBlur stdDeviation="0.5"/>
<feComposite in2="hardAlpha" operator="out"/>
<feColorMatrix type="matrix" values="0 0 0 0 0 0 0 0 0 0 0 0 0 0 0 0 0 0 0.25 0"/>
<feBlend mode="normal" in2="BackgroundImageFix" result="effect1_dropShadow_134_81490"/>
<feBlend mode="normal" in="SourceGraphic" in2="effect1_dropShadow_134_81490" result="shape"/>
</filter>
<clipPath id="clip0_134_81490">
<rect x="3" y="3" width="80" height="80" rx="10" fill="white"/>
</clipPath>
<clipPath id="clip1_134_81490">
<rect x="3" y="3" width="80" height="80" rx="10" fill="white"/>
</clipPath>
</defs>
</svg>
