<svg width="81" height="81" viewBox="0 0 81 81" fill="none" xmlns="http://www.w3.org/2000/svg">
<g filter="url(#filter0_d_134_81354)">
<g clip-path="url(#clip0_134_81354)">
<rect x="3" y="3" width="70" height="70" rx="10" fill="white"/>
<g clip-path="url(#clip1_134_81354)">
<path d="M80 -4H-4V80H80V-4Z" fill="white"/>
<path d="M80 -4H-4V80H80V-4Z" fill="#0559D3"/>
<mask id="mask0_134_81354" style="mask-type:luminance" maskUnits="userSpaceOnUse" x="55" y="3" width="18" height="18">
<path d="M55.4149 3H73V20.5H55.4149V3Z" fill="white"/>
</mask>
<g mask="url(#mask0_134_81354)">
<mask id="mask1_134_81354" style="mask-type:luminance" maskUnits="userSpaceOnUse" x="55" y="-1" width="22" height="22">
<path d="M67.0148 -0.451334L67.349 1.17714C67.9991 1.27436 68.6311 1.4445 69.2448 1.68755L70.3446 0.441895C70.9644 0.721408 71.5538 1.06169 72.1068 1.45665L71.5781 3.03651C72.0886 3.44363 72.5564 3.91151 72.9636 4.42193L74.5434 3.89328C74.9384 4.44624 75.2787 5.03565 75.5582 5.65544L74.3125 6.75526C74.5556 7.36898 74.7257 8.00092 74.8229 8.6511L76.4514 8.9853C76.5182 9.65978 76.5182 10.3403 76.4514 11.0148L74.8229 11.349C74.7257 11.9992 74.5556 12.6311 74.3125 13.2448L75.5582 14.3447C75.2787 14.9645 74.9384 15.5539 74.5434 16.1068L72.9636 15.5782C72.5564 16.0886 72.0886 16.5565 71.5781 16.9636L72.1068 18.5435C71.5538 18.9384 70.9644 19.2787 70.3446 19.5582L69.2448 18.3126C68.6311 18.5556 67.9991 18.7258 67.349 18.823L67.0148 20.4514C66.3403 20.5183 65.6597 20.5183 64.9853 20.4514L64.6511 18.823C64.0009 18.7258 63.3689 18.5556 62.7552 18.3126L61.6554 19.5582C61.0356 19.2787 60.4462 18.9384 59.8932 18.5435L60.4219 16.9636C59.9115 16.5565 59.4436 16.0886 59.0365 15.5782L57.4566 16.1068C57.0616 15.5539 56.7214 14.9645 56.4418 14.3447L57.6814 13.2448C57.4445 12.6311 57.2743 11.9992 57.1771 11.349L55.5486 11.0148C55.4818 10.3403 55.4818 9.65978 55.5486 8.9853L57.1771 8.6511C57.2743 8.00092 57.4445 7.36898 57.6814 6.75526L56.4418 5.65544C56.7214 5.03565 57.0616 4.44624 57.4566 3.89328L59.0365 4.42193C59.4436 3.91151 59.9115 3.44363 60.4219 3.03651L59.8932 1.45665C60.4462 1.06169 61.0356 0.721408 61.6554 0.441895L62.7552 1.68755C63.3689 1.4445 64.0009 1.27436 64.6511 1.17714L64.9853 -0.451334C65.6597 -0.518175 66.3403 -0.518175 67.0148 -0.451334ZM66 3.43755C62.3785 3.43755 59.4375 6.37853 59.4375 10.0001C59.4375 13.6216 62.3785 16.5626 66 16.5626C69.6215 16.5626 72.5625 13.6216 72.5625 10.0001C72.5625 6.37853 69.6215 3.43755 66 3.43755Z" fill="white"/>
</mask>
<g mask="url(#mask1_134_81354)">
<mask id="mask2_134_81354" style="mask-type:luminance" maskUnits="userSpaceOnUse" x="54" y="3" width="19" height="19">
<path d="M73 3H54.3333V21.6667H73V3Z" fill="white"/>
</mask>
<g mask="url(#mask2_134_81354)">
<mask id="mask3_134_81354" style="mask-type:luminance" maskUnits="userSpaceOnUse" x="55" y="3" width="18" height="18">
<path d="M55.4149 3H73V20.5H55.4149V3Z" fill="white"/>
</mask>
<g mask="url(#mask3_134_81354)">
<mask id="mask4_134_81354" style="mask-type:luminance" maskUnits="userSpaceOnUse" x="55" y="-1" width="22" height="22">
<path d="M67.0148 -0.451334L67.349 1.17714C67.9991 1.27436 68.6311 1.4445 69.2448 1.68755L70.3446 0.441895C70.9644 0.721408 71.5538 1.06169 72.1068 1.45665L71.5781 3.03651C72.0886 3.44363 72.5564 3.91151 72.9636 4.42193L74.5434 3.89328C74.9384 4.44624 75.2787 5.03565 75.5582 5.65544L74.3125 6.75526C74.5556 7.36898 74.7257 8.00092 74.8229 8.6511L76.4514 8.9853C76.5182 9.65978 76.5182 10.3403 76.4514 11.0148L74.8229 11.349C74.7257 11.9992 74.5556 12.6311 74.3125 13.2448L75.5582 14.3447C75.2787 14.9645 74.9384 15.5539 74.5434 16.1068L72.9636 15.5782C72.5564 16.0886 72.0886 16.5565 71.5781 16.9636L72.1068 18.5435C71.5538 18.9384 70.9644 19.2787 70.3446 19.5582L69.2448 18.3126C68.6311 18.5556 67.9991 18.7258 67.349 18.823L67.0148 20.4514C66.3403 20.5183 65.6597 20.5183 64.9853 20.4514L64.6511 18.823C64.0009 18.7258 63.3689 18.5556 62.7552 18.3126L61.6554 19.5582C61.0356 19.2787 60.4462 18.9384 59.8932 18.5435L60.4219 16.9636C59.9115 16.5565 59.4436 16.0886 59.0365 15.5782L57.4566 16.1068C57.0616 15.5539 56.7214 14.9645 56.4418 14.3447L57.6814 13.2448C57.4445 12.6311 57.2743 11.9992 57.1771 11.349L55.5486 11.0148C55.4818 10.3403 55.4818 9.65978 55.5486 8.9853L57.1771 8.6511C57.2743 8.00092 57.4445 7.36898 57.6814 6.75526L56.4418 5.65544C56.7214 5.03565 57.0616 4.44624 57.4566 3.89328L59.0365 4.42193C59.4436 3.91151 59.9115 3.44363 60.4219 3.03651L59.8932 1.45665C60.4462 1.06169 61.0356 0.721408 61.6554 0.441895L62.7552 1.68755C63.3689 1.4445 64.0009 1.27436 64.6511 1.17714L64.9853 -0.451334C65.6597 -0.518175 66.3403 -0.518175 67.0148 -0.451334ZM66 3.43755C62.3785 3.43755 59.4375 6.37853 59.4375 10.0001C59.4375 13.6216 62.3785 16.5626 66 16.5626C69.6215 16.5626 72.5625 13.6216 72.5625 10.0001C72.5625 6.37853 69.6215 3.43755 66 3.43755Z" fill="white"/>
</mask>
<g mask="url(#mask4_134_81354)">
<path d="M55.4998 -0.500244H76.4998V20.4998H55.4998V-0.500244Z" fill="#0091E2"/>
</g>
</g>
</g>
</g>
</g>
<mask id="mask5_134_81354" style="mask-type:luminance" maskUnits="userSpaceOnUse" x="32" y="14" width="22" height="22">
<path d="M32.8108 14.3506H53.8958V35.4357H32.8108V14.3506Z" fill="white"/>
</mask>
<g mask="url(#mask5_134_81354)">
<mask id="mask6_134_81354" style="mask-type:luminance" maskUnits="userSpaceOnUse" x="32" y="14" width="22" height="22">
<path d="M44.4106 14.4842L44.7448 16.1127C45.3889 16.2099 46.0269 16.38 46.6345 16.617L47.7404 15.3774C48.3602 15.657 48.9436 15.9972 49.4965 16.3922L48.9739 17.966C49.4844 18.3792 49.9522 18.841 50.3594 19.3514L51.9392 18.8288C52.3342 19.3818 52.6684 19.9712 52.954 20.5849L51.7083 21.6908C51.9453 22.2984 52.1154 22.9365 52.2187 23.5806L53.8472 23.9148C53.908 24.5953 53.908 25.2759 53.8472 25.9504L52.2187 26.2846C52.1154 26.9287 51.9453 27.5667 51.7083 28.1743L52.954 29.2802C52.6684 29.8939 52.3342 30.4833 51.9392 31.0363L50.3594 30.5137C49.9522 31.0241 49.4844 31.492 48.9739 31.8991L49.4965 33.4729C48.9436 33.8679 48.3602 34.2082 47.7404 34.4938L46.6345 33.2481C46.0269 33.4851 45.3889 33.6552 44.7448 33.7524L44.4106 35.387C43.7361 35.4478 43.0555 35.4478 42.3811 35.387L42.0408 33.7524C41.3967 33.6552 40.7647 33.4851 40.151 33.2481L39.0451 34.4938C38.4314 34.2082 37.842 33.8679 37.2891 33.4729L37.8116 31.8991C37.3012 31.492 36.8394 31.0241 36.4262 30.5137L34.8524 31.0363C34.4575 30.4833 34.1172 29.8939 33.8377 29.2802L35.0772 28.1743C34.8403 27.5667 34.6701 26.9287 34.5729 26.2846L32.9444 25.9504C32.8776 25.2759 32.8776 24.5953 32.9444 23.9148L34.5729 23.5806C34.6701 22.9365 34.8403 22.2984 35.0772 21.6908L33.8377 20.5849C34.1172 19.9712 34.4575 19.3818 34.8524 18.8288L36.4262 19.3514C36.8394 18.841 37.3012 18.3792 37.8116 17.966L37.2891 16.3922C37.842 15.9972 38.4314 15.657 39.0451 15.3774L40.151 16.617C40.7647 16.38 41.3967 16.2099 42.0408 16.1127L42.3811 14.4842C43.0555 14.4174 43.7361 14.4174 44.4106 14.4842ZM43.3958 18.3731C39.7743 18.3731 36.8333 21.3141 36.8333 24.9356C36.8333 28.5571 39.7743 31.4981 43.3958 31.4981C47.0173 31.4981 49.9583 28.5571 49.9583 24.9356C49.9583 21.3141 47.0173 18.3731 43.3958 18.3731Z" fill="white"/>
</mask>
<g mask="url(#mask6_134_81354)">
<mask id="mask7_134_81354" style="mask-type:luminance" maskUnits="userSpaceOnUse" x="32" y="13" width="23" height="23">
<path d="M54.3333 13.8887H32.5555V35.6665H54.3333V13.8887Z" fill="white"/>
</mask>
<g mask="url(#mask7_134_81354)">
<mask id="mask8_134_81354" style="mask-type:luminance" maskUnits="userSpaceOnUse" x="32" y="14" width="22" height="22">
<path d="M32.8654 14.3506H53.8958V35.4357H32.8654V14.3506Z" fill="white"/>
</mask>
<g mask="url(#mask8_134_81354)">
<mask id="mask9_134_81354" style="mask-type:luminance" maskUnits="userSpaceOnUse" x="32" y="14" width="22" height="22">
<path d="M44.4106 14.4842L44.7448 16.1127C45.3889 16.2099 46.0269 16.38 46.6345 16.617L47.7404 15.3774C48.3602 15.657 48.9435 15.9972 49.4965 16.3922L48.9739 17.966C49.4843 18.3792 49.9522 18.841 50.3593 19.3514L51.9392 18.8288C52.3342 19.3818 52.6684 19.9712 52.954 20.5849L51.7083 21.6908C51.9453 22.2984 52.1154 22.9365 52.2187 23.5806L53.8472 23.9148C53.908 24.5953 53.908 25.2759 53.8472 25.9504L52.2187 26.2846C52.1154 26.9287 51.9453 27.5667 51.7083 28.1743L52.954 29.2802C52.6684 29.8939 52.3342 30.4833 51.9392 31.0363L50.3593 30.5137C49.9522 31.0241 49.4843 31.492 48.9739 31.8991L49.4965 33.4729C48.9435 33.8679 48.3602 34.2082 47.7404 34.4938L46.6345 33.2481C46.0269 33.4851 45.3889 33.6552 44.7448 33.7524L44.4106 35.387C43.7361 35.4478 43.0555 35.4478 42.381 35.387L42.0408 33.7524C41.3967 33.6552 40.7647 33.4851 40.151 33.2481L39.0451 34.4938C38.4314 34.2082 37.842 33.8679 37.289 33.4729L37.8116 31.8991C37.3012 31.492 36.8394 31.0241 36.4262 30.5137L34.8524 31.0363C34.4574 30.4833 34.1172 29.8939 33.8376 29.2802L35.0772 28.1743C34.8403 27.5667 34.6701 26.9287 34.5729 26.2846L32.9444 25.9504C32.8776 25.2759 32.8776 24.5953 32.9444 23.9148L34.5729 23.5806C34.6701 22.9365 34.8403 22.2984 35.0772 21.6908L33.8376 20.5849C34.1172 19.9712 34.4574 19.3818 34.8524 18.8288L36.4262 19.3514C36.8394 18.841 37.3012 18.3792 37.8116 17.966L37.289 16.3922C37.842 15.9972 38.4314 15.657 39.0451 15.3774L40.151 16.617C40.7647 16.38 41.3967 16.2099 42.0408 16.1127L42.381 14.4842C43.0555 14.4174 43.7361 14.4174 44.4106 14.4842ZM43.3958 18.3731C39.7743 18.3731 36.8333 21.3141 36.8333 24.9356C36.8333 28.5571 39.7743 31.4981 43.3958 31.4981C47.0173 31.4981 49.9583 28.5571 49.9583 24.9356C49.9583 21.3141 47.0173 18.3731 43.3958 18.3731Z" fill="white"/>
</mask>
<g mask="url(#mask9_134_81354)">
<path d="M32.8956 14.4353H53.8956V35.4353H32.8956V14.4353Z" fill="#45ADF3"/>
</g>
</g>
</g>
</g>
</g>
<mask id="mask10_134_81354" style="mask-type:luminance" maskUnits="userSpaceOnUse" x="45" y="7" width="21" height="22">
<path d="M45 7.8186H66V28.8976H45V7.8186Z" fill="white"/>
</mask>
<g mask="url(#mask10_134_81354)">
<mask id="mask11_134_81354" style="mask-type:luminance" maskUnits="userSpaceOnUse" x="44" y="7" width="23" height="22">
<path d="M56.5148 7.94621L56.849 9.58076C57.4991 9.67798 58.1311 9.84812 58.7448 10.0851L59.8446 8.83944C60.4644 9.12503 61.0538 9.4653 61.6068 9.85419L61.0781 11.4341C61.5886 11.8412 62.0564 12.3091 62.4636 12.8195L64.0434 12.2969C64.4384 12.8499 64.7787 13.4393 65.0582 14.053L63.8125 15.1589C64.0556 15.7665 64.2257 16.4045 64.3229 17.0486L65.9514 17.3828C66.0182 18.0573 66.0182 18.7379 65.9514 19.4184L64.3229 19.7526C64.2257 20.3967 64.0556 21.0347 63.8125 21.6424L65.0582 22.7483C64.7787 23.362 64.4384 23.9514 64.0434 24.5044L62.4636 23.9818C62.0564 24.4922 61.5886 24.954 61.0781 25.3672L61.6068 26.941C61.0538 27.336 60.4644 27.6762 59.8446 27.9558L58.7448 26.7162C58.1311 26.9532 57.4991 27.1233 56.849 27.2205L56.5148 28.849C55.8403 28.9158 55.1597 28.9158 54.4853 28.849L54.1511 27.2205C53.5009 27.1233 52.8689 26.9532 52.2552 26.7162L51.1554 27.9558C50.5356 27.6762 49.9462 27.336 49.3932 26.941L49.9219 25.3672C49.4115 24.954 48.9436 24.4922 48.5365 23.9818L46.9566 24.5044C46.5616 23.9514 46.2214 23.362 45.9418 22.7483L47.1814 21.6424C46.9445 21.0347 46.7743 20.3967 46.6771 19.7526L45.0486 19.4184C44.9818 18.7379 44.9818 18.0573 45.0486 17.3828L46.6771 17.0486C46.7743 16.4045 46.9445 15.7665 47.1814 15.1589L45.9418 14.053C46.2214 13.4393 46.5616 12.8499 46.9566 12.2969L48.5365 12.8195C48.9436 12.3091 49.4115 11.8412 49.9219 11.4341L49.3932 9.85419C49.9462 9.4653 50.5356 9.12503 51.1554 8.83944L52.2552 10.0851C52.8689 9.84812 53.5009 9.67798 54.1511 9.58076L54.4853 7.94621C55.1597 7.88544 55.8403 7.88544 56.5148 7.94621ZM55.5 11.8351C51.8785 11.8351 48.9375 14.7761 48.9375 18.3976C48.9375 22.0191 51.8785 24.9601 55.5 24.9601C59.1215 24.9601 62.0625 22.0191 62.0625 18.3976C62.0625 14.7761 59.1215 11.8351 55.5 11.8351Z" fill="white"/>
</mask>
<g mask="url(#mask11_134_81354)">
<mask id="mask12_134_81354" style="mask-type:luminance" maskUnits="userSpaceOnUse" x="45" y="7" width="22" height="23">
<path d="M66.7778 7.66675H45V29.4445H66.7778V7.66675Z" fill="white"/>
</mask>
<g mask="url(#mask12_134_81354)">
<mask id="mask13_134_81354" style="mask-type:luminance" maskUnits="userSpaceOnUse" x="45" y="7" width="21" height="22">
<path d="M45 7.85522H66V28.8978H45V7.85522Z" fill="white"/>
</mask>
<g mask="url(#mask13_134_81354)">
<mask id="mask14_134_81354" style="mask-type:luminance" maskUnits="userSpaceOnUse" x="44" y="7" width="23" height="22">
<path d="M56.5148 7.94645L56.849 9.581C57.4991 9.67822 58.1311 9.84836 58.7448 10.0853L59.8446 8.83968C60.4644 9.12527 61.0538 9.46555 61.6068 9.85444L61.0781 11.4343C61.5886 11.8414 62.0564 12.3093 62.4636 12.8197L64.0434 12.2971C64.4384 12.8501 64.7787 13.4395 65.0582 14.0532L63.8125 15.1591C64.0556 15.7668 64.2257 16.4048 64.3229 17.0489L65.9514 17.3831C66.0182 18.0576 66.0182 18.7381 65.9514 19.4187L64.3229 19.7529C64.2257 20.397 64.0556 21.035 63.8125 21.6426L65.0582 22.7485C64.7787 23.3623 64.4384 23.9517 64.0434 24.5046L62.4636 23.982C62.0564 24.4925 61.5886 24.9543 61.0781 25.3675L61.6068 26.9412C61.0538 27.3362 60.4644 27.6765 59.8446 27.956L58.7448 26.7164C58.1311 26.9534 57.4991 27.1235 56.849 27.2208L56.5148 28.8492C55.8403 28.9161 55.1597 28.9161 54.4853 28.8492L54.1511 27.2208C53.5009 27.1235 52.8689 26.9534 52.2552 26.7164L51.1554 27.956C50.5356 27.6765 49.9462 27.3362 49.3932 26.9412L49.9219 25.3675C49.4115 24.9543 48.9436 24.4925 48.5365 23.982L46.9566 24.5046C46.5616 23.9517 46.2214 23.3623 45.9418 22.7485L47.1814 21.6426C46.9445 21.035 46.7743 20.397 46.6771 19.7529L45.0486 19.4187C44.9818 18.7381 44.9818 18.0576 45.0486 17.3831L46.6771 17.0489C46.7743 16.4048 46.9445 15.7668 47.1814 15.1591L45.9418 14.0532C46.2214 13.4395 46.5616 12.8501 46.9566 12.2971L48.5365 12.8197C48.9436 12.3093 49.4115 11.8414 49.9219 11.4343L49.3932 9.85444C49.9462 9.46555 50.5356 9.12527 51.1554 8.83968L52.2552 10.0853C52.8689 9.84836 53.5009 9.67822 54.1511 9.581L54.4853 7.94645C55.1597 7.88569 55.8403 7.88569 56.5148 7.94645ZM55.5 11.8353C51.8785 11.8353 48.9375 14.7763 48.9375 18.3978C48.9375 22.0194 51.8785 24.9603 55.5 24.9603C59.1215 24.9603 62.0625 22.0194 62.0625 18.3978C62.0625 14.7763 59.1215 11.8353 55.5 11.8353Z" fill="white"/>
</mask>
<g mask="url(#mask14_134_81354)">
<path d="M44.9999 7.89795H65.9999V28.8979H44.9999V7.89795Z" fill="white"/>
</g>
</g>
</g>
</g>
</g>
<mask id="mask15_134_81354" style="mask-type:luminance" maskUnits="userSpaceOnUse" x="39" y="31" width="22" height="22">
<path d="M39.5495 31.1519H60.6346V52.2308H39.5495V31.1519Z" fill="white"/>
</mask>
<g mask="url(#mask15_134_81354)">
<mask id="mask16_134_81354" style="mask-type:luminance" maskUnits="userSpaceOnUse" x="39" y="31" width="22" height="22">
<path d="M51.1493 31.2795L51.4835 32.914C52.1276 33.0112 52.7656 33.1814 53.3733 33.4183L54.4792 32.1727C55.099 32.4583 55.6884 32.7986 56.2353 33.1874L55.7127 34.7673C56.2231 35.1744 56.691 35.6423 57.0981 36.1527L58.678 35.6302C59.0729 36.1831 59.4132 36.7725 59.6927 37.3862L58.4471 38.4921C58.684 39.0998 58.8542 39.7378 58.9575 40.3819L60.5859 40.7161C60.6467 41.3906 60.6467 42.0711 60.5859 42.7517L58.9575 43.0859C58.8542 43.73 58.684 44.368 58.4471 44.9756L59.6927 46.0815C59.4132 46.6953 59.0729 47.2847 58.678 47.8376L57.0981 47.3151C56.691 47.8255 56.2231 48.2873 55.7127 48.7005L56.2353 50.2743C55.6884 50.6692 55.099 51.0095 54.4792 51.289L53.3733 50.0494C52.7656 50.2864 52.1276 50.4565 51.4835 50.5538L51.1493 52.1822C50.4748 52.2491 49.7943 52.2491 49.1198 52.1822L48.7856 50.5538C48.1354 50.4565 47.5035 50.2864 46.8898 50.0494L45.7899 51.289C45.1702 51.0095 44.5807 50.6692 44.0278 50.2743L44.5504 48.7005C44.0399 48.2873 43.5781 47.8255 43.1649 47.3151L41.5912 47.8376C41.1962 47.2847 40.8559 46.6953 40.5764 46.0815L41.816 44.9756C41.579 44.368 41.4089 43.73 41.3116 43.0859L39.6832 42.7517C39.6163 42.0711 39.6163 41.3906 39.6832 40.7161L41.3116 40.3819C41.4089 39.7378 41.579 39.0998 41.816 38.4921L40.5764 37.3862C40.8559 36.7725 41.1962 36.1831 41.5912 35.6302L43.1649 36.1527C43.5781 35.6423 44.0399 35.1744 44.5504 34.7673L44.0278 33.1874C44.5807 32.7986 45.1702 32.4583 45.7899 32.1727L46.8898 33.4183C47.5035 33.1814 48.1354 33.0112 48.7856 32.914L49.1198 31.2795C49.7943 31.2187 50.4748 31.2187 51.1493 31.2795ZM50.1346 35.1683C46.513 35.1683 43.5721 38.1093 43.5721 41.7308C43.5721 45.3524 46.513 48.2933 50.1346 48.2933C53.7561 48.2933 56.6971 45.3524 56.6971 41.7308C56.6971 38.1093 53.7561 35.1683 50.1346 35.1683Z" fill="white"/>
</mask>
<g mask="url(#mask16_134_81354)">
<mask id="mask17_134_81354" style="mask-type:luminance" maskUnits="userSpaceOnUse" x="38" y="31" width="25" height="22">
<path d="M62.1111 31H38.7778V52.7778H62.1111V31Z" fill="white"/>
</mask>
<g mask="url(#mask17_134_81354)">
<mask id="mask18_134_81354" style="mask-type:luminance" maskUnits="userSpaceOnUse" x="39" y="31" width="22" height="22">
<path d="M39.586 31.1519H60.6346V52.2309H39.586V31.1519Z" fill="white"/>
</mask>
<g mask="url(#mask18_134_81354)">
<mask id="mask19_134_81354" style="mask-type:luminance" maskUnits="userSpaceOnUse" x="39" y="31" width="22" height="22">
<path d="M51.1493 31.2795L51.4835 32.914C52.1276 33.0112 52.7656 33.1814 53.3733 33.4183L54.4792 32.1727C55.099 32.4583 55.6884 32.7986 56.2353 33.1874L55.7127 34.7673C56.2231 35.1744 56.691 35.6423 57.0981 36.1527L58.678 35.6302C59.0729 36.1831 59.4132 36.7725 59.6927 37.3862L58.4471 38.4921C58.684 39.0998 58.8542 39.7378 58.9575 40.3819L60.5859 40.7161C60.6467 41.3906 60.6467 42.0711 60.5859 42.7517L58.9575 43.0859C58.8542 43.73 58.684 44.368 58.4471 44.9756L59.6927 46.0815C59.4132 46.6953 59.0729 47.2847 58.678 47.8376L57.0981 47.3151C56.691 47.8255 56.2231 48.2873 55.7127 48.7005L56.2353 50.2743C55.6884 50.6692 55.099 51.0095 54.4792 51.289L53.3733 50.0494C52.7656 50.2864 52.1276 50.4565 51.4835 50.5538L51.1493 52.1822C50.4748 52.2491 49.7943 52.2491 49.1198 52.1822L48.7856 50.5538C48.1354 50.4565 47.5035 50.2864 46.8898 50.0494L45.7899 51.289C45.1702 51.0095 44.5807 50.6692 44.0278 50.2743L44.5504 48.7005C44.0399 48.2873 43.5781 47.8255 43.1649 47.3151L41.5912 47.8376C41.1962 47.2847 40.8559 46.6953 40.5764 46.0815L41.816 44.9756C41.579 44.368 41.4089 43.73 41.3116 43.0859L39.6832 42.7517C39.6163 42.0711 39.6163 41.3906 39.6832 40.7161L41.3116 40.3819C41.4089 39.7378 41.579 39.0998 41.816 38.4921L40.5764 37.3862C40.8559 36.7725 41.1962 36.1831 41.5912 35.6302L43.1649 36.1527C43.5781 35.6423 44.0399 35.1744 44.5504 34.7673L44.0278 33.1874C44.5807 32.7986 45.1702 32.4583 45.7899 32.1727L46.8898 33.4183C47.5035 33.1814 48.1354 33.0112 48.7856 32.914L49.1198 31.2795C49.7943 31.2187 50.4748 31.2187 51.1493 31.2795ZM50.1346 35.1683C46.513 35.1683 43.5721 38.1093 43.5721 41.7308C43.5721 45.3524 46.513 48.2934 50.1346 48.2934C53.7561 48.2934 56.6971 45.3524 56.6971 41.7308C56.6971 38.1093 53.7561 35.1683 50.1346 35.1683Z" fill="white"/>
</mask>
<g mask="url(#mask19_134_81354)">
<path d="M39.6345 31.231H60.6345V52.231H39.6345V31.231Z" fill="white"/>
</g>
</g>
</g>
</g>
</g>
<mask id="mask20_134_81354" style="mask-type:luminance" maskUnits="userSpaceOnUse" x="27" y="41" width="22" height="22">
<path d="M27.4149 41.6519H48.5V62.7309H27.4149V41.6519Z" fill="white"/>
</mask>
<g mask="url(#mask20_134_81354)">
<mask id="mask21_134_81354" style="mask-type:luminance" maskUnits="userSpaceOnUse" x="27" y="41" width="22" height="22">
<path d="M39.0148 41.7795L39.349 43.414C39.9991 43.5112 40.6311 43.6814 41.2448 43.9183L42.3446 42.6727C42.9644 42.9583 43.5538 43.2986 44.1068 43.6874L43.5781 45.2673C44.0886 45.6744 44.5564 46.1423 44.9636 46.6527L46.5434 46.1302C46.9384 46.6831 47.2787 47.2725 47.5582 47.8862L46.3125 48.9921C46.5556 49.5998 46.7257 50.2378 46.8229 50.8819L48.4514 51.2161C48.5182 51.8906 48.5182 52.5711 48.4514 53.2517L46.8229 53.5859C46.7257 54.23 46.5556 54.868 46.3125 55.4756L47.5582 56.5815C47.2787 57.1953 46.9384 57.7847 46.5434 58.3376L44.9636 57.8151C44.5564 58.3255 44.0886 58.7873 43.5781 59.2005L44.1068 60.7743C43.5538 61.1692 42.9644 61.5095 42.3446 61.789L41.2448 60.5494C40.6311 60.7864 39.9991 60.9565 39.349 61.0538L39.0148 62.6822C38.3403 62.7491 37.6597 62.7491 36.9853 62.6822L36.6511 61.0538C36.0009 60.9565 35.3689 60.7864 34.7552 60.5494L33.6554 61.789C33.0356 61.5095 32.4462 61.1692 31.8932 60.7743L32.4219 59.2005C31.9115 58.7873 31.4436 58.3255 31.0365 57.8151L29.4566 58.3376C29.0616 57.7847 28.7214 57.1953 28.4418 56.5815L29.6814 55.4756C29.4445 54.868 29.2743 54.23 29.1771 53.5859L27.5486 53.2517C27.4818 52.5711 27.4818 51.8906 27.5486 51.2161L29.1771 50.8819C29.2743 50.2378 29.4445 49.5998 29.6814 48.9921L28.4418 47.8862C28.7214 47.2725 29.0616 46.6831 29.4566 46.1302L31.0365 46.6527C31.4436 46.1423 31.9115 45.6744 32.4219 45.2673L31.8932 43.6874C32.4462 43.2986 33.0356 42.9583 33.6554 42.6727L34.7552 43.9183C35.3689 43.6814 36.0009 43.5112 36.6511 43.414L36.9853 41.7795C37.6597 41.7187 38.3403 41.7187 39.0148 41.7795ZM38 45.6683C34.3785 45.6683 31.4375 48.6093 31.4375 52.2308C31.4375 55.8524 34.3785 58.7933 38 58.7933C41.6215 58.7933 44.5625 55.8524 44.5625 52.2308C44.5625 48.6093 41.6215 45.6683 38 45.6683Z" fill="white"/>
</mask>
<g mask="url(#mask21_134_81354)">
<mask id="mask22_134_81354" style="mask-type:luminance" maskUnits="userSpaceOnUse" x="26" y="40" width="24" height="24">
<path d="M49.6667 40.3333H26.3333V63.6666H49.6667V40.3333Z" fill="white"/>
</mask>
<g mask="url(#mask22_134_81354)">
<mask id="mask23_134_81354" style="mask-type:luminance" maskUnits="userSpaceOnUse" x="27" y="41" width="22" height="22">
<path d="M27.4149 41.6519H48.5V62.7309H27.4149V41.6519Z" fill="white"/>
</mask>
<g mask="url(#mask23_134_81354)">
<mask id="mask24_134_81354" style="mask-type:luminance" maskUnits="userSpaceOnUse" x="27" y="41" width="22" height="22">
<path d="M39.0148 41.7795L39.349 43.414C39.9991 43.5112 40.6311 43.6814 41.2448 43.9183L42.3446 42.6727C42.9644 42.9583 43.5538 43.2986 44.1068 43.6874L43.5781 45.2673C44.0886 45.6744 44.5564 46.1423 44.9636 46.6527L46.5434 46.1302C46.9384 46.6831 47.2787 47.2725 47.5582 47.8862L46.3125 48.9921C46.5556 49.5998 46.7257 50.2378 46.8229 50.8819L48.4514 51.2161C48.5182 51.8906 48.5182 52.5711 48.4514 53.2517L46.8229 53.5859C46.7257 54.23 46.5556 54.868 46.3125 55.4756L47.5582 56.5815C47.2787 57.1953 46.9384 57.7847 46.5434 58.3376L44.9636 57.8151C44.5564 58.3255 44.0886 58.7873 43.5781 59.2005L44.1068 60.7743C43.5538 61.1692 42.9644 61.5095 42.3446 61.789L41.2448 60.5494C40.6311 60.7864 39.9991 60.9565 39.349 61.0538L39.0148 62.6822C38.3403 62.7491 37.6597 62.7491 36.9853 62.6822L36.6511 61.0538C36.0009 60.9565 35.3689 60.7864 34.7552 60.5494L33.6554 61.789C33.0356 61.5095 32.4462 61.1692 31.8932 60.7743L32.4219 59.2005C31.9115 58.7873 31.4436 58.3255 31.0365 57.8151L29.4566 58.3376C29.0616 57.7847 28.7214 57.1953 28.4418 56.5815L29.6814 55.4756C29.4445 54.868 29.2743 54.23 29.1771 53.5859L27.5486 53.2517C27.4818 52.5711 27.4818 51.8906 27.5486 51.2161L29.1771 50.8819C29.2743 50.2378 29.4445 49.5998 29.6814 48.9921L28.4418 47.8862C28.7214 47.2725 29.0616 46.6831 29.4566 46.1302L31.0365 46.6527C31.4436 46.1423 31.9115 45.6744 32.4219 45.2673L31.8932 43.6874C32.4462 43.2986 33.0356 42.9583 33.6554 42.6727L34.7552 43.9183C35.3689 43.6814 36.0009 43.5112 36.6511 43.414L36.9853 41.7795C37.6597 41.7187 38.3403 41.7187 39.0148 41.7795ZM38 45.6683C34.3785 45.6683 31.4375 48.6093 31.4375 52.2308C31.4375 55.8524 34.3785 58.7934 38 58.7934C41.6215 58.7934 44.5625 55.8524 44.5625 52.2308C44.5625 48.6093 41.6215 45.6683 38 45.6683Z" fill="white"/>
</mask>
<g mask="url(#mask24_134_81354)">
<path d="M27.4999 41.731H48.4999V62.731H27.4999V41.731Z" fill="#45ADF3"/>
</g>
</g>
</g>
</g>
</g>
<mask id="mask25_134_81354" style="mask-type:luminance" maskUnits="userSpaceOnUse" x="41" y="55" width="22" height="18">
<path d="M41.184 55.415H62.2691V73.0001H41.184V55.415Z" fill="white"/>
</mask>
<g mask="url(#mask25_134_81354)">
<mask id="mask26_134_81354" style="mask-type:luminance" maskUnits="userSpaceOnUse" x="41" y="55" width="22" height="22">
<path d="M52.7839 55.5487L53.1181 57.1771C53.7622 57.2744 54.4002 57.4445 55.0078 57.6876L56.1137 56.4419C56.7274 56.7214 57.3168 57.0617 57.8698 57.4567L57.3472 59.0365C57.8576 59.4436 58.3194 59.9115 58.7326 60.4219L60.3125 59.8933C60.7014 60.4462 61.0417 61.0356 61.3273 61.6554L60.0816 62.7553C60.3186 63.369 60.4887 64.0009 60.5859 64.6511L62.2144 64.9853C62.2813 65.6598 62.2813 66.3403 62.2144 67.0148L60.5859 67.349C60.4887 67.9992 60.3186 68.6311 60.0816 69.2448L61.3273 70.3447C61.0417 70.9645 60.7014 71.5539 60.3125 72.1068L58.7326 71.5782C58.3194 72.0886 57.8576 72.5565 57.3472 72.9636L57.8698 74.5435C57.3168 74.9384 56.7274 75.2787 56.1137 75.5582L55.0078 74.3126C54.4002 74.5556 53.7622 74.7258 53.1181 74.823L52.7839 76.4514C52.1094 76.5183 51.4288 76.5183 50.7483 76.4514L50.4141 74.823C49.77 74.7258 49.1319 74.5556 48.5243 74.3126L47.4184 75.5582C46.8047 75.2787 46.2153 74.9384 45.6623 74.5435L46.1849 72.9636C45.6745 72.5565 45.2127 72.0886 44.7995 71.5782L43.2257 72.1068C42.8307 71.5539 42.4905 70.9645 42.2109 70.3447L43.4505 69.2448C43.2135 68.6311 43.0434 67.9992 42.9462 67.349L41.3177 67.0148C41.2509 66.3403 41.2509 65.6598 41.3177 64.9853L42.9462 64.6511C43.0434 64.0009 43.2135 63.369 43.4505 62.7553L42.2109 61.6554C42.4905 61.0356 42.8307 60.4462 43.2257 59.8933L44.7995 60.4219C45.2127 59.9115 45.6745 59.4436 46.1849 59.0365L45.6623 57.4567C46.2153 57.0617 46.8047 56.7214 47.4184 56.4419L48.5243 57.6876C49.1319 57.4445 49.77 57.2744 50.4141 57.1771L50.7483 55.5487C51.4288 55.4818 52.1094 55.4818 52.7839 55.5487ZM51.7691 59.4376C48.1476 59.4376 45.2066 62.3785 45.2066 66.0001C45.2066 69.6216 48.1476 72.5626 51.7691 72.5626C55.3906 72.5626 58.3316 69.6216 58.3316 66.0001C58.3316 62.3785 55.3906 59.4376 51.7691 59.4376Z" fill="white"/>
</mask>
<g mask="url(#mask26_134_81354)">
<mask id="mask27_134_81354" style="mask-type:luminance" maskUnits="userSpaceOnUse" x="40" y="54" width="24" height="20">
<path d="M63.6667 54.3335H40.3333V73.0002H63.6667V54.3335Z" fill="white"/>
</mask>
<g mask="url(#mask27_134_81354)">
<mask id="mask28_134_81354" style="mask-type:luminance" maskUnits="userSpaceOnUse" x="41" y="55" width="22" height="18">
<path d="M41.184 55.415H62.2691V73.0001H41.184V55.415Z" fill="white"/>
</mask>
<g mask="url(#mask28_134_81354)">
<mask id="mask29_134_81354" style="mask-type:luminance" maskUnits="userSpaceOnUse" x="41" y="55" width="22" height="22">
<path d="M52.7838 55.5487L53.118 57.1771C53.7621 57.2744 54.4002 57.4445 55.0078 57.6876L56.1137 56.4419C56.7274 56.7214 57.3168 57.0617 57.8698 57.4567L57.3472 59.0365C57.8576 59.4436 58.3194 59.9115 58.7326 60.4219L60.3125 59.8933C60.7014 60.4462 61.0417 61.0356 61.3272 61.6554L60.0816 62.7553C60.3186 63.369 60.4887 64.0009 60.5859 64.6511L62.2144 64.9853C62.2812 65.6598 62.2812 66.3403 62.2144 67.0148L60.5859 67.349C60.4887 67.9992 60.3186 68.6311 60.0816 69.2448L61.3272 70.3447C61.0417 70.9645 60.7014 71.5539 60.3125 72.1068L58.7326 71.5782C58.3194 72.0886 57.8576 72.5565 57.3472 72.9636L57.8698 74.5435C57.3168 74.9384 56.7274 75.2787 56.1137 75.5582L55.0078 74.3126C54.4002 74.5556 53.7621 74.7258 53.118 74.823L52.7838 76.4514C52.1094 76.5183 51.4288 76.5183 50.7482 76.4514L50.414 74.823C49.77 74.7258 49.1319 74.5556 48.5243 74.3126L47.4184 75.5582C46.8047 75.2787 46.2153 74.9384 45.6623 74.5435L46.1849 72.9636C45.6745 72.5565 45.2127 72.0886 44.7995 71.5782L43.2257 72.1068C42.8307 71.5539 42.4904 70.9645 42.2109 70.3447L43.4505 69.2448C43.2135 68.6311 43.0434 67.9992 42.9462 67.349L41.3177 67.0148C41.2509 66.3403 41.2509 65.6598 41.3177 64.9853L42.9462 64.6511C43.0434 64.0009 43.2135 63.369 43.4505 62.7553L42.2109 61.6554C42.4904 61.0356 42.8307 60.4462 43.2257 59.8933L44.7995 60.4219C45.2127 59.9115 45.6745 59.4436 46.1849 59.0365L45.6623 57.4567C46.2153 57.0617 46.8047 56.7214 47.4184 56.4419L48.5243 57.6876C49.1319 57.4445 49.77 57.2744 50.414 57.1771L50.7482 55.5487C51.4288 55.4818 52.1094 55.4818 52.7838 55.5487ZM51.7691 59.4376C48.1476 59.4376 45.2066 62.3785 45.2066 66.0001C45.2066 69.6216 48.1476 72.5626 51.7691 72.5626C55.3906 72.5626 58.3316 69.6216 58.3316 66.0001C58.3316 62.3785 55.3906 59.4376 51.7691 59.4376Z" fill="white"/>
</mask>
<g mask="url(#mask29_134_81354)">
<path d="M41.2689 55.4998H62.2689V76.4998H41.2689V55.4998Z" fill="white"/>
</g>
</g>
</g>
</g>
</g>
</g>
</g>
<rect x="1.5" y="1.5" width="73" height="73" rx="11.5" stroke="#FBFBFB" stroke-width="3"/>
</g>
<defs>
<filter id="filter0_d_134_81354" x="0" y="0" width="81" height="81" filterUnits="userSpaceOnUse" color-interpolation-filters="sRGB">
<feFlood flood-opacity="0" result="BackgroundImageFix"/>
<feColorMatrix in="SourceAlpha" type="matrix" values="0 0 0 0 0 0 0 0 0 0 0 0 0 0 0 0 0 0 127 0" result="hardAlpha"/>
<feOffset dx="4" dy="4"/>
<feGaussianBlur stdDeviation="0.5"/>
<feComposite in2="hardAlpha" operator="out"/>
<feColorMatrix type="matrix" values="0 0 0 0 0 0 0 0 0 0 0 0 0 0 0 0 0 0 0.25 0"/>
<feBlend mode="normal" in2="BackgroundImageFix" result="effect1_dropShadow_134_81354"/>
<feBlend mode="normal" in="SourceGraphic" in2="effect1_dropShadow_134_81354" result="shape"/>
</filter>
<clipPath id="clip0_134_81354">
<rect x="3" y="3" width="70" height="70" rx="10" fill="white"/>
</clipPath>
<clipPath id="clip1_134_81354">
<rect x="3" y="3" width="70" height="70" rx="10" fill="white"/>
</clipPath>
</defs>
</svg>
