<svg width="71" height="71" viewBox="0 0 71 71" fill="none" xmlns="http://www.w3.org/2000/svg">
<g filter="url(#filter0_d_131_78383)">
<g clip-path="url(#clip0_131_78383)">
<rect x="3" y="3" width="60" height="60" rx="10" fill="white"/>
<g clip-path="url(#clip1_131_78383)">
<path d="M69 -3H-3V69H69V-3Z" fill="white"/>
<path d="M69 -3H-3V69H69V-3Z" fill="#0559D3"/>
<mask id="mask0_131_78383" style="mask-type:luminance" maskUnits="userSpaceOnUse" x="47" y="3" width="16" height="15">
<path d="M47.9271 3H63V18H47.9271V3Z" fill="white"/>
</mask>
<g mask="url(#mask0_131_78383)">
<mask id="mask1_131_78383" style="mask-type:luminance" maskUnits="userSpaceOnUse" x="47" y="-1" width="20" height="20">
<path d="M57.8698 0.0417483L58.1562 1.43758C58.7135 1.52092 59.2552 1.66675 59.7812 1.87508L60.724 0.807374C61.2552 1.04696 61.7604 1.33862 62.2344 1.67716L61.7812 3.03133C62.2187 3.38029 62.6198 3.78133 62.9687 4.21883L64.3229 3.76571C64.6615 4.23967 64.9531 4.74487 65.1927 5.27612L64.125 6.21883C64.3333 6.74487 64.4792 7.28654 64.5625 7.84383L65.9583 8.13029C66.0156 8.70842 66.0156 9.29175 65.9583 9.86987L64.5625 10.1563C64.4792 10.7136 64.3333 11.2553 64.125 11.7813L65.1927 12.724C64.9531 13.2553 64.6615 13.7605 64.3229 14.2345L62.9687 13.7813C62.6198 14.2188 62.2187 14.6199 61.7812 14.9688L62.2344 16.323C61.7604 16.6615 61.2552 16.9532 60.724 17.1928L59.7812 16.1251C59.2552 16.3334 58.7135 16.4792 58.1562 16.5626L57.8698 17.9584C57.2917 18.0157 56.7083 18.0157 56.1302 17.9584L55.8437 16.5626C55.2865 16.4792 54.7448 16.3334 54.2187 16.1251L53.276 17.1928C52.7448 16.9532 52.2396 16.6615 51.7656 16.323L52.2187 14.9688C51.7812 14.6199 51.3802 14.2188 51.0312 13.7813L49.6771 14.2345C49.3385 13.7605 49.0469 13.2553 48.8073 12.724L49.8698 11.7813C49.6667 11.2553 49.5208 10.7136 49.4375 10.1563L48.0417 9.86987C47.9844 9.29175 47.9844 8.70842 48.0417 8.13029L49.4375 7.84383C49.5208 7.28654 49.6667 6.74487 49.8698 6.21883L48.8073 5.27612C49.0469 4.74487 49.3385 4.23967 49.6771 3.76571L51.0312 4.21883C51.3802 3.78133 51.7812 3.38029 52.2187 3.03133L51.7656 1.67716C52.2396 1.33862 52.7448 1.04696 53.276 0.807374L54.2187 1.87508C54.7448 1.66675 55.2865 1.52092 55.8437 1.43758L56.1302 0.0417483C56.7083 -0.0155437 57.2917 -0.0155437 57.8698 0.0417483ZM57 3.37508C53.8958 3.37508 51.375 5.89591 51.375 9.00008C51.375 12.1042 53.8958 14.6251 57 14.6251C60.1042 14.6251 62.625 12.1042 62.625 9.00008C62.625 5.89591 60.1042 3.37508 57 3.37508Z" fill="white"/>
</mask>
<g mask="url(#mask1_131_78383)">
<mask id="mask2_131_78383" style="mask-type:luminance" maskUnits="userSpaceOnUse" x="47" y="3" width="16" height="16">
<path d="M63 3H47V19H63V3Z" fill="white"/>
</mask>
<g mask="url(#mask2_131_78383)">
<mask id="mask3_131_78383" style="mask-type:luminance" maskUnits="userSpaceOnUse" x="47" y="3" width="16" height="15">
<path d="M47.9271 3H63V18H47.9271V3Z" fill="white"/>
</mask>
<g mask="url(#mask3_131_78383)">
<mask id="mask4_131_78383" style="mask-type:luminance" maskUnits="userSpaceOnUse" x="47" y="-1" width="20" height="20">
<path d="M57.8698 0.0417483L58.1562 1.43758C58.7135 1.52092 59.2552 1.66675 59.7812 1.87508L60.724 0.807374C61.2552 1.04696 61.7604 1.33862 62.2344 1.67716L61.7812 3.03133C62.2187 3.38029 62.6198 3.78133 62.9687 4.21883L64.3229 3.76571C64.6615 4.23967 64.9531 4.74487 65.1927 5.27612L64.125 6.21883C64.3333 6.74487 64.4792 7.28654 64.5625 7.84383L65.9583 8.13029C66.0156 8.70842 66.0156 9.29175 65.9583 9.86987L64.5625 10.1563C64.4792 10.7136 64.3333 11.2553 64.125 11.7813L65.1927 12.724C64.9531 13.2553 64.6615 13.7605 64.3229 14.2345L62.9687 13.7813C62.6198 14.2188 62.2187 14.6199 61.7812 14.9688L62.2344 16.323C61.7604 16.6615 61.2552 16.9532 60.724 17.1928L59.7812 16.1251C59.2552 16.3334 58.7135 16.4792 58.1562 16.5626L57.8698 17.9584C57.2917 18.0157 56.7083 18.0157 56.1302 17.9584L55.8437 16.5626C55.2865 16.4792 54.7448 16.3334 54.2187 16.1251L53.276 17.1928C52.7448 16.9532 52.2396 16.6615 51.7656 16.323L52.2187 14.9688C51.7812 14.6199 51.3802 14.2188 51.0312 13.7813L49.6771 14.2345C49.3385 13.7605 49.0469 13.2553 48.8073 12.724L49.8698 11.7813C49.6667 11.2553 49.5208 10.7136 49.4375 10.1563L48.0417 9.86987C47.9844 9.29175 47.9844 8.70842 48.0417 8.13029L49.4375 7.84383C49.5208 7.28654 49.6667 6.74487 49.8698 6.21883L48.8073 5.27612C49.0469 4.74487 49.3385 4.23967 49.6771 3.76571L51.0312 4.21883C51.3802 3.78133 51.7812 3.38029 52.2187 3.03133L51.7656 1.67716C52.2396 1.33862 52.7448 1.04696 53.276 0.807374L54.2187 1.87508C54.7448 1.66675 55.2865 1.52092 55.8437 1.43758L56.1302 0.0417483C56.7083 -0.0155437 57.2917 -0.0155437 57.8698 0.0417483ZM57 3.37508C53.8958 3.37508 51.375 5.89591 51.375 9.00008C51.375 12.1042 53.8958 14.6251 57 14.6251C60.1042 14.6251 62.625 12.1042 62.625 9.00008C62.625 5.89591 60.1042 3.37508 57 3.37508Z" fill="white"/>
</mask>
<g mask="url(#mask4_131_78383)">
<path d="M48 0H66V18H48V0Z" fill="#0091E2"/>
</g>
</g>
</g>
</g>
</g>
<mask id="mask5_131_78383" style="mask-type:luminance" maskUnits="userSpaceOnUse" x="28" y="12" width="19" height="19">
<path d="M28.5521 12.7292H46.625V30.8022H28.5521V12.7292Z" fill="white"/>
</mask>
<g mask="url(#mask5_131_78383)">
<mask id="mask6_131_78383" style="mask-type:luminance" maskUnits="userSpaceOnUse" x="28" y="12" width="19" height="19">
<path d="M38.4948 12.8437L38.7813 14.2396C39.3333 14.3229 39.8802 14.4687 40.401 14.6719L41.349 13.6094C41.8802 13.849 42.3802 14.1406 42.8542 14.4792L42.4063 15.8281C42.8438 16.1823 43.2448 16.5781 43.5938 17.0156L44.9479 16.5677C45.2865 17.0417 45.5729 17.5469 45.8177 18.0729L44.75 19.0208C44.9531 19.5417 45.099 20.0885 45.1875 20.6406L46.5833 20.9271C46.6354 21.5104 46.6354 22.0937 46.5833 22.6719L45.1875 22.9583C45.099 23.5104 44.9531 24.0573 44.75 24.5781L45.8177 25.526C45.5729 26.0521 45.2865 26.5573 44.9479 27.0313L43.5938 26.5833C43.2448 27.0208 42.8438 27.4219 42.4063 27.7708L42.8542 29.1198C42.3802 29.4583 41.8802 29.75 41.349 29.9948L40.401 28.9271C39.8802 29.1302 39.3333 29.276 38.7813 29.3594L38.4948 30.7604C37.9167 30.8125 37.3333 30.8125 36.7552 30.7604L36.4635 29.3594C35.9115 29.276 35.3698 29.1302 34.8438 28.9271L33.8958 29.9948C33.3698 29.75 32.8646 29.4583 32.3906 29.1198L32.8385 27.7708C32.401 27.4219 32.0052 27.0208 31.651 26.5833L30.3021 27.0313C29.9635 26.5573 29.6719 26.0521 29.4323 25.526L30.4948 24.5781C30.2917 24.0573 30.1458 23.5104 30.0625 22.9583L28.6667 22.6719C28.6094 22.0937 28.6094 21.5104 28.6667 20.9271L30.0625 20.6406C30.1458 20.0885 30.2917 19.5417 30.4948 19.0208L29.4323 18.0729C29.6719 17.5469 29.9635 17.0417 30.3021 16.5677L31.651 17.0156C32.0052 16.5781 32.401 16.1823 32.8385 15.8281L32.3906 14.4792C32.8646 14.1406 33.3698 13.849 33.8958 13.6094L34.8438 14.6719C35.3698 14.4687 35.9115 14.3229 36.4635 14.2396L36.7552 12.8437C37.3333 12.7865 37.9167 12.7865 38.4948 12.8437ZM37.625 16.1771C34.5208 16.1771 32 18.6979 32 21.8021C32 24.9063 34.5208 27.4271 37.625 27.4271C40.7292 27.4271 43.25 24.9063 43.25 21.8021C43.25 18.6979 40.7292 16.1771 37.625 16.1771Z" fill="white"/>
</mask>
<g mask="url(#mask6_131_78383)">
<mask id="mask7_131_78383" style="mask-type:luminance" maskUnits="userSpaceOnUse" x="28" y="12" width="19" height="19">
<path d="M47 12.3333H28.3333V30.9999H47V12.3333Z" fill="white"/>
</mask>
<g mask="url(#mask7_131_78383)">
<mask id="mask8_131_78383" style="mask-type:luminance" maskUnits="userSpaceOnUse" x="28" y="12" width="19" height="19">
<path d="M28.599 12.729H46.625V30.8019H28.599V12.729Z" fill="white"/>
</mask>
<g mask="url(#mask8_131_78383)">
<mask id="mask9_131_78383" style="mask-type:luminance" maskUnits="userSpaceOnUse" x="28" y="12" width="19" height="19">
<path d="M38.4948 12.8435L38.7813 14.2393C39.3333 14.3227 39.8802 14.4685 40.401 14.6716L41.349 13.6091C41.8802 13.8487 42.3802 14.1404 42.8542 14.4789L42.4063 15.8279C42.8438 16.182 43.2448 16.5779 43.5938 17.0154L44.9479 16.5675C45.2865 17.0414 45.5729 17.5466 45.8177 18.0727L44.75 19.0206C44.9531 19.5414 45.099 20.0883 45.1875 20.6404L46.5833 20.9268C46.6354 21.5102 46.6354 22.0935 46.5833 22.6716L45.1875 22.9581C45.099 23.5102 44.9531 24.057 44.75 24.5779L45.8177 25.5258C45.5729 26.0518 45.2865 26.557 44.9479 27.031L43.5938 26.5831C43.2448 27.0206 42.8438 27.4216 42.4063 27.7706L42.8542 29.1195C42.3802 29.4581 41.8802 29.7498 41.349 29.9945L40.401 28.9268C39.8802 29.13 39.3333 29.2758 38.7813 29.3591L38.4948 30.7602C37.9167 30.8123 37.3333 30.8123 36.7552 30.7602L36.4635 29.3591C35.9115 29.2758 35.3698 29.13 34.8438 28.9268L33.8958 29.9945C33.3698 29.7498 32.8646 29.4581 32.3906 29.1195L32.8385 27.7706C32.401 27.4216 32.0052 27.0206 31.651 26.5831L30.3021 27.031C29.9635 26.557 29.6719 26.0518 29.4323 25.5258L30.4948 24.5779C30.2917 24.057 30.1458 23.5102 30.0625 22.9581L28.6667 22.6716C28.6094 22.0935 28.6094 21.5102 28.6667 20.9268L30.0625 20.6404C30.1458 20.0883 30.2917 19.5414 30.4948 19.0206L29.4323 18.0727C29.6719 17.5466 29.9635 17.0414 30.3021 16.5675L31.651 17.0154C32.0052 16.5779 32.401 16.182 32.8385 15.8279L32.3906 14.4789C32.8646 14.1404 33.3698 13.8487 33.8958 13.6091L34.8438 14.6716C35.3698 14.4685 35.9115 14.3227 36.4635 14.2393L36.7552 12.8435C37.3333 12.7862 37.9167 12.7862 38.4948 12.8435ZM37.625 16.1768C34.5208 16.1768 32 18.6977 32 21.8018C32 24.906 34.5208 27.4268 37.625 27.4268C40.7292 27.4268 43.25 24.906 43.25 21.8018C43.25 18.6977 40.7292 16.1768 37.625 16.1768Z" fill="white"/>
</mask>
<g mask="url(#mask9_131_78383)">
<path d="M28.625 12.8018H46.625V30.8018H28.625V12.8018Z" fill="#45ADF3"/>
</g>
</g>
</g>
</g>
</g>
<mask id="mask10_131_78383" style="mask-type:luminance" maskUnits="userSpaceOnUse" x="39" y="7" width="18" height="19">
<path d="M39 7.13013H57V25.1978H39V7.13013Z" fill="white"/>
</mask>
<g mask="url(#mask10_131_78383)">
<mask id="mask11_131_78383" style="mask-type:luminance" maskUnits="userSpaceOnUse" x="38" y="7" width="20" height="19">
<path d="M48.8698 7.2395L49.1563 8.64054C49.7135 8.72388 50.2552 8.86971 50.7813 9.07284L51.724 8.00513C52.2552 8.24992 52.7604 8.54159 53.2344 8.87492L52.7813 10.2291C53.2188 10.578 53.6198 10.9791 53.9688 11.4166L55.3229 10.9687C55.6615 11.4426 55.9531 11.9478 56.1927 12.4739L55.125 13.4218C55.3333 13.9426 55.4792 14.4895 55.5625 15.0416L56.9583 15.328C57.0156 15.9062 57.0156 16.4895 56.9583 17.0728L55.5625 17.3593C55.4792 17.9114 55.3333 18.4583 55.125 18.9791L56.1927 19.927C55.9531 20.453 55.6615 20.9583 55.3229 21.4322L53.9688 20.9843C53.6198 21.4218 53.2188 21.8176 52.7813 22.1718L53.2344 23.5208C52.7604 23.8593 52.2552 24.151 51.724 24.3905L50.7813 23.328C50.2552 23.5312 49.7135 23.677 49.1563 23.7603L48.8698 25.1562C48.2917 25.2135 47.7083 25.2135 47.1302 25.1562L46.8438 23.7603C46.2865 23.677 45.7448 23.5312 45.2188 23.328L44.276 24.3905C43.7448 24.151 43.2396 23.8593 42.7656 23.5208L43.2188 22.1718C42.7813 21.8176 42.3802 21.4218 42.0313 20.9843L40.6771 21.4322C40.3385 20.9583 40.0469 20.453 39.8073 19.927L40.8698 18.9791C40.6667 18.4583 40.5208 17.9114 40.4375 17.3593L39.0417 17.0728C38.9844 16.4895 38.9844 15.9062 39.0417 15.328L40.4375 15.0416C40.5208 14.4895 40.6667 13.9426 40.8698 13.4218L39.8073 12.4739C40.0469 11.9478 40.3385 11.4426 40.6771 10.9687L42.0313 11.4166C42.3802 10.9791 42.7813 10.578 43.2188 10.2291L42.7656 8.87492C43.2396 8.54159 43.7448 8.24992 44.276 8.00513L45.2188 9.07284C45.7448 8.86971 46.2865 8.72388 46.8438 8.64054L47.1302 7.2395C47.7083 7.18742 48.2917 7.18742 48.8698 7.2395ZM48 10.5728C44.8958 10.5728 42.375 13.0937 42.375 16.1978C42.375 19.302 44.8958 21.8228 48 21.8228C51.1042 21.8228 53.625 19.302 53.625 16.1978C53.625 13.0937 51.1042 10.5728 48 10.5728Z" fill="white"/>
</mask>
<g mask="url(#mask11_131_78383)">
<mask id="mask12_131_78383" style="mask-type:luminance" maskUnits="userSpaceOnUse" x="39" y="7" width="19" height="19">
<path d="M57.6667 7H39V25.6667H57.6667V7Z" fill="white"/>
</mask>
<g mask="url(#mask12_131_78383)">
<mask id="mask13_131_78383" style="mask-type:luminance" maskUnits="userSpaceOnUse" x="39" y="7" width="18" height="19">
<path d="M39 7.16138H57V25.1978H39V7.16138Z" fill="white"/>
</mask>
<g mask="url(#mask13_131_78383)">
<mask id="mask14_131_78383" style="mask-type:luminance" maskUnits="userSpaceOnUse" x="38" y="7" width="20" height="19">
<path d="M48.8698 7.2395L49.1563 8.64054C49.7135 8.72388 50.2552 8.86971 50.7813 9.07284L51.724 8.00513C52.2552 8.24992 52.7604 8.54159 53.2344 8.87492L52.7813 10.2291C53.2188 10.578 53.6198 10.9791 53.9688 11.4166L55.3229 10.9687C55.6615 11.4426 55.9531 11.9478 56.1927 12.4739L55.125 13.4218C55.3333 13.9426 55.4792 14.4895 55.5625 15.0416L56.9583 15.328C57.0156 15.9062 57.0156 16.4895 56.9583 17.0728L55.5625 17.3593C55.4792 17.9114 55.3333 18.4583 55.125 18.9791L56.1927 19.927C55.9531 20.453 55.6615 20.9583 55.3229 21.4322L53.9688 20.9843C53.6198 21.4218 53.2188 21.8176 52.7813 22.1718L53.2344 23.5208C52.7604 23.8593 52.2552 24.151 51.724 24.3905L50.7813 23.328C50.2552 23.5312 49.7135 23.677 49.1563 23.7603L48.8698 25.1562C48.2917 25.2135 47.7083 25.2135 47.1302 25.1562L46.8438 23.7603C46.2865 23.677 45.7448 23.5312 45.2188 23.328L44.276 24.3905C43.7448 24.151 43.2396 23.8593 42.7656 23.5208L43.2188 22.1718C42.7813 21.8176 42.3802 21.4218 42.0313 20.9843L40.6771 21.4322C40.3385 20.9583 40.0469 20.453 39.8073 19.927L40.8698 18.9791C40.6667 18.4583 40.5208 17.9114 40.4375 17.3593L39.0417 17.0728C38.9844 16.4895 38.9844 15.9062 39.0417 15.328L40.4375 15.0416C40.5208 14.4895 40.6667 13.9426 40.8698 13.4218L39.8073 12.4739C40.0469 11.9478 40.3385 11.4426 40.6771 10.9687L42.0313 11.4166C42.3802 10.9791 42.7813 10.578 43.2188 10.2291L42.7656 8.87492C43.2396 8.54159 43.7448 8.24992 44.276 8.00513L45.2188 9.07284C45.7448 8.86971 46.2865 8.72388 46.8438 8.64054L47.1302 7.2395C47.7083 7.18742 48.2917 7.18742 48.8698 7.2395ZM48 10.5728C44.8958 10.5728 42.375 13.0937 42.375 16.1978C42.375 19.302 44.8958 21.8228 48 21.8228C51.1042 21.8228 53.625 19.302 53.625 16.1978C53.625 13.0937 51.1042 10.5728 48 10.5728Z" fill="white"/>
</mask>
<g mask="url(#mask14_131_78383)">
<path d="M39 7.19775H57V25.1978H39V7.19775Z" fill="white"/>
</g>
</g>
</g>
</g>
</g>
<mask id="mask15_131_78383" style="mask-type:luminance" maskUnits="userSpaceOnUse" x="34" y="27" width="19" height="19">
<path d="M34.3281 27.1301H52.401V45.1978H34.3281V27.1301Z" fill="white"/>
</mask>
<g mask="url(#mask15_131_78383)">
<mask id="mask16_131_78383" style="mask-type:luminance" maskUnits="userSpaceOnUse" x="34" y="27" width="19" height="19">
<path d="M44.2708 27.2395L44.5573 28.6405C45.1094 28.7239 45.6563 28.8697 46.1771 29.0728L47.125 28.0051C47.6563 28.2499 48.1615 28.5416 48.6302 28.8749L48.1823 30.2291C48.6198 30.578 49.0208 30.9791 49.3698 31.4166L50.724 30.9687C51.0625 31.4426 51.3542 31.9478 51.5938 32.4739L50.526 33.4218C50.7292 33.9426 50.875 34.4895 50.9635 35.0416L52.3594 35.328C52.4115 35.9062 52.4115 36.4895 52.3594 37.0728L50.9635 37.3593C50.875 37.9114 50.7292 38.4583 50.526 38.9791L51.5938 39.927C51.3542 40.453 51.0625 40.9583 50.724 41.4322L49.3698 40.9843C49.0208 41.4218 48.6198 41.8176 48.1823 42.1718L48.6302 43.5208C48.1615 43.8593 47.6563 44.151 47.125 44.3905L46.1771 43.328C45.6563 43.5312 45.1094 43.677 44.5573 43.7603L44.2708 45.1562C43.6927 45.2135 43.1094 45.2135 42.5313 45.1562L42.2448 43.7603C41.6875 43.677 41.1458 43.5312 40.6198 43.328L39.6771 44.3905C39.1458 44.151 38.6406 43.8593 38.1667 43.5208L38.6146 42.1718C38.1771 41.8176 37.7813 41.4218 37.4271 40.9843L36.0781 41.4322C35.7396 40.9583 35.4479 40.453 35.2083 39.927L36.2708 38.9791C36.0677 38.4583 35.9219 37.9114 35.8385 37.3593L34.4427 37.0728C34.3854 36.4895 34.3854 35.9062 34.4427 35.328L35.8385 35.0416C35.9219 34.4895 36.0677 33.9426 36.2708 33.4218L35.2083 32.4739C35.4479 31.9478 35.7396 31.4426 36.0781 30.9687L37.4271 31.4166C37.7813 30.9791 38.1771 30.578 38.6146 30.2291L38.1667 28.8749C38.6406 28.5416 39.1458 28.2499 39.6771 28.0051L40.6198 29.0728C41.1458 28.8697 41.6875 28.7239 42.2448 28.6405L42.5313 27.2395C43.1094 27.1874 43.6927 27.1874 44.2708 27.2395ZM43.401 30.5728C40.2969 30.5728 37.776 33.0937 37.776 36.1978C37.776 39.302 40.2969 41.8228 43.401 41.8228C46.5052 41.8228 49.026 39.302 49.026 36.1978C49.026 33.0937 46.5052 30.5728 43.401 30.5728Z" fill="white"/>
</mask>
<g mask="url(#mask16_131_78383)">
<mask id="mask17_131_78383" style="mask-type:luminance" maskUnits="userSpaceOnUse" x="33" y="27" width="21" height="19">
<path d="M53.6667 27H33.6667V45.6667H53.6667V27Z" fill="white"/>
</mask>
<g mask="url(#mask17_131_78383)">
<mask id="mask18_131_78383" style="mask-type:luminance" maskUnits="userSpaceOnUse" x="34" y="27" width="19" height="19">
<path d="M34.3594 27.1301H52.401V45.1978H34.3594V27.1301Z" fill="white"/>
</mask>
<g mask="url(#mask18_131_78383)">
<mask id="mask19_131_78383" style="mask-type:luminance" maskUnits="userSpaceOnUse" x="34" y="27" width="19" height="19">
<path d="M44.2708 27.2395L44.5573 28.6405C45.1094 28.7239 45.6563 28.8697 46.1771 29.0728L47.125 28.0051C47.6563 28.2499 48.1615 28.5416 48.6302 28.8749L48.1823 30.2291C48.6198 30.578 49.0208 30.9791 49.3698 31.4166L50.724 30.9687C51.0625 31.4426 51.3542 31.9478 51.5938 32.4739L50.5261 33.4218C50.7292 33.9426 50.875 34.4895 50.9636 35.0416L52.3594 35.328C52.4115 35.9062 52.4115 36.4895 52.3594 37.0728L50.9636 37.3593C50.875 37.9114 50.7292 38.4583 50.5261 38.9791L51.5938 39.927C51.3542 40.453 51.0625 40.9583 50.724 41.4322L49.3698 40.9843C49.0208 41.4218 48.6198 41.8176 48.1823 42.1718L48.6302 43.5208C48.1615 43.8593 47.6563 44.151 47.125 44.3905L46.1771 43.328C45.6563 43.5312 45.1094 43.677 44.5573 43.7603L44.2708 45.1562C43.6927 45.2135 43.1094 45.2135 42.5313 45.1562L42.2448 43.7603C41.6875 43.677 41.1458 43.5312 40.6198 43.328L39.6771 44.3905C39.1458 44.151 38.6406 43.8593 38.1667 43.5208L38.6146 42.1718C38.1771 41.8176 37.7813 41.4218 37.4271 40.9843L36.0781 41.4322C35.7396 40.9583 35.4479 40.453 35.2083 39.927L36.2708 38.9791C36.0677 38.4583 35.9219 37.9114 35.8386 37.3593L34.4427 37.0728C34.3854 36.4895 34.3854 35.9062 34.4427 35.328L35.8386 35.0416C35.9219 34.4895 36.0677 33.9426 36.2708 33.4218L35.2083 32.4739C35.4479 31.9478 35.7396 31.4426 36.0781 30.9687L37.4271 31.4166C37.7813 30.9791 38.1771 30.578 38.6146 30.2291L38.1667 28.8749C38.6406 28.5416 39.1458 28.2499 39.6771 28.0051L40.6198 29.0728C41.1458 28.8697 41.6875 28.7239 42.2448 28.6405L42.5313 27.2395C43.1094 27.1874 43.6927 27.1874 44.2708 27.2395ZM43.4011 30.5728C40.2969 30.5728 37.7761 33.0937 37.7761 36.1978C37.7761 39.302 40.2969 41.8228 43.4011 41.8228C46.5052 41.8228 49.0261 39.302 49.0261 36.1978C49.0261 33.0937 46.5052 30.5728 43.4011 30.5728Z" fill="white"/>
</mask>
<g mask="url(#mask19_131_78383)">
<path d="M34.401 27.1978H52.401V45.1978H34.401V27.1978Z" fill="white"/>
</g>
</g>
</g>
</g>
</g>
<mask id="mask20_131_78383" style="mask-type:luminance" maskUnits="userSpaceOnUse" x="23" y="36" width="19" height="19">
<path d="M23.9271 36.1301H42V54.1978H23.9271V36.1301Z" fill="white"/>
</mask>
<g mask="url(#mask20_131_78383)">
<mask id="mask21_131_78383" style="mask-type:luminance" maskUnits="userSpaceOnUse" x="23" y="36" width="20" height="19">
<path d="M33.8698 36.2395L34.1562 37.6405C34.7135 37.7239 35.2552 37.8697 35.7812 38.0728L36.724 37.0051C37.2552 37.2499 37.7604 37.5416 38.2344 37.8749L37.7812 39.2291C38.2187 39.578 38.6198 39.9791 38.9687 40.4166L40.3229 39.9687C40.6615 40.4426 40.9531 40.9478 41.1927 41.4739L40.125 42.4218C40.3333 42.9426 40.4792 43.4895 40.5625 44.0416L41.9583 44.328C42.0156 44.9062 42.0156 45.4895 41.9583 46.0728L40.5625 46.3593C40.4792 46.9114 40.3333 47.4583 40.125 47.9791L41.1927 48.927C40.9531 49.453 40.6615 49.9583 40.3229 50.4322L38.9687 49.9843C38.6198 50.4218 38.2187 50.8176 37.7812 51.1718L38.2344 52.5208C37.7604 52.8593 37.2552 53.151 36.724 53.3905L35.7812 52.328C35.2552 52.5312 34.7135 52.677 34.1562 52.7603L33.8698 54.1562C33.2917 54.2135 32.7083 54.2135 32.1302 54.1562L31.8437 52.7603C31.2865 52.677 30.7448 52.5312 30.2187 52.328L29.276 53.3905C28.7448 53.151 28.2396 52.8593 27.7656 52.5208L28.2187 51.1718C27.7812 50.8176 27.3802 50.4218 27.0312 49.9843L25.6771 50.4322C25.3385 49.9583 25.0469 49.453 24.8073 48.927L25.8698 47.9791C25.6667 47.4583 25.5208 46.9114 25.4375 46.3593L24.0417 46.0728C23.9844 45.4895 23.9844 44.9062 24.0417 44.328L25.4375 44.0416C25.5208 43.4895 25.6667 42.9426 25.8698 42.4218L24.8073 41.4739C25.0469 40.9478 25.3385 40.4426 25.6771 39.9687L27.0312 40.4166C27.3802 39.9791 27.7812 39.578 28.2187 39.2291L27.7656 37.8749C28.2396 37.5416 28.7448 37.2499 29.276 37.0051L30.2187 38.0728C30.7448 37.8697 31.2865 37.7239 31.8437 37.6405L32.1302 36.2395C32.7083 36.1874 33.2917 36.1874 33.8698 36.2395ZM33 39.5728C29.8958 39.5728 27.375 42.0937 27.375 45.1978C27.375 48.302 29.8958 50.8228 33 50.8228C36.1042 50.8228 38.625 48.302 38.625 45.1978C38.625 42.0937 36.1042 39.5728 33 39.5728Z" fill="white"/>
</mask>
<g mask="url(#mask21_131_78383)">
<mask id="mask22_131_78383" style="mask-type:luminance" maskUnits="userSpaceOnUse" x="23" y="35" width="20" height="20">
<path d="M43 35H23V55H43V35Z" fill="white"/>
</mask>
<g mask="url(#mask22_131_78383)">
<mask id="mask23_131_78383" style="mask-type:luminance" maskUnits="userSpaceOnUse" x="23" y="36" width="19" height="19">
<path d="M23.9271 36.1301H42V54.1978H23.9271V36.1301Z" fill="white"/>
</mask>
<g mask="url(#mask23_131_78383)">
<mask id="mask24_131_78383" style="mask-type:luminance" maskUnits="userSpaceOnUse" x="23" y="36" width="20" height="19">
<path d="M33.8698 36.2395L34.1563 37.6405C34.7135 37.7239 35.2552 37.8697 35.7813 38.0728L36.724 37.0051C37.2552 37.2499 37.7604 37.5416 38.2344 37.8749L37.7813 39.2291C38.2188 39.578 38.6198 39.9791 38.9688 40.4166L40.3229 39.9687C40.6615 40.4426 40.9531 40.9478 41.1927 41.4739L40.125 42.4218C40.3333 42.9426 40.4792 43.4895 40.5625 44.0416L41.9583 44.328C42.0156 44.9062 42.0156 45.4895 41.9583 46.0728L40.5625 46.3593C40.4792 46.9114 40.3333 47.4583 40.125 47.9791L41.1927 48.927C40.9531 49.453 40.6615 49.9583 40.3229 50.4322L38.9688 49.9843C38.6198 50.4218 38.2188 50.8176 37.7813 51.1718L38.2344 52.5208C37.7604 52.8593 37.2552 53.151 36.724 53.3905L35.7813 52.328C35.2552 52.5312 34.7135 52.677 34.1563 52.7603L33.8698 54.1562C33.2917 54.2135 32.7083 54.2135 32.1302 54.1562L31.8438 52.7603C31.2865 52.677 30.7448 52.5312 30.2188 52.328L29.276 53.3905C28.7448 53.151 28.2396 52.8593 27.7656 52.5208L28.2188 51.1718C27.7813 50.8176 27.3802 50.4218 27.0313 49.9843L25.6771 50.4322C25.3385 49.9583 25.0469 49.453 24.8073 48.927L25.8698 47.9791C25.6667 47.4583 25.5208 46.9114 25.4375 46.3593L24.0417 46.0728C23.9844 45.4895 23.9844 44.9062 24.0417 44.328L25.4375 44.0416C25.5208 43.4895 25.6667 42.9426 25.8698 42.4218L24.8073 41.4739C25.0469 40.9478 25.3385 40.4426 25.6771 39.9687L27.0313 40.4166C27.3802 39.9791 27.7813 39.578 28.2188 39.2291L27.7656 37.8749C28.2396 37.5416 28.7448 37.2499 29.276 37.0051L30.2188 38.0728C30.7448 37.8697 31.2865 37.7239 31.8438 37.6405L32.1302 36.2395C32.7083 36.1874 33.2917 36.1874 33.8698 36.2395ZM33 39.5728C29.8958 39.5728 27.375 42.0937 27.375 45.1978C27.375 48.302 29.8958 50.8228 33 50.8228C36.1042 50.8228 38.625 48.302 38.625 45.1978C38.625 42.0937 36.1042 39.5728 33 39.5728Z" fill="white"/>
</mask>
<g mask="url(#mask24_131_78383)">
<path d="M24 36.1978H42V54.1978H24V36.1978Z" fill="#45ADF3"/>
</g>
</g>
</g>
</g>
</g>
<mask id="mask25_131_78383" style="mask-type:luminance" maskUnits="userSpaceOnUse" x="35" y="47" width="19" height="16">
<path d="M35.7292 47.927H53.8021V62.9999H35.7292V47.927Z" fill="white"/>
</mask>
<g mask="url(#mask25_131_78383)">
<mask id="mask26_131_78383" style="mask-type:luminance" maskUnits="userSpaceOnUse" x="35" y="47" width="19" height="20">
<path d="M45.6719 48.0415L45.9583 49.4373C46.5104 49.5207 47.0573 49.6665 47.5781 49.8748L48.526 48.8071C49.0521 49.0467 49.5573 49.3384 50.0312 49.6769L49.5833 51.0311C50.0208 51.38 50.4167 51.7811 50.7708 52.2186L52.125 51.7655C52.4583 52.2394 52.75 52.7446 52.9948 53.2759L51.9271 54.2186C52.1302 54.7446 52.276 55.2863 52.3594 55.8436L53.7552 56.13C53.8125 56.7082 53.8125 57.2915 53.7552 57.8696L52.3594 58.1561C52.276 58.7134 52.1302 59.255 51.9271 59.7811L52.9948 60.7238C52.75 61.255 52.4583 61.7603 52.125 62.2342L50.7708 61.7811C50.4167 62.2186 50.0208 62.6196 49.5833 62.9686L50.0312 64.3228C49.5573 64.6613 49.0521 64.953 48.526 65.1925L47.5781 64.1248C47.0573 64.3332 46.5104 64.479 45.9583 64.5623L45.6719 65.9582C45.0937 66.0155 44.5104 66.0155 43.9271 65.9582L43.6406 64.5623C43.0885 64.479 42.5417 64.3332 42.0208 64.1248L41.0729 65.1925C40.5469 64.953 40.0417 64.6613 39.5677 64.3228L40.0156 62.9686C39.5781 62.6196 39.1823 62.2186 38.8281 61.7811L37.4792 62.2342C37.1406 61.7603 36.849 61.255 36.6094 60.7238L37.6719 59.7811C37.4687 59.255 37.3229 58.7134 37.2396 58.1561L35.8437 57.8696C35.7865 57.2915 35.7865 56.7082 35.8437 56.13L37.2396 55.8436C37.3229 55.2863 37.4687 54.7446 37.6719 54.2186L36.6094 53.2759C36.849 52.7446 37.1406 52.2394 37.4792 51.7655L38.8281 52.2186C39.1823 51.7811 39.5781 51.38 40.0156 51.0311L39.5677 49.6769C40.0417 49.3384 40.5469 49.0467 41.0729 48.8071L42.0208 49.8748C42.5417 49.6665 43.0885 49.5207 43.6406 49.4373L43.9271 48.0415C44.5104 47.9842 45.0937 47.9842 45.6719 48.0415ZM44.8021 51.3748C41.6979 51.3748 39.1771 53.8957 39.1771 56.9998C39.1771 60.104 41.6979 62.6248 44.8021 62.6248C47.9063 62.6248 50.4271 60.104 50.4271 56.9998C50.4271 53.8957 47.9063 51.3748 44.8021 51.3748Z" fill="white"/>
</mask>
<g mask="url(#mask26_131_78383)">
<mask id="mask27_131_78383" style="mask-type:luminance" maskUnits="userSpaceOnUse" x="35" y="46" width="20" height="17">
<path d="M55 46.9998H35V62.9998H55V46.9998Z" fill="white"/>
</mask>
<g mask="url(#mask27_131_78383)">
<mask id="mask28_131_78383" style="mask-type:luminance" maskUnits="userSpaceOnUse" x="35" y="47" width="19" height="16">
<path d="M35.7292 47.9268H53.8021V62.9997H35.7292V47.9268Z" fill="white"/>
</mask>
<g mask="url(#mask28_131_78383)">
<mask id="mask29_131_78383" style="mask-type:luminance" maskUnits="userSpaceOnUse" x="35" y="47" width="19" height="20">
<path d="M45.6719 48.0413L45.9583 49.4371C46.5104 49.5204 47.0573 49.6663 47.5781 49.8746L48.526 48.8069C49.0521 49.0465 49.5573 49.3381 50.0313 49.6767L49.5833 51.0308C50.0208 51.3798 50.4167 51.7808 50.7708 52.2183L52.125 51.7652C52.4583 52.2392 52.75 52.7444 52.9948 53.2756L51.9271 54.2183C52.1302 54.7444 52.276 55.2861 52.3594 55.8433L53.7552 56.1298C53.8125 56.7079 53.8125 57.2913 53.7552 57.8694L52.3594 58.1558C52.276 58.7131 52.1302 59.2548 51.9271 59.7808L52.9948 60.7236C52.75 61.2548 52.4583 61.76 52.125 62.234L50.7708 61.7808C50.4167 62.2183 50.0208 62.6194 49.5833 62.9683L50.0313 64.3225C49.5573 64.6611 49.0521 64.9527 48.526 65.1923L47.5781 64.1246C47.0573 64.3329 46.5104 64.4788 45.9583 64.5621L45.6719 65.9579C45.0937 66.0152 44.5104 66.0152 43.9271 65.9579L43.6406 64.5621C43.0885 64.4788 42.5417 64.3329 42.0208 64.1246L41.0729 65.1923C40.5469 64.9527 40.0417 64.6611 39.5677 64.3225L40.0156 62.9683C39.5781 62.6194 39.1823 62.2183 38.8281 61.7808L37.4792 62.234C37.1406 61.76 36.849 61.2548 36.6094 60.7236L37.6719 59.7808C37.4687 59.2548 37.3229 58.7131 37.2396 58.1558L35.8437 57.8694C35.7865 57.2913 35.7865 56.7079 35.8437 56.1298L37.2396 55.8433C37.3229 55.2861 37.4687 54.7444 37.6719 54.2183L36.6094 53.2756C36.849 52.7444 37.1406 52.2392 37.4792 51.7652L38.8281 52.2183C39.1823 51.7808 39.5781 51.3798 40.0156 51.0308L39.5677 49.6767C40.0417 49.3381 40.5469 49.0465 41.0729 48.8069L42.0208 49.8746C42.5417 49.6663 43.0885 49.5204 43.6406 49.4371L43.9271 48.0413C44.5104 47.984 45.0937 47.984 45.6719 48.0413ZM44.8021 51.3746C41.6979 51.3746 39.1771 53.8954 39.1771 56.9996C39.1771 60.1038 41.6979 62.6246 44.8021 62.6246C47.9063 62.6246 50.4271 60.1038 50.4271 56.9996C50.4271 53.8954 47.9063 51.3746 44.8021 51.3746Z" fill="white"/>
</mask>
<g mask="url(#mask29_131_78383)">
<path d="M35.8021 47.9995H53.8021V65.9995H35.8021V47.9995Z" fill="white"/>
</g>
</g>
</g>
</g>
</g>
</g>
</g>
<rect x="1.5" y="1.5" width="63" height="63" rx="11.5" stroke="#FBFBFB" stroke-width="3"/>
</g>
<defs>
<filter id="filter0_d_131_78383" x="0" y="0" width="71" height="71" filterUnits="userSpaceOnUse" color-interpolation-filters="sRGB">
<feFlood flood-opacity="0" result="BackgroundImageFix"/>
<feColorMatrix in="SourceAlpha" type="matrix" values="0 0 0 0 0 0 0 0 0 0 0 0 0 0 0 0 0 0 127 0" result="hardAlpha"/>
<feOffset dx="4" dy="4"/>
<feGaussianBlur stdDeviation="0.5"/>
<feComposite in2="hardAlpha" operator="out"/>
<feColorMatrix type="matrix" values="0 0 0 0 0 0 0 0 0 0 0 0 0 0 0 0 0 0 0.25 0"/>
<feBlend mode="normal" in2="BackgroundImageFix" result="effect1_dropShadow_131_78383"/>
<feBlend mode="normal" in="SourceGraphic" in2="effect1_dropShadow_131_78383" result="shape"/>
</filter>
<clipPath id="clip0_131_78383">
<rect x="3" y="3" width="60" height="60" rx="10" fill="white"/>
</clipPath>
<clipPath id="clip1_131_78383">
<rect x="3" y="3" width="60" height="60" rx="10" fill="white"/>
</clipPath>
</defs>
</svg>
