<svg width="30" height="30" viewBox="0 0 30 30" fill="none" xmlns="http://www.w3.org/2000/svg">
<path fill-rule="evenodd" clip-rule="evenodd" d="M20.0038 15C20.0038 17.7625 17.7647 20 15.0001 20C12.2355 20 9.99634 17.7625 9.99634 15C9.99634 12.2375 12.2355 10 15.0001 10C17.7647 10 20.0038 12.2375 20.0038 15ZM18.7529 15C18.7529 17.075 17.0766 18.75 15.0001 18.75C12.9235 18.75 11.2473 17.075 11.2473 15C11.2473 12.925 12.9235 11.25 15.0001 11.25C17.0766 11.25 18.7529 12.925 18.7529 15Z" fill="#0D004C"/>
<path fill-rule="evenodd" clip-rule="evenodd" d="M11.2472 3.75C11.2472 1.675 12.9234 0 15 0C17.0766 0 18.7528 1.675 18.7528 3.75V3.95C18.7528 4.45 19.1531 4.775 19.5797 4.775C19.7798 4.775 19.9925 4.7 20.1551 4.5375L20.3052 4.3875C21.0308 3.65 21.994 3.2875 22.9572 3.2875C23.699 3.28815 24.4239 3.50844 25.0404 3.92054C25.657 4.33264 26.1375 4.91807 26.4213 5.60288C26.705 6.2877 26.7793 7.04119 26.6348 7.76818C26.4903 8.49518 26.1334 9.16307 25.6092 9.6875L25.4591 9.8375C24.9462 10.3625 25.309 11.25 26.047 11.25H26.2472C28.3237 11.25 30 12.925 30 15C30 17.075 28.3237 18.75 26.2472 18.75H26.047C25.309 18.75 24.9324 19.6375 25.4591 20.1625L25.6092 20.3125C26.312 21.0156 26.7067 21.9687 26.7067 22.9625C26.7067 23.9563 26.312 24.9094 25.6092 25.6125C24.8837 26.35 23.9204 26.7125 22.9572 26.7125C21.9927 26.7125 21.0433 26.35 20.3052 25.6125L20.1551 25.4625C20.039 25.3493 19.8922 25.2728 19.7328 25.2424C19.5735 25.2121 19.4088 25.2294 19.2592 25.2921C19.1096 25.3547 18.9818 25.46 18.8918 25.5948C18.8017 25.7296 18.7534 25.8879 18.7528 26.05V26.25C18.7528 28.325 17.0766 30 15 30C12.9234 30 11.2472 28.325 11.2472 26.25V26.05C11.2472 25.55 10.8469 25.225 10.4203 25.225C10.2202 25.225 10.0075 25.3 9.84488 25.4625L9.69477 25.6125C8.96923 26.35 8.00601 26.7125 7.04278 26.7125C6.30103 26.7118 5.5761 26.4916 4.95956 26.0795C4.34302 25.6674 3.86252 25.0819 3.57875 24.3971C3.29498 23.7123 3.22067 22.9588 3.3652 22.2318C3.50973 21.5048 3.86662 20.8369 4.39079 20.3125L4.54091 20.1625C5.05379 19.6375 4.69102 18.75 3.95296 18.75H3.75281C1.67626 18.75 0 17.075 0 15C0 12.925 1.67626 11.25 3.75281 11.25H3.95296C4.69102 11.25 5.06755 10.3625 4.54091 9.8375L4.39079 9.6875C3.68801 8.98437 3.29327 8.03125 3.29327 7.0375C3.29327 6.04375 3.68801 5.09063 4.39079 4.3875C5.11634 3.65 6.07956 3.2875 7.04278 3.2875C8.00726 3.2875 8.95672 3.65 9.69477 4.3875L9.84488 4.5375C9.96095 4.65071 10.1078 4.72724 10.2672 4.75756C10.4265 4.78787 10.5912 4.77062 10.7408 4.70795C10.8904 4.64528 11.0182 4.53998 11.1082 4.40518C11.1983 4.27039 11.2466 4.11207 11.2472 3.95V3.75ZM17.5019 3.75C17.5019 2.375 16.3748 1.25 15 1.25C13.6252 1.25 12.4981 2.3625 12.4981 3.7375V3.9375C12.4981 5.075 11.5712 6.0125 10.4216 6.0125C9.87115 6.0125 9.34451 5.7875 8.95797 5.4L8.80786 5.25C8.57716 5.01689 8.30248 4.83182 7.99972 4.70552C7.69695 4.57921 7.37212 4.51418 7.04403 4.51418C6.71594 4.51418 6.39111 4.57921 6.08835 4.70552C5.78559 4.83182 5.51091 5.01689 5.28021 5.25C5.0476 5.48218 4.86306 5.7579 4.73715 6.0614C4.61125 6.36489 4.54644 6.69021 4.54644 7.01875C4.54644 7.34729 4.61125 7.67261 4.73715 7.9761C4.86306 8.2796 5.0476 8.55532 5.28021 8.7875L5.43032 8.9375C6.03077 9.5375 6.20716 10.425 5.88066 11.2C5.56793 11.975 4.8036 12.475 3.96673 12.475H3.76658C2.39054 12.475 1.25219 13.625 1.25219 15C1.25219 16.375 2.39304 17.475 3.76658 17.475H3.96673C4.80611 17.475 5.55542 17.975 5.88066 18.75C6.2059 19.525 6.03077 20.4125 5.43032 21.0125L5.28021 21.1625C5.0476 21.3947 4.86306 21.6704 4.73715 21.9739C4.61125 22.2774 4.54644 22.6027 4.54644 22.9312C4.54644 23.2598 4.61125 23.5851 4.73715 23.8886C4.86306 24.1921 5.0476 24.4678 5.28021 24.7C5.51091 24.9331 5.78559 25.1182 6.08835 25.2445C6.39111 25.3708 6.71594 25.4358 7.04403 25.4358C7.37212 25.4358 7.69695 25.3708 7.99972 25.2445C8.30248 25.1182 8.57716 24.9331 8.80786 24.7L8.95797 24.55C9.35827 24.15 9.87241 23.9375 10.4216 23.9375C11.5612 23.9375 12.4981 24.8625 12.4981 26.0125V26.2125C12.4981 27.5875 13.6252 28.75 15 28.75C16.3748 28.75 17.5019 27.5875 17.5019 26.2125V26.0125C17.5019 25.425 17.727 24.8875 18.1524 24.5C18.5456 24.1305 19.0676 23.9289 19.6074 23.9383C20.1471 23.9476 20.6618 24.1671 21.042 24.55L21.1921 24.7C21.4228 24.9331 21.6975 25.1182 22.0003 25.2445C22.303 25.3708 22.6279 25.4358 22.956 25.4358C23.2841 25.4358 23.6089 25.3708 23.9117 25.2445C24.2144 25.1182 24.4891 24.9331 24.7198 24.7C25.6968 23.725 25.6968 22.1375 24.7198 21.1625L24.5697 21.0125C23.9692 20.4125 23.7941 19.525 24.1193 18.75C24.4321 17.975 25.1964 17.5 26.0333 17.5H26.2334C27.6095 17.5 28.7478 16.375 28.7478 15C28.7478 13.625 27.607 12.5 26.2334 12.5H26.0333C25.1939 12.5 24.4446 11.975 24.1193 11.2C23.7941 10.425 23.9692 9.5375 24.5697 8.9375L24.7198 8.7875C24.9531 8.55698 25.1383 8.2825 25.2647 7.97997C25.3911 7.67743 25.4562 7.35284 25.4562 7.025C25.4562 6.69716 25.3911 6.37257 25.2647 6.07003C25.1383 5.7675 24.9531 5.49302 24.7198 5.2625C24.4891 5.02939 24.2144 4.84432 23.9117 4.71802C23.6089 4.59171 23.2841 4.52668 22.956 4.52668C22.6279 4.52668 22.303 4.59171 22.0003 4.71802C21.6975 4.84432 21.4228 5.02939 21.1921 5.2625L21.042 5.4125C20.6417 5.8125 20.1276 6.025 19.5784 6.025C18.4388 6.025 17.5019 5.1 17.5019 3.95V3.75Z" fill="#0D004C"/>
</svg>
