<svg width="30" height="31" viewBox="0 0 30 31" fill="none" xmlns="http://www.w3.org/2000/svg">
<path fill-rule="evenodd" clip-rule="evenodd" d="M20.0038 15.1232C20.0038 17.9084 17.7647 20.1643 15.0001 20.1643C12.2355 20.1643 9.99634 17.9084 9.99634 15.1232C9.99634 12.338 12.2355 10.0822 15.0001 10.0822C17.7647 10.0822 20.0038 12.338 20.0038 15.1232ZM18.7529 15.1232C18.7529 17.2153 17.0766 18.904 15.0001 18.904C12.9235 18.904 11.2473 17.2153 11.2473 15.1232C11.2473 13.0312 12.9235 11.3424 15.0001 11.3424C17.0766 11.3424 18.7529 13.0312 18.7529 15.1232Z" fill="#3C3C3B"/>
<path fill-rule="evenodd" clip-rule="evenodd" d="M11.2472 3.78081C11.2472 1.68876 12.9234 0 15 0C17.0766 0 18.7528 1.68876 18.7528 3.78081V3.98245C18.7528 4.48656 19.1531 4.81423 19.5797 4.81423C19.7798 4.81423 19.9925 4.73862 20.1551 4.57478L20.3052 4.42355C21.0308 3.67999 21.994 3.31451 22.9572 3.31451C23.699 3.31517 24.4239 3.53726 25.0404 3.95275C25.657 4.36824 26.1375 4.95847 26.4213 5.64892C26.705 6.33936 26.7793 7.09904 26.6348 7.832C26.4903 8.56497 26.1334 9.23835 25.6092 9.76709L25.4591 9.91832C24.9462 10.4476 25.309 11.3424 26.047 11.3424H26.2472C28.3237 11.3424 30 13.0312 30 15.1232C30 17.2153 28.3237 18.9041 26.2472 18.9041H26.047C25.309 18.9041 24.9324 19.7988 25.4591 20.3282L25.6092 20.4794C26.312 21.1883 26.7067 22.1492 26.7067 23.1512C26.7067 24.1531 26.312 25.114 25.6092 25.8229C24.8837 26.5665 23.9204 26.932 22.9572 26.932C21.9927 26.932 21.0433 26.5665 20.3052 25.8229L20.1551 25.6717C20.039 25.5576 19.8922 25.4804 19.7328 25.4498C19.5735 25.4193 19.4088 25.4367 19.2592 25.4999C19.1096 25.563 18.9818 25.6692 18.8918 25.8051C18.8017 25.941 18.7534 26.1006 18.7528 26.264V26.4657C18.7528 28.5577 17.0766 30.2465 15 30.2465C12.9234 30.2465 11.2472 28.5577 11.2472 26.4657V26.264C11.2472 25.7599 10.8469 25.4322 10.4203 25.4322C10.2202 25.4322 10.0075 25.5079 9.84488 25.6717L9.69477 25.8229C8.96923 26.5665 8.00601 26.932 7.04278 26.932C6.30103 26.9313 5.5761 26.7092 4.95956 26.2937C4.34302 25.8782 3.86252 25.288 3.57875 24.5976C3.29498 23.9071 3.22067 23.1474 3.3652 22.4145C3.50973 21.6815 3.86662 21.0081 4.39079 20.4794L4.54091 20.3282C5.05379 19.7988 4.69102 18.9041 3.95296 18.9041H3.75281C1.67626 18.9041 0 17.2153 0 15.1232C0 13.0312 1.67626 11.3424 3.75281 11.3424H3.95296C4.69102 11.3424 5.06755 10.4476 4.54091 9.91832L4.39079 9.76709C3.68801 9.05819 3.29327 8.09724 3.29327 7.09532C3.29327 6.0934 3.68801 5.13245 4.39079 4.42355C5.11634 3.67999 6.07956 3.31451 7.04278 3.31451C8.00726 3.31451 8.95672 3.67999 9.69477 4.42355L9.84488 4.57478C9.96095 4.68892 10.1078 4.76608 10.2672 4.79664C10.4265 4.82721 10.5912 4.80981 10.7408 4.74663C10.8904 4.68345 11.0182 4.57728 11.1082 4.44138C11.1983 4.30547 11.2466 4.14586 11.2472 3.98245V3.78081ZM17.5019 3.78081C17.5019 2.39451 16.3748 1.26027 15 1.26027C13.6252 1.26027 12.4981 2.38191 12.4981 3.76821V3.96985C12.4981 5.1167 11.5712 6.0619 10.4216 6.0619C9.87115 6.0619 9.34451 5.83505 8.95797 5.44437L8.80786 5.29313C8.57716 5.05811 8.30248 4.87152 7.99972 4.74418C7.69695 4.61684 7.37212 4.55127 7.04403 4.55127C6.71594 4.55127 6.39111 4.61684 6.08835 4.74418C5.78559 4.87152 5.51091 5.05811 5.28021 5.29313C5.0476 5.52722 4.86306 5.80521 4.73715 6.1112C4.61125 6.41719 4.54644 6.74518 4.54644 7.07642C4.54644 7.40765 4.61125 7.73564 4.73715 8.04163C4.86306 8.34762 5.0476 8.62561 5.28021 8.8597L5.43032 9.01093C6.03077 9.61586 6.20716 10.5107 5.88066 11.292C5.56793 12.0734 4.8036 12.5775 3.96673 12.5775H3.76658C2.39054 12.5775 1.25219 13.7369 1.25219 15.1232C1.25219 16.5095 2.39304 17.6186 3.76658 17.6186H3.96673C4.80611 17.6186 5.55542 18.1227 5.88066 18.9041C6.2059 19.6854 6.03077 20.5802 5.43032 21.1851L5.28021 21.3364C5.0476 21.5705 4.86306 21.8484 4.73715 22.1544C4.61125 22.4604 4.54644 22.7884 4.54644 23.1197C4.54644 23.4509 4.61125 23.7789 4.73715 24.0849C4.86306 24.3909 5.0476 24.6688 5.28021 24.9029C5.51091 25.138 5.78559 25.3245 6.08835 25.4519C6.39111 25.5792 6.71594 25.6448 7.04403 25.6448C7.37212 25.6448 7.69695 25.5792 7.99972 25.4519C8.30248 25.3245 8.57716 25.138 8.80786 24.9029L8.95797 24.7517C9.35827 24.3484 9.87241 24.1342 10.4216 24.1342C11.5612 24.1342 12.4981 25.0668 12.4981 26.2262V26.4279C12.4981 27.8142 13.6252 28.9862 15 28.9862C16.3748 28.9862 17.5019 27.8142 17.5019 26.4279V26.2262C17.5019 25.6339 17.727 25.092 18.1524 24.7013C18.5456 24.3287 19.0676 24.1255 19.6074 24.135C20.1471 24.1444 20.6618 24.3657 21.042 24.7517L21.1921 24.9029C21.4228 25.138 21.6975 25.3245 22.0003 25.4519C22.303 25.5792 22.6279 25.6448 22.956 25.6448C23.2841 25.6448 23.6089 25.5792 23.9117 25.4519C24.2144 25.3245 24.4891 25.138 24.7198 24.9029C25.6968 23.9199 25.6968 22.3194 24.7198 21.3364L24.5697 21.1851C23.9692 20.5802 23.7941 19.6854 24.1193 18.9041C24.4321 18.1227 25.1964 17.6438 26.0333 17.6438H26.2334C27.6095 17.6438 28.7478 16.5095 28.7478 15.1232C28.7478 13.7369 27.607 12.6027 26.2334 12.6027H26.0333C25.1939 12.6027 24.4446 12.0734 24.1193 11.292C23.7941 10.5107 23.9692 9.61586 24.5697 9.01093L24.7198 8.8597C24.9531 8.62728 25.1383 8.35055 25.2647 8.04553C25.3911 7.74051 25.4562 7.41325 25.4562 7.08272C25.4562 6.75218 25.3911 6.42493 25.2647 6.11991C25.1383 5.81488 24.9531 5.53815 24.7198 5.30574C24.4891 5.07071 24.2144 4.88412 23.9117 4.75678C23.6089 4.62944 23.2841 4.56387 22.956 4.56387C22.6279 4.56387 22.303 4.62944 22.0003 4.75678C21.6975 4.88412 21.4228 5.07071 21.1921 5.30574L21.042 5.45697C20.6417 5.86026 20.1276 6.0745 19.5784 6.0745C18.4388 6.0745 17.5019 5.1419 17.5019 3.98245V3.78081Z" fill="#3C3C3B"/>
</svg>
