<svg width="50" height="50" viewBox="0 0 50 50" fill="none" xmlns="http://www.w3.org/2000/svg">
<path d="M42.673 7.32697C38.0485 2.5025 31.6493 -0.0972084 25 0.00278049C18.3507 -0.0972084 11.9764 2.5025 7.35196 7.32697C2.5025 11.9515 -0.0972084 18.3507 0.00278049 25C-0.0972084 31.6493 2.5025 38.0235 7.32697 42.648C11.9515 47.4975 18.3507 50.0972 25 49.9972C31.6493 50.0972 38.0235 47.4975 42.648 42.673C47.4975 38.0485 50.0972 31.6493 49.9972 25C50.0972 18.3507 47.4975 11.9515 42.673 7.32697ZM37.4986 25V39.9983H28.7496V27.4997H21.2504V39.9983H12.5014V25H7.50195L25 7.50195L43.7479 25H37.4986Z" fill="#3C3C3B"/>
</svg>
