<svg width="35" height="35" viewBox="0 0 35 35" fill="none" xmlns="http://www.w3.org/2000/svg">
<path d="M29.8711 5.12888C26.634 1.75175 22.1545 -0.0680459 17.5 0.00194634C12.8455 -0.0680459 8.38351 1.75175 5.14637 5.12888C1.75175 8.36602 -0.0680459 12.8455 0.00194634 17.5C-0.0680459 22.1545 1.75175 26.6165 5.12888 29.8536C8.36602 33.2482 12.8455 35.068 17.5 34.9981C22.1545 35.068 26.6165 33.2482 29.8536 29.8711C33.2482 26.634 35.068 22.1545 34.9981 17.5C35.068 12.8455 33.2482 8.36602 29.8711 5.12888ZM26.249 17.5V27.9988H20.1247V19.2498H14.8753V27.9988H8.75097V17.5H5.25136L17.5 5.25136L30.6235 17.5H26.249Z" fill="#FBFBFB"/>
</svg>
