<svg width="30" height="31" viewBox="0 0 30 31" fill="none" xmlns="http://www.w3.org/2000/svg">
<path d="M19.605 13.989L18.255 15.3803C17.175 16.4692 16.5 17.3917 16.5 19.6602H13.5V18.9041C13.5 17.2254 14.175 15.713 15.255 14.6242L17.115 12.7186C17.67 12.1742 18 11.418 18 10.5863C18 9.78408 17.6839 9.01475 17.1213 8.44752C16.5587 7.88029 15.7956 7.56162 15 7.56162C14.2044 7.56162 13.4413 7.88029 12.8787 8.44752C12.3161 9.01475 12 9.78408 12 10.5863H9C9 8.9819 9.63214 7.44323 10.7574 6.30877C11.8826 5.17431 13.4087 4.53697 15 4.53697C16.5913 4.53697 18.1174 5.17431 19.2426 6.30877C20.3679 7.44323 21 8.9819 21 10.5863C20.9978 11.8615 20.4965 13.0844 19.605 13.989ZM16.5 25.7095H13.5V22.6849H16.5M15 0C13.0302 0 11.0796 0.391174 9.25975 1.15119C7.43986 1.9112 5.78628 3.02517 4.3934 4.42949C1.58035 7.26565 0 11.1123 0 15.1232C0 19.1342 1.58035 22.9808 4.3934 25.817C5.78628 27.2213 7.43986 28.3353 9.25975 29.0953C11.0796 29.8553 13.0302 30.2465 15 30.2465C18.9782 30.2465 22.7936 28.6531 25.6066 25.817C28.4196 22.9808 30 19.1342 30 15.1232C30 6.76009 23.25 0 15 0Z" fill="#3C3C3B"/>
</svg>
