<svg width="42" height="47" viewBox="0 0 42 47" fill="none" xmlns="http://www.w3.org/2000/svg">
<path d="M19.4347 3.69063C18.9162 3.69225 18.3427 3.92486 17.8193 4.44663L8.58092 14.8966H1.61538C0.725308 14.8966 0 15.6219 0 16.5119V29.435C0 30.3251 0.725308 31.0504 1.61538 31.0504H8.58254L17.7692 41.4502C19.3846 43.0656 21 42.2386 21 40.0368V5.65656C21 4.37879 20.3005 3.68256 19.4347 3.6874V3.69063ZM31.1462 6.9214C30.8027 6.98134 30.4877 7.15085 30.2485 7.40459C30.0092 7.65834 29.8585 7.9827 29.8189 8.32919C29.7793 8.67568 29.8529 9.02569 30.0286 9.32691C30.2044 9.62812 30.4729 9.86437 30.7941 10.0003C33.1976 11.2081 35.217 13.0617 36.6257 15.3533C38.0345 17.6448 38.7767 20.2836 38.7692 22.9735C38.7692 28.6661 35.5385 33.5543 30.7925 35.9466C30.5765 36.0218 30.3789 36.1419 30.2129 36.2991C30.0468 36.4563 29.916 36.647 29.8291 36.8585C29.7422 37.07 29.7012 37.2976 29.7088 37.5262C29.7164 37.7547 29.7725 37.979 29.8733 38.1843C29.9741 38.3896 30.1173 38.5711 30.2935 38.7169C30.4697 38.8626 30.6748 38.9694 30.8953 39.03C31.1158 39.0905 31.3467 39.1036 31.5726 39.0683C31.7985 39.0331 32.0144 38.9502 32.2059 38.8252C38.01 35.8966 42 29.9002 42 22.9735C42 16.0467 38.0084 10.0504 32.2059 7.12171C31.9295 6.96742 31.6138 6.89777 31.2981 6.9214C31.2475 6.91902 31.1968 6.91902 31.1462 6.9214ZM27.3097 13.1794C26.9619 13.2049 26.6316 13.3424 26.3684 13.5711C26.1052 13.7999 25.923 14.1077 25.8492 14.4486C25.7754 14.7894 25.8139 15.145 25.9589 15.4622C26.104 15.7794 26.3477 16.0411 26.6538 16.2082C29.1464 17.7574 30.6923 20.2112 30.6923 22.9735C30.6923 25.7552 29.1222 28.2412 26.6038 29.7888C26.4059 29.892 26.2316 30.0351 26.0918 30.209C25.952 30.383 25.8498 30.584 25.7915 30.7994C25.7333 31.0148 25.7203 31.2399 25.7534 31.4606C25.7865 31.6813 25.865 31.8927 25.9839 32.0816C26.1027 32.2704 26.2595 32.4326 26.4441 32.5579C26.6288 32.6831 26.8374 32.7688 27.0569 32.8094C27.2763 32.85 27.5018 32.8447 27.719 32.7939C27.9363 32.743 28.1407 32.6477 28.3193 32.5139C31.6632 30.4624 33.9231 26.9732 33.9231 22.9735C33.9231 18.998 31.6825 15.4894 28.3694 13.433C28.0987 13.2601 27.7826 13.1718 27.4615 13.1794C27.411 13.177 27.3603 13.177 27.3097 13.1794Z" fill="#3C3C3B"/>
<path d="M38.4734 43.7216L2.7481 2.50003" stroke="#FF0000" stroke-width="5" stroke-linecap="round"/>
</svg>
