<svg width="42" height="42" viewBox="0 0 42 42" fill="none" xmlns="http://www.w3.org/2000/svg">
<path d="M19.4347 1.71715C18.9162 1.71877 18.3427 1.95138 17.8193 2.47315L8.58092 12.9231H1.61538C0.725308 12.9231 0 13.6484 0 14.5385V27.4615C0 28.3516 0.725308 29.0769 1.61538 29.0769H8.58254L17.7692 39.4768C19.3846 41.0922 21 40.2651 21 38.0633V3.68308C21 2.40531 20.3005 1.70908 19.4347 1.71392V1.71715ZM31.1462 4.94792C30.8027 5.00786 30.4877 5.17737 30.2485 5.43111C30.0092 5.68486 29.8585 6.00922 29.8189 6.35571C29.7793 6.7022 29.8529 7.05221 30.0286 7.35343C30.2044 7.65464 30.4729 7.89089 30.7941 8.02685C33.1976 9.23459 35.217 11.0882 36.6257 13.3798C38.0345 15.6713 38.7767 18.3101 38.7692 21C38.7692 26.6926 35.5385 31.5808 30.7925 33.9732C30.5765 34.0483 30.3789 34.1684 30.2129 34.3256C30.0468 34.4828 29.916 34.6735 29.8291 34.885C29.7422 35.0966 29.7012 35.3241 29.7088 35.5527C29.7164 35.7812 29.7725 36.0055 29.8733 36.2108C29.9741 36.4161 30.1173 36.5976 30.2935 36.7434C30.4697 36.8892 30.6748 36.9959 30.8953 37.0565C31.1158 37.1171 31.3467 37.1301 31.5726 37.0949C31.7985 37.0596 32.0144 36.9767 32.2059 36.8518C38.01 33.9231 42 27.9268 42 21C42 14.0732 38.0084 8.07692 32.2059 5.14823C31.9295 4.99394 31.6138 4.92429 31.2981 4.94792C31.2475 4.94554 31.1968 4.94554 31.1462 4.94792ZM27.3097 11.2059C26.9619 11.2315 26.6316 11.3689 26.3684 11.5977C26.1052 11.8264 25.923 12.1342 25.8492 12.4751C25.7754 12.816 25.8139 13.1716 25.9589 13.4887C26.104 13.8059 26.3477 14.0676 26.6538 14.2348C29.1464 15.7839 30.6923 18.2377 30.6923 21C30.6923 23.7817 29.1222 26.2678 26.6038 27.8153C26.4059 27.9185 26.2316 28.0616 26.0918 28.2355C25.952 28.4095 25.8498 28.6105 25.7915 28.8259C25.7333 29.0413 25.7203 29.2665 25.7534 29.4872C25.7865 29.7078 25.865 29.9193 25.9839 30.1081C26.1027 30.297 26.2595 30.4591 26.4441 30.5844C26.6288 30.7097 26.8375 30.7953 27.0569 30.8359C27.2763 30.8765 27.5018 30.8713 27.719 30.8204C27.9363 30.7696 28.1407 30.6742 28.3193 30.5405C31.6632 28.4889 33.9231 24.9997 33.9231 21C33.9231 17.0245 31.6825 13.5159 28.3694 11.4595C28.0987 11.2866 27.7826 11.1983 27.4615 11.2059C27.4109 11.2035 27.3603 11.2035 27.3097 11.2059Z" fill="#3C3C3B"/>
</svg>
