<svg width="393" height="852" viewBox="0 0 393 852" fill="none" xmlns="http://www.w3.org/2000/svg">
<g opacity="0.4">
<mask id="mask0_55_16871" style="mask-type:luminance" maskUnits="userSpaceOnUse" x="0" y="0" width="393" height="851">
<path d="M0.140625 0H392.526V850.667H0.140625V0Z" fill="white"/>
</mask>
<g mask="url(#mask0_55_16871)">
<path d="M0.140625 0H392.526V850.667H0.140625V0Z" fill="white"/>
<path d="M0.140625 0H392.526V850.667H0.140625V0Z" fill="#A67F6F"/>
</g>
<mask id="mask1_55_16871" style="mask-type:luminance" maskUnits="userSpaceOnUse" x="14" y="242" width="85" height="65">
<path d="M14.6666 242.667H98.6666V306.667H14.6666V242.667Z" fill="white"/>
</mask>
<g mask="url(#mask1_55_16871)">
<mask id="mask2_55_16871" style="mask-type:luminance" maskUnits="userSpaceOnUse" x="11" y="239" width="91" height="71">
<path d="M11.5625 271.635L84.5573 239.203L101.583 277.526L28.5938 309.958L11.5625 271.635Z" fill="white"/>
</mask>
<g mask="url(#mask2_55_16871)">
<mask id="mask3_55_16871" style="mask-type:luminance" maskUnits="userSpaceOnUse" x="11" y="239" width="91" height="71">
<path d="M11.5625 271.635L84.5573 239.203L101.583 277.526L28.5938 309.958L11.5625 271.635Z" fill="white"/>
</mask>
<g mask="url(#mask3_55_16871)">
<path d="M96.1719 265.828C98.526 270.026 98.526 273.948 96.1771 277.573C92.7135 282.901 84.8333 283.891 80.1823 279.661C79.375 278.927 78.5521 278.083 77.7292 277.135C77.6042 276.984 77.4375 276.891 77.2604 276.844C76.6302 276.688 76.0052 276.734 75.4062 277C71.7083 278.583 62.0156 282.927 46.3021 290.016C44.5781 290.797 44.2552 291.594 44.3229 293.401C44.3958 295.297 44.5 297.063 44.0989 298.401C42.3229 304.276 35.6146 307.37 30.0156 305.047C29.3594 304.776 28.7344 304.432 28.125 304.021C22.6094 300.24 22.3802 294.875 24.2187 288.979C24.2708 288.823 24.1771 288.635 24.0156 288.573C22.276 287.969 20.8542 287.25 19.7656 286.417C15.2656 282.938 13.8229 277.198 16.3333 272.198C18.3229 268.255 23.4375 265.375 27.9687 266.151C31.4375 266.745 33.2239 268.552 35.75 270.948C36.0885 271.276 36.5937 271.365 37.026 271.188C45.1823 267.844 54.401 263.844 64.6771 259.156C66.8698 258.146 68.5677 257.5 68.5469 255.318C68.5417 253.224 68.4479 251.859 68.901 250.302C70.4219 245.146 75.5989 242.25 80.7708 242.927C80.8333 242.932 80.9114 242.948 80.9739 242.953C87.1719 243.906 90.8542 250.036 90.0833 256.224C89.9427 257.354 89.4219 258.573 89.0104 259.938C88.8906 260.307 89.0781 260.698 89.4375 260.854C92.3177 262.047 94.5677 262.974 96.1667 265.828H96.1719Z" fill="#543026"/>
</g>
</g>
</g>
<mask id="mask4_55_16871" style="mask-type:luminance" maskUnits="userSpaceOnUse" x="29" y="242" width="70" height="65">
<path d="M29.3334 242.667H98.6667V306.667H29.3334V242.667Z" fill="white"/>
</mask>
<g mask="url(#mask4_55_16871)">
<mask id="mask5_55_16871" style="mask-type:luminance" maskUnits="userSpaceOnUse" x="11" y="239" width="91" height="71">
<path d="M11.5625 271.635L84.5573 239.203L101.583 277.526L28.5938 309.958L11.5625 271.635Z" fill="white"/>
</mask>
<g mask="url(#mask5_55_16871)">
<mask id="mask6_55_16871" style="mask-type:luminance" maskUnits="userSpaceOnUse" x="11" y="239" width="91" height="71">
<path d="M11.5625 271.635L84.5573 239.203L101.583 277.526L28.5938 309.958L11.5625 271.635Z" fill="white"/>
</mask>
<g mask="url(#mask6_55_16871)">
<path d="M96.1719 265.828C98.526 270.026 98.526 273.948 96.1771 277.573C92.7136 282.901 84.8333 283.891 80.1823 279.661C79.375 278.927 78.5521 278.083 77.7292 277.135C77.6042 276.984 77.4375 276.891 77.2604 276.844C76.6302 276.688 76.0052 276.734 75.4063 277C71.7083 278.583 62.0156 282.927 46.3021 290.016C44.5781 290.797 44.2552 291.594 44.3229 293.401C44.3958 295.297 44.5 297.063 44.099 298.401C42.3229 304.276 35.6146 307.37 30.0156 305.047C31.2396 304.505 32.651 303.938 33.7865 303.661C34.2552 303.49 34.7135 303.287 35.1354 303.026C44.3906 297.271 34.9531 289.323 48.7083 284.797C55.7083 281.943 62.9427 278.63 70.6146 274.854C72.3906 274.021 74.2708 273.245 76.2135 273.198C80.0052 273.047 83.2083 276.339 87.0573 275.271C92.6198 274.115 93.849 267.016 88.4479 264.646C87.125 264.005 85.3177 263.932 84.0781 263.25C82.4427 262.286 84.0052 260.542 84.7031 259.37C85.6198 258.063 86.2917 256.557 86.5365 254.964C87.125 251.578 85.8542 247.901 83.3229 245.432C83.3229 245.432 83.2813 245.391 83.1979 245.318C82.5365 244.734 81.8333 244.083 81.526 243.641C81.3333 243.422 81.1458 243.198 80.9792 242.958C87.1719 243.906 90.8594 250.036 90.0886 256.224C89.9479 257.359 89.4271 258.573 89.0104 259.943C88.8958 260.307 89.0833 260.698 89.4427 260.859C92.3229 262.052 94.5729 262.974 96.1719 265.833V265.828Z" fill="#F3EBE1"/>
</g>
</g>
</g>
<mask id="mask7_55_16871" style="mask-type:luminance" maskUnits="userSpaceOnUse" x="5" y="446" width="85" height="66">
<path d="M5.33337 446.667H89.3334V512H5.33337V446.667Z" fill="white"/>
</mask>
<g mask="url(#mask7_55_16871)">
<mask id="mask8_55_16871" style="mask-type:luminance" maskUnits="userSpaceOnUse" x="2" y="444" width="91" height="72">
<path d="M2.42188 476.698L75.4167 444.266L92.4427 482.589L19.4479 515.021L2.42188 476.698Z" fill="white"/>
</mask>
<g mask="url(#mask8_55_16871)">
<mask id="mask9_55_16871" style="mask-type:luminance" maskUnits="userSpaceOnUse" x="2" y="444" width="91" height="72">
<path d="M2.42188 476.698L75.4167 444.266L92.4427 482.589L19.4479 515.021L2.42188 476.698Z" fill="white"/>
</mask>
<g mask="url(#mask9_55_16871)">
<path d="M87.0261 470.891C89.3802 475.088 89.3802 479.01 87.0365 482.635C83.5677 487.963 75.6927 488.953 71.0365 484.724C70.2344 483.984 69.4115 483.146 68.5886 482.198C68.4584 482.047 68.2917 481.948 68.1146 481.906C67.4844 481.75 66.8594 481.797 66.2604 482.062C62.5677 483.641 52.8698 487.99 37.1615 495.078C35.4375 495.854 35.1094 496.656 35.1823 498.463C35.2552 500.354 35.3594 502.125 34.9531 503.458C33.1823 509.338 26.474 512.427 20.875 510.109C20.2188 509.838 19.5938 509.495 18.9844 509.083C13.4636 505.302 13.2396 499.932 15.0781 494.042C15.125 493.885 15.0313 493.698 14.8698 493.635C13.1302 493.031 11.7136 492.307 10.625 491.479C6.11982 488 4.67711 482.26 7.19273 477.255C9.18232 473.318 14.2917 470.437 18.8281 471.213C22.2917 471.802 24.0834 473.615 26.6094 476.01C26.9479 476.338 27.4531 476.427 27.8802 476.25C36.0365 472.906 45.2552 468.906 55.5313 464.219C57.7292 463.208 59.4219 462.562 59.4063 460.38C59.4011 458.286 59.3021 456.922 59.7552 455.365C61.2761 450.208 66.4532 447.312 71.625 447.984C71.6927 447.995 71.7709 448.005 71.8334 448.016C78.0261 448.963 81.7136 455.099 80.9427 461.281C80.8021 462.417 80.2813 463.635 79.8646 465C79.75 465.37 79.9323 465.76 80.2969 465.917C83.1771 467.109 85.4271 468.036 87.0261 470.891Z" fill="#543026"/>
</g>
</g>
</g>
<mask id="mask10_55_16871" style="mask-type:luminance" maskUnits="userSpaceOnUse" x="20" y="448" width="70" height="64">
<path d="M20 448H89.3333V512H20V448Z" fill="white"/>
</mask>
<g mask="url(#mask10_55_16871)">
<mask id="mask11_55_16871" style="mask-type:luminance" maskUnits="userSpaceOnUse" x="2" y="444" width="91" height="72">
<path d="M2.42188 476.698L75.4167 444.266L92.4427 482.589L19.4479 515.021L2.42188 476.698Z" fill="white"/>
</mask>
<g mask="url(#mask11_55_16871)">
<mask id="mask12_55_16871" style="mask-type:luminance" maskUnits="userSpaceOnUse" x="2" y="444" width="91" height="72">
<path d="M2.42188 476.698L75.4167 444.266L92.4427 482.589L19.4479 515.021L2.42188 476.698Z" fill="white"/>
</mask>
<g mask="url(#mask12_55_16871)">
<path d="M87.026 470.891C89.3802 475.089 89.3802 479.01 87.0365 482.635C83.5677 487.964 75.6927 488.953 71.0365 484.724C70.2344 483.984 69.4115 483.146 68.5885 482.198C68.4583 482.047 68.2917 481.948 68.1146 481.906C67.4844 481.75 66.8594 481.797 66.2604 482.062C62.5677 483.641 52.8698 487.99 37.1615 495.078C35.4375 495.854 35.1094 496.656 35.1823 498.464C35.2552 500.354 35.3594 502.125 34.9531 503.458C33.1823 509.339 26.474 512.427 20.875 510.109C22.0937 509.563 23.5104 509 24.6406 508.724C25.1146 508.552 25.5729 508.349 25.9948 508.089C35.2448 502.333 25.8073 494.385 39.5677 489.859C46.5625 487.005 53.7969 483.693 61.474 479.917C63.2448 479.078 65.1302 478.307 67.0677 478.26C70.8594 478.109 74.0625 481.396 77.9115 480.333C83.474 479.177 84.7083 472.078 79.3021 469.708C77.9844 469.062 76.1719 468.995 74.9323 468.312C73.2969 467.349 74.8646 465.604 75.5625 464.432C76.4792 463.125 77.1458 461.62 77.3906 460.026C77.9792 456.635 76.7083 452.964 74.1771 450.495C74.1771 450.495 74.1354 450.453 74.0573 450.38C73.3958 449.797 72.6927 449.146 72.3854 448.698C72.1875 448.479 72.0052 448.26 71.8385 448.016C78.0313 448.969 81.7135 455.099 80.9479 461.286C80.8021 462.417 80.2865 463.635 79.8698 465C79.7552 465.37 79.9375 465.76 80.3021 465.917C83.1823 467.109 85.4271 468.036 87.026 470.896V470.891Z" fill="#F3EBE1"/>
</g>
</g>
</g>
<mask id="mask13_55_16871" style="mask-type:luminance" maskUnits="userSpaceOnUse" x="2" y="669" width="85" height="65">
<path d="M2.66663 669.333H86.6666V733.333H2.66663V669.333Z" fill="white"/>
</mask>
<g mask="url(#mask13_55_16871)">
<mask id="mask14_55_16871" style="mask-type:luminance" maskUnits="userSpaceOnUse" x="0" y="666" width="91" height="71">
<path d="M0.140625 698.531L73.1354 666.099L90.1615 704.422L17.1667 736.854L0.140625 698.531Z" fill="white"/>
</mask>
<g mask="url(#mask14_55_16871)">
<mask id="mask15_55_16871" style="mask-type:luminance" maskUnits="userSpaceOnUse" x="0" y="666" width="91" height="71">
<path d="M0.140625 698.531L73.1354 666.099L90.1615 704.422L17.1667 736.854L0.140625 698.531Z" fill="white"/>
</mask>
<g mask="url(#mask15_55_16871)">
<path d="M84.75 692.724C87.1042 696.922 87.1042 700.844 84.7552 704.469C81.2917 709.797 73.4114 710.786 68.7604 706.557C67.9531 705.823 67.1302 704.979 66.3073 704.031C66.1771 703.88 66.0156 703.786 65.8385 703.74C65.2083 703.583 64.5833 703.63 63.9844 703.896C60.2864 705.474 50.5937 709.823 34.8802 716.911C33.1562 717.693 32.8333 718.49 32.901 720.297C32.9739 722.193 33.0781 723.958 32.6771 725.297C30.901 731.172 24.1927 734.266 18.5937 731.943C17.9375 731.672 17.3125 731.328 16.7031 730.917C11.1875 727.135 10.9583 721.771 12.7969 715.875C12.8489 715.719 12.75 715.531 12.5937 715.469C10.8489 714.865 9.43228 714.141 8.34374 713.312C3.84374 709.833 2.40103 704.094 4.91145 699.094C6.90103 695.151 12.0156 692.271 16.5469 693.047C20.0104 693.641 21.8021 695.448 24.3281 697.844C24.6667 698.172 25.1719 698.26 25.6042 698.083C33.7604 694.74 42.9792 690.74 53.2552 686.052C55.4479 685.042 57.1458 684.396 57.125 682.214C57.1198 680.12 57.026 678.755 57.4792 677.198C59 672.042 64.1771 669.146 69.3489 669.818C69.4114 669.828 69.4896 669.844 69.5521 669.849C75.7448 670.802 79.4323 676.932 78.6614 683.115C78.5208 684.25 78 685.469 77.5885 686.833C77.4687 687.203 77.6562 687.594 78.0156 687.75C80.8958 688.943 83.1458 689.87 84.7448 692.724H84.75Z" fill="#543026"/>
</g>
</g>
</g>
<mask id="mask16_55_16871" style="mask-type:luminance" maskUnits="userSpaceOnUse" x="17" y="669" width="70" height="65">
<path d="M17.3334 669.333H86.6667V733.333H17.3334V669.333Z" fill="white"/>
</mask>
<g mask="url(#mask16_55_16871)">
<mask id="mask17_55_16871" style="mask-type:luminance" maskUnits="userSpaceOnUse" x="0" y="666" width="91" height="71">
<path d="M0.140625 698.531L73.1354 666.099L90.1615 704.422L17.1667 736.854L0.140625 698.531Z" fill="white"/>
</mask>
<g mask="url(#mask17_55_16871)">
<mask id="mask18_55_16871" style="mask-type:luminance" maskUnits="userSpaceOnUse" x="0" y="666" width="91" height="71">
<path d="M0.140625 698.531L73.1354 666.099L90.1615 704.422L17.1667 736.854L0.140625 698.531Z" fill="white"/>
</mask>
<g mask="url(#mask18_55_16871)">
<path d="M84.75 692.724C87.1042 696.922 87.1042 700.844 84.7552 704.469C81.2917 709.797 73.4115 710.786 68.7604 706.557C67.9531 705.823 67.1302 704.979 66.3073 704.031C66.1771 703.88 66.0156 703.786 65.8385 703.74C65.2083 703.583 64.5833 703.63 63.9844 703.896C60.2865 705.474 50.5938 709.823 34.8802 716.911C33.1563 717.693 32.8333 718.49 32.901 720.297C32.974 722.193 33.0781 723.958 32.6771 725.297C30.901 731.172 24.1927 734.266 18.5938 731.943C19.8177 731.401 21.2292 730.833 22.3646 730.557C22.8333 730.385 23.2917 730.182 23.7135 729.922C32.9688 724.167 23.5313 716.219 37.2865 711.693C44.2865 708.838 51.5208 705.526 59.1927 701.75C60.9688 700.911 62.849 700.141 64.7917 700.094C68.5833 699.943 71.7865 703.229 75.6354 702.167C81.1979 701.01 82.4271 693.911 77.026 691.542C75.7031 690.896 73.8958 690.828 72.6563 690.146C71.0208 689.182 72.5833 687.437 73.2813 686.266C74.1979 684.958 74.8698 683.453 75.1094 681.859C75.6979 678.469 74.4323 674.797 71.901 672.328C71.901 672.328 71.8594 672.286 71.776 672.213C71.1146 671.63 70.4115 670.979 70.1042 670.531C69.9115 670.318 69.724 670.094 69.5573 669.849C75.75 670.802 79.4375 676.932 78.6667 683.12C78.526 684.255 78.0052 685.469 77.5886 686.833C77.474 687.203 77.6615 687.594 78.0208 687.75C80.9011 688.943 83.151 689.87 84.75 692.729V692.724Z" fill="#F3EBE1"/>
</g>
</g>
</g>
<mask id="mask19_55_16871" style="mask-type:luminance" maskUnits="userSpaceOnUse" x="126" y="569" width="85" height="66">
<path d="M126.667 569.333H210.667V634.667H126.667V569.333Z" fill="white"/>
</mask>
<g mask="url(#mask19_55_16871)">
<mask id="mask20_55_16871" style="mask-type:luminance" maskUnits="userSpaceOnUse" x="124" y="566" width="91" height="72">
<path d="M124.047 599.318L197.042 566.885L214.068 605.208L141.073 637.635L124.047 599.318Z" fill="white"/>
</mask>
<g mask="url(#mask20_55_16871)">
<mask id="mask21_55_16871" style="mask-type:luminance" maskUnits="userSpaceOnUse" x="124" y="566" width="91" height="72">
<path d="M124.047 599.318L197.042 566.885L214.068 605.208L141.073 637.635L124.047 599.318Z" fill="white"/>
</mask>
<g mask="url(#mask21_55_16871)">
<path d="M208.656 593.51C211.01 597.708 211.01 601.63 208.661 605.255C205.198 610.583 197.318 611.573 192.667 607.344C191.859 606.604 191.036 605.766 190.214 604.818C190.089 604.667 189.922 604.568 189.745 604.526C189.115 604.37 188.49 604.417 187.891 604.682C184.193 606.26 174.5 610.609 158.786 617.698C157.062 618.474 156.74 619.276 156.807 621.083C156.88 622.974 156.984 624.745 156.583 626.078C154.807 631.958 148.099 635.047 142.5 632.724C141.844 632.458 141.219 632.114 140.609 631.703C135.094 627.922 134.865 622.552 136.703 616.661C136.755 616.505 136.656 616.318 136.5 616.255C134.755 615.651 133.339 614.927 132.25 614.099C127.75 610.62 126.307 604.88 128.818 599.875C130.807 595.937 135.922 593.057 140.453 593.833C143.917 594.422 145.708 596.234 148.234 598.63C148.573 598.958 149.078 599.047 149.51 598.87C157.667 595.526 166.885 591.526 177.161 586.838C179.354 585.828 181.052 585.182 181.031 583C181.026 580.906 180.932 579.536 181.385 577.984C182.906 572.828 188.083 569.932 193.255 570.604C193.318 570.614 193.396 570.625 193.458 570.635C199.651 571.583 203.339 577.713 202.568 583.901C202.427 585.036 201.906 586.255 201.495 587.62C201.375 587.989 201.562 588.38 201.922 588.536C204.802 589.729 207.052 590.656 208.651 593.51H208.656Z" fill="#543026"/>
</g>
</g>
</g>
<mask id="mask22_55_16871" style="mask-type:luminance" maskUnits="userSpaceOnUse" x="141" y="569" width="70" height="66">
<path d="M141.333 569.333H210.667V634.667H141.333V569.333Z" fill="white"/>
</mask>
<g mask="url(#mask22_55_16871)">
<mask id="mask23_55_16871" style="mask-type:luminance" maskUnits="userSpaceOnUse" x="124" y="566" width="91" height="72">
<path d="M124.047 599.318L197.042 566.885L214.068 605.208L141.073 637.635L124.047 599.318Z" fill="white"/>
</mask>
<g mask="url(#mask23_55_16871)">
<mask id="mask24_55_16871" style="mask-type:luminance" maskUnits="userSpaceOnUse" x="124" y="566" width="91" height="72">
<path d="M124.047 599.318L197.042 566.885L214.068 605.208L141.073 637.635L124.047 599.318Z" fill="white"/>
</mask>
<g mask="url(#mask24_55_16871)">
<path d="M208.656 593.51C211.01 597.708 211.01 601.63 208.661 605.255C205.198 610.583 197.318 611.573 192.667 607.344C191.859 606.604 191.036 605.766 190.214 604.818C190.089 604.667 189.922 604.568 189.745 604.526C189.115 604.37 188.49 604.417 187.891 604.682C184.193 606.26 174.5 610.609 158.786 617.698C157.063 618.474 156.74 619.276 156.807 621.083C156.88 622.974 156.984 624.745 156.583 626.078C154.807 631.958 148.099 635.047 142.5 632.724C143.724 632.182 145.135 631.615 146.271 631.344C146.74 631.172 147.198 630.969 147.62 630.708C156.875 624.953 147.438 617.005 161.193 612.474C168.193 609.62 175.427 606.312 183.099 602.536C184.875 601.698 186.755 600.927 188.698 600.88C192.49 600.729 195.693 604.016 199.542 602.953C205.104 601.797 206.333 594.698 200.932 592.328C199.609 591.682 197.802 591.609 196.563 590.932C194.927 589.969 196.49 588.224 197.188 587.052C198.104 585.74 198.776 584.24 199.016 582.646C199.604 579.255 198.339 575.583 195.807 573.115C195.807 573.115 195.766 573.073 195.682 573C195.021 572.417 194.318 571.766 194.01 571.318C193.818 571.099 193.63 570.88 193.464 570.635C199.656 571.589 203.344 577.719 202.573 583.906C202.432 585.036 201.911 586.255 201.495 587.62C201.38 587.99 201.568 588.38 201.927 588.536C204.807 589.729 207.057 590.656 208.656 593.51Z" fill="#F3EBE1"/>
</g>
</g>
</g>
<mask id="mask25_55_16871" style="mask-type:luminance" maskUnits="userSpaceOnUse" x="132" y="356" width="84" height="66">
<path d="M132 356H216V421.333H132V356Z" fill="white"/>
</mask>
<g mask="url(#mask25_55_16871)">
<mask id="mask26_55_16871" style="mask-type:luminance" maskUnits="userSpaceOnUse" x="129" y="353" width="91" height="72">
<path d="M129.13 385.88L202.125 353.448L219.151 391.771L146.156 424.203L129.13 385.88Z" fill="white"/>
</mask>
<g mask="url(#mask26_55_16871)">
<mask id="mask27_55_16871" style="mask-type:luminance" maskUnits="userSpaceOnUse" x="129" y="353" width="91" height="72">
<path d="M129.13 385.88L202.125 353.448L219.151 391.771L146.156 424.203L129.13 385.88Z" fill="white"/>
</mask>
<g mask="url(#mask27_55_16871)">
<path d="M213.734 380.073C216.089 384.276 216.089 388.193 213.745 391.818C210.276 397.146 202.401 398.135 197.745 393.911C196.943 393.172 196.12 392.328 195.297 391.38C195.167 391.229 195.005 391.135 194.828 391.094C194.193 390.932 193.573 390.979 192.969 391.245C189.276 392.828 179.578 397.172 163.87 404.26C162.146 405.042 161.818 405.844 161.891 407.651C161.964 409.542 162.068 411.307 161.662 412.646C159.891 418.521 153.182 421.615 147.583 419.292C146.927 419.021 146.302 418.682 145.693 418.271C140.177 414.484 139.948 409.12 141.787 403.224C141.839 403.068 141.74 402.88 141.578 402.818C139.839 402.214 138.422 401.495 137.333 400.661C132.828 397.182 131.391 391.443 133.901 386.443C135.891 382.5 141.005 379.625 145.537 380.396C149 380.99 150.792 382.797 153.318 385.198C153.656 385.521 154.162 385.609 154.589 385.432C162.75 382.089 171.969 378.089 182.245 373.401C184.438 372.391 186.135 371.745 186.115 369.562C186.109 367.474 186.01 366.104 186.469 364.547C187.984 359.391 193.167 356.495 198.333 357.172C198.401 357.177 198.479 357.193 198.542 357.198C204.734 358.151 208.422 364.281 207.651 370.469C207.51 371.599 206.99 372.818 206.573 374.182C206.458 374.552 206.646 374.943 207.005 375.099C209.885 376.292 212.135 377.219 213.734 380.078V380.073Z" fill="#543026"/>
</g>
</g>
</g>
<mask id="mask28_55_16871" style="mask-type:luminance" maskUnits="userSpaceOnUse" x="146" y="356" width="70" height="66">
<path d="M146.667 356H216V421.333H146.667V356Z" fill="white"/>
</mask>
<g mask="url(#mask28_55_16871)">
<mask id="mask29_55_16871" style="mask-type:luminance" maskUnits="userSpaceOnUse" x="129" y="353" width="91" height="72">
<path d="M129.13 385.88L202.125 353.448L219.151 391.771L146.156 424.203L129.13 385.88Z" fill="white"/>
</mask>
<g mask="url(#mask29_55_16871)">
<mask id="mask30_55_16871" style="mask-type:luminance" maskUnits="userSpaceOnUse" x="129" y="353" width="91" height="72">
<path d="M129.13 385.88L202.125 353.448L219.151 391.771L146.156 424.203L129.13 385.88Z" fill="white"/>
</mask>
<g mask="url(#mask30_55_16871)">
<path d="M213.734 380.073C216.088 384.276 216.088 388.193 213.745 391.818C210.276 397.146 202.401 398.135 197.745 393.911C196.943 393.172 196.12 392.328 195.297 391.38C195.167 391.229 195.005 391.135 194.828 391.094C194.193 390.932 193.573 390.979 192.969 391.245C189.276 392.828 179.578 397.172 163.87 404.26C162.146 405.042 161.818 405.844 161.891 407.651C161.963 409.542 162.068 411.307 161.661 412.646C159.891 418.521 153.182 421.615 147.583 419.292C148.802 418.75 150.219 418.182 151.354 417.906C151.823 417.734 152.281 417.531 152.703 417.271C161.953 411.516 152.521 403.568 166.276 399.042C173.276 396.188 180.51 392.875 188.182 389.099C189.953 388.266 191.838 387.49 193.776 387.443C197.573 387.292 200.776 390.583 204.625 389.516C210.182 388.359 211.417 381.266 206.016 378.891C204.693 378.25 202.885 378.177 201.646 377.495C200.01 376.531 201.573 374.786 202.271 373.615C203.187 372.307 203.859 370.802 204.099 369.214C204.687 365.823 203.422 362.146 200.885 359.682C200.885 359.682 200.844 359.635 200.766 359.562C200.104 358.984 199.401 358.333 199.094 357.885C198.896 357.667 198.713 357.443 198.547 357.203C204.74 358.151 208.427 364.281 207.656 370.469C207.516 371.604 206.995 372.818 206.578 374.188C206.463 374.552 206.646 374.948 207.01 375.104C209.891 376.297 212.141 377.219 213.74 380.078L213.734 380.073Z" fill="#F3EBE1"/>
</g>
</g>
</g>
<mask id="mask31_55_16871" style="mask-type:luminance" maskUnits="userSpaceOnUse" x="134" y="160" width="85" height="64">
<path d="M134.667 160H218.667V224H134.667V160Z" fill="white"/>
</mask>
<g mask="url(#mask31_55_16871)">
<mask id="mask32_55_16871" style="mask-type:luminance" maskUnits="userSpaceOnUse" x="132" y="156" width="91" height="72">
<path d="M132.052 188.922L205.047 156.49L222.073 194.813L149.078 227.24L132.052 188.922Z" fill="white"/>
</mask>
<g mask="url(#mask32_55_16871)">
<mask id="mask33_55_16871" style="mask-type:luminance" maskUnits="userSpaceOnUse" x="132" y="156" width="91" height="72">
<path d="M132.052 188.922L205.047 156.49L222.073 194.813L149.078 227.24L132.052 188.922Z" fill="white"/>
</mask>
<g mask="url(#mask33_55_16871)">
<path d="M216.656 183.115C219.01 187.312 219.01 191.234 216.667 194.859C213.198 200.187 205.323 201.177 200.667 196.948C199.865 196.208 199.042 195.37 198.219 194.422C198.088 194.271 197.927 194.172 197.75 194.13C197.12 193.974 196.495 194.021 195.891 194.286C192.198 195.865 182.5 200.214 166.792 207.302C165.068 208.078 164.74 208.88 164.812 210.687C164.885 212.578 164.99 214.349 164.588 215.682C162.812 221.562 156.104 224.651 150.505 222.328C149.849 222.062 149.224 221.719 148.615 221.307C143.099 217.526 142.87 212.156 144.708 206.266C144.76 206.109 144.661 205.922 144.5 205.859C142.76 205.255 141.344 204.531 140.255 203.703C135.75 200.224 134.312 194.484 136.823 189.479C138.812 185.542 143.927 182.661 148.458 183.437C151.922 184.026 153.713 185.839 156.24 188.234C156.578 188.557 157.083 188.651 157.51 188.474C165.672 185.13 174.891 181.13 185.167 176.443C187.359 175.432 189.057 174.786 189.036 172.604C189.031 170.51 188.937 169.141 189.391 167.589C190.906 162.432 196.088 159.536 201.255 160.208C201.323 160.219 201.401 160.229 201.463 160.24C207.656 161.187 211.344 167.318 210.573 173.505C210.432 174.641 209.911 175.859 209.495 177.224C209.38 177.594 209.568 177.984 209.927 178.141C212.807 179.333 215.057 180.26 216.656 183.115Z" fill="#543026"/>
</g>
</g>
</g>
<mask id="mask34_55_16871" style="mask-type:luminance" maskUnits="userSpaceOnUse" x="149" y="160" width="70" height="64">
<path d="M149.333 160H218.667V224H149.333V160Z" fill="white"/>
</mask>
<g mask="url(#mask34_55_16871)">
<mask id="mask35_55_16871" style="mask-type:luminance" maskUnits="userSpaceOnUse" x="132" y="156" width="91" height="72">
<path d="M132.052 188.922L205.047 156.49L222.073 194.813L149.078 227.24L132.052 188.922Z" fill="white"/>
</mask>
<g mask="url(#mask35_55_16871)">
<mask id="mask36_55_16871" style="mask-type:luminance" maskUnits="userSpaceOnUse" x="132" y="156" width="91" height="72">
<path d="M132.052 188.922L205.047 156.49L222.073 194.813L149.078 227.24L132.052 188.922Z" fill="white"/>
</mask>
<g mask="url(#mask36_55_16871)">
<path d="M216.656 183.115C219.01 187.313 219.01 191.234 216.667 194.859C213.198 200.188 205.323 201.177 200.667 196.948C199.865 196.208 199.042 195.37 198.219 194.422C198.089 194.271 197.927 194.172 197.75 194.13C197.12 193.974 196.495 194.021 195.891 194.286C192.198 195.865 182.5 200.214 166.792 207.302C165.068 208.078 164.74 208.88 164.813 210.688C164.885 212.578 164.99 214.349 164.589 215.682C162.813 221.563 156.104 224.651 150.505 222.328C151.724 221.786 153.141 221.219 154.276 220.948C154.745 220.776 155.203 220.573 155.625 220.313C164.88 214.557 155.443 206.609 169.198 202.078C176.198 199.224 183.432 195.917 191.104 192.141C192.875 191.302 194.76 190.526 196.698 190.484C200.495 190.333 203.698 193.62 207.547 192.557C213.109 191.401 214.339 184.302 208.938 181.932C207.615 181.286 205.807 181.214 204.568 180.536C202.932 179.573 204.495 177.828 205.193 176.656C206.109 175.344 206.781 173.844 207.021 172.25C207.609 168.859 206.344 165.188 203.813 162.719C203.813 162.719 203.766 162.677 203.688 162.604C203.026 162.021 202.323 161.37 202.016 160.922C201.818 160.703 201.635 160.484 201.469 160.24C207.662 161.193 211.349 167.323 210.578 173.51C210.438 174.641 209.917 175.859 209.5 177.224C209.385 177.594 209.568 177.984 209.932 178.141C212.813 179.333 215.063 180.26 216.661 183.115H216.656Z" fill="#F3EBE1"/>
</g>
</g>
</g>
<mask id="mask37_55_16871" style="mask-type:luminance" maskUnits="userSpaceOnUse" x="5" y="65" width="85" height="65">
<path d="M5.33337 65.3334H89.3334V129.333H5.33337V65.3334Z" fill="white"/>
</mask>
<g mask="url(#mask37_55_16871)">
<mask id="mask38_55_16871" style="mask-type:luminance" maskUnits="userSpaceOnUse" x="2" y="61" width="91" height="72">
<path d="M2.42188 94.1407L75.4167 61.7084L92.4427 100.031L19.4479 132.458L2.42188 94.1407Z" fill="white"/>
</mask>
<g mask="url(#mask38_55_16871)">
<mask id="mask39_55_16871" style="mask-type:luminance" maskUnits="userSpaceOnUse" x="2" y="61" width="91" height="72">
<path d="M2.42188 94.1407L75.4167 61.7084L92.4427 100.031L19.4479 132.458L2.42188 94.1407Z" fill="white"/>
</mask>
<g mask="url(#mask39_55_16871)">
<path d="M87.0261 88.3281C89.3802 92.5312 89.3802 96.4531 87.0365 100.078C83.5677 105.401 75.6927 106.396 71.0365 102.167C70.2344 101.427 69.4115 100.589 68.5886 99.6406C68.4584 99.4896 68.2917 99.3906 68.1146 99.3489C67.4844 99.1927 66.8594 99.2396 66.2604 99.5052C62.5677 101.083 52.8698 105.432 37.1615 112.521C35.4375 113.297 35.1094 114.099 35.1823 115.906C35.2552 117.797 35.3594 119.568 34.9531 120.901C33.1823 126.781 26.474 129.87 20.875 127.547C20.2188 127.281 19.5938 126.937 18.9844 126.526C13.4636 122.745 13.2396 117.375 15.0781 111.484C15.125 111.328 15.0313 111.141 14.8698 111.078C13.1302 110.474 11.7136 109.75 10.625 108.922C6.11982 105.443 4.67711 99.7031 7.19273 94.6979C9.18232 90.7604 14.2917 87.8802 18.8281 88.6562C22.2917 89.2448 24.0834 91.0573 26.6094 93.4531C26.9479 93.776 27.4531 93.8698 27.8802 93.6927C36.0365 90.3437 45.2552 86.3489 55.5313 81.6614C57.7292 80.651 59.4219 80.0052 59.4063 77.8229C59.4011 75.7292 59.3021 74.3594 59.7552 72.8073C61.2761 67.651 66.4532 64.7552 71.625 65.4271C71.6927 65.4375 71.7709 65.4479 71.8334 65.4583C78.0261 66.4062 81.7136 72.5364 80.9427 78.7239C80.8021 79.8594 80.2813 81.0781 79.8646 82.4427C79.75 82.8125 79.9323 83.2031 80.2969 83.3594C83.1771 84.5521 85.4271 85.4739 87.0261 88.3333V88.3281Z" fill="#543026"/>
</g>
</g>
</g>
<mask id="mask40_55_16871" style="mask-type:luminance" maskUnits="userSpaceOnUse" x="20" y="65" width="70" height="65">
<path d="M20 65.3334H89.3333V129.333H20V65.3334Z" fill="white"/>
</mask>
<g mask="url(#mask40_55_16871)">
<mask id="mask41_55_16871" style="mask-type:luminance" maskUnits="userSpaceOnUse" x="2" y="61" width="91" height="72">
<path d="M2.42188 94.1407L75.4167 61.7084L92.4427 100.031L19.4479 132.458L2.42188 94.1407Z" fill="white"/>
</mask>
<g mask="url(#mask41_55_16871)">
<mask id="mask42_55_16871" style="mask-type:luminance" maskUnits="userSpaceOnUse" x="2" y="61" width="91" height="72">
<path d="M2.42188 94.1407L75.4167 61.7084L92.4427 100.031L19.4479 132.458L2.42188 94.1407Z" fill="white"/>
</mask>
<g mask="url(#mask42_55_16871)">
<path d="M87.026 88.3282C89.3802 92.5313 89.3802 96.4532 87.0365 100.078C83.5677 105.401 75.6927 106.396 71.0365 102.167C70.2344 101.427 69.4115 100.589 68.5885 99.6407C68.4583 99.4896 68.2917 99.3907 68.1146 99.349C67.4844 99.1927 66.8594 99.2396 66.2604 99.5052C62.5677 101.083 52.8698 105.432 37.1615 112.521C35.4375 113.297 35.1094 114.099 35.1823 115.906C35.2552 117.797 35.3594 119.568 34.9531 120.901C33.1823 126.781 26.474 129.87 20.875 127.547C22.0937 127.005 23.5104 126.438 24.6406 126.167C25.1146 125.995 25.5729 125.792 25.9948 125.531C35.2448 119.776 25.8073 111.828 39.5677 107.297C46.5625 104.443 53.7969 101.13 61.474 97.3594C63.2448 96.5209 65.1302 95.7448 67.0677 95.7032C70.8594 95.5521 74.0625 98.8386 77.9115 97.7761C83.474 96.6198 84.7083 89.5209 79.3021 87.1511C77.9844 86.5052 76.1719 86.4323 74.9323 85.7552C73.2969 84.7917 74.8646 83.0469 75.5625 81.875C76.4792 80.5625 77.1458 79.0625 77.3906 77.4688C77.9792 74.0782 76.7083 70.4063 74.1771 67.9375C74.1771 67.9375 74.1354 67.8959 74.0573 67.823C73.3958 67.2396 72.6927 66.5886 72.3854 66.1407C72.1875 65.9219 72.0052 65.7032 71.8385 65.4584C78.0313 66.4115 81.7135 72.5417 80.9479 78.724C80.8021 79.8594 80.2865 81.0782 79.8698 82.4427C79.7552 82.8125 79.9375 83.2032 80.3021 83.3594C83.1823 84.5521 85.4271 85.4792 87.026 88.3334V88.3282Z" fill="#F3EBE1"/>
</g>
</g>
</g>
<mask id="mask43_55_16871" style="mask-type:luminance" maskUnits="userSpaceOnUse" x="261" y="288" width="85" height="64">
<path d="M261.333 288H345.333V352H261.333V288Z" fill="white"/>
</mask>
<g mask="url(#mask43_55_16871)">
<mask id="mask44_55_16871" style="mask-type:luminance" maskUnits="userSpaceOnUse" x="258" y="284" width="91" height="72">
<path d="M258.12 316.818L331.115 284.385L348.141 322.708L275.146 355.141L258.12 316.818Z" fill="white"/>
</mask>
<g mask="url(#mask44_55_16871)">
<mask id="mask45_55_16871" style="mask-type:luminance" maskUnits="userSpaceOnUse" x="258" y="284" width="91" height="72">
<path d="M258.12 316.818L331.115 284.385L348.141 322.708L275.146 355.141L258.12 316.818Z" fill="white"/>
</mask>
<g mask="url(#mask45_55_16871)">
<path d="M342.724 311.01C345.078 315.214 345.078 319.13 342.729 322.755C339.266 328.083 331.391 329.073 326.734 324.849C325.932 324.109 325.109 323.266 324.287 322.318C324.156 322.172 323.99 322.073 323.813 322.031C323.182 321.87 322.557 321.917 321.958 322.182C318.266 323.766 308.568 328.109 292.854 335.198C291.136 335.979 290.807 336.781 290.88 338.589C290.953 340.479 291.057 342.245 290.651 343.583C288.88 349.458 282.172 352.552 276.573 350.229C275.917 349.958 275.287 349.62 274.682 349.208C269.162 345.422 268.938 340.057 270.771 334.161C270.823 334.005 270.729 333.818 270.568 333.755C268.828 333.151 267.412 332.432 266.323 331.599C261.818 328.12 260.375 322.38 262.891 317.38C264.875 313.443 269.99 310.562 274.521 311.333C277.99 311.927 279.776 313.74 282.307 316.135C282.646 316.458 283.146 316.552 283.578 316.37C291.734 313.026 300.953 309.026 311.229 304.339C313.422 303.328 315.12 302.687 315.104 300.5C315.099 298.411 315 297.042 315.453 295.49C316.974 290.328 322.151 287.432 327.323 288.109C327.386 288.115 327.469 288.13 327.531 288.135C333.724 289.089 337.406 295.219 336.641 301.406C336.495 302.542 335.979 303.755 335.563 305.12C335.448 305.49 335.63 305.88 335.995 306.036C338.875 307.229 341.12 308.156 342.719 311.016L342.724 311.01Z" fill="#543026"/>
</g>
</g>
</g>
<mask id="mask46_55_16871" style="mask-type:luminance" maskUnits="userSpaceOnUse" x="276" y="288" width="70" height="64">
<path d="M276 288H345.333V352H276V288Z" fill="white"/>
</mask>
<g mask="url(#mask46_55_16871)">
<mask id="mask47_55_16871" style="mask-type:luminance" maskUnits="userSpaceOnUse" x="258" y="284" width="91" height="72">
<path d="M258.12 316.818L331.115 284.385L348.141 322.708L275.146 355.141L258.12 316.818Z" fill="white"/>
</mask>
<g mask="url(#mask47_55_16871)">
<mask id="mask48_55_16871" style="mask-type:luminance" maskUnits="userSpaceOnUse" x="258" y="284" width="91" height="72">
<path d="M258.12 316.818L331.115 284.385L348.141 322.708L275.146 355.141L258.12 316.818Z" fill="white"/>
</mask>
<g mask="url(#mask48_55_16871)">
<path d="M342.724 311.01C345.078 315.214 345.078 319.13 342.729 322.755C339.266 328.083 331.391 329.073 326.734 324.849C325.932 324.109 325.109 323.266 324.286 322.318C324.156 322.172 323.99 322.073 323.812 322.031C323.182 321.87 322.557 321.917 321.958 322.182C318.266 323.766 308.568 328.109 292.854 335.198C291.135 335.979 290.807 336.781 290.88 338.589C290.953 340.479 291.057 342.245 290.651 343.583C288.88 349.458 282.172 352.552 276.573 350.229C277.792 349.688 279.208 349.12 280.339 348.844C280.812 348.672 281.271 348.469 281.687 348.208C290.943 342.453 281.505 334.505 295.266 329.979C302.26 327.125 309.495 323.812 317.172 320.036C318.943 319.203 320.828 318.427 322.766 318.38C326.557 318.229 329.76 321.521 333.609 320.453C339.172 319.297 340.401 312.203 335 309.828C333.682 309.188 331.87 309.115 330.63 308.438C328.995 307.469 330.562 305.729 331.255 304.552C332.172 303.245 332.844 301.745 333.089 300.151C333.677 296.76 332.406 293.083 329.875 290.62C329.875 290.62 329.833 290.573 329.75 290.5C329.089 289.922 328.391 289.271 328.078 288.823C327.885 288.604 327.703 288.38 327.536 288.141C333.729 289.089 337.411 295.219 336.641 301.406C336.5 302.542 335.984 303.76 335.568 305.125C335.453 305.495 335.635 305.885 335.995 306.042C338.88 307.234 341.125 308.156 342.724 311.016V311.01Z" fill="#F3EBE1"/>
</g>
</g>
</g>
<mask id="mask49_55_16871" style="mask-type:luminance" maskUnits="userSpaceOnUse" x="261" y="509" width="85" height="65">
<path d="M261.333 509.333H345.333V573.333H261.333V509.333Z" fill="white"/>
</mask>
<g mask="url(#mask49_55_16871)">
<mask id="mask50_55_16871" style="mask-type:luminance" maskUnits="userSpaceOnUse" x="258" y="505" width="91" height="72">
<path d="M258.12 538.396L331.115 505.964L348.141 544.287L275.146 576.719L258.12 538.396Z" fill="white"/>
</mask>
<g mask="url(#mask50_55_16871)">
<mask id="mask51_55_16871" style="mask-type:luminance" maskUnits="userSpaceOnUse" x="258" y="505" width="91" height="72">
<path d="M258.12 538.396L331.115 505.964L348.141 544.287L275.146 576.719L258.12 538.396Z" fill="white"/>
</mask>
<g mask="url(#mask51_55_16871)">
<path d="M342.724 532.589C345.078 536.792 345.078 540.708 342.729 544.333C339.266 549.662 331.391 550.651 326.734 546.427C325.932 545.688 325.109 544.844 324.287 543.896C324.156 543.75 323.99 543.651 323.813 543.609C323.182 543.448 322.557 543.495 321.958 543.761C318.266 545.344 308.568 549.688 292.854 556.776C291.136 557.557 290.807 558.359 290.88 560.167C290.953 562.057 291.057 563.823 290.651 565.162C288.88 571.037 282.172 574.13 276.573 571.807C275.917 571.537 275.287 571.198 274.682 570.787C269.162 567 268.938 561.636 270.771 555.74C270.823 555.583 270.729 555.396 270.568 555.333C268.828 554.729 267.412 554.011 266.323 553.177C261.818 549.698 260.375 543.958 262.891 538.958C264.875 535.021 269.99 532.141 274.521 532.912C277.99 533.505 279.776 535.318 282.307 537.714C282.646 538.037 283.146 538.13 283.578 537.948C291.734 534.604 300.953 530.604 311.229 525.917C313.422 524.906 315.12 524.261 315.104 522.078C315.099 519.99 315 518.62 315.453 517.063C316.974 511.906 322.151 509.011 327.323 509.688C327.386 509.693 327.469 509.708 327.531 509.714C333.724 510.667 337.406 516.797 336.641 522.984C336.495 524.12 335.979 525.333 335.563 526.698C335.448 527.068 335.63 527.458 335.995 527.615C338.875 528.807 341.12 529.734 342.719 532.594L342.724 532.589Z" fill="#543026"/>
</g>
</g>
</g>
<mask id="mask52_55_16871" style="mask-type:luminance" maskUnits="userSpaceOnUse" x="276" y="509" width="70" height="65">
<path d="M276 509.333H345.333V573.333H276V509.333Z" fill="white"/>
</mask>
<g mask="url(#mask52_55_16871)">
<mask id="mask53_55_16871" style="mask-type:luminance" maskUnits="userSpaceOnUse" x="258" y="505" width="91" height="72">
<path d="M258.12 538.396L331.115 505.964L348.141 544.287L275.146 576.719L258.12 538.396Z" fill="white"/>
</mask>
<g mask="url(#mask53_55_16871)">
<mask id="mask54_55_16871" style="mask-type:luminance" maskUnits="userSpaceOnUse" x="258" y="505" width="91" height="72">
<path d="M258.12 538.396L331.115 505.964L348.141 544.287L275.146 576.719L258.12 538.396Z" fill="white"/>
</mask>
<g mask="url(#mask54_55_16871)">
<path d="M342.724 532.589C345.078 536.792 345.078 540.708 342.729 544.333C339.266 549.662 331.391 550.651 326.734 546.427C325.932 545.688 325.109 544.844 324.286 543.896C324.156 543.75 323.99 543.651 323.812 543.609C323.182 543.448 322.557 543.495 321.958 543.761C318.266 545.344 308.568 549.688 292.854 556.776C291.135 557.557 290.807 558.359 290.88 560.167C290.953 562.057 291.057 563.823 290.651 565.162C288.88 571.037 282.172 574.13 276.573 571.807C277.792 571.266 279.208 570.698 280.339 570.422C280.812 570.25 281.271 570.047 281.687 569.787C290.943 564.031 281.505 556.083 295.266 551.557C302.26 548.703 309.495 545.391 317.172 541.615C318.943 540.781 320.828 540.005 322.766 539.958C326.557 539.807 329.76 543.099 333.609 542.031C339.172 540.875 340.401 533.781 335 531.406C333.682 530.766 331.87 530.693 330.63 530.016C328.995 529.047 330.562 527.307 331.255 526.13C332.172 524.823 332.844 523.323 333.089 521.729C333.677 518.339 332.406 514.662 329.875 512.198C329.875 512.198 329.833 512.151 329.75 512.078C329.089 511.5 328.391 510.849 328.078 510.401C327.885 510.182 327.703 509.958 327.536 509.719C333.729 510.667 337.411 516.797 336.641 522.984C336.5 524.12 335.984 525.339 335.568 526.703C335.453 527.073 335.635 527.464 335.995 527.62C338.88 528.813 341.125 529.734 342.724 532.594V532.589Z" fill="#F3EBE1"/>
</g>
</g>
</g>
<mask id="mask55_55_16871" style="mask-type:luminance" maskUnits="userSpaceOnUse" x="258" y="730" width="85" height="65">
<path d="M258.667 730.667H342.667V794.667H258.667V730.667Z" fill="white"/>
</mask>
<g mask="url(#mask55_55_16871)">
<mask id="mask56_55_16871" style="mask-type:luminance" maskUnits="userSpaceOnUse" x="255" y="727" width="91" height="72">
<path d="M255.839 760.229L328.833 727.797L345.859 766.12L272.865 798.552L255.839 760.229Z" fill="white"/>
</mask>
<g mask="url(#mask56_55_16871)">
<mask id="mask57_55_16871" style="mask-type:luminance" maskUnits="userSpaceOnUse" x="255" y="727" width="91" height="72">
<path d="M255.839 760.229L328.833 727.797L345.859 766.12L272.865 798.552L255.839 760.229Z" fill="white"/>
</mask>
<g mask="url(#mask57_55_16871)">
<path d="M340.443 754.422C342.797 758.625 342.802 762.547 340.453 766.167C336.984 771.495 329.109 772.484 324.458 768.26C323.651 767.521 322.828 766.682 322.005 765.729C321.875 765.583 321.713 765.484 321.536 765.443C320.906 765.281 320.281 765.328 319.682 765.594C315.984 767.177 306.286 771.521 290.578 778.609C288.854 779.391 288.526 780.193 288.599 782C288.672 783.891 288.776 785.656 288.375 786.995C286.599 792.87 279.891 795.963 274.292 793.641C273.635 793.37 273.01 793.031 272.401 792.62C266.885 788.833 266.656 783.469 268.495 777.573C268.547 777.417 268.448 777.229 268.292 777.167C266.547 776.562 265.13 775.844 264.042 775.01C259.542 771.531 258.099 765.792 260.609 760.792C262.599 756.854 267.713 753.974 272.245 754.745C275.708 755.338 277.5 757.151 280.026 759.547C280.365 759.87 280.87 759.963 281.302 759.781C289.458 756.437 298.677 752.443 308.953 747.755C311.146 746.739 312.844 746.099 312.823 743.917C312.818 741.823 312.724 740.453 313.177 738.901C314.698 733.739 319.875 730.844 325.042 731.521C325.109 731.526 325.187 731.542 325.25 731.552C331.443 732.5 335.13 738.63 334.359 744.818C334.219 745.953 333.698 747.167 333.281 748.536C333.167 748.901 333.354 749.292 333.713 749.453C336.594 750.641 338.844 751.568 340.443 754.427V754.422Z" fill="#543026"/>
</g>
</g>
</g>
<mask id="mask58_55_16871" style="mask-type:luminance" maskUnits="userSpaceOnUse" x="273" y="730" width="70" height="65">
<path d="M273.333 730.667H342.667V794.667H273.333V730.667Z" fill="white"/>
</mask>
<g mask="url(#mask58_55_16871)">
<mask id="mask59_55_16871" style="mask-type:luminance" maskUnits="userSpaceOnUse" x="255" y="727" width="91" height="72">
<path d="M255.839 760.229L328.833 727.797L345.859 766.12L272.865 798.552L255.839 760.229Z" fill="white"/>
</mask>
<g mask="url(#mask59_55_16871)">
<mask id="mask60_55_16871" style="mask-type:luminance" maskUnits="userSpaceOnUse" x="255" y="727" width="91" height="72">
<path d="M255.839 760.229L328.833 727.797L345.859 766.12L272.865 798.552L255.839 760.229Z" fill="white"/>
</mask>
<g mask="url(#mask60_55_16871)">
<path d="M340.443 754.422C342.797 758.625 342.802 762.547 340.453 766.167C336.984 771.495 329.109 772.484 324.458 768.26C323.651 767.521 322.828 766.682 322.005 765.729C321.875 765.583 321.714 765.484 321.537 765.443C320.906 765.281 320.281 765.328 319.682 765.594C315.984 767.177 306.287 771.521 290.578 778.609C288.854 779.391 288.526 780.193 288.599 782C288.672 783.891 288.776 785.656 288.375 786.995C286.599 792.87 279.891 795.963 274.292 793.641C275.51 793.099 276.927 792.531 278.063 792.26C278.531 792.083 278.99 791.88 279.412 791.62C288.667 785.87 279.229 777.917 292.984 773.391C299.984 770.536 307.219 767.224 314.891 763.448C316.667 762.615 318.547 761.838 320.49 761.792C324.281 761.641 327.484 764.932 331.333 763.865C336.896 762.708 338.125 755.615 332.724 753.24C331.401 752.599 329.594 752.526 328.354 751.849C326.719 750.88 328.281 749.141 328.979 747.963C329.896 746.656 330.568 745.156 330.807 743.562C331.396 740.172 330.13 736.495 327.599 734.031C327.599 734.031 327.552 733.984 327.474 733.917C326.813 733.333 326.109 732.682 325.802 732.234C325.604 732.016 325.422 731.792 325.255 731.552C331.448 732.5 335.135 738.63 334.365 744.818C334.224 745.953 333.703 747.172 333.287 748.536C333.172 748.906 333.359 749.297 333.719 749.453C336.599 750.646 338.849 751.568 340.448 754.427L340.443 754.422Z" fill="#F3EBE1"/>
</g>
</g>
</g>
<mask id="mask61_55_16871" style="mask-type:luminance" maskUnits="userSpaceOnUse" x="270" y="81" width="85" height="65">
<path d="M270.667 81.3334H354.667V145.333H270.667V81.3334Z" fill="white"/>
</mask>
<g mask="url(#mask61_55_16871)">
<mask id="mask62_55_16871" style="mask-type:luminance" maskUnits="userSpaceOnUse" x="267" y="78" width="91" height="71">
<path d="M267.26 110.656L340.255 78.224L357.281 116.547L284.286 148.979L267.26 110.656Z" fill="white"/>
</mask>
<g mask="url(#mask62_55_16871)">
<mask id="mask63_55_16871" style="mask-type:luminance" maskUnits="userSpaceOnUse" x="267" y="78" width="91" height="71">
<path d="M267.26 110.656L340.255 78.224L357.281 116.547L284.286 148.979L267.26 110.656Z" fill="white"/>
</mask>
<g mask="url(#mask63_55_16871)">
<path d="M351.865 104.849C354.219 109.047 354.224 112.969 351.875 116.594C348.406 121.922 340.531 122.911 335.88 118.682C335.073 117.943 334.25 117.104 333.427 116.156C333.297 116.005 333.135 115.906 332.958 115.865C332.328 115.708 331.703 115.755 331.104 116.021C327.406 117.599 317.708 121.948 302 129.036C300.276 129.812 299.948 130.615 300.021 132.422C300.094 134.312 300.198 136.083 299.797 137.422C298.021 143.297 291.312 146.391 285.713 144.068C285.057 143.797 284.432 143.453 283.823 143.042C278.307 139.26 278.078 133.896 279.917 128C279.969 127.844 279.87 127.656 279.713 127.594C277.969 126.99 276.552 126.266 275.463 125.437C270.963 121.958 269.521 116.219 272.031 111.219C274.021 107.276 279.135 104.396 283.667 105.172C287.13 105.76 288.922 107.573 291.448 109.969C291.786 110.297 292.292 110.385 292.724 110.208C300.88 106.865 310.099 102.865 320.375 98.1771C322.568 97.1667 324.266 96.5208 324.245 94.3385C324.24 92.2448 324.146 90.8802 324.599 89.3229C326.12 84.1667 331.297 81.2708 336.463 81.9427C336.531 81.9531 336.609 81.9687 336.672 81.9739C342.865 82.9219 346.552 89.0573 345.781 95.2396C345.641 96.375 345.12 97.5937 344.703 98.9583C344.588 99.3281 344.776 99.7187 345.135 99.875C348.016 101.068 350.266 101.995 351.865 104.849Z" fill="#543026"/>
</g>
</g>
</g>
<mask id="mask64_55_16871" style="mask-type:luminance" maskUnits="userSpaceOnUse" x="285" y="81" width="70" height="65">
<path d="M285.333 81.3334H354.667V145.333H285.333V81.3334Z" fill="white"/>
</mask>
<g mask="url(#mask64_55_16871)">
<mask id="mask65_55_16871" style="mask-type:luminance" maskUnits="userSpaceOnUse" x="267" y="78" width="91" height="71">
<path d="M267.26 110.656L340.255 78.224L357.281 116.547L284.287 148.979L267.26 110.656Z" fill="white"/>
</mask>
<g mask="url(#mask65_55_16871)">
<mask id="mask66_55_16871" style="mask-type:luminance" maskUnits="userSpaceOnUse" x="267" y="78" width="91" height="71">
<path d="M267.26 110.656L340.255 78.224L357.281 116.547L284.287 148.979L267.26 110.656Z" fill="white"/>
</mask>
<g mask="url(#mask66_55_16871)">
<path d="M351.865 104.849C354.219 109.047 354.224 112.969 351.875 116.594C348.406 121.922 340.531 122.911 335.88 118.682C335.073 117.943 334.25 117.104 333.427 116.156C333.297 116.005 333.135 115.906 332.958 115.865C332.328 115.708 331.703 115.755 331.104 116.021C327.406 117.599 317.708 121.948 302 129.036C300.276 129.813 299.948 130.615 300.021 132.422C300.094 134.313 300.198 136.083 299.797 137.422C298.021 143.297 291.313 146.391 285.714 144.068C286.932 143.521 288.349 142.958 289.484 142.682C289.953 142.51 290.412 142.307 290.833 142.047C300.089 136.292 290.651 128.344 304.406 123.818C311.406 120.964 318.641 117.651 326.313 113.875C328.089 113.037 329.969 112.266 331.912 112.219C335.703 112.068 338.906 115.354 342.755 114.292C348.318 113.135 349.547 106.037 344.146 103.667C342.823 103.021 341.016 102.953 339.776 102.271C338.141 101.307 339.703 99.5625 340.401 98.3907C341.318 97.0834 341.99 95.5782 342.229 93.9844C342.818 90.5938 341.552 86.9219 339.021 84.4532C339.021 84.4532 338.979 84.4115 338.896 84.3386C338.234 83.7552 337.531 83.1042 337.224 82.6563C337.031 82.4427 336.844 82.2188 336.677 81.974C342.87 82.9271 346.557 89.0573 345.787 95.2448C345.646 96.3802 345.125 97.5938 344.708 98.9584C344.594 99.3282 344.781 99.7188 345.141 99.875C348.021 101.068 350.271 101.995 351.87 104.854L351.865 104.849Z" fill="#F3EBE1"/>
</g>
</g>
</g>
<mask id="mask67_55_16871" style="mask-type:luminance" maskUnits="userSpaceOnUse" x="132" y="782" width="84" height="66">
<path d="M132 782.667H216V848H132V782.667Z" fill="white"/>
</mask>
<g mask="url(#mask67_55_16871)">
<mask id="mask68_55_16871" style="mask-type:luminance" maskUnits="userSpaceOnUse" x="129" y="780" width="91" height="72">
<path d="M129.13 812.792L202.125 780.359L219.151 818.682L146.156 851.115L129.13 812.792Z" fill="white"/>
</mask>
<g mask="url(#mask68_55_16871)">
<mask id="mask69_55_16871" style="mask-type:luminance" maskUnits="userSpaceOnUse" x="129" y="780" width="91" height="72">
<path d="M129.13 812.792L202.125 780.359L219.151 818.682L146.156 851.115L129.13 812.792Z" fill="white"/>
</mask>
<g mask="url(#mask69_55_16871)">
<path d="M213.734 806.984C216.089 811.187 216.089 815.109 213.745 818.729C210.276 824.057 202.401 825.047 197.745 820.823C196.943 820.083 196.12 819.245 195.297 818.292C195.167 818.146 195.005 818.047 194.828 818.005C194.193 817.844 193.573 817.891 192.969 818.161C189.276 819.74 179.578 824.083 163.87 831.172C162.146 831.953 161.818 832.755 161.891 834.562C161.964 836.453 162.068 838.219 161.662 839.557C159.891 845.432 153.182 848.526 147.583 846.203C146.927 845.932 146.302 845.594 145.693 845.182C140.177 841.396 139.948 836.031 141.787 830.141C141.839 829.979 141.74 829.792 141.578 829.729C139.839 829.125 138.422 828.406 137.333 827.573C132.828 824.094 131.391 818.354 133.901 813.354C135.891 809.417 141.005 806.536 145.537 807.307C149 807.901 150.792 809.714 153.318 812.109C153.656 812.432 154.162 812.526 154.589 812.344C162.75 809 171.969 805.005 182.245 800.318C184.438 799.307 186.135 798.661 186.115 796.479C186.109 794.385 186.01 793.016 186.469 791.464C187.984 786.307 193.167 783.406 198.333 784.083C198.401 784.089 198.479 784.104 198.542 784.115C204.734 785.062 208.422 791.193 207.651 797.38C207.51 798.516 206.99 799.729 206.573 801.099C206.458 801.464 206.646 801.854 207.005 802.016C209.885 803.208 212.135 804.13 213.734 806.99V806.984Z" fill="#543026"/>
</g>
</g>
</g>
<mask id="mask70_55_16871" style="mask-type:luminance" maskUnits="userSpaceOnUse" x="146" y="784" width="70" height="64">
<path d="M146.667 784H216V848H146.667V784Z" fill="white"/>
</mask>
<g mask="url(#mask70_55_16871)">
<mask id="mask71_55_16871" style="mask-type:luminance" maskUnits="userSpaceOnUse" x="129" y="780" width="91" height="72">
<path d="M129.13 812.792L202.125 780.359L219.151 818.682L146.156 851.115L129.13 812.792Z" fill="white"/>
</mask>
<g mask="url(#mask71_55_16871)">
<mask id="mask72_55_16871" style="mask-type:luminance" maskUnits="userSpaceOnUse" x="129" y="780" width="91" height="72">
<path d="M129.13 812.792L202.125 780.359L219.151 818.682L146.156 851.115L129.13 812.792Z" fill="white"/>
</mask>
<g mask="url(#mask72_55_16871)">
<path d="M213.734 806.984C216.088 811.187 216.088 815.109 213.745 818.729C210.276 824.057 202.401 825.047 197.745 820.823C196.943 820.083 196.12 819.245 195.297 818.292C195.167 818.146 195.005 818.047 194.828 818.005C194.193 817.844 193.573 817.891 192.969 818.161C189.276 819.74 179.578 824.083 163.87 831.172C162.146 831.953 161.818 832.755 161.891 834.562C161.963 836.453 162.068 838.219 161.661 839.557C159.891 845.432 153.182 848.526 147.583 846.203C148.802 845.661 150.219 845.094 151.354 844.823C151.823 844.646 152.281 844.443 152.703 844.187C161.953 838.432 152.521 830.484 166.276 825.953C173.276 823.099 180.51 819.786 188.182 816.016C189.953 815.177 191.838 814.401 193.776 814.354C197.573 814.203 200.776 817.495 204.625 816.432C210.182 815.276 211.417 808.177 206.016 805.802C204.693 805.161 202.885 805.088 201.646 804.411C200.01 803.443 201.573 801.703 202.271 800.526C203.187 799.219 203.859 797.719 204.099 796.125C204.687 792.734 203.422 789.057 200.885 786.594C200.885 786.594 200.844 786.552 200.766 786.479C200.104 785.896 199.401 785.245 199.094 784.797C198.896 784.578 198.713 784.354 198.547 784.115C204.74 785.062 208.427 791.193 207.656 797.38C207.516 798.516 206.995 799.734 206.578 801.099C206.463 801.469 206.646 801.859 207.01 802.016C209.891 803.208 212.141 804.135 213.74 806.99L213.734 806.984Z" fill="#F3EBE1"/>
</g>
</g>
</g>
<mask id="mask73_55_16871" style="mask-type:luminance" maskUnits="userSpaceOnUse" x="5" y="840" width="85" height="11">
<path d="M5.33337 840H89.3334V850.667H5.33337V840Z" fill="white"/>
</mask>
<g mask="url(#mask73_55_16871)">
<mask id="mask74_55_16871" style="mask-type:luminance" maskUnits="userSpaceOnUse" x="2" y="837" width="91" height="72">
<path d="M2.42188 869.912L75.4167 837.479L92.4427 875.802L19.4479 908.234L2.42188 869.912Z" fill="white"/>
</mask>
<g mask="url(#mask74_55_16871)">
<mask id="mask75_55_16871" style="mask-type:luminance" maskUnits="userSpaceOnUse" x="2" y="837" width="91" height="72">
<path d="M2.42188 869.912L75.4167 837.479L92.4427 875.802L19.4479 908.234L2.42188 869.912Z" fill="white"/>
</mask>
<g mask="url(#mask75_55_16871)">
<path d="M87.0261 864.104C89.3802 868.307 89.3802 872.229 87.0365 875.849C83.5677 881.177 75.6927 882.167 71.0365 877.943C70.2344 877.203 69.4115 876.365 68.5886 875.411C68.4584 875.266 68.2917 875.167 68.1146 875.125C67.4844 874.964 66.8594 875.01 66.2604 875.276C62.5677 876.859 52.8698 881.203 37.1615 888.292C35.4375 889.073 35.1094 889.875 35.1823 891.682C35.2552 893.573 35.3594 895.339 34.9531 896.677C33.1823 902.552 26.474 905.646 20.875 903.323C20.2188 903.052 19.5938 902.714 18.9844 902.302C13.4636 898.516 13.2396 893.151 15.0781 887.255C15.125 887.099 15.0313 886.911 14.8698 886.849C13.1302 886.245 11.7136 885.526 10.625 884.693C6.11982 881.214 4.67711 875.474 7.19273 870.474C9.18232 866.536 14.2917 863.656 18.8281 864.427C22.2917 865.021 24.0834 866.833 26.6094 869.229C26.9479 869.552 27.4531 869.646 27.8802 869.464C36.0365 866.12 45.2552 862.125 55.5313 857.437C57.7292 856.427 59.4219 855.781 59.4063 853.599C59.4011 851.505 59.3021 850.135 59.7552 848.583C61.2761 843.422 66.4532 840.526 71.625 841.203C71.6927 841.208 71.7709 841.224 71.8334 841.234C78.0261 842.182 81.7136 848.312 80.9427 854.5C80.8021 855.635 80.2813 856.849 79.8646 858.219C79.75 858.583 79.9323 858.974 80.2969 859.135C83.1771 860.323 85.4271 861.25 87.0261 864.109V864.104Z" fill="#543026"/>
</g>
</g>
</g>
<mask id="mask76_55_16871" style="mask-type:luminance" maskUnits="userSpaceOnUse" x="20" y="840" width="70" height="11">
<path d="M20 840H89.3333V850.667H20V840Z" fill="white"/>
</mask>
<g mask="url(#mask76_55_16871)">
<mask id="mask77_55_16871" style="mask-type:luminance" maskUnits="userSpaceOnUse" x="2" y="837" width="91" height="72">
<path d="M2.42188 869.912L75.4167 837.479L92.4427 875.802L19.4479 908.234L2.42188 869.912Z" fill="white"/>
</mask>
<g mask="url(#mask77_55_16871)">
<mask id="mask78_55_16871" style="mask-type:luminance" maskUnits="userSpaceOnUse" x="2" y="837" width="91" height="72">
<path d="M2.42188 869.912L75.4167 837.479L92.4427 875.802L19.4479 908.234L2.42188 869.912Z" fill="white"/>
</mask>
<g mask="url(#mask78_55_16871)">
<path d="M87.026 864.104C89.3802 868.307 89.3802 872.229 87.0365 875.849C83.5677 881.177 75.6927 882.167 71.0365 877.943C70.2344 877.203 69.4115 876.365 68.5885 875.411C68.4583 875.266 68.2917 875.167 68.1146 875.125C67.4844 874.964 66.8594 875.01 66.2604 875.276C62.5677 876.859 52.8698 881.203 37.1615 888.292C35.4375 889.073 35.1094 889.875 35.1823 891.682C35.2552 893.573 35.3594 895.339 34.9531 896.677C33.1823 902.552 26.474 905.646 20.875 903.323C22.0937 902.781 23.5104 902.214 24.6406 901.943C25.1146 901.766 25.5729 901.563 25.9948 901.302C35.2448 895.552 25.8073 887.599 39.5677 883.073C46.5625 880.219 53.7969 876.906 61.474 873.13C63.2448 872.297 65.1302 871.521 67.0677 871.474C70.8594 871.323 74.0625 874.615 77.9115 873.547C83.474 872.391 84.7083 865.297 79.3021 862.922C77.9844 862.281 76.1719 862.208 74.9323 861.531C73.2969 860.562 74.8646 858.823 75.5625 857.646C76.4792 856.339 77.1458 854.839 77.3906 853.245C77.9792 849.854 76.7083 846.177 74.1771 843.714C74.1771 843.714 74.1354 843.667 74.0573 843.599C73.3958 843.016 72.6927 842.365 72.3854 841.917C72.1875 841.698 72.0052 841.474 71.8385 841.234C78.0313 842.182 81.7135 848.312 80.9479 854.5C80.8021 855.635 80.2865 856.854 79.8698 858.219C79.7552 858.589 79.9375 858.979 80.3021 859.135C83.1823 860.328 85.4271 861.25 87.026 864.109V864.104Z" fill="#F3EBE1"/>
</g>
</g>
</g>
<mask id="mask79_55_16871" style="mask-type:luminance" maskUnits="userSpaceOnUse" x="381" y="669" width="12" height="65">
<path d="M381.333 669.333H392.526V733.333H381.333V669.333Z" fill="white"/>
</mask>
<g mask="url(#mask79_55_16871)">
<mask id="mask80_55_16871" style="mask-type:luminance" maskUnits="userSpaceOnUse" x="378" y="666" width="91" height="71">
<path d="M378.031 698.531L451.026 666.099L468.052 704.422L395.057 736.854L378.031 698.531Z" fill="white"/>
</mask>
<g mask="url(#mask80_55_16871)">
<mask id="mask81_55_16871" style="mask-type:luminance" maskUnits="userSpaceOnUse" x="378" y="666" width="91" height="71">
<path d="M378.031 698.531L451.026 666.099L468.052 704.422L395.057 736.854L378.031 698.531Z" fill="white"/>
</mask>
<g mask="url(#mask81_55_16871)">
<path d="M462.635 692.724C464.99 696.922 464.99 700.844 462.646 704.469C459.177 709.797 451.302 710.786 446.646 706.557C445.844 705.823 445.021 704.979 444.198 704.031C444.068 703.88 443.901 703.786 443.724 703.74C443.094 703.583 442.469 703.63 441.87 703.896C438.177 705.474 428.479 709.823 412.771 716.911C411.047 717.693 410.719 718.49 410.792 720.297C410.865 722.193 410.969 723.958 410.563 725.297C408.792 731.172 402.083 734.266 396.484 731.943C395.828 731.672 395.203 731.328 394.594 730.917C389.073 727.135 388.849 721.771 390.688 715.875C390.74 715.719 390.641 715.531 390.479 715.469C388.74 714.865 387.323 714.141 386.234 713.312C381.729 709.833 380.286 704.094 382.802 699.094C384.792 695.151 389.906 692.271 394.438 693.047C397.901 693.641 399.693 695.448 402.219 697.844C402.557 698.172 403.063 698.26 403.49 698.083C411.646 694.74 420.865 690.74 431.141 686.052C433.339 685.042 435.031 684.396 435.016 682.214C435.01 680.12 434.911 678.755 435.365 677.198C436.885 672.042 442.063 669.146 447.234 669.818C447.302 669.828 447.38 669.844 447.443 669.849C453.635 670.802 457.323 676.932 456.552 683.115C456.411 684.25 455.891 685.469 455.474 686.833C455.359 687.203 455.542 687.594 455.906 687.75C458.786 688.943 461.036 689.87 462.635 692.724Z" fill="#543026"/>
</g>
</g>
</g>
<mask id="mask82_55_16871" style="mask-type:luminance" maskUnits="userSpaceOnUse" x="381" y="446" width="12" height="66">
<path d="M381.333 446.667H392.526V512H381.333V446.667Z" fill="white"/>
</mask>
<g mask="url(#mask82_55_16871)">
<mask id="mask83_55_16871" style="mask-type:luminance" maskUnits="userSpaceOnUse" x="378" y="444" width="91" height="72">
<path d="M378.031 476.698L451.026 444.266L468.052 482.589L395.057 515.021L378.031 476.698Z" fill="white"/>
</mask>
<g mask="url(#mask83_55_16871)">
<mask id="mask84_55_16871" style="mask-type:luminance" maskUnits="userSpaceOnUse" x="378" y="444" width="91" height="72">
<path d="M378.031 476.698L451.026 444.266L468.052 482.589L395.057 515.021L378.031 476.698Z" fill="white"/>
</mask>
<g mask="url(#mask84_55_16871)">
<path d="M462.635 470.891C464.99 475.088 464.99 479.01 462.646 482.635C459.177 487.963 451.302 488.953 446.646 484.724C445.844 483.984 445.021 483.146 444.198 482.198C444.068 482.047 443.901 481.948 443.724 481.906C443.094 481.75 442.469 481.797 441.87 482.062C438.177 483.641 428.479 487.99 412.771 495.078C411.047 495.854 410.719 496.656 410.792 498.463C410.865 500.354 410.969 502.125 410.563 503.458C408.792 509.338 402.083 512.427 396.484 510.109C395.828 509.838 395.203 509.495 394.594 509.083C389.073 505.302 388.849 499.932 390.688 494.042C390.74 493.885 390.641 493.698 390.479 493.635C388.74 493.031 387.323 492.307 386.234 491.479C381.729 488 380.286 482.26 382.802 477.255C384.792 473.318 389.906 470.437 394.438 471.213C397.901 471.802 399.693 473.615 402.219 476.01C402.557 476.338 403.063 476.427 403.49 476.25C411.646 472.906 420.865 468.906 431.141 464.219C433.339 463.208 435.031 462.562 435.016 460.38C435.01 458.286 434.911 456.922 435.365 455.365C436.885 450.208 442.063 447.312 447.234 447.984C447.302 447.995 447.38 448.005 447.443 448.016C453.635 448.963 457.323 455.099 456.552 461.281C456.411 462.417 455.891 463.635 455.474 465C455.359 465.37 455.542 465.76 455.906 465.917C458.786 467.109 461.036 468.036 462.635 470.891Z" fill="#543026"/>
</g>
</g>
</g>
<mask id="mask85_55_16871" style="mask-type:luminance" maskUnits="userSpaceOnUse" x="381" y="225" width="12" height="65">
<path d="M381.333 225.333H392.526V289.333H381.333V225.333Z" fill="white"/>
</mask>
<g mask="url(#mask85_55_16871)">
<mask id="mask86_55_16871" style="mask-type:luminance" maskUnits="userSpaceOnUse" x="378" y="222" width="91" height="72">
<path d="M378.031 255.12L451.026 222.688L468.052 261.01L395.057 293.443L378.031 255.12Z" fill="white"/>
</mask>
<g mask="url(#mask86_55_16871)">
<mask id="mask87_55_16871" style="mask-type:luminance" maskUnits="userSpaceOnUse" x="378" y="222" width="91" height="72">
<path d="M378.031 255.12L451.026 222.688L468.052 261.01L395.057 293.443L378.031 255.12Z" fill="white"/>
</mask>
<g mask="url(#mask87_55_16871)">
<path d="M462.635 249.313C464.99 253.51 464.99 257.432 462.646 261.057C459.177 266.385 451.302 267.375 446.646 263.146C445.844 262.406 445.021 261.568 444.198 260.62C444.068 260.469 443.901 260.37 443.724 260.328C443.094 260.172 442.469 260.219 441.87 260.484C438.177 262.063 428.479 266.412 412.771 273.5C411.047 274.276 410.719 275.078 410.792 276.885C410.865 278.776 410.969 280.547 410.563 281.885C408.792 287.76 402.083 290.854 396.484 288.531C395.828 288.26 395.203 287.917 394.594 287.505C389.073 283.724 388.849 278.359 390.688 272.464C390.74 272.307 390.641 272.12 390.479 272.057C388.74 271.453 387.323 270.729 386.234 269.901C381.729 266.422 380.286 260.682 382.802 255.682C384.792 251.74 389.906 248.859 394.438 249.635C397.901 250.224 399.693 252.037 402.219 254.432C402.557 254.76 403.063 254.849 403.49 254.672C411.646 251.328 420.865 247.328 431.141 242.641C433.339 241.63 435.031 240.984 435.016 238.802C435.01 236.708 434.911 235.344 435.365 233.787C436.885 228.63 442.063 225.734 447.234 226.406C447.302 226.417 447.38 226.432 447.443 226.438C453.635 227.385 457.323 233.521 456.552 239.703C456.411 240.839 455.891 242.057 455.474 243.422C455.359 243.792 455.542 244.182 455.906 244.339C458.786 245.531 461.036 246.458 462.635 249.313Z" fill="#543026"/>
</g>
</g>
</g>
<mask id="mask88_55_16871" style="mask-type:luminance" maskUnits="userSpaceOnUse" x="390" y="20" width="3" height="64">
<path d="M390.667 20H392.526V84H390.667V20Z" fill="white"/>
</mask>
<g mask="url(#mask88_55_16871)">
<mask id="mask89_55_16871" style="mask-type:luminance" maskUnits="userSpaceOnUse" x="387" y="16" width="91" height="72">
<path d="M387.172 48.9532L460.167 16.5209L477.198 54.8438L404.203 87.2761L387.172 48.9532Z" fill="white"/>
</mask>
<g mask="url(#mask89_55_16871)">
<mask id="mask90_55_16871" style="mask-type:luminance" maskUnits="userSpaceOnUse" x="387" y="16" width="91" height="72">
<path d="M387.172 48.9532L460.167 16.5209L477.198 54.8438L404.203 87.2761L387.172 48.9532Z" fill="white"/>
</mask>
<g mask="url(#mask90_55_16871)">
<path d="M471.781 43.1459C474.135 47.349 474.135 51.2709 471.786 54.8907C468.323 60.2188 460.443 61.2084 455.792 56.9844C454.984 56.2448 454.161 55.4063 453.339 54.4584C453.214 54.3073 453.047 54.2084 452.87 54.1667C452.24 54.0052 451.615 54.0521 451.016 54.323C447.318 55.9011 437.625 60.2448 421.911 67.3386C420.188 68.1146 419.865 68.9167 419.932 70.724C420.01 72.6146 420.109 74.3855 419.708 75.7188C417.938 81.5938 411.224 84.6875 405.625 82.3646C404.969 82.0938 404.344 81.7552 403.734 81.3438C398.219 77.5625 397.99 72.1927 399.828 66.3021C399.88 66.1407 399.786 65.9532 399.625 65.8907C397.885 65.2917 396.464 64.5677 395.375 63.7344C390.875 60.2605 389.432 54.5157 391.948 49.5157C393.932 45.5782 399.047 42.698 403.578 43.474C407.047 44.0625 408.833 45.875 411.359 48.2709C411.698 48.5938 412.203 48.6875 412.635 48.5052C420.792 45.1615 430.01 41.1667 440.286 36.4792C442.479 35.4688 444.177 34.823 444.156 32.6407C444.151 30.5469 444.057 29.1771 444.51 27.625C446.031 22.4688 451.208 19.5677 456.38 20.2448C456.443 20.25 456.521 20.2657 456.583 20.2761C462.781 21.224 466.464 27.3542 465.693 33.5417C465.552 34.6771 465.036 35.8907 464.62 37.2605C464.5 37.625 464.688 38.0209 465.047 38.1771C467.927 39.3698 470.177 40.2917 471.776 43.1511L471.781 43.1459Z" fill="#543026"/>
</g>
</g>
</g>
<mask id="mask91_55_16871" style="mask-type:luminance" maskUnits="userSpaceOnUse" x="133" y="0" width="85" height="59">
<path d="M133.333 0H217.333V58.6667H133.333V0Z" fill="white"/>
</mask>
<g mask="url(#mask91_55_16871)">
<mask id="mask92_55_16871" style="mask-type:luminance" maskUnits="userSpaceOnUse" x="130" y="-9" width="91" height="72">
<path d="M130.271 23.8229L203.266 -8.60938L220.292 29.7135L147.297 62.1458L130.271 23.8229Z" fill="white"/>
</mask>
<g mask="url(#mask92_55_16871)">
<mask id="mask93_55_16871" style="mask-type:luminance" maskUnits="userSpaceOnUse" x="130" y="-9" width="91" height="72">
<path d="M130.271 23.8229L203.266 -8.60938L220.292 29.7135L147.297 62.1458L130.271 23.8229Z" fill="white"/>
</mask>
<g mask="url(#mask93_55_16871)">
<path d="M214.875 18.0156C217.229 22.2187 217.229 26.1406 214.88 29.7604C211.417 35.0885 203.542 36.0781 198.885 31.8542C198.083 31.1146 197.26 30.276 196.438 29.3229C196.307 29.1771 196.141 29.0781 195.964 29.0365C195.333 28.875 194.708 28.9219 194.109 29.1927C190.417 30.7708 180.719 35.1146 165.01 42.2031C163.287 42.9844 162.958 43.7865 163.031 45.5937C163.104 47.4844 163.208 49.25 162.802 50.5885C161.031 56.4635 154.323 59.5573 148.724 57.2344C148.068 56.9635 147.443 56.625 146.833 56.2135C141.313 52.4271 141.089 47.0625 142.922 41.1719C142.974 41.0104 142.88 40.8229 142.719 40.7604C140.979 40.1562 139.563 39.4375 138.474 38.6042C133.969 35.125 132.526 29.3854 135.042 24.3854C137.031 20.4479 142.141 17.5677 146.677 18.3385C150.141 18.9323 151.932 20.7448 154.458 23.1406C154.797 23.4635 155.302 23.5573 155.729 23.375C163.885 20.0312 173.104 16.0365 183.38 11.349C185.573 10.3385 187.271 9.6927 187.255 7.51041C187.25 5.41666 187.151 4.04687 187.604 2.49479C189.125 -2.66146 194.302 -5.56251 199.474 -4.88542C199.542 -4.88021 199.62 -4.86459 199.682 -4.85417C205.875 -3.90626 209.557 2.22395 208.792 8.41145C208.646 9.54687 208.13 10.7604 207.714 12.1302C207.599 12.4948 207.781 12.8854 208.146 13.0469C211.026 14.2396 213.271 15.1615 214.875 18.0208V18.0156Z" fill="#543026"/>
</g>
</g>
</g>
<mask id="mask94_55_16871" style="mask-type:luminance" maskUnits="userSpaceOnUse" x="148" y="0" width="70" height="59">
<path d="M148 0H217.333V58.6667H148V0Z" fill="white"/>
</mask>
<g mask="url(#mask94_55_16871)">
<mask id="mask95_55_16871" style="mask-type:luminance" maskUnits="userSpaceOnUse" x="130" y="-9" width="91" height="72">
<path d="M130.271 23.8229L203.266 -8.60938L220.292 29.7135L147.297 62.1458L130.271 23.8229Z" fill="white"/>
</mask>
<g mask="url(#mask95_55_16871)">
<mask id="mask96_55_16871" style="mask-type:luminance" maskUnits="userSpaceOnUse" x="130" y="-9" width="91" height="72">
<path d="M130.271 23.8229L203.266 -8.60938L220.292 29.7135L147.297 62.1458L130.271 23.8229Z" fill="white"/>
</mask>
<g mask="url(#mask96_55_16871)">
<path d="M214.875 18.0157C217.229 22.2188 217.229 26.1407 214.88 29.7605C211.417 35.0886 203.542 36.0782 198.885 31.8542C198.083 31.1146 197.26 30.2761 196.438 29.323C196.307 29.1771 196.141 29.0782 195.964 29.0365C195.333 28.875 194.708 28.9219 194.109 29.1927C190.417 30.7709 180.719 35.1146 165.01 42.2032C163.286 42.9844 162.958 43.7865 163.031 45.5938C163.104 47.4844 163.208 49.25 162.802 50.5886C161.031 56.4636 154.323 59.5573 148.724 57.2344C149.943 56.6927 151.359 56.125 152.49 55.8542C152.964 55.6771 153.422 55.474 153.839 55.2188C163.094 49.4636 153.656 41.5157 167.417 36.9844C174.412 34.1302 181.646 30.8177 189.323 27.0469C191.094 26.2084 192.979 25.4323 194.917 25.3855C198.708 25.2344 201.912 28.5261 205.76 27.4636C211.323 26.3073 212.552 19.2084 207.151 16.8334C205.833 16.1927 204.021 16.1198 202.781 15.4427C201.146 14.474 202.714 12.7344 203.411 11.5573C204.328 10.25 204.995 8.75004 205.24 7.15629C205.828 3.76567 204.557 0.0885825 202.026 -2.37496C202.026 -2.37496 201.984 -2.41663 201.901 -2.48954C201.24 -3.07288 200.542 -3.72392 200.234 -4.17183C200.037 -4.39058 199.854 -4.61454 199.688 -4.85413C205.88 -3.90621 209.563 2.224 208.792 8.4115C208.651 9.54692 208.135 10.7657 207.719 12.1302C207.604 12.5 207.787 12.8907 208.151 13.0469C211.031 14.2396 213.276 15.1667 214.875 18.0209V18.0157Z" fill="#F3EBE1"/>
</g>
</g>
</g>
</g>
</svg>
