<svg width="44" height="15" viewBox="0 0 44 15" fill="none" xmlns="http://www.w3.org/2000/svg">
<path d="M3.55469 2C3.42969 2 3.30208 1.98958 3.17188 1.96875C3.04167 1.94271 2.89844 1.89844 2.74219 1.83594C2.59115 1.77344 2.46615 1.67448 2.36719 1.53906C2.27344 1.40365 2.22656 1.24219 2.22656 1.05469C2.22656 0.414062 2.65885 0.09375 3.52344 0.09375C3.76823 0.09375 3.97396 0.125 4.14062 0.1875C4.3125 0.25 4.4375 0.333333 4.51562 0.4375C4.59896 0.541667 4.65625 0.643229 4.6875 0.742188C4.71875 0.841146 4.73438 0.947917 4.73438 1.0625C4.73438 1.29688 4.66146 1.48958 4.51562 1.64062C4.36979 1.79167 4.21354 1.89062 4.04688 1.9375C3.88542 1.97917 3.72135 2 3.55469 2ZM4.84375 4.07031V10.5234C4.84375 10.8724 4.83073 11.1927 4.80469 11.4844C4.78385 11.7708 4.74219 12.0651 4.67969 12.3672C4.61719 12.6745 4.52604 12.9427 4.40625 13.1719C4.29167 13.401 4.14844 13.6068 3.97656 13.7891C3.80469 13.9766 3.58854 14.1198 3.32812 14.2188C3.06771 14.3177 2.77083 14.3672 2.4375 14.3672C2.17188 14.3672 1.90625 14.3385 1.64062 14.2812C1.38021 14.2292 1.11979 14.1432 0.859375 14.0234C0.604167 13.9089 0.395833 13.7396 0.234375 13.5156C0.078125 13.2969 0 13.0417 0 12.75C0 12.5365 0.0885417 12.3646 0.265625 12.2344C0.442708 12.1094 0.648438 12.0469 0.882812 12.0469C1.07031 12.0469 1.21875 12.0781 1.32812 12.1406C1.4375 12.2031 1.51562 12.2786 1.5625 12.3672C1.60938 12.4557 1.65365 12.5443 1.69531 12.6328C1.73698 12.7214 1.80469 12.7969 1.89844 12.8594C1.9974 12.9219 2.13281 12.9531 2.30469 12.9531C2.47135 12.9531 2.60677 12.9089 2.71094 12.8203C2.82031 12.737 2.89844 12.6042 2.94531 12.4219C2.9974 12.2448 3.03125 12.0599 3.04688 11.8672C3.0625 11.6797 3.07031 11.4375 3.07031 11.1406V5.58594C3.07031 5.3099 2.98438 5.11458 2.8125 5C2.64583 4.88542 2.32031 4.81771 1.83594 4.79688C1.76823 4.78125 1.72396 4.7474 1.70312 4.69531C1.6875 4.64323 1.67969 4.53125 1.67969 4.35938C1.67969 4.09896 1.70833 3.86719 1.76562 3.66406C1.82812 3.45573 1.88542 3.33594 1.9375 3.30469C2.42188 3.36198 2.88802 3.39062 3.33594 3.39062C3.55469 3.39062 3.78385 3.3776 4.02344 3.35156C4.26302 3.32031 4.39062 3.30469 4.40625 3.30469C4.58854 3.30469 4.70573 3.35156 4.75781 3.44531C4.8151 3.53385 4.84375 3.74219 4.84375 4.07031ZM12.4559 10.6641C12.0757 11.0651 11.594 11.3776 11.0106 11.6016C10.4325 11.8255 9.84396 11.9375 9.245 11.9375C8.50021 11.9375 7.88562 11.7396 7.40125 11.3438C6.91687 10.9479 6.67469 10.375 6.67469 9.625C6.67469 8.82292 7.06271 8.21875 7.83875 7.8125C8.42208 7.5 9.42208 7.22917 10.8387 7C11.1044 6.95312 11.5367 6.88542 12.1356 6.79688C12.1356 5.91146 12.0236 5.30208 11.7997 4.96875C11.5757 4.63542 11.146 4.46875 10.5106 4.46875C10.0471 4.46875 9.53146 4.57292 8.96375 4.78125C8.39604 4.98958 7.94292 5.27865 7.60437 5.64844C7.1825 5.29427 6.97156 4.94792 6.97156 4.60938C6.97156 4.31771 7.17208 4.0599 7.57312 3.83594C7.97417 3.60677 8.44552 3.4401 8.98719 3.33594C9.53406 3.22656 10.0809 3.17188 10.6278 3.17188C11.1434 3.17188 11.594 3.23698 11.9794 3.36719C12.37 3.49219 12.7137 3.70052 13.0106 3.99219C13.3075 4.28385 13.5315 4.6849 13.6825 5.19531C13.8387 5.70573 13.9169 6.32552 13.9169 7.05469V9.55469C13.9169 9.76823 13.9325 9.92969 13.9637 10.0391C14.0002 10.1432 14.0393 10.2083 14.0809 10.2344C14.1226 10.2552 14.1903 10.2708 14.2841 10.2812C14.4455 10.2969 14.5653 10.3125 14.6434 10.3281C14.7216 10.3385 14.8127 10.3568 14.9169 10.3828C15.021 10.4089 15.094 10.4427 15.1356 10.4844C15.1825 10.526 15.2059 10.5781 15.2059 10.6406C15.2059 11.2552 15.12 11.638 14.9481 11.7891C14.6981 11.7474 14.3726 11.7266 13.9716 11.7266C13.607 11.7266 13.2684 11.7448 12.9559 11.7812C12.9195 11.7552 12.8726 11.7188 12.8153 11.6719C12.7632 11.625 12.6903 11.5052 12.5966 11.3125C12.5028 11.1198 12.4559 10.9036 12.4559 10.6641ZM9.60437 10.5469C10.0783 10.5469 10.5914 10.4167 11.1434 10.1562C11.6955 9.89062 12.0289 9.65104 12.1434 9.4375V8.05469C10.7216 8.3099 9.76062 8.53906 9.26062 8.74219C8.76583 8.94531 8.51844 9.23177 8.51844 9.60156C8.51844 10.2318 8.88042 10.5469 9.60437 10.5469ZM19.8962 4.07031V4.5C20.2712 4.10938 20.7192 3.79167 21.24 3.54688C21.766 3.29688 22.2843 3.17188 22.7947 3.17188C23.2582 3.17188 23.6775 3.28646 24.0525 3.51562C24.4327 3.74479 24.7374 4.09896 24.9666 4.57812C25.4301 4.16146 25.9483 3.82552 26.5212 3.57031C27.0994 3.3099 27.6515 3.17969 28.1775 3.17969C28.8858 3.17969 29.4614 3.4375 29.9041 3.95312C30.3468 4.46875 30.5681 5.27604 30.5681 6.375V9.72656C30.5681 10.0651 30.7009 10.2448 30.9666 10.2656C31.0186 10.2708 31.089 10.276 31.1775 10.2812C31.2712 10.2865 31.3442 10.2917 31.3962 10.2969C31.4483 10.3021 31.5134 10.3099 31.5916 10.3203C31.6697 10.3255 31.7322 10.3333 31.7791 10.3438C31.8259 10.349 31.878 10.3594 31.9353 10.375C31.9926 10.3854 32.0369 10.3984 32.0681 10.4141C32.1046 10.4297 32.1384 10.4479 32.1697 10.4688C32.2009 10.4896 32.2218 10.5156 32.2322 10.5469C32.2478 10.5729 32.2556 10.6042 32.2556 10.6406C32.2556 11.25 32.1697 11.6328 31.9978 11.7891C31.3884 11.7474 30.8624 11.7266 30.4197 11.7266C30.1645 11.7266 29.9015 11.737 29.6306 11.7578C29.3598 11.7786 29.1723 11.7891 29.0681 11.7891C28.8858 11.7891 28.7947 11.5885 28.7947 11.1875V6.51562C28.7947 5.83854 28.6853 5.34375 28.4666 5.03125C28.2478 4.71354 27.9614 4.55469 27.6072 4.55469C27.253 4.55469 26.8624 4.66146 26.4353 4.875C26.0082 5.08333 25.6072 5.35417 25.2322 5.6875C25.2582 5.92188 25.2712 6.15104 25.2712 6.375V9.72656C25.2712 10.0651 25.4015 10.2448 25.6619 10.2656C25.714 10.2708 25.7817 10.276 25.865 10.2812C25.9535 10.2865 26.0212 10.2917 26.0681 10.2969C26.1202 10.3021 26.1827 10.3099 26.2556 10.3203C26.3285 10.3255 26.3858 10.3333 26.4275 10.3438C26.4692 10.349 26.516 10.3594 26.5681 10.375C26.6254 10.3854 26.6697 10.3984 26.7009 10.4141C26.7322 10.4297 26.7608 10.4479 26.7869 10.4688C26.8181 10.4896 26.839 10.5156 26.8494 10.5469C26.865 10.5729 26.8728 10.6042 26.8728 10.6406C26.8728 11.25 26.7869 11.6328 26.615 11.7891C26.115 11.7474 25.6567 11.7266 25.24 11.7266C24.9796 11.7266 24.6931 11.737 24.3806 11.7578C24.0681 11.7786 23.8624 11.7891 23.7634 11.7891C23.5864 11.7891 23.4978 11.5885 23.4978 11.1875V6.51562C23.4978 5.83854 23.3884 5.34375 23.1697 5.03125C22.9509 4.71354 22.6645 4.55469 22.3103 4.55469C21.9561 4.55469 21.5681 4.66406 21.1462 4.88281C20.7244 5.10156 20.3311 5.38281 19.9666 5.72656V9.76562C19.9666 9.83854 19.9718 9.90104 19.9822 9.95312C19.9926 10 20.0134 10.0521 20.0447 10.1094C20.0759 10.1615 20.128 10.2031 20.2009 10.2344C20.2791 10.2604 20.3754 10.2734 20.49 10.2734C20.6879 10.2734 20.8572 10.3047 20.9978 10.3672C21.1384 10.4297 21.2087 10.5234 21.2087 10.6484C21.2087 11.2578 21.1228 11.638 20.9509 11.7891C20.4405 11.7474 19.8103 11.7266 19.0603 11.7266C18.253 11.7266 17.6541 11.7474 17.2634 11.7891C17.0916 11.6328 17.0056 11.2526 17.0056 10.6484C17.0056 10.5234 17.0759 10.4297 17.2166 10.3672C17.3572 10.3047 17.5265 10.2734 17.7244 10.2734C17.9067 10.2734 18.0291 10.237 18.0916 10.1641C18.1593 10.0911 18.1931 9.96354 18.1931 9.78125V5.58594C18.1931 5.3099 18.1124 5.11458 17.9509 5C17.7947 4.88542 17.49 4.81771 17.0369 4.79688C16.9692 4.78125 16.9249 4.7474 16.9041 4.69531C16.8884 4.64323 16.8806 4.53125 16.8806 4.35938C16.8806 4.09375 16.9093 3.85938 16.9666 3.65625C17.0239 3.45312 17.0811 3.33594 17.1384 3.30469C17.5395 3.36198 17.9275 3.39062 18.3025 3.39062C18.5369 3.39062 18.7843 3.3776 19.0447 3.35156C19.3051 3.32031 19.4431 3.30469 19.4587 3.30469C19.641 3.30469 19.7582 3.35156 19.8103 3.44531C19.8676 3.53385 19.8962 3.74219 19.8962 4.07031ZM36.8913 1.19531V6.5L39.36 5.03125C39.6256 4.83854 39.7636 4.73177 39.7741 4.71094C39.7793 4.70573 39.7819 4.69531 39.7819 4.67969C39.7819 4.65365 39.7506 4.63802 39.6881 4.63281C39.6308 4.6224 39.5631 4.61458 39.485 4.60938C39.4121 4.60417 39.3444 4.5651 39.2819 4.49219C39.2246 4.41406 39.1959 4.29948 39.1959 4.14844C39.1959 3.72656 39.2663 3.4401 39.4069 3.28906C39.7558 3.35677 40.3626 3.39062 41.2272 3.39062C41.8574 3.39062 42.3834 3.35677 42.8053 3.28906C42.972 3.36198 43.0553 3.67448 43.0553 4.22656C43.0553 4.41927 43.0371 4.55469 43.0006 4.63281C42.9642 4.71094 42.8939 4.76562 42.7897 4.79688C42.6855 4.82812 42.5657 4.85417 42.4303 4.875C42.3001 4.89062 42.11 4.94792 41.86 5.04688C41.6152 5.14583 41.36 5.28646 41.0944 5.46875L39.2038 6.70312C40.5319 8.35938 41.2871 9.3151 41.4694 9.57031C41.5215 9.64323 41.5866 9.73958 41.6647 9.85938C41.748 9.97396 41.8001 10.0443 41.8209 10.0703C41.847 10.0964 41.8939 10.1328 41.9616 10.1797C42.0293 10.2266 42.0996 10.2552 42.1725 10.2656C42.2454 10.2708 42.3496 10.2734 42.485 10.2734C43.136 10.2734 43.4616 10.3984 43.4616 10.6484C43.4616 11.2526 43.3756 11.6328 43.2038 11.7891C42.7194 11.7474 42.1595 11.7266 41.5241 11.7266C41.0136 11.7266 40.4147 11.7474 39.7272 11.7891C39.7064 11.6849 39.6751 11.5469 39.6334 11.375C39.597 11.1979 39.5683 11.0547 39.5475 10.9453C39.5319 10.8307 39.5241 10.7344 39.5241 10.6562C39.5241 10.4635 39.748 10.3464 40.1959 10.3047C40.1178 10.1797 39.9876 9.99479 39.8053 9.75C39.623 9.50521 39.334 9.125 38.9381 8.60938C38.5423 8.08854 38.2298 7.67708 38.0006 7.375L36.8913 8.0625V9.76562C36.8913 9.84375 36.8939 9.90625 36.8991 9.95312C36.9095 9.99479 36.9277 10.0443 36.9538 10.1016C36.985 10.1589 37.0371 10.2031 37.11 10.2344C37.1829 10.2604 37.2767 10.2734 37.3913 10.2734C37.5892 10.2734 37.7584 10.3047 37.8991 10.3672C38.0397 10.4297 38.11 10.5234 38.11 10.6484C38.11 11.2578 38.0241 11.638 37.8522 11.7891C37.3626 11.7474 36.7532 11.7266 36.0241 11.7266C35.2428 11.7266 34.623 11.7474 34.1647 11.7891C33.9928 11.6328 33.9069 11.2526 33.9069 10.6484C33.9069 10.5234 33.9772 10.4297 34.1178 10.3672C34.2584 10.3047 34.4277 10.2734 34.6256 10.2734C34.8288 10.2734 34.9616 10.2318 35.0241 10.1484C35.0866 10.0599 35.1178 9.9375 35.1178 9.78125V2.28125C35.1178 2.00521 35.0371 1.8099 34.8756 1.69531C34.7194 1.58073 34.4147 1.51302 33.9616 1.49219C33.8939 1.47656 33.8496 1.44271 33.8288 1.39062C33.8131 1.33854 33.8053 1.22656 33.8053 1.05469C33.8053 0.789062 33.834 0.554688 33.8913 0.351562C33.9485 0.148438 34.0058 0.03125 34.0631 0C34.4954 0.0572917 34.9095 0.0859375 35.3053 0.0859375C35.5397 0.0859375 35.7871 0.0729167 36.0475 0.046875C36.3079 0.015625 36.4459 0 36.4616 0C36.6439 0 36.761 0.046875 36.8131 0.140625C36.8704 0.229167 36.8991 0.4375 36.8991 0.765625C36.8991 0.802083 36.8965 0.869792 36.8913 0.96875C36.8913 1.0625 36.8913 1.13802 36.8913 1.19531Z" fill="white"/>
</svg>
