<svg width="113" height="113" viewBox="0 0 113 113" fill="none" xmlns="http://www.w3.org/2000/svg">
<g filter="url(#filter0_d_20_204)">
<rect x="4" y="4" width="100" height="100" rx="10" fill="#0091E2" shape-rendering="crispEdges"/>
<rect x="2" y="2" width="104" height="104" rx="12" stroke="#FBFBFB" stroke-opacity="0.933333" stroke-width="4" shape-rendering="crispEdges"/>
</g>
<g clip-path="url(#clip0_20_204)">
<path d="M81.8552 26.7921C74.6019 16.9579 60.2733 14.0432 49.9178 20.2942L31.7242 31.2786C29.2629 32.7402 27.1508 34.6725 25.5231 36.9517C23.8953 39.231 22.7878 41.8071 22.2714 44.5152C22.0407 45.7356 21.9237 46.9729 21.9217 48.2128C21.9332 51.5838 22.8057 54.9021 24.4645 57.8843C22.9088 60.1228 21.8471 62.6363 21.3433 65.2735C20.8275 68.0363 20.8992 70.8689 21.5542 73.6052C22.2091 76.3414 23.4342 78.9262 25.1574 81.2081C32.4107 91.0422 46.7711 93.9569 57.0949 87.706L75.2694 76.7216C77.7292 75.2582 79.8387 73.3235 81.4623 71.0418C83.0858 68.7601 84.1876 66.1819 84.6968 63.4729C84.9306 62.2549 85.0477 61.0193 85.0464 59.7813C85.042 56.417 84.1806 53.1034 82.5354 50.1218C84.0904 47.8851 85.1521 45.3738 85.6567 42.7387C85.8821 41.5197 85.997 40.2847 86 39.0471C86.0011 34.6563 84.5518 30.3753 81.8552 26.8041V26.7921Z" fill="#FF3E00"/>
<path d="M48.1379 82.1354C46.9502 82.4263 45.7285 82.574 44.5018 82.575C42.1682 82.5756 39.8693 82.04 37.8022 81.0142C35.7351 79.9884 33.9615 78.503 32.6333 76.6854C31.0111 74.5371 30.1397 71.9616 30.1414 69.3203C30.1422 68.5774 30.2103 67.836 30.3448 67.1042C30.4528 66.5595 30.5993 66.0223 30.7834 65.4963L31.1267 64.5086L32.0548 65.1771C34.2094 66.6749 36.6169 67.8153 39.1746 68.5495L39.8484 68.7422L39.7849 69.3805C39.7849 69.4889 39.7849 69.6033 39.7849 69.7117C39.7836 70.5104 40.0458 71.2895 40.535 71.9399C40.9303 72.4938 41.4624 72.9479 42.085 73.2627C42.7076 73.5776 43.4019 73.7437 44.1076 73.7466C44.4766 73.7478 44.8442 73.7033 45.201 73.6141C45.5969 73.5148 45.9742 73.3584 46.3198 73.1504L64.4944 62.1118C65.0396 61.7847 65.4883 61.332 65.7985 60.7959C66.1087 60.2598 66.2703 59.6579 66.268 59.0465C66.2629 58.2479 65.9939 57.4708 65.4988 56.8244C65.0975 56.2775 64.5623 55.8307 63.939 55.5224C63.3158 55.2141 62.623 55.0533 61.9198 55.0539C61.5508 55.0526 61.1832 55.0972 60.8264 55.1864C60.4318 55.2836 60.0563 55.4402 59.714 55.6501L52.7849 59.8415C51.6427 60.5271 50.3974 61.0449 49.0915 61.3771C47.9036 61.6672 46.682 61.8149 45.4553 61.8167C43.1226 61.8164 40.8247 61.2811 38.7579 60.2565C36.6911 59.2319 34.9169 57.7485 33.5868 55.9331C31.9666 53.7839 31.0954 51.209 31.0949 48.568C31.0958 47.8252 31.1638 47.0837 31.2983 46.3519C31.6091 44.7241 32.2737 43.1753 33.2498 41.8038C34.226 40.4323 35.4924 39.2679 36.9687 38.3846L55.1624 27.4062C56.3039 26.718 57.5493 26.1982 58.8558 25.8646C60.0439 25.5761 61.2655 25.4305 62.492 25.431C64.8304 25.4253 67.1355 25.9571 69.2093 26.9808C71.2831 28.0046 73.0638 29.4896 74.3986 31.3086C76.0088 33.463 76.8688 36.0399 76.8587 38.6797C76.8578 39.4245 76.7898 40.168 76.6553 40.9018C76.5473 41.4465 76.4008 41.9837 76.2167 42.5098L75.8734 43.4974L74.9453 42.853C72.7921 41.3528 70.3842 40.2123 67.8255 39.4806L67.1516 39.2819L67.2152 38.6435C67.2152 38.5351 67.2152 38.4207 67.2152 38.3123C67.2153 37.512 66.9532 36.7314 66.4651 36.0781C66.0643 35.532 65.5302 35.0858 64.9081 34.7776C64.286 34.4693 63.5945 34.308 62.8925 34.3076C62.5266 34.3153 62.1633 34.3679 61.8118 34.4642C61.4146 34.5597 61.0366 34.7164 60.6929 34.9279L42.4993 45.9062C42.054 46.1739 41.672 46.5262 41.3777 46.9408C41.0834 47.3555 40.883 47.8234 40.7893 48.3151C40.7444 48.5255 40.7168 48.739 40.7066 48.9534C40.7062 49.7501 40.9685 50.527 41.4568 51.1756C41.8571 51.7221 42.3912 52.1685 43.0134 52.4769C43.6355 52.7852 44.3272 52.9462 45.0294 52.9461C45.3984 52.9474 45.766 52.9028 46.1228 52.8136C46.5196 52.717 46.8974 52.5604 47.2416 52.3499L54.1834 48.1344C55.325 47.4477 56.5705 46.9299 57.8768 46.5988C59.0646 46.3083 60.2863 46.1606 61.513 46.1592C63.8467 46.159 66.1457 46.6941 68.2136 47.7187C70.2815 48.7433 72.0568 50.2269 73.3878 52.0428C75.008 54.192 75.8792 56.7669 75.8797 59.4079C75.8814 60.1591 75.8112 60.9089 75.67 61.6481C75.3607 63.2763 74.6967 64.8257 73.7204 66.1974C72.7441 67.5692 71.4769 68.7332 69.9995 69.6154L51.8377 80.5937C50.6942 81.2825 49.4466 81.8024 48.1379 82.1354Z" fill="white"/>
</g>
<defs>
<filter id="filter0_d_20_204" x="0" y="0" width="113" height="113" filterUnits="userSpaceOnUse" color-interpolation-filters="sRGB">
<feFlood flood-opacity="0" result="BackgroundImageFix"/>
<feColorMatrix in="SourceAlpha" type="matrix" values="0 0 0 0 0 0 0 0 0 0 0 0 0 0 0 0 0 0 127 0" result="hardAlpha"/>
<feOffset dx="4" dy="4"/>
<feGaussianBlur stdDeviation="0.5"/>
<feComposite in2="hardAlpha" operator="out"/>
<feColorMatrix type="matrix" values="0 0 0 0 0 0 0 0 0 0 0 0 0 0 0 0 0 0 0.25 0"/>
<feBlend mode="normal" in2="BackgroundImageFix" result="effect1_dropShadow_20_204"/>
<feBlend mode="normal" in="SourceGraphic" in2="effect1_dropShadow_20_204" result="shape"/>
</filter>
<clipPath id="clip0_20_204">
<rect width="65" height="74" fill="white" transform="translate(21 17)"/>
</clipPath>
</defs>
</svg>
