<svg width="113" height="113" viewBox="0 0 113 113" fill="none" xmlns="http://www.w3.org/2000/svg">
<g filter="url(#filter0_d_20_199)">
<rect x="4" y="4" width="100" height="100" rx="10" fill="#0559D3" shape-rendering="crispEdges"/>
<rect x="2" y="2" width="104" height="104" rx="12" stroke="#FBFBFB" stroke-opacity="0.933333" stroke-width="4" shape-rendering="crispEdges"/>
</g>
<mask id="mask0_20_199" style="mask-type:luminance" maskUnits="userSpaceOnUse" x="18" y="18" width="71" height="71">
<path fill-rule="evenodd" clip-rule="evenodd" d="M68.0896 88.3365C69.2016 88.772 70.4709 88.7442 71.594 88.2006L86.1384 81.1666C87.667 80.4288 88.6383 78.8728 88.6383 77.1669V29.4709C88.6383 27.7651 87.667 26.2118 86.1384 25.4713L71.594 18.4372C70.1205 17.7244 68.3959 17.8991 67.1018 18.845C66.9169 18.9809 66.7403 19.1306 66.5748 19.2971L38.736 44.8287L26.6087 35.573C25.4802 34.7104 23.9018 34.7825 22.8533 35.7422L18.9627 39.298C17.6796 40.4713 17.6796 42.4988 18.9599 43.6721L29.4757 53.3189L18.9599 62.963C17.6796 64.139 17.6796 66.1666 18.9627 67.3398L22.8533 70.8957C23.9018 71.8554 25.4802 71.9247 26.6087 71.0649L38.736 61.8119L66.5775 87.3435C67.019 87.7846 67.535 88.1202 68.0896 88.3365ZM70.9897 37.2011L49.8643 53.3189L70.9897 69.4395V37.2011Z" fill="white"/>
</mask>
<g mask="url(#mask0_20_199)">
<path d="M86.1383 25.4825L71.5829 18.4374C69.8997 17.6219 67.8854 17.9658 66.5637 19.2944L18.9157 62.9631C17.6354 64.1391 17.6354 66.1667 18.9185 67.34L22.8091 70.8958C23.8577 71.8555 25.4387 71.9248 26.5673 71.065L83.9474 27.3103C85.8734 25.8431 88.6383 27.2216 88.6383 29.6513V29.4821C88.6383 27.7763 87.667 26.2203 86.1383 25.4825Z" fill="#0065A9"/>
<path d="M86.1383 81.1555L71.5829 88.2006C69.8997 89.0161 67.8854 88.6721 66.5637 87.3436L18.9157 43.6749C17.6354 42.5016 17.6354 40.4713 18.9185 39.3008L22.8091 35.7449C23.8577 34.7853 25.4387 34.7159 26.5673 35.5758L83.9474 79.3276C85.8734 80.7949 88.6383 79.4164 88.6383 76.9867V77.1559C88.6383 78.8617 87.667 80.4177 86.1383 81.1555Z" fill="#007ACC"/>
<path d="M71.5857 88.2006C69.8997 89.0161 67.8882 88.6721 66.5637 87.3408C68.1917 88.9772 70.9786 87.8178 70.9786 85.5018V21.1332C70.9786 18.8172 68.1917 17.6578 66.5637 19.2943C67.8854 17.9657 69.8997 17.6218 71.5857 18.4344L86.1384 25.4685C87.667 26.209 88.6411 27.7623 88.6411 29.4681V77.1669C88.6411 78.8727 87.6698 80.426 86.1384 81.1666L71.5857 88.2006Z" fill="#1F9CF0"/>
<g opacity="0.25">
<path fill-rule="evenodd" clip-rule="evenodd" d="M68.0482 88.3367C69.1602 88.7722 70.4295 88.7444 71.5525 88.2008L86.0969 81.1668C87.6256 80.429 88.5969 78.8729 88.5969 77.1671V29.4711C88.5969 27.7653 87.6256 26.212 86.0969 25.4714L71.5525 18.4374C70.0791 17.7246 68.3545 17.8993 67.0604 18.8451C66.8755 18.9811 66.6989 19.1308 66.5333 19.2973L38.6918 44.8289L26.5646 35.5732C25.436 34.7105 23.8577 34.7827 22.8091 35.7423L18.9185 39.2982C17.6354 40.4715 17.6354 42.499 18.9157 43.6751L29.4342 53.3191L18.9157 62.9632C17.6354 64.1392 17.6354 66.1667 18.9185 67.34L22.8091 70.8959C23.8577 71.8555 25.436 71.9249 26.5646 71.0651L38.6918 61.8121L66.5333 87.3437C66.9748 87.7847 67.4908 88.1204 68.0482 88.3367ZM70.9455 37.2013L49.8201 53.3191L70.9455 69.4397V37.2013Z" fill="url(#paint0_linear_20_199)"/>
</g>
</g>
<defs>
<filter id="filter0_d_20_199" x="0" y="0" width="113" height="113" filterUnits="userSpaceOnUse" color-interpolation-filters="sRGB">
<feFlood flood-opacity="0" result="BackgroundImageFix"/>
<feColorMatrix in="SourceAlpha" type="matrix" values="0 0 0 0 0 0 0 0 0 0 0 0 0 0 0 0 0 0 127 0" result="hardAlpha"/>
<feOffset dx="4" dy="4"/>
<feGaussianBlur stdDeviation="0.5"/>
<feComposite in2="hardAlpha" operator="out"/>
<feColorMatrix type="matrix" values="0 0 0 0 0 0 0 0 0 0 0 0 0 0 0 0 0 0 0.25 0"/>
<feBlend mode="normal" in2="BackgroundImageFix" result="effect1_dropShadow_20_199"/>
<feBlend mode="normal" in="SourceGraphic" in2="effect1_dropShadow_20_199" result="shape"/>
</filter>
<linearGradient id="paint0_linear_20_199" x1="53.2759" y1="17.9992" x2="53.2759" y2="88.6391" gradientUnits="userSpaceOnUse">
<stop stop-color="white"/>
<stop offset="1" stop-color="white" stop-opacity="0"/>
</linearGradient>
</defs>
</svg>
