<svg width="113" height="113" viewBox="0 0 113 113" fill="none" xmlns="http://www.w3.org/2000/svg">
<g filter="url(#filter0_d_20_212)">
<rect x="4" y="4" width="100" height="100" rx="10" fill="#45ADF3" shape-rendering="crispEdges"/>
<rect x="2" y="2" width="104" height="104" rx="12" stroke="#FBFBFB" stroke-opacity="0.933333" stroke-width="4" shape-rendering="crispEdges"/>
</g>
<g clip-path="url(#clip0_20_212)">
<path d="M68.2713 45.4894H86.5172C88.241 45.4894 89.6384 46.9916 89.6384 48.8446V66.7109C89.6384 73.5215 84.5025 79.0426 78.1671 79.0426H78.1129C71.7774 79.0436 66.641 73.5232 66.64 66.7126C66.64 66.712 66.64 66.7116 66.64 66.7109V47.243C66.64 46.2744 67.3702 45.4894 68.2713 45.4894Z" fill="#5059C9"/>
<path d="M80.6032 41.9574C84.6859 41.9574 87.9956 38.3995 87.9956 34.0106C87.9956 29.6216 84.6859 26.0637 80.6032 26.0637C76.5205 26.0637 73.2108 29.6216 73.2108 34.0106C73.2108 38.3995 76.5205 41.9574 80.6032 41.9574Z" fill="#5059C9"/>
<path d="M57.6046 41.9577C63.5019 41.9577 68.2826 36.8185 68.2826 30.4789C68.2826 24.1393 63.5019 19 57.6046 19C51.7073 19 46.9266 24.1393 46.9266 30.4789C46.9266 36.8185 51.7073 41.9577 57.6046 41.9577Z" fill="#7B83EB"/>
<path d="M71.8423 45.4894H41.7242C40.021 45.5347 38.6734 47.0543 38.713 48.8855V69.2628C38.475 80.251 46.5621 89.3695 56.7834 89.6383C67.0047 89.3695 75.0915 80.251 74.8538 69.2628V48.8855C74.8931 47.0543 73.5458 45.5347 71.8423 45.4894Z" fill="#7B83EB"/>
<path opacity="0.1" d="M58.4261 45.4894V74.0452C58.4178 75.3548 57.6797 76.5309 56.5533 77.0297C56.1945 77.1929 55.8092 77.2767 55.4197 77.277H40.1585C39.9449 76.6945 39.7478 76.1115 39.5836 75.5112C39.0087 73.4847 38.7152 71.3782 38.713 69.2597V48.8801C38.6734 47.0519 40.0188 45.5347 41.7191 45.4894H58.4261Z" fill="black"/>
<path opacity="0.2" d="M56.7834 45.4894V75.811C56.7834 76.2297 56.7051 76.644 56.5533 77.0297C56.0896 78.2406 54.9953 79.034 53.777 79.0429H40.9306C40.6514 78.4603 40.3886 77.8774 40.1585 77.2771C39.9284 76.6767 39.7478 76.1115 39.5836 75.5112C39.0087 73.4847 38.7152 71.3782 38.713 69.2597V48.8801C38.6734 47.0519 40.0188 45.5347 41.7191 45.4894H56.7834Z" fill="black"/>
<path opacity="0.2" d="M56.7834 45.4894V72.279C56.7707 74.0581 55.4323 75.4972 53.7773 75.5105H39.5836C39.0087 73.484 38.7152 71.3775 38.713 69.259V48.8801C38.6734 47.0519 40.0188 45.5347 41.7191 45.4894H56.7834Z" fill="black"/>
<path opacity="0.2" d="M55.1404 45.4894V72.279C55.1278 74.0581 53.7894 75.4972 52.1344 75.5105H39.5836C39.0087 73.484 38.7152 71.3775 38.713 69.259V48.8801C38.6734 47.0519 40.0188 45.5347 41.7191 45.4894H55.1404Z" fill="black"/>
<path opacity="0.1" d="M58.4261 36.3594V41.9223C58.1469 41.94 57.8841 41.9577 57.6046 41.9577C57.3251 41.9577 57.0626 41.94 56.7831 41.9223C56.2285 41.8828 55.6786 41.7881 55.1405 41.6399C51.814 40.7929 49.0656 38.285 47.7481 34.894C47.5215 34.3247 47.3453 33.7332 47.2223 33.1282H55.4197C57.0775 33.1346 58.4197 34.5775 58.4261 36.3594Z" fill="black"/>
<path opacity="0.2" d="M56.7835 38.1252V41.9223C56.2288 41.8828 55.6789 41.7881 55.1408 41.6399C51.8143 40.7929 49.0659 38.285 47.7484 34.894H53.7774C55.4349 34.9005 56.7771 36.3433 56.7835 38.1252Z" fill="black"/>
<path opacity="0.2" d="M56.7835 38.1252V41.9223C56.2288 41.8828 55.6789 41.7881 55.1408 41.6399C51.8143 40.7929 49.0659 38.285 47.7484 34.894H53.7774C55.4349 34.9005 56.7771 36.3433 56.7835 38.1252Z" fill="black"/>
<path opacity="0.2" d="M55.1404 38.1252V41.6395C51.8139 40.7925 49.0655 38.2846 47.748 34.8937H52.1344C53.7919 34.9005 55.1341 36.3433 55.1404 38.1252Z" fill="black"/>
<path d="M22.0112 34.8937H52.1293C53.7923 34.8937 55.1405 36.343 55.1405 38.1306V70.5077C55.1405 72.2953 53.7923 73.7447 52.1293 73.7447H22.0112C20.3482 73.7447 19 72.2953 19 70.5077V38.1306C19 36.343 20.3482 34.8937 22.0112 34.8937Z" fill="url(#paint0_linear_20_212)"/>
<path d="M44.9949 47.2164H38.9741V64.8408H35.1383V47.2164H29.1455V43.7975H44.9949V47.2164Z" fill="white"/>
</g>
<defs>
<filter id="filter0_d_20_212" x="0" y="0" width="113" height="113" filterUnits="userSpaceOnUse" color-interpolation-filters="sRGB">
<feFlood flood-opacity="0" result="BackgroundImageFix"/>
<feColorMatrix in="SourceAlpha" type="matrix" values="0 0 0 0 0 0 0 0 0 0 0 0 0 0 0 0 0 0 127 0" result="hardAlpha"/>
<feOffset dx="4" dy="4"/>
<feGaussianBlur stdDeviation="0.5"/>
<feComposite in2="hardAlpha" operator="out"/>
<feColorMatrix type="matrix" values="0 0 0 0 0 0 0 0 0 0 0 0 0 0 0 0 0 0 0.25 0"/>
<feBlend mode="normal" in2="BackgroundImageFix" result="effect1_dropShadow_20_212"/>
<feBlend mode="normal" in="SourceGraphic" in2="effect1_dropShadow_20_212" result="shape"/>
</filter>
<linearGradient id="paint0_linear_20_212" x1="25.2783" y1="32.3643" x2="51.5117" y2="74.6296" gradientUnits="userSpaceOnUse">
<stop stop-color="#5A62C3"/>
<stop offset="0.5" stop-color="#4D55BD"/>
<stop offset="1" stop-color="#3940AB"/>
</linearGradient>
<clipPath id="clip0_20_212">
<rect width="70.6383" height="70.6383" fill="white" transform="translate(19 19)"/>
</clipPath>
</defs>
</svg>
