<svg width="113" height="113" viewBox="0 0 113 113" fill="none" xmlns="http://www.w3.org/2000/svg">
<g filter="url(#filter0_d_20_198)">
<rect x="4" y="4" width="100" height="100" rx="10" fill="#0559D3" shape-rendering="crispEdges"/>
<rect x="2" y="2" width="104" height="104" rx="12" stroke="#FBFBFB" stroke-opacity="0.933333" stroke-width="4" shape-rendering="crispEdges"/>
</g>
<path d="M68.5017 28.8349C68.0847 27.4154 67.2192 26.1691 66.0348 25.2825C64.8504 24.396 63.4107 23.9168 61.9312 23.9167H59.9343C58.3325 23.9167 56.7813 24.4781 55.5505 25.5035C54.3198 26.5288 53.4874 27.9531 53.1982 29.5286L49.7725 48.1854L50.623 45.2788C51.0388 43.8574 51.9041 42.6092 53.0893 41.7211C54.2744 40.8331 55.7155 40.3531 57.1964 40.3532H68.8123L73.6847 42.2495L78.381 40.3517H77.0113C75.5316 40.3519 74.0916 39.8729 72.9069 38.9863C71.7221 38.0997 70.8565 36.8532 70.4394 35.4335L68.5017 28.8349Z" fill="url(#paint0_radial_20_198)"/>
<path d="M39.1965 78.137C39.6089 79.5634 40.4738 80.8172 41.6607 81.7094C42.8477 82.6015 44.2924 83.0837 45.7773 83.0833H50.0225C51.8083 83.0836 53.5235 82.3863 54.8025 81.1401C56.0816 79.8939 56.8233 78.1975 56.8696 76.4123L57.3311 58.4212L56.3637 61.7242C55.9477 63.145 55.0825 64.3928 53.8976 65.2805C52.7128 66.1683 51.2723 66.6482 49.7918 66.6483H38.0782L33.9026 64.3822L29.3807 66.6483H30.7297C32.2141 66.6486 33.6582 67.1311 34.8445 68.0232C36.0309 68.9153 36.8953 70.1687 37.3076 71.5947L39.1994 78.137H39.1965Z" fill="url(#paint1_radial_20_198)"/>
<path d="M61.6355 23.9167H37.9096C31.1306 23.9167 27.0644 32.876 24.3531 41.8338C21.1403 52.4498 16.935 66.6424 29.0982 66.6424H39.3415C40.8308 66.6437 42.2799 66.1596 43.4693 65.2633C44.6587 64.367 45.5235 63.1074 45.9326 61.6754C48.3473 53.206 50.7983 44.7471 53.2856 36.2988C54.5325 32.0935 55.5694 28.4829 57.1625 26.2331C58.0559 24.9728 59.5439 23.9167 61.6355 23.9167Z" fill="url(#paint2_linear_20_198)"/>
<path d="M61.6355 23.9167H37.9096C31.1306 23.9167 27.0644 32.876 24.3531 41.8338C21.1403 52.4498 16.935 66.6424 29.0982 66.6424H39.3415C40.8308 66.6437 42.2799 66.1596 43.4693 65.2633C44.6587 64.367 45.5235 63.1074 45.9326 61.6754C48.3473 53.206 50.7983 44.7471 53.2856 36.2988C54.5325 32.0935 55.5694 28.4829 57.1625 26.2331C58.0559 24.9728 59.5439 23.9167 61.6355 23.9167Z" fill="url(#paint3_linear_20_198)"/>
<path d="M45.3616 83.0833H69.0874C75.8649 83.0833 79.9327 74.1226 82.644 65.1632C85.8552 54.5473 90.059 40.3502 77.8988 40.3502H67.6541C66.1651 40.3492 64.7162 40.8335 63.5272 41.7298C62.3381 42.6261 61.4735 43.8855 61.0644 45.3173C58.6492 53.7886 56.1977 62.2495 53.71 70.6998C52.4645 74.905 51.4262 78.5172 49.8346 80.767C48.9412 82.0272 47.4531 83.0833 45.3616 83.0833Z" fill="url(#paint4_radial_20_198)"/>
<path d="M45.3616 83.0833H69.0874C75.8649 83.0833 79.9327 74.1226 82.644 65.1632C85.8552 54.5473 90.059 40.3502 77.8988 40.3502H67.6541C66.1651 40.3492 64.7162 40.8335 63.5272 41.7298C62.3381 42.6261 61.4735 43.8855 61.0644 45.3173C58.6492 53.7886 56.1977 62.2495 53.71 70.6998C52.4645 74.905 51.4262 78.5172 49.8346 80.767C48.9412 82.0272 47.4531 83.0833 45.3616 83.0833Z" fill="url(#paint5_linear_20_198)"/>
<defs>
<filter id="filter0_d_20_198" x="0" y="0" width="113" height="113" filterUnits="userSpaceOnUse" color-interpolation-filters="sRGB">
<feFlood flood-opacity="0" result="BackgroundImageFix"/>
<feColorMatrix in="SourceAlpha" type="matrix" values="0 0 0 0 0 0 0 0 0 0 0 0 0 0 0 0 0 0 127 0" result="hardAlpha"/>
<feOffset dx="4" dy="4"/>
<feGaussianBlur stdDeviation="0.5"/>
<feComposite in2="hardAlpha" operator="out"/>
<feColorMatrix type="matrix" values="0 0 0 0 0 0 0 0 0 0 0 0 0 0 0 0 0 0 0.25 0"/>
<feBlend mode="normal" in2="BackgroundImageFix" result="effect1_dropShadow_20_198"/>
<feBlend mode="normal" in="SourceGraphic" in2="effect1_dropShadow_20_198" result="shape"/>
</filter>
<radialGradient id="paint0_radial_20_198" cx="0" cy="0" r="1" gradientUnits="userSpaceOnUse" gradientTransform="translate(74.2157 48.3436) rotate(-129.304) scale(25.5945 24.0669)">
<stop offset="0.096" stop-color="#00AEFF"/>
<stop offset="0.773" stop-color="#2253CE"/>
<stop offset="1" stop-color="#0736C4"/>
</radialGradient>
<radialGradient id="paint1_radial_20_198" cx="0" cy="0" r="1" gradientUnits="userSpaceOnUse" gradientTransform="translate(34.4504 66.5414) rotate(51.84) scale(23.6536 22.9447)">
<stop stop-color="#FFB657"/>
<stop offset="0.634" stop-color="#FF5F3D"/>
<stop offset="0.923" stop-color="#C02B3C"/>
</radialGradient>
<linearGradient id="paint2_linear_20_198" x1="36.4896" y1="29.0938" x2="39.874" y2="68.2547" gradientUnits="userSpaceOnUse">
<stop offset="0.156" stop-color="#0D91E1"/>
<stop offset="0.487" stop-color="#52B471"/>
<stop offset="0.652" stop-color="#98BD42"/>
<stop offset="0.937" stop-color="#FFC800"/>
</linearGradient>
<linearGradient id="paint3_linear_20_198" x1="39.448" y1="23.9167" x2="41.2969" y2="66.6424" gradientUnits="userSpaceOnUse">
<stop stop-color="#3DCBFF"/>
<stop offset="0.247" stop-color="#0588F7" stop-opacity="0"/>
</linearGradient>
<radialGradient id="paint4_radial_20_198" cx="0" cy="0" r="1" gradientUnits="userSpaceOnUse" gradientTransform="translate(79.1159 36.1658) rotate(109.274) scale(56.7812 68.022)">
<stop offset="0.066" stop-color="#8C48FF"/>
<stop offset="0.5" stop-color="#F2598A"/>
<stop offset="0.896" stop-color="#FFB152"/>
</radialGradient>
<linearGradient id="paint5_linear_20_198" x1="80.9917" y1="37.741" x2="80.9666" y2="49.3805" gradientUnits="userSpaceOnUse">
<stop offset="0.058" stop-color="#F8ADFA"/>
<stop offset="0.708" stop-color="#A86EDD" stop-opacity="0"/>
</linearGradient>
</defs>
</svg>
