<svg width="113" height="113" viewBox="0 0 113 113" fill="none" xmlns="http://www.w3.org/2000/svg">
<g filter="url(#filter0_d_20_200)">
<rect x="4" y="4" width="100" height="100" rx="10" fill="#0559D3" shape-rendering="crispEdges"/>
<rect x="2" y="2" width="104" height="104" rx="12" stroke="#FBFBFB" stroke-opacity="0.933333" stroke-width="4" shape-rendering="crispEdges"/>
</g>
<g clip-path="url(#clip0_20_200)">
<path d="M95.322 46.8224C95.106 46.6223 93.1488 44.9503 88.9484 44.9503C87.8618 44.9503 86.737 45.0718 85.6504 45.279C84.8561 39.0483 80.2554 36.033 80.0711 35.8758L78.9464 35.1398L78.222 36.3188C77.3196 37.9051 76.627 39.6985 76.233 41.5277C75.4705 45.0718 75.9407 48.4086 77.5357 51.2596C75.6166 52.4815 72.5029 52.7673 71.8484 52.8101H20.4211C19.0803 52.8101 17.9937 54.032 17.9937 55.5396C17.9238 60.5914 18.68 65.6359 20.2368 70.4018C22.0098 75.6108 24.6532 79.4835 28.0593 81.8415C31.8974 84.4852 38.163 85.9929 45.2229 85.9929C48.4065 85.9929 51.5965 85.6642 54.7483 85.014C59.1329 84.1208 63.3333 82.4059 67.2032 79.9265C70.3932 77.8472 73.2527 75.2035 75.6802 72.1096C79.7725 66.9364 82.1999 61.1558 83.9728 56.0255C84.227 56.0255 84.4431 56.0255 84.6972 56.0255C89.1518 56.0255 91.9033 54.032 93.422 52.3171C94.4387 51.2596 95.1949 49.952 95.7414 48.4872L96.0655 47.4297L95.322 46.8224ZM63.4922 51.1381H70.3741C70.6982 51.1381 70.9905 50.8523 70.9905 50.4451V43.5213C70.9905 43.1569 70.7363 42.8282 70.3741 42.8282H63.4922C63.1681 42.8282 62.8758 43.114 62.8758 43.5213V50.4451C62.9139 50.8523 63.1681 51.1381 63.4922 51.1381ZM53.8968 31.31H60.7788C61.1029 31.31 61.3952 31.0242 61.3952 30.6169V23.6931C61.3952 23.3287 61.1029 23 60.7788 23H53.8968C53.5727 23 53.2804 23.2858 53.2804 23.6931V30.6169C53.2804 30.9813 53.5664 31.31 53.8968 31.31ZM53.8968 41.2419H60.7788C61.1029 41.2419 61.3952 40.9132 61.3952 40.5488V33.625C61.3952 33.2606 61.1029 32.932 60.7788 32.932H53.8968C53.5727 32.932 53.2804 33.2178 53.2804 33.625V40.5488C53.2804 40.9204 53.5664 41.2419 53.8968 41.2419ZM44.3714 41.2419H51.2533C51.5774 41.2419 51.8697 40.9132 51.8697 40.5488V33.625C51.8697 33.2606 51.6155 32.932 51.2533 32.932H44.3714C44.0473 32.932 43.755 33.2178 43.755 33.625V40.5488C43.755 40.9204 44.0092 41.2419 44.3714 41.2419ZM34.6998 41.2419H41.5817C41.9058 41.2419 42.1981 40.9132 42.1981 40.5488V33.625C42.1981 33.2606 41.9439 32.932 41.5817 32.932H34.6998C34.3757 32.932 34.0834 33.2178 34.0834 33.625V40.5488C34.1215 40.9204 34.3757 41.2419 34.6998 41.2419ZM53.8968 51.1381H60.7788C61.1029 51.1381 61.3952 50.8523 61.3952 50.4451V43.5213C61.3952 43.1569 61.141 42.8282 60.7788 42.8282H53.8968C53.5727 42.8282 53.2804 43.114 53.2804 43.5213V50.4451C53.2804 50.8523 53.5664 51.1381 53.8968 51.1381ZM44.3714 51.1381H51.2533C51.5774 51.1381 51.8697 50.8523 51.8697 50.4451V43.5213C51.8697 43.1569 51.6155 42.8282 51.2533 42.8282H44.3714C44.0473 42.8282 43.755 43.114 43.755 43.5213V50.4451C43.755 50.8523 44.0092 51.1381 44.3714 51.1381ZM34.6998 51.1381H41.5817C41.9058 51.1381 42.1981 50.8523 42.1981 50.4451V43.5213C42.1981 43.1569 41.9439 42.8282 41.5817 42.8282H34.6998C34.3757 42.8282 34.0834 43.114 34.0834 43.5213V50.4451C34.1215 50.8523 34.3757 51.1381 34.6998 51.1381ZM25.2124 51.1381H32.0944C32.4185 51.1381 32.7108 50.8523 32.7108 50.4451V43.5213C32.7108 43.1569 32.4566 42.8282 32.0944 42.8282H25.2124C24.8884 42.8282 24.5961 43.114 24.5961 43.5213V50.4451C24.6342 50.8523 24.8884 51.1381 25.2124 51.1381Z" fill="#0091E2"/>
</g>
<defs>
<filter id="filter0_d_20_200" x="0" y="0" width="113" height="113" filterUnits="userSpaceOnUse" color-interpolation-filters="sRGB">
<feFlood flood-opacity="0" result="BackgroundImageFix"/>
<feColorMatrix in="SourceAlpha" type="matrix" values="0 0 0 0 0 0 0 0 0 0 0 0 0 0 0 0 0 0 127 0" result="hardAlpha"/>
<feOffset dx="4" dy="4"/>
<feGaussianBlur stdDeviation="0.5"/>
<feComposite in2="hardAlpha" operator="out"/>
<feColorMatrix type="matrix" values="0 0 0 0 0 0 0 0 0 0 0 0 0 0 0 0 0 0 0.25 0"/>
<feBlend mode="normal" in2="BackgroundImageFix" result="effect1_dropShadow_20_200"/>
<feBlend mode="normal" in="SourceGraphic" in2="effect1_dropShadow_20_200" result="shape"/>
</filter>
<clipPath id="clip0_20_200">
<rect width="78.0845" height="63" fill="white" transform="translate(18 23)"/>
</clipPath>
</defs>
</svg>
