<svg width="113" height="113" viewBox="0 0 113 113" fill="none" xmlns="http://www.w3.org/2000/svg">
<g filter="url(#filter0_d_20_211)">
<rect x="4" y="4" width="100" height="100" rx="10" fill="#45ADF3" shape-rendering="crispEdges"/>
<rect x="2" y="2" width="104" height="104" rx="12" stroke="#FBFBFB" stroke-opacity="0.933333" stroke-width="4" shape-rendering="crispEdges"/>
</g>
<ellipse cx="54" cy="53.5" rx="35" ry="35.5" fill="white"/>
<path d="M43.0298 88C44.1117 87.5223 44.8696 86.4185 44.8696 85.1336V76.7028C44.8696 76.3953 44.8939 76.0752 44.932 75.7505C44.9107 75.7567 44.8909 75.7614 44.8696 75.7661C44.8696 75.7661 40.3043 75.7661 39.3913 75.7661C37.1087 75.7661 35.1304 74.8293 34.2174 72.9558C33.1522 70.9262 32.6957 67.4915 29.9565 65.618C29.5 65.3057 29.8043 64.8374 30.7174 64.8374C31.6304 64.9935 33.6087 66.2425 34.8261 67.9599C36.1957 69.6772 37.5652 71.0823 40 71.0823C43.7846 71.0823 45.813 70.8872 47.0335 70.2159C48.4548 68.0473 50.4224 66.3986 52.4783 66.3986V66.3596C43.853 66.0754 38.3428 63.134 35.7772 58.5924C30.2 58.658 25.3441 59.2247 22.573 59.6962C22.4848 59.1857 22.4087 58.672 22.3433 58.1552C25.0778 57.6931 29.713 57.1451 35.0422 57.0405C34.8717 56.6096 34.7241 56.1678 34.5993 55.715C29.2565 55.4371 24.6457 55.6541 22.1409 55.8664C22.1104 55.3481 22.0693 54.8313 22.0633 54.3068C24.5726 54.096 29.0587 53.8852 34.2646 54.1335C34.1443 53.3528 34.0667 52.555 34.0667 51.7245C34.0667 49.0703 34.9798 46.2601 36.6537 43.9182C35.8928 41.2641 34.8276 35.6436 36.958 33.614C41.0667 33.614 43.958 35.6436 45.3276 36.8926C47.913 35.7982 50.8043 35.1737 54 35.1737C57.1957 35.1737 60.087 35.7982 62.5217 36.8911C63.8913 35.6421 66.7826 33.6125 70.8913 33.6125C73.1739 35.7982 71.9565 41.4187 71.1957 43.9167C72.8696 46.2585 73.7826 48.9127 73.6304 51.7229C73.6304 52.4785 73.562 53.2076 73.463 53.9227C78.7876 53.6542 83.3954 53.8696 85.9474 54.0819C85.9443 54.6081 85.8972 55.1217 85.8698 55.6416C83.327 55.4262 78.6035 55.2045 73.1496 55.5027C73.0141 56.0273 72.8498 56.5378 72.655 57.0327C78.0511 57.1045 82.7974 57.64 85.6628 58.1084C85.5974 58.6267 85.5213 59.1404 85.433 59.6493C82.5235 59.1716 77.5641 58.6127 71.9215 58.5846C69.3878 63.0778 63.978 66.0083 55.5217 66.3502V66.3986C59.4783 66.3986 63.1304 72.4875 63.1304 76.7028V85.1336C63.1304 86.4185 63.8883 87.5223 64.9702 88C78.9109 83.2663 89 69.7771 89 53.9086C89 34.1089 73.3002 18 54 18C34.6998 18 19 34.1089 19 53.9086C19 69.7771 29.0891 83.2663 43.0298 88Z" fill="black"/>
<defs>
<filter id="filter0_d_20_211" x="0" y="0" width="113" height="113" filterUnits="userSpaceOnUse" color-interpolation-filters="sRGB">
<feFlood flood-opacity="0" result="BackgroundImageFix"/>
<feColorMatrix in="SourceAlpha" type="matrix" values="0 0 0 0 0 0 0 0 0 0 0 0 0 0 0 0 0 0 127 0" result="hardAlpha"/>
<feOffset dx="4" dy="4"/>
<feGaussianBlur stdDeviation="0.5"/>
<feComposite in2="hardAlpha" operator="out"/>
<feColorMatrix type="matrix" values="0 0 0 0 0 0 0 0 0 0 0 0 0 0 0 0 0 0 0.25 0"/>
<feBlend mode="normal" in2="BackgroundImageFix" result="effect1_dropShadow_20_211"/>
<feBlend mode="normal" in="SourceGraphic" in2="effect1_dropShadow_20_211" result="shape"/>
</filter>
</defs>
</svg>
